<svg width="20" height="21" viewBox="0 0 20 21" fill="none" xmlns="http://www.w3.org/2000/svg">
<mask id="mask0_304_45988" style="mask-type:alpha" maskUnits="userSpaceOnUse" x="0" y="0" width="20" height="21">
<rect y="0.5" width="20" height="20" fill="#D9D9D9"/>
</mask>
<g mask="url(#mask0_304_45988)">
<path d="M5.01793 14.9099C5.72626 14.3843 6.49789 13.9692 7.33282 13.6647C8.16775 13.3603 9.05637 13.208 9.99868 13.208C10.941 13.208 11.8296 13.3603 12.6645 13.6647C13.4995 13.9692 14.2711 14.3843 14.9794 14.9099C15.4976 14.3405 15.9081 13.6813 16.211 12.9324C16.5139 12.1834 16.6653 11.3725 16.6653 10.4997C16.6653 8.65243 16.016 7.07952 14.7174 5.7809C13.4188 4.48229 11.8459 3.83299 9.99868 3.83299C8.15146 3.83299 6.57854 4.48229 5.27993 5.7809C3.98132 7.07952 3.33201 8.65243 3.33201 10.4997C3.33201 11.3725 3.48345 12.1834 3.78634 12.9324C4.08923 13.6813 4.49976 14.3405 5.01793 14.9099ZM9.99868 11.1246C9.238 11.1246 8.59644 10.8634 8.07401 10.341C7.55158 9.81856 7.29037 9.177 7.29037 8.41632C7.29037 7.65564 7.55158 7.01409 8.07401 6.49166C8.59644 5.96922 9.238 5.70801 9.99868 5.70801C10.7594 5.70801 11.4009 5.96922 11.9233 6.49166C12.4458 7.01409 12.707 7.65564 12.707 8.41632C12.707 9.177 12.4458 9.81856 11.9233 10.341C11.4009 10.8634 10.7594 11.1246 9.99868 11.1246ZM9.99868 18.4163C8.89932 18.4163 7.86807 18.2096 6.90495 17.7961C5.94181 17.3826 5.10393 16.8196 4.39132 16.107C3.67873 15.3944 3.1157 14.5565 2.70224 13.5934C2.28877 12.6303 2.08203 11.599 2.08203 10.4997C2.08203 9.40029 2.28877 8.36905 2.70224 7.40592C3.1157 6.44279 3.67873 5.60491 4.39132 4.8923C5.10393 4.1797 5.94181 3.61668 6.90495 3.20322C7.86807 2.78974 8.89932 2.58301 9.99868 2.58301C11.098 2.58301 12.1293 2.78974 13.0924 3.20322C14.0555 3.61668 14.8934 4.1797 15.606 4.8923C16.3186 5.60491 16.8817 6.44279 17.2951 7.40592C17.7086 8.36905 17.9153 9.40029 17.9153 10.4997C17.9153 11.599 17.7086 12.6303 17.2951 13.5934C16.8817 14.5565 16.3186 15.3944 15.606 16.107C14.8934 16.8196 14.0555 17.3826 13.0924 17.7961C12.1293 18.2096 11.098 18.4163 9.99868 18.4163Z" fill="#BE7346"/>
</g>
</svg>
