<svg width="16" height="17" viewBox="0 0 16 17" fill="none" xmlns="http://www.w3.org/2000/svg">
<g id="alarm_on">
<mask id="mask0_583_31687" style="mask-type:alpha" maskUnits="userSpaceOnUse" x="0" y="0" width="16" height="17">
<rect id="Bounding box" y="0.192383" width="16" height="16" fill="#D9D9D9"/>
</mask>
<g mask="url(#mask0_583_31687)">
<path id="alarm_on_2" d="M7.29881 10.995L10.8347 7.45916L10.1219 6.74636L7.29881 9.56943L5.87573 8.14636L5.16293 8.85916L7.29881 10.995ZM7.99881 14.5258C7.21249 14.5258 6.47574 14.3771 5.78856 14.0796C5.10138 13.7822 4.50224 13.3779 3.99113 12.8668C3.48003 12.3557 3.07576 11.7566 2.77833 11.0694C2.48088 10.3822 2.33216 9.64549 2.33216 8.85916C2.33216 8.07284 2.48088 7.33609 2.77833 6.64891C3.07576 5.96174 3.48003 5.36259 3.99113 4.85148C4.50224 4.34038 5.10138 3.93611 5.78856 3.63868C6.47574 3.34124 7.21249 3.19251 7.99881 3.19251C8.78513 3.19251 9.52188 3.34124 10.2091 3.63868C10.8962 3.93611 11.4954 4.34038 12.0065 4.85148C12.5176 5.36259 12.9219 5.96174 13.2193 6.64891C13.5167 7.33609 13.6655 8.07284 13.6655 8.85916C13.6655 9.64549 13.5167 10.3822 13.2193 11.0694C12.9219 11.7566 12.5176 12.3557 12.0065 12.8668C11.4954 13.3779 10.8962 13.7822 10.2091 14.0796C9.52188 14.3771 8.78513 14.5258 7.99881 14.5258ZM3.83471 2.11816L4.53726 2.82071L1.96036 5.39761L1.25781 4.69506L3.83471 2.11816ZM12.1629 2.11816L14.7398 4.69506L14.0373 5.39761L11.4604 2.82071L12.1629 2.11816Z" fill="#BE7346"/>
</g>
</g>
</svg>
