<svg width="17" height="17" viewBox="0 0 17 17" fill="none" xmlns="http://www.w3.org/2000/svg">
<g id="alarm_on">
<mask id="mask0_583_31531" style="mask-type:alpha" maskUnits="userSpaceOnUse" x="0" y="0" width="17" height="17">
<rect id="Bounding box" x="0.5" y="0.192383" width="16" height="16" fill="#D9D9D9"/>
</mask>
<g mask="url(#mask0_583_31531)">
<path id="alarm_on_2" d="M7.79881 10.995L11.3347 7.45916L10.6219 6.74636L7.79881 9.56943L6.37573 8.14636L5.66293 8.85916L7.79881 10.995ZM8.49881 14.5258C7.71249 14.5258 6.97574 14.3771 6.28856 14.0796C5.60138 13.7822 5.00224 13.3779 4.49113 12.8668C3.98003 12.3557 3.57576 11.7566 3.27833 11.0694C2.98088 10.3822 2.83216 9.64549 2.83216 8.85916C2.83216 8.07284 2.98088 7.33609 3.27833 6.64891C3.57576 5.96174 3.98003 5.36259 4.49113 4.85148C5.00224 4.34038 5.60138 3.93611 6.28856 3.63868C6.97574 3.34124 7.71249 3.19251 8.49881 3.19251C9.28513 3.19251 10.0219 3.34124 10.7091 3.63868C11.3962 3.93611 11.9954 4.34038 12.5065 4.85148C13.0176 5.36259 13.4219 5.96174 13.7193 6.64891C14.0167 7.33609 14.1655 8.07284 14.1655 8.85916C14.1655 9.64549 14.0167 10.3822 13.7193 11.0694C13.4219 11.7566 13.0176 12.3557 12.5065 12.8668C11.9954 13.3779 11.3962 13.7822 10.7091 14.0796C10.0219 14.3771 9.28513 14.5258 8.49881 14.5258ZM4.33471 2.11816L5.03726 2.82071L2.46036 5.39761L1.75781 4.69506L4.33471 2.11816ZM12.6629 2.11816L15.2398 4.69506L14.5373 5.39761L11.9604 2.82071L12.6629 2.11816Z" fill="#09101D"/>
</g>
</g>
</svg>
