<svg width="18" height="18" viewBox="0 0 18 18" fill="none" xmlns="http://www.w3.org/2000/svg">
<g id="arrow_forward_ios">
<mask id="mask0_2_9505" style="mask-type:alpha" maskUnits="userSpaceOnUse" x="0" y="0" width="18" height="18">
<rect id="Bounding box" width="18" height="18" fill="#D9D9D9"/>
</mask>
<g mask="url(#mask0_2_9505)">
<path id="arrow_forward_ios_2" d="M8.97072 11.1473L14.6202 5.49773C14.7693 5.34869 14.9467 5.27609 15.1524 5.27993C15.3582 5.28378 15.5356 5.36022 15.6846 5.50926C15.8337 5.6583 15.9082 5.8357 15.9082 6.04146C15.9082 6.24722 15.8337 6.42462 15.6846 6.57366L9.93128 12.3155C9.79571 12.4511 9.64379 12.5515 9.47553 12.6169C9.30725 12.6823 9.13898 12.715 8.97072 12.715C8.80246 12.715 8.63419 12.6823 8.46591 12.6169C8.29765 12.5515 8.14573 12.4511 8.01016 12.3155L2.2568 6.56213C2.10776 6.41309 2.03516 6.23761 2.039 6.03568C2.04285 5.83377 2.11929 5.6583 2.26833 5.50926C2.41737 5.36022 2.59476 5.2857 2.80053 5.2857C3.00629 5.2857 3.18369 5.36022 3.33273 5.50926L8.97072 11.1473Z" fill="#09101D"/>
</g>
</g>
</svg>
