<svg width="10" height="9" viewBox="0 0 10 9" fill="none" xmlns="http://www.w3.org/2000/svg">
<path d="M1 3.85693C0.723858 3.85693 0.5 4.08079 0.5 4.35693C0.5 4.63308 0.723858 4.85693 1 4.85693V3.85693ZM9.35355 4.71049C9.54882 4.51522 9.54882 4.19864 9.35355 4.00338L6.17157 0.8214C5.97631 0.626137 5.65973 0.626137 5.46447 0.8214C5.2692 1.01666 5.2692 1.33324 5.46447 1.52851L8.29289 4.35693L5.46447 7.18536C5.2692 7.38062 5.2692 7.69721 5.46447 7.89247C5.65973 8.08773 5.97631 8.08773 6.17157 7.89247L9.35355 4.71049ZM1 4.85693H9V3.85693H1V4.85693Z" fill="#798087"/>
</svg>
