<?xml version="1.0" encoding="UTF-8"?><svg id="Layer_1" xmlns="http://www.w3.org/2000/svg" viewBox="0 0 200 200"><defs><style>.cls-1{fill:#fff;}.cls-2{fill:#f6871f;}</style></defs><circle class="cls-2" cx="100" cy="100" r="100"/><path class="cls-1" d="M135.53,135.56h-17.73s-.02,0-.02-.02v-17.73s0-.02,.02-.02h17.73s.02,0,.02,.02v17.73s0,.02-.02,.02Zm-26.67-44.44h-17.73s-.02,0-.02,.02v17.73s0,.02,.02,.02h17.73s.02,0,.02-.02v-17.73s0-.02-.02-.02Zm26.67,0h-17.73s-.02,0-.02,.02v17.73s0,.02,.02,.02h17.73s.02,0,.02-.02v-17.73s0-.02-.02-.02Zm-53.33,26.67h-17.73s-.02,0-.02,.02v17.73s0,.02,.02,.02h17.73s.02,0,.02-.02v-17.73s0-.02-.02-.02Zm26.67,0h-17.73s-.02,0-.02,.02v17.73s0,.02,.02,.02h17.73s.02,0,.02-.02v-17.73s0-.02-.02-.02Zm-26.67-26.67h-17.73s-.02,0-.02,.02v17.73s0,.02,.02,.02h17.73s.02,0,.02-.02v-17.73s0-.02-.02-.02Zm71.13-30.04v86.74c0,3.05-2.47,5.52-5.52,5.52H52.19c-3.05,0-5.52-2.47-5.52-5.52V61.07c0-3.05,2.47-5.52,5.52-5.52h7.79s.02,0,.02,.02v4.14c0,4.79,3.68,8.93,8.46,9.16,5.09,.24,9.31-3.84,9.31-8.88v-4.42s0-.02,.02-.02h44.4s.02,0,.02,.02v4.14c0,4.79,3.68,8.93,8.46,9.16,5.09,.24,9.31-3.84,9.31-8.88v-4.42s0-.02,.02-.02h7.79c3.05,0,5.52,2.47,5.52,5.52Zm-8.91,21.15H55.58s-.02,0-.02,.02v62.18s0,.02,.02,.02h88.84s.02,0,.02-.02v-62.18s0-.02-.02-.02Zm-8.87-31.11c0-2.49-2.05-4.5-4.55-4.44s-4.34,2.2-4.34,4.65v8.48c0,2.45,1.89,4.59,4.34,4.65s4.55-1.95,4.55-4.44v-8.89Zm-62.22,8.89c0,2.49-2.05,4.5-4.55,4.44s-4.34-2.2-4.34-4.65v-8.48c0-2.45,1.89-4.59,4.34-4.65s4.55,1.95,4.55,4.44v8.89Z"/></svg>