<svg width="26" height="27" viewBox="0 0 26 27" fill="none" xmlns="http://www.w3.org/2000/svg">
<g id="calendar_clock">
<mask id="mask0_682_16282" style="mask-type:alpha" maskUnits="userSpaceOnUse" x="0" y="0" width="26" height="27">
<rect id="Bounding box" y="0.192322" width="26" height="26" fill="#D9D9D9"/>
</mask>
<g mask="url(#mask0_682_16282)">
<path id="calendar_clock_2" d="M6.6954 22.2478C6.22165 22.2478 5.82064 22.0825 5.49239 21.7519C5.16413 21.4213 5 21.0174 5 20.5403V7.89788C5 7.42075 5.16413 7.01689 5.49239 6.6863C5.82064 6.3557 6.22165 6.19041 6.6954 6.19041H7.99401V4.19232H9.43687V6.19041H16.5431V4.19232H17.9499V6.19041H19.2485C19.7222 6.19041 20.1232 6.3557 20.4515 6.6863C20.7798 7.01689 20.9439 7.42075 20.9439 7.89788V13.0584C20.719 12.9591 20.4894 12.8789 20.2549 12.8177C20.0205 12.7566 19.7812 12.7084 19.5371 12.6733V11.6761H6.40679V20.5403C6.40679 20.613 6.43685 20.6796 6.49697 20.7401C6.5571 20.8007 6.62325 20.831 6.6954 20.831H12.7934C12.8728 21.0925 12.9687 21.3399 13.0811 21.573C13.1935 21.8061 13.3213 22.031 13.4644 22.2478H6.6954ZM18.7796 23.1923C17.6084 23.1923 16.6123 22.7788 15.791 21.9517C14.9698 21.1246 14.5592 20.1213 14.5592 18.9419C14.5592 17.7624 14.9698 16.7591 15.791 15.932C16.6123 15.1049 17.6084 14.6914 18.7796 14.6914C19.9507 14.6914 20.9469 15.1049 21.7681 15.932C22.5894 16.7591 23 17.7624 23 18.9419C23 20.1213 22.5894 21.1246 21.7681 21.9517C20.9469 22.7788 19.9507 23.1923 18.7796 23.1923ZM20.3415 21.1034L20.9259 20.5149L19.1944 18.7711V16.1627H18.3648V19.1126L20.3415 21.1034Z" fill="#D29D7E"/>
</g>
</g>
</svg>
