<svg width="17" height="17" viewBox="0 0 17 17" fill="none" xmlns="http://www.w3.org/2000/svg">
<mask id="mask0_171_3032" style="mask-type:alpha" maskUnits="userSpaceOnUse" x="0" y="0" width="17" height="17">
<rect x="0.5" y="0.356934" width="16" height="16" fill="#D9D9D9"/>
</mask>
<g mask="url(#mask0_171_3032)">
<path d="M6.86518 10.4569L12.5152 4.80693C12.6485 4.6736 12.8068 4.60693 12.9902 4.60693C13.1735 4.60693 13.3318 4.6736 13.4652 4.80693C13.5985 4.94027 13.6652 5.0986 13.6652 5.28193C13.6652 5.46527 13.5985 5.6236 13.4652 5.75693L7.33184 11.8903C7.19851 12.0236 7.04295 12.0903 6.86518 12.0903C6.6874 12.0903 6.53184 12.0236 6.39851 11.8903L3.53184 9.0236C3.39851 8.89027 3.33462 8.73193 3.34018 8.5486C3.34573 8.36527 3.41518 8.20693 3.54851 8.0736C3.68184 7.94027 3.84018 7.8736 4.02351 7.8736C4.20684 7.8736 4.36518 7.94027 4.49851 8.0736L6.86518 10.4569Z" fill="#FFB25C"/>
</g>
</svg>
