<svg width="13" height="13" viewBox="0 0 13 13" fill="none" xmlns="http://www.w3.org/2000/svg">
<g id="check_box">
<mask id="mask0_171_1041" style="mask-type:alpha" maskUnits="userSpaceOnUse" x="0" y="0" width="13" height="13">
<rect id="Bounding box" y="0.0700684" width="12.5781" height="12.5781" fill="#D9D9D9"/>
</mask>
<g mask="url(#mask0_171_1041)">
<path id="check_box_2" d="M5.55693 8.37926L9.08039 4.85579L8.52809 4.3035L5.55693 7.27467L4.06329 5.78102L3.51099 6.33332L5.55693 8.37926ZM2.78333 10.8143C2.51859 10.8143 2.29451 10.7225 2.11108 10.5391C1.92765 10.3557 1.83594 10.1316 1.83594 9.86686V2.85218C1.83594 2.58745 1.92765 2.36336 2.11108 2.17993C2.29451 1.9965 2.51859 1.90479 2.78333 1.90479H9.79798C10.0627 1.90479 10.2868 1.9965 10.4702 2.17993C10.6537 2.36336 10.7454 2.58745 10.7454 2.85218V9.86686C10.7454 10.1316 10.6537 10.3557 10.4702 10.5391C10.2868 10.7225 10.0627 10.8143 9.79798 10.8143H2.78333Z" fill="#FFB25C"/>
</g>
</g>
</svg>
