<svg width="40" height="41" viewBox="0 0 40 41" fill="none" xmlns="http://www.w3.org/2000/svg">
<g id="Group 3132">
<mask id="mask0_583_31877" style="mask-type:alpha" maskUnits="userSpaceOnUse" x="0" y="0" width="40" height="41">
<rect id="Bounding box" y="0.192383" width="40" height="40" fill="#D9D9D9"/>
</mask>
<g mask="url(#mask0_583_31877)">
<rect id="Rectangle 1569" x="10.0781" y="9.83789" width="21.485" height="21.485" fill="white"/>
<path id="check_circle" d="M18.4349 24.2192L14.6641 20.4483C14.3425 20.1268 13.9333 19.966 13.4363 19.966C12.9394 19.966 12.5302 20.1268 12.2086 20.4483C11.8871 20.7699 11.7263 21.1791 11.7263 21.676C11.7263 22.173 11.8871 22.5822 12.2086 22.9038L17.2072 27.9023C17.558 28.2531 17.9672 28.4285 18.4349 28.4285C18.9026 28.4285 19.3118 28.2531 19.6626 27.9023L29.572 17.9929C29.8935 17.6714 30.0543 17.2621 30.0543 16.7652C30.0543 16.2683 29.8935 15.859 29.572 15.5375C29.2505 15.2159 28.8412 15.0552 28.3443 15.0552C27.8474 15.0552 27.4381 15.2159 27.1166 15.5375L18.4349 24.2192ZM20.8903 38.6009C18.4641 38.6009 16.1841 38.1405 14.0502 37.2198C11.9163 36.299 10.0601 35.0493 8.48165 33.4709C6.90316 31.8924 5.65352 30.0362 4.73274 27.9023C3.81195 25.7684 3.35156 23.4884 3.35156 21.0622C3.35156 18.636 3.81195 16.356 4.73274 14.2221C5.65352 12.0882 6.90316 10.232 8.48165 8.65352C10.0601 7.07503 11.9163 5.8254 14.0502 4.90461C16.1841 3.98383 18.4641 3.52344 20.8903 3.52344C23.3165 3.52344 25.5965 3.98383 27.7304 4.90461C29.8643 5.8254 31.7205 7.07503 33.299 8.65352C34.8775 10.232 36.1271 12.0882 37.0479 14.2221C37.9687 16.356 38.4291 18.636 38.4291 21.0622C38.4291 23.4884 37.9687 25.7684 37.0479 27.9023C36.1271 30.0362 34.8775 31.8924 33.299 33.4709C31.7205 35.0493 29.8643 36.299 27.7304 37.2198C25.5965 38.1405 23.3165 38.6009 20.8903 38.6009Z" fill="#BE7346"/>
</g>
</g>
</svg>
