<?xml version="1.0" encoding="UTF-8"?><svg id="Layer_1" xmlns="http://www.w3.org/2000/svg" viewBox="0 0 200 200"><defs><style>.cls-1{fill:#fff;}.cls-2{fill:#f6871f;}</style></defs><circle class="cls-2" cx="100" cy="100" r="100"/><path class="cls-1" d="M162.04,138.48c-.06-.55-.65-1.84-.93-2.34-7.86-13.96-19.53-25.42-29.4-38.04-4.66-5.96-9.75-11.57-14.34-17.58-2.02-2.65-3.85-5.43-5.92-8.63-2.41-3.73-7.56-4.49-10.95-1.61-3.58,3.05-7.12,6.03-10.78,8.84-2.47,1.9-5.63,4.2-8.42,4.12-8.5-.23-18.42-14.56-16.65-22.9,.64-2.99,.97-5.93,.16-8.5-.93-2.96-3.72-5.1-6.83-5.12-1.37,0-2.69,.46-4.12,1.54-3.59,3.43-4.38,7.39-1.21,12.78,3.56,6.06-2.51,9.06-5.74,11.92-7.58,6.69-12.64,21.51-9.1,30.87,3.84,10.16,13.13,11.54,22.04,11.99,19.73,1,36.22,9.92,53.09,19.01,12.91,6.96,27.02,11.68,40.67,17.27,.97,.4,1.98,.7,3.02,.87,2.14,.36,5.47,.61,6.3-1.12,1.26-2.6-.9-13.39-.9-13.39ZM56.39,61.89c-1.33,.16-2.74-2.49-3.16-5.93-.42-3.43,.43-4.75,1.76-4.92,1.33-.16,2.63,.9,3.04,4.33,.42,3.43-.32,6.35-1.65,6.51Zm67.96,50.74l-.07,.1c-.58,.89-.57,1.97-.09,2.84-.31,.36-.66,.75-1.11,1.21-1.14,1.15-3.01-.37-4.32-1.6-.83-.77-1.74-1.45-2.71-2.04l-.66-.4s-.68-.43-.73-.45c-.95-.42-11.39-6.28-15.53-6.94-2.95-.47-10.89,.4-15.64,1-2.28,.29-4.52-.79-5.72-2.74-1.76-2.85-3.46-5.6-5.21-8.43-1.47-2.38,.45-5.44,3.23-5.1,8.19,1,14.35-3.14,19.98-9.95,2.97-3.61,6.89-6.32,12.23-5.08,1.89,.44,2.55,2.79,1.13,4.12-3.07,2.87-5.98,5.54-8.65,8.44-1.38,1.5-3.2,3.13-2.47,5.64,.19,.65,.78,1.31,1.39,1.94,1.66,1.74,4.3,2.12,6.44,1.02l8.56-7.53c2.95-1.45,5.5,2.23,6.27,4.89,1.15,3.98,4.47,11.62,7.01,14.51,.82,.94,.32,2.24-.4,3.37,0,0,0,0,0,0-1.1-.26-2.29,.17-2.94,1.17Zm.96,.1c.69-.65,1.76-.67,2.55-.15l6.2,4.04c.74,.48,1.15,1.38,.91,2.23-.39,1.41-1.95,1.92-3.07,1.19l-6.33-4.12c-1.07-.7-1.26-2.24-.27-3.18Zm27.79,20.99c-4.82,1.73-12.86-1.6-20.53-8.19-.89-.77-1.11-2.07-.51-3.08,.26-.43,.51-.85,.77-1.28,.97,.07,1.94-.36,2.51-1.23l.07-.1c.61-.93,.57-2.1,.01-2.98,.58-.97,1.17-1.95,1.76-2.93,.86-1.44,2.9-1.57,3.94-.26,4.33,5.44,8.63,10.85,12.98,16.31,1.01,1.26,.53,3.2-.99,3.74Z"/></svg>