<svg width="12" height="13" viewBox="0 0 12 13" fill="none" xmlns="http://www.w3.org/2000/svg">
<g id="close">
<mask id="mask0_171_1570" style="mask-type:alpha" maskUnits="userSpaceOnUse" x="0" y="0" width="12" height="13">
<rect id="Bounding box" y="0.356934" width="12" height="12" fill="#D9D9D9"/>
</mask>
<g mask="url(#mask0_171_1570)">
<path id="close_2" d="M6.2875 7.10518L3.8375 9.40818C3.74583 9.49435 3.62917 9.53743 3.4875 9.53743C3.34583 9.53743 3.22917 9.49435 3.1375 9.40818C3.04583 9.32202 3 9.21235 3 9.07918C3 8.94602 3.04583 8.83635 3.1375 8.75018L5.5875 6.44718L3.1375 4.14418C3.04583 4.05802 3 3.94835 3 3.81518C3 3.68202 3.04583 3.57235 3.1375 3.48618C3.22917 3.40002 3.34583 3.35693 3.4875 3.35693C3.62917 3.35693 3.74583 3.40002 3.8375 3.48618L6.2875 5.78918L8.7375 3.48618C8.82917 3.40002 8.94583 3.35693 9.0875 3.35693C9.22917 3.35693 9.34583 3.40002 9.4375 3.48618C9.52917 3.57235 9.575 3.68202 9.575 3.81518C9.575 3.94835 9.52917 4.05802 9.4375 4.14418L6.9875 6.44718L9.4375 8.75018C9.52917 8.83635 9.575 8.94602 9.575 9.07918C9.575 9.21235 9.52917 9.32202 9.4375 9.40818C9.34583 9.49435 9.22917 9.53743 9.0875 9.53743C8.94583 9.53743 8.82917 9.49435 8.7375 9.40818L6.2875 7.10518Z" fill="#B1B7BD"/>
</g>
</g>
</svg>
