<svg width="26" height="27" viewBox="0 0 26 27" fill="none" xmlns="http://www.w3.org/2000/svg">
<g id="contract">
<mask id="mask0_682_16294" style="mask-type:alpha" maskUnits="userSpaceOnUse" x="0" y="0" width="26" height="27">
<rect id="Bounding box" y="0.192383" width="26" height="26" fill="#D9D9D9"/>
</mask>
<g mask="url(#mask0_682_16294)">
<path id="contract_2" d="M7.35292 22.1924C6.69532 22.1924 6.13876 21.9631 5.68325 21.5046C5.22775 21.0461 5 20.4859 5 19.824V18.8037C5 18.3328 5.1666 17.9296 5.49979 17.5942C5.83297 17.2589 6.23349 17.0912 6.70137 17.0912H7.82354V5.90495C7.82354 5.43399 7.99013 5.03083 8.32333 4.69546C8.6565 4.36008 9.05703 4.19238 9.52491 4.19238H19.2986C19.7665 4.19238 20.167 4.36008 20.5002 4.69546C20.8334 5.03083 21 5.43399 21 5.90495V19.824C21 20.4859 20.7722 21.0461 20.3167 21.5046C19.8612 21.9631 19.3047 22.1924 18.6471 22.1924H7.35292ZM18.6471 20.7714C18.9137 20.7714 19.1373 20.6806 19.3177 20.499C19.4981 20.3174 19.5883 20.0924 19.5883 19.824V5.90495C19.5883 5.81992 19.5611 5.75007 19.5068 5.69541C19.4525 5.64075 19.3831 5.61342 19.2986 5.61342H9.52491C9.44044 5.61342 9.37105 5.64075 9.31674 5.69541C9.26244 5.75007 9.23528 5.81992 9.23528 5.90495V17.0912H16.0045C16.4724 17.0912 16.873 17.2589 17.2061 17.5942C17.5393 17.9296 17.7059 18.3328 17.7059 18.8037V19.824C17.7059 20.0924 17.7961 20.3174 17.9765 20.499C18.1569 20.6806 18.3804 20.7714 18.6471 20.7714ZM11.0633 10.0587C10.8633 10.0587 10.6957 9.99062 10.5604 9.85439C10.4251 9.71815 10.3575 9.54932 10.3575 9.34793C10.3575 9.14652 10.4251 8.9778 10.5604 8.84177C10.6957 8.70574 10.8633 8.63773 11.0633 8.63773H17.7602C17.9602 8.63773 18.1278 8.70586 18.2631 8.8421C18.3984 8.97834 18.4661 9.14716 18.4661 9.34857C18.4661 9.54996 18.3984 9.71867 18.2631 9.8547C18.1278 9.99073 17.9602 10.0587 17.7602 10.0587H11.0633ZM11.0633 12.7915C10.8633 12.7915 10.6957 12.7234 10.5604 12.5872C10.4251 12.4509 10.3575 12.2821 10.3575 12.0807C10.3575 11.8793 10.4251 11.7106 10.5604 11.5746C10.6957 11.4385 10.8633 11.3705 11.0633 11.3705H17.7602C17.9602 11.3705 18.1278 11.4386 18.2631 11.5749C18.3984 11.7111 18.4661 11.8799 18.4661 12.0814C18.4661 12.2828 18.3984 12.4515 18.2631 12.5875C18.1278 12.7235 17.9602 12.7915 17.7602 12.7915H11.0633Z" fill="#D29D7E"/>
</g>
</g>
</svg>
