<svg width="20" height="21" viewBox="0 0 20 21" fill="none" xmlns="http://www.w3.org/2000/svg">
<g id="emoji_events">
<mask id="mask0_196_3380" style="mask-type:alpha" maskUnits="userSpaceOnUse" x="0" y="0" width="20" height="21">
<rect id="Bounding box" y="0.5" width="20" height="20" fill="#D9D9D9"/>
</mask>
<g mask="url(#mask0_196_3380)">
<path id="emoji_events_2" d="M6.41157 17.5834V16.3334H9.3763V13.4776C8.66904 13.3355 8.04404 13.038 7.5013 12.585C6.95857 12.132 6.57288 11.5673 6.34424 10.8911C5.38271 10.7767 4.57129 10.3686 3.90997 9.66671C3.24864 8.96479 2.91797 8.13146 2.91797 7.16673V6.33339C2.91797 5.99259 3.0411 5.69906 3.28736 5.45281C3.53361 5.20655 3.82714 5.08341 4.16795 5.08341H6.10707V3.41675H13.8955V5.08341H15.8346C16.1754 5.08341 16.4689 5.20655 16.7152 5.45281C16.9615 5.69906 17.0846 5.99259 17.0846 6.33339V7.16673C17.0846 8.13146 16.7539 8.96479 16.0926 9.66671C15.4313 10.3686 14.6199 10.7767 13.6583 10.8911C13.4297 11.5673 13.044 12.132 12.5013 12.585C11.9585 13.038 11.3335 13.3355 10.6263 13.4776V16.3334H13.591V17.5834H6.41157ZM6.10707 9.54814V6.33339H4.16795V7.16673C4.16795 7.74792 4.35011 8.25834 4.71443 8.69798C5.07875 9.13762 5.54296 9.42101 6.10707 9.54814ZM13.8955 9.54814C14.4596 9.42101 14.9238 9.13762 15.2881 8.69798C15.6525 8.25834 15.8346 7.74792 15.8346 7.16673V6.33339H13.8955V9.54814Z" fill="#09101D"/>
</g>
</g>
</svg>
