<svg width="13" height="13" viewBox="0 0 13 13" fill="none" xmlns="http://www.w3.org/2000/svg">
<mask id="mask0_171_1578" style="mask-type:alpha" maskUnits="userSpaceOnUse" x="0" y="0" width="13" height="13">
<rect x="0.230469" y="0.927246" width="11.8595" height="11.8595" fill="#D9D9D9"/>
</mask>
<g mask="url(#mask0_171_1578)">
<path d="M6.16193 8.17209C6.10238 8.17209 6.04695 8.16259 5.99564 8.14358C5.94432 8.12457 5.89554 8.09195 5.8493 8.0457L3.6285 5.8249C3.56007 5.75648 3.52507 5.67049 3.52349 5.56691C3.5219 5.46332 3.5569 5.37574 3.6285 5.30415C3.70008 5.23257 3.78687 5.19678 3.88886 5.19678C3.99085 5.19678 4.07764 5.23257 4.14923 5.30415L6.16193 7.31686L8.17464 5.30415C8.24305 5.23574 8.32905 5.20074 8.43263 5.19915C8.5362 5.19757 8.62378 5.23257 8.69537 5.30415C8.76696 5.37574 8.80276 5.46253 8.80276 5.56453C8.80276 5.66652 8.76696 5.75331 8.69537 5.8249L6.47457 8.0457C6.42832 8.09195 6.37954 8.12457 6.32822 8.14358C6.27692 8.16259 6.22149 8.17209 6.16193 8.17209Z" fill="#09101D"/>
</g>
</svg>
