<svg width="69" height="45" viewBox="0 0 69 45" fill="none" xmlns="http://www.w3.org/2000/svg">
<g clip-path="url(#clip0_171_6609)">
<path d="M44.3516 17.4252L47.303 26.4539C47.5123 27.0964 48.303 27.3252 48.8237 26.8944L57.6367 19.6179C57.6367 19.6179 48.2714 15.9626 48.2714 16.1622C48.2714 16.3617 44.3516 17.4252 44.3516 17.4252Z" fill="#FF8F43"/>
<path d="M67.6109 0.0729922C61.854 2.35086 43.2767 9.96564 36.2449 12.8495C35.3154 13.2316 35.3713 14.5627 36.3276 14.8669L44.3571 17.4247L47.2988 26.4242C47.418 26.7868 47.7149 27.0204 48.0482 27.0813C48.3183 27.1324 48.7173 19.7926 48.7173 19.7926C48.7173 19.7926 57.158 26.0543 61.1606 29.0087C62.146 29.7363 63.5548 29.1888 63.7884 27.9866C64.9807 21.8393 67.9637 6.46854 68.9832 1.21192C69.1365 0.420999 68.3579 -0.226343 67.6109 0.0705586V0.0729922Z" fill="#FFB25C"/>
<path d="M48.0451 27.0835C48.3152 27.1346 48.7142 19.7949 48.7142 19.7949L62.5809 6.76771C62.6758 6.6801 62.5615 6.53164 62.452 6.59735L44.3516 17.4245L47.2933 26.424C47.4125 26.7866 47.7093 27.0203 48.0427 27.0811L48.0451 27.0835Z" fill="#FF9C43"/>
<path d="M0 44.757C9.52345 44.7278 22.1833 39.3568 24.7259 29.0431C25.7503 24.8817 24.8403 20.4208 21.5409 17.3837C17.3729 13.5459 12.7961 17.0527 13.9226 22.4115C15.7718 31.2139 26.5216 37.7311 34.6898 37.8236C39.4102 37.8772 43.841 35.6115 45.5393 30.9852" stroke="#B1B7BD" stroke-width="0.75" stroke-miterlimit="10" stroke-linecap="round" stroke-linejoin="round" stroke-dasharray="1.5 1.5"/>
</g>
<defs>
<clipPath id="clip0_171_6609">
<rect width="69" height="45" fill="white"/>
</clipPath>
</defs>
</svg>
