<?xml version="1.0" encoding="UTF-8"?><svg id="Layer_1" xmlns="http://www.w3.org/2000/svg" viewBox="0 0 200 200"><defs><style>.cls-1{fill:#fff;}.cls-2{fill:#f6871f;}</style></defs><circle class="cls-2" cx="100" cy="100" r="100"/><path class="cls-1" d="M136.65,136.67H63.35v-3.81c-.01-7.69,.6-12.14,9.69-14.24,10.29-2.38,20.44-4.5,15.55-13.5-14.46-26.66-4.12-41.79,11.4-41.79s25.83,14.56,11.4,41.79c-4.74,8.95,5.05,11.07,15.55,13.5,9.11,2.1,9.71,6.55,9.71,14.26,0,0-.01,3.78-.01,3.78Zm29.4-13.53c-7.88-1.82-15.22-3.42-11.67-10.13,10.81-20.42,2.87-31.34-8.56-31.34-7.73,0-13.74,4.99-13.74,14.2,0,23.85,13.86,10.82,13.73,40.8h27.51v-2.83c.01-5.78-.44-9.12-7.27-10.7Zm-139.37,13.53h27.51c-.13-29.98,13.73-16.94,13.73-40.8,0-9.21-6.01-14.2-13.74-14.2-11.42,0-19.37,10.92-8.55,31.34,3.55,6.72-3.78,8.31-11.67,10.13-6.84,1.58-7.29,4.92-7.29,10.7,0,0,.01,2.83,.01,2.83Z"/></svg>