<svg width="26" height="27" viewBox="0 0 26 27" fill="none" xmlns="http://www.w3.org/2000/svg">
<g id="hardware">
<mask id="mask0_682_16288" style="mask-type:alpha" maskUnits="userSpaceOnUse" x="0" y="0" width="26" height="27">
<rect id="Bounding box" y="0.192322" width="26" height="26" fill="#D9D9D9"/>
</mask>
<g mask="url(#mask0_682_16288)">
<path id="hardware_2" d="M10.4401 12.3798V8.31729H5.33594C5.4401 7.08953 5.94912 6.06038 6.863 5.22984C7.77689 4.39929 8.85813 3.98401 10.1067 3.98401H15.8567V7.17153L19.0442 3.98401H20.6691V11.984H19.0442L15.8567 8.79647V12.3798H10.4401ZM11.3984 22.4006C11.1331 22.4006 10.9071 22.3072 10.7203 22.1204C10.5335 21.9336 10.4401 21.7076 10.4401 21.4423V14.0152H15.8567V21.4423C15.8567 21.7076 15.7633 21.9336 15.5764 22.1204C15.3896 22.3072 15.1636 22.4006 14.8983 22.4006H11.3984Z" fill="#D29D7E"/>
</g>
</g>
</svg>
