<svg width="335" height="241" viewBox="0 0 335 241" fill="none" xmlns="http://www.w3.org/2000/svg">
<g clip-path="url(#clip0_167_14779)">
<path d="M-28 230L362.533 230" stroke="#B1B7BD" stroke-width="0.733333" stroke-linecap="round" stroke-linejoin="round"/>
<path d="M48.1602 199.408V209.517H106.864V199.408H48.1602Z" fill="#D29D7E"/>
<path d="M75.5742 200.894V208.025H102.995V200.894H75.5742Z" fill="white"/>
<path d="M78.9336 206.458V202.466" stroke="#D29D7E" stroke-width="0.508973" stroke-linecap="round" stroke-linejoin="round"/>
<path d="M81.2305 206.458V202.466" stroke="#D29D7E" stroke-width="0.508973" stroke-linecap="round" stroke-linejoin="round"/>
<path d="M83.5352 206.458V202.466" stroke="#D29D7E" stroke-width="0.508973" stroke-linecap="round" stroke-linejoin="round"/>
<path d="M85.8359 206.458V202.466" stroke="#D29D7E" stroke-width="0.508973" stroke-linecap="round" stroke-linejoin="round"/>
<path d="M88.1367 206.458V202.466" stroke="#D29D7E" stroke-width="0.508973" stroke-linecap="round" stroke-linejoin="round"/>
<path d="M90.4453 206.458V202.466" stroke="#D29D7E" stroke-width="0.508973" stroke-linecap="round" stroke-linejoin="round"/>
<path d="M92.7422 206.458V202.466" stroke="#D29D7E" stroke-width="0.508973" stroke-linecap="round" stroke-linejoin="round"/>
<path d="M95.043 206.458V202.466" stroke="#D29D7E" stroke-width="0.508973" stroke-linecap="round" stroke-linejoin="round"/>
<path d="M97.3438 206.458V202.466" stroke="#D29D7E" stroke-width="0.508973" stroke-linecap="round" stroke-linejoin="round"/>
<path d="M99.6484 206.458V202.466" stroke="#D29D7E" stroke-width="0.508973" stroke-linecap="round" stroke-linejoin="round"/>
<path d="M62.0743 207.487C63.7442 207.487 65.0979 206.133 65.0979 204.463C65.0979 202.792 63.7442 201.438 62.0743 201.438C60.4045 201.438 59.0508 202.792 59.0508 204.463C59.0508 206.133 60.4045 207.487 62.0743 207.487Z" fill="#181D27"/>
<path d="M48.1523 219.632V229.741H106.856V219.632H48.1523Z" fill="#FFB25C"/>
<path d="M75.5781 221.117V228.249H102.998V221.117H75.5781Z" fill="white"/>
<path d="M78.9336 226.682V222.69" stroke="#EBD5C7" stroke-width="0.508973" stroke-linecap="round" stroke-linejoin="round"/>
<path d="M81.2305 226.682V222.69" stroke="#EBD5C7" stroke-width="0.508973" stroke-linecap="round" stroke-linejoin="round"/>
<path d="M83.5352 226.682V222.69" stroke="#EBD5C7" stroke-width="0.508973" stroke-linecap="round" stroke-linejoin="round"/>
<path d="M85.8359 226.682V222.69" stroke="#EBD5C7" stroke-width="0.508973" stroke-linecap="round" stroke-linejoin="round"/>
<path d="M88.1367 226.682V222.69" stroke="#EBD5C7" stroke-width="0.508973" stroke-linecap="round" stroke-linejoin="round"/>
<path d="M90.4453 226.682V222.69" stroke="#EBD5C7" stroke-width="0.508973" stroke-linecap="round" stroke-linejoin="round"/>
<path d="M92.7422 226.682V222.69" stroke="#EBD5C7" stroke-width="0.508973" stroke-linecap="round" stroke-linejoin="round"/>
<path d="M95.043 226.682V222.69" stroke="#EBD5C7" stroke-width="0.508973" stroke-linecap="round" stroke-linejoin="round"/>
<path d="M97.3438 226.682V222.69" stroke="#EBD5C7" stroke-width="0.508973" stroke-linecap="round" stroke-linejoin="round"/>
<path d="M99.6484 226.682V222.69" stroke="#EBD5C7" stroke-width="0.508973" stroke-linecap="round" stroke-linejoin="round"/>
<path d="M62.0743 227.711C63.7442 227.711 65.0979 226.357 65.0979 224.686C65.0979 223.016 63.7442 221.662 62.0743 221.662C60.4045 221.662 59.0508 223.016 59.0508 224.686C59.0508 226.357 60.4045 227.711 62.0743 227.711Z" fill="#181D27"/>
<path d="M53.7266 209.523V219.632H112.431V209.523H53.7266Z" fill="#BE7346"/>
<path d="M81.1523 211.002V218.133H108.573V211.002H81.1523Z" fill="white"/>
<path d="M84.5 216.567V212.575" stroke="#EBD5C7" stroke-width="0.508973" stroke-linecap="round" stroke-linejoin="round"/>
<path d="M86.8047 216.567V212.575" stroke="#EBD5C7" stroke-width="0.508973" stroke-linecap="round" stroke-linejoin="round"/>
<path d="M89.1094 216.567V212.575" stroke="#EBD5C7" stroke-width="0.508973" stroke-linecap="round" stroke-linejoin="round"/>
<path d="M91.4062 216.567V212.575" stroke="#EBD5C7" stroke-width="0.508973" stroke-linecap="round" stroke-linejoin="round"/>
<path d="M93.7109 216.567V212.575" stroke="#EBD5C7" stroke-width="0.508973" stroke-linecap="round" stroke-linejoin="round"/>
<path d="M96.0117 216.567V212.575" stroke="#EBD5C7" stroke-width="0.508973" stroke-linecap="round" stroke-linejoin="round"/>
<path d="M98.3125 216.567V212.575" stroke="#EBD5C7" stroke-width="0.508973" stroke-linecap="round" stroke-linejoin="round"/>
<path d="M100.609 216.567V212.575" stroke="#EBD5C7" stroke-width="0.508973" stroke-linecap="round" stroke-linejoin="round"/>
<path d="M102.918 216.567V212.575" stroke="#EBD5C7" stroke-width="0.508973" stroke-linecap="round" stroke-linejoin="round"/>
<path d="M105.219 216.567V212.575" stroke="#EBD5C7" stroke-width="0.508973" stroke-linecap="round" stroke-linejoin="round"/>
<path d="M67.6407 217.595C69.3106 217.595 70.6643 216.241 70.6643 214.571C70.6643 212.9 69.3106 211.546 67.6407 211.546C65.9709 211.546 64.6172 212.9 64.6172 214.571C64.6172 216.241 65.9709 217.595 67.6407 217.595Z" fill="#181D27"/>
<path d="M253.535 180.857H242.617V229.74H253.535V180.857Z" fill="#FFB25C"/>
<path d="M248.074 192.69C249.646 192.69 250.92 191.31 250.92 189.608C250.92 187.905 249.646 186.525 248.074 186.525C246.501 186.525 245.227 187.905 245.227 189.608C245.227 191.31 246.501 192.69 248.074 192.69Z" fill="#5E3023"/>
<path d="M251.928 203.69H244.227V226.523H251.928V203.69Z" fill="white"/>
<path d="M245.918 206.482H250.23" stroke="#FFB25C" stroke-width="0.583317" stroke-linecap="round" stroke-linejoin="round"/>
<path d="M245.918 208.401H250.23" stroke="#FFB25C" stroke-width="0.583317" stroke-linecap="round" stroke-linejoin="round"/>
<path d="M245.918 210.315H250.23" stroke="#FFB25C" stroke-width="0.583317" stroke-linecap="round" stroke-linejoin="round"/>
<path d="M245.918 212.234H250.23" stroke="#FFB25C" stroke-width="0.583317" stroke-linecap="round" stroke-linejoin="round"/>
<path d="M245.918 214.147H250.23" stroke="#FFB25C" stroke-width="0.583317" stroke-linecap="round" stroke-linejoin="round"/>
<path d="M245.918 216.066H250.23" stroke="#FFB25C" stroke-width="0.583317" stroke-linecap="round" stroke-linejoin="round"/>
<path d="M245.918 217.985H250.23" stroke="#FFB25C" stroke-width="0.583317" stroke-linecap="round" stroke-linejoin="round"/>
<path d="M245.918 219.899H250.23" stroke="#FFB25C" stroke-width="0.583317" stroke-linecap="round" stroke-linejoin="round"/>
<path d="M245.918 221.818H250.23" stroke="#FFB25C" stroke-width="0.583317" stroke-linecap="round" stroke-linejoin="round"/>
<path d="M245.918 223.731H250.23" stroke="#FFB25C" stroke-width="0.583317" stroke-linecap="round" stroke-linejoin="round"/>
<path d="M264.449 180.857H253.531V229.74H264.449V180.857Z" fill="#FFB25C"/>
<path d="M258.988 192.69C260.56 192.69 261.835 191.31 261.835 189.608C261.835 187.905 260.56 186.525 258.988 186.525C257.415 186.525 256.141 187.905 256.141 189.608C256.141 191.31 257.415 192.69 258.988 192.69Z" fill="#5E3023"/>
<path d="M262.842 203.69H255.141V226.523H262.842V203.69Z" fill="white"/>
<path d="M256.84 206.482H261.152" stroke="#FFB25C" stroke-width="0.583317" stroke-linecap="round" stroke-linejoin="round"/>
<path d="M256.84 208.401H261.152" stroke="#FFB25C" stroke-width="0.583317" stroke-linecap="round" stroke-linejoin="round"/>
<path d="M256.84 210.315H261.152" stroke="#FFB25C" stroke-width="0.583317" stroke-linecap="round" stroke-linejoin="round"/>
<path d="M256.84 212.234H261.152" stroke="#FFB25C" stroke-width="0.583317" stroke-linecap="round" stroke-linejoin="round"/>
<path d="M256.84 214.147H261.152" stroke="#FFB25C" stroke-width="0.583317" stroke-linecap="round" stroke-linejoin="round"/>
<path d="M256.84 216.066H261.152" stroke="#FFB25C" stroke-width="0.583317" stroke-linecap="round" stroke-linejoin="round"/>
<path d="M256.84 217.985H261.152" stroke="#FFB25C" stroke-width="0.583317" stroke-linecap="round" stroke-linejoin="round"/>
<path d="M256.84 219.899H261.152" stroke="#FFB25C" stroke-width="0.583317" stroke-linecap="round" stroke-linejoin="round"/>
<path d="M256.84 221.818H261.152" stroke="#FFB25C" stroke-width="0.583317" stroke-linecap="round" stroke-linejoin="round"/>
<path d="M256.84 223.731H261.152" stroke="#FFB25C" stroke-width="0.583317" stroke-linecap="round" stroke-linejoin="round"/>
<path d="M275.371 180.857H264.453V229.74H275.371V180.857Z" fill="#FFB25C"/>
<path d="M269.909 192.69C271.482 192.69 272.756 191.31 272.756 189.608C272.756 187.905 271.482 186.525 269.909 186.525C268.337 186.525 267.062 187.905 267.062 189.608C267.062 191.31 268.337 192.69 269.909 192.69Z" fill="#5E3023"/>
<path d="M273.76 203.69H266.059V226.523H273.76V203.69Z" fill="white"/>
<path d="M267.754 206.482H272.066" stroke="#FFB25C" stroke-width="0.583317" stroke-linecap="round" stroke-linejoin="round"/>
<path d="M267.754 208.401H272.066" stroke="#FFB25C" stroke-width="0.583317" stroke-linecap="round" stroke-linejoin="round"/>
<path d="M267.754 210.315H272.066" stroke="#FFB25C" stroke-width="0.583317" stroke-linecap="round" stroke-linejoin="round"/>
<path d="M267.754 212.234H272.066" stroke="#FFB25C" stroke-width="0.583317" stroke-linecap="round" stroke-linejoin="round"/>
<path d="M267.754 214.147H272.066" stroke="#FFB25C" stroke-width="0.583317" stroke-linecap="round" stroke-linejoin="round"/>
<path d="M267.754 216.066H272.066" stroke="#FFB25C" stroke-width="0.583317" stroke-linecap="round" stroke-linejoin="round"/>
<path d="M267.754 217.985H272.066" stroke="#FFB25C" stroke-width="0.583317" stroke-linecap="round" stroke-linejoin="round"/>
<path d="M267.754 219.899H272.066" stroke="#FFB25C" stroke-width="0.583317" stroke-linecap="round" stroke-linejoin="round"/>
<path d="M267.754 221.818H272.066" stroke="#FFB25C" stroke-width="0.583317" stroke-linecap="round" stroke-linejoin="round"/>
<path d="M267.754 223.731H272.066" stroke="#FFB25C" stroke-width="0.583317" stroke-linecap="round" stroke-linejoin="round"/>
<path d="M286.293 180.857H275.375V229.74H286.293V180.857Z" fill="#FFB25C"/>
<path d="M280.831 192.69C282.404 192.69 283.678 191.31 283.678 189.608C283.678 187.905 282.404 186.525 280.831 186.525C279.259 186.525 277.984 187.905 277.984 189.608C277.984 191.31 279.259 192.69 280.831 192.69Z" fill="#5E3023"/>
<path d="M284.686 203.69H276.984V226.523H284.686V203.69Z" fill="white"/>
<path d="M278.68 206.482H282.992" stroke="#FFB25C" stroke-width="0.583317" stroke-linecap="round" stroke-linejoin="round"/>
<path d="M278.68 208.401H282.992" stroke="#FFB25C" stroke-width="0.583317" stroke-linecap="round" stroke-linejoin="round"/>
<path d="M278.68 210.315H282.992" stroke="#FFB25C" stroke-width="0.583317" stroke-linecap="round" stroke-linejoin="round"/>
<path d="M278.68 212.234H282.992" stroke="#FFB25C" stroke-width="0.583317" stroke-linecap="round" stroke-linejoin="round"/>
<path d="M278.68 214.147H282.992" stroke="#FFB25C" stroke-width="0.583317" stroke-linecap="round" stroke-linejoin="round"/>
<path d="M278.68 216.066H282.992" stroke="#FFB25C" stroke-width="0.583317" stroke-linecap="round" stroke-linejoin="round"/>
<path d="M278.68 217.985H282.992" stroke="#FFB25C" stroke-width="0.583317" stroke-linecap="round" stroke-linejoin="round"/>
<path d="M278.68 219.899H282.992" stroke="#FFB25C" stroke-width="0.583317" stroke-linecap="round" stroke-linejoin="round"/>
<path d="M278.68 221.818H282.992" stroke="#FFB25C" stroke-width="0.583317" stroke-linecap="round" stroke-linejoin="round"/>
<path d="M278.68 223.731H282.992" stroke="#FFB25C" stroke-width="0.583317" stroke-linecap="round" stroke-linejoin="round"/>
<path d="M253.531 182.452V228.118" stroke="#5E3023" stroke-width="0.52041" stroke-linecap="round" stroke-linejoin="round"/>
<path d="M264.453 182.452V228.118" stroke="#5E3023" stroke-width="0.52041" stroke-linecap="round" stroke-linejoin="round"/>
<path d="M275.371 182.452V228.118" stroke="#5E3023" stroke-width="0.52041" stroke-linecap="round" stroke-linejoin="round"/>
<path d="M93.4882 37.0024C94.9702 37.0024 96.1717 35.8006 96.1717 34.3181C96.1717 32.8355 94.9702 31.6337 93.4882 31.6337C92.0061 31.6337 90.8047 32.8355 90.8047 34.3181C90.8047 35.8006 92.0061 37.0024 93.4882 37.0024Z" fill="#BE7346"/>
<path d="M254.043 58.9597C255.525 58.9597 256.726 57.7578 256.726 56.2753C256.726 54.7928 255.525 53.591 254.043 53.591C252.561 53.591 251.359 54.7928 251.359 56.2753C251.359 57.7578 252.561 58.9597 254.043 58.9597Z" fill="#BE7346"/>
<path d="M278.332 101.481C279.814 101.481 281.015 100.279 281.015 98.7966C281.015 97.3141 279.814 96.1122 278.332 96.1122C276.85 96.1122 275.648 97.3141 275.648 98.7966C275.648 100.279 276.85 101.481 278.332 101.481Z" fill="#BE7346"/>
<path d="M51.3319 93.5364C52.814 93.5364 54.0154 92.3346 54.0154 90.8521C54.0154 89.3695 52.814 88.1677 51.3319 88.1677C49.8499 88.1677 48.6484 89.3695 48.6484 90.8521C48.6484 92.3346 49.8499 93.5364 51.3319 93.5364Z" fill="#BE7346"/>
<path d="M51.3319 167.383C52.814 167.383 54.0154 166.181 54.0154 164.699C54.0154 163.216 52.814 162.014 51.3319 162.014C49.8499 162.014 48.6484 163.216 48.6484 164.699C48.6484 166.181 49.8499 167.383 51.3319 167.383Z" fill="#BE7346"/>
<path d="M93.4901 34.3181L176.178 92.6859L254.042 56.2754L278.332 98.7966L256.731 132.921L98.6702 144.497L51.332 164.699V90.8522L93.4901 34.3181Z" stroke="#BE7346" stroke-width="0.52041" stroke-miterlimit="10"/>
<path d="M93.4901 34.3181L118.341 110.541L51.332 90.8522" stroke="#BE7346" stroke-width="0.52041" stroke-miterlimit="10"/>
<path d="M51.332 164.699L83.9742 100.443" stroke="#BE7346" stroke-width="0.52041" stroke-miterlimit="10"/>
<path d="M278.329 98.7965L222.766 109.1L254.039 56.2754" stroke="#BE7346" stroke-width="0.52041" stroke-miterlimit="10"/>
<path d="M101.813 84.8517H61.0156V127.344H101.813V84.8517Z" fill="#E3E7EB"/>
<path d="M146.453 58.1653H81.8438V110.528H146.453V58.1653Z" fill="#E3E7EB"/>
<path d="M265.064 84.8517H188.59V155.686H265.064V84.8517Z" fill="#E3E7EB"/>
<path d="M254.785 74.8813H214.852V126.864H254.785V74.8813Z" fill="white"/>
<path d="M221.02 82.193H248.621" stroke="#EBD5C7" stroke-width="0.611911" stroke-linecap="round" stroke-linejoin="round"/>
<path d="M221.02 86.3416H248.621" stroke="#EBD5C7" stroke-width="0.611911" stroke-linecap="round" stroke-linejoin="round"/>
<path d="M221.02 90.4958H248.621" stroke="#EBD5C7" stroke-width="0.611911" stroke-linecap="round" stroke-linejoin="round"/>
<path d="M221.02 94.644H248.621" stroke="#EBD5C7" stroke-width="0.611911" stroke-linecap="round" stroke-linejoin="round"/>
<path d="M221.02 98.7985H248.621" stroke="#EBD5C7" stroke-width="0.611911" stroke-linecap="round" stroke-linejoin="round"/>
<path d="M221.02 102.947H248.621" stroke="#EBD5C7" stroke-width="0.611911" stroke-linecap="round" stroke-linejoin="round"/>
<path d="M221.02 107.101H248.621" stroke="#EBD5C7" stroke-width="0.611911" stroke-linecap="round" stroke-linejoin="round"/>
<path d="M221.02 111.249H248.621" stroke="#EBD5C7" stroke-width="0.611911" stroke-linecap="round" stroke-linejoin="round"/>
<path d="M221.02 115.404H248.621" stroke="#EBD5C7" stroke-width="0.611911" stroke-linecap="round" stroke-linejoin="round"/>
<path d="M221.02 119.552H248.621" stroke="#EBD5C7" stroke-width="0.611911" stroke-linecap="round" stroke-linejoin="round"/>
<path d="M208.943 54.9112H185.984V82.8152H208.943V54.9112Z" fill="white"/>
<path d="M196.095 58.6449H189.805V67.5467H196.095V58.6449Z" fill="white" stroke="#EBD5C7" stroke-width="0.611911" stroke-linecap="round" stroke-linejoin="round"/>
<path d="M205.13 58.6449H198.84V67.5467H205.13V58.6449Z" fill="white" stroke="#EBD5C7" stroke-width="0.611911" stroke-linecap="round" stroke-linejoin="round"/>
<path d="M196.095 70.1857H189.805V79.0876H196.095V70.1857Z" fill="white" stroke="#EBD5C7" stroke-width="0.611911" stroke-linecap="round" stroke-linejoin="round"/>
<path d="M205.13 70.1857H198.84V79.0876H205.13V70.1857Z" fill="white" stroke="#EBD5C7" stroke-width="0.611911" stroke-linecap="round" stroke-linejoin="round"/>
<path d="M143.52 37.9877H110.758V80.636H143.52V37.9877Z" fill="white"/>
<path d="M115.816 43.9855H138.464" stroke="#EBD5C7" stroke-width="0.52041" stroke-linecap="round" stroke-linejoin="round"/>
<path d="M115.816 47.3906H138.464" stroke="#EBD5C7" stroke-width="0.52041" stroke-linecap="round" stroke-linejoin="round"/>
<path d="M115.816 50.796H138.464" stroke="#EBD5C7" stroke-width="0.52041" stroke-linecap="round" stroke-linejoin="round"/>
<path d="M115.816 54.2011H138.464" stroke="#EBD5C7" stroke-width="0.52041" stroke-linecap="round" stroke-linejoin="round"/>
<path d="M115.816 57.6062H138.464" stroke="#EBD5C7" stroke-width="0.52041" stroke-linecap="round" stroke-linejoin="round"/>
<path d="M115.816 61.0113H138.464" stroke="#EBD5C7" stroke-width="0.52041" stroke-linecap="round" stroke-linejoin="round"/>
<path d="M115.816 64.4167H138.464" stroke="#EBD5C7" stroke-width="0.52041" stroke-linecap="round" stroke-linejoin="round"/>
<path d="M115.816 67.8218H138.464" stroke="#EBD5C7" stroke-width="0.52041" stroke-linecap="round" stroke-linejoin="round"/>
<path d="M115.816 71.2269H138.464" stroke="#EBD5C7" stroke-width="0.52041" stroke-linecap="round" stroke-linejoin="round"/>
<path d="M115.816 74.6378H138.464" stroke="#EBD5C7" stroke-width="0.52041" stroke-linecap="round" stroke-linejoin="round"/>
<path d="M127.132 67.8217H87.8555V110.47H127.132V67.8217Z" fill="white"/>
<path d="M93.918 73.8195H121.07" stroke="#EBD5C7" stroke-width="0.571879" stroke-linecap="round" stroke-linejoin="round"/>
<path d="M93.918 77.2245H121.07" stroke="#EBD5C7" stroke-width="0.571879" stroke-linecap="round" stroke-linejoin="round"/>
<path d="M93.918 80.6299H121.07" stroke="#EBD5C7" stroke-width="0.571879" stroke-linecap="round" stroke-linejoin="round"/>
<path d="M93.918 84.0409H121.07" stroke="#EBD5C7" stroke-width="0.571879" stroke-linecap="round" stroke-linejoin="round"/>
<path d="M93.918 87.446H121.07" stroke="#EBD5C7" stroke-width="0.571879" stroke-linecap="round" stroke-linejoin="round"/>
<path d="M93.918 90.8511H121.07" stroke="#EBD5C7" stroke-width="0.571879" stroke-linecap="round" stroke-linejoin="round"/>
<path d="M93.918 94.2562H121.07" stroke="#EBD5C7" stroke-width="0.571879" stroke-linecap="round" stroke-linejoin="round"/>
<path d="M93.918 97.6616H121.07" stroke="#EBD5C7" stroke-width="0.571879" stroke-linecap="round" stroke-linejoin="round"/>
<path d="M93.918 101.067H121.07" stroke="#EBD5C7" stroke-width="0.571879" stroke-linecap="round" stroke-linejoin="round"/>
<path d="M93.918 104.472H121.07" stroke="#EBD5C7" stroke-width="0.571879" stroke-linecap="round" stroke-linejoin="round"/>
<path d="M111.848 67.8218H127.14V79.7371" fill="white"/>
<path d="M111.848 67.8218H127.14V79.7371" stroke="#EBD5C7" stroke-width="0.52041" stroke-linecap="round" stroke-linejoin="round"/>
<path d="M135.978 117.548L134.93 117.491L135.632 104.244C135.684 103.219 136.306 102.331 137.245 101.928L144.451 98.8283L144.866 99.7963L137.66 102.896C137.09 103.144 136.715 103.68 136.681 104.302L135.978 117.548Z" fill="white"/>
<path d="M142.63 137.294H129.209L127.516 113.256H144.323L142.63 137.294Z" fill="#FFB25C"/>
<path d="M144.753 113.256H127.093C126.603 113.256 126.235 112.812 126.321 112.328L126.5 111.343C126.598 110.807 127.064 110.415 127.611 110.415H144.235C144.782 110.415 145.248 110.807 145.346 111.343L145.525 112.328C145.611 112.812 145.243 113.256 144.753 113.256Z" fill="white"/>
<path d="M127.677 115.566L144.289 113.78L144.323 113.256H127.516L127.677 115.566Z" fill="#FFB25C"/>
<path d="M135.921 122.273C137.684 122.273 139.112 120.844 139.112 119.081C139.112 117.318 137.684 115.889 135.921 115.889C134.159 115.889 132.73 117.318 132.73 119.081C132.73 120.844 134.159 122.273 135.921 122.273Z" fill="#FFB25C"/>
<path d="M127.191 111.602H144.655" stroke="#EBD5C7" stroke-width="0.52041" stroke-linecap="round" stroke-linejoin="round"/>
<path d="M236.959 161.285H201.847C199.576 161.285 197.734 163.127 197.734 165.399V165.405C197.734 167.677 199.576 169.519 201.847 169.519H236.959C239.231 169.519 241.072 167.677 241.072 165.405V165.399C241.072 163.127 239.231 161.285 236.959 161.285Z" fill="#FFB25C"/>
<path d="M237.506 173.206H201.305L201.875 169.519H236.936L237.506 173.206Z" fill="#D29D7E"/>
<path d="M200.392 229.74H195.07L203.059 173.206H208.381L200.392 229.74Z" fill="#D29D7E"/>
<path d="M207.783 177.447H202.461L203.06 173.206H208.382L207.783 177.447Z" fill="#BE7346"/>
<path d="M238.409 229.74H243.737L235.748 173.206H230.426L238.409 229.74Z" fill="#D29D7E"/>
<path d="M231.025 177.447H236.347L235.748 173.206H230.426L231.025 177.447Z" fill="#BE7346"/>
<path d="M235.973 197.423H202.836V201.473H235.973V197.423Z" fill="#D29D7E"/>
<path d="M153.795 215.382L152.827 218.442L153.916 227.695C154.042 228.784 153.196 229.735 152.101 229.735H122.23V228.202C122.23 225.799 123.717 223.65 125.957 222.797L139.942 217.497L140.766 215.376H153.789L153.795 215.382Z" fill="#FFA485"/>
<path d="M122.449 226.664H153.8L152.833 218.448L147.372 220.095C146.739 220.286 146.094 219.813 146.094 219.145C146.094 218.24 145.362 217.503 144.452 217.503H139.948L125.963 222.803C124.218 223.466 122.933 224.918 122.449 226.658V226.664Z" fill="#181D27"/>
<path d="M122.238 228.208V229.741H152.109C153.204 229.741 154.05 228.784 153.924 227.701L153.803 226.664H122.451C122.313 227.159 122.238 227.678 122.238 228.208Z" fill="#E3E7EB"/>
<path d="M155.843 216.321L176.567 158.324L191.733 137.173H173.814C164.973 137.173 157.191 142.986 154.674 151.462L135.453 216.321H155.843Z" fill="#181D27"/>
<path d="M138.746 209.275L159.493 206.106L157.114 212.766L138.746 209.275Z" fill="#181D27"/>
<path d="M149.117 210.894L167.768 150.373C168.499 148.005 170.55 146.288 173.009 145.988L193.924 143.441" stroke="#181D27" stroke-width="0.52041" stroke-linecap="round" stroke-linejoin="round"/>
<path d="M137.538 209.275L135.453 216.321H155.843L158.36 209.275H137.538Z" fill="#181D27"/>
<path d="M240.809 134.874L243.822 142.335C245.987 147.705 244.599 153.853 240.337 157.771C237.088 160.755 232.832 162.415 228.42 162.415H194.131L182.582 216.316H160.078L173.263 152.216C175.065 143.453 182.778 137.167 191.723 137.167H228.074L240.803 134.874H240.809Z" fill="#181D27"/>
<path d="M162.648 209.212L185.008 205.005L183.177 213.544L162.648 209.212Z" fill="#181D27"/>
<path d="M173.695 210.894L187.657 149.29L227.441 142.139C228.322 141.984 229.054 141.367 229.359 140.532L231.623 134.401" stroke="#181D27" stroke-width="0.52041" stroke-linecap="round" stroke-linejoin="round"/>
<path d="M183.547 145.959L194.842 156.324" stroke="#181D27" stroke-width="0.52041" stroke-linecap="round" stroke-linejoin="round"/>
<path d="M192.031 143.441L195.804 152.919" stroke="#181D27" stroke-width="0.52041" stroke-linecap="round" stroke-linejoin="round"/>
<path d="M217.93 143.85C217.93 143.85 223.851 135.985 231.293 135.306" stroke="#181D27" stroke-width="0.52041" stroke-linecap="round" stroke-linejoin="round"/>
<path d="M242.879 142.479H235.109V151.156C235.109 153.951 236.394 156.595 238.588 158.324" stroke="#181D27" stroke-width="0.52041" stroke-linecap="round" stroke-linejoin="round"/>
<path d="M235.105 145.216H243.74" stroke="#181D27" stroke-width="0.52041" stroke-linecap="round" stroke-linejoin="round"/>
<path d="M240.808 134.874L228.079 137.172H197.695L243.164 140.722L240.808 134.874Z" fill="#181D27"/>
<path d="M179.277 215.382L179.081 218.442L180.17 227.695C180.296 228.784 179.45 229.735 178.355 229.735H148.484V228.202C148.484 225.799 149.97 223.65 152.211 222.797L166.196 217.497L166.594 215.376H179.277V215.382Z" fill="#FFA485"/>
<path d="M148.484 228.208V229.741H178.355C179.45 229.741 180.296 228.784 180.17 227.701L180.049 226.664H148.697C148.559 227.159 148.484 227.678 148.484 228.208Z" fill="white"/>
<path d="M148.699 226.664H180.05L179.083 218.448L173.622 220.095C172.989 220.286 172.344 219.813 172.344 219.145C172.344 218.24 171.612 217.503 170.702 217.503H166.198L152.213 222.803C150.468 223.466 149.183 224.918 148.699 226.658V226.664Z" fill="#181D27"/>
<path d="M135.741 125.545L117.632 131.174L110.427 131.595C108.514 131.705 106.7 132.482 105.295 133.79L101.539 137.293H143.137L135.736 125.545H135.741Z" fill="#FFA485"/>
<path d="M128.306 127.856L128.145 137.293H133.876L132.257 126.629L128.306 127.856Z" fill="#FFA485"/>
<path d="M133.648 125.545L130.094 126.484L131.701 137.293H135.45L133.648 125.545Z" fill="#E3E7EB"/>
<path d="M167.847 82.1422C162.686 80.961 157.56 84.251 156.488 89.4423L150.371 119.011C147.987 119.063 145.942 120.798 145.942 120.798C145.942 120.798 141.962 119.83 139.37 123.137C134.871 123.056 133.645 125.557 133.645 125.557L135.447 137.305H155.93C161.373 137.305 166.084 133.52 167.265 128.201L174.966 93.4064C176.089 88.3361 172.91 83.3061 167.847 82.148V82.1422Z" fill="white"/>
<path d="M108.307 133.347L103.941 137.173" stroke="#181D27" stroke-width="0.52041" stroke-linecap="round" stroke-linejoin="round"/>
<path d="M110.737 133.347L106.371 137.173" stroke="#181D27" stroke-width="0.52041" stroke-linecap="round" stroke-linejoin="round"/>
<path d="M113.175 133.347L108.809 137.173" stroke="#181D27" stroke-width="0.52041" stroke-linecap="round" stroke-linejoin="round"/>
<path d="M113.174 135.479L111.238 137.172" stroke="#181D27" stroke-width="0.52041" stroke-linecap="round" stroke-linejoin="round"/>
<path d="M151.398 119.824C151.398 119.824 154.739 119.72 158.909 124.042" stroke="#E3E7EB" stroke-width="0.52041" stroke-linecap="round" stroke-linejoin="round"/>
<path d="M153.398 118.268L160.65 118.637" stroke="#E3E7EB" stroke-width="0.52041" stroke-linecap="round" stroke-linejoin="round"/>
<path d="M163.1 95.7918L166.746 114.782C167.108 116.672 169.804 116.713 170.219 114.829L173.22 101.26L163.094 95.786L163.1 95.7918Z" fill="#E3E7EB"/>
<path d="M240.512 129.054C240.512 129.054 236.434 96.2295 211.793 81.468C195.314 71.5982 170.442 75.9425 170.442 75.9425L161.566 96.5752L191.57 120.267L194.542 130.448C192.722 132.857 192.388 137.172 196.5 137.172H239.757C242.729 137.172 244.705 133.975 243.259 131.382C242.758 130.489 241.906 129.659 240.518 129.054H240.512Z" fill="white"/>
<path d="M160.051 95.4115L172.371 105.108" stroke="#E3E7EB" stroke-width="0.52041" stroke-linecap="round" stroke-linejoin="round"/>
<path d="M203.801 98.9436L191.59 120.343L194.539 130.449C192.719 132.857 192.385 137.173 196.497 137.173H201.716L203.801 98.9436Z" fill="#E3E7EB"/>
<path d="M228.872 120.757L220.434 136.527" stroke="#E3E7EB" stroke-width="0.52041" stroke-linecap="round" stroke-linejoin="round"/>
<path d="M203.582 123.437C204.32 123.437 204.919 122.838 204.919 122.1C204.919 121.362 204.32 120.763 203.582 120.763C202.844 120.763 202.246 121.362 202.246 122.1C202.246 122.838 202.844 123.437 203.582 123.437Z" fill="#181D27"/>
<path d="M207.086 131.958C207.824 131.958 208.423 131.36 208.423 130.621C208.423 129.883 207.824 129.285 207.086 129.285C206.348 129.285 205.75 129.883 205.75 130.621C205.75 131.36 206.348 131.958 207.086 131.958Z" fill="#181D27"/>
<path d="M161.541 209.211L160.078 216.321H182.582L184.103 209.211H161.541Z" fill="#181D27"/>
<path d="M175.871 90.8481L199.36 118.268L205.08 137.172" stroke="#E3E7EB" stroke-width="0.52041" stroke-linecap="round" stroke-linejoin="round"/>
<path d="M174.59 89.8399L172.016 92.6574L173.196 95.0024H174.59H175.984L177.171 92.6574L174.59 89.8399Z" fill="#FFB25C"/>
<path d="M174.59 119.824L172.016 116.822L173.196 95.0025H174.59H175.984L177.171 116.822L174.59 119.824Z" fill="#FFB25C"/>
<path d="M177.402 76.7895L181.722 78.9502C183.525 79.849 184.268 82.0327 183.386 83.8476L178.98 92.9396C178.663 93.5907 177.805 93.729 177.298 93.2162L174.447 90.3123L172.039 93.0203C171.613 93.4985 170.859 93.487 170.45 92.9857L166.746 88.4224L177.396 76.7838L177.402 76.7895Z" fill="white"/>
<path d="M173.762 95.0025H175.979L176.077 96.829L173.762 95.0025Z" fill="#BE7346"/>
<path d="M159.915 76.5937L178.065 80.8458L178.935 70.0541C179.182 67.0004 176.919 64.3155 173.866 64.0447C171.32 63.8199 168.302 63.5376 165.762 63.2668C163.97 63.0767 162.277 62.2009 161.234 60.7259C158.602 56.9923 152.07 57.2804 150.325 62.5581C148.649 67.6284 153.447 72.2724 156.938 72.2724C156.938 72.2724 157.381 75.5047 159.91 76.5995L159.915 76.5937Z" fill="#181D27"/>
<path d="M179.039 79.6359L177.185 76.9163C177.185 76.9163 172.721 77.3254 172.277 73.0617C170.463 72.8082 169.639 71.5406 169.282 70.636C169.057 70.0714 168.51 69.7026 167.9 69.7026H161.673C160.993 69.7026 160.383 70.1636 160.227 70.8262C160.095 71.4139 159.836 71.9612 159.398 72.3012C159.098 72.5316 158.966 72.9177 159.047 73.2864L159.818 76.8414C159.075 86.9129 163.862 90.877 171.229 88.7855C173.245 91.4474 177.496 88.7509 179.477 84.3835C180.174 82.8394 179.995 81.0417 179.039 79.6416V79.6359Z" fill="#FFA485"/>
<path d="M161.704 77.7346C162.314 77.7346 162.809 77.2393 162.809 76.6283C162.809 76.0174 162.314 75.5221 161.704 75.5221C161.093 75.5221 160.598 76.0174 160.598 76.6283C160.598 77.2393 161.093 77.7346 161.704 77.7346Z" fill="#181D27"/>
<path d="M168.77 77.7346C169.381 77.7346 169.876 77.2393 169.876 76.6283C169.876 76.0174 169.381 75.5221 168.77 75.5221C168.159 75.5221 167.664 76.0174 167.664 76.6283C167.664 77.2393 168.159 77.7346 168.77 77.7346Z" fill="#181D27"/>
<path d="M163.95 75.6371L164.387 77.1928C164.439 77.3772 164.439 77.5731 164.376 77.7574L163.627 80.1197C163.443 80.6959 163.904 81.2778 164.503 81.2318L165.793 81.1396" stroke="#181D27" stroke-width="0.52041" stroke-linecap="round" stroke-linejoin="round"/>
<path d="M164.696 85.2132H168.469C168.469 85.2132 167.582 82.3612 165.583 82.3612C163.585 82.3612 164.702 85.2132 164.702 85.2132H164.696Z" fill="#D64141"/>
<path d="M166.062 73.9204C166.062 73.9204 167.877 73.3673 170.728 74.1797" stroke="#181D27" stroke-width="1.04654" stroke-miterlimit="10"/>
<path d="M162.656 73.9548C162.656 73.9548 161.251 73.442 159.84 74.4388" stroke="#181D27" stroke-width="1.04654" stroke-miterlimit="10"/>
<path d="M176.005 88.8028C176.236 87.7138 176.368 86.4232 176.242 85.1959C176.196 84.735 175.568 84.6313 175.36 85.0461C174.588 86.596 173.079 88.3534 171.23 88.7797C172.377 90.2951 174.243 90.0761 176.005 88.8028Z" fill="#BE7346"/>
<path d="M174.785 77.0027L175.2 74.8824C175.448 73.6321 176.68 72.8312 177.925 73.1251C179.146 73.4132 179.894 74.6404 179.595 75.8561L179.082 77.9592C178.8 79.1173 177.648 79.8375 176.479 79.584C175.304 79.3305 174.549 78.1839 174.78 77.0085L174.785 77.0027Z" fill="#FFA485"/>
<path d="M178.575 74.7153C177.192 74.8651 176.351 75.6775 176.23 78.4662" stroke="#BE7346" stroke-width="0.52041" stroke-linecap="round" stroke-linejoin="round"/>
<path d="M178.154 76.7895L176.91 75.6371" stroke="#BE7346" stroke-width="0.52041" stroke-linecap="round" stroke-linejoin="round"/>
<path d="M172.811 67.5708C170.795 71.8921 170.432 74.9919 172.811 74.9919C175.19 74.9919 174.827 71.8921 172.811 67.5708Z" fill="white"/>
<path d="M125.342 134.402H85.172L78.957 100.638H119.127L125.342 134.402Z" fill="#181D27"/>
<path d="M125.343 134.402H123.27L117.055 100.638H119.128L125.343 134.402Z" fill="#181D27"/>
<path d="M105.663 121.68C107.571 119.587 107.079 116.031 104.564 113.736C102.05 111.442 98.4643 111.278 96.5563 113.37C94.6483 115.463 95.1402 119.019 97.6549 121.313C100.17 123.608 103.755 123.772 105.663 121.68Z" fill="#181D27"/>
<path d="M158.904 134.401H86.7031V137.294H158.904V134.401Z" fill="#181D27"/>
<path d="M125.341 134.401H86.7031V137.294H125.341V134.401Z" fill="#181D27"/>
<path d="M87.6797 134.401H124.468" stroke="#181D27" stroke-width="0.503254" stroke-miterlimit="10"/>
<path d="M195.809 137.294H80.9336V146.472H195.809V137.294Z" fill="#D29D7E"/>
<path d="M80.9336 141.886H195.809" stroke="#BE7346" stroke-width="0.52041" stroke-linecap="round" stroke-linejoin="round"/>
<path d="M191.573 146.478H185.059V229.741H191.573V146.478Z" fill="#D29D7E"/>
<path d="M191.573 146.478H185.059V149.29H191.573V146.478Z" fill="#BE7346"/>
<path d="M185.058 169.34V175.644L156.293 146.478H162.514L185.058 169.34Z" fill="#D29D7E"/>
<path d="M162.514 146.478H156.293L159.069 149.29H165.284L162.514 146.478Z" fill="#BE7346"/>
<path d="M183.555 174.123L185.058 175.644V169.34L183.555 167.819V174.123Z" fill="#BE7346"/>
<path d="M85.1848 229.741H91.6992L91.6992 146.478H85.1848L85.1848 229.741Z" fill="#D29D7E"/>
<path d="M91.6942 146.478H85.1797V149.29H91.6942V146.478Z" fill="#BE7346"/>
<path d="M91.6953 169.34V175.644L120.46 146.478H114.24L91.6953 169.34Z" fill="#D29D7E"/>
<path d="M114.239 146.478H120.46L117.684 149.29H111.469L114.239 146.478Z" fill="#BE7346"/>
<path d="M93.1987 174.123L91.6953 175.644V169.34L93.1987 167.819V174.123Z" fill="#BE7346"/>
<path d="M166.296 125.545L148.187 131.174L140.981 131.595C139.069 131.704 137.255 132.482 135.849 133.79L132.094 137.293H173.692L166.29 125.545H166.296Z" fill="#FFA485"/>
<path d="M158.86 127.856L158.699 137.293H164.43L162.806 126.628L158.86 127.856Z" fill="#FFA485"/>
<path d="M164.202 125.545L160.648 126.484L162.25 137.293H165.999L164.202 125.545Z" fill="#E3E7EB"/>
<path d="M198.402 82.142C193.241 80.9609 188.114 84.2508 187.043 89.4422L180.926 119.011C178.541 119.063 176.497 120.797 176.497 120.797C176.497 120.797 172.517 119.829 169.925 123.137C165.426 123.056 164.199 125.557 164.199 125.557L166.002 137.305H186.484C191.927 137.305 196.639 133.519 197.82 128.201L205.521 93.4062C206.644 88.3359 203.465 83.3059 198.402 82.1478V82.142Z" fill="white"/>
<path d="M138.862 133.347L134.496 137.172" stroke="#BE7346" stroke-width="0.52041" stroke-linecap="round" stroke-linejoin="round"/>
<path d="M141.296 133.347L136.93 137.172" stroke="#BE7346" stroke-width="0.52041" stroke-linecap="round" stroke-linejoin="round"/>
<path d="M143.729 133.347L139.363 137.172" stroke="#BE7346" stroke-width="0.52041" stroke-linecap="round" stroke-linejoin="round"/>
<path d="M143.728 135.478L141.793 137.172" stroke="#BE7346" stroke-width="0.52041" stroke-linecap="round" stroke-linejoin="round"/>
<path d="M182.453 111.602L186.318 92.9166C187.626 87.5813 188.178 81.2261 198.402 82.1364" stroke="#E3E7EB" stroke-width="0.52041" stroke-linecap="round" stroke-linejoin="round"/>
<path d="M181.977 119.081C181.977 119.081 187.091 120.636 188.307 124.336" stroke="#E3E7EB" stroke-width="0.52041" stroke-linecap="round" stroke-linejoin="round"/>
<path d="M205.748 91.2401L203.801 101.179" stroke="#E3E7EB" stroke-width="0.52041" stroke-linecap="round" stroke-linejoin="round"/>
<path d="M208.549 92.4212L204.5 97.6125" stroke="#E3E7EB" stroke-width="0.52041" stroke-linecap="round" stroke-linejoin="round"/>
<path d="M176.897 9.99962H138.824C134.187 9.99962 130.426 13.762 130.426 18.4002V37.0336C130.426 41.6718 134.187 45.4342 138.824 45.4342H151.478C152.625 45.4342 153.673 46.0968 154.157 47.1397L157.244 53.7484C157.486 54.267 158.223 54.267 158.465 53.7484L161.552 47.1397C162.036 46.0968 163.085 45.4342 164.231 45.4342H176.885C181.522 45.4342 185.283 41.6718 185.283 37.0336V18.4002C185.283 13.762 181.522 9.99962 176.885 9.99962H176.897Z" fill="#FFB25C"/>
<path d="M138.753 24.7035L137.895 24.7669C136.363 24.8821 135.084 25.9711 134.716 27.4576L134.001 30.3327C133.466 32.5049 135.482 34.4466 137.63 33.8243C138.736 33.5017 139.554 32.5568 139.704 31.4102L140.585 24.7323C140.919 22.2029 142.543 20.0308 144.87 18.9936L151.494 16.0494C155.296 14.3555 159.731 14.9432 162.962 17.5647L166.194 20.1806C167.801 21.4827 168.722 23.4475 168.693 25.5217L168.67 26.9852C168.659 27.6823 169.177 28.2758 169.868 28.3622C170.704 28.4659 171.435 27.7976 171.406 26.9564L171.291 23.6722C171.291 23.5396 171.262 23.4071 171.222 23.2804L170.606 21.4597C169.903 19.3854 171.614 17.2939 173.785 17.5705L176.129 17.8643C177.368 18.0199 178.445 18.7977 178.981 19.9328L180.415 22.9635C180.847 23.8738 180.455 24.957 179.545 25.3834L178.785 25.7406C178.641 25.8098 178.508 25.902 178.399 26.0114L173.353 31.0587C172.028 32.3839 170.237 33.1214 168.371 33.1214H160.739C159.074 33.1214 157.427 33.4325 155.878 34.0375L147.722 37.2295C146.005 37.9036 144.081 36.9702 143.54 35.2071C142.993 33.4268 144.093 31.5657 145.913 31.1797L149.778 30.3615C150.728 30.1599 151.661 29.8833 152.566 29.5261L158.423 27.2387C159.408 26.8526 159.731 25.6196 159.069 24.8015C158.544 24.1562 157.611 24.0352 156.943 24.5249H156.932C155.186 25.7982 154.916 28.2988 156.356 29.9121C157.03 30.6669 158.032 31.0472 159.04 30.9319L163.06 30.4768C164.742 30.2866 166.061 28.9499 166.228 27.2675C166.528 24.2887 165.007 21.4193 162.375 19.9962L161.257 19.3912C158.487 17.8989 155.152 17.8989 152.387 19.397L152.18 19.5064C149.784 20.8086 148.073 23.0902 147.503 25.7579L146.293 31.4159C145.85 33.4959 146.385 35.6623 147.745 37.2929C148.81 38.572 150.584 39.0041 152.116 38.353L156.022 36.6994C157.352 36.1348 158.792 35.864 160.238 35.9043L165.082 36.0426C169.938 36.1809 174.142 32.7008 174.926 27.907L175.064 27.0601C175.277 25.7579 174.805 24.4442 173.814 23.5742L170.018 20.2382C168.561 18.9591 166.62 18.3771 164.702 18.6422L159.685 19.3393C157.905 19.5871 156.194 20.1921 154.656 21.1255L153.303 21.9436C151.638 22.952 149.732 23.482 147.791 23.482H144.796C144.266 23.482 143.782 23.7932 143.557 24.2771L142.255 27.0831" stroke="white" stroke-width="0.52041" stroke-linecap="round" stroke-linejoin="round"/>
<path d="M219.505 17.1597C209.62 17.1597 201.605 25.1785 201.605 35.069C201.605 44.9596 209.62 52.9783 219.505 52.9783C229.39 52.9783 237.404 44.9596 237.404 35.069C237.404 25.1785 229.39 17.1597 219.505 17.1597ZM219.505 50.0012C211.263 50.0012 204.581 43.315 204.581 35.069C204.581 26.8231 211.263 20.1369 219.505 20.1369C227.746 20.1369 234.429 26.8231 234.429 35.069C234.429 43.315 227.746 50.0012 219.505 50.0012Z" fill="#FFB25C"/>
<path d="M220.131 22.005C220.131 22.4094 219.804 22.733 219.403 22.733C219.003 22.733 218.676 22.4056 218.676 22.005C218.676 21.6045 219.003 21.2771 219.403 21.2771C219.804 21.2771 220.131 21.6045 220.131 22.005Z" fill="#FFB25C"/>
<path d="M220.131 48.1334C220.131 48.5378 219.804 48.8613 219.403 48.8613C219.003 48.8613 218.676 48.5339 218.676 48.1334C218.676 47.7328 219.003 47.4054 219.403 47.4054C219.804 47.4054 220.131 47.7328 220.131 48.1334Z" fill="#FFB25C"/>
<path d="M213.528 23.43C213.728 23.7805 213.608 24.2234 213.262 24.4275C212.912 24.6278 212.469 24.5084 212.265 24.1618C212.065 23.8113 212.184 23.3684 212.531 23.1642C212.881 22.964 213.324 23.0834 213.528 23.43Z" fill="#FFB25C"/>
<path d="M226.582 46.0575C226.783 46.4079 226.663 46.8509 226.317 47.055C225.966 47.2553 225.524 47.1359 225.32 46.7892C225.12 46.4388 225.239 45.9958 225.585 45.7917C225.936 45.5914 226.378 45.7108 226.582 46.0575Z" fill="#FFB25C"/>
<path d="M208.522 27.9631C208.873 28.1634 208.992 28.6102 208.788 28.9606C208.584 29.3111 208.141 29.4305 207.791 29.2264C207.441 29.0261 207.321 28.5794 207.525 28.2289C207.726 27.8784 208.172 27.759 208.522 27.9631Z" fill="#FFB25C"/>
<path d="M231.136 41.0274C231.486 41.2277 231.605 41.6745 231.401 42.0249C231.201 42.3754 230.755 42.4948 230.404 42.2907C230.054 42.0904 229.935 41.6437 230.139 41.2932C230.339 40.9427 230.785 40.8233 231.136 41.0274Z" fill="#FFB25C"/>
<path d="M206.454 34.3951C206.858 34.3951 207.182 34.7225 207.182 35.123C207.182 35.5236 206.854 35.851 206.454 35.851C206.054 35.851 205.727 35.5236 205.727 35.123C205.727 34.7225 206.054 34.3951 206.454 34.3951Z" fill="#FFB25C"/>
<path d="M232.563 34.3951C232.968 34.3951 233.291 34.7225 233.291 35.123C233.291 35.5236 232.964 35.851 232.563 35.851C232.163 35.851 231.836 35.5236 231.836 35.123C231.836 34.7225 232.163 34.3951 232.563 34.3951Z" fill="#FFB25C"/>
<path d="M207.874 41.0004C208.225 40.8001 208.667 40.9195 208.871 41.2661C209.072 41.6166 208.952 42.0595 208.606 42.2636C208.256 42.4639 207.813 42.3445 207.609 41.9979C207.409 41.6474 207.528 41.2045 207.874 41.0004Z" fill="#FFB25C"/>
<path d="M230.492 27.9363C230.842 27.7361 231.285 27.8554 231.489 28.2021C231.689 28.5526 231.569 28.9955 231.223 29.1996C230.873 29.3999 230.43 29.2805 230.226 28.9339C230.026 28.5834 230.145 28.1405 230.492 27.9363Z" fill="#FFB25C"/>
<path d="M212.404 46.0075C212.605 45.657 213.051 45.5376 213.401 45.7417C213.752 45.9459 213.871 46.3888 213.667 46.7393C213.467 47.0898 213.02 47.2091 212.67 47.005C212.32 46.8047 212.2 46.358 212.404 46.0075Z" fill="#FFB25C"/>
<path d="M225.459 23.38C225.659 23.0295 226.106 22.9101 226.456 23.1142C226.806 23.3145 226.926 23.7613 226.722 24.1118C226.521 24.4623 226.075 24.5816 225.725 24.3775C225.374 24.1772 225.255 23.7305 225.459 23.38Z" fill="#FFB25C"/>
<path d="M219.504 23.7457V35.069L212.891 39.321" stroke="#EBD5C7" stroke-width="0.571879" stroke-miterlimit="10"/>
<path d="M219.505 36.2977C220.183 36.2977 220.733 35.7476 220.733 35.0691C220.733 34.3906 220.183 33.8405 219.505 33.8405C218.827 33.8405 218.277 34.3906 218.277 35.0691C218.277 35.7476 218.827 36.2977 219.505 36.2977Z" fill="#FFB25C"/>
<path d="M85.7494 19.3628H55.8086V55.6007H85.7494V19.3628Z" fill="white"/>
<path d="M60.0039 24.02H69.0419" stroke="#EBD5C7" stroke-width="0.571879" stroke-miterlimit="10"/>
<path d="M60.0039 26.6004H81.565" stroke="#EBD5C7" stroke-width="0.571879" stroke-miterlimit="10"/>
<path d="M60.0039 29.1768H81.565" stroke="#EBD5C7" stroke-width="0.571879" stroke-miterlimit="10"/>
<path d="M60.0039 31.7572H81.565" stroke="#EBD5C7" stroke-width="0.571879" stroke-miterlimit="10"/>
<path d="M60.0039 34.3377H81.565" stroke="#EBD5C7" stroke-width="0.571879" stroke-miterlimit="10"/>
<path d="M60.0039 36.9141H81.565" stroke="#EBD5C7" stroke-width="0.571879" stroke-miterlimit="10"/>
<path d="M60.0039 39.4945H81.565" stroke="#EBD5C7" stroke-width="0.571879" stroke-miterlimit="10"/>
<path d="M60.0039 42.075H81.565" stroke="#EBD5C7" stroke-width="0.571879" stroke-miterlimit="10"/>
<path d="M60.0039 44.6514H81.565" stroke="#EBD5C7" stroke-width="0.571879" stroke-miterlimit="10"/>
<path d="M60.0039 47.2318H81.565" stroke="#EBD5C7" stroke-width="0.571879" stroke-miterlimit="10"/>
<path d="M60.0039 49.8085H69.0419" stroke="#EBD5C7" stroke-width="0.571879" stroke-miterlimit="10"/>
<path d="M78.9257 17.6193V26.5267C78.9257 27.6386 78.0234 28.5414 76.912 28.5414C75.8007 28.5414 74.8984 27.6386 74.8984 26.5267V17.2357C74.8984 15.5348 76.277 14.1555 77.9769 14.1555C79.6769 14.1555 81.0554 15.5348 81.0554 17.2357V19.3628" stroke="#D29D7E" stroke-width="1.14376" stroke-miterlimit="10"/>
<path d="M98.819 75.0886H72.6488C69.8147 75.0886 67.5195 77.3851 67.5195 80.2207V91.9027C67.5195 94.7383 69.8147 97.0348 72.6488 97.0348H79.6791C81.116 97.0348 82.3734 98.0033 82.7426 99.3912L85.7364 110.684L88.7301 99.3912C89.0993 98.0033 90.3567 97.0348 91.7937 97.0348H98.8239C101.658 97.0348 103.953 94.7383 103.953 91.9027V80.2207C103.953 77.3851 101.658 75.0886 98.8239 75.0886H98.819Z" fill="#FFB25C"/>
<path d="M95.6727 80.5703H77.1016V92.8913H95.6727V80.5703Z" stroke="white" stroke-width="0.503254" stroke-miterlimit="10"/>
<path d="M78.4219 81.8683L86.3852 87.884L94.3485 81.8683" stroke="white" stroke-width="0.503254" stroke-miterlimit="10"/>
<path d="M87.957 86.6958L94.3486 91.5933" stroke="white" stroke-width="0.503254" stroke-miterlimit="10"/>
<path d="M78.4219 91.5933L84.8584 86.7308" stroke="white" stroke-width="0.503254" stroke-miterlimit="10"/>
</g>
<defs>
<clipPath id="clip0_167_14779">
<rect width="335" height="240" fill="white" transform="translate(0 0.192307)"/>
</clipPath>
</defs>
</svg>
