<svg width="12" height="13" viewBox="0 0 12 13" fill="none" xmlns="http://www.w3.org/2000/svg">
<rect width="12" height="13" fill="#F4F6F9"/>
<g id="&#236;&#154;&#180;&#236;&#152;&#129; &#236;&#181;&#156;&#236;&#162;&#133;">
<path d="M-6126 -5025C-6126 -5135.46 -6036.46 -5225 -5926 -5225H1719C1829.46 -5225 1919 -5135.46 1919 -5025V10364C1919 10474.5 1829.46 10564 1719 10564H-5926C-6036.46 10564 -6126 10474.5 -6126 10364V-5025Z" fill="#E3E7EB"/>
<path d="M-5926 -5224H1719V-5226H-5926V-5224ZM1918 -5025V10364H1920V-5025H1918ZM1719 10563H-5926V10565H1719V10563ZM-6125 10364V-5025H-6127V10364H-6125ZM-5926 10563C-6035.9 10563 -6125 10473.9 -6125 10364H-6127C-6127 10475 -6037.01 10565 -5926 10565V10563ZM1918 10364C1918 10473.9 1828.9 10563 1719 10563V10565C1830.01 10565 1920 10475 1920 10364H1918ZM1719 -5224C1828.9 -5224 1918 -5134.9 1918 -5025H1920C1920 -5136.01 1830.01 -5226 1719 -5226V-5224ZM-5926 -5226C-6037.01 -5226 -6127 -5136.01 -6127 -5025H-6125C-6125 -5134.9 -6035.9 -5224 -5926 -5224V-5226Z" fill="white" fill-opacity="0.1"/>
<g id="&#236;&#154;&#180;&#236;&#152;&#129;&#237;&#142;&#152;&#236;&#157;&#180;&#236;&#167;&#128;_MO">
<g id="Frame 3396">
<rect width="375" height="8528.36" transform="translate(-248 -4219)" fill="white"/>
<g id="Frame 3409">
<rect width="375" height="2862.16" transform="translate(-248 -1518.81)" fill="#FFF7EF"/>
<g id="Frame 1000001683">
<g id="Frame 3385" filter="url(#filter0_dd_0_1)">
<rect x="-228" y="-244.643" width="335" height="508" rx="20" fill="#FFF7EF" shape-rendering="crispEdges"/>
<g id="Frame 3405" filter="url(#filter1_dd_0_1)">
<rect x="-208" y="-64.6431" width="295" height="298" rx="12" fill="white"/>
<g id="Frame 3259">
<rect x="-9" y="-4.64307" width="80" height="22" rx="11" fill="#F6F6F6"/>
<g id="imagesmode">
<mask id="mask0_0_1" style="mask-type:alpha" maskUnits="userSpaceOnUse" x="0" y="0" width="12" height="13">
<rect id="Bounding box" x="0.28125" y="0.639648" width="11.4346" height="11.4346" fill="#D9D9D9"/>
</mask>
<g mask="url(#mask0_0_1)">
<path id="imagesmode_2" d="M2.81439 10.4064C2.57372 10.4064 2.37001 10.323 2.20326 10.1563C2.0365 9.98951 1.95312 9.7858 1.95312 9.54514V3.16815C1.95312 2.92748 2.0365 2.72377 2.20326 2.55702C2.37001 2.39026 2.57372 2.30688 2.81439 2.30688H9.19135C9.43201 2.30688 9.63572 2.39026 9.80248 2.55702C9.96923 2.72377 10.0526 2.92748 10.0526 3.16815V9.54514C10.0526 9.7858 9.96923 9.98951 9.80248 10.1563C9.63572 10.323 9.43201 10.4064 9.19135 10.4064H2.81439ZM2.81439 9.69175H9.19135C9.228 9.69175 9.2616 9.67648 9.29215 9.64594C9.32269 9.61539 9.33796 9.58179 9.33796 9.54514V3.16815C9.33796 3.1315 9.32269 3.0979 9.29215 3.06735C9.2616 3.03681 9.228 3.02154 9.19135 3.02154H2.81439C2.77773 3.02154 2.74413 3.03681 2.71359 3.06735C2.68305 3.0979 2.66778 3.1315 2.66778 3.16815V9.54514C2.66778 9.58179 2.68305 9.61539 2.71359 9.64594C2.74413 9.67648 2.77773 9.69175 2.81439 9.69175ZM3.50157 8.61974H8.54081L6.97407 6.53074L5.63638 8.27158L4.68349 7.053L3.50157 8.61974ZM4.33532 5.28463C4.50024 5.28463 4.64073 5.22661 4.75678 5.11055C4.87284 4.9945 4.93086 4.85401 4.93086 4.68909C4.93086 4.52417 4.87284 4.38368 4.75678 4.26763C4.64073 4.15158 4.50024 4.09355 4.33532 4.09355C4.1704 4.09355 4.02991 4.15158 3.91386 4.26763C3.79781 4.38368 3.73978 4.52417 3.73978 4.68909C3.73978 4.85401 3.79781 4.9945 3.91386 5.11055C4.02991 5.22661 4.1704 5.28463 4.33532 5.28463Z" fill="#798087"/>
</g>
</g>
</g>
</g>
</g>
</g>
</g>
</g>
</g>
</g>
<defs>
<filter id="filter0_dd_0_1" x="-268" y="-284.643" width="455" height="628" filterUnits="userSpaceOnUse" color-interpolation-filters="sRGB">
<feFlood flood-opacity="0" result="BackgroundImageFix"/>
<feColorMatrix in="SourceAlpha" type="matrix" values="0 0 0 0 0 0 0 0 0 0 0 0 0 0 0 0 0 0 127 0" result="hardAlpha"/>
<feOffset dx="20" dy="20"/>
<feGaussianBlur stdDeviation="30"/>
<feComposite in2="hardAlpha" operator="out"/>
<feColorMatrix type="matrix" values="0 0 0 0 0.544338 0 0 0 0 0.54772 0 0 0 0 0.628874 0 0 0 0.4 0"/>
<feBlend mode="multiply" in2="BackgroundImageFix" result="effect1_dropShadow_0_1"/>
<feColorMatrix in="SourceAlpha" type="matrix" values="0 0 0 0 0 0 0 0 0 0 0 0 0 0 0 0 0 0 127 0" result="hardAlpha"/>
<feOffset dx="5" dy="5"/>
<feGaussianBlur stdDeviation="7.5"/>
<feComposite in2="hardAlpha" operator="out"/>
<feColorMatrix type="matrix" values="0 0 0 0 0.545098 0 0 0 0 0.54902 0 0 0 0 0.627451 0 0 0 0.15 0"/>
<feBlend mode="multiply" in2="effect1_dropShadow_0_1" result="effect2_dropShadow_0_1"/>
<feBlend mode="normal" in="SourceGraphic" in2="effect2_dropShadow_0_1" result="shape"/>
</filter>
<filter id="filter1_dd_0_1" x="-213" y="-69.6431" width="315" height="318" filterUnits="userSpaceOnUse" color-interpolation-filters="sRGB">
<feFlood flood-opacity="0" result="BackgroundImageFix"/>
<feColorMatrix in="SourceAlpha" type="matrix" values="0 0 0 0 0 0 0 0 0 0 0 0 0 0 0 0 0 0 127 0" result="hardAlpha"/>
<feOffset dx="5" dy="5"/>
<feGaussianBlur stdDeviation="5"/>
<feComposite in2="hardAlpha" operator="out"/>
<feColorMatrix type="matrix" values="0 0 0 0 0.545098 0 0 0 0 0.54902 0 0 0 0 0.627451 0 0 0 0.25 0"/>
<feBlend mode="multiply" in2="BackgroundImageFix" result="effect1_dropShadow_0_1"/>
<feColorMatrix in="SourceAlpha" type="matrix" values="0 0 0 0 0 0 0 0 0 0 0 0 0 0 0 0 0 0 127 0" result="hardAlpha"/>
<feOffset dx="2" dy="2"/>
<feGaussianBlur stdDeviation="2.5"/>
<feComposite in2="hardAlpha" operator="out"/>
<feColorMatrix type="matrix" values="0 0 0 0 0.545098 0 0 0 0 0.54902 0 0 0 0 0.627451 0 0 0 0.1 0"/>
<feBlend mode="multiply" in2="effect1_dropShadow_0_1" result="effect2_dropShadow_0_1"/>
<feBlend mode="normal" in="SourceGraphic" in2="effect2_dropShadow_0_1" result="shape"/>
</filter>
</defs>
</svg>
