<?xml version="1.0" encoding="UTF-8"?><svg id="Layer_1" xmlns="http://www.w3.org/2000/svg" viewBox="0 0 200 200"><defs><style>.cls-1{fill:#fff;}.cls-2{fill:#f6871f;}</style></defs><circle class="cls-2" cx="100" cy="100" r="100"/><path class="cls-1" d="M62.35,65.63c34.48,0,48.21,57.29,75.3,57.29,12.11,0,19.94-9.04,19.94-22.92s-7.83-22.92-19.94-22.92c-9.54,0-16.39,6.12-23.01,13.72l-7.13-8.95c8.59-8.78,17.47-16.23,30.14-16.23,18.32,0,31.11,14.07,31.11,34.37s-12.79,34.37-31.11,34.37c-34.39,0-48.16-57.29-75.29-57.29-12.11,0-19.93,9.04-19.93,22.92s7.82,22.92,19.93,22.92c9.53,0,16.39-6.12,23-13.7l7.13,8.94c-8.59,8.77-17.47,16.22-30.13,16.22-18.32,0-31.1-14.07-31.1-34.37s12.78-34.37,31.1-34.37Z"/></svg>