<svg width="21" height="21" viewBox="0 0 21 21" fill="none" xmlns="http://www.w3.org/2000/svg">
<g id="lab_profile">
<mask id="mask0_197_2914" style="mask-type:alpha" maskUnits="userSpaceOnUse" x="0" y="0" width="21" height="21">
<rect id="Bounding box" x="0.5" y="0.5" width="20" height="20" fill="#D9D9D9"/>
</mask>
<g mask="url(#mask0_197_2914)">
<path id="lab_profile_2" d="M7.375 10.2918H13.625V9.04183H7.375V10.2918ZM7.375 6.95846H13.625V5.7085H7.375V6.95846ZM16.6923 17.3383L13.5817 13.295C13.3616 13.0023 13.094 12.7758 12.7788 12.6155C12.4636 12.4553 12.1207 12.3752 11.75 12.3752H4.25V4.08991C4.25 3.66897 4.39583 3.31266 4.6875 3.021C4.97917 2.72933 5.33547 2.5835 5.75642 2.5835H15.2435C15.6645 2.5835 16.0208 2.72933 16.3125 3.021C16.6041 3.31266 16.75 3.66897 16.75 4.08991V16.9104C16.75 16.9852 16.7451 17.0578 16.7355 17.1283C16.7259 17.1988 16.7115 17.2688 16.6923 17.3383ZM5.75642 18.4168C5.33547 18.4168 4.97917 18.271 4.6875 17.9793C4.39583 17.6876 4.25 17.3313 4.25 16.9104V13.6251H11.75C11.9209 13.6251 12.0788 13.6631 12.2235 13.7389C12.3683 13.8148 12.493 13.9216 12.5977 14.0594L15.8173 18.2741C15.7318 18.3233 15.6402 18.3594 15.5424 18.3823C15.4447 18.4053 15.345 18.4168 15.2435 18.4168H5.75642Z" fill="#BE7346"/>
</g>
</g>
</svg>
