<svg width="96" height="30" viewBox="0 0 96 30" fill="none" xmlns="http://www.w3.org/2000/svg">
<path d="M4.17714 18.3015H19.2529V5.53516H5.0894C3.91979 5.54016 2.97548 6.55278 2.98049 7.72265V18.4608C3.34299 18.3656 3.74655 18.3085 4.17414 18.3025H4.17714V18.3015Z" fill="#BE7346"/>
<path d="M20.0037 25.4717H9.50417L9.09961 26.9781H20.0097C20.4062 26.9761 20.7277 26.5855 20.7257 26.1888C20.7237 25.7922 20.4002 25.4707 20.0037 25.4727V25.4717Z" fill="#09101D"/>
<path d="M19.4682 23.3654C19.8527 23.3633 20.1621 23.0508 20.1611 22.6662C20.1591 22.2826 19.8467 21.9721 19.4622 21.9741L7.1031 22.0262L4.69978 22.0362C4.4955 22.0372 4.31224 22.1254 4.18707 22.2656C4.07391 22.3898 4.00682 22.5541 4.00782 22.7343C4.00882 22.9136 4.07692 23.0779 4.18907 23.2001C4.27519 23.2952 4.38735 23.3654 4.51452 23.4014C4.57461 23.4184 4.63869 23.4274 4.70579 23.4264L5.59101 23.4234L5.52191 23.6678L5.04025 25.3836L4.01183 29.0464L6.04363 28.3313L7.40551 29.9999L9.25607 23.4074L19.4682 23.3654Z" fill="#09101D"/>
<path d="M18.6858 2.55324H4.11172C1.83457 2.56325 -0.00997324 4.5364 4.05808e-05 6.81403V23.1551C0.00805164 25.0401 1.3509 26.3382 3.08129 26.824C3.31161 26.8891 3.55094 26.9341 3.79528 26.9572L4.19383 25.5379V25.4678C2.69676 25.3937 1.50412 24.1547 1.50412 22.6373C1.50412 21.9963 1.71641 21.4053 2.07591 20.9306C2.56358 20.2835 3.32263 19.8528 4.18382 19.8078H7.16693L19.9796 19.8028C20.3762 19.8018 20.7467 19.4121 20.7447 19.0145V4.5394C20.7397 3.4687 19.7563 2.54923 18.6858 2.55324ZM19.2536 5.53499V18.3014H4.1748C3.74721 18.3084 3.34366 18.3655 2.98116 18.4606C2.2872 18.6429 1.74745 18.9704 1.49611 19.3711L1.4901 19.3731V6.80802C1.48409 5.32366 2.63468 4.05062 4.11772 4.04462H18.6918C18.9692 4.04361 19.2526 4.26797 19.2536 4.54541V5.53499Z" fill="#09101D"/>
<g clip-path="url(#clip0_16_1727)">
<path d="M26.8541 14.3264C26.8602 14.3264 26.8663 14.3264 26.8713 14.3264C28.1877 14.2869 29.5172 14.0298 30.8234 13.5613C32.0144 13.1342 32.9982 12.5422 33.7534 11.7974L40.7478 14.2737C41.039 14.377 41.3595 14.2383 41.4848 13.955L41.7659 13.3184C41.8326 13.1676 41.8326 12.9966 41.7679 12.8458C41.7032 12.695 41.5778 12.5776 41.4231 12.523L34.8929 10.2076C34.9505 10.079 35.0021 9.94647 35.0476 9.81188H40.8893C41.2149 9.81188 41.4798 9.54775 41.4798 9.22088V8.50945C41.4798 8.18359 41.2159 7.91845 40.8893 7.91845H35.0233V6.65448C35.0233 6.32862 34.7594 6.06348 34.4328 6.06348H33.6473C33.3217 6.06348 33.0568 6.32761 33.0568 6.65448V7.91845H27.1726C26.847 7.91845 26.5821 8.18258 26.5821 8.50945V9.22088C26.5821 9.54674 26.846 9.81188 27.1726 9.81188H32.8698C32.6504 10.157 32.3521 10.4727 31.9689 10.7662C31.2865 11.2884 30.4777 11.6942 29.5637 11.9715C28.6325 12.2548 27.7155 12.4096 26.8379 12.4329C26.5185 12.441 26.2637 12.7031 26.2637 13.0229V13.7343C26.2637 13.8942 26.3284 14.047 26.4426 14.1584C26.5528 14.2656 26.7004 14.3253 26.8531 14.3253L26.8541 14.3264Z" fill="#09101D"/>
<path d="M39.0825 18.6686C37.7297 18.2669 36.0271 18.0635 34.0212 18.0635C32.0153 18.0635 30.3128 18.2669 28.96 18.6686C27.8751 18.9905 26.582 19.6847 26.582 21.1642C26.582 22.6437 27.8751 23.338 28.96 23.6598C30.3128 24.0615 32.0153 24.2649 34.0212 24.2649C36.0271 24.2649 37.7297 24.0615 39.0825 23.6598C40.1673 23.338 41.4604 22.6427 41.4604 21.1642C41.4604 19.6857 40.1673 18.9915 39.0825 18.6686ZM38.1645 21.9556C37.021 22.2187 35.6268 22.3523 34.0212 22.3523C32.4157 22.3523 31.0205 22.2187 29.878 21.9556C29.4787 21.8635 28.5485 21.6014 28.5485 21.1642C28.5485 20.727 29.4787 20.4649 29.878 20.3728C31.0215 20.1097 32.4147 19.9761 34.0212 19.9761C35.6278 19.9761 37.021 20.1097 38.1645 20.3728C38.5638 20.4649 39.494 20.727 39.494 21.1642C39.494 21.6014 38.5648 21.8635 38.1645 21.9556Z" fill="#09101D"/>
<path d="M41.917 15.4792H35.0036V13.7477C35.0036 13.4219 34.7397 13.1567 34.4131 13.1567H33.6276C33.302 13.1567 33.0371 13.4209 33.0371 13.7477V15.4792H26.1236C25.7981 15.4792 25.5332 15.7434 25.5332 16.0702V16.7817C25.5332 17.1075 25.7971 17.3727 26.1236 17.3727H41.917C42.2426 17.3727 42.5075 17.1085 42.5075 16.7817V16.0702C42.5075 15.7444 42.2436 15.4792 41.917 15.4792Z" fill="#09101D"/>
<path d="M59.6612 17.5947H43.8678C43.5422 17.5947 43.2773 17.8589 43.2773 18.1857V18.972C43.2773 19.2979 43.5412 19.563 43.8678 19.563H50.7813L50.7813 23.6636C50.7813 23.9894 51.0451 24.2546 51.3717 24.2546H52.1573C52.4828 24.2546 52.7477 23.9904 52.7477 23.6636L52.7477 19.563H59.6612C59.9867 19.563 60.2516 19.2989 60.2516 18.972V18.1857C60.2516 17.8599 59.9877 17.5947 59.6612 17.5947Z" fill="#09101D"/>
<path d="M45.1393 16.3412H58.3879C58.7134 16.3412 58.9783 16.077 58.9783 15.7502V8.48309C58.9783 8.15723 58.7145 7.89209 58.3879 7.89209H45.1393C44.8137 7.89209 44.5488 8.15622 44.5488 8.48309V15.7502C44.5488 16.076 44.8127 16.3412 45.1393 16.3412ZM46.5153 9.80373H57.0119V14.4295H46.5153V9.80373Z" fill="#09101D"/>
<path d="M77.4102 21.5098H70.515V17.4842H76.2496C76.5751 17.4842 76.84 17.22 76.84 16.8932V16.1443C76.84 15.8184 76.5761 15.5533 76.2496 15.5533H64.2273V8.48993C64.2273 8.16407 63.9635 7.89893 63.6369 7.89893H62.8321C62.5066 7.89893 62.2417 8.16305 62.2417 8.48993V16.8942C62.2417 17.22 62.5055 17.4852 62.8321 17.4852H68.5485V21.5109H61.6158C61.2903 21.5109 61.0254 21.775 61.0254 22.1019V22.8325C61.0254 23.1584 61.2893 23.4235 61.6158 23.4235H77.4092C77.7348 23.4235 77.9997 23.1594 77.9997 22.8325V22.1019C77.9997 21.776 77.7358 21.5109 77.4092 21.5109L77.4102 21.5098Z" fill="#09101D"/>
<path d="M80.5963 18.9635H94.2756C94.6012 18.9635 94.8661 18.6994 94.8661 18.3725V17.6418C94.8661 17.316 94.6022 17.0508 94.2756 17.0508H81.9723V14.3923H93.8267C94.1523 14.3923 94.4172 14.1282 94.4172 13.8013V13.0707C94.4172 12.7448 94.1533 12.4797 93.8267 12.4797H81.9723V9.83941H93.9764C94.3019 9.83941 94.5668 9.57529 94.5668 9.24841V8.51776C94.5668 8.1919 94.3029 7.92676 93.9764 7.92676H80.5963C80.2708 7.92676 80.0059 8.19089 80.0059 8.51776V18.3705C80.0059 18.6963 80.2697 18.9615 80.5963 18.9615V18.9635Z" fill="#09101D"/>
<path d="M95.1553 21.5098H79.3619C79.0358 21.5098 78.7715 21.7744 78.7715 22.1008V22.8304C78.7715 23.1568 79.0358 23.4214 79.3619 23.4214H95.1553C95.4814 23.4214 95.7458 23.1568 95.7458 22.8304V22.1008C95.7458 21.7744 95.4814 21.5098 95.1553 21.5098Z" fill="#09101D"/>
</g>
<defs>
<clipPath id="clip0_16_1727">
<rect width="70.2128" height="27.4468" fill="white" transform="translate(25.5312 2.55322)"/>
</clipPath>
</defs>
</svg>
