<svg width="78" height="24" viewBox="0 0 78 24" fill="none" xmlns="http://www.w3.org/2000/svg">
<path d="M16.7076 20.3779H8.30802L7.98438 21.5831H16.7124C17.0297 21.5814 17.2868 21.269 17.2852 20.9516C17.2836 20.6343 17.0249 20.3771 16.7076 20.3787V20.3779Z" fill="#798087"/>
<path d="M16.2784 18.6931C16.5861 18.6915 16.8336 18.4415 16.8328 18.1338C16.8312 17.8269 16.5813 17.5785 16.2736 17.5801L6.38638 17.6218L4.46373 17.6298C4.3003 17.6306 4.1537 17.7011 4.05356 17.8133C3.96304 17.9126 3.90936 18.044 3.91017 18.1883C3.91097 18.3317 3.96544 18.4631 4.05517 18.5609C4.12406 18.637 4.21378 18.6931 4.31552 18.7219C4.36359 18.7355 4.41486 18.7427 4.46854 18.7419L5.17671 18.7395L5.12144 18.935L4.73611 20.3076L3.91337 23.2379L5.53881 22.6658L6.62832 24.0007L8.10876 18.7267L16.2784 18.6931Z" fill="#798087"/>
<path d="M15.6518 2.04298H3.9925C2.17078 2.05099 0.695146 3.62951 0.703157 5.45162V18.5245C0.709566 20.0325 1.78385 21.0709 3.16816 21.4596C3.35241 21.5116 3.54388 21.5477 3.73935 21.5661L4.05819 20.4307V20.3746C2.86054 20.3153 1.90642 19.3242 1.90642 18.1102C1.90642 17.5974 2.07625 17.1246 2.36385 16.7448C2.75399 16.2272 3.36123 15.8827 4.05018 15.8466H6.43667L16.6868 15.8426C17.0041 15.8418 17.3005 15.5301 17.2989 15.212V3.63191C17.2949 2.77535 16.5082 2.03977 15.6518 2.04298ZM16.106 4.42839V14.6415H4.04297C3.70089 14.6471 3.37805 14.6928 3.08805 14.7689C2.53288 14.9147 2.10109 15.1767 1.90001 15.4972L1.8952 15.4988V5.44681C1.8904 4.25932 2.81087 3.24089 3.9973 3.23608H15.6566C15.8785 3.23528 16.1052 3.41477 16.106 3.63672V4.42839Z" fill="#798087"/>
<g clip-path="url(#clip0_410_2272)">
<path d="M22.1872 11.4619C22.1921 11.4619 22.1969 11.4619 22.201 11.4619C23.254 11.4303 24.3177 11.2247 25.3627 10.8498C26.3155 10.5082 27.1025 10.0346 27.7066 9.4387L33.3021 11.4198C33.5351 11.5023 33.7915 11.3914 33.8918 11.1647L34.1166 10.6555C34.17 10.5349 34.17 10.3981 34.1182 10.2774C34.0665 10.1568 33.9662 10.0629 33.8424 10.0192L28.6182 8.16683C28.6643 8.06401 28.7056 7.95796 28.742 7.85028H33.4154C33.6758 7.85028 33.8877 7.63898 33.8877 7.37748V6.80834C33.8877 6.54765 33.6766 6.33554 33.4154 6.33554H28.7225V5.32436C28.7225 5.06367 28.5114 4.85156 28.2502 4.85156H27.6217C27.3613 4.85156 27.1494 5.06287 27.1494 5.32436V6.33554H22.442C22.1815 6.33554 21.9696 6.54684 21.9696 6.80834V7.37748C21.9696 7.63817 22.1807 7.85028 22.442 7.85028H26.9997C26.8242 8.12635 26.5856 8.37895 26.2791 8.61373C25.7331 9.03147 25.086 9.35612 24.3549 9.57795C23.6099 9.80463 22.8763 9.9285 22.1743 9.94712C21.9187 9.9536 21.7148 10.1633 21.7148 10.4191V10.9883C21.7148 11.1162 21.7666 11.2384 21.858 11.3275C21.9462 11.4133 22.0643 11.4611 22.1864 11.4611L22.1872 11.4619Z" fill="#798087"/>
<path d="M31.9691 14.9363C30.8869 14.6149 29.5248 14.4521 27.9201 14.4521C26.3154 14.4521 24.9533 14.6149 23.8711 14.9363C23.0032 15.1937 21.9688 15.7491 21.9688 16.9327C21.9688 18.1164 23.0032 18.6717 23.8711 18.9292C24.9533 19.2506 26.3154 19.4133 27.9201 19.4133C29.5248 19.4133 30.8869 19.2506 31.9691 18.9292C32.837 18.6717 33.8715 18.1155 33.8715 16.9327C33.8715 15.7499 32.837 15.1945 31.9691 14.9363ZM31.2347 17.5658C30.3199 17.7763 29.2045 17.8832 27.9201 17.8832C26.6357 17.8832 25.5195 17.7763 24.6055 17.5658C24.286 17.4922 23.5419 17.2825 23.5419 16.9327C23.5419 16.583 24.286 16.3733 24.6055 16.2996C25.5203 16.0891 26.6349 15.9823 27.9201 15.9823C29.2053 15.9823 30.3199 16.0891 31.2347 16.2996C31.5542 16.3733 32.2983 16.583 32.2983 16.9327C32.2983 17.2825 31.555 17.4922 31.2347 17.5658Z" fill="#798087"/>
<path d="M34.236 12.3844H28.7052V10.9992C28.7052 10.7385 28.4941 10.5264 28.2329 10.5264H27.6044C27.3439 10.5264 27.132 10.7377 27.132 10.9992V12.3844H21.6013C21.3408 12.3844 21.1289 12.5957 21.1289 12.8572V13.4263C21.1289 13.687 21.34 13.8991 21.6013 13.8991H34.236C34.4964 13.8991 34.7083 13.6878 34.7083 13.4263V12.8572C34.7083 12.5965 34.4972 12.3844 34.236 12.3844Z" fill="#798087"/>
<path d="M48.4313 14.0762H35.7966C35.5361 14.0762 35.3242 14.2875 35.3242 14.549V15.178C35.3242 15.4387 35.5353 15.6508 35.7966 15.6508H41.3273L41.3273 18.9312C41.3273 19.1919 41.5385 19.404 41.7997 19.404H42.4282C42.6886 19.404 42.9005 19.1927 42.9005 18.9312L42.9005 15.6508H48.4313C48.6917 15.6508 48.9036 15.4395 48.9036 15.178V14.549C48.9036 14.2883 48.6925 14.0762 48.4313 14.0762Z" fill="#798087"/>
<path d="M36.8122 13.0727H47.4111C47.6715 13.0727 47.8834 12.8614 47.8834 12.5999V6.78628C47.8834 6.52559 47.6723 6.31348 47.4111 6.31348H36.8122C36.5518 6.31348 36.3398 6.52478 36.3398 6.78628V12.5999C36.3398 12.8606 36.5509 13.0727 36.8122 13.0727ZM37.913 7.84279H46.3103V11.5434H37.913V7.84279Z" fill="#798087"/>
<path d="M62.6313 17.2081H57.1151V13.9875H61.7028C61.9632 13.9875 62.1751 13.7762 62.1751 13.5147V12.9156C62.1751 12.6549 61.964 12.4428 61.7028 12.4428H52.085V6.79214C52.085 6.53145 51.8739 6.31934 51.6126 6.31934H50.9688C50.7084 6.31934 50.4965 6.53064 50.4965 6.79214V13.5155C50.4965 13.7762 50.7076 13.9883 50.9688 13.9883H55.5419V17.2089H49.9958C49.7354 17.2089 49.5234 17.4202 49.5234 17.6817V18.2662C49.5234 18.5269 49.7345 18.739 49.9958 18.739H62.6305C62.891 18.739 63.1029 18.5277 63.1029 18.2662V17.6817C63.1029 17.421 62.8918 17.2089 62.6305 17.2089L62.6313 17.2081Z" fill="#798087"/>
<path d="M65.1794 15.1712H76.1228C76.3833 15.1712 76.5952 14.9599 76.5952 14.6984V14.1139C76.5952 13.8532 76.3841 13.6411 76.1228 13.6411H66.2802V11.5143H75.7637C76.0242 11.5143 76.2361 11.303 76.2361 11.0415V10.4569C76.2361 10.1963 76.025 9.98414 75.7637 9.98414H66.2802V7.87192H75.8834C76.1439 7.87192 76.3558 7.66062 76.3558 7.39912V6.8146C76.3558 6.55391 76.1447 6.3418 75.8834 6.3418H65.1794C64.9189 6.3418 64.707 6.5531 64.707 6.8146V14.6968C64.707 14.9575 64.9181 15.1696 65.1794 15.1696V15.1712Z" fill="#798087"/>
<path d="M76.8258 17.208H64.1911C63.9302 17.208 63.7188 17.4197 63.7188 17.6808V18.2645C63.7188 18.5256 63.9302 18.7373 64.1911 18.7373H76.8258C77.0867 18.7373 77.2982 18.5256 77.2982 18.2645V17.6808C77.2982 17.4197 77.0867 17.208 76.8258 17.208Z" fill="#798087"/>
</g>
<defs>
<clipPath id="clip0_410_2272">
<rect width="56.1702" height="21.9574" fill="white" transform="translate(21.1289 2.04297)"/>
</clipPath>
</defs>
</svg>
