<svg width="29" height="13" viewBox="0 0 29 13" fill="none" xmlns="http://www.w3.org/2000/svg">
<mask id="mask0_171_1057" style="mask-type:alpha" maskUnits="userSpaceOnUse" x="0" y="0" width="13" height="13">
<rect x="0.5" y="0.356934" width="11.9999" height="11.9999" fill="#D9D9D9"/>
</mask>
<g mask="url(#mask0_171_1057)">
<path d="M7.91552 6.35689L4.1492 2.59056C4.04984 2.49121 4.00144 2.37294 4.004 2.23577C4.00657 2.09859 4.05753 1.98032 4.15689 1.88097C4.25625 1.78161 4.37451 1.73193 4.51169 1.73193C4.64886 1.73193 4.76713 1.78161 4.86648 1.88097L8.69434 5.71652C8.78472 5.8069 8.85171 5.90818 8.8953 6.02035C8.93889 6.13253 8.96068 6.24471 8.96068 6.35689C8.96068 6.46906 8.93889 6.58124 8.8953 6.69342C8.85171 6.80559 8.78472 6.90687 8.69434 6.99726L4.8588 10.8328C4.75944 10.9322 4.64245 10.9806 4.50784 10.978C4.37323 10.9754 4.25625 10.9245 4.15689 10.8251C4.05753 10.7258 4.00785 10.6075 4.00785 10.4703C4.00785 10.3331 4.05753 10.2149 4.15689 10.1155L7.91552 6.35689Z" fill="#09101D"/>
</g>
<mask id="mask1_171_1057" style="mask-type:alpha" maskUnits="userSpaceOnUse" x="8" y="0" width="13" height="13">
<rect x="8.49609" y="0.356934" width="11.9999" height="11.9999" fill="#D9D9D9"/>
</mask>
<g mask="url(#mask1_171_1057)">
<path d="M15.9116 6.35689L12.1453 2.59056C12.0459 2.49121 11.9975 2.37294 12.0001 2.23577C12.0027 2.09859 12.0536 1.98032 12.153 1.88097C12.2523 1.78161 12.3706 1.73193 12.5078 1.73193C12.645 1.73193 12.7632 1.78161 12.8626 1.88097L16.6904 5.71652C16.7808 5.8069 16.8478 5.90818 16.8914 6.02035C16.935 6.13253 16.9568 6.24471 16.9568 6.35689C16.9568 6.46906 16.935 6.58124 16.8914 6.69342C16.8478 6.80559 16.7808 6.90687 16.6904 6.99726L12.8549 10.8328C12.7555 10.9322 12.6385 10.9806 12.5039 10.978C12.3693 10.9754 12.2523 10.9245 12.153 10.8251C12.0536 10.7258 12.0039 10.6075 12.0039 10.4703C12.0039 10.3331 12.0536 10.2149 12.153 10.1155L15.9116 6.35689Z" fill="#09101D"/>
</g>
<mask id="mask2_171_1057" style="mask-type:alpha" maskUnits="userSpaceOnUse" x="16" y="0" width="13" height="13">
<rect x="16.5" y="0.356934" width="11.9999" height="11.9999" fill="#D9D9D9"/>
</mask>
<g mask="url(#mask2_171_1057)">
<path d="M23.9155 6.35689L20.1492 2.59056C20.0498 2.49121 20.0014 2.37294 20.004 2.23577C20.0066 2.09859 20.0575 1.98032 20.1569 1.88097C20.2562 1.78161 20.3745 1.73193 20.5117 1.73193C20.6489 1.73193 20.7671 1.78161 20.8665 1.88097L24.6943 5.71652C24.7847 5.8069 24.8517 5.90818 24.8953 6.02035C24.9389 6.13253 24.9607 6.24471 24.9607 6.35689C24.9607 6.46906 24.9389 6.58124 24.8953 6.69342C24.8517 6.80559 24.7847 6.90687 24.6943 6.99726L20.8588 10.8328C20.7594 10.9322 20.6425 10.9806 20.5078 10.978C20.3732 10.9754 20.2562 10.9245 20.1569 10.8251C20.0575 10.7258 20.0079 10.6075 20.0079 10.4703C20.0079 10.3331 20.0575 10.2149 20.1569 10.1155L23.9155 6.35689Z" fill="#09101D"/>
</g>
</svg>
