<svg width="36" height="38" viewBox="0 0 36 38" fill="none" xmlns="http://www.w3.org/2000/svg">
<rect y="1.5" width="36" height="36" rx="18" fill="white"/>
<mask id="mask0_304_45992" style="mask-type:alpha" maskUnits="userSpaceOnUse" x="8" y="8" width="20" height="21">
<rect x="8" y="8.5" width="20" height="20" fill="#D9D9D9"/>
</mask>
<g mask="url(#mask0_304_45992)">
<path d="M11.75 24.2368V22.9869H13.2564V16.7689C13.2564 15.6482 13.6023 14.6572 14.2941 13.7961C14.9858 12.935 15.8739 12.3843 16.9583 12.1439V11.6247C16.9583 11.3353 17.0595 11.0894 17.2619 10.8868C17.4642 10.6843 17.71 10.583 17.999 10.583C18.2881 10.583 18.5342 10.6843 18.7371 10.8868C18.9401 11.0894 19.0416 11.3353 19.0416 11.6247V12.1439C20.126 12.3843 21.0141 12.935 21.7059 13.7961C22.3977 14.6572 22.7435 15.6482 22.7435 16.7689V22.9869H24.25V24.2368H11.75ZM17.9986 26.5766C17.5839 26.5766 17.2294 26.4291 16.9351 26.1341C16.6407 25.8391 16.4936 25.4844 16.4936 25.0702H19.5064C19.5064 25.4858 19.3587 25.8407 19.0635 26.1351C18.7682 26.4294 18.4132 26.5766 17.9986 26.5766ZM14.5064 22.9869H21.4936V16.7689C21.4936 15.8041 21.1525 14.9807 20.4703 14.2985C19.7882 13.6164 18.9647 13.2753 18 13.2753C17.0352 13.2753 16.2118 13.6164 15.5296 14.2985C14.8475 14.9807 14.5064 15.8041 14.5064 16.7689V22.9869Z" fill="#09101D"/>
</g>
<rect x="23" width="13" height="13" rx="6.5" fill="#BE7346"/>
<path d="M29.9708 4.46167V4.42396H27.2666V3.48398H31.1586V4.44012L28.8315 9H27.6464L29.9708 4.46167Z" fill="white"/>
</svg>
