<svg width="26" height="27" viewBox="0 0 26 27" fill="none" xmlns="http://www.w3.org/2000/svg">
<g id="payments">
<mask id="mask0_682_16276" style="mask-type:alpha" maskUnits="userSpaceOnUse" x="0" y="0" width="26" height="27">
<rect id="Bounding box" y="0.192322" width="26" height="26" fill="#D9D9D9"/>
</mask>
<g mask="url(#mask0_682_16276)">
<path id="payments_2" d="M3.95831 21.109C3.41977 21.109 2.95875 20.9172 2.57525 20.5337C2.19175 20.1502 2 19.6892 2 19.1506V8.42156H3.62495V19.1506C3.62495 19.234 3.65968 19.3104 3.72914 19.3798C3.79858 19.4493 3.87497 19.484 3.95831 19.484H20.7707V21.109H3.95831ZM7.74993 17.3173C7.2114 17.3173 6.75038 17.1256 6.36686 16.7421C5.98336 16.3586 5.79161 15.8975 5.79161 15.359V7.1507C5.79161 6.61217 5.98336 6.15115 6.36686 5.76763C6.75038 5.38413 7.2114 5.19238 7.74993 5.19238H22.0415C22.5801 5.19238 23.0411 5.38413 23.4246 5.76763C23.8081 6.15115 23.9998 6.61217 23.9998 7.1507V15.359C23.9998 15.8975 23.8081 16.3586 23.4246 16.7421C23.0411 17.1256 22.5801 17.3173 22.0415 17.3173H7.74993ZM9.3749 15.6924C9.3749 15.1521 9.18315 14.6906 8.79965 14.308C8.41613 13.9254 7.95511 13.734 7.41658 13.734V15.359C7.41658 15.4493 7.44957 15.5274 7.51555 15.5934C7.58152 15.6594 7.65965 15.6924 7.74993 15.6924H9.3749ZM20.4166 15.6924H22.0415C22.1318 15.6924 22.21 15.6594 22.2759 15.5934C22.3419 15.5274 22.3749 15.4493 22.3749 15.359V13.734C21.8346 13.734 21.3732 13.9258 20.9905 14.3093C20.6079 14.6928 20.4166 15.1538 20.4166 15.6924ZM14.8957 13.9632C15.6527 13.9632 16.2933 13.701 16.8176 13.1767C17.3419 12.6524 17.604 12.0118 17.604 11.2549C17.604 10.4979 17.3419 9.85732 16.8176 9.33302C16.2933 8.80872 15.6527 8.54657 14.8957 8.54657C14.1388 8.54657 13.4982 8.80872 12.9739 9.33302C12.4496 9.85732 12.1874 10.4979 12.1874 11.2549C12.1874 12.0118 12.4496 12.6524 12.9739 13.1767C13.4982 13.701 14.1388 13.9632 14.8957 13.9632ZM7.41658 8.77567C7.95686 8.77567 8.41832 8.58392 8.80095 8.20042C9.18358 7.8169 9.3749 7.35588 9.3749 6.81736H7.74993C7.65965 6.81736 7.58152 6.85034 7.51555 6.91632C7.44957 6.98229 7.41658 7.06042 7.41658 7.1507V8.77567ZM22.3749 8.77567V7.1507C22.3749 7.06042 22.3419 6.98229 22.2759 6.91632C22.21 6.85034 22.1318 6.81736 22.0415 6.81736H20.4166C20.4166 7.35763 20.6083 7.81909 20.9918 8.20172C21.3753 8.58435 21.8364 8.77567 22.3749 8.77567Z" fill="#D29D7E"/>
</g>
</g>
</svg>
