<svg xmlns="http://www.w3.org/2000/svg" width="30" height="30" viewBox="0 0 30 30" fill="none">
<path d="M29 19.5029C29 22.7778 26.2479 25 23.1367 25C19.906 25 16.7949 22.6608 16.7949 17.5146C16.7949 11.5497 20.8632 6.75439 23.2564 5L26.4872 6.75439C24.094 8.62573 21.8205 11.7836 21.3419 14.4737C21.7009 14.2398 22.6581 14.0058 23.1367 14.0058C26.2479 14.0058 29 15.9942 29 19.5029ZM13.2051 19.5029C13.2051 22.7778 10.453 25 7.34188 25C4.11111 25 1 22.6608 1 17.5146C1 11.5497 5.06838 6.75439 7.46154 5L10.6923 6.75439C8.29915 8.62573 6.02564 11.7836 5.54701 14.4737C5.90598 14.2398 6.86325 14.0058 7.34188 14.0058C10.453 14.0058 13.2051 15.9942 13.2051 19.5029Z" fill="#B1B7BD"/>
</svg>