<svg width="42" height="18" viewBox="0 0 42 18" fill="none" xmlns="http://www.w3.org/2000/svg">
<mask id="mask0_301_10785" style="mask-type:alpha" maskUnits="userSpaceOnUse" x="0" y="0" width="18" height="18">
<rect width="18" height="18" fill="#D9D9D9"/>
</mask>
<g mask="url(#mask0_301_10785)">
<path d="M11.1214 8.99998L5.47185 3.35046C5.32281 3.20142 5.25021 3.02402 5.25405 2.81826C5.2579 2.61248 5.33434 2.43508 5.48338 2.28606C5.63242 2.13702 5.80982 2.0625 6.01558 2.0625C6.22134 2.0625 6.39874 2.13702 6.54778 2.28606L12.2896 8.03942C12.4252 8.17499 12.5257 8.32691 12.5911 8.49518C12.6564 8.66345 12.6891 8.83172 12.6891 8.99998C12.6891 9.16824 12.6564 9.33651 12.5911 9.50479C12.5257 9.67305 12.4252 9.82497 12.2896 9.96054L6.53625 15.7139C6.38721 15.8629 6.21173 15.9355 6.00981 15.9317C5.80789 15.9279 5.63242 15.8514 5.48338 15.7024C5.33434 15.5533 5.25983 15.3759 5.25983 15.1702C5.25983 14.9644 5.33434 14.787 5.48338 14.638L11.1214 8.99998Z" fill="#09101D"/>
</g>
<mask id="mask1_301_10785" style="mask-type:alpha" maskUnits="userSpaceOnUse" x="12" y="0" width="18" height="18">
<rect x="12" width="18" height="18" fill="#D9D9D9"/>
</mask>
<g mask="url(#mask1_301_10785)">
<path d="M23.1214 8.99998L17.4719 3.35046C17.3228 3.20142 17.2502 3.02402 17.2541 2.81826C17.2579 2.61248 17.3343 2.43508 17.4834 2.28606C17.6324 2.13702 17.8098 2.0625 18.0156 2.0625C18.2213 2.0625 18.3987 2.13702 18.5478 2.28606L24.2896 8.03942C24.4252 8.17499 24.5257 8.32691 24.5911 8.49518C24.6564 8.66345 24.6891 8.83172 24.6891 8.99998C24.6891 9.16824 24.6564 9.33651 24.5911 9.50479C24.5257 9.67305 24.4252 9.82497 24.2896 9.96054L18.5363 15.7139C18.3872 15.8629 18.2117 15.9355 18.0098 15.9317C17.8079 15.9279 17.6324 15.8514 17.4834 15.7024C17.3343 15.5533 17.2598 15.3759 17.2598 15.1702C17.2598 14.9644 17.3343 14.787 17.4834 14.638L23.1214 8.99998Z" fill="#09101D"/>
</g>
<mask id="mask2_301_10785" style="mask-type:alpha" maskUnits="userSpaceOnUse" x="24" y="0" width="18" height="18">
<rect x="24" width="18" height="18" fill="#D9D9D9"/>
</mask>
<g mask="url(#mask2_301_10785)">
<path d="M35.1214 8.99998L29.4719 3.35046C29.3228 3.20142 29.2502 3.02402 29.2541 2.81826C29.2579 2.61248 29.3343 2.43508 29.4834 2.28606C29.6324 2.13702 29.8098 2.0625 30.0156 2.0625C30.2213 2.0625 30.3987 2.13702 30.5478 2.28606L36.2896 8.03942C36.4252 8.17499 36.5257 8.32691 36.5911 8.49518C36.6564 8.66345 36.6891 8.83172 36.6891 8.99998C36.6891 9.16824 36.6564 9.33651 36.5911 9.50479C36.5257 9.67305 36.4252 9.82497 36.2896 9.96054L30.5363 15.7139C30.3872 15.8629 30.2117 15.9355 30.0098 15.9317C29.8079 15.9279 29.6324 15.8514 29.4834 15.7024C29.3343 15.5533 29.2598 15.3759 29.2598 15.1702C29.2598 14.9644 29.3343 14.787 29.4834 14.638L35.1214 8.99998Z" fill="#09101D"/>
</g>
</svg>
