<svg width="216" height="14" viewBox="0 0 216 14" fill="none" xmlns="http://www.w3.org/2000/svg">
<path d="M215 13.3569V13.8569C215.276 13.8569 215.5 13.6331 215.5 13.3569H215ZM4 13.3569H3.5C3.5 13.6331 3.72386 13.8569 4 13.8569V13.3569ZM4.35355 1.00338C4.15829 0.808118 3.84171 0.808118 3.64645 1.00338L0.464466 4.18536C0.269204 4.38062 0.269204 4.69721 0.464466 4.89247C0.659728 5.08773 0.976311 5.08773 1.17157 4.89247L4 2.06404L6.82843 4.89247C7.02369 5.08773 7.34027 5.08773 7.53553 4.89247C7.7308 4.69721 7.7308 4.38062 7.53553 4.18536L4.35355 1.00338ZM214.5 1.35693V13.3569H215.5V1.35693H214.5ZM215 12.8569H4V13.8569H215V12.8569ZM4.5 13.3569V1.35693H3.5V13.3569H4.5Z" fill="#798087"/>
</svg>
