<svg width="95" height="24" viewBox="0 0 95 24" fill="none" xmlns="http://www.w3.org/2000/svg">
<mask id="mask0_304_46067" style="mask-type:alpha" maskUnits="userSpaceOnUse" x="0" y="5" width="14" height="14">
<rect y="5" width="14" height="14" fill="#D9D9D9"/>
</mask>
<g mask="url(#mask0_304_46067)">
<path d="M5.57005 12.0004L9.85755 16.2879C10.0034 16.4338 10.0739 16.6039 10.069 16.7983C10.0641 16.9928 9.9888 17.1629 9.84297 17.3088C9.69714 17.4546 9.527 17.5275 9.33255 17.5275C9.13811 17.5275 8.96797 17.4546 8.82214 17.3088L4.33047 12.8317C4.2138 12.715 4.1263 12.5838 4.06797 12.4379C4.00964 12.2921 3.98047 12.1463 3.98047 12.0004C3.98047 11.8546 4.00964 11.7088 4.06797 11.5629C4.1263 11.4171 4.2138 11.2858 4.33047 11.1692L8.82214 6.67751C8.96797 6.53168 9.14054 6.46119 9.33984 6.46606C9.53915 6.47092 9.71172 6.54626 9.85755 6.6921C10.0034 6.83793 10.0763 7.00807 10.0763 7.20251C10.0763 7.39696 10.0034 7.5671 9.85755 7.71293L5.57005 12.0004Z" fill="#B1B7BD"/>
</g>
<path d="M30.8203 17V15.7148L34.3203 12.3379C35.3184 11.3398 35.8379 10.752 35.8379 9.91797C35.8379 8.99512 35.1064 8.41406 34.1426 8.41406C33.124 8.41406 32.4678 9.0498 32.4746 10.0547H30.7793C30.7725 8.18164 32.1807 6.96484 34.1562 6.96484C36.1797 6.96484 37.54 8.1748 37.5469 9.83594C37.54 10.9502 37.0068 11.8525 35.0586 13.6914L33.2949 15.4414V15.5098H37.6973V17H30.8203ZM42.9062 17.1367C40.5205 17.1367 39.0986 15.291 39.1055 12.0508C39.0986 8.82422 40.5342 6.96484 42.9062 6.96484C45.2783 6.96484 46.707 8.82422 46.707 12.0508C46.707 15.2979 45.2852 17.1367 42.9062 17.1367ZM40.8965 12.0508C40.8965 14.4297 41.6621 15.6396 42.9062 15.6465C44.1436 15.6396 44.916 14.4297 44.916 12.0508C44.9092 9.69238 44.1436 8.44824 42.9062 8.44141C41.6689 8.44824 40.9033 9.69238 40.8965 12.0508ZM48.1973 17V15.7148L51.6973 12.3379C52.6953 11.3398 53.2148 10.752 53.2148 9.91797C53.2148 8.99512 52.4834 8.41406 51.5195 8.41406C50.501 8.41406 49.8447 9.0498 49.8516 10.0547H48.1562C48.1494 8.18164 49.5576 6.96484 51.5332 6.96484C53.5566 6.96484 54.917 8.1748 54.9238 9.83594C54.917 10.9502 54.3838 11.8525 52.4355 13.6914L50.6719 15.4414V15.5098H55.0742V17H48.1973ZM56.2363 15.1543V13.7324L60.5156 7.10156H62.7305V13.6914H64.0293V15.1543H62.7305V17H61.0352V15.1543H56.2363ZM58.0547 13.6914H61.0625V9.125H60.9531L58.0547 13.623V13.6914Z" fill="#B1B7BD"/>
<mask id="mask1_304_46067" style="mask-type:alpha" maskUnits="userSpaceOnUse" x="81" y="5" width="14" height="14">
<rect x="81" y="5" width="14" height="14" fill="#D9D9D9"/>
</mask>
<g mask="url(#mask1_304_46067)">
<path d="M89.4445 11.9997L85.157 7.71217C85.0112 7.56634 84.9407 7.39377 84.9455 7.19447C84.9504 6.99516 85.0258 6.82259 85.1716 6.67676C85.3174 6.53092 85.49 6.45801 85.6893 6.45801C85.8886 6.45801 86.0612 6.53092 86.207 6.67676L90.6841 11.1684C90.8008 11.2851 90.8883 11.4163 90.9466 11.5622C91.0049 11.708 91.0341 11.8538 91.0341 11.9997C91.0341 12.1455 91.0049 12.2913 90.9466 12.4372C90.8883 12.583 90.8008 12.7143 90.6841 12.8309L86.1924 17.3226C86.0466 17.4684 85.8765 17.5389 85.682 17.534C85.4876 17.5292 85.3174 17.4538 85.1716 17.308C85.0258 17.1622 84.9528 16.9896 84.9528 16.7903C84.9528 16.591 85.0258 16.4184 85.1716 16.2726L89.4445 11.9997Z" fill="#B1B7BD"/>
</g>
</svg>
