<svg width="121" height="109" viewBox="0 0 121 109" fill="none" xmlns="http://www.w3.org/2000/svg">
<path d="M1.88 107V92.72C27.92 69.06 45.42 50.16 45.42 35.04C45.42 25.52 40.24 20.34 31.84 20.34C24.7 20.34 19.24 25.1 14.2 30.42L0.62 16.98C10.84 6.06 20.36 0.879998 35.2 0.879998C55.36 0.879998 69.36 13.76 69.36 33.64C69.36 51.56 53.96 71.3 38 87.4C43.18 86.7 50.32 86 55.08 86H74.12V107H1.88ZM105.953 108.96C97.2725 108.96 91.1125 102.1 91.1125 93.42C91.1125 84.74 97.2725 78.02 105.953 78.02C114.493 78.02 120.793 84.74 120.793 93.42C120.793 102.1 114.493 108.96 105.953 108.96Z" fill="#FCEBDB"/>
</svg>
