<svg width="122" height="109" viewBox="0 0 122 109" fill="none" xmlns="http://www.w3.org/2000/svg">
<path d="M36.06 108.96C19.54 108.96 7.92 103.22 0.36 94.4L11.84 78.72C18.14 84.6 25.42 88.8 33.54 88.8C43.2 88.8 49.5 84.74 49.5 76.9C49.5 67.94 44.74 62.62 22.9 62.62V44.98C40.68 44.98 46.28 39.66 46.28 31.4C46.28 24.26 42.08 20.34 34.38 20.34C27.38 20.34 22.06 23.42 15.76 29.02L3.16 13.76C12.82 5.63999 23.18 0.879998 35.5 0.879998C57.06 0.879998 71.2 10.96 71.2 29.58C71.2 39.94 65.6 48.06 54.54 52.54V53.24C66.02 56.74 74.56 65.14 74.56 78.58C74.56 98.04 56.78 108.96 36.06 108.96ZM106.953 108.96C98.2725 108.96 92.1125 102.1 92.1125 93.42C92.1125 84.74 98.2725 78.02 106.953 78.02C115.493 78.02 121.793 84.74 121.793 93.42C121.793 102.1 115.493 108.96 106.953 108.96Z" fill="#FCEBDB"/>
</svg>
