<svg width="122" height="107" viewBox="0 0 122 107" fill="none" xmlns="http://www.w3.org/2000/svg">
<path d="M36.9 106.96C20.24 106.96 8.76 100.66 0.5 92.54L11.84 76.86C17.72 82.46 25 86.8 33.26 86.8C43.34 86.8 49.64 81.34 49.64 70.56C49.64 60.06 43.34 54.46 34.38 54.46C28.64 54.46 25.84 55.58 19.68 59.5L8.76 52.36L11.42 0.699991H69.94V21.56H32.84L31.3 39.2C35.08 37.66 38.16 37.1 42.08 37.1C59.72 37.1 74.56 47.46 74.56 70C74.56 93.38 56.92 106.96 36.9 106.96ZM106.953 106.96C98.2725 106.96 92.1125 100.1 92.1125 91.42C92.1125 82.74 98.2725 76.02 106.953 76.02C115.493 76.02 121.793 82.74 121.793 91.42C121.793 100.1 115.493 106.96 106.953 106.96Z" fill="#FCEBDB"/>
</svg>
