<svg width="20" height="20" viewBox="0 0 20 20" fill="none" xmlns="http://www.w3.org/2000/svg">
<g id="Outline/arrow-right 1">
<path id="Union" fill-rule="evenodd" clip-rule="evenodd" d="M13.0893 4.41076C12.7639 4.08533 12.2363 4.08533 11.9108 4.41076C11.5854 4.7362 11.5854 5.26384 11.9108 5.58928L15.4882 9.16669H2.50008C2.03984 9.16669 1.66675 9.53978 1.66675 10C1.66675 10.4603 2.03984 10.8334 2.50008 10.8334H15.4882L11.9108 14.4108C11.5854 14.7362 11.5854 15.2638 11.9108 15.5893C12.2363 15.9147 12.7639 15.9147 13.0893 15.5893L18.0893 10.5893C18.1741 10.5045 18.2368 10.406 18.2774 10.301C18.3079 10.2221 18.3268 10.1375 18.332 10.0491C18.3339 10.0164 18.3339 9.98363 18.332 9.95094C18.3268 9.86259 18.3079 9.77792 18.2774 9.69907C18.2368 9.59402 18.1741 9.49553 18.0893 9.41076L13.0893 4.41076Z" fill="#212121"/>
</g>
</svg>
