<svg width="64" height="64" viewBox="0 0 64 64" fill="none" xmlns="http://www.w3.org/2000/svg">
<path d="M31.3104 7.16156L9.44829 17.9702C9.17423 18.1056 9 18.39 9 18.7016V45.2981C9 45.6097 9.17423 45.894 9.44829 46.0295L31.3104 56.8384C31.7461 57.0539 32.2539 57.0539 32.6896 56.8384L54.5517 46.0296C54.8258 45.8942 55 45.6098 55 45.2982V18.7017C55 18.3901 54.8258 18.1058 54.5517 17.9703L32.6896 7.16156C32.2539 6.94615 31.7461 6.94615 31.3104 7.16156Z" fill="#FF9A00"/>
<path d="M9.13188 19C9.04848 19.1275 9 19.2776 9 19.4361V45.5224C9 45.8282 9.17423 46.1069 9.44829 46.2399L31.3104 56.8415C31.5283 56.9471 31.7641 57 32 57V30.0894L9.13188 19Z" fill="#FF9A00"/>
<path d="M54.8681 19C54.9515 19.1275 55 19.2776 55 19.4361V45.5224C55 45.8282 54.8258 46.1069 54.5517 46.2399L32.6896 56.8415C32.4717 56.9471 32.2359 57 32 57V30.0894L54.8681 19Z" fill="#BC6640"/>
<path d="M47 22.058L24.8411 11L19 13.9247L41.2085 25L47 22.058Z" fill="#FFCE62"/>
<path d="M13 40.6923L17.4444 43M13 37L21 40.6923" stroke="#212121" stroke-width="2.2" stroke-linecap="round" stroke-linejoin="round"/>
<path d="M42 24.2091V33.568C42 33.8861 42.2548 34.0949 42.4743 33.9565L46.6263 31.3405C46.8548 31.1966 47 30.8945 47 30.5634V21L42 24.2091Z" fill="#FFCE62"/>
<path d="M31.3104 7.16156L9.44829 17.9702C9.17423 18.1056 9 18.39 9 18.7016V45.2981C9 45.6097 9.17423 45.894 9.44829 46.0295L31.3104 56.8384C31.7461 57.0539 32.2539 57.0539 32.6896 56.8384L54.5517 46.0296C54.8258 45.8942 55 45.6098 55 45.2982C55 34.9116 55 29.0883 55 18.7017C55 18.3901 54.8258 18.1058 54.5517 17.9703L32.6896 7.16156C32.2539 6.94615 31.7461 6.94615 31.3104 7.16156Z" stroke="#212121" stroke-width="2.2" stroke-linejoin="round"/>
<path d="M26.7246 26.2577C26.1765 25.9955 25.5198 26.2273 25.2577 26.7754C24.9955 27.3235 25.2273 27.9802 25.7754 28.2423L26.7246 26.2577ZM21.4629 26.1798C22.011 26.442 22.6677 26.2102 22.9298 25.6621C23.192 25.114 22.9602 24.4573 22.4121 24.1952L21.4629 26.1798ZM8.5254 19.9923L20.0254 25.4923L20.9746 23.5077L9.4746 18.0077L8.5254 19.9923ZM25.7754 28.2423C26.8982 28.7793 28.3357 29.4668 29.4925 30.0201C30.0709 30.2967 30.5791 30.5398 30.9427 30.7137C31.1245 30.8006 31.2702 30.8703 31.3704 30.9182C31.4205 30.9422 31.4593 30.9607 31.4855 30.9733C31.4986 30.9795 31.5086 30.9843 31.5153 30.9875C31.5186 30.9891 31.5212 30.9904 31.5229 30.9911C31.5238 30.9916 31.5242 30.9918 31.5248 30.992C31.5249 30.9921 31.525 30.9921 31.525 30.9922C31.5251 30.9922 31.5252 30.9922 31.5252 30.9923C31.5253 30.9923 31.5253 30.9923 31.5254 30.9923C31.5254 30.9923 31.5254 30.9923 32 30C32.4746 29.0077 32.4746 29.0076 32.4746 29.0076C32.4745 29.0076 32.4745 29.0076 32.4744 29.0076C32.4742 29.0074 32.4743 29.0075 32.474 29.0073C32.4737 29.0072 32.4728 29.0068 32.4721 29.0064C32.4704 29.0056 32.4678 29.0044 32.4645 29.0028C32.4577 28.9996 32.4478 28.9949 32.4347 28.9886C32.4085 28.976 32.3697 28.9575 32.3196 28.9335C32.2194 28.8856 32.0738 28.8159 31.8919 28.729C31.5283 28.5551 31.0201 28.312 30.4417 28.0354C29.2849 27.4821 27.8474 26.7946 26.7246 26.2577L25.7754 28.2423ZM20.0254 25.4923L21.4629 26.1798L22.4121 24.1952L20.9746 23.5077L20.0254 25.4923Z" fill="#212121"/>
<path d="M32 30V56" stroke="#212121" stroke-width="2.2" stroke-linejoin="round"/>
<path d="M55 19L32 30" stroke="#212121" stroke-width="2.2" stroke-linejoin="round"/>
</svg>
