<svg width="64" height="64" viewBox="0 0 64 64" fill="none" xmlns="http://www.w3.org/2000/svg">
<g clip-path="url(#clip0_4848_1166)">
<path d="M2.13283 31.0566H17.0666C17.6555 31.0566 18.133 31.5342 18.133 32.1235V40.6569C18.133 41.2462 17.6555 41.7238 17.0666 41.7238H2.13283C1.54395 41.7238 1.06641 41.2462 1.06641 40.6569V32.1235C1.06641 31.5342 1.54395 31.0566 2.13283 31.0566Z" fill="#E8834D"/>
<path d="M26.7408 31.0566H19.1997C18.6104 31.0566 18.1328 31.5342 18.1328 32.1235V40.6569C18.1328 41.2462 18.6104 41.7238 19.1997 41.7238H34.133C34.7224 41.7238 35.1999 41.2462 35.1999 40.6569V33.585L26.7408 31.0566Z" fill="#91562D"/>
<path d="M52.2658 32.1235V40.6569C52.2644 41.2452 51.7878 41.7218 51.1994 41.7238H36.2656C35.6773 41.7218 35.2007 41.2452 35.1992 40.6569V33.585L47.071 31.0566H51.1994C51.7878 31.0586 52.2644 31.5352 52.2658 32.1235Z" fill="#BC6640"/>
<path d="M49.0661 32.1235V40.6569C49.0641 41.2452 48.5876 41.7218 47.9992 41.7238H36.2656C35.6773 41.7218 35.2007 41.2452 35.1992 40.6569V33.585L47.071 31.0566H47.9992C48.5876 31.0586 49.0641 31.5352 49.0661 32.1235Z" fill="#E8834D"/>
<path d="M10.668 41.7236H25.6018C26.1906 41.7236 26.6682 42.2012 26.6682 42.7901V51.3234C26.6682 51.9127 26.1906 52.3903 25.6018 52.3903H10.668C10.0791 52.3903 9.60156 51.9127 9.60156 51.3234V42.7901C9.60156 42.2012 10.0791 41.7236 10.668 41.7236Z" fill="#E8834D"/>
<path d="M27.7329 41.7236H42.6662C43.2556 41.7236 43.7331 42.2012 43.7331 42.7901V51.3234C43.7331 51.9127 43.2556 52.3903 42.6662 52.3903H27.7329C27.1436 52.3903 26.666 51.9127 26.666 51.3234V42.7901C26.666 42.2012 27.1436 41.7236 27.7329 41.7236Z" fill="#825A2C"/>
<path d="M44.8008 41.7236H59.7346C60.3235 41.7236 60.801 42.2012 60.801 42.7901V51.3234C60.801 51.9127 60.3235 52.3903 59.7346 52.3903H44.8008C44.2119 52.3903 43.7344 51.9127 43.7344 51.3234V42.7901C43.7344 42.2012 44.2119 41.7236 44.8008 41.7236Z" fill="#BC6640"/>
<path d="M44.8008 41.7236H56.5343C57.1237 41.7236 57.6013 42.2012 57.6013 42.7901V51.3234C57.6013 51.9127 57.1237 52.3903 56.5343 52.3903H44.8008C44.2119 52.3903 43.7344 51.9127 43.7344 51.3234V42.7901C43.7344 42.2012 44.2119 41.7236 44.8008 41.7236Z" fill="#E8834D"/>
<path d="M2.13283 52.3896H17.0666C17.6555 52.3896 18.133 52.8672 18.133 53.4561V61.9899C18.133 62.5787 17.6555 63.0563 17.0666 63.0563H2.13283C1.54395 63.0563 1.06641 62.5787 1.06641 61.9899V53.4561C1.06641 52.8672 1.54395 52.3896 2.13283 52.3896Z" fill="#E8834D"/>
<path d="M19.1997 52.3896H34.133C34.7224 52.3896 35.1999 52.8672 35.1999 53.4561V61.9899C35.1999 62.5787 34.7224 63.0563 34.133 63.0563H19.1997C18.6104 63.0563 18.1328 62.5787 18.1328 61.9899V53.4561C18.1328 52.8672 18.6104 52.3896 19.1997 52.3896Z" fill="#91562D"/>
<path d="M36.2656 52.3896H51.1994C51.7883 52.3896 52.2658 52.8672 52.2658 53.4561V61.9899C52.2658 62.5787 51.7883 63.0563 51.1994 63.0563H36.2656C35.6768 63.0563 35.1992 62.5787 35.1992 61.9899V53.4561C35.1992 52.8672 35.6768 52.3896 36.2656 52.3896Z" fill="#BC6640"/>
<path d="M36.2656 52.3896H47.9992C48.5881 52.3896 49.0661 52.8672 49.0661 53.4561V61.9899C49.0661 62.5787 48.5881 63.0563 47.9992 63.0563H36.2656C35.6768 63.0563 35.1992 62.5787 35.1992 61.9899V53.4561C35.1992 52.8672 35.6768 52.3896 36.2656 52.3896Z" fill="#E8834D"/>
<path d="M18.1335 42.7892H1.06691C0.477545 42.7892 0 42.3117 0 41.7228V31.0557C0 30.4668 0.477545 29.9893 1.06691 29.9893H18.1335C18.7229 29.9893 19.2004 30.4668 19.2004 31.0557V41.7228C19.2004 42.3117 18.7229 42.7892 18.1335 42.7892ZM2.13333 40.6559H17.0671V32.1226H2.13333V40.6559Z" fill="black"/>
<path d="M35.1999 42.7892H18.1328C17.544 42.7892 17.0664 42.3117 17.0664 41.7228V31.0557C17.0664 30.4668 17.544 29.9893 18.1328 29.9893H26.7408C27.3302 29.9893 27.8078 30.4668 27.8078 31.0557C27.8078 31.645 27.3302 32.1226 26.7408 32.1226H19.1997V40.6559H34.133V33.584C34.133 32.9947 34.6106 32.5171 35.1999 32.5171C35.7888 32.5171 36.2664 32.9947 36.2664 33.584V41.7228C36.2664 42.3117 35.7888 42.7892 35.1999 42.7892Z" fill="black"/>
<path d="M52.2663 42.7892H35.1997C34.6104 42.7892 34.1328 42.3117 34.1328 41.7228V33.584C34.1328 32.9947 34.6104 32.5171 35.1997 32.5171C35.7886 32.5171 36.2661 32.9947 36.2661 33.584V40.6559H51.1999V32.1226H47.0715C46.4826 32.1226 46.005 31.645 46.005 31.0557C46.005 30.4668 46.4826 29.9893 47.0715 29.9893H52.2663C52.8557 29.9893 53.3333 30.4668 53.3333 31.0557V41.7228C53.3333 42.3117 52.8557 42.7892 52.2663 42.7892Z" fill="black"/>
<path d="M26.6667 53.4562H9.60011C9.01075 53.4562 8.5332 52.9787 8.5332 52.3898V41.7232C8.5332 41.1338 9.01075 40.6562 9.60011 40.6562H26.6667C27.2561 40.6562 27.7336 41.1338 27.7336 41.7232V52.3898C27.7336 52.9787 27.2561 53.4562 26.6667 53.4562ZM10.6665 51.3229H25.6003V42.7896H10.6665V51.3229Z" fill="black"/>
<path d="M43.7331 53.4562H26.666C26.0772 53.4562 25.5996 52.9787 25.5996 52.3898V41.7232C25.5996 41.1338 26.0772 40.6562 26.666 40.6562H43.7331C44.322 40.6562 44.7996 41.1338 44.7996 41.7232V52.3898C44.7996 52.9787 44.322 53.4562 43.7331 53.4562ZM27.7329 51.3229H42.6662V42.7896H27.7329V51.3229Z" fill="black"/>
<path d="M60.8015 53.4562H43.7349C43.1455 53.4562 42.668 52.9787 42.668 52.3898V41.7232C42.668 41.1338 43.1455 40.6562 43.7349 40.6562H60.8015C61.3909 40.6562 61.8684 41.1338 61.8684 41.7232V52.3898C61.8684 52.9787 61.3909 53.4562 60.8015 53.4562ZM44.8013 51.3229H59.7351V42.7896H44.8013V51.3229Z" fill="black"/>
<path d="M18.1335 64.1237H1.06691C0.477545 64.1237 0 63.6462 0 63.0568V52.3902C0 51.8008 0.477545 51.3232 1.06691 51.3232H18.1335C18.7229 51.3232 19.2004 51.8008 19.2004 52.3902V63.0568C19.2004 63.6462 18.7229 64.1237 18.1335 64.1237ZM2.13333 61.9904H17.0671V53.4566H2.13333V61.9904Z" fill="black"/>
<path d="M35.1999 64.1237H18.1328C17.544 64.1237 17.0664 63.6462 17.0664 63.0568V52.3902C17.0664 51.8008 17.544 51.3232 18.1328 51.3232H35.1999C35.7888 51.3232 36.2664 51.8008 36.2664 52.3902V63.0568C36.2664 63.6462 35.7888 64.1237 35.1999 64.1237ZM19.1997 61.9904H34.133V53.4566H19.1997V61.9904Z" fill="black"/>
<path d="M52.2663 64.1237H35.1997C34.6104 64.1237 34.1328 63.6462 34.1328 63.0568V52.3902C34.1328 51.8008 34.6104 51.3232 35.1997 51.3232H52.2663C52.8557 51.3232 53.3333 51.8008 53.3333 52.3902V63.0568C53.3333 63.6462 52.8557 64.1237 52.2663 64.1237ZM36.2661 61.9904H51.1999V53.4566H36.2661V61.9904Z" fill="black"/>
<path d="M48.8662 32.9352L45.7669 34.6541L29.9496 43.4372C29.4655 43.6907 28.8793 43.6476 28.4378 43.3263C27.996 43.0045 27.7751 42.4599 27.8677 41.9219L31.6455 22.8593L32.0765 20.6968C32.1795 20.243 32.5071 19.8735 32.9448 19.717C33.383 19.5603 33.8705 19.6382 34.2381 19.9229L48.9459 30.6459C49.3295 30.9079 49.5522 31.3483 49.5362 31.8128C49.52 32.2769 49.2673 32.7005 48.8662 32.9352Z" fill="#545C60"/>
<path d="M45.7675 34.6544L29.9502 43.4375C29.4661 43.691 28.8799 43.6479 28.4384 43.3266C27.9966 43.0049 27.7757 42.4602 27.8683 41.9222L31.6461 22.8597L45.3597 32.8495C45.9434 33.2544 46.1206 34.0382 45.7675 34.6544Z" fill="#7F8E94"/>
<path d="M44.6502 9.93889L50.5035 1.91066C51.1976 0.958626 52.5322 0.749492 53.4843 1.4435L54.282 2.02545C55.234 2.71945 55.4431 4.05415 54.7491 5.00618L48.8958 13.0344C48.5488 13.5104 47.8816 13.6147 47.4056 13.2677L44.8835 11.4291C44.4075 11.0821 44.3032 10.4149 44.6502 9.93889Z" fill="#FF9801"/>
<path d="M29.9887 44.5737C29.1539 44.8177 28.2521 44.6113 27.6064 44.0287C26.9607 43.4462 26.6633 42.5701 26.8202 41.7151L31.0319 20.4928C31.1887 19.6976 31.7419 19.0379 32.4973 18.7448C33.2892 18.4374 34.1828 18.5574 34.8652 19.0628L49.5696 29.7833C50.259 30.2784 50.6464 31.0928 50.5965 31.9404C50.5487 32.7497 50.0896 33.4781 49.3803 33.87L30.4638 44.371C30.3129 44.455 30.1535 44.5232 29.9887 44.5737ZM33.2953 20.7249L33.275 20.7321C33.1962 20.7583 33.139 20.8264 33.1258 20.9085L28.9135 42.1305C28.8925 42.2621 28.9512 42.3937 29.0625 42.4669C29.1668 42.5488 29.3094 42.5644 29.4288 42.5058L48.3453 32.0049C48.4191 31.9675 48.4659 31.8919 48.4676 31.8091C48.4724 31.6882 48.4139 31.5738 48.3133 31.5071L33.6095 20.787C33.5207 20.7171 33.4039 20.6942 33.2954 20.7253L33.2953 20.7249Z" fill="black"/>
<path d="M38.0333 31.6112C37.5946 31.7461 37.1184 31.5851 36.8517 31.2112C36.5849 30.8369 36.5878 30.3345 36.858 29.9632L42.9947 21.5464C43.3023 21.1248 43.3787 20.5775 43.1976 20.088L42.5333 18.2825C42.1053 17.1236 42.2859 15.8274 43.0145 14.83L45.2816 11.7211C45.6286 11.2451 46.2958 11.1408 46.7718 11.4878C47.2478 11.8348 47.3527 12.5023 47.0052 12.9785L44.7383 16.0879C44.4307 16.5094 44.3543 17.0568 44.5354 17.5462L45.1997 19.3517C45.6282 20.5105 45.447 21.8064 44.7184 22.8038L38.5818 31.2211C38.4463 31.4071 38.2539 31.5442 38.0333 31.6112Z" fill="black"/>
<path d="M48.579 14.9173C48.5304 14.9322 48.4813 14.9436 48.4311 14.9513C48.1518 14.995 47.8667 14.9261 47.6384 14.7591L43.3929 11.664C42.9169 11.317 42.8126 10.6498 43.1596 10.1738L49.6403 1.28442C50.6822 -0.142373 52.6824 -0.456274 54.1108 0.582583L54.9094 1.16579C56.3364 2.20662 56.65 4.20742 55.6099 5.63518L49.1286 14.5258C48.9927 14.7124 48.7993 14.8498 48.579 14.9173ZM45.511 10.5679L48.0328 12.4071L53.8861 4.37886C54.2326 3.90299 54.1285 3.23627 53.653 2.88912L52.8544 2.30592C52.3785 1.95938 51.711 2.06426 51.3644 2.54013L45.511 10.5679Z" fill="black"/>
<path d="M4.26666 36.3902H1.06691C0.477545 36.3902 0 35.9126 0 35.3233C0 34.7344 0.477545 34.2568 1.06691 34.2568H4.26666C4.85602 34.2568 5.33356 34.7344 5.33356 35.3233C5.33356 35.9126 4.85602 36.3902 4.26666 36.3902Z" fill="black"/>
<path d="M12.7999 36.3902H8.53322C7.94434 36.3902 7.4668 35.9126 7.4668 35.3233C7.4668 34.7344 7.94434 34.2568 8.53322 34.2568H12.7999C13.3892 34.2568 13.8668 34.7344 13.8668 35.3233C13.8668 35.9126 13.3892 36.3902 12.7999 36.3902Z" fill="black"/>
</g>
<defs>
<clipPath id="clip0_4848_1166">
<rect width="64" height="64" fill="white"/>
</clipPath>
</defs>
</svg>
