<svg width="56" height="56" viewBox="0 0 56 56" fill="none" xmlns="http://www.w3.org/2000/svg">
<path fill-rule="evenodd" clip-rule="evenodd" d="M10.8626 30.9011C4.5495 40.7975 11.6578 53.7633 23.3964 53.7633H32.6057C44.3442 53.7633 51.4525 40.7975 45.1394 30.9011L37.3244 18.6502C38.4494 18.1235 39.2286 16.9813 39.2286 15.657C39.2286 14.2223 38.3139 13.0012 37.0358 12.5451L39.413 4.23415C39.5004 3.92855 39.4152 3.59957 39.1904 3.37481C37.686 1.87037 35.2488 1.86718 33.7405 3.36536L33.7309 3.37484C32.9068 4.19898 31.5705 4.19902 30.7463 3.37481L30.7389 3.36742C29.2351 1.86361 26.7981 1.8593 25.289 3.35793L25.2593 3.38747C24.4342 4.20668 23.1021 4.20428 22.28 3.38219L22.2757 3.37798L22.2702 3.37257C20.7625 1.86717 18.3199 1.86797 16.813 3.37481C16.5881 3.59972 16.503 3.92896 16.5907 4.23471L18.9728 12.5423C17.6906 12.9962 16.7721 14.2193 16.7721 15.657C16.7721 16.9816 17.5518 18.1241 18.6772 18.6506L10.8626 30.9011ZM35.9369 17.2101L35.9267 17.21L35.911 17.2101H32.553C32.0698 17.2101 31.678 17.6019 31.678 18.0851C31.678 18.5684 32.0698 18.9601 32.553 18.9601H35.4464L43.664 31.8422C49.234 40.5737 42.9625 52.0133 32.6057 52.0133H23.3964C13.0395 52.0133 6.76801 40.5737 12.338 31.8422L20.5555 18.9601H23.4477C23.9309 18.9601 24.3227 18.5684 24.3227 18.0851C24.3227 17.6019 23.9309 17.2101 23.4477 17.2101H20.091C20.0868 17.2101 20.0826 17.21 20.0784 17.21C20.0738 17.21 20.0692 17.2101 20.0647 17.2101C19.2117 17.2045 18.5221 16.5113 18.5221 15.657C18.5221 14.7992 19.2174 14.1039 20.0752 14.1039H20.0799H35.9255C36.7833 14.1039 37.4786 14.7992 37.4786 15.657C37.4786 16.511 36.7894 17.204 35.9369 17.2101ZM35.2703 12.3539H20.7393L18.4325 4.30919C19.2464 3.8049 20.3288 3.90594 21.035 4.61222L21.0393 4.61647L21.0448 4.62191C22.5488 6.12347 24.9841 6.12694 26.4925 4.62912L26.5222 4.59962C27.3471 3.7804 28.6794 3.78273 29.5015 4.60486L29.5089 4.61224C31.0133 6.11668 33.4506 6.11988 34.9589 4.6217L34.9685 4.61222C35.6748 3.90584 36.7573 3.80488 37.5713 4.3094L35.2703 12.3539ZM28.1754 43.5249C28.6586 43.5249 29.0504 43.1331 29.0504 42.6499V41.5949C32.0896 41.3862 33.9861 39.4535 33.9861 37.0216C33.9861 34.5576 32.4853 33.46 30.5813 32.6312L29.0504 31.9605V26.2596C30.1122 26.331 31.0186 26.706 31.7935 27.2721C32.1626 27.5417 32.6885 27.5165 32.9804 27.1648C33.2349 26.8583 33.2239 26.4059 32.9193 26.1492C31.9176 25.3054 30.5679 24.7071 29.0488 24.6223C29.0216 24.1636 28.641 23.8 28.1754 23.8C27.6921 23.8 27.3004 24.1917 27.3004 24.675V24.7526C25.1003 25.2204 23.6149 26.813 23.6149 28.8904C23.6149 31.3096 25.4293 32.4296 26.9301 33.0792L27.3004 33.2434V39.8452C26.3151 39.6302 25.3886 39.1661 24.6095 38.5326C24.2221 38.2175 23.6422 38.2216 23.3129 38.597C23.0268 38.9232 23.032 39.4173 23.3583 39.7033C24.4276 40.6403 25.767 41.2988 27.3004 41.5262V42.6499C27.3004 43.1331 27.6921 43.5249 28.1754 43.5249ZM32.1045 37.156C32.1045 38.699 30.9708 39.7885 29.0504 39.9559V34.0193L29.3045 34.132L29.3253 34.1412C30.8834 34.8312 32.1045 35.3719 32.1045 37.156ZM25.4965 28.756C25.4965 27.6357 26.175 26.8062 27.3004 26.4458V31.1796C26.3442 30.6966 25.4965 30.0281 25.4965 28.756Z" fill="#212121"/>
</svg>
