<svg width="80" height="80" viewBox="0 0 80 80" fill="none" xmlns="http://www.w3.org/2000/svg">
<g clip-path="url(#clip0_5502_1731)">
<path d="M1.12928 28.0428C0.801152 25.8582 2.30615 23.8212 4.49079 23.493L66.8315 14.1297C69.0162 13.8016 71.0532 15.3066 71.3813 17.4912L75.8966 47.554C76.2247 49.7387 74.7197 51.7757 72.5351 52.1038L10.1943 61.4671C8.0097 61.7952 5.9727 60.2902 5.64458 58.1056L1.12928 28.0428Z" fill="#8DD1AC"/>
<path fill-rule="evenodd" clip-rule="evenodd" d="M-0.205854 28.2433C-0.644719 25.3213 1.36822 22.5969 4.29017 22.158L66.6309 12.7947C69.5529 12.3558 72.2774 14.3688 72.7162 17.2907L77.2315 47.3535C77.6704 50.2755 75.6574 52.9999 72.7355 53.4388L10.3947 62.8021C7.47279 63.241 4.74832 61.228 4.30945 58.3061L-0.205854 28.2433ZM4.6912 24.8281C3.24388 25.0454 2.24682 26.3949 2.4642 27.8423L6.9795 57.9051C7.19689 59.3524 8.54639 60.3494 9.99371 60.1321L72.3345 50.7687C73.7818 50.5514 74.7789 49.2019 74.5615 47.7545L70.0462 17.6917C69.8288 16.2444 68.4793 15.2474 67.032 15.4647L4.6912 24.8281Z" fill="black"/>
<path d="M66.2524 26.4377C66.2528 26.4376 66.2531 26.4379 66.2532 26.4383L68.3665 40.5087C68.4369 40.9773 68.1092 41.3805 67.6801 41.3758C67.4328 41.3734 67.1819 41.3963 66.93 41.4424C64.7888 41.8446 63.3028 44.0337 63.5456 46.4324C63.5782 46.7486 63.636 47.0544 63.72 47.3463C63.8498 47.8043 63.588 48.2701 63.1618 48.3341L18.0464 55.1102C17.6202 55.1743 17.2332 54.806 17.2227 54.33C17.2157 54.0265 17.1826 53.717 17.1209 53.4052C16.6483 51.041 14.5851 49.3867 12.42 49.6295C12.1654 49.6579 11.9191 49.7114 11.6834 49.7863C11.2743 49.9152 10.8429 49.6277 10.7725 49.1591L8.6591 35.088C8.58872 34.6194 8.91641 34.2162 9.34553 34.2209C9.59282 34.2233 9.84375 34.2004 10.0957 34.1543C12.2368 33.7521 13.7228 31.563 13.4801 29.1643C13.4474 28.8481 13.3896 28.5423 13.3056 28.2503C13.1758 27.7924 13.4376 27.3266 13.8638 27.2626L58.9777 20.4867C59.404 20.4226 59.791 20.791 59.8015 21.2669C59.8084 21.5704 59.8415 21.8799 59.9032 22.1917C60.3758 24.5559 62.4391 26.2102 64.6042 25.9674C64.8588 25.939 65.1051 25.8856 65.3408 25.8106C65.7707 25.6737 66.1772 25.9448 66.2515 26.4371C66.2516 26.4375 66.252 26.4377 66.2524 26.4377Z" fill="#BDF2D8"/>
<path fill-rule="evenodd" clip-rule="evenodd" d="M14.7474 28.495C14.7794 28.6706 14.8045 28.8477 14.8228 29.0258L14.8231 29.0283C15.1249 32.01 13.2829 34.9291 10.3448 35.4811L10.3384 35.4823C10.2558 35.4974 10.1727 35.5107 10.0893 35.5221L12.012 48.3232C12.097 48.3094 12.1828 48.2976 12.2694 48.2879C15.2387 47.9549 17.857 50.2009 18.4446 53.1405L18.4452 53.1431C18.4802 53.3201 18.5079 53.4968 18.5284 53.6727L62.278 47.1017C62.246 46.9261 62.221 46.749 62.2026 46.5709L62.2023 46.5683C61.9006 43.5866 63.7425 40.6676 66.6806 40.1156L66.687 40.1144C66.7696 40.0993 66.8527 40.086 66.9361 40.0746L65.0134 27.2734C64.9277 27.2874 64.8413 27.2993 64.7541 27.309M64.7541 27.309C61.7852 27.6414 59.1669 25.3957 58.5793 22.4563L58.5788 22.4538C58.5438 22.2768 58.5161 22.1001 58.4955 21.9242L14.7474 28.495M12.0066 28.6184C11.7001 27.5367 12.2774 26.1357 13.6632 25.9276L58.7771 19.1516C60.1625 18.9436 61.1257 20.1124 61.1511 21.2361C61.1562 21.462 61.1808 21.6936 61.2271 21.9281C61.5851 23.7161 63.093 24.7784 64.4536 24.6258L64.4546 24.6257C64.6187 24.6074 64.7782 24.5729 64.9317 24.5241C65.5288 24.3341 66.1709 24.4188 66.6896 24.7723C67.1723 25.1012 67.4664 25.6041 67.5702 26.1416C67.5772 26.1732 67.5832 26.2052 67.5881 26.2378L69.7014 40.3082C69.8774 41.4796 69.0423 42.7401 67.6664 42.7257L67.6652 42.7257L67.68 41.3758L67.6664 42.7257C67.5122 42.7243 67.3484 42.7384 67.176 42.7697L67.1791 42.7691L66.9299 41.4423L67.1727 42.7703L67.176 42.7697C65.8334 43.0239 64.7054 44.4816 64.8885 46.2954L64.8883 46.2939L63.5455 46.4324L64.8886 46.2965L64.8885 46.2954C64.9136 46.5376 64.9571 46.7638 65.0173 46.973L65.0188 46.9783C65.3253 48.0599 64.748 49.461 63.3622 49.6691L18.2468 56.4452C16.8614 56.6533 15.8982 55.4845 15.8729 54.3608L17.2213 54.3301L15.8729 54.3598L15.8729 54.3608C15.8678 54.1348 15.8431 53.9032 15.7968 53.6686L15.797 53.6698L17.1208 53.4052L15.7965 53.6673L15.7968 53.6686C15.4388 51.8807 13.9309 50.8185 12.5704 50.9711L12.5693 50.9712C12.4052 50.9895 12.2457 51.024 12.0922 51.0728L12.0891 51.0738C10.7853 51.4848 9.61423 50.5369 9.4374 49.3596L7.32397 35.2885C7.14803 34.1171 7.98319 32.8565 9.35913 32.8709C9.51329 32.8724 9.67709 32.8583 9.84941 32.8269L9.84629 32.8275L9.85271 32.8263L9.84941 32.8269C11.192 32.5728 12.3199 31.1152 12.1369 29.3015L12.1371 29.3028L12.1368 29.3002L12.1369 29.3015C12.1119 29.0592 12.0683 28.8329 12.0081 28.6237L12.0066 28.6184ZM66.0518 25.1026C66.3749 25.0541 66.6827 25.1232 66.9375 25.2743C66.6799 25.1225 66.3705 25.0548 66.0518 25.1026Z" fill="black"/>
<path d="M39.6286 47.3794C44.5441 46.6411 47.9304 42.0578 47.1921 37.1423C46.4538 32.2268 41.8705 28.8404 36.955 29.5787C32.0395 30.317 28.6532 34.9003 29.3915 39.8158C30.1298 44.7314 34.7131 48.1177 39.6286 47.3794Z" fill="#8DD1AC"/>
<path fill-rule="evenodd" clip-rule="evenodd" d="M61.0938 35.0537C61.3795 36.9559 60.0691 38.7296 58.1669 39.0153C56.2647 39.301 54.491 37.9905 54.2053 36.0883C53.9196 34.1861 55.23 32.4124 57.1323 32.1267C59.0345 31.841 60.8081 33.1515 61.0938 35.0537Z" fill="#8DD1AC"/>
<path fill-rule="evenodd" clip-rule="evenodd" d="M22.3756 40.8691C22.6613 42.7713 21.3508 44.545 19.4486 44.8307C17.5464 45.1164 15.7727 43.806 15.487 41.9037C15.2013 40.0015 16.5118 38.2279 18.414 37.9422C20.3162 37.6565 22.0899 38.9669 22.3756 40.8691Z" fill="#8DD1AC"/>
<path d="M8.00098 34.1331C8.00098 31.9239 9.79184 30.1331 12.001 30.1331H75.041C77.2501 30.1331 79.041 31.9239 79.041 34.1331V64.5331C79.041 66.7422 77.2501 68.5331 75.041 68.5331H12.001C9.79184 68.5331 8.00098 66.7422 8.00098 64.5331V34.1331Z" fill="#8DD1AC"/>
<path fill-rule="evenodd" clip-rule="evenodd" d="M6.65088 34.133C6.65088 31.1782 9.04616 28.783 12.0009 28.783H75.0409C77.9956 28.783 80.3909 31.1782 80.3909 34.133V64.533C80.3909 67.4877 77.9956 69.883 75.0409 69.883H12.0009C9.04616 69.883 6.65088 67.4877 6.65088 64.533V34.133ZM12.0009 31.483C10.5373 31.483 9.35088 32.6694 9.35088 34.133V64.533C9.35088 65.9965 10.5373 67.183 12.0009 67.183H75.0409C76.5044 67.183 77.6909 65.9965 77.6909 64.533V34.133C77.6909 32.6694 76.5044 31.483 75.0409 31.483H12.0009Z" fill="black"/>
<path d="M72.6401 42.2184C72.6406 42.2184 72.6409 42.2188 72.6409 42.2192V56.4474C72.6409 56.9212 72.2569 57.2713 71.8333 57.2029C71.5891 57.1638 71.3375 57.1492 71.0816 57.1573C68.9044 57.2371 67.1098 59.1812 66.9936 61.5893C66.9788 61.9068 66.9906 62.2178 67.0303 62.519C67.0906 62.9912 66.7626 63.4129 66.3316 63.4129H20.7102C20.2792 63.4129 19.9511 62.9912 20.0114 62.519C20.0497 62.2178 20.0629 61.9068 20.0482 61.5893C19.932 59.1812 18.1373 57.2387 15.9602 57.1573C15.7042 57.1476 15.4527 57.1638 15.2085 57.2029C14.7848 57.2697 14.4009 56.9212 14.4009 56.4474V42.2184C14.4009 41.7446 14.7848 41.3946 15.2085 41.4629C15.4527 41.502 15.7042 41.5167 15.9602 41.5085C18.1373 41.4288 19.932 39.4847 20.0482 37.0765C20.0629 36.759 20.0511 36.448 20.0114 36.1468C19.9511 35.6746 20.2792 35.2529 20.7102 35.2529H66.3301C66.7611 35.2529 67.0892 35.6746 67.0289 36.1468C66.9906 36.448 66.9774 36.759 66.9921 37.0765C67.1083 39.4847 68.903 41.4271 71.0801 41.5085C71.3361 41.5183 71.5876 41.502 71.8318 41.4629C72.2773 41.3913 72.6391 41.7199 72.6394 42.2177C72.6394 42.2181 72.6397 42.2184 72.6401 42.2184Z" fill="#BDF2D8"/>
<path fill-rule="evenodd" clip-rule="evenodd" d="M21.4009 36.6031C21.4065 36.7814 21.405 36.9603 21.3967 37.1392L21.3965 37.1418C21.2521 40.1352 18.997 42.7483 16.0095 42.8578L16.003 42.858C15.919 42.8607 15.8349 42.8615 15.7508 42.8604V55.8051C15.8369 55.804 15.9235 55.8051 16.0105 55.8084C18.9964 55.9201 21.252 58.53 21.3965 61.5244L21.3967 61.527C21.405 61.7072 21.4061 61.8861 21.4004 62.0631H65.6407C65.6351 61.8847 65.6366 61.7058 65.6449 61.527L65.645 61.5244C65.7895 58.531 68.0446 55.9178 71.032 55.8084L71.0386 55.8081C71.1225 55.8055 71.2066 55.8047 71.2908 55.8058V42.861C71.204 42.8621 71.1167 42.8611 71.029 42.8577M71.029 42.8577C68.0437 42.7455 65.788 40.1358 65.6436 37.1418L65.6434 37.1392C65.6351 36.9589 65.6339 36.7801 65.6397 36.6031H21.4009M18.6722 36.318C18.5298 35.2028 19.3087 33.9031 20.7101 33.9031H66.33C67.7309 33.9031 68.5099 35.202 68.368 36.317C68.3395 36.5412 68.3295 36.7739 68.3405 37.0127C68.4289 38.834 69.7623 40.1085 71.1305 40.1596L71.1315 40.1597C71.2965 40.166 71.4593 40.1555 71.6184 40.1301C72.237 40.0309 72.8595 40.21 73.3199 40.6366C73.7484 41.0336 73.9645 41.5745 73.9873 42.1215C73.9896 42.1538 73.9908 42.1864 73.9908 42.2193V56.4476C73.9908 57.6321 72.9777 58.7546 71.6192 58.536L71.6181 58.5358L71.8332 57.2031L71.6192 58.536C71.4669 58.5117 71.3028 58.5013 71.1277 58.5067L71.1309 58.5066L71.0815 57.1575L71.1244 58.5068L71.1277 58.5067C69.7623 58.5586 68.4303 59.8326 68.3419 61.6535L68.342 61.652L66.9935 61.5895L68.3419 61.6545L68.3419 61.6535C68.3308 61.8967 68.3402 62.1269 68.3686 62.3427L68.3694 62.3481C68.5118 63.4633 67.7328 64.7631 66.3315 64.7631H20.7101C19.3092 64.7631 18.5302 63.4641 18.6721 62.3491L20.0101 62.519L18.6722 62.3481L18.6721 62.3491C18.7006 62.1249 18.7106 61.8922 18.6996 61.6533L18.6997 61.6545L20.0481 61.5895L18.6996 61.652L18.6996 61.6533C18.6111 59.832 17.2778 58.5577 15.9096 58.5065L15.9086 58.5065C15.7436 58.5002 15.5808 58.5106 15.4217 58.5361L15.4185 58.5366C14.068 58.7494 13.0508 57.6381 13.0508 56.4476V42.2186C13.0508 41.0341 14.0639 39.9116 15.4224 40.1302C15.5747 40.1545 15.7388 40.1648 15.9138 40.1595L15.9106 40.1596L15.9172 40.1594L15.9138 40.1595C17.2792 40.1075 18.6112 38.8336 18.6996 37.0129L18.6996 37.0142L18.6997 37.0116L18.6996 37.0129C18.7108 36.7696 18.7014 36.5393 18.6729 36.3234L18.6722 36.318ZM72.64 40.8686C72.9668 40.8686 73.2609 40.9826 73.4905 41.1699C73.2583 40.9815 72.9624 40.8686 72.64 40.8686Z" fill="black"/>
<path d="M43.2008 58.9732C48.1715 58.9732 52.201 54.9437 52.201 49.9731C52.201 45.0024 48.1715 40.9729 43.2008 40.9729C38.2302 40.9729 34.2007 45.0024 34.2007 49.9731C34.2007 54.9437 38.2302 58.9732 43.2008 58.9732Z" fill="#8DD1AC"/>
<path fill-rule="evenodd" clip-rule="evenodd" d="M66.2593 49.9726C66.2593 51.8962 64.6999 53.4555 62.7764 53.4555C60.8528 53.4555 59.2935 51.8962 59.2935 49.9726C59.2935 48.0491 60.8528 46.4897 62.7764 46.4897C64.6999 46.4897 66.2593 48.0491 66.2593 49.9726Z" fill="#8DD1AC"/>
<path fill-rule="evenodd" clip-rule="evenodd" d="M27.1069 49.9726C27.1069 51.8962 25.5476 53.4555 23.624 53.4555C21.7005 53.4555 20.1411 51.8962 20.1411 49.9726C20.1411 48.0491 21.7005 46.4897 23.624 46.4897C25.5476 46.4897 27.1069 48.0491 27.1069 49.9726Z" fill="#8DD1AC"/>
</g>
<defs>
<clipPath id="clip0_5502_1731">
<rect width="80" height="80" fill="white"/>
</clipPath>
</defs>
</svg>
