<svg width="20" height="20" viewBox="0 0 20 20" fill="none" xmlns="http://www.w3.org/2000/svg">
<path fill-rule="evenodd" clip-rule="evenodd" d="M12.354 7.24451H19.2239C19.6525 7.24451 20 7.59994 20 8.0385V17.5395C20 17.9779 19.6525 18.3334 19.2239 18.3334H17.2493H14.5274H9.98728H6.17696C4.61493 18.3334 3.13425 18.0123 2.00762 17.4292C0.712982 16.7592 0 15.8057 0 14.7444V5.25584C0 3.1227 2.84686 1.6668 6.17705 1.66675C9.42022 1.66675 12.3027 3.06426 12.3529 5.20049C12.3531 5.20313 12.3534 5.20476 12.3534 5.20476C12.3547 5.21317 12.354 5.22192 12.354 7.24451ZM6.17701 3.25472C3.32699 3.25472 1.5718 4.40769 1.55315 5.24234C1.55309 5.24437 1.55291 5.24639 1.55272 5.24841C1.5525 5.25088 1.55227 5.25334 1.55227 5.2558C1.55227 6.08706 3.13536 7.24451 6.10188 7.24451C9.72379 7.24451 10.8017 6.04379 10.8017 5.25589C10.8017 4.4203 9.04232 3.25472 6.17701 3.25472ZM17.1164 16.7455H18.4478L18.4478 8.83239L6.17705 8.84484C4.62274 8.84484 2.85365 8.51495 1.55232 7.67817V14.7444C1.55232 15.4676 2.87048 16.4381 5.08301 16.6859L5.08333 14.1667C5.08333 13.7525 5.41912 13.4167 5.83333 13.4167C6.24755 13.4167 6.58333 13.7525 6.58333 14.1667L6.58301 16.7455H8.30217V15.8334C8.30217 15.395 8.64966 15.0395 9.07828 15.0395C9.5069 15.0395 9.85439 15.395 9.85439 15.8334V16.7455H11.9332V14.1667C11.9332 13.7283 12.2807 13.3728 12.7093 13.3728C13.1379 13.3728 13.4854 13.7283 13.4854 14.1667V16.7455H15.5641V15.8334C15.5641 15.395 15.9116 15.0395 16.3403 15.0395C16.7689 15.0395 17.1164 15.395 17.1164 15.8334V16.7455Z" fill="#212121"/>
</svg>
