<svg width="16" height="16" viewBox="0 0 16 16" fill="none" xmlns="http://www.w3.org/2000/svg">
<path fill-rule="evenodd" clip-rule="evenodd" d="M2.66659 2.99999C2.66659 2.8159 2.81583 2.66666 2.99992 2.66666H9.99992C10.3681 2.66666 10.6666 2.36818 10.6666 1.99999C10.6666 1.63181 10.3681 1.33333 9.99992 1.33333H2.99992C2.07945 1.33333 1.33325 2.07952 1.33325 2.99999V13C1.33325 13.9205 2.07945 14.6667 2.99992 14.6667H12.9999C13.9204 14.6667 14.6666 13.9205 14.6666 13V6.66666C14.6666 6.29847 14.3681 6 13.9999 6C13.6317 6 13.3333 6.29847 13.3333 6.66666V13C13.3333 13.1841 13.184 13.3333 12.9999 13.3333H2.99992C2.81582 13.3333 2.66659 13.1841 2.66659 13V2.99999ZM14.2091 2.72083C14.4231 2.42122 14.3537 2.00486 14.0541 1.79085C13.7545 1.57684 13.3381 1.64624 13.1241 1.94585L8.53333 8.37296L5.74974 6.14609C5.46223 5.91609 5.0427 5.9627 4.8127 6.25021C4.58269 6.53772 4.62931 6.95725 4.91681 7.18725L8.25015 9.85392C8.39313 9.96831 8.57688 10.0188 8.75825 9.99368C8.93963 9.9685 9.10267 9.86984 9.2091 9.72083L14.2091 2.72083Z" fill="#212121"/>
</svg>
