<svg width="20" height="20" viewBox="0 0 20 20" fill="none" xmlns="http://www.w3.org/2000/svg">
<g clip-path="url(#clip0_5364_85)">
<path fill-rule="evenodd" clip-rule="evenodd" d="M8.32945 2.56436C8.32941 2.56436 8.32962 2.5639 8.33023 2.56302L8.32945 2.56436ZM8.33366 2.5588C8.33571 2.55653 8.33864 2.55358 8.34275 2.54997C8.36748 2.52828 8.42071 2.49992 8.50033 2.49992H16.5003C16.5799 2.49992 16.6332 2.52828 16.6579 2.54997C16.662 2.55358 16.6649 2.55653 16.667 2.5588V17.441C16.6649 17.4433 16.662 17.4463 16.6579 17.4499C16.6332 17.4716 16.5799 17.4999 16.5003 17.4999H8.50033C8.42071 17.4999 8.36748 17.4716 8.34275 17.4499C8.33864 17.4463 8.33571 17.4433 8.33366 17.441V2.5588ZM8.32946 17.4355C8.3295 17.4355 8.32981 17.4359 8.33023 17.4368L8.32946 17.4355ZM16.6712 17.4355C16.6712 17.4355 16.671 17.4359 16.6704 17.4368L16.6712 17.4355ZM16.6712 2.56436C16.6712 2.56436 16.6708 2.56392 16.6704 2.56302L16.6712 2.56436ZM6.66699 2.54378C6.66699 1.49985 7.59373 0.833252 8.50033 0.833252H16.5003C17.4069 0.833252 18.3337 1.49985 18.3337 2.54378V17.4561C18.3337 18.5 17.4069 19.1666 16.5003 19.1666H8.50033C7.59373 19.1666 6.66699 18.5 6.66699 17.4561V2.54378Z" fill="#212121"/>
<path fill-rule="evenodd" clip-rule="evenodd" d="M3.33301 9.16675C2.41253 9.16675 1.66634 9.91294 1.66634 10.8334V17.5001C1.2061 17.5001 0.833008 17.8732 0.833008 18.3334C0.833008 18.7937 1.2061 19.1667 1.66634 19.1667H3.33301H6.66634H18.333C18.7932 19.1667 19.1663 18.7937 19.1663 18.3334C19.1663 17.8732 18.7932 17.5001 18.333 17.5001H8.33301V10.8334C8.33301 9.91294 7.58681 9.16675 6.66634 9.16675H3.33301ZM6.66634 17.5001V10.8334H3.33301V17.5001H6.66634Z" fill="#212121"/>
<path fill-rule="evenodd" clip-rule="evenodd" d="M11.6663 5.00342C11.2061 5.00342 10.833 5.37651 10.833 5.83675C10.833 6.29699 11.2061 6.67008 11.6663 6.67008H13.333C13.7932 6.67008 14.1663 6.29699 14.1663 5.83675C14.1663 5.37651 13.7932 5.00342 13.333 5.00342H11.6663ZM10.833 9.58675C10.833 9.12651 11.2061 8.75342 11.6663 8.75342H13.333C13.7932 8.75342 14.1663 9.12651 14.1663 9.58675C14.1663 10.047 13.7932 10.4201 13.333 10.4201H11.6663C11.2061 10.4201 10.833 10.047 10.833 9.58675ZM10.833 13.3368C10.833 12.8765 11.2061 12.5034 11.6663 12.5034H13.333C13.7932 12.5034 14.1663 12.8765 14.1663 13.3368C14.1663 13.797 13.7932 14.1701 13.333 14.1701H11.6663C11.2061 14.1701 10.833 13.797 10.833 13.3368Z" fill="#212121"/>
</g>
<defs>
<clipPath id="clip0_5364_85">
<rect width="20" height="20" fill="white"/>
</clipPath>
</defs>
</svg>
