<svg width="56" height="56" viewBox="0 0 56 56" fill="none" xmlns="http://www.w3.org/2000/svg">
<g clip-path="url(#clip0_5499_1977)">
<path fill-rule="evenodd" clip-rule="evenodd" d="M3.71027 28C3.71027 14.585 14.5853 3.71001 28.0003 3.71001C33.7454 3.71001 39.0225 5.70345 43.1811 9.03711C43.5732 9.35146 44.1459 9.2884 44.4603 8.89627C44.7746 8.50413 44.7116 7.93141 44.3194 7.61706C39.8496 4.0339 34.1741 1.89 28.0003 1.89001C13.5801 1.89 1.89027 13.5799 1.89027 28C1.89027 42.4202 13.5801 54.11 28.0003 54.11C42.4204 54.11 54.1103 42.4202 54.1103 28C54.1103 23.2458 52.8388 18.7857 50.6167 14.9443C50.365 14.5093 49.8083 14.3607 49.3733 14.6123C48.9383 14.864 48.7896 15.4206 49.0413 15.8557C51.1074 19.4275 52.2903 23.5742 52.2903 28C52.2903 41.415 41.4153 52.29 28.0003 52.29C14.5853 52.29 3.71027 41.415 3.71027 28ZM47.3475 10.4664C47.0099 10.0941 46.4344 10.0659 46.0621 10.4035C45.6897 10.7411 45.6616 11.3166 45.9992 11.6889C46.1449 11.8496 46.2885 12.0122 46.4299 12.1767C46.7574 12.5579 47.332 12.6013 47.7131 12.2738C48.0943 11.9462 48.1377 11.3717 47.8102 10.9905C47.6582 10.8137 47.504 10.639 47.3475 10.4664ZM28.9103 18.55C28.9103 18.0474 28.5028 17.64 28.0003 17.64C27.4977 17.64 27.0903 18.0474 27.0903 18.55L27.0903 28.35C27.0903 28.5914 27.1861 28.8228 27.3568 28.9935L36.1068 37.7435C36.4622 38.0989 37.0384 38.0989 37.3937 37.7435C37.7491 37.3881 37.7491 36.8119 37.3937 36.4565L28.9103 27.9731L28.9103 18.55ZM28.0005 7.42C28.5418 7.42 28.9805 7.85876 28.9805 8.4L28.9805 11.9C28.9805 12.4412 28.5418 12.88 28.0005 12.88C27.4593 12.88 27.0205 12.4412 27.0205 11.9L27.0205 8.4C27.0205 7.85876 27.4593 7.42 28.0005 7.42ZM28.9805 44.1C28.9805 43.5588 28.5418 43.12 28.0005 43.12C27.4593 43.12 27.0205 43.5588 27.0205 44.1L27.0205 47.6C27.0205 48.1412 27.4593 48.58 28.0005 48.58C28.5418 48.58 28.9805 48.1412 28.9805 47.6L28.9805 44.1ZM7.42055 28C7.42054 27.4588 7.85931 27.02 8.40055 27.02L11.9005 27.02C12.4418 27.02 12.8805 27.4588 12.8805 28C12.8805 28.5412 12.4418 28.98 11.9005 28.98L8.40054 28.98C7.85931 28.98 7.42054 28.5412 7.42055 28ZM44.1005 27.02C43.5593 27.02 43.1205 27.4588 43.1205 28C43.1205 28.5412 43.5593 28.98 44.1005 28.98L47.6005 28.98C48.1418 28.98 48.5805 28.5412 48.5805 28C48.5805 27.4588 48.1418 27.02 47.6005 27.02L44.1005 27.02ZM15.4019 41.72C14.7834 41.721 14.2811 41.2204 14.2801 40.6018C14.2791 39.9832 14.7797 39.481 15.3983 39.48C16.0169 39.479 16.5191 39.9796 16.5201 40.5982C16.5211 41.2168 16.0205 41.719 15.4019 41.72ZM40.0539 16.3777C40.594 16.6793 41.2762 16.486 41.5778 15.9459C41.8794 15.4059 41.6861 14.7236 41.146 14.422C40.6059 14.1204 39.9234 14.3136 39.6218 14.8537C39.3203 15.3938 39.5138 16.0762 40.0539 16.3777ZM14.4007 15.2715C14.4056 14.653 14.911 14.1555 15.5295 14.1604C16.1481 14.1653 16.6455 14.6707 16.6406 15.2892C16.6357 15.9078 16.1303 16.4052 15.5118 16.4003C14.8933 16.3954 14.3958 15.89 14.4007 15.2715ZM39.5069 40.1642C39.2002 40.7013 39.387 41.3854 39.9242 41.6921C40.4614 41.9988 41.1454 41.812 41.4522 41.2748C41.7589 40.7377 41.5722 40.0534 41.035 39.7467C40.4978 39.4399 39.8136 39.627 39.5069 40.1642Z" fill="#212121"/>
</g>
<defs>
<clipPath id="clip0_5499_1977">
<rect width="56" height="56" fill="white"/>
</clipPath>
</defs>
</svg>
