<svg width="20" height="20" viewBox="0 0 20 20" fill="none" xmlns="http://www.w3.org/2000/svg">
<path fill-rule="evenodd" clip-rule="evenodd" d="M10.8299 2.50008C10.8299 2.03984 10.4568 1.66675 9.99658 1.66675C9.53634 1.66675 9.16325 2.03984 9.16325 2.50008V11.3183L6.83909 8.99416C6.51366 8.66872 5.98602 8.66872 5.66058 8.99416C5.33514 9.3196 5.33514 9.84723 5.66058 10.1727L9.36505 13.8771C9.51787 14.0545 9.74411 14.1667 9.99658 14.1667C9.99711 14.1667 9.99764 14.1667 9.99817 14.1667C10.212 14.1672 10.426 14.0858 10.5891 13.9227L14.3391 10.1727C14.6645 9.84723 14.6645 9.3196 14.3391 8.99416C14.0137 8.66872 13.486 8.66872 13.1606 8.99416L10.8299 11.3248V2.50008ZM17.4998 9.16675C17.9601 9.16675 18.3332 9.53984 18.3332 10.0001V17.5001C18.3332 17.9603 17.9601 18.3334 17.4998 18.3334H2.49984C2.0396 18.3334 1.6665 17.9603 1.6665 17.5001V10.0035C1.6665 9.5433 2.0396 9.17021 2.49984 9.17021C2.96007 9.17021 3.33317 9.5433 3.33317 10.0035V16.6667H16.6665V10.0001C16.6665 9.53984 17.0396 9.16675 17.4998 9.16675Z" fill="white"/>
</svg>
