<svg width="20" height="20" viewBox="0 0 20 20" fill="none" xmlns="http://www.w3.org/2000/svg">
<path fill-rule="evenodd" clip-rule="evenodd" d="M10.8302 2.50008C10.8302 2.03984 10.4571 1.66675 9.99683 1.66675C9.53659 1.66675 9.16349 2.03984 9.16349 2.50008V11.3183L6.83934 8.99416C6.5139 8.66872 5.98626 8.66872 5.66083 8.99416C5.33539 9.3196 5.33539 9.84723 5.66083 10.1727L9.36529 13.8771C9.51811 14.0545 9.74436 14.1667 9.99683 14.1667C9.99735 14.1667 9.99788 14.1667 9.99841 14.1667C10.2122 14.1672 10.4262 14.0858 10.5893 13.9227L14.3393 10.1727C14.6648 9.84723 14.6648 9.3196 14.3393 8.99416C14.0139 8.66872 13.4863 8.66872 13.1608 8.99416L10.8302 11.3248V2.50008ZM17.5001 9.16675C17.9603 9.16675 18.3334 9.53984 18.3334 10.0001V17.5001C18.3334 17.9603 17.9603 18.3334 17.5001 18.3334H2.50008C2.03984 18.3334 1.66675 17.9603 1.66675 17.5001V10.0035C1.66675 9.5433 2.03984 9.17021 2.50008 9.17021C2.96032 9.17021 3.33341 9.5433 3.33341 10.0035V16.6667H16.6667V10.0001C16.6667 9.53984 17.0398 9.16675 17.5001 9.16675Z" fill="#212121"/>
</svg>
