<svg width="20" height="20" viewBox="0 0 20 20" fill="none" xmlns="http://www.w3.org/2000/svg">
<path fill-rule="evenodd" clip-rule="evenodd" d="M0.89624 3.01435C0.855496 3.1126 0.833008 3.22034 0.833008 3.33333V15.1389C0.833008 15.5441 0.99397 15.9327 1.28048 16.2192C1.567 16.5057 1.9556 16.6667 2.36079 16.6667H17.6386C18.0438 16.6667 18.4323 16.5057 18.7189 16.2192C19.0054 15.9327 19.1663 15.5441 19.1663 15.1389V3.33333C19.1663 3.10598 19.0753 2.89989 18.9277 2.74954C18.9241 2.74588 18.9205 2.74226 18.9168 2.73866C18.8382 2.66145 18.748 2.60297 18.652 2.56323C18.5537 2.52249 18.446 2.5 18.333 2.5H1.66634C1.45307 2.5 1.2398 2.58136 1.07709 2.74408C0.997188 2.82397 0.936907 2.91606 0.89624 3.01435ZM2.49967 5.34518V15H17.4997V5.34518L10.5889 12.2559C10.4326 12.4122 10.2207 12.5 9.99967 12.5C9.77866 12.5 9.5667 12.4122 9.41042 12.2559L2.49967 5.34518ZM16.3212 4.16667L9.99967 10.4882L3.67819 4.16667H16.3212Z" fill="#212121"/>
</svg>
