<svg width="62" height="45" viewBox="0 0 62 45" fill="none" xmlns="http://www.w3.org/2000/svg">
  <circle cx="47.5" cy="30.5" r="14.5" fill="white"/>
  <circle cx="11" cy="31" r="11" fill="white"/>
  <circle cx="47" cy="5" r="5" fill="white"/>
  <path d="M41.8244 6.24329H18.1758C17.2428 6.24329 16.4866 6.99351 16.4866 7.91896V38.0811C16.4866 39.0066 17.2428 39.7568 18.1758 39.7568H41.8244C42.7573 39.7568 43.5136 39.0066 43.5136 38.0811V7.91896C43.5136 6.99351 42.7573 6.24329 41.8244 6.24329Z" stroke="#212121" strokeWidth="1.5" strokeLinecap="round" strokeLinejoin="round"/>
  <path d="M20.8108 24.6216H39.1892" stroke="#212121" strokeWidth="1.5" strokeLinecap="round" strokeLinejoin="round"/>
  <path d="M20.8108 20.2972H39.1892" stroke="#212121" strokeWidth="1.5" strokeLinecap="round" strokeLinejoin="round"/>
  <path d="M20.8108 28.9459H39.1892" stroke="#212121" strokeWidth="1.5" strokeLinecap="round" strokeLinejoin="round"/>
  <path d="M20.8108 33.2703H33.7838" stroke="#212121" strokeWidth="1.5" strokeLinecap="round" strokeLinejoin="round"/>
  <path fillRule="evenodd" clipRule="evenodd" d="M27.5424 15.7997C27.8044 15.9152 28.0886 15.973 28.395 15.973C28.6275 15.973 28.8453 15.9345 29.0482 15.8575C29.2512 15.7805 29.4284 15.665 29.5797 15.511L29.0815 14.9913C29.004 15.0619 28.9098 15.1245 28.7991 15.179C28.6921 15.2335 28.5684 15.2608 28.4282 15.2608C28.1957 15.2608 28.0074 15.1822 27.8635 15.025C27.7232 14.8646 27.6531 14.6385 27.6531 14.3465C27.6531 14.1573 27.6882 13.9953 27.7583 13.8605C27.8321 13.7258 27.9281 13.6232 28.0462 13.5526C28.168 13.4788 28.299 13.4419 28.4393 13.4419C28.5611 13.4419 28.6681 13.4644 28.7604 13.5093C28.8563 13.551 28.9486 13.6055 29.0372 13.6729L29.5354 13.1436C29.4099 13.0313 29.2512 12.935 29.0593 12.8548C28.8711 12.7714 28.657 12.7297 28.4171 12.7297C28.192 12.7297 27.9742 12.7666 27.7638 12.8404C27.5571 12.911 27.3708 13.0168 27.2047 13.158C27.0423 13.2991 26.9131 13.4724 26.8171 13.6777C26.7249 13.8798 26.6787 14.1124 26.6787 14.3754C26.6787 14.7315 26.7581 15.0282 26.9168 15.2656C27.0755 15.503 27.284 15.6811 27.5424 15.7997ZM30.0776 15.9152V12.7874H32.4029V13.4804H31.0299V13.9712H32.2036V14.6641H31.0299V15.2223H32.4582V15.9152H30.0776ZM33.1539 12.7874V15.9152H34.1062V12.7874H33.1539ZM34.9056 15.9152V12.7874H36.2233C36.4853 12.7874 36.7271 12.8195 36.9485 12.8837C37.17 12.9478 37.3471 13.0553 37.48 13.2061C37.6166 13.3569 37.6848 13.5638 37.6848 13.8268C37.6848 14.0803 37.6166 14.2888 37.48 14.4524C37.3471 14.6128 37.17 14.7315 36.9485 14.8085C36.7308 14.8855 36.4964 14.9239 36.2454 14.9239H35.8579V15.9152H34.9056ZM35.8579 14.2695H36.2011C36.3894 14.2695 36.5278 14.231 36.6163 14.154C36.7086 14.0738 36.7547 13.9648 36.7547 13.8268C36.7547 13.6857 36.7049 13.5862 36.6053 13.5285C36.5056 13.4707 36.3635 13.4419 36.179 13.4419H35.8579V14.2695ZM38.9063 15.9152V13.4804H37.9541V12.7874H40.8108V13.4804H39.8586V15.9152H38.9063ZM23.7575 15.9152V12.7874H26.0827V13.4804H24.7097V13.9712H25.8834V14.6641H24.7097V15.2223H26.138V15.9152H23.7575ZM20.2703 12.7874V15.9152H21.2225V14.8662H21.5879L22.208 15.9152H23.2709L22.4903 14.7026C22.6638 14.6192 22.804 14.5037 22.9111 14.3561C23.0181 14.2086 23.0716 14.0225 23.0716 13.798C23.0716 13.5381 23.0052 13.3344 22.8723 13.1868C22.7394 13.0393 22.5641 12.9366 22.3464 12.8789C22.1286 12.8179 21.8905 12.7874 21.6322 12.7874H20.2703ZM21.5657 14.2118H21.2225V13.4419H21.5657C21.754 13.4419 21.8961 13.4675 21.992 13.5189C22.0917 13.5702 22.1415 13.6632 22.1415 13.798C22.1415 14.0738 21.9496 14.2118 21.5657 14.2118Z" fill="#212121"/>
</svg>