<svg width="20" height="20" viewBox="0 0 20 20" fill="none" xmlns="http://www.w3.org/2000/svg">
<path fill-rule="evenodd" clip-rule="evenodd" d="M3.54102 18.1251C3.54102 17.6648 3.91411 17.2917 4.37435 17.2917H15.6243C16.0846 17.2917 16.4577 17.6648 16.4577 18.1251C16.4577 18.5853 16.0846 18.9584 15.6243 18.9584H4.37435C3.91411 18.9584 3.54102 18.5853 3.54102 18.1251Z" fill="#212121"/>
<path fill-rule="evenodd" clip-rule="evenodd" d="M9.99935 6.66667C9.07887 6.66667 8.33268 7.41286 8.33268 8.33333C8.33268 9.25381 9.07887 10 9.99935 10C10.9198 10 11.666 9.25381 11.666 8.33333C11.666 7.41286 10.9198 6.66667 9.99935 6.66667ZM6.66602 8.33333C6.66602 6.49238 8.1584 5 9.99935 5C11.8403 5 13.3327 6.49238 13.3327 8.33333C13.3327 10.1743 11.8403 11.6667 9.99935 11.6667C8.1584 11.6667 6.66602 10.1743 6.66602 8.33333Z" fill="#212121"/>
<path fill-rule="evenodd" clip-rule="evenodd" d="M9.99967 3.33341C8.67064 3.33341 7.39787 3.85566 6.46088 4.78235C5.5242 5.70874 4.99967 6.96322 4.99967 8.26931C4.99967 10.5622 6.29794 12.6769 7.70884 14.2816C8.40373 15.0719 9.10083 15.7099 9.62446 16.1501C9.76328 16.2668 9.88948 16.3692 9.99967 16.4565C10.1099 16.3692 10.2361 16.2668 10.3749 16.1501C10.8985 15.7099 11.5956 15.0719 12.2905 14.2816C13.7014 12.6769 14.9997 10.5622 14.9997 8.26931C14.9997 6.96322 14.4752 5.70874 13.5385 4.78235C12.6015 3.85566 11.3287 3.33341 9.99967 3.33341ZM9.99967 17.5001C9.52533 18.1852 9.52511 18.1851 9.52486 18.1849L9.52265 18.1834L9.51785 18.18L9.50202 18.1689C9.48874 18.1595 9.47007 18.1462 9.44636 18.1291C9.39896 18.0949 9.33139 18.0453 9.24652 17.9812C9.07687 17.853 8.83763 17.666 8.55198 17.4258C7.98185 16.9465 7.22062 16.2504 6.45717 15.3821C4.95141 13.6695 3.33301 11.1687 3.33301 8.26931C3.33301 6.51521 4.03765 4.83484 5.28889 3.59735C6.53983 2.36016 8.23452 1.66675 9.99967 1.66675C11.7648 1.66675 13.4595 2.36016 14.7105 3.59735C15.9617 4.83484 16.6663 6.51521 16.6663 8.26931C16.6663 11.1687 15.0479 13.6695 13.5422 15.3821C12.7787 16.2504 12.0175 16.9465 11.4474 17.4258C11.1617 17.666 10.9225 17.853 10.7528 17.9812C10.668 18.0453 10.6004 18.0949 10.553 18.1291C10.5293 18.1462 10.5106 18.1595 10.4973 18.1689L10.4815 18.18L10.4767 18.1834L10.4751 18.1845C10.4748 18.1847 10.474 18.1852 9.99967 17.5001ZM9.99967 17.5001L10.474 18.1852C10.1886 18.3828 9.81023 18.3825 9.52486 18.1849L9.99967 17.5001ZM9.52478 16.8153C9.52468 16.8154 9.52469 16.8154 9.52478 16.8153V16.8153Z" fill="#212121"/>
</svg>
