<svg width="71" height="38" viewBox="0 0 71 38" fill="none" xmlns="http://www.w3.org/2000/svg">
  <g clip-path="url(#clip0_5578_1423)">
  <path d="M40.2134 8.00535H45.4863V7.03389H48.8036V8.00535H54.0765V10.2672H40.2134V8.00535ZM45.4863 2.12742V1.04395H48.8036V2.12742H53.1309V4.32561H48.7717C48.7608 4.40014 48.7449 4.46885 48.7235 4.53256C48.7022 4.59627 48.6804 4.65998 48.659 4.72369L53.5151 5.58397L52.6336 7.59103L46.912 6.36431C46.2387 6.7041 45.4482 6.98017 44.5403 7.19253C43.632 7.40532 42.6651 7.54856 41.6391 7.62268L40.7735 5.59938C41.5109 5.51444 42.1544 5.43199 42.7049 5.35246C43.255 5.27292 43.7171 5.18506 44.0912 5.08971C44.4649 4.99435 44.7615 4.88525 44.9806 4.76325C45.1997 4.64124 45.3464 4.49508 45.4214 4.32519H41.1581V2.12742H45.4855H45.4863ZM47.1529 15.7313C46.1378 15.7313 45.2404 15.6938 44.4603 15.6197C43.6802 15.5451 43.0204 15.4152 42.4807 15.2295C41.9411 15.0434 41.5327 14.7885 41.2545 14.465C40.9767 14.141 40.838 13.7242 40.838 13.2145C40.838 12.7049 40.9767 12.288 41.2545 11.9641C41.5322 11.6401 41.9411 11.3853 42.4807 11.1996C43.0204 11.0139 43.6802 10.8864 44.4603 10.8173C45.24 10.7482 46.1378 10.7136 47.1529 10.7136C48.168 10.7136 49.052 10.7482 49.8375 10.8173C50.6226 10.8864 51.285 11.0139 51.825 11.1996C52.3642 11.3853 52.7731 11.6405 53.0509 11.9641C53.3286 12.288 53.4677 12.7049 53.4677 13.2145C53.4677 13.7242 53.3286 14.141 53.0509 14.465C52.7731 14.7885 52.3642 15.0434 51.825 15.2295C51.285 15.4152 50.6231 15.5456 49.8375 15.6197C49.0524 15.6938 48.1571 15.7313 47.1529 15.7313ZM47.1529 13.5331C47.6979 13.5331 48.1626 13.5302 48.5472 13.5252C48.9318 13.5198 49.2418 13.5064 49.4768 13.4852C49.7118 13.464 49.8828 13.4319 49.9896 13.3898C50.096 13.3474 50.1501 13.2887 50.1501 13.2145C50.1501 13.0767 49.9255 12.9893 49.4768 12.9518C49.0281 12.9147 48.2535 12.896 47.1529 12.896C46.0523 12.896 45.2777 12.9147 44.829 12.9518C44.3803 12.9893 44.1557 13.0767 44.1557 13.2145C44.1557 13.3524 44.3803 13.4398 44.829 13.4773C45.2777 13.5143 46.0523 13.5331 47.1529 13.5331Z" fill="#3D3D3D"/>
  <path d="M56.4368 10.3947H70.2999V13.1346H65.0269V15.5876H61.7097V13.1346H56.4368V10.3947ZM57.2219 1.93628H69.5143V9.32741H57.2219V1.93628ZM60.5396 6.58749H66.1971V4.67579H60.5396V6.58749Z" fill="#3D3D3D"/>
  <path d="M44.3166 24.9201H53.2914V27.66H48.8036V29.0142H54.0765V31.7541H40.2134V29.0142H45.4863V27.66H40.9985V18.5962H44.3162V24.9201H44.3166Z" fill="#3D3D3D"/>
  <path d="M56.4368 29.0137H70.2999V31.7536H56.4368V29.0137ZM69.6748 25.2381V27.6595H57.2219V18.5957H69.5143V21.0171H60.5396V21.909H69.5143V24.3304H60.5396V25.2386H69.6748V25.2381Z" fill="#3D3D3D"/>
  <path d="M43.8083 35.9792C43.8083 35.7131 43.8536 35.4666 43.9437 35.2389C44.0342 35.0115 44.1611 34.815 44.3253 34.6492C44.4891 34.4831 44.6873 34.354 44.919 34.2611C45.1503 34.1683 45.4062 34.1221 45.6865 34.1221C46.3606 34.1221 46.9019 34.4106 47.3112 34.9878L46.8554 35.3421C46.741 35.1327 46.5818 34.9674 46.3769 34.8462C46.1725 34.725 45.945 34.6646 45.6953 34.6646C45.524 34.6646 45.366 34.6996 45.2215 34.77C45.0769 34.8404 44.9529 34.9345 44.849 35.0527C44.7455 35.171 44.6647 35.3101 44.6077 35.47C44.5503 35.6299 44.5218 35.7998 44.5218 35.9792C44.5218 36.1587 44.5482 36.3369 44.601 36.4951C44.6538 36.6538 44.7279 36.792 44.8247 36.9103C44.9211 37.0281 45.038 37.121 45.1766 37.1885C45.3153 37.2555 45.4687 37.2892 45.6371 37.2892C45.7904 37.2892 45.9312 37.2672 46.059 37.2222C46.1872 37.1772 46.2986 37.1139 46.3933 37.0311C46.488 36.949 46.563 36.8495 46.6187 36.7329C46.6744 36.6163 46.7054 36.4847 46.7113 36.3382H45.6191V35.7906H47.4247V36.1316C47.4247 36.389 47.3833 36.6221 47.3007 36.8316C47.2178 37.0406 47.1005 37.2197 46.9484 37.3675C46.7963 37.5157 46.6136 37.6307 46.4 37.7131C46.1863 37.7951 45.9484 37.836 45.6869 37.836C45.4255 37.836 45.1754 37.7931 44.9462 37.706C44.7179 37.619 44.5189 37.4953 44.3505 37.3338C44.1821 37.1722 44.0497 36.9769 43.9533 36.7483C43.8569 36.5197 43.8088 36.2632 43.8088 35.9788L43.8083 35.9792Z" fill="#3D3D3D"/>
  <path d="M48.2949 37.7472L49.6037 34.2161H50.3846L51.6939 37.7472H50.985L50.5786 36.612L49.2836 36.9618L49.0038 37.7472H48.2953H48.2949ZM49.5002 36.3651L50.4027 36.1228L49.9921 34.9835L49.5002 36.3655V36.3651Z" fill="#3D3D3D"/>
  <path d="M54.5368 35.4051C54.585 35.3485 54.6445 35.2972 54.7149 35.2527C54.7857 35.2077 54.8619 35.1698 54.9428 35.1382C55.0241 35.107 55.1083 35.0828 55.1954 35.0666C55.2826 35.0503 55.3668 35.042 55.4481 35.042C55.6135 35.042 55.7686 35.0674 55.9131 35.1182C56.0576 35.169 56.1837 35.2402 56.2922 35.3314C56.4008 35.4226 56.4854 35.5333 56.547 35.6633C56.6086 35.7936 56.6396 35.9377 56.6396 36.0959V37.7474H55.9265V36.3387C55.9265 36.0755 55.8691 35.8848 55.7551 35.7665C55.6404 35.6483 55.4841 35.5891 55.2855 35.5891C55.1142 35.5891 54.9642 35.647 54.8364 35.762C54.7086 35.8773 54.6248 36.0364 54.5859 36.24V37.7478H53.8728V35.1319H54.4773L54.536 35.4055L54.5368 35.4051Z" fill="#3D3D3D"/>
  <path d="M57.5015 36.4459C57.5015 36.2244 57.5417 36.0241 57.6234 35.8446C57.7047 35.6652 57.8153 35.5127 57.9552 35.387C58.0951 35.2612 58.2581 35.1651 58.4449 35.0976C58.6314 35.0306 58.8304 34.9968 59.0407 34.9968C59.251 34.9968 59.4454 35.0306 59.6323 35.0976C59.8187 35.1651 59.9821 35.2612 60.122 35.387C60.2619 35.5127 60.3734 35.6652 60.4559 35.8446C60.5389 36.0241 60.5799 36.2244 60.5799 36.4459C60.5799 36.6674 60.5389 36.8661 60.4559 37.0426C60.3734 37.2192 60.2619 37.3695 60.122 37.4936C59.9821 37.6177 59.8191 37.7138 59.6323 37.7809C59.4458 37.8479 59.2485 37.8817 59.0407 37.8817C58.8329 37.8817 58.6314 37.8479 58.4449 37.7809C58.2585 37.7138 58.0951 37.6177 57.9552 37.4936C57.8153 37.3695 57.7047 37.2196 57.6234 37.0426C57.5417 36.8665 57.5015 36.6674 57.5015 36.4459ZM59.0407 37.3387C59.1584 37.3387 59.2678 37.317 59.37 37.2737C59.4722 37.2304 59.5602 37.1688 59.6339 37.0897C59.7077 37.0105 59.7655 36.9164 59.8078 36.8069C59.8501 36.6978 59.8711 36.5775 59.8711 36.4459C59.8711 36.3143 59.8501 36.1877 59.8078 36.0757C59.7655 35.9633 59.7081 35.8684 59.6339 35.7909C59.5602 35.713 59.4718 35.6527 59.37 35.6094C59.2673 35.566 59.158 35.5444 59.0407 35.5444C58.9234 35.5444 58.8098 35.5665 58.7089 35.6114C58.6079 35.6564 58.5208 35.7184 58.447 35.7976C58.3733 35.8767 58.3155 35.972 58.2732 36.0824C58.2309 36.1931 58.2099 36.3143 58.2099 36.4459C58.2099 36.5775 58.2309 36.6978 58.2732 36.8069C58.3155 36.916 58.3729 37.0101 58.447 37.0897C58.5208 37.1688 58.6079 37.2304 58.7089 37.2737C58.8094 37.317 58.92 37.3387 59.0407 37.3387Z" fill="#3D3D3D"/>
  <path d="M62.4157 35.1314H63.0747V35.6785H62.4157V36.9169C62.4157 37.0069 62.4387 37.076 62.4857 37.126C62.5322 37.1751 62.6038 37.1997 62.7002 37.1997H63.12V37.7472H62.4023C62.3059 37.7472 62.215 37.7322 62.1291 37.7023C62.0437 37.6723 61.9691 37.629 61.9058 37.5719C61.8426 37.5153 61.7931 37.4457 61.7571 37.3633C61.7207 37.2813 61.7027 37.1876 61.7027 37.0831V35.679H61.1702V35.1318H61.7027V34.2166H62.4161V35.1318L62.4157 35.1314Z" fill="#3D3D3D"/>
  <path d="M64.5448 36.8854C64.608 37.0291 64.7044 37.1398 64.8338 37.2173C64.9633 37.2956 65.1242 37.3343 65.3169 37.3343C65.497 37.3343 65.6621 37.3043 65.8108 37.2443C65.96 37.1844 66.0945 37.0828 66.2147 36.9395L66.6705 37.2847C66.5138 37.4729 66.3262 37.6195 66.1062 37.7244C65.8867 37.8294 65.6475 37.8814 65.3885 37.8814C65.1661 37.8814 64.9583 37.8477 64.7656 37.7807C64.5733 37.7136 64.4053 37.6174 64.2624 37.4933C64.1195 37.3693 64.0068 37.2185 63.9243 37.0403C63.8413 36.8625 63.8003 36.6626 63.8003 36.4415C63.8003 36.2204 63.8393 36.0293 63.9176 35.8515C63.9959 35.6737 64.1028 35.5213 64.2381 35.3938C64.3734 35.2668 64.5339 35.1682 64.7186 35.0978C64.9038 35.0274 65.1045 34.9924 65.3215 34.9924C65.5385 34.9924 65.7254 35.0266 65.9013 35.0957C66.0773 35.1644 66.2302 35.2593 66.3592 35.3805C66.4887 35.5017 66.5918 35.6466 66.6684 35.8157C66.7451 35.9847 66.7878 36.1696 66.7971 36.3699L64.5448 36.8858V36.8854ZM65.3529 35.5396C65.0852 35.5396 64.8736 35.6137 64.7186 35.7615C64.5636 35.9098 64.4786 36.1109 64.4639 36.3653L66.089 35.9793C66.0107 35.824 65.9085 35.7116 65.7819 35.6429C65.6554 35.5741 65.5126 35.5396 65.3533 35.5396H65.3529Z" fill="#3D3D3D"/>
  <path d="M29.5834 32.7405H7.37524V33.6312H29.5834V32.7405Z" fill="#DB6A05"/>
  <path d="M29.8519 0H6.96548C4.42538 0 2.35869 2.05411 2.35869 4.57875V7.01637H0.634292C0.284049 7.01637 0 7.29869 0 7.6468V9.65136C0 9.99947 0.284049 10.2818 0.634292 10.2818H2.35869V15.0658H0.634292C0.284049 15.0658 0 15.3482 0 15.6963V17.7008C0 18.0489 0.284049 18.3313 0.634292 18.3313H2.35869V23.1153H0.634292C0.284049 23.1153 0 23.3976 0 23.7457V25.7503C0 26.0984 0.284049 26.3807 0.634292 26.3807H2.35869V33.4221C2.35869 35.9467 4.42538 38.0008 6.96548 38.0008H29.8519C32.392 38.0008 34.4587 35.9467 34.4587 33.4221V4.57875C34.4587 2.05411 32.392 0 29.8519 0ZM5.64411 26.3799H7.24702C7.59726 26.3799 7.88131 26.0976 7.88131 25.7495V23.7449C7.88131 23.3968 7.59726 23.1145 7.24702 23.1145H5.64411V18.3304H7.24702C7.59726 18.3304 7.88131 18.0481 7.88131 17.7V15.6954C7.88131 15.3473 7.59726 15.065 7.24702 15.065H5.64411V10.281H7.24702C7.59726 10.281 7.88131 9.99864 7.88131 9.65053V7.64597C7.88131 7.29786 7.59726 7.01554 7.24702 7.01554H5.64411V4.57792C5.64411 3.8538 6.23692 3.26459 6.96548 3.26459H28.0898V29.9385H5.64411V26.3799ZM31.1737 33.4212C31.1737 34.1454 30.5809 34.7346 29.8524 34.7346H6.96548C6.23692 34.7346 5.64411 34.1454 5.64411 33.4212V31.4225H29.1083C29.8721 31.4225 30.5826 31.1914 31.1737 30.7967V33.4212ZM31.1737 4.57875V28.531C30.9073 29.2106 30.3128 29.7273 29.5834 29.886V3.26542H31.1737V4.57875Z" fill="#DB6A05"/>
  </g>
  <defs>
  <clipPath id="clip0_5578_1423">
  <rect width="70.3" height="38" fill="white"/>
  </clipPath>
  </defs>
</svg>
