<svg width="127" height="40" viewBox="0 0 127 40" fill="none" xmlns="http://www.w3.org/2000/svg">
<g clip-path="url(#clip0_5726_36701)">
<path d="M16.1029 12.3217H5.79434L0 28.6785H10.3086C18.5177 28.6785 20.3181 24.7829 21.8337 20.498C23.3535 16.2153 24.312 12.3217 16.1029 12.3217ZM14.5053 20.5001C12.9384 24.9221 12.3527 25.6103 9.60193 25.6103H8.18867L11.8078 15.3899H13.2211C15.9698 15.3899 16.0701 16.078 14.5053 20.498V20.5001ZM35.6058 12.0001C28.3511 12.0001 25.0248 14.3842 22.8578 20.498C20.6908 26.616 22.3294 29.0001 29.5841 29.0001C36.8388 29.0001 40.1651 26.618 42.332 20.498C44.499 14.3842 42.8605 12.0001 35.6058 12.0001ZM35.0016 20.498C33.4367 24.9201 32.7854 26.1121 30.6082 26.1121C28.431 26.1121 28.6235 24.9221 30.1904 20.498C31.7572 16.076 32.4086 14.886 34.5837 14.886C36.7589 14.886 36.5684 16.076 35.0016 20.498ZM56.1369 12.0001C48.8822 12.0001 45.5559 14.3842 43.3889 20.498C41.2219 26.616 42.8605 29.0001 50.1152 29.0001C57.3699 29.0001 60.6961 26.618 62.8631 20.498C65.0301 14.3821 63.3916 12.0001 56.1369 12.0001ZM55.5326 20.498C53.9658 24.9201 53.3165 26.1121 51.1393 26.1121C48.962 26.1121 49.1546 24.9221 50.7214 20.498C52.2863 16.076 52.9396 14.886 55.1148 14.886C57.29 14.886 57.0975 16.076 55.5326 20.498ZM80.9814 23.9574C83.0993 17.9788 70.931 19.5579 72.0759 16.3279C72.336 15.5947 73.2741 14.884 74.802 14.884C76.1764 14.884 76.541 15.6848 76.201 16.6474L76.0637 17.0386H82.7081C83.9493 13.5321 81.8581 11.998 75.6725 11.998C69.487 11.998 66.0972 13.8066 64.9298 17.1062C62.8775 22.9026 74.5931 21.2989 73.4502 24.5289C73.1328 25.4219 72.0493 26.1101 70.5992 26.1101C69.2248 26.1101 68.4485 25.6062 68.9442 24.2073L69.0814 23.8182H62.2077L62.007 24.3917C60.8047 27.7814 63.6578 28.996 69.5402 28.996C75.8016 28.996 79.7525 27.4373 80.9855 23.9554L80.9814 23.9574ZM91.3064 12.3217L78.8677 28.6785H86.4296L88.1686 25.8131H93.8195L93.5307 28.6785H101.091L100.239 12.3217H91.3043H91.3064ZM94.1165 22.6077H90.1451L94.5507 15.6664H94.6286L94.1165 22.6077ZM120.362 12.3217L116.792 22.4008H116.716L115.704 12.3217H107.762L101.967 28.6785H108.612L112.19 18.5748H112.266L113.423 28.6785H121.212L127.006 12.3217H120.362Z" fill="#005EB8"/>
</g>
<defs>
<clipPath id="clip0_5726_36701">
<rect width="127.006" height="17" fill="white" transform="translate(0 12)"/>
</clipPath>
</defs>
</svg>
