<svg width="103" height="40" viewBox="0 0 103 40" fill="none" xmlns="http://www.w3.org/2000/svg">
<g clip-path="url(#clip0_5726_36705)">
<path d="M11.3711 11.3486V14.3328H3.30252V19.3014H10.0226V22.2856H3.30252V28.7526H0V11.3486H11.3711Z" fill="#2E2D2C"/>
<path d="M23.4669 28.7526H26.7694L19.5123 11.3486H17.5623L10.3032 28.7526H13.6057L15.2126 24.8999H21.86L23.4669 28.7526ZM16.4581 21.9157L18.5373 16.9302L20.6165 21.9157H16.4581Z" fill="#2E2D2C"/>
<path d="M103 11.3486V14.3328H94.9315V19.3014H101.65V22.2856H94.9315V25.7685H103V28.7526H91.627V11.3486H103Z" fill="#2E2D2C"/>
<path d="M71.6238 11.3486H68.3213V28.7526H71.6238V11.3486Z" fill="#2E2D2C"/>
<path d="M52.5295 11.3486V14.3328H47.7776V28.7526H44.4751V14.3328H39.7231V11.3486H52.5295Z" fill="#2E2D2C"/>
<path d="M54.8047 28.7526H58.1072V22.2856H64.8273V19.3014H58.1072V14.3328H66.1758V11.3486H54.8047V28.7526Z" fill="#2E2D2C"/>
<path d="M86.5724 11.3486L81.6428 23.1711L76.7112 11.3486H73.4087L80.6678 28.7526H82.6178L89.8749 11.3486H86.5724Z" fill="#2E2D2C"/>
<path d="M29.3411 24.0758C30.2959 25.1769 31.7534 26.0011 33.2815 26.0011C34.7148 26.0011 35.718 25.0755 35.718 23.8011C35.718 21.5503 32.6133 21.2755 30.3686 19.9018C29.0545 19.1008 28.0048 17.9025 28.0048 15.9265C28.0048 12.8007 30.7501 11.0022 33.5217 11.0022C35.2174 11.0022 36.794 11.427 38.3706 12.6528L36.6991 15.153C36.0309 14.502 34.9086 14.0033 33.8104 14.0033C32.5932 14.0033 31.2306 14.5527 31.2306 15.9032C31.2306 18.7289 38.9439 17.8539 38.9439 23.7525C38.9439 26.8528 36.2934 29.0022 33.2835 29.0022C31.0388 29.0022 28.9616 28.0279 27.2417 26.3773L29.3431 24.0779L29.3411 24.0758Z" fill="#2E2D2C"/>
</g>
<defs>
<clipPath id="clip0_5726_36705">
<rect width="103" height="18" fill="white" transform="translate(0 11)"/>
</clipPath>
</defs>
</svg>
