<svg width="43" height="40" viewBox="0 0 43 40" fill="none" xmlns="http://www.w3.org/2000/svg">
<g clip-path="url(#clip0_5757_9820)">
<path d="M24.0265 9H12.8701V12.591H24.0265V9Z" fill="#7F1619"/>
<path d="M24.0265 17.2607H12.8701V20.8518H24.0265V17.2607Z" fill="#7F1619"/>
<path d="M24.0265 26.3616H12.8701V29.9526H24.0265V26.3616Z" fill="#7F1619"/>
<path d="M32.9264 9C27.9149 9 23.8525 13.6906 23.8525 19.4763C23.8525 25.2619 27.9149 29.9525 32.9264 29.9525C37.9378 29.9525 42.0002 25.2619 42.0002 19.4763C42.0002 13.6906 37.9378 9 32.9264 9ZM32.7776 26.7221C29.2448 26.7221 26.3813 23.4783 26.3813 19.4763C26.3813 15.4742 29.2448 12.2304 32.7776 12.2304C36.3105 12.2304 39.1739 15.4742 39.1739 19.4763C39.1739 23.4783 36.3105 26.7221 32.7776 26.7221Z" fill="#7F1619"/>
<path fill-rule="evenodd" clip-rule="evenodd" d="M11.8732 9.10096V12.5287C11.2127 12.5287 10.582 12.5688 9.95875 12.5228C5.2582 12.1726 2.99717 16.1821 3.00164 19.4377C3.00461 21.8253 3.81977 23.8671 5.73569 25.3852C6.71448 26.1612 7.84053 26.5396 9.0945 26.5352C10.0034 26.5322 10.9108 26.5352 11.8643 26.5352V29.8888C11.8434 29.9066 11.8152 29.9481 11.7869 29.9481C10.1744 29.9674 8.54561 30.1544 6.96735 29.6914C3.92092 28.7951 1.91426 26.7251 0.853665 23.8256C-0.709713 19.5475 -0.169745 15.5203 2.83801 11.9945C4.46982 10.0818 6.60589 9.08761 9.1659 9.10096C10.0539 9.10541 10.9435 9.10096 11.8732 9.10096Z" fill="#7F1619"/>
</g>
<defs>
<clipPath id="clip0_5757_9820">
<rect width="42" height="21" fill="white" transform="translate(0 9)"/>
</clipPath>
</defs>
</svg>
