<svg width="182" height="40" viewBox="0 0 182 40" fill="none" xmlns="http://www.w3.org/2000/svg">
<g clip-path="url(#clip0_5763_10009)">
<path d="M8.19365 13.7493C8.52543 14.5599 10.0667 18.3312 10.2837 18.8604L5.9608 18.845C6.19459 18.3074 7.84228 14.5557 8.19505 13.7507M7.34531 11.2561L0 27.9206L2.09706 27.929L5.23565 20.6327C5.23565 20.6327 10.6785 20.6509 10.9683 20.6537C11.0831 20.9323 13.9711 27.9738 13.9711 27.9738L16.1787 27.9822L9.21698 11.2631L7.34531 11.2561Z" fill="#316094"/>
<path d="M32.9032 11.3528C32.9032 11.3528 27.5038 23.6551 27.1006 24.5805C26.6974 23.6523 21.3932 11.3094 21.3932 11.3094L18.7319 11.2996L18.6689 27.992L20.6554 27.999L20.7072 14.4913L26.5826 28.0214L27.564 28.0256C27.564 28.0256 32.7352 16.1922 33.4492 14.5515L33.3974 28.048L35.381 28.0564L35.444 11.3654L32.9046 11.3556L32.9032 11.3528Z" fill="#316094"/>
<path d="M78.0323 11.5237L77.9707 28.2162L89.7313 28.261L89.7383 26.4117L79.967 26.3739L79.988 20.5279L88.8704 20.5601L88.8774 18.7122L79.995 18.6786L80.0146 13.3786L89.4205 13.4136L89.4261 11.5657L78.0323 11.5237Z" fill="#316094"/>
<path d="M70.0135 20.3291C72.6271 19.8937 74.0214 18.4084 74.0298 16.0047C74.041 13.0187 72.028 11.504 68.0438 11.49L61.0737 11.4634L61.0471 18.6086L56.6318 18.5918C56.1432 14.0841 52.7792 11.0183 48.1134 11.0001C43.0387 10.9805 39.4801 14.5698 39.4605 19.7215C39.4409 24.8802 42.9729 28.4975 48.0476 28.5171C52.9052 28.5353 56.37 25.2427 56.6724 20.4397L61.0387 20.4565L61.0093 28.1545L62.9944 28.1615L63.0238 20.4634L67.9402 20.4816C68.076 20.7098 72.4703 28.1979 72.4703 28.1979L74.7438 28.2063C74.7438 28.2063 70.3369 20.8694 70.0121 20.3291M48.0518 26.6664C44.1418 26.651 41.4232 23.7994 41.4386 19.7299C41.454 15.6632 44.195 12.8312 48.105 12.8452C52.0107 12.8606 54.7251 15.7136 54.7111 19.7789C54.6957 23.8484 51.9589 26.6804 48.0532 26.665M63.007 18.5806L63.028 13.2819L68.4722 13.3029C71.6892 13.3155 72.0322 15.1704 72.028 15.9669C72.0266 16.7607 71.6696 18.6142 68.4512 18.603L63.007 18.582V18.5806Z" fill="#316094"/>
<path d="M96.0225 11.5908L95.9595 28.2861L97.0626 28.2889L97.0948 20.1344L101.057 20.1484C103.438 20.1582 105.987 19.0495 105.998 15.9179C106.014 12.043 102.314 11.6132 100.722 11.6062L96.0225 11.588M97.3748 12.5623L100.917 12.5749C102.755 12.5819 104.896 13.4611 104.887 15.9137C104.878 18.3342 102.871 19.1895 100.992 19.1825L97.099 19.1671L97.1242 12.5609H97.3762M112.547 11.651L105.202 28.3183L106.341 28.3225C106.341 28.3225 109.422 21.148 109.485 21.008L116.572 21.0346C116.632 21.1788 119.573 28.3729 119.573 28.3729L120.839 28.3771L113.875 11.6594L112.544 11.6552M112.89 13.0789C112.89 13.0789 113.019 12.7737 113.124 12.5399C113.32 13.0313 116.044 19.7775 116.169 20.084L109.905 20.0602C110.043 19.7453 112.891 13.0775 112.891 13.0775M122.636 20.0378C122.616 25.1951 126.146 28.8111 131.215 28.8307C133.681 28.8405 135.675 27.9193 137.146 26.0994L137.225 26.0042L136.308 25.3043L136.235 25.3967C134.831 27.2292 132.654 27.8675 131.218 27.8619C126.801 27.8451 123.728 24.6295 123.746 20.042C123.764 15.4531 126.86 12.2628 131.276 12.2796C133.096 12.2866 134.748 13.0733 135.811 14.4326L135.885 14.532L136.809 13.7607L136.728 13.6739C135.388 12.1186 133.558 11.3234 131.282 11.315C126.213 11.2954 122.656 14.8834 122.636 20.0378ZM167.283 20.2058C167.264 25.3631 170.791 28.9804 175.861 28.9986C178.327 29.0084 180.319 28.0873 181.792 26.2674L181.869 26.1722L180.952 25.4723L180.879 25.5661C179.478 27.3971 177.304 28.0369 175.863 28.0313C171.447 28.0145 168.372 24.7989 168.389 20.21C168.406 15.6225 171.505 12.4321 175.922 12.4489C177.741 12.4545 179.393 13.2413 180.455 14.602L180.532 14.7014L181.459 13.93L181.376 13.8419C180.034 12.2866 178.201 11.4928 175.925 11.483C170.854 11.4634 167.301 15.0514 167.282 20.2058M141.797 28.4583L142.914 28.4625L142.977 11.77L141.858 11.7658L141.797 28.4569V28.4583ZM147.718 11.7854L147.657 28.4793L148.771 28.4835L148.803 20.329L156.881 20.3598L156.885 19.3953L148.807 19.3645L148.833 12.7583L157.522 12.7919L157.525 11.8232L147.721 11.7868M162.168 28.5353L163.281 28.5395L163.345 11.847L162.232 11.8428L162.168 28.5339V28.5353Z" fill="#021D49"/>
</g>
<defs>
<clipPath id="clip0_5763_10009">
<rect width="181.869" height="18" fill="white" transform="translate(0 11)"/>
</clipPath>
</defs>
</svg>
