<svg width="163" height="40" viewBox="0 0 163 40" fill="none" xmlns="http://www.w3.org/2000/svg">
<g clip-path="url(#clip0_5726_36704)">
<path d="M161.706 17.67V14.6243H151.637V29.5995H162.074V26.5212H155.116V23.4108H161.337V20.5078H155.116V17.67H161.706Z" fill="#202786"/>
<path d="M130.313 23.7947H136.117V20.7969H130.313V17.7192H136.606V14.6243H126.753V29.5995H130.313V23.7947Z" fill="#202786"/>
<path d="M90.3028 26.264C89.782 26.5531 89.1404 26.6964 88.4111 26.6964C87.8021 26.6964 87.2251 26.5685 86.7037 26.3446C86.1906 26.1194 85.7339 25.7995 85.3648 25.4144C84.988 25.0127 84.6995 24.5163 84.4832 23.9712C84.267 23.3942 84.1787 22.7852 84.1787 22.1122C84.1787 21.4392 84.267 20.8289 84.4832 20.2839C84.6995 19.7068 85.004 19.2258 85.3648 18.8087C85.7659 18.4236 86.2226 18.0704 86.7357 17.8465C87.289 17.6226 87.8661 17.4934 88.4757 17.4934C89.0854 17.4934 89.6304 17.6226 90.1831 17.8465C90.7282 18.0704 91.169 18.4236 91.5061 18.8893L93.9588 16.4199C93.3338 15.6983 92.4919 15.1533 91.4741 14.8002C90.4563 14.4163 89.4219 14.2231 88.3555 14.2231C87.2257 14.2231 86.1593 14.4163 85.1729 14.7682C84.1794 15.1533 83.3298 15.6664 82.5839 16.3393C81.8546 17.029 81.277 17.8785 80.8605 18.8253C80.444 19.8028 80.2432 20.8929 80.2432 22.1122C80.2432 23.2662 80.444 24.3397 80.8528 25.3185C81.2616 26.2793 81.8226 27.1302 82.5442 27.8198C83.2652 28.5247 84.1154 29.0698 85.0935 29.4229C86.071 29.808 87.1374 29.9999 88.2921 29.9999C89.5748 29.9999 90.6968 29.7914 91.675 29.327C92.6365 28.8932 93.4387 28.2842 94.1117 27.5306L91.6104 25.1585C91.2739 25.623 90.8485 25.9914 90.3034 26.264H90.3028Z" fill="#202786"/>
<path d="M142.529 23.4108H148.735V20.5078H142.529V17.67H149.12V14.6243H139.043V29.5995H149.488V26.5212H142.529V23.4108Z" fill="#202786"/>
<path d="M100.411 14.7689C99.425 15.154 98.5595 15.6671 97.8379 16.3401C97.1246 17.0143 96.5476 17.8473 96.1388 18.8094C95.7223 19.7715 95.5298 20.8616 95.5298 22.0489C95.5298 23.2363 95.7223 24.3251 96.1388 25.3026C96.5476 26.2801 97.1246 27.1309 97.8379 27.8205C98.5595 28.5255 99.425 29.0705 100.411 29.4236C101.422 29.8088 102.503 30.0007 103.674 30.0007C104.845 30.0007 105.927 29.8088 106.921 29.4236C107.939 29.0705 108.789 28.5255 109.526 27.8205C110.24 27.1309 110.817 26.2801 111.226 25.3026C111.627 24.3251 111.836 23.235 111.836 22.0489C111.836 20.8629 111.627 19.7715 111.226 18.8094C110.817 17.8473 110.24 17.0143 109.526 16.3401C108.789 15.6671 107.939 15.154 106.921 14.7689C105.927 14.4171 104.828 14.2239 103.674 14.2239C102.52 14.2239 101.422 14.4171 100.411 14.7689ZM106.768 18.7774C107.145 19.1945 107.434 19.6756 107.65 20.2526C107.85 20.7976 107.971 21.4067 107.971 22.0489C107.971 22.6912 107.851 23.3629 107.65 23.94C107.434 24.485 107.145 24.9814 106.752 25.3832C106.383 25.8003 105.927 26.1201 105.397 26.3453C104.892 26.6012 104.315 26.6972 103.674 26.6972C103.033 26.6972 102.455 26.6012 101.935 26.3453C101.422 26.1201 100.964 25.8003 100.596 25.3832C100.203 24.9814 99.9304 24.485 99.7142 23.94C99.498 23.3629 99.3937 22.7219 99.3937 22.0489C99.3937 21.376 99.498 20.7976 99.7142 20.2526C99.8991 19.6756 100.204 19.1945 100.58 18.7774C100.965 18.3923 101.422 18.0712 101.935 17.8473C102.455 17.6067 103.033 17.4941 103.674 17.4941C104.315 17.4941 104.893 17.6067 105.413 17.8473C105.943 18.0712 106.383 18.3923 106.768 18.7774Z" fill="#202786"/>
<path d="M114.152 29.5995H117.719V23.7947H123.523V20.7969H117.719V17.7192H124.012V14.6243H114.152V29.5995Z" fill="#202786"/>
<path d="M41.3508 19.4286H41.4231L47.7768 29.7607H52.1154V13.959H48.4063L48.5048 24.2681H48.4287L42.0871 13.959H37.7402V29.7607H41.4385L41.3508 19.4286Z" fill="#202786"/>
<path d="M58.8371 22.4858H58.8825L64.7539 29.7607H69.7303L62.5238 21.2377L69.3285 13.959H64.5492L58.9132 20.3882H58.8371V13.959H55.105V29.7607H58.8371V22.4858Z" fill="#202786"/>
<path d="M32.8323 12.4947C34.0728 12.4947 35.0816 11.4858 35.0816 10.2454C35.0816 9.005 34.0728 8 32.8323 8C31.5919 8 30.5869 9.00884 30.5869 10.2454C30.5869 11.482 31.5958 12.4947 32.8323 12.4947Z" fill="#202786"/>
<path d="M17.9292 23.1531H24.0853V29.7607H27.905V13.959H24.0853V19.9404H17.9292V13.959H14.1133V29.7607H17.9292V23.1531Z" fill="#202786"/>
<path d="M4.46461 17.2171V29.7607H8.28055V17.2171H12.7407V13.959H0V17.2171H4.46461Z" fill="#202786"/>
<path d="M34.7517 13.959H30.9019V29.7607H34.7517V13.959Z" fill="#202786"/>
</g>
<defs>
<clipPath id="clip0_5726_36704">
<rect width="162.075" height="22" fill="white" transform="translate(0 8)"/>
</clipPath>
</defs>
</svg>
