<svg width="176" height="40" viewBox="0 0 176 40" fill="none" xmlns="http://www.w3.org/2000/svg">
<g clip-path="url(#clip0_5757_9739)">
<path d="M59.8242 17.6231L58.417 17.6155V17.5851V12.291H55.5646V21.7229H49.1144L49.1296 16.2691L54.1422 16.2463V13.5613H46.3989V24.446H55.5646V28.8501H58.417V20.2777V20.2701L59.8242 20.2853V28.8501H62.6461V12.291H59.8242V17.6231Z" fill="#010101"/>
<path d="M79.9049 14.5956V12.3137H77.0449V22.2172H79.9049C79.9049 22.2172 79.9049 17.3187 79.9049 17.3111H82.879V14.5956C82.879 14.5956 79.943 14.6032 79.9049 14.5956Z" fill="#010101"/>
<path d="M115.914 19.5702V12.3137H105.516V14.976H113.115V19.5702H110.673V16.8699H107.805V19.5702H102.39V22.3465H106.984C106.649 22.9931 106.474 23.7081 106.474 24.4839C106.474 25.7694 106.938 26.8875 107.866 27.8079C108.787 28.7283 109.905 29.1999 111.19 29.1999C112.476 29.1999 113.609 28.7283 114.529 27.8079C115.442 26.8875 115.906 25.7694 115.906 24.4839C115.906 23.7081 115.739 22.9931 115.404 22.3465H119.124V19.5702H115.906H115.914ZM112.689 25.9824C112.27 26.3931 111.784 26.5985 111.198 26.5985C110.612 26.5985 110.118 26.3931 109.707 25.9824C109.296 25.564 109.091 25.0772 109.091 24.4915C109.091 23.9058 109.296 23.4114 109.707 22.9855C110.125 22.5671 110.612 22.3617 111.198 22.3617C111.784 22.3617 112.27 22.5671 112.689 22.9855C113.107 23.4114 113.305 23.8982 113.305 24.4915C113.305 25.0848 113.099 25.564 112.689 25.9824Z" fill="#010101"/>
<path d="M133.462 16.3452V22.5977H129.004V21.7686C129.818 21.4795 130.495 20.9851 131.028 20.2929C131.59 19.5627 131.872 18.7032 131.872 17.76C131.872 17.3949 131.834 17.045 131.743 16.7179C131.697 16.5278 131.613 16.3528 131.537 16.1703H132.64V13.5537H129.096V11.751H126.236V13.5537H122.448V16.1703C122.448 16.1703 123.558 16.1703 123.665 16.1703C123.596 16.3528 123.513 16.5202 123.459 16.7103C123.376 17.0374 123.338 17.3797 123.338 17.7524C123.338 18.7184 123.627 19.5779 124.189 20.3081C124.73 21.0079 125.429 21.51 126.251 21.7914V22.5901H121.885V25.2751H133.454V28.8425H136.306V12.3138H133.454C133.454 12.3138 133.439 15.5618 133.454 16.3452H133.462ZM127.605 19.3878C127.171 19.3878 126.814 19.2356 126.502 18.9238C126.19 18.6119 126.038 18.2544 126.038 17.8209C126.038 17.3873 126.19 17.0298 126.502 16.7179C126.814 16.4061 127.171 16.2539 127.605 16.2539C128.038 16.2539 128.396 16.4061 128.708 16.7179C129.02 17.0298 129.172 17.3873 129.172 17.8209C129.172 18.2544 129.02 18.6119 128.708 18.9238C128.396 19.2356 128.038 19.3878 127.605 19.3878Z" fill="#010101"/>
<path d="M145.601 21.8294C146.97 21.8294 148.149 21.335 149.115 20.3614C150.081 19.3878 150.568 18.2088 150.568 16.8625C150.568 15.5161 150.081 14.3143 149.115 13.3483C148.149 12.3823 146.97 11.8955 145.601 11.8955C144.232 11.8955 143.076 12.3823 142.102 13.3483C141.129 14.3143 140.634 15.4933 140.634 16.8625C140.634 18.2316 141.129 19.3878 142.095 20.3614C143.068 21.335 144.247 21.8218 145.594 21.8218L145.601 21.8294ZM144.034 15.2803C144.468 14.8316 144.985 14.6186 145.601 14.6186C146.217 14.6186 146.735 14.8316 147.168 15.2803C147.609 15.7291 147.822 16.2464 147.822 16.8625C147.822 17.4786 147.609 17.9958 147.176 18.4294C146.742 18.8629 146.225 19.0759 145.609 19.0759C144.993 19.0759 144.475 18.8629 144.034 18.4294C143.601 17.9958 143.388 17.4786 143.388 16.8625C143.388 16.2464 143.601 15.7215 144.034 15.2803Z" fill="#010101"/>
<path d="M152.492 22.6205H140.414V25.3968H152.492V28.9033H155.406V12.291H152.492V22.6205Z" fill="#010101"/>
<path d="M168.671 24.2026V21.3198H165.804V24.2026H158.836V26.9181H175.578V24.2026C175.578 24.2026 168.709 24.2026 168.679 24.2026H168.671Z" fill="#010101"/>
<path d="M73.2267 20.9622C74.0558 20.1331 74.4818 19.1063 74.4818 17.9273C74.4818 17.4557 74.4133 17.0145 74.284 16.5962C74.1927 16.3223 74.071 16.0637 73.9341 15.8203H74.923V13.3939H71.462V11.6672H68.9291C68.9291 11.6672 68.9291 13.3711 68.9291 13.3939C68.8835 13.3939 65.377 13.3939 65.377 13.3939V15.8431H66.4495C66.3201 16.0789 66.206 16.3299 66.1148 16.5962C65.9703 17.0145 65.9018 17.4633 65.9018 17.9349C65.9018 19.1139 66.3201 20.1407 67.1568 20.9698C67.9935 21.8065 69.0128 22.2249 70.1918 22.2249C71.3708 22.2249 72.39 21.7989 73.2267 20.9698V20.9622ZM68.5412 17.9577C68.5412 17.0297 69.2942 16.2691 70.2298 16.2691C71.1654 16.2691 71.9184 17.0221 71.9184 17.9577C71.9184 18.8933 71.1654 19.6463 70.2298 19.6463C69.2942 19.6463 68.5412 18.8933 68.5412 17.9577Z" fill="#010101"/>
<path d="M72.8388 26.1422V23.1377H70.0776V28.8501H79.9203V26.1422C79.9203 26.1422 72.8692 26.165 72.8388 26.1422Z" fill="#010101"/>
<path d="M98.4267 15.2118V12.3138H95.5743V19.8136L95.1331 19.4714C95.1331 19.4714 93.1707 17.7751 92.4557 17.121C91.7407 16.4668 91.1398 15.7899 91.1398 15.7747C91.1854 15.4704 91.3299 14.8163 91.3299 13.9948V12.3062H88.257V13.9948C88.257 16.1626 86.6824 17.4709 86.0587 18.0794C85.4274 18.6879 83.541 19.9734 83.541 19.9734L85.3285 21.9662C85.3285 21.9662 86.8346 21.0154 87.6256 20.3385C88.3787 19.6995 89.0328 19.0302 89.5881 18.3456C90.0521 18.7716 90.9344 19.517 91.7407 20.1864C91.2463 20.4145 90.7899 20.7264 90.3791 21.1448C89.4588 22.0575 88.9872 23.1833 88.9872 24.484C88.9872 25.7846 89.4512 26.8876 90.3791 27.8079C91.2995 28.7283 92.4253 29.1999 93.7031 29.1999C94.981 29.1999 96.122 28.7283 97.0423 27.8079C97.9551 26.8876 98.4191 25.7694 98.4191 24.484V17.9044H101.386V15.2042H98.4191L98.4267 15.2118ZM95.2016 25.9824C94.7832 26.3932 94.2964 26.5985 93.7107 26.5985C93.125 26.5985 92.6306 26.3932 92.2199 25.9824C91.8015 25.5641 91.6038 25.0772 91.6038 24.4916C91.6038 23.9059 91.8091 23.4115 92.2199 22.9855C92.6382 22.5671 93.125 22.3618 93.7107 22.3618C94.2964 22.3618 94.7832 22.5671 95.2016 22.9855C95.6199 23.4115 95.8177 23.8983 95.8177 24.4916C95.8177 25.0849 95.6123 25.5641 95.2016 25.9824Z" fill="#010101"/>
<path d="M167.097 17.6992C169.09 19.7605 172.611 21.6469 172.611 21.6469L174.353 19.4486C170.862 17.4938 169.219 15.8812 168.572 15.1358C168.747 14.5958 168.846 14.0253 168.846 13.4396V12.2378H165.819V13.3635C165.819 13.896 165.872 16.3148 160.198 19.4638L162.084 21.4947C162.084 21.4947 165.089 20.0876 167.097 17.6992Z" fill="#010101"/>
<path d="M43.6985 4.01514H15.0225V35.9695H43.6985V4.01514Z" fill="url(#paint0_linear_5757_9739)"/>
<path d="M23.5646 5.99295C23.846 5.99295 24.0818 5.74954 24.0818 5.45289C24.0818 5.15625 23.8536 4.91284 23.5646 4.91284C23.2756 4.91284 23.0474 5.15625 23.0474 5.45289C23.0474 5.74954 23.2756 5.99295 23.5646 5.99295Z" fill="white"/>
<path d="M29.6343 22.1108C29.6343 22.2401 29.7332 22.3466 29.8549 22.3466C29.969 22.3466 30.0754 22.2401 30.0754 22.1108C30.0754 21.9815 29.9766 21.875 29.8549 21.875C29.7332 21.875 29.6343 21.9815 29.6343 22.1108Z" fill="white"/>
<path d="M29.8851 26.7734C29.7482 26.7734 29.6265 26.8951 29.6265 27.0473C29.6265 27.1994 29.7406 27.3135 29.8851 27.3135C30.0296 27.3135 30.1437 27.1918 30.1437 27.0473C30.1437 26.9027 30.0296 26.7734 29.8851 26.7734Z" fill="white"/>
<path d="M25.1161 9.95581C24.9107 9.95581 24.751 10.1232 24.751 10.3361C24.751 10.5491 24.9107 10.7241 25.1161 10.7241C25.2986 10.7241 25.4812 10.5491 25.4812 10.3361C25.4812 10.1232 25.3215 9.95581 25.1161 9.95581Z" fill="white"/>
<path d="M28.6683 18.6424C28.6683 18.4218 28.5009 18.2468 28.2956 18.2468C28.0902 18.2468 27.9229 18.4218 27.9229 18.6424C27.9229 18.8629 28.0902 19.0379 28.2956 19.0379C28.4781 19.0379 28.6683 18.8629 28.6683 18.6424Z" fill="white"/>
<path d="M28.2877 22.6812C28.5235 22.6812 28.7517 22.4606 28.7517 22.1868C28.7517 21.9129 28.5463 21.7 28.2877 21.7C28.0291 21.7 27.8237 21.9205 27.8237 22.1868C27.8237 22.453 28.0291 22.6812 28.2877 22.6812Z" fill="white"/>
<path d="M28.1284 20.4526C28.1284 20.5591 28.2121 20.6504 28.3186 20.6504C28.4099 20.6504 28.5011 20.5591 28.5011 20.4526C28.5011 20.3462 28.4175 20.2549 28.3186 20.2549C28.2197 20.2549 28.1284 20.3462 28.1284 20.4526Z" fill="white"/>
<path d="M26.6676 20.0039C26.4394 20.0039 26.2568 20.1941 26.2568 20.4299C26.2568 20.6657 26.4394 20.8634 26.6676 20.8634C26.873 20.8634 27.0707 20.6657 27.0707 20.4299C27.0707 20.1941 26.8882 20.0039 26.6676 20.0039Z" fill="white"/>
<path d="M30.0603 18.7108C30.0603 18.612 29.9842 18.5359 29.8929 18.5359C29.8016 18.5359 29.7256 18.612 29.7256 18.7108C29.7256 18.8097 29.8016 18.8858 29.8929 18.8858C29.9766 18.8858 30.0603 18.8097 30.0603 18.7108Z" fill="white"/>
<path d="M29.8396 14.0632C29.9917 14.0632 30.1363 13.9187 30.1363 13.7513C30.1363 13.584 29.9994 13.4395 29.8396 13.4395C29.6799 13.4395 29.543 13.584 29.543 13.7513C29.543 13.9187 29.6799 14.0708 29.8396 14.0632Z" fill="white"/>
<path d="M29.8397 15.8431C30.0527 15.8431 30.2581 15.6377 30.2581 15.3943C30.2581 15.1509 30.0679 14.9456 29.8397 14.9456C29.6115 14.9456 29.4214 15.1433 29.4214 15.3943C29.4214 15.6453 29.6115 15.8431 29.8397 15.8431Z" fill="white"/>
<path d="M30.2124 16.9992C30.2124 16.7862 30.0526 16.6189 29.8549 16.6189C29.6571 16.6189 29.4897 16.7938 29.4897 16.9992C29.4897 17.2046 29.6495 17.3871 29.8549 17.3795C30.0374 17.3795 30.2124 17.2046 30.2124 16.9992Z" fill="white"/>
<path d="M18.7725 5.7418C18.9703 5.7418 19.13 5.57446 19.13 5.36148C19.13 5.1485 18.9703 4.98877 18.7725 4.98877C18.5748 4.98877 18.415 5.15611 18.415 5.36148C18.415 5.56685 18.5748 5.7418 18.7725 5.7418Z" fill="white"/>
<path d="M20.4534 5.74192C20.6207 5.74192 20.75 5.5974 20.75 5.42246C20.75 5.24751 20.6207 5.1106 20.4534 5.1106C20.286 5.1106 20.1567 5.25512 20.1567 5.42246C20.1567 5.5898 20.2937 5.74192 20.4534 5.74192Z" fill="white"/>
<path d="M25.1312 11.751C24.9563 11.751 24.8193 11.8955 24.8193 12.0781C24.8193 12.2606 24.9563 12.4127 25.1312 12.4051C25.2833 12.4051 25.4431 12.2606 25.4431 12.0781C25.4431 11.8955 25.3061 11.751 25.1312 11.751Z" fill="white"/>
<path d="M26.7741 12.3824C26.9186 12.3824 27.0555 12.2454 27.0555 12.0857C27.0555 11.926 26.9262 11.7891 26.7741 11.7891C26.622 11.7891 26.4927 11.9184 26.4927 12.0857C26.4927 12.2531 26.622 12.3824 26.7741 12.3824Z" fill="white"/>
<path d="M28.3335 12.3367C28.4552 12.3367 28.5693 12.2226 28.5693 12.0857C28.5693 11.9488 28.4628 11.8347 28.3335 11.8347C28.2041 11.8347 28.0977 11.9488 28.0977 12.0857C28.0977 12.2226 28.2041 12.3367 28.3335 12.3367Z" fill="white"/>
<path d="M26.7284 7.21748C26.8273 7.21748 26.911 7.1262 26.911 7.02732C26.911 6.92843 26.8273 6.83716 26.7284 6.83716C26.6296 6.83716 26.5459 6.92083 26.5459 7.02732C26.5459 7.13381 26.622 7.21748 26.7284 7.21748Z" fill="white"/>
<path d="M26.7284 8.87568C26.8273 8.87568 26.911 8.79201 26.911 8.68552C26.911 8.57903 26.8273 8.49536 26.7284 8.49536C26.6296 8.49536 26.5459 8.57903 26.5459 8.68552C26.5459 8.79201 26.622 8.87568 26.7284 8.87568Z" fill="white"/>
<path d="M25.1311 5.74192C25.2985 5.74192 25.4278 5.5974 25.4278 5.42246C25.4278 5.24751 25.2985 5.1106 25.1311 5.1106C24.9638 5.1106 24.8345 5.25512 24.8345 5.42246C24.8345 5.5898 24.9638 5.74192 25.1311 5.74192Z" fill="white"/>
<path d="M22.0505 5.95476C22.3091 5.95476 22.5297 5.72657 22.5297 5.45274C22.5297 5.17891 22.3167 4.94312 22.0505 4.94312C21.7843 4.94312 21.5713 5.17131 21.5713 5.45274C21.5713 5.73418 21.7843 5.95476 22.0505 5.95476Z" fill="white"/>
<path d="M29.8323 24.1721C30.0452 24.1721 30.2202 23.9895 30.2202 23.7613C30.2202 23.5331 30.0452 23.3506 29.8323 23.3506C29.6193 23.3506 29.4443 23.5331 29.4443 23.7613C29.4443 23.9895 29.6193 24.1721 29.8323 24.1721Z" fill="white"/>
<path d="M29.8551 24.9707C29.6269 24.9707 29.4443 25.1609 29.4443 25.4043C29.4443 25.6477 29.6269 25.8302 29.8551 25.8302C30.0833 25.8302 30.2582 25.6401 30.2582 25.4043C30.2582 25.1685 30.0757 24.9707 29.8551 24.9707Z" fill="white"/>
<path d="M18.8105 33.2009C18.5367 33.2009 18.3237 33.4291 18.3237 33.7182C18.3237 34.0072 18.5443 34.2354 18.8105 34.2354C19.0768 34.2354 19.2973 34.0072 19.2973 33.7182C19.2973 33.4291 19.0768 33.2009 18.8105 33.2009Z" fill="white"/>
<path d="M28.2955 26.5073C28.0369 26.5073 27.8315 26.7279 27.8315 27.0017C27.8315 27.2756 28.0369 27.4962 28.2955 27.4962C28.5541 27.4962 28.7595 27.2756 28.7595 27.0017C28.7595 26.7279 28.5541 26.5073 28.2955 26.5073Z" fill="white"/>
<path d="M25.3974 28.7359C25.3974 28.5686 25.2681 28.4241 25.1084 28.4241C24.9486 28.4241 24.8193 28.561 24.8193 28.7359C24.8193 28.9109 24.9486 29.0402 25.1084 29.0402C25.2681 29.0402 25.3974 28.9033 25.3974 28.7359Z" fill="white"/>
<path d="M24.6826 30.5007C24.6826 30.7365 24.8652 30.9266 25.0858 30.9266C25.3063 30.9266 25.4889 30.7365 25.4889 30.5007C25.4889 30.2649 25.3063 30.0747 25.0858 30.0747C24.8652 30.0747 24.6826 30.2649 24.6826 30.5007Z" fill="white"/>
<path d="M25.0704 33.2466C24.8193 33.2466 24.6216 33.4596 24.6216 33.7258C24.6216 33.992 24.8193 34.1974 25.0704 34.1974C25.3214 34.1974 25.5191 33.9844 25.5191 33.7258C25.5191 33.4672 25.3214 33.2466 25.0704 33.2466Z" fill="white"/>
<path d="M26.7211 33.5889C26.6222 33.5889 26.5386 33.6725 26.5386 33.779C26.5386 33.8855 26.6222 33.9692 26.7211 33.9692C26.82 33.9692 26.9037 33.8855 26.9037 33.779C26.9037 33.6725 26.82 33.5889 26.7211 33.5889Z" fill="white"/>
<path d="M26.7056 31.9155C26.5915 31.9155 26.5078 32.0068 26.5078 32.1285C26.5078 32.2502 26.5991 32.3415 26.7056 32.3415C26.8121 32.3415 26.9033 32.2502 26.9033 32.1285C26.9033 32.0068 26.8121 31.9155 26.7056 31.9155Z" fill="white"/>
<path d="M26.7744 28.5002C26.6679 28.5002 26.5767 28.5915 26.5767 28.7132C26.5767 28.8349 26.6679 28.9262 26.7744 28.9262C26.8809 28.9262 26.9722 28.8349 26.9722 28.7132C26.9722 28.5915 26.8809 28.5002 26.7744 28.5002Z" fill="white"/>
<path d="M28.3638 28.5459C28.2726 28.5459 28.2041 28.622 28.2041 28.7132C28.2041 28.8045 28.2726 28.8806 28.3638 28.8806C28.4551 28.8806 28.516 28.8045 28.516 28.7132C28.516 28.622 28.4475 28.5459 28.3638 28.5459Z" fill="white"/>
<path d="M28.4781 14.5653C28.4781 14.5653 28.4781 14.5349 28.4781 14.5196C28.4781 14.185 28.7443 14.1698 28.7976 13.8275C28.8584 13.4548 28.5009 13.0516 28.0597 13.2874C27.8924 13.3787 27.8011 13.5308 27.8011 13.7438C27.8011 14.0861 28.0674 14.1317 28.0674 14.4588C28.0674 14.7326 27.8696 14.9988 27.5958 14.9988C27.2383 14.9988 27.0633 14.7478 27.0633 14.4284C27.0633 14.1545 27.3752 14.0176 27.3752 13.7134C27.3752 13.3787 27.1622 13.1505 26.8275 13.1505C26.4548 13.1505 26.3407 13.6449 25.9604 13.6449C25.6257 13.6449 25.5192 13.1657 25.1693 13.1657C24.7662 13.1657 24.8423 13.4243 24.4087 13.5536C24.3631 13.5689 24.2566 13.6221 24.0816 13.5384C23.7241 13.3711 23.7013 13.0288 23.7013 12.8995C23.7013 12.8158 23.8002 12.5572 23.861 12.5116C24.0588 12.3899 24.1425 12.1617 24.1425 12.0172C24.1425 11.6825 23.9219 11.4315 23.6024 11.4315C23.2221 11.4315 23.2449 11.6597 22.9787 11.7357C22.6668 11.8194 22.3626 11.5988 22.3626 11.2109C22.3626 10.9142 22.606 10.7013 22.8418 10.7013C23.1689 10.7013 23.1917 10.9599 23.5264 10.9599C23.6937 10.9599 23.8154 10.9142 23.9523 10.7849C24.1349 10.61 24.2109 10.3133 24.074 10.0395C24.0208 9.9254 23.9295 9.81891 23.861 9.71242C23.7622 9.50705 23.7926 9.26365 23.861 9.13434C23.9371 9.00503 24.112 8.8453 24.3783 8.87572C24.4924 8.89093 24.6141 8.95179 24.6749 9.00503C24.9031 9.18758 25.1769 9.27125 25.4432 9.04306C25.5725 8.93657 25.6181 8.76163 25.5953 8.59429C25.5801 8.44976 25.504 8.30524 25.3671 8.22157C24.9487 7.97056 24.7738 8.34328 24.5228 8.41934C24.3707 8.46498 24.2109 8.43455 24.1349 8.38891C23.8991 8.23679 23.7545 8.05423 23.8382 7.69673C23.9371 7.39248 24.287 7.09583 24.7662 7.4153C24.8803 7.50657 25.0096 7.57503 25.1161 7.57503C25.3595 7.57503 25.6029 7.34684 25.6029 7.0578C25.6029 6.76876 25.3823 6.54057 25.1161 6.54057C24.9564 6.54057 24.8575 6.60902 24.7358 6.72312C24.6141 6.83721 24.4695 6.91328 24.249 6.84482C24.0816 6.77636 24.0284 6.68509 23.9599 6.57099C23.8762 6.28195 23.7469 6.19067 23.5796 6.19067C23.3438 6.19067 23.2906 6.32759 23.1689 6.54057C23.0548 6.7003 22.8798 6.71551 22.7733 6.71551C22.6288 6.71551 22.4615 6.63945 22.2789 6.4569C22.1876 6.36562 22.1192 6.28956 22.0203 6.28956C21.8377 6.28956 21.7084 6.47971 21.5791 6.60902C21.4726 6.71551 21.3509 6.80679 21.1684 6.80679C21.0467 6.80679 20.9174 6.75354 20.8413 6.65466C20.6511 6.41126 20.3013 6.38844 20.1339 6.51775C19.7232 6.82961 19.8601 7.21753 20.0426 7.46854C20.1719 7.64349 20.21 7.90211 20.035 8.11508C19.9361 8.23679 19.8068 8.30524 19.6699 8.31285C19.5178 8.32806 19.3657 8.25961 19.2516 8.12269C19.1071 7.96296 19.1071 7.6511 19.2059 7.51418C19.32 7.34684 19.3961 7.22514 19.3505 7.00455C19.2668 6.56339 18.8332 6.40365 18.5214 6.59381C18.4681 6.63184 18.4225 6.66987 18.3921 6.71551C18.2932 6.822 18.1867 6.89807 17.9813 6.89807C17.8444 6.89807 17.6542 6.77636 17.6162 6.73072C17.1826 6.08418 17.852 5.87121 17.7988 5.28551C17.7759 5.01929 17.5706 4.87477 17.4413 4.64658C17.426 4.59333 17.4184 4.54009 17.4032 4.47924C17.4184 4.3119 17.601 4.16738 17.6923 3.99243H14.6497V11.7281C10.3978 11.7737 6.96729 15.4324 6.96729 19.943C6.96729 24.4536 10.3978 28.1122 14.6497 28.1579V36H17.5401C17.6466 35.8555 17.7835 35.6958 17.7988 35.5132C17.8292 35.0949 17.4489 34.9732 17.4184 34.6461C17.4184 34.5776 17.4337 34.5092 17.4717 34.4483C17.5858 34.2506 17.8292 34.0908 17.8748 33.8703C17.9509 33.4595 17.3804 33.2617 17.6238 32.7293C17.7379 32.4783 18.0117 32.387 18.2399 32.4631C18.6126 32.6 18.5138 32.9423 18.856 32.9423C19.1983 32.9423 19.1527 32.6761 19.3352 32.5467C19.6547 32.3262 19.9894 32.4555 20.1339 32.7065C20.248 32.9042 20.2176 33.1553 20.1415 33.2694C20.0655 33.3911 19.959 33.4975 19.959 33.7029C19.959 33.9996 20.1872 34.2354 20.461 34.2354C20.7348 34.2354 20.963 33.9996 20.963 33.7029C20.963 33.5356 20.8869 33.3911 20.7728 33.2922C20.7044 33.2161 20.674 33.0792 20.674 32.9499C20.674 32.6608 20.8793 32.4631 21.1836 32.425C21.2977 32.4098 21.465 32.4859 21.5335 32.562C21.6095 32.6456 21.64 32.7293 21.6704 32.8054C21.7465 33.0564 21.6095 33.2541 21.4878 33.4671C21.4194 33.566 21.3738 33.6801 21.3738 33.817C21.3738 34.1365 21.6248 34.4027 21.929 34.4027C22.0583 34.4027 22.18 34.3495 22.2789 34.2658C22.4767 34.1365 22.6744 33.9463 22.9407 34.0224C23.0548 34.0528 23.1232 34.1213 23.2069 34.1973C23.3134 34.319 23.4655 34.3951 23.6328 34.3951C23.9523 34.3951 24.2109 34.1213 24.2109 33.7866C24.2109 33.7029 24.1957 33.6192 24.1577 33.5432C24.1501 33.5204 24.1425 33.5051 24.1273 33.4823C24.0968 33.4215 24.0512 33.3682 24.0056 33.3226C23.9371 33.2465 23.8686 33.1629 23.8458 33.0183C23.8078 32.8282 23.8686 32.6761 23.9295 32.562C24.0284 32.3794 24.3174 32.2881 24.5228 32.3338C24.5912 32.349 24.6521 32.3946 24.7129 32.4403C24.8042 32.5696 24.9487 32.6456 25.1085 32.6456C25.3823 32.6456 25.6029 32.4098 25.6029 32.1208C25.6029 31.8317 25.3823 31.5959 25.1085 31.5959C24.7738 31.5959 24.7814 31.923 24.3859 31.923C24.1957 31.923 24.0436 31.847 23.9295 31.6644C23.785 31.4362 23.8458 31.17 23.9143 31.0331C23.9675 30.9342 24.0436 30.8429 24.1044 30.744C24.1957 30.6299 24.249 30.493 24.249 30.3333C24.249 29.9834 23.9827 29.6944 23.6481 29.6944C23.5111 29.6944 23.3818 29.7476 23.2829 29.8237C23.2753 29.8237 23.2677 29.8389 23.2601 29.8465C23.2601 29.8465 23.2373 29.8769 23.2221 29.8845C23.2145 29.8845 23.2069 29.8997 23.1993 29.9073C23.1612 29.9454 23.1308 29.9682 23.0548 30.0062C22.6897 30.1812 22.2789 29.7476 22.4615 29.3597C22.5223 29.2228 22.6136 29.1087 22.7505 29.0782C23.108 29.0022 23.1612 29.1771 23.3058 29.2836C23.3818 29.3369 23.4731 29.3521 23.5644 29.3521C23.8686 29.3521 24.112 29.0935 24.112 28.774C24.112 28.561 24.0056 28.3861 23.8534 28.2796C23.8382 28.2644 23.823 28.2568 23.8078 28.2568C23.7393 28.2187 23.6557 28.1959 23.572 28.1959C23.2906 28.1959 23.2525 28.3708 23.0624 28.4393C22.7961 28.5458 22.5299 28.4013 22.431 28.1579C22.2637 27.7623 22.5908 27.2907 23.0472 27.4277C23.2221 27.4809 23.321 27.6254 23.4275 27.6863C23.5187 27.7395 23.5796 27.7547 23.6785 27.7547C23.9903 27.7547 24.249 27.4885 24.249 27.1538C24.249 27.1006 24.2414 27.0473 24.2261 27.0017C24.2261 27.0017 24.2261 26.9865 24.2261 26.9789C24.2109 26.8344 24.0588 26.7127 23.9827 26.591C23.8306 26.3399 23.9447 26.0205 24.1881 25.8607C24.3022 25.7847 24.4924 25.7695 24.6217 25.8151C24.8423 25.8912 25.0552 26.2487 24.9259 26.4921C24.7966 26.7431 24.6901 26.7887 24.6901 26.9865C24.6901 27.2984 24.9792 27.5113 25.1541 27.5113C25.253 27.5113 25.4356 27.4885 25.542 27.3592C25.7931 27.0549 25.6866 26.8268 25.542 26.5681C25.4508 26.4084 25.4356 26.203 25.542 26.0205C25.6181 25.8912 25.7398 25.7771 25.8919 25.7467C26.2114 25.6858 26.5537 25.9672 26.5233 26.3399C26.5081 26.5453 26.4244 26.5986 26.3331 26.7507C26.181 27.0017 26.3559 27.3516 26.5917 27.4657C26.9416 27.633 27.3752 27.3136 27.2915 26.8648C27.2383 26.5986 27.0785 26.5834 27.0405 26.3932C27.0177 26.2563 26.9796 26.1574 27.1318 25.9064C27.2915 25.6326 27.649 25.6173 27.938 25.8379C28.0369 25.914 28.113 26.0129 28.2195 26.0509C28.4096 26.1118 28.6226 26.0661 28.7595 25.9292C29.0029 25.6934 28.9877 25.4196 28.9269 25.2522C28.8508 25.0393 28.615 24.9023 28.6074 24.5829C28.5998 24.2558 28.8432 24.0656 28.9421 23.8298C29.0105 23.6777 29.0334 23.4952 28.8736 23.2518C28.7976 23.1453 28.6835 23.0692 28.5694 23.054C28.402 23.0312 28.2651 23.0768 28.1358 23.1529C27.9609 23.267 27.7631 23.4419 27.5273 23.3811C27.4665 23.3659 27.3143 23.3506 27.2307 23.2442C26.9492 22.8943 27.1318 22.6204 27.2611 22.3314C27.3676 22.0956 27.4208 21.8294 27.1698 21.586C26.9796 21.4034 26.6602 21.4338 26.4548 21.586C26.3559 21.6544 26.2799 21.6925 26.1886 21.7685C25.93 21.8674 25.7322 21.8066 25.5877 21.662C25.4888 21.5631 25.4279 21.3806 25.4279 21.2513C25.4432 20.9242 25.7778 20.8329 25.7778 20.3918C25.7778 19.8897 25.3519 19.9126 25.3519 19.3573C25.3519 19.2356 25.4356 19.053 25.5344 18.9618C25.6637 18.8553 25.7626 18.8096 25.8463 18.8096C26.3863 18.8096 26.2494 19.1595 26.7058 19.1595C26.8503 19.1595 27.0025 19.0759 27.1013 18.9694C27.3295 18.726 27.2535 18.3457 27.1394 18.2163C27.0025 18.0642 26.896 17.798 27.0557 17.5013C27.1774 17.2732 27.4512 17.1591 27.6946 17.2579C27.8696 17.3264 27.8544 17.4253 28.0597 17.5318C28.3716 17.7143 28.7291 17.5318 28.8508 17.2579C29.0866 16.7179 28.6074 16.6038 28.5922 16.2387C28.577 15.8432 28.9725 15.7215 29.0105 15.3944C29.0562 15.0445 28.5846 14.8467 28.5237 14.5196L28.4781 14.5653ZM22.819 7.47615C23.0015 7.47615 23.146 7.63588 23.146 7.82604C23.146 8.0162 22.9787 8.17594 22.819 8.17594C22.6364 8.17594 22.4843 8.0162 22.4843 7.82604C22.4843 7.63588 22.6364 7.47615 22.819 7.47615ZM22.857 9.19519C23.0624 9.19519 23.2297 9.37014 23.2297 9.58311C23.2297 9.79609 23.0472 9.97104 22.857 9.97865C22.6516 9.97865 22.4843 9.8037 22.4843 9.58311C22.4843 9.36253 22.6516 9.19519 22.857 9.19519ZM22.857 30.9266C23.0395 30.9266 23.1841 31.0787 23.1841 31.2765C23.1841 31.4742 23.0395 31.6264 22.857 31.6264C22.6744 31.6264 22.5299 31.4666 22.5299 31.2765C22.5299 31.0863 22.6744 30.9266 22.857 30.9266ZM22.819 32.5924C23.0395 32.5924 23.2221 32.7825 23.2221 33.0183C23.2221 33.2541 23.0395 33.4443 22.819 33.4443C22.5984 33.4443 22.4158 33.2541 22.4158 33.0183C22.4158 32.7825 22.5984 32.5924 22.819 32.5924ZM21.2064 11.0055C21.3129 11.0055 21.3966 11.0968 21.3966 11.2033C21.3966 11.3098 21.3053 11.401 21.2064 11.401C21.0999 11.401 21.0163 11.3098 21.0163 11.2033C21.0163 11.0968 21.0999 11.0055 21.2064 11.0055ZM21.0163 9.48423C21.0163 9.37774 21.0999 9.28647 21.2064 9.28647C21.3129 9.28647 21.3966 9.37774 21.3966 9.48423C21.3966 9.59072 21.3053 9.682 21.2064 9.682C21.0999 9.682 21.0163 9.59072 21.0163 9.48423ZM21.176 7.33163C21.4118 7.33163 21.5943 7.52939 21.5943 7.7728C21.5943 8.0162 21.3814 8.21397 21.176 8.22157C20.9478 8.22157 20.7576 8.02381 20.7576 7.7728C20.7576 7.52179 20.9478 7.33163 21.176 7.33163ZM16.2547 7.83365C16.2547 7.68152 16.3764 7.55221 16.5209 7.55221C16.6654 7.55221 16.7871 7.67392 16.7871 7.83365C16.7871 7.99338 16.673 8.11508 16.5209 8.11508C16.3688 8.11508 16.2547 7.99338 16.2547 7.83365ZM17.8292 9.49184C17.8292 9.35492 17.9357 9.24843 18.065 9.24843C18.1943 9.24843 18.3008 9.35492 18.3008 9.49184C18.3008 9.62875 18.1867 9.73524 18.065 9.74285C17.9357 9.74285 17.8292 9.62875 17.8292 9.49184ZM19.6395 9.18758C19.7992 9.18758 19.9285 9.3245 19.9285 9.49184C19.9285 9.65918 19.784 9.79609 19.6395 9.79609C19.4798 9.79609 19.3505 9.65918 19.3505 9.49184C19.3505 9.3245 19.4798 9.18758 19.6395 9.18758ZM18.0726 7.2936C18.3388 7.2936 18.5518 7.52179 18.5518 7.79562C18.5518 8.06945 18.3388 8.30524 18.0726 8.30524C17.8064 8.30524 17.5934 8.07705 17.5934 7.79562C17.5934 7.51418 17.8064 7.2936 18.0726 7.2936ZM16.5665 4.0761C16.8023 4.0761 16.9925 4.28147 16.9925 4.52488C16.9925 4.76828 16.8023 4.97365 16.5665 4.97365C16.3307 4.97365 16.1406 4.76828 16.1406 4.52488C16.1406 4.28147 16.3307 4.0761 16.5665 4.0761ZM16.5361 5.7495C16.7567 5.7495 16.9316 5.93966 16.9316 6.16785C16.9316 6.39604 16.7491 6.5862 16.5361 6.5862C16.3231 6.5862 16.1406 6.39604 16.1406 6.16785C16.1406 5.93966 16.3155 5.7495 16.5361 5.7495ZM16.5361 32.6761C16.7034 32.6761 16.8404 32.8206 16.8404 32.9955C16.8404 33.1705 16.7034 33.315 16.5361 33.315C16.3688 33.315 16.2318 33.1705 16.2318 32.9955C16.2318 32.8206 16.3688 32.6761 16.5361 32.6761ZM16.3003 31.3145C16.3003 31.2232 16.3688 31.1472 16.46 31.1472C16.5513 31.1472 16.6198 31.2232 16.6198 31.3145C16.6198 31.4058 16.5513 31.4819 16.46 31.4819C16.3688 31.4819 16.3003 31.4058 16.3003 31.3145ZM16.5817 35.0568C16.3612 35.0568 16.1786 34.8667 16.1786 34.6309C16.1786 34.3951 16.3612 34.2049 16.5817 34.2049C16.8023 34.2049 16.9849 34.3951 16.9849 34.6309C16.9849 34.8667 16.8023 35.0568 16.5817 35.0568ZM18.0574 31.5959C17.9205 31.5959 17.814 31.4819 17.814 31.3373C17.814 31.1928 17.9205 31.0787 18.0574 31.0787C18.1943 31.0787 18.3008 31.1928 18.3008 31.3373C18.3008 31.4819 18.1943 31.5959 18.0574 31.5959ZM19.5939 31.672C19.4265 31.672 19.2896 31.5275 19.2896 31.3449C19.2896 31.1624 19.4265 31.0179 19.5939 31.0179C19.7612 31.0179 19.8981 31.17 19.8981 31.3449C19.8981 31.5199 19.7612 31.672 19.5939 31.672ZM21.2064 31.5275C21.0923 31.5275 21.0086 31.4286 21.0086 31.3145C21.0086 31.2004 21.0999 31.1015 21.2064 31.1015C21.3129 31.1015 21.4042 31.2004 21.4042 31.3145C21.4042 31.4286 21.3129 31.5275 21.2064 31.5275ZM21.0467 29.6031C21.0467 29.5042 21.1227 29.4205 21.2216 29.4205C21.3205 29.4205 21.3966 29.5042 21.3966 29.6031C21.3966 29.702 21.3205 29.7856 21.2216 29.7856C21.1227 29.7856 21.0467 29.702 21.0467 29.6031ZM21.2444 28.1579C21.1303 28.1579 21.0467 28.0666 21.0467 27.9449C21.0467 27.8232 21.138 27.7319 21.2444 27.7319C21.3509 27.7319 21.4422 27.8232 21.4422 27.9449C21.4422 28.0666 21.3509 28.1579 21.2444 28.1579ZM22.8114 26.6594C22.6136 26.6594 22.4539 26.4921 22.4539 26.2791C22.4539 26.0661 22.6136 25.8988 22.8114 25.8988C23.0091 25.8988 23.1689 26.0661 23.1689 26.2791C23.1689 26.4921 23.0091 26.6594 22.8114 26.6594ZM22.5603 14.5044C22.5603 14.3447 22.6897 14.2078 22.8418 14.2078C22.9939 14.2078 23.1232 14.3371 23.1232 14.5044C23.1232 14.6718 22.9863 14.8011 22.8418 14.8011C22.6897 14.8011 22.5603 14.6718 22.5603 14.5044ZM22.8494 13.3559C22.5832 13.3559 22.3626 13.1277 22.3626 12.8462C22.3626 12.5648 22.5756 12.3366 22.8494 12.3366C23.1232 12.3366 23.3286 12.5648 23.3286 12.8462C23.3286 13.1277 23.0928 13.3559 22.8494 13.3559ZM24.4087 14.0024C24.6521 14.0024 24.8499 14.2078 24.8499 14.4664C24.8499 14.725 24.6293 14.9304 24.4087 14.9304C24.1653 14.9304 23.9675 14.725 23.9675 14.4664C23.9675 14.2078 24.1653 14.0024 24.4087 14.0024ZM24.3935 17.6307C24.5532 17.6307 24.6825 17.7676 24.6825 17.9349C24.6825 18.1022 24.538 18.2392 24.3935 18.2392C24.2337 18.2392 24.1044 18.1022 24.1044 17.9349C24.1044 17.7676 24.2337 17.6307 24.3935 17.6307ZM24.2033 16.2083C24.2033 16.117 24.2718 16.0485 24.3554 16.0485C24.4391 16.0485 24.5076 16.117 24.5076 16.2083C24.5076 16.2995 24.4315 16.368 24.3554 16.368C24.2718 16.368 24.2033 16.2995 24.2033 16.2083ZM24.3859 24.8263C24.2718 24.8263 24.1729 24.7274 24.1729 24.6057C24.1729 24.484 24.2718 24.3851 24.3859 24.3851C24.5 24.3851 24.5989 24.484 24.5989 24.6057C24.5989 24.7274 24.5076 24.8263 24.3859 24.8263ZM24.3859 23.1148C24.2718 23.1148 24.1729 23.016 24.1729 22.8943C24.1729 22.7726 24.2718 22.6661 24.3859 22.6661C24.5 22.6661 24.5989 22.765 24.5989 22.8943C24.5989 23.0236 24.5076 23.1148 24.3859 23.1148ZM24.4543 21.6088C24.249 21.6088 24.074 21.4262 24.074 21.2056C24.074 20.9851 24.249 20.8025 24.4543 20.8025C24.6597 20.8025 24.8347 20.9851 24.8347 21.2056C24.8347 21.4262 24.6597 21.6088 24.4543 21.6088ZM24.4771 19.9962C24.249 19.9962 24.0664 19.7985 24.0664 19.5627C24.0664 19.3269 24.249 19.1291 24.4771 19.1291C24.7053 19.1291 24.8879 19.3269 24.8879 19.5627C24.8879 19.7985 24.6825 19.9962 24.4771 19.9962ZM27.5805 24.1645C27.8011 24.1645 27.9837 24.3547 27.9837 24.5905C27.9837 24.8263 27.8011 25.0164 27.5805 25.0164C27.36 25.0164 27.1774 24.8263 27.1774 24.5905C27.1774 24.3547 27.36 24.1645 27.5805 24.1645ZM25.968 24.8567C25.8311 24.8567 25.7246 24.735 25.7246 24.5905C25.7246 24.446 25.8311 24.3319 25.968 24.3319C26.1049 24.3319 26.219 24.446 26.219 24.5905C26.219 24.735 26.1049 24.8567 25.968 24.8567ZM26.0136 22.4151C26.2266 22.4151 26.4016 22.5976 26.4016 22.8258C26.4016 23.054 26.2266 23.2365 26.0136 23.2365C25.8007 23.2365 25.6257 23.054 25.6257 22.8258C25.6257 22.5976 25.8007 22.4151 26.0136 22.4151ZM25.9984 15.9496C26.1353 15.9496 26.2494 16.0713 26.2494 16.2159C26.2494 16.3604 26.1277 16.4821 25.9984 16.4821C25.8615 16.4821 25.7474 16.3604 25.7474 16.2159C25.7474 16.0713 25.8615 15.9496 25.9984 15.9496ZM25.9984 18.4902C25.7322 18.4902 25.5192 18.262 25.5192 17.9805C25.5192 17.6991 25.7322 17.4709 25.9984 17.4709C26.2646 17.4709 26.4776 17.6991 26.4776 17.9805C26.4776 18.262 26.2418 18.4826 25.9984 18.4902ZM27.5653 16.6951C27.3371 16.6951 27.1546 16.5049 27.1546 16.2615C27.1546 16.0181 27.3371 15.8279 27.5653 15.8279C27.7935 15.8279 27.9761 16.0181 27.9761 16.2615C27.9761 16.5049 27.7707 16.6951 27.5653 16.6951Z" fill="white"/>
<path d="M25.1467 35.1406C25.0098 35.1406 24.9033 35.2547 24.9033 35.3992C24.9033 35.5438 25.0098 35.6579 25.1467 35.6579C25.2836 35.6579 25.3901 35.5438 25.3901 35.3992C25.3901 35.2547 25.2836 35.1406 25.1467 35.1406Z" fill="white"/>
<path d="M23.5722 34.9656C23.3592 34.9656 23.1919 35.1481 23.1919 35.3687C23.1919 35.5893 23.3592 35.7719 23.5722 35.7719C23.7852 35.7719 23.9525 35.5893 23.9525 35.3687C23.9525 35.1481 23.7776 34.9656 23.5722 34.9656Z" fill="white"/>
<path d="M22.0507 34.9656C21.8378 34.9656 21.6704 35.1481 21.6704 35.3687C21.6704 35.5893 21.8454 35.7719 22.0507 35.7719C22.2561 35.7719 22.431 35.5893 22.431 35.3687C22.431 35.1481 22.2637 34.9656 22.0507 34.9656Z" fill="white"/>
<path d="M20.4457 35.1633C20.324 35.1633 20.2251 35.2698 20.2251 35.3991C20.2251 35.5284 20.324 35.6349 20.4457 35.6349C20.5674 35.6349 20.6739 35.5284 20.6739 35.3991C20.6739 35.2698 20.575 35.1633 20.4457 35.1633Z" fill="white"/>
<path d="M18.7875 35.072C18.605 35.072 18.4604 35.2241 18.4604 35.4143C18.4604 35.6045 18.605 35.7566 18.7875 35.7566C18.9701 35.7566 19.107 35.6045 19.107 35.4143C19.107 35.2241 18.9625 35.072 18.7875 35.072Z" fill="white"/>
<path d="M9.57622 19.8668C9.57622 16.6189 12.0635 13.9795 15.1365 13.9795V4.01514H14.2389C13.8358 4.01514 13.5391 4.3346 13.4935 4.72253L13.1284 7.01965C13.0371 7.45322 12.5047 7.62056 12.5047 7.62056C12.1624 7.69662 11.8277 7.7879 11.5006 7.90199C11.4246 7.9172 10.953 8.00848 10.6944 7.71183L9.29478 5.91673C9.06659 5.60487 8.65584 5.48317 8.31356 5.69614L6.8075 6.61652C6.46521 6.82949 6.35111 7.26306 6.49564 7.62816L7.26388 9.81119C7.38558 10.2295 7.00526 10.6555 7.00526 10.6555H7.01287C6.76186 10.8989 6.51085 11.1575 6.28266 11.4237C6.28266 11.4237 5.87952 11.8269 5.48399 11.6976L3.42266 10.8837C3.08037 10.7316 2.66202 10.8457 2.46426 11.2108L1.58953 12.8081C1.39176 13.1732 1.50586 13.6068 1.7949 13.8502L3.49112 15.3334C3.77255 15.6072 3.68128 16.1093 3.66606 16.1853C3.55958 16.5352 3.47591 16.8851 3.39984 17.2502C3.39984 17.2502 3.24011 17.8055 2.83697 17.9044L0.661548 18.2847C0.288836 18.3379 -0.0078125 18.6498 -0.0078125 19.0757V20.9165C-0.0078125 21.3348 0.296442 21.6543 0.661548 21.7076L2.83697 22.0955C3.24011 22.1944 3.39984 22.7572 3.39984 22.7572C3.47591 23.1071 3.55958 23.4646 3.66606 23.8145C3.68128 23.8982 3.77255 24.3926 3.49112 24.6664L1.7949 26.1497C1.49825 26.3931 1.38415 26.8266 1.58953 27.1917L2.46426 28.7891C2.66202 29.1542 3.07277 29.2683 3.42266 29.1162L5.48399 28.3023C5.87952 28.173 6.28266 28.5761 6.28266 28.5761C6.51845 28.8347 6.76186 29.0933 7.01287 29.3443H7.00526C7.00526 29.3443 7.38558 29.7627 7.26388 30.1887L6.49564 32.3717C6.35111 32.7368 6.4576 33.1704 6.8075 33.3833L8.31356 34.3037C8.65584 34.5167 9.07419 34.395 9.29478 34.0831L10.6944 32.288C10.9606 31.9838 11.4474 32.0903 11.5082 32.1055C11.8353 32.2196 12.17 32.3108 12.5123 32.3869H12.5047C12.5047 32.3869 13.0371 32.5542 13.1284 32.9802L13.4935 35.2773C13.5467 35.6652 13.8434 35.9923 14.2389 35.9923H15.1365V25.777C12.0635 25.777 9.57622 23.1452 9.57622 19.8972V19.8668Z" fill="url(#paint1_linear_5757_9739)"/>
</g>
<defs>
<linearGradient id="paint0_linear_5757_9739" x1="42.3275" y1="18.3635" x2="6.07433" y2="18.3635" gradientUnits="userSpaceOnUse">
<stop stop-color="white"/>
<stop offset="0.02" stop-color="#EFFAFE"/>
<stop offset="0.1" stop-color="#B1E6FA"/>
<stop offset="0.19" stop-color="#7BD5F6"/>
<stop offset="0.27" stop-color="#4EC7F3"/>
<stop offset="0.35" stop-color="#2CBCF1"/>
<stop offset="0.42" stop-color="#14B4F0"/>
<stop offset="0.49" stop-color="#05AFEF"/>
<stop offset="0.54" stop-color="#00AEEF"/>
<stop offset="0.62" stop-color="#04A1E5"/>
<stop offset="0.75" stop-color="#117FCC"/>
<stop offset="0.93" stop-color="#2549A3"/>
<stop offset="1" stop-color="#2E3192"/>
</linearGradient>
<linearGradient id="paint1_linear_5757_9739" x1="49.6496" y1="18.3638" x2="4.21281" y2="18.3638" gradientUnits="userSpaceOnUse">
<stop stop-color="white"/>
<stop offset="0.02" stop-color="#EFFAFE"/>
<stop offset="0.1" stop-color="#B1E6FA"/>
<stop offset="0.19" stop-color="#7BD5F6"/>
<stop offset="0.27" stop-color="#4EC7F3"/>
<stop offset="0.35" stop-color="#2CBCF1"/>
<stop offset="0.42" stop-color="#14B4F0"/>
<stop offset="0.49" stop-color="#05AFEF"/>
<stop offset="0.54" stop-color="#00AEEF"/>
<stop offset="0.62" stop-color="#04A1E5"/>
<stop offset="0.75" stop-color="#117FCC"/>
<stop offset="0.93" stop-color="#2549A3"/>
<stop offset="1" stop-color="#2E3192"/>
</linearGradient>
<clipPath id="clip0_5757_9739">
<rect width="175.563" height="32" fill="white" transform="translate(0 4)"/>
</clipPath>
</defs>
</svg>
