<svg width="92" height="40" viewBox="0 0 92 40" fill="none" xmlns="http://www.w3.org/2000/svg">
<g clip-path="url(#clip0_5726_36699)">
<path d="M57.0406 19.0293C68.5729 13.1202 67.1306 7.46664 55.3914 6.30428C42.7455 5.04455 24.2634 7.76483 11.3923 12.968L9.60921 13.7348C-3.79744 19.7292 -2.53163 26.0765 9.43881 27.2328C22.5168 28.4986 42.3986 25.9122 55.4158 19.8509L57.0406 19.0354V19.0293Z" fill="#004093"/>
<path d="M54.5456 20.1916C54.5456 20.1916 52.3426 20.3681 52.2878 18.5911V15.1527C52.2878 15.1527 52.014 13.2601 54.4847 13.2601C54.4847 13.2601 56.0913 13.2053 56.5173 14.1608C56.5173 14.1608 56.7243 14.4164 56.6695 15.4692H54.9533V14.9276C54.9533 14.9276 54.9533 14.4894 54.5091 14.4894C54.5091 14.4894 54.0466 14.5077 54.0466 14.8728V18.4268C54.0466 18.4268 54.0283 18.9076 54.5517 18.9076C54.5517 18.9076 54.9777 18.8954 54.9777 18.3964V17.3679H54.5091V16.4125H56.7121V18.4329C56.7121 18.4329 56.7121 18.8589 56.5295 19.1084C56.5295 19.1084 56.353 19.3822 56.28 19.4309C56.28 19.4309 55.6897 20.1916 54.5456 20.1916Z" fill="white"/>
<path d="M50.0178 13.5159H48.3017L48.4234 17.4533H48.3504L46.6099 13.522H44.5347V20.0092H46.2265L46.123 16.0414H46.2021L47.9974 20.0092H50.0178V13.5159Z" fill="white"/>
<path d="M39.4046 13.4915H37.5484V18.36C37.5484 18.36 37.3598 20.2039 39.9584 20.2039C39.9584 20.2039 42.2161 20.2283 42.2161 18.4452V13.4915H40.4026V18.3843C40.4026 18.3843 40.4269 18.9198 39.934 18.9198C39.934 18.9198 39.4106 18.9442 39.4106 18.3965V13.4915H39.4046Z" fill="white"/>
<path d="M35.4182 15.4996V14.6841C35.4182 14.6841 35.546 13.3514 33.4039 13.2905C33.4039 13.2905 31.7182 13.181 31.2374 14.0877C31.2374 14.0877 31.0487 14.2886 31.0487 14.9945V15.5057C31.0487 15.5057 31.0305 16.096 31.3287 16.4733C31.3287 16.4733 31.4991 16.7228 31.919 16.9967C31.919 16.9967 32.771 17.4531 33.2761 17.7148C33.2761 17.7148 33.7934 18.0069 33.7203 18.4755C33.7203 18.4755 33.6777 18.9563 33.1848 18.938C33.1848 18.938 32.7284 18.9197 32.7284 18.4511V17.8973H30.9088V18.7007C30.9088 18.7007 30.8601 20.2342 33.197 20.2342C33.197 20.2342 35.4304 20.2829 35.5339 18.6581V18.0069C35.5339 18.0069 35.613 17.0149 34.7427 16.4916C34.7427 16.4916 34.2802 16.2055 33.9942 16.096C33.9942 16.096 33.1057 15.6822 32.9292 15.4874C32.9292 15.4874 32.5823 15.1588 32.7831 14.7815C32.7831 14.7815 32.8683 14.532 33.2335 14.532C33.2335 14.532 33.7082 14.5563 33.7082 14.9519V15.5057H35.4182V15.4996Z" fill="white"/>
<path d="M21.89 13.5159L21.75 20.0092H23.4357L23.4601 15.1164H23.5939L24.4885 20.0092H26.2655L27.148 15.1225H27.2636L27.3062 20.0092H29.0041L28.8215 13.5159H25.9978L25.4257 17.0699H25.2918L24.7441 13.5159H21.89Z" fill="white"/>
<path d="M19.9364 20.0031L18.8105 13.5098H15.9381L14.8184 20.0031H16.638L17.3013 14.9703H17.4534L18.1168 20.0031H19.9364Z" fill="white"/>
<path d="M13.0354 15.4996V14.6841C13.0354 14.6841 13.1632 13.3514 11.0211 13.2905C11.0211 13.2905 9.33535 13.181 8.85458 14.0877C8.85458 14.0877 8.66593 14.2886 8.66593 14.9945V15.5057C8.66593 15.5057 8.64767 16.096 8.94587 16.4733C8.94587 16.4733 9.11626 16.7228 9.53617 16.9967C9.53617 16.9967 10.3882 17.4531 10.8933 17.7148C10.8933 17.7148 11.4105 18.0069 11.3375 18.4755C11.3375 18.4755 11.2949 18.9563 10.802 18.938C10.802 18.938 10.3456 18.9197 10.3456 18.4511V17.8973H8.52596V18.7007C8.52596 18.7007 8.47727 20.2342 10.8142 20.2342C10.8142 20.2342 13.0476 20.2829 13.151 18.6581V18.0069C13.151 18.0069 13.2302 17.0149 12.3599 16.4916C12.3599 16.4916 11.8974 16.2055 11.6114 16.096C11.6114 16.096 10.7229 15.6822 10.5464 15.4874C10.5464 15.4874 10.1995 15.1588 10.4003 14.7815C10.4003 14.7815 10.4855 14.532 10.8507 14.532C10.8507 14.532 11.3253 14.5563 11.3253 14.9519V15.5057H13.0354V15.4996Z" fill="white"/>
<path d="M77.1902 24.5186H76.0278V27.5735H77.1902V24.5186Z" fill="#004093"/>
<path d="M82.1194 24.5186H80.957V27.5735H82.1194V24.5186Z" fill="#004093"/>
<path d="M81.6813 24.5125H76.6484V25.5105H81.6813V24.5125Z" fill="#004093"/>
<path d="M81.6813 26.5754H76.6484V27.5674H81.6813V26.5754Z" fill="#004093"/>
<path d="M82.7891 28.1516H75.3403V29.1436H82.7891V28.1516Z" fill="#004093"/>
<path d="M79.6121 28.7297H78.4497V30.3607H79.6121V28.7297Z" fill="#004093"/>
<path d="M82.1135 29.7461H80.9512V32.1743H82.1135V29.7461Z" fill="#004093"/>
<path d="M77.1902 31.1946H76.0278V33.7505H77.1902V31.1946Z" fill="#004093"/>
<path d="M81.6816 29.7461H76.0098V30.7381H81.6816V29.7461Z" fill="#004093"/>
<path d="M82.1136 31.1946H76.1436V32.1865H82.1136V31.1946Z" fill="#004093"/>
<path d="M82.1136 32.7585H76.1436V33.7505H82.1136V32.7585Z" fill="#004093"/>
<path d="M90.1953 24.2751H89.0391V30.7685H90.1953V24.2751Z" fill="#004093"/>
<path d="M91.2846 26.4111H89.3677V27.4031H91.2846V26.4111Z" fill="#004093"/>
<path d="M85.6919 29.6731H84.5356V33.7322H85.6919V29.6731Z" fill="#004093"/>
<path d="M90.2438 32.7341H84.645V33.7261H90.2438V32.7341Z" fill="#004093"/>
<path d="M85.6857 26.8251C85.3267 27.9632 83.8844 28.9125 83.8844 28.9125L83.2637 28.0605C85.2841 27.0503 85.1259 24.397 85.1259 24.397H86.2395C86.2395 24.397 86.0813 27.0503 88.1017 28.0605L87.481 28.9125C87.481 28.9125 86.0387 27.9632 85.6797 26.8251" fill="#004093"/>
<path d="M65.0493 24.3604V29.2593H66.236V27.4336H67.2827V26.4295H66.2543V24.3604H65.0493Z" fill="#004093"/>
<path d="M65.0981 30.6407H61.751V32.6915H65.0981V30.6407ZM60.5947 29.6609H66.2544V33.6713H60.5947V29.6609Z" fill="#004093"/>
<path d="M73.4477 31.6023C73.4477 30.866 72.5592 30.2635 71.4699 30.2635C70.3806 30.2635 69.4921 30.8599 69.4921 31.6023C69.4921 32.3448 70.3806 32.9412 71.4699 32.9412C72.5592 32.9412 73.4477 32.3448 73.4477 31.6023ZM71.4699 34.0001C69.7112 34.0001 68.2871 32.929 68.2871 31.6023C68.2871 30.2757 69.7112 29.2046 71.4699 29.2046C73.2287 29.2046 74.6527 30.2757 74.6527 31.6023C74.6527 32.929 73.2287 34.0001 71.4699 34.0001Z" fill="#004093"/>
<path d="M62.2135 24.5369C62.2135 24.5369 62.0553 27.1902 64.2035 28.2856L63.5889 29.1376C63.5889 29.1376 62.0127 28.097 61.6597 26.9589C61.3007 28.097 59.7306 29.1376 59.7306 29.1376L59.1099 28.2856C61.2581 27.1841 61.0999 24.5369 61.0999 24.5369H62.2135Z" fill="#004093"/>
<path d="M69.6562 26.965C69.2972 28.103 67.8549 29.0524 67.8549 29.0524L67.2402 28.2004C69.2546 27.1902 69.0964 24.5369 69.0964 24.5369H70.21C70.21 24.5369 70.0518 27.1902 72.0661 28.2004L71.4515 29.0524C71.4515 29.0524 70.0092 28.103 69.6501 26.965" fill="#004093"/>
<path d="M74.4214 24.3542V29.2593H73.2408V27.0076H71.7012V26.0035H73.2165V24.3542H74.4214Z" fill="#004093"/>
</g>
<defs>
<clipPath id="clip0_5726_36699">
<rect width="91.2845" height="28" fill="white" transform="translate(0 6)"/>
</clipPath>
</defs>
</svg>
