<svg width="155" height="40" viewBox="0 0 155 40" fill="none" xmlns="http://www.w3.org/2000/svg">
<g clip-path="url(#clip0_5726_36702)">
<path d="M52.2764 20.0027C52.2764 17.4046 52.2764 14.8065 52.2764 12.2056C52.2764 11.334 52.2875 11.2004 53.2371 11.2032C55.6207 11.2115 58.0072 11.1948 60.3908 11.2115C61.2457 11.2171 62.0978 11.3229 62.9221 11.5707C63.5709 11.7685 64.1808 12.0497 64.721 12.4563C65.9295 13.3641 66.6424 14.5642 66.8067 16.0791C66.9069 16.998 66.8874 17.903 66.6535 18.8053C66.3806 19.8495 65.7986 20.6877 64.9939 21.3839C64.6458 21.6846 64.2615 21.9352 63.8577 22.1524C63.7241 22.2248 63.596 22.3056 63.4679 22.3891C63.3704 22.4532 63.3231 22.623 63.376 22.7121C63.4985 22.9238 63.621 23.1354 63.7575 23.3359C64.7711 24.8257 65.7903 26.3155 66.8067 27.8053C66.893 27.9306 66.9738 28.0615 67.0545 28.1896C67.1074 28.2731 67.0684 28.4513 66.9766 28.5209C66.8791 28.5933 66.7816 28.6657 66.673 28.7159C66.5923 28.7521 66.4948 28.766 66.4057 28.766C65.3364 28.7688 64.2671 28.766 63.195 28.766C62.9945 28.766 62.8469 28.6685 62.7327 28.5126C62.6074 28.3399 62.4933 28.1589 62.3735 27.9807C61.4212 26.5577 60.4688 25.1376 59.5137 23.7146C59.4106 23.5642 59.302 23.4139 59.1795 23.2802C59.1238 23.2162 59.0264 23.1883 58.9456 23.1521C58.9205 23.141 58.8844 23.141 58.8537 23.141C58.0907 23.1438 57.3249 23.1438 56.5619 23.1521C56.3893 23.1521 56.2139 23.3387 56.2055 23.5086C56.1999 23.6004 56.2055 23.6923 56.2055 23.7814C56.2083 25.0958 56.2111 26.4102 56.2139 27.7245C56.2139 27.847 56.2139 27.9696 56.2055 28.0921C56.1749 28.5376 55.966 28.7548 55.501 28.7632C54.6461 28.7771 53.7884 28.7715 52.9335 28.7576C52.7887 28.7576 52.6412 28.6797 52.5019 28.624C52.3822 28.5738 52.307 28.4736 52.2986 28.3427C52.2847 28.0698 52.2764 27.7941 52.2764 27.5185C52.2764 25.0123 52.2764 22.5033 52.2764 19.9971V20.0027ZM56.1999 17.1985C56.1999 17.1985 56.2111 17.1985 56.2167 17.1985C56.2167 17.6274 56.2194 18.0562 56.2167 18.4823C56.2167 18.7579 56.1972 19.0308 56.1944 19.3065C56.1944 19.4318 56.3615 19.6128 56.484 19.6267C56.6343 19.6435 56.7875 19.6629 56.9407 19.6629C57.9487 19.6657 58.9595 19.6685 59.9676 19.6629C60.2433 19.6629 60.5162 19.6379 60.7918 19.61C61.1622 19.5738 61.5075 19.4457 61.8222 19.2536C62.3095 18.9556 62.6325 18.5407 62.7968 17.9782C62.9583 17.4213 62.897 16.895 62.7662 16.352C62.652 15.8786 62.393 15.5222 61.9837 15.2688C61.5047 14.9708 60.984 14.826 60.4159 14.8316C59.1934 14.8371 57.9682 14.8316 56.7457 14.8316C56.6538 14.8316 56.5647 14.8455 56.4728 14.8538C56.367 14.865 56.2389 14.9875 56.2278 15.0933C56.2167 15.1824 56.2027 15.2743 56.2027 15.3662C56.2027 15.9788 56.2027 16.5887 56.2027 17.2013L56.1999 17.1985Z" fill="black"/>
<path d="M95.3632 14.8262C94.2939 14.8262 93.2218 14.8206 92.1525 14.8262C91.4202 14.829 91.3506 14.6006 91.3561 14.0158C91.3645 13.2501 91.3561 12.4871 91.3617 11.7213C91.3617 11.3816 91.5204 11.2312 91.8713 11.2117C92.0244 11.2033 92.1776 11.2033 92.3307 11.2033C94.3803 11.2033 96.4298 11.1922 98.4765 11.2089C99.3648 11.2145 100.248 11.3036 101.097 11.5904C101.618 11.7658 102.113 11.997 102.589 12.281C104.302 13.3002 105.179 15.3664 105.171 16.8896C105.171 17.1347 105.176 17.3797 105.171 17.6248C105.137 19.6074 104.277 21.1473 102.651 22.2612C101.938 22.7513 101.141 23.0548 100.303 23.2609C99.4038 23.4809 98.4876 23.4892 97.5715 23.5199C96.9923 23.5394 96.4103 23.5199 95.8283 23.5282C95.7085 23.5282 95.586 23.5533 95.4718 23.5895C95.4217 23.6034 95.3604 23.6647 95.3493 23.7176C95.3159 23.8652 95.2853 24.0155 95.2853 24.1659C95.2797 25.0821 95.2797 26.001 95.2797 26.9171C95.2797 27.2847 95.2825 27.6523 95.2741 28.0171C95.263 28.4766 95.1265 28.7411 94.5473 28.7578C93.6924 28.7829 92.8348 28.7717 91.9799 28.7578C91.8379 28.7578 91.6875 28.677 91.5566 28.6074C91.4842 28.5684 91.409 28.4793 91.3951 28.4014C91.3645 28.2231 91.3589 28.0366 91.3589 27.8556C91.3589 26.725 91.3589 25.5917 91.3561 24.4611C91.3561 24.2494 91.3338 24.035 91.3144 23.8234C91.3004 23.6925 91.1278 23.5421 90.9941 23.5338C90.8103 23.5254 90.6265 23.5199 90.4455 23.5199C89.56 23.5199 88.6717 23.5254 87.7862 23.5171C87.1262 23.5115 86.9814 23.3639 86.9759 22.704C86.9703 21.9688 86.9703 21.2365 86.9759 20.5013C86.9786 20.1532 87.129 20.0168 87.4882 20.0029C87.7027 19.9945 87.9171 19.9973 88.1315 19.9973C88.836 19.9973 89.5377 19.9973 90.2423 19.9973C90.4567 19.9973 90.6711 19.9945 90.8827 19.9806C91.1417 19.9639 91.3255 19.7745 91.3422 19.5016C91.3561 19.2872 91.3589 19.0728 91.3589 18.8611C91.3589 18.0341 91.3673 17.2098 91.3589 16.3828C91.3505 15.6978 91.4424 15.5697 92.1275 15.5753C92.8932 15.5808 93.6562 15.5753 94.422 15.5753C94.5139 15.5753 94.6058 15.5753 94.6977 15.5808C95.0458 15.6003 95.2491 15.8036 95.2713 16.1684C95.2853 16.3828 95.2825 16.5972 95.2825 16.8089C95.2825 17.5746 95.2825 18.3376 95.2825 19.1034C95.2825 19.2872 95.2908 19.471 95.3048 19.652C95.3159 19.7968 95.4635 19.9527 95.5916 19.9722C95.6222 19.975 95.6528 19.9834 95.6835 19.9834C96.6302 19.9861 97.5798 20.0001 98.5266 19.9834C98.7967 19.9778 99.0724 19.9165 99.3369 19.8469C100.888 19.4376 101.548 17.8197 101.114 16.5304C100.963 16.0876 100.765 15.6783 100.378 15.3942C99.9523 15.0824 99.4762 14.8791 98.9443 14.8401C98.7299 14.8262 98.5155 14.8262 98.3038 14.8262C97.3264 14.8262 96.3462 14.8262 95.3688 14.8262H95.3632Z" fill="black"/>
<path d="M75.055 23.3833C75.0494 23.698 75.0439 24.0043 75.0439 24.3079C75.0439 25.4384 75.0439 26.569 75.0439 27.6996C75.0439 27.8527 75.0494 28.0059 75.0439 28.159C75.0327 28.4876 74.8851 28.6881 74.473 28.7577C74.3839 28.7744 74.2892 28.7744 74.2001 28.7744C73.4677 28.7744 72.7326 28.7772 72.0002 28.7744C71.8499 28.7744 71.6967 28.7522 71.5491 28.7215C71.2985 28.6658 71.1036 28.4542 71.0869 28.2119C71.0702 28.0003 71.0674 27.7859 71.0674 27.5715C71.0674 22.4978 71.0674 17.4242 71.0674 12.3506C71.0674 12.1055 71.0841 11.8632 71.1064 11.621C71.1231 11.4567 71.3096 11.2729 71.4712 11.2478C71.5909 11.2283 71.7134 11.2116 71.8359 11.2116C72.6602 11.2116 73.4872 11.2088 74.3115 11.2172C74.4619 11.2172 74.615 11.245 74.7598 11.284C74.8824 11.3174 74.9798 11.4149 74.9993 11.5374C75.0299 11.7463 75.0439 11.9607 75.0439 12.1751C75.0466 13.857 75.0439 15.5362 75.0467 17.2181C75.0467 17.491 75.0689 17.7639 75.094 18.0368C75.1051 18.1677 75.3502 18.2624 75.4671 18.1955C75.52 18.1649 75.5785 18.1426 75.6231 18.1036C75.7372 18.0034 75.8486 17.8976 75.9517 17.7862C77.1769 16.4635 78.4022 15.1408 79.6274 13.8181C80.2707 13.1219 80.9139 12.4285 81.5572 11.7324C81.6407 11.6432 81.7242 11.5541 81.8078 11.465C81.9609 11.298 82.1447 11.2116 82.3731 11.2144C82.8938 11.2144 83.4117 11.2116 83.9325 11.2144C84.5145 11.2144 85.0937 11.2144 85.6757 11.2256C85.7926 11.2256 85.9124 11.2701 86.0238 11.3119C86.1908 11.3759 86.2772 11.6349 86.1825 11.7797C86.1184 11.8827 86.0488 11.9858 85.9681 12.0721C85.2468 12.8212 84.52 13.5619 83.8016 14.3109C82.5736 15.5891 81.3483 16.87 80.1259 18.1538C80.02 18.2624 79.9198 18.3793 79.8363 18.5074C79.7666 18.6132 79.7611 18.7413 79.8195 18.8583C79.8752 18.9669 79.9393 19.0699 80.0117 19.1674C81.8273 21.6234 83.6457 24.0823 85.464 26.5356C85.7926 26.9783 86.1268 27.4127 86.4554 27.8555C86.5278 27.953 86.589 28.0588 86.6531 28.1646C86.7478 28.3233 86.6809 28.5405 86.4999 28.6269C86.3635 28.6909 86.2187 28.7438 86.0711 28.7744C85.9541 28.7995 85.8288 28.7884 85.7063 28.7884C84.8208 28.7884 83.9325 28.7884 83.047 28.7884C82.9551 28.7884 82.8632 28.7856 82.7713 28.7856C82.5429 28.7856 82.3564 28.6993 82.2199 28.5127C82.167 28.4375 82.1197 28.3595 82.0668 28.2843C80.6299 26.3072 79.1958 24.3273 77.7561 22.3502C77.5779 22.1052 77.3802 21.8685 77.1825 21.6346C77.085 21.5176 76.8678 21.5009 76.7676 21.604C76.1828 22.1832 75.5785 22.7429 75.0578 23.3945L75.055 23.3833Z" fill="black"/>
<path d="M127.008 16.9732C127.008 18.4407 127.011 19.9082 127.008 21.3757C127.008 21.8658 127.039 22.3503 127.167 22.8293C127.526 24.1715 128.397 24.9735 129.734 25.2881C130.494 25.3411 131.252 25.4079 132.004 25.1684C133.115 24.812 133.808 24.0685 134.148 22.9685C134.312 22.4367 134.359 21.8937 134.359 21.3395C134.354 18.3739 134.357 15.4082 134.359 12.4398C134.359 12.1641 134.368 11.8912 134.382 11.6155C134.39 11.454 134.579 11.2618 134.738 11.2396C134.858 11.2229 134.98 11.2062 135.103 11.2062C135.93 11.2062 136.754 11.2062 137.581 11.2062C137.704 11.2062 137.826 11.2201 137.946 11.2368C138.099 11.2563 138.291 11.454 138.305 11.6127C138.322 11.7937 138.333 11.9775 138.333 12.1613C138.333 15.2188 138.353 18.2764 138.325 21.3339C138.314 22.4951 138.141 23.648 137.681 24.734C137.528 25.0988 137.358 25.4608 137.158 25.8005C136.484 26.9422 135.521 27.7665 134.301 28.2817C133.248 28.7272 132.154 28.9722 131.007 28.9611C130.731 28.9611 130.455 28.9611 130.18 28.9611C128.999 28.9695 127.868 28.7049 126.81 28.2009C125.409 27.5354 124.36 26.4939 123.741 25.0542C123.535 24.5781 123.377 24.0852 123.276 23.57C123.109 22.6956 123.015 21.8213 123.02 20.9302C123.04 18.1177 123.026 15.3024 123.029 12.4899C123.029 12.2142 123.029 11.9385 123.048 11.6656C123.062 11.3983 123.249 11.2312 123.53 11.2089C123.56 11.2089 123.591 11.2034 123.622 11.2034C124.538 11.2034 125.457 11.2034 126.373 11.2034C126.434 11.2034 126.495 11.2145 126.554 11.2229C126.76 11.2507 126.961 11.4373 126.98 11.6433C127.002 11.8856 127.016 12.1307 127.016 12.3757C127.019 13.9045 127.016 15.4333 127.016 16.962L127.008 16.9732Z" fill="black"/>
<path d="M47.1832 28.7771C46.8769 28.7771 46.5705 28.7771 46.2642 28.7771C46.1417 28.7771 46.0192 28.7827 45.8967 28.7688C45.4706 28.727 45.1476 28.5376 44.9805 28.1172C44.6631 27.3208 44.3428 26.5299 44.0198 25.7363C43.939 25.5386 43.8611 25.3381 43.7636 25.1487C43.6578 24.9454 43.4768 24.8341 43.2457 24.8229C43.0925 24.8146 42.9393 24.8146 42.7862 24.8146C40.9205 24.8146 39.0548 24.8146 37.189 24.8146C37.0053 24.8146 36.8215 24.8201 36.6405 24.8341C36.479 24.848 36.3481 24.9343 36.2701 25.0735C36.1671 25.2601 36.0752 25.455 35.9944 25.6527C35.6658 26.4436 35.3261 27.2289 35.0282 28.0308C34.8416 28.5321 34.513 28.7688 33.9978 28.7716C33.232 28.7743 32.4691 28.7716 31.7033 28.7716C31.5167 28.7716 31.3441 28.7214 31.1798 28.624C31.0099 28.5265 30.9208 28.3316 30.9876 28.1617C31.0544 27.9919 31.1241 27.822 31.1965 27.6521C32.1572 25.4021 33.1179 23.1549 34.0758 20.9049C35.3094 18.0089 36.5402 15.1101 37.7738 12.214C37.8824 11.9606 37.9938 11.71 38.1191 11.4649C38.2389 11.2255 38.4477 11.1113 38.7122 11.1002C38.8041 11.0946 38.896 11.0918 38.9879 11.0918C39.6924 11.0918 40.3942 11.0918 41.0987 11.0918C41.2212 11.0918 41.3437 11.0946 41.4635 11.1113C41.689 11.1419 41.8673 11.2617 41.9675 11.4649C42.09 11.71 42.2014 11.9634 42.31 12.2168C43.1343 14.1577 43.9558 16.1014 44.7828 18.0423C45.8493 20.5457 46.9242 23.0435 47.9907 25.5469C48.3137 26.3071 48.634 27.0674 48.9542 27.8276C49.0015 27.9389 49.0461 28.0531 49.0851 28.1701C49.1575 28.3845 49.0489 28.6017 48.8178 28.6769C48.6757 28.7242 48.5226 28.766 48.375 28.7688C47.9768 28.7827 47.5786 28.7743 47.1832 28.7743V28.7771ZM37.9437 21.0748C37.9966 21.1305 38.0439 21.2196 38.1163 21.2474C38.2277 21.2892 38.353 21.3003 38.4728 21.3003C39.478 21.3031 40.4805 21.3031 41.4858 21.3003C41.5777 21.3003 41.6668 21.2864 41.7587 21.2781C41.9369 21.2586 42.0678 21.0609 42.0176 20.8715C41.9786 20.7239 41.9369 20.5791 41.8812 20.4371C41.3994 19.2536 40.9149 18.0729 40.4304 16.8922C40.383 16.7808 40.3246 16.6722 40.2633 16.5692C40.1408 16.3604 39.8567 16.3631 39.7398 16.5748C39.6507 16.7335 39.5671 16.895 39.4975 17.0649C39.0575 18.1342 38.6204 19.2035 38.1832 20.2728C38.1135 20.4427 38.0439 20.6097 37.9882 20.7824C37.9604 20.8659 37.9632 20.9606 37.9493 21.072L37.9437 21.0748Z" fill="black"/>
<path d="M16.8862 19.8886C16.8862 17.4409 16.8862 14.9932 16.8862 12.5455C16.8862 12.2698 16.8862 11.9942 16.9002 11.7213C16.9141 11.4094 17.1034 11.2367 17.4376 11.2144C17.5295 11.2089 17.6214 11.2061 17.7133 11.2061C19.8853 11.2061 22.0573 11.1866 24.2294 11.2144C25.1455 11.2256 26.0561 11.3509 26.9277 11.6795C28.9076 12.4286 30.1523 13.8042 30.6313 15.8871C30.7984 16.6167 30.8457 17.349 30.7594 18.0731C30.5477 19.8692 29.7012 21.3116 28.1641 22.3029C27.4401 22.7708 26.6464 23.0799 25.8027 23.272C24.9311 23.4697 24.0456 23.4948 23.1601 23.5198C22.5781 23.5365 21.9989 23.5226 21.4169 23.5282C21.325 23.5282 21.2359 23.5477 21.144 23.5588C21.0354 23.5727 20.9101 23.6925 20.9017 23.7983C20.8878 24.0099 20.8711 24.2244 20.8711 24.4388C20.8683 25.5109 20.8711 26.5802 20.8711 27.6523C20.8711 27.836 20.8711 28.0198 20.8599 28.2036C20.846 28.4375 20.6483 28.6575 20.4032 28.7188C20.3141 28.7411 20.225 28.7689 20.1331 28.7689C19.3061 28.7745 18.4818 28.7717 17.6548 28.7717C17.4654 28.7717 17.2844 28.7216 17.1368 28.613C17.045 28.5461 16.9475 28.432 16.9308 28.3289C16.8918 28.0895 16.889 27.8416 16.889 27.5994C16.889 25.1516 16.889 22.7039 16.889 20.2562C16.889 20.1337 16.889 20.0112 16.889 19.8886H16.8862ZM20.8711 17.3657C20.8711 18.0369 20.8711 18.708 20.8711 19.3791C20.8711 19.4988 20.8766 19.6269 20.9156 19.7383C20.9407 19.8162 21.0131 19.8914 21.0855 19.9332C21.1607 19.975 21.2609 19.9917 21.35 19.9917C22.2356 19.9972 23.1183 20.0056 24.0038 19.9945C24.402 19.9889 24.7946 19.9137 25.165 19.7661C27.014 19.0338 27.1003 16.9703 26.3875 15.8732C26.3206 15.7729 26.2371 15.681 26.1536 15.5947C25.6579 15.0879 25.0425 14.8484 24.3463 14.8373C23.3411 14.8206 22.333 14.8317 21.325 14.8345C21.2359 14.8345 21.1412 14.8512 21.0576 14.8818C21.0047 14.9013 20.9435 14.9515 20.9295 14.9988C20.8961 15.113 20.8739 15.2355 20.8711 15.3552C20.8655 16.0263 20.8711 16.6974 20.8711 17.3685V17.3657Z" fill="black"/>
<path d="M7.10936 28.9721C4.73127 28.8886 2.54253 28.2314 0.621117 26.7862C0.426191 26.6414 0.245189 26.4743 0.0753249 26.3016C-0.013784 26.2125 -0.0193533 26.0761 0.0279858 25.9563C0.0614016 25.8728 0.103171 25.7865 0.158865 25.7169C0.724149 25.0346 1.295 24.3552 1.86586 23.6785C1.90484 23.6339 1.95775 23.5866 2.01066 23.5699C2.0942 23.5448 2.19445 23.5198 2.27242 23.5448C2.38659 23.581 2.48684 23.6562 2.58987 23.723C2.99921 23.9876 3.40299 24.2688 3.82068 24.5195C4.61431 24.9984 5.48034 25.3047 6.39649 25.4245C7.12328 25.5191 7.85843 25.5331 8.57687 25.3159C8.90546 25.2156 9.19507 25.0597 9.43455 24.8091C9.63226 24.603 9.75478 24.3552 9.76592 24.0711C9.77427 23.8595 9.752 23.6451 9.72415 23.4334C9.68517 23.1438 9.52644 22.9127 9.28139 22.7679C8.96673 22.5813 8.6437 22.4031 8.30676 22.2695C7.62731 21.9966 6.91443 21.8128 6.20435 21.6346C5.40237 21.4368 4.61431 21.1974 3.84296 20.905C3.29717 20.6989 2.78201 20.4344 2.30862 20.0946C1.13349 19.2509 0.554285 18.0897 0.5153 16.6556C0.501377 16.1404 0.495808 15.6253 0.618332 15.1073C0.963629 13.6287 1.79903 12.5176 3.13287 11.7908C4.05738 11.2896 5.0515 10.9972 6.11524 11.0027C6.87823 11.0083 7.64123 10.9638 8.40144 11.0946C9.933 11.3564 11.3309 11.9412 12.6007 12.8295C12.7009 12.8991 12.7873 12.9854 12.8764 13.069C12.9488 13.1358 12.9822 13.3307 12.946 13.4143C12.9209 13.4699 12.9014 13.5284 12.868 13.5785C12.3668 14.3081 11.8628 15.0377 11.3587 15.7673C11.3253 15.8174 11.2808 15.862 11.2418 15.9065C11.1777 15.9789 10.9828 16.029 10.9021 15.9901C10.7656 15.9204 10.6292 15.8508 10.5011 15.7701C9.93021 15.4136 9.33151 15.1129 8.70497 14.8567C7.77489 14.478 6.80583 14.4139 5.82563 14.5058C5.58894 14.5281 5.34946 14.62 5.13226 14.7286C4.39432 15.0906 4.1437 16.0792 4.60596 16.7753C4.6895 16.8979 4.80088 17.0176 4.92898 17.0928C5.16289 17.2348 5.40794 17.3573 5.66134 17.4631C6.22663 17.6998 6.81976 17.8419 7.40732 18.0089C8.20094 18.2345 8.989 18.4768 9.77427 18.7246C10.3284 18.9 10.8603 19.1367 11.3532 19.4458C11.6873 19.6547 12.0131 19.8886 12.3139 20.1448C12.8847 20.6349 13.269 21.2586 13.4751 21.9798C13.8761 23.3945 13.7396 24.7645 13.0602 26.0705C12.5478 27.0535 11.7486 27.7524 10.76 28.2286C10.1251 28.5349 9.45682 28.7354 8.75509 28.844C8.2093 28.9276 7.66629 29 7.11215 28.9693L7.10936 28.9721Z" fill="black"/>
<path d="M148.578 28.9916C145.866 28.9025 143.621 28.2314 141.652 26.736C141.555 26.6609 141.457 26.5885 141.366 26.5077C141.051 26.2404 141.018 26.0343 141.265 25.728C141.591 25.3214 141.928 24.926 142.259 24.5278C142.493 24.2466 142.73 23.9625 142.967 23.6868C143.125 23.5031 143.323 23.4808 143.538 23.6228C143.894 23.8595 144.242 24.1101 144.604 24.3357C145.442 24.8536 146.328 25.2518 147.314 25.3994C148.077 25.5136 148.834 25.5386 149.586 25.3381C149.789 25.2825 149.995 25.2073 150.176 25.0987C150.691 24.7896 150.945 24.3301 150.892 23.7175C150.856 23.2942 150.672 22.9601 150.318 22.7234C149.987 22.5006 149.625 22.3279 149.246 22.211C148.606 22.0105 147.96 21.8211 147.311 21.6485C146.542 21.4452 145.779 21.2252 145.033 20.9495C144.312 20.6822 143.632 20.3341 143.05 19.8245C142.257 19.1312 141.792 18.2679 141.677 17.2125C141.619 16.664 141.602 16.1154 141.664 15.5668C141.811 14.1828 142.457 13.0662 143.557 12.2364C144.61 11.4427 145.818 11.0417 147.141 11.0055C147.447 10.9972 147.754 11.0055 148.057 11.0028C150.151 10.9805 152.014 11.6683 153.718 12.8462C153.819 12.9158 153.908 13.0021 153.997 13.0829C154.105 13.1831 154.125 13.3669 154.033 13.5006C153.512 14.2552 152.992 15.0099 152.471 15.7645C152.454 15.7896 152.435 15.8146 152.415 15.8369C152.262 16.0291 152.05 16.0764 151.855 15.9455C151.424 15.6531 150.975 15.3941 150.502 15.1742C150.335 15.0962 150.171 15.0182 150.004 14.943C149.029 14.4975 148.001 14.4195 146.952 14.5086C146.615 14.5365 146.297 14.6701 146.022 14.8678C145.707 15.0934 145.52 15.3969 145.52 15.7979C145.52 15.9511 145.52 16.1042 145.526 16.2574C145.54 16.5832 145.69 16.8422 145.938 17.0427C146.177 17.2348 146.453 17.3657 146.74 17.4771C147.425 17.7444 148.141 17.9059 148.842 18.1175C149.544 18.3264 150.251 18.5269 150.945 18.758C151.555 18.9613 152.134 19.2398 152.677 19.5878C153.198 19.922 153.66 20.3146 154.013 20.827C154.442 21.4424 154.701 22.1219 154.729 22.8765C154.743 23.2135 154.746 23.5504 154.735 23.8846C154.685 25.5637 153.941 26.8697 152.574 27.8248C151.836 28.34 151.006 28.6575 150.126 28.8106C149.527 28.9164 148.923 29.0389 148.57 28.9972L148.578 28.9916Z" fill="black"/>
<path d="M108.345 19.9581C108.345 17.4798 108.345 15.0014 108.345 12.5231C108.345 12.2168 108.356 11.9105 108.373 11.6069C108.384 11.4259 108.551 11.2616 108.727 11.2366C108.819 11.2254 108.908 11.2087 109 11.2087C109.857 11.2087 110.712 11.2087 111.57 11.2087C111.662 11.2087 111.754 11.2199 111.843 11.231C112.054 11.2561 112.255 11.4399 112.269 11.6459C112.291 11.9188 112.302 12.1945 112.302 12.4702C112.302 16.4467 112.302 20.4259 112.302 24.4024C112.302 24.5556 112.31 24.706 112.319 24.8591C112.324 24.9594 112.458 25.0875 112.561 25.1014C112.65 25.1125 112.742 25.132 112.834 25.1348C113.079 25.1404 113.324 25.1376 113.569 25.1376C115.619 25.1376 117.668 25.1376 119.718 25.1376C119.993 25.1376 120.269 25.1459 120.542 25.1626C120.703 25.171 120.896 25.3603 120.921 25.5163C120.935 25.6054 120.951 25.6973 120.951 25.7892C120.951 26.555 120.954 27.318 120.951 28.0837C120.951 28.1756 120.935 28.2647 120.918 28.3566C120.893 28.4819 120.829 28.5878 120.706 28.6351C120.564 28.688 120.419 28.7465 120.272 28.7632C120.06 28.7883 119.843 28.7771 119.631 28.7771C116.295 28.7771 112.962 28.7771 109.626 28.7771C109.412 28.7771 109.194 28.7883 108.986 28.7604C108.838 28.7409 108.69 28.6797 108.56 28.6073C108.487 28.5683 108.418 28.4764 108.401 28.3956C108.362 28.2174 108.345 28.0336 108.342 27.8526C108.337 27.1175 108.34 26.3851 108.34 25.65C108.34 23.7536 108.34 21.8573 108.34 19.9581H108.345Z" fill="black"/>
</g>
<defs>
<clipPath id="clip0_5726_36702">
<rect width="154.749" height="18" fill="white" transform="translate(0 11)"/>
</clipPath>
</defs>
</svg>
