<svg width="52" height="40" viewBox="0 0 52 40" fill="none" xmlns="http://www.w3.org/2000/svg">
<g clip-path="url(#clip0_5726_36703)">
<path d="M5.14405 30.5156C5.94972 31.023 6.33207 31.7919 6.16716 32.8003C6.00224 33.8087 5.34783 34.3917 4.42451 34.71C3.64195 34.9799 2.84258 34.9936 2.04426 34.7866C1.06527 34.5324 0.316316 33.9967 0.0810218 32.96C-0.158474 31.9064 0.185013 31.0608 1.17976 30.4547C0.323669 29.8003 0.0726185 28.9694 0.370938 27.9778C0.37619 27.961 0.378291 27.9432 0.383543 27.9263C0.822618 26.5829 2.54846 25.9558 4.30896 26.4988C5.54951 26.8812 6.25434 28.0923 5.86464 29.2877C5.72598 29.7142 5.4056 30.0808 5.14405 30.5156ZM3.1598 31.2163C2.32892 31.1879 1.80056 31.6049 1.77955 32.3056C1.75854 33.044 2.20917 33.461 3.06001 33.4925C3.87514 33.5219 4.42556 33.0934 4.45497 32.4064C4.48438 31.7026 3.98543 31.2446 3.15875 31.2163H3.1598ZM3.07472 29.8591C3.82577 29.8801 4.24594 29.5261 4.26485 28.8528C4.28585 28.1375 3.88879 27.7541 3.11884 27.7457C2.3909 27.7373 1.98438 28.0829 1.95917 28.731C1.93081 29.4684 2.29636 29.8371 3.07472 29.8602V29.8591Z" fill="#C70125"/>
<path d="M5.03271 19.7614C5.7743 20.2278 6.21443 20.8434 6.20813 21.7121C6.20077 22.7593 5.61569 23.5913 4.56842 23.981C3.58102 24.3486 2.58208 24.3455 1.59678 23.9547C0.736487 23.6133 0.175562 23.0114 0.0432092 22.0734C-0.0891437 21.1364 0.229134 20.3917 1.03165 19.8675C1.07262 19.8413 1.10098 19.7951 1.15035 19.7404C0.264848 19.0892 0.0652681 18.2152 0.39405 17.2236C0.725982 16.2226 1.53165 15.8066 2.51485 15.69C2.89405 15.6448 3.28586 15.6396 3.66401 15.6827C4.66611 15.7961 5.48964 16.2131 5.82892 17.2373C6.15876 18.2341 5.93922 19.1007 5.03271 19.7614ZM3.07787 22.8224C3.88985 22.836 4.43397 22.3938 4.45287 21.7047C4.47283 20.9988 3.96758 20.5514 3.1367 20.5398C2.28586 20.5272 1.79111 20.9295 1.7785 21.6459C1.76485 22.3728 2.24699 22.8087 3.07892 22.8224H3.07787ZM3.09048 17.0766C2.33102 17.0818 1.95287 17.4316 1.95602 18.128C1.95918 18.8234 2.34153 19.1764 3.09573 19.1795C3.86569 19.1827 4.2722 18.8045 4.2617 18.0965C4.25119 17.418 3.85413 17.0724 3.09153 17.0776L3.09048 17.0766Z" fill="#C70125"/>
<path d="M1.17416 9.08601C0.294957 8.43475 0.100629 7.61647 0.360083 6.66689C0.649999 5.60912 1.46302 5.15954 2.45567 5.03349C2.99979 4.96521 3.57857 5.00513 4.11849 5.11227C5.025 5.29189 5.65315 5.83496 5.88214 6.77404C6.10903 7.70366 5.86323 8.46626 5.05861 9.07236C5.1563 9.15744 5.23823 9.23412 5.32647 9.30345C6.56597 10.2751 6.49769 12.1879 5.15 13.0051C3.86849 13.7814 2.50819 13.8003 1.19937 13.0881C-0.292228 12.2761 -0.405673 10.3245 0.929411 9.27719C0.995587 9.22572 1.06176 9.1732 1.17311 9.08601H1.17416ZM3.10063 12.148C3.93256 12.1511 4.44307 11.7236 4.45252 11.0167C4.46197 10.3234 3.93676 9.87067 3.11428 9.86332C2.28655 9.85597 1.7876 10.2824 1.77815 11.0041C1.7687 11.7236 2.25609 12.1448 3.10063 12.148ZM3.05126 8.49567C3.87164 8.50723 4.25714 8.1837 4.26344 7.47677C4.26975 6.79715 3.86954 6.41374 3.13634 6.39483C2.39265 6.37593 1.96828 6.74252 1.95567 7.41584C1.94202 8.14273 2.2897 8.48412 3.05126 8.49567Z" fill="#C70125"/>
<path d="M43.9885 7.63031V5.02002H45.5032V13.5253H44.0211C43.998 13.332 43.978 13.1702 43.957 12.9938C41.999 14.4055 39.8005 13.1293 39.5872 10.7753C39.5452 10.3131 39.5757 9.82674 39.6734 9.37296C40.0935 7.41498 42.0011 6.36561 43.9896 7.63136L43.9885 7.63031ZM41.1849 10.3288C41.1881 11.4045 41.6629 12.0746 42.4675 12.1366C43.4255 12.2101 44.0221 11.5232 44.0284 10.3393C44.0337 9.20594 43.4896 8.49691 42.6093 8.48956C41.7333 8.48326 41.1828 9.19439 41.186 10.3288H41.1849Z" fill="#C70125"/>
<path d="M19.2047 11.2711C19.6491 11.5348 20.0493 11.7732 20.4799 12.0295C19.7594 13.1387 18.7299 13.5274 17.5178 13.5841C15.836 13.6619 14.501 12.5831 14.2699 10.9476C13.9999 9.0358 14.9033 7.50219 16.5839 7.1566C19.0325 6.65345 20.5073 8.13244 20.3465 10.6724H15.9201C15.9117 11.3058 16.2173 11.8058 16.7835 12.0095C17.7341 12.3509 18.5283 12.0579 19.2037 11.2721L19.2047 11.2711ZM18.751 9.48958C18.5178 8.67131 18.001 8.30471 17.2373 8.36353C16.5524 8.41605 16.044 8.85828 15.9537 9.48958H18.751Z" fill="#C70125"/>
<path d="M33.3002 10.3529C33.2887 12.3214 32.0156 13.605 30.0954 13.584C28.1752 13.563 26.941 12.272 26.9473 10.2899C26.9536 8.3277 28.2193 7.05774 30.1584 7.06719C32.0796 7.07664 33.3118 8.36446 33.3002 10.3529ZM31.7004 10.4495C31.6353 9.61761 31.4714 8.9674 30.753 8.63547C30.1721 8.36761 29.6007 8.43694 29.1458 8.87391C28.5124 9.48211 28.4399 10.2573 28.6952 11.0588C28.8895 11.6712 29.3044 12.0724 29.9778 12.1334C30.6469 12.1932 31.192 11.9002 31.463 11.2867C31.5943 10.9895 31.6448 10.6554 31.7004 10.4495Z" fill="#C70125"/>
<path d="M11.6965 29.6314C11.8477 29.185 12.0158 28.7428 12.1439 28.289C12.2185 28.0253 12.228 27.7438 12.2637 27.4991C12.3204 27.4697 12.3362 27.4539 12.3498 27.455C13.4191 27.5285 13.4465 27.5547 13.2395 28.6031C13.0305 29.6556 12.7332 30.6797 12.1051 31.5695C11.9097 31.8468 11.6555 32.0821 11.3971 32.3709C11.1954 32.0947 11.0473 31.8909 10.8414 31.6094V34.9676H9.60402V32.0138C9.3057 32.4455 9.02629 32.8499 8.70066 33.3216C8.49793 32.9098 8.3099 32.5842 8.1807 32.2354C8.14288 32.1346 8.25948 31.9613 8.33301 31.8373C8.72692 31.1692 9.13028 30.5064 9.59351 29.7354H8.39183V28.5453H9.60402V27.8604C8.6807 28.2281 8.51263 27.5957 8.36137 26.9697C9.312 26.7102 10.2616 26.4508 11.3089 26.165C11.4748 26.3783 11.7154 26.6871 11.9895 27.04C11.4107 27.3919 10.4118 27.4098 10.9076 28.5285H11.7595C11.7406 28.9308 11.7227 29.2858 11.707 29.6419C11.4139 29.6808 11.1198 29.7186 10.6923 29.7722C10.9654 30.0726 11.1618 30.2879 11.4696 30.6251C11.5652 30.205 11.6313 29.9171 11.6975 29.6293L11.6965 29.6314Z" fill="#C70125"/>
<path d="M22.913 21.8834H21.6735V19.2184H20.1682C20.1462 18.9296 20.1294 18.6953 20.1042 18.3718C19.9981 18.5346 19.9266 18.6365 19.8647 18.7436C19.2029 19.8981 18.2166 20.6785 17.0075 21.1838C16.8804 21.2373 16.622 21.147 16.5128 21.0367C16.3216 20.8434 16.1976 20.5829 16.0464 20.3508C16.7607 19.9411 17.4529 19.543 18.1451 19.146C18.121 19.0819 18.0968 19.0178 18.0726 18.9537C17.7187 18.981 17.3584 18.9768 17.0117 19.043C16.5937 19.1239 16.3384 19.0504 16.3037 18.5724C16.289 18.3697 16.2187 18.1722 16.1693 17.9516C17.1115 17.876 18.0075 17.8067 18.9025 17.7226C18.9382 17.7195 18.9603 17.5777 19.0149 17.4296H16.5842V16.2794H20.5096C20.4287 16.8644 20.3521 17.4212 20.2712 18.0031H21.6304V15.834H22.913V21.8834Z" fill="#C70125"/>
<path d="M39.0704 13.5736H37.605C37.5924 13.3908 37.5725 13.2238 37.5725 13.0568C37.5693 11.9549 37.5777 10.854 37.5683 9.75215C37.562 9.04837 37.2899 8.67652 36.751 8.58619C36.1597 8.4864 35.5998 8.81518 35.4139 9.43072C35.3193 9.7427 35.2952 10.0841 35.2899 10.4129C35.2752 11.4433 35.2847 12.4738 35.2847 13.5956C34.8403 13.5956 34.4286 13.6114 34.0189 13.5841C33.9265 13.5778 33.7668 13.4265 33.7657 13.3404C33.751 11.3162 33.7542 9.29312 33.7542 7.23745H35.2342C35.2626 7.3782 35.292 7.51791 35.3298 7.70593C36.0767 7.07463 36.8897 6.94438 37.7731 7.17127C38.5399 7.3677 39.0283 7.8782 39.0536 8.64606C39.1082 10.2679 39.0704 11.8929 39.0704 13.5736Z" fill="#C70125"/>
<path d="M51.4707 8.22592C51.1219 8.5547 50.7942 8.86458 50.4202 9.21752C49.9896 8.55996 49.3793 8.29 48.6261 8.36668C48.4381 8.38559 48.2343 8.4192 48.0778 8.51269C47.9465 8.59147 47.7963 8.76689 47.7973 8.89924C47.7973 9.02949 47.9539 9.23222 48.0831 9.27424C48.5116 9.41395 48.9602 9.49378 49.4003 9.59882C49.7396 9.6797 50.0894 9.73327 50.416 9.84987C51.7658 10.3331 52.0683 11.8803 51.0169 12.8709C49.8247 13.9948 46.9423 13.7522 45.874 12.394C46.2396 12.1114 46.6051 11.8278 46.9812 11.5368C47.5852 12.165 48.2921 12.3919 49.103 12.249C49.3015 12.2144 49.5085 12.123 49.6723 12.0043C50.0452 11.7333 50.0022 11.3646 49.5641 11.2207C49.1188 11.0736 48.6471 11.0085 48.1902 10.8929C47.853 10.8079 47.5137 10.7186 47.1881 10.5978C46.5589 10.3635 46.1797 9.91185 46.1377 9.22907C46.0936 8.51479 46.3383 7.9234 46.9591 7.52634C48.2868 6.6776 50.3856 6.98327 51.4686 8.22487L51.4707 8.22592Z" fill="#C70125"/>
<path d="M8.17627 12.3949C8.54182 12.1123 8.90841 11.8297 9.28656 11.5377C9.90946 12.169 10.628 12.4054 11.4588 12.2404C11.6416 12.2037 11.8286 12.1175 11.9788 12.0073C12.3569 11.731 12.3212 11.377 11.879 11.2257C11.4525 11.0797 10.9977 11.0157 10.5576 10.9054C10.2193 10.8213 9.8769 10.7436 9.55022 10.6249C8.90526 10.3907 8.49245 9.94948 8.44833 9.23624C8.40421 8.52091 8.64266 7.93582 9.26346 7.53036C10.5786 6.67217 12.7792 6.98834 13.7551 8.22154C13.4336 8.54507 13.108 8.87385 12.7403 9.2436C12.2876 8.54612 11.6742 8.28561 10.9189 8.36545C10.7309 8.3854 10.5261 8.41797 10.3706 8.5125C10.2393 8.59234 10.0912 8.77406 10.0943 8.90746C10.0975 9.03666 10.2603 9.23309 10.3927 9.27616C10.8223 9.41481 11.2708 9.4957 11.712 9.59969C12.0345 9.67532 12.3643 9.73099 12.6794 9.83393C14.0754 10.2909 14.4084 11.8781 13.3244 12.8749C12.108 13.9946 9.2414 13.7509 8.17732 12.3949H8.17627Z" fill="#C70125"/>
<path d="M10.9926 16.3297C11.0861 17.7279 10.8602 19.1501 11.6638 20.3865C11.855 20.6806 12.1312 20.919 12.4653 21.2888V19.6312C12.1775 19.6113 11.8907 19.5913 11.5703 19.5692V18.4432C11.8686 18.4243 12.1417 18.4064 12.4978 18.3833C12.4978 17.7783 12.4978 17.1911 12.4978 16.605C12.4978 16.1449 12.7216 15.9159 13.169 15.918C13.3413 15.918 13.5136 15.918 13.7373 15.918C13.751 16.1428 13.7709 16.3276 13.772 16.5125C13.7741 18.7867 13.7531 21.0598 13.7877 23.3329C13.7961 23.8875 13.544 23.8991 13.1291 23.9075C12.6848 23.9169 12.4411 23.8434 12.4873 23.314C12.5346 22.7594 12.4978 22.1984 12.4978 21.5073C12.2153 21.8087 12.0125 22.0262 11.7142 22.3455C11.2373 21.7636 10.7835 21.21 10.3518 20.6816C9.94111 21.2174 9.50308 21.7888 9.02304 22.4148C8.65539 22.0692 8.37073 21.8014 8.03564 21.4863C9.78354 20.1459 9.75938 18.252 9.71422 16.3308H10.9936L10.9926 16.3297Z" fill="#C70125"/>
<path d="M26.6271 8.88228C26.1964 9.08081 25.7878 9.26884 25.3572 9.46737C25.2962 9.38964 25.2353 9.32976 25.1975 9.25833C24.9139 8.72682 24.4717 8.45161 23.8729 8.50203C23.2343 8.5556 22.7406 8.91905 22.6156 9.52409C22.5042 10.0651 22.5242 10.6669 22.6366 11.2121C22.7437 11.7321 23.1681 12.0651 23.7322 12.1302C24.3235 12.1985 24.7973 11.9999 25.1198 11.4842C25.2196 11.3235 25.3193 11.1627 25.4443 10.959C25.875 11.189 26.2836 11.4064 26.6828 11.6197C26.2374 13.0451 24.9696 13.7531 23.3351 13.5325C21.8729 13.335 20.8614 12.0735 20.8141 10.3865C20.7668 8.70686 21.7752 7.39489 23.3256 7.11968C24.8939 6.84132 26.1156 7.46632 26.6292 8.88228H26.6271Z" fill="#C70125"/>
<path d="M13.6867 26.2554H14.9304V31.3573C14.9683 31.3699 15.0061 31.3825 15.0439 31.3961C15.212 31.0705 15.38 30.7449 15.5702 30.3793C15.672 30.4108 15.7886 30.4476 15.9935 30.5117C15.6952 29.5463 15.4189 28.6493 15.1248 27.6944C15.4168 27.5778 15.7319 27.4507 16.1678 27.2764C16.4882 28.3058 16.8244 29.2732 17.0638 30.2638C17.1027 30.4224 16.7099 30.686 16.5082 30.9108C16.4777 31.0673 16.4872 31.2974 16.3916 31.4686C15.3391 33.3615 13.5197 34.7218 11.6878 35.0001C11.4977 34.6566 11.3054 34.3089 11.0933 33.9266C11.6857 33.7039 12.2855 33.5295 12.837 33.2575C13.3706 32.9938 13.8538 32.6293 14.359 32.3089C14.3391 32.2638 14.3202 32.2197 14.3002 32.1745C14.1017 32.1503 13.9021 32.1272 13.6857 32.101V26.2554H13.6867Z" fill="#C70125"/>
<path d="M27.337 18.9684C26.6815 19.8035 25.8601 20.2752 24.9504 20.6365C24.5072 20.813 24.2256 20.7489 24.0334 20.3046C23.9588 20.1313 23.8433 19.9758 23.7456 19.8119C24.317 19.5598 24.8864 19.3529 25.4095 19.064C25.9473 18.7678 26.3916 18.3518 26.5796 17.6439H24.4084C24.3517 17.5514 24.3202 17.5241 24.317 17.4936C24.2505 16.8046 24.5597 16.4597 25.2446 16.459C26.7141 16.459 28.1836 16.459 29.6532 16.459C29.8601 16.459 30.066 16.459 30.3107 16.459V17.6144H28.1469C28.2813 18.5483 28.8254 18.9642 30.9137 19.7825C30.7582 20.0567 30.6343 20.3508 30.4389 20.584C30.3527 20.6869 30.1017 20.73 29.9557 20.6901C28.9168 20.4075 28.0303 19.8718 27.3349 18.9684H27.337Z" fill="#C70125"/>
<path d="M15.4833 24.0746C14.6135 24.1615 14.179 23.805 14.1797 23.0053C14.1797 20.8383 14.1797 18.6713 14.1797 16.5043C14.1797 16.2973 14.1797 16.0915 14.1797 15.8394H15.4843V24.0746H15.4833Z" fill="#C70125"/>
<path d="M23.543 22.8413V21.7373C23.7563 21.7279 23.9433 21.7132 24.1292 21.7132C26.23 21.7111 28.3309 21.7111 30.4317 21.7121C30.938 21.7121 31.1856 21.9709 31.1743 22.4884C31.1722 22.5913 31.1586 22.6932 31.147 22.8424H23.542L23.543 22.8413Z" fill="#C70125"/>
<path d="M23.0821 22.7763V23.9107H17.3027V21.208H18.5496V22.7763H23.0821Z" fill="#C70125"/>
</g>
<defs>
<clipPath id="clip0_5726_36703">
<rect width="51.6492" height="30" fill="white" transform="translate(0 5)"/>
</clipPath>
</defs>
</svg>
