<svg width="44" height="40" viewBox="0 0 44 40" fill="none" xmlns="http://www.w3.org/2000/svg">
<g clip-path="url(#clip0_5726_36700)">
<path d="M36.1071 13.7164C36.106 21.2134 29.9385 27.4316 22.4955 27.4395C14.8497 27.4474 8.65967 21.3035 8.65967 13.7096C8.65967 6.09876 14.852 -0.0755362 22.5586 -4.75093e-05C30.0883 0.0743145 36.0564 6.16299 36.1071 13.7152V13.7164ZM20.0675 18.2468C19.9931 18.1634 19.9199 18.0801 19.8455 17.9967C20.0156 17.8885 20.1813 17.7725 20.357 17.6744C20.7672 17.448 21.1761 17.2181 21.5964 17.012C22.8155 16.4137 22.9721 16.0847 22.6082 14.7326C21.9524 14.9501 21.2922 15.3636 20.5632 14.78C20.5745 15.0583 20.6173 15.2295 20.6748 15.3951C20.8393 15.874 20.7581 15.9348 20.2748 15.9112C20.0247 15.8988 19.7126 16.0238 19.521 16.1917C19.1019 16.5613 18.765 17.0243 18.3459 17.395C18.1589 17.5607 17.8558 17.5956 17.6056 17.6902C17.5651 17.6215 17.5245 17.5539 17.484 17.4852C17.6834 17.279 17.8693 17.0593 18.0834 16.8689C18.9059 16.1376 19.6743 15.3805 19.8342 14.2087C19.9086 13.6657 20.3311 13.615 20.7311 13.7434C21.4105 13.9609 21.9581 13.811 22.5113 13.3862C22.9068 13.0832 23.3732 12.9164 23.8216 13.3953C23.9366 13.5181 24.234 13.642 24.3219 13.5812C24.5145 13.4505 24.6734 13.2184 24.7568 12.9953C24.8379 12.7778 24.7816 12.5142 24.8289 12.2798C24.9427 11.7131 24.7579 11.3762 24.1754 11.2557C23.8678 11.1914 23.5343 11.2512 23.2245 11.1914C22.7231 11.0945 22.2352 10.9267 21.7339 10.8219C21.4173 10.7565 21.0511 10.6461 20.7717 10.7419C20.1407 10.9593 19.5627 10.9143 18.9644 10.6777C18.7402 10.5887 18.4991 10.5177 18.2603 10.4963C17.5707 10.4354 17.3566 10.1729 17.4592 9.42139C18.0135 9.71546 18.267 9.48224 18.2873 8.85128C19.0185 9.04395 19.7216 9.31774 20.3863 8.85128C20.935 9.60843 20.9688 9.60617 21.4364 8.76566C21.6234 9.04395 21.7575 9.34252 21.9772 9.55096C22.4099 9.95883 22.4493 9.21859 22.7637 9.23549C23.0844 9.70795 23.321 9.78757 23.4735 9.47435C23.7101 9.52167 23.9377 9.61293 24.1585 9.59941C24.4154 9.58364 24.6678 9.47548 25.0283 9.37971C25.0464 9.26366 25.0847 9.01466 25.1523 8.57975C25.5049 9.47998 25.9838 9.89686 26.7285 9.62983C26.7747 9.91601 26.7251 10.263 26.8693 10.387C27.2975 10.7577 27.7808 11.2703 28.28 11.3165C29.8664 11.4652 31.3773 11.1002 32.6403 10.0445C33.0741 9.68166 33.0583 9.44055 32.6132 9.09465C31.9564 8.58426 31.197 8.27554 30.3734 8.30258C29.561 8.32963 28.7532 8.49863 28.0659 8.58877C27.9769 8.20907 27.9138 7.7167 27.7403 7.26715C27.5938 6.88971 27.3764 6.501 27.0891 6.22383C26.5573 5.71118 25.9984 5.19515 25.3652 4.82672C24.3489 4.23521 23.2729 3.74397 22.2003 3.25723C21.9727 3.1547 21.6527 3.25498 21.3756 3.26174C21.3981 3.51412 21.3305 3.83523 21.4601 4.00649C21.7834 4.43463 22.1733 4.82222 22.5789 5.17713C23.0307 5.57034 23.5512 5.88356 24.0019 6.27904C24.4312 6.65535 24.785 7.10265 24.7883 7.70769C24.4526 7.70769 24.1653 7.71332 23.8768 7.70543C23.656 7.6998 23.4329 7.68966 23.2143 7.65811C23.0701 7.63783 22.9 7.5015 22.7952 7.54657C22.4166 7.70769 22.1113 7.6153 21.7992 7.39447C21.7215 7.33926 21.584 7.36067 21.4736 7.35729C21.1142 7.34827 20.7255 7.25476 20.3999 7.35729C19.6021 7.60629 18.7864 7.4801 17.9977 7.59389C17.5223 7.66262 17.2823 7.59727 17.1054 7.22772C16.8688 6.73535 16.497 6.4379 15.9888 6.27115C15.8142 6.21369 15.6418 6.11792 15.4953 6.00638C14.9151 5.56246 14.363 5.0791 13.7614 4.66786C13.5529 4.5259 13.2273 4.55406 12.9546 4.50449C12.9569 4.80757 12.896 5.13093 12.9828 5.40697C13.0549 5.63795 13.2893 5.8261 13.474 6.01201C13.9766 6.5179 14.5095 6.99336 14.9906 7.5184C15.2554 7.80684 15.439 8.16851 15.6598 8.4975C15.6182 8.54144 15.5753 8.58538 15.5336 8.62933C14.4813 8.18428 13.7321 8.69355 13.0808 9.40111C12.611 9.91263 12.718 10.2653 13.3152 10.6022C14.1816 11.0912 15.0672 11.054 15.9821 10.7903C16.1714 10.7351 16.3775 10.7385 16.5758 10.7148C16.604 10.7531 16.6322 10.7915 16.6603 10.8309C16.0159 11.4021 15.9595 12.0804 16.1432 12.8488C16.2164 13.1541 16.1398 13.5271 16.0373 13.838C15.8322 14.4589 15.6283 15.0977 15.3038 15.6588C14.8779 16.3956 14.4261 17.1595 13.8188 17.7364C13.1642 18.3584 12.8622 19.5763 13.4864 20.2309C14.5523 21.3509 15.8672 21.9029 17.4062 21.5278C18.9081 21.1627 20.3987 20.8258 21.9558 20.9329C22.0854 20.9419 22.2183 20.9182 22.3468 20.8923C24.1574 20.5261 25.1579 19.2158 25.9928 17.7297C26.0559 17.617 25.9421 17.404 25.9105 17.2373C25.7562 17.3139 25.5522 17.3511 25.4576 17.4728C25.079 17.9595 24.7737 18.5071 24.367 18.9679C23.8599 19.5425 23.2256 20.0033 22.4133 19.8726C22.0707 19.8174 21.7722 19.4918 21.4544 19.289C21.6629 19.0344 21.8398 18.7403 22.0899 18.5352C22.331 18.3381 22.6724 18.266 22.9259 18.0789C23.3135 17.7939 23.6999 17.4897 24.012 17.1291C24.1427 16.9782 24.0808 16.6627 24.1067 16.4216C23.8611 16.4035 23.5985 16.3258 23.3743 16.3866C23.1524 16.4464 22.9789 16.6649 22.7659 16.7821C21.8691 17.2767 20.9666 17.7601 20.0663 18.2468H20.0675ZM14.1568 21.388L14.016 21.5492C14.1151 21.7328 14.1816 21.9491 14.3202 22.0967C15.0154 22.837 17.0062 23.1874 17.9042 22.7085C18.1408 22.5823 18.3019 22.3153 18.4969 22.1125C18.2253 22.0719 17.9515 21.9874 17.6823 21.9976C16.6209 22.0381 15.5472 22.2173 14.5861 21.5492C14.4644 21.4647 14.301 21.4399 14.1568 21.388ZM24.7207 20.5948C24.4447 20.6095 24.296 20.5712 24.2419 20.6264C23.7833 21.0906 23.3236 21.5582 22.9124 22.0629C22.8425 22.1486 22.998 22.5823 23.0555 22.5835C23.6042 22.5947 23.9771 22.917 24.4109 23.1806C24.6295 23.3136 25.0351 23.1637 25.3483 23.1006C25.417 23.0871 25.5139 22.8212 25.4914 22.8032C25.2818 22.6364 25.052 22.4933 24.8233 22.3525C24.7613 22.3142 24.6813 22.3074 24.6092 22.2838C24.1934 22.1441 24.1022 21.8939 24.314 21.5041C24.4526 21.2506 24.5506 20.9768 24.7196 20.5937L24.7207 20.5948ZM32.3158 13.5631C32.5851 13.4448 32.8837 13.3423 33.1484 13.1823C33.2442 13.1248 33.3017 12.9243 33.2893 12.7981C33.2814 12.717 33.1101 12.5885 33.0155 12.5919C32.2921 12.6178 31.6668 12.388 31.0776 11.979C30.9626 11.899 30.7159 12.0105 30.53 12.0342C30.592 12.1976 30.6089 12.4071 30.7238 12.5153C31.0438 12.8173 31.393 13.0899 31.7513 13.3457C31.8944 13.4482 32.0893 13.4798 32.3169 13.5643L32.3158 13.5631Z" fill="#D3222A"/>
<path d="M11.7322 36.0521H14.9185V35.3727C13.8819 35.3727 12.8724 35.3727 11.8629 35.3727C11.2529 35.3727 10.9893 35.0381 11.0719 34.3688C11.2398 34.3508 11.4212 34.3159 11.6015 34.3159C14.2672 34.3136 16.9319 34.3204 19.5976 34.3125C19.9965 34.3114 20.2162 34.3767 20.2117 34.8623C20.2072 35.3727 19.939 35.3863 19.5638 35.3817C18.6253 35.3705 17.6868 35.3919 16.7482 35.3739C16.2773 35.3648 16.1409 35.5508 16.3054 36.0589C17.1662 36.0589 18.0439 36.0848 18.9182 36.0488C19.4241 36.0273 19.5841 36.1997 19.5357 36.6944C19.4917 37.1405 19.5052 37.5957 19.5334 38.0441C19.5571 38.4261 19.3993 38.5207 19.0422 38.5185C17.3149 38.505 15.5888 38.514 13.8616 38.5162C13.7118 38.5162 13.5518 38.4835 13.4132 38.5252C13.2487 38.5748 13.1034 38.6886 12.949 38.7754C13.1 38.8441 13.2509 38.9703 13.4031 38.9714C15.2238 38.9849 17.0445 38.9793 18.8653 38.9793C19.067 38.9793 19.2686 38.9793 19.4568 38.9793C19.6652 39.9629 19.6416 39.9967 18.7166 39.999C16.595 40.0023 14.4745 40.0012 12.353 39.999C12.1513 39.999 11.9507 39.9775 11.7186 39.964V37.5135H18.1836C18.2028 37.438 18.2231 37.3636 18.2422 37.2881C18.0529 37.2216 17.8636 37.0988 17.6732 37.0977C15.9843 37.0842 14.2954 37.0921 12.6054 37.0932C12.3271 37.0932 12.0488 37.0932 11.7277 37.0932V36.0533L11.7322 36.0521Z" fill="#D3222A"/>
<path d="M42.2702 34.3743C42.2815 34.5456 42.2804 34.6752 42.2995 34.8014C42.3615 35.2261 42.215 35.412 41.7553 35.3996C40.8359 35.3771 39.9154 35.4019 38.9949 35.4064C38.809 35.4064 38.6242 35.4064 38.3944 35.4064V36.2604H41.5818V39.3532H33.8256V36.2818H37.0187V35.394C35.8999 35.394 34.798 35.3805 33.6949 35.4008C33.2578 35.4087 33.0978 35.2577 33.1068 34.8138C33.1136 34.4487 33.2274 34.3214 33.5935 34.3225C36.3731 34.3327 39.1527 34.327 41.9311 34.3293C42.0235 34.3293 42.1147 34.3518 42.2691 34.3732L42.2702 34.3743ZM40.4044 38.2941C40.2534 37.9156 40.7052 37.3838 39.9616 37.3736C38.4597 37.3533 36.9579 37.3736 35.456 37.3623C35.127 37.3601 35.0335 37.5144 35.0323 37.8074C35.0312 38.1082 35.0887 38.3065 35.465 38.2998C36.3652 38.2817 37.2666 38.2953 38.1679 38.2953C38.8766 38.2953 39.5864 38.2953 40.4044 38.2953V38.2941Z" fill="#D3222A"/>
<path d="M41.5411 33.6196H33.8266V32.5864C33.9742 32.5729 34.1184 32.5493 34.2627 32.547C34.8861 32.5357 35.152 32.1865 35.0604 31.4992C34.6694 31.4699 34.266 31.4395 33.8232 31.4068V30.4243H41.5975V31.4158C41.1963 31.4417 40.7964 31.4688 40.3389 31.4981C40.3243 31.7088 40.3153 31.9082 40.2972 32.1076C40.2691 32.4152 40.3953 32.5695 40.7141 32.5448C40.7513 32.5414 40.7896 32.5448 40.8268 32.5448C41.7281 32.5707 41.7676 32.627 41.5422 33.6196H41.5411ZM37.7757 31.4643C37.7757 31.4564 37.7757 31.4496 37.7757 31.4417C37.4388 31.4417 37.1019 31.453 36.7662 31.4395C36.3414 31.4226 36.3425 31.6964 36.347 31.9972C36.3515 32.289 36.3301 32.5684 36.7639 32.5526C37.325 32.5324 37.8884 32.5234 38.4483 32.5526C38.8889 32.5752 39.0827 32.4614 39.0838 31.969C39.0838 31.4598 38.8348 31.4259 38.4506 31.462C38.2275 31.4834 38.0022 31.4654 37.7768 31.4654L37.7757 31.4643Z" fill="#D3222A"/>
<path d="M22.6567 37.3636V36.3101C22.8348 36.2955 22.997 36.2718 23.1604 36.2707C25.4667 36.2696 27.7742 36.2865 30.0805 36.2594C30.5909 36.2538 30.7307 36.4149 30.7002 36.9005C30.6619 37.5134 30.6912 38.1297 30.6912 38.7922H29.462C29.4485 38.5128 29.4023 38.221 29.4271 37.9348C29.4642 37.4943 29.3065 37.3478 28.8581 37.3523C27.0768 37.3737 25.2955 37.3625 23.513 37.3625C23.2528 37.3625 22.9914 37.3625 22.6579 37.3625L22.6567 37.3636Z" fill="#D3222A"/>
<path d="M17.5293 31.926C17.5248 32.9885 16.6516 33.8673 15.5993 33.8684C14.5335 33.8696 13.6636 32.9682 13.6749 31.8719C13.6862 30.8094 14.574 29.9408 15.6286 29.961C16.6911 29.9813 17.5339 30.8534 17.5293 31.926ZM16.3317 31.9091C16.3272 31.4855 16.0038 31.17 15.5813 31.1756C15.1599 31.1813 14.8636 31.4956 14.8805 31.9497C14.8974 32.397 15.1633 32.6302 15.5937 32.6505C16.0128 32.6707 16.3362 32.3294 16.3317 31.9102V31.9091Z" fill="#D3222A"/>
<path d="M26.5281 35.5551C25.9727 34.8734 25.4217 34.1974 24.8156 33.4538C24.224 34.1726 23.6821 34.8318 23.0624 35.5855C22.7886 35.2272 22.5317 34.8926 22.2275 34.4937C22.9238 33.6656 23.6968 32.7316 24.4888 31.8133C24.7266 31.5373 25.0071 31.6263 25.2144 31.8708C25.9783 32.7688 26.7298 33.678 27.5151 34.6188C27.1771 34.9388 26.8707 35.2295 26.5281 35.5551Z" fill="#D3222A"/>
<path d="M0 34.628C0.817982 33.6636 1.58864 32.7261 2.40437 31.8315C2.50577 31.72 2.95533 31.7324 3.06236 31.8518C3.86344 32.7385 4.61833 33.6669 5.39801 34.5953C5.08704 34.9322 4.80198 35.2409 4.47749 35.5925C3.85668 34.8466 3.30122 34.1785 2.69957 33.4562C2.10918 34.183 1.57062 34.8455 0.98586 35.5654C0.663625 35.2601 0.37181 34.9829 0 34.6303L0 34.628Z" fill="#D3222A"/>
<path d="M7.31024 34.0961H5.84779C5.83201 33.8392 5.82638 33.6398 5.80497 33.4426C5.76779 33.0911 5.93229 32.9637 6.26579 33.0009C6.35818 33.0111 6.45395 33.0009 6.54746 33.0009C7.30686 32.9987 7.3508 32.9953 7.3001 32.2415C7.26066 31.6557 7.57276 31.6771 7.984 31.6579C8.45271 31.6365 8.60819 31.7931 8.59129 32.2675C8.55862 33.1868 8.56538 34.1085 8.59355 35.0279C8.60819 35.5056 8.37835 35.5901 7.97499 35.5698C7.60769 35.5518 7.23475 35.6104 7.30461 35.038C7.33841 34.762 7.31024 34.478 7.31024 34.0972V34.0961Z" fill="#D3222A"/>
<path d="M29.4258 35.5621C29.4258 34.3283 29.4145 33.1847 29.4303 32.0423C29.4382 31.471 29.9024 31.7099 30.1931 31.6671C30.4939 31.6231 30.6967 31.7042 30.6922 32.0806C30.6787 33.1137 30.6809 34.1458 30.6922 35.179C30.6956 35.4809 30.5615 35.5767 30.2843 35.5643C30.0241 35.553 29.7627 35.5621 29.4246 35.5621H29.4258Z" fill="#D3222A"/>
<path d="M30.3735 8.73413C30.7881 8.88736 31.2501 9.03158 31.685 9.23551C31.8112 9.29523 31.8562 9.52733 31.9373 9.68056C31.7954 9.74478 31.6591 9.8428 31.5115 9.86984C30.351 10.0805 29.1522 10.0636 28.0288 10.5019C27.879 10.5605 27.5567 10.5053 27.5015 10.4016C27.4182 10.245 27.4677 9.99265 27.5218 9.79773C27.55 9.69295 27.6908 9.58141 27.8046 9.54423C28.635 9.27157 29.4699 9.01693 30.3735 8.73526V8.73413Z" fill="#D3222A"/>
<path d="M17.8761 20.3651C17.6834 20.4169 17.493 20.4957 17.2981 20.5093C17.173 20.5183 17.0007 20.4642 16.9252 20.3741C16.8677 20.3065 16.8925 20.1206 16.9432 20.018C17.11 19.6823 17.8051 19.4479 18.1183 19.6541C18.2716 19.7555 18.4226 20.0045 18.4079 20.1713C18.3966 20.2952 18.1161 20.3943 17.955 20.5048C17.9291 20.4586 17.902 20.4124 17.8761 20.3651Z" fill="#D3222A"/>
<path d="M15.7253 9.33807C15.0706 9.6727 14.4938 9.88452 13.8223 9.66143C14.0499 8.95612 14.9377 8.78261 15.7253 9.33807Z" fill="#D3222A"/>
<path d="M22.2399 15.6387C22.0596 15.9913 21.7723 15.8832 21.4365 15.5598C21.6867 15.5057 21.9357 15.4528 22.1858 15.3987C22.2038 15.4787 22.2218 15.5587 22.2399 15.6387Z" fill="#D3222A"/>
</g>
<defs>
<clipPath id="clip0_5726_36700">
<rect width="42.3131" height="40" fill="white"/>
</clipPath>
</defs>
</svg>
