<svg width="80" height="80" viewBox="0 0 80 80" fill="none" xmlns="http://www.w3.org/2000/svg">
<path fill-rule="evenodd" clip-rule="evenodd" d="M30.7874 16.9988H55.0913C57.3933 16.9988 59.3614 18.428 60.1567 20.4474C63.4365 21.0668 65.9172 23.9473 65.9172 27.4071V49.7361V56.8136V67.9171C65.9172 71.8288 62.746 74.9999 58.8343 74.9999H15.1693C11.2576 74.9999 8.08643 71.8288 8.08643 67.9171V45.588V38.5105V27.4071C8.08643 23.4953 11.2576 20.3242 15.1693 20.3242H25.7724C26.5982 18.3701 28.5326 16.9988 30.7874 16.9988Z" fill="#E7A52E"/>
<path fill-rule="evenodd" clip-rule="evenodd" d="M30.7877 14.2988H55.0916C58.0181 14.2988 60.5795 15.8421 62.0139 18.1532C65.8561 19.4733 68.6175 23.1154 68.6175 27.4071V67.917C68.6175 73.3199 64.2375 77.6999 58.8346 77.6999H15.1696C9.7667 77.6999 5.38672 73.3199 5.38672 67.917V27.4071C5.38672 22.0042 9.76669 17.6242 15.1696 17.6242H24.2233C25.7035 15.61 28.0905 14.2988 30.7877 14.2988ZM25.7727 20.3242H15.1696C11.2579 20.3242 8.08672 23.4953 8.08672 27.4071V67.917C8.08672 71.8288 11.2579 74.9999 15.1696 74.9999H58.8346C62.7463 74.9999 65.9175 71.8288 65.9175 67.917V27.4071C65.9175 23.9473 63.4368 21.0669 60.157 20.4475C59.3617 18.428 57.3936 16.9988 55.0916 16.9988H30.7877C28.5329 16.9988 26.5985 18.3701 25.7727 20.3242Z" fill="#212121"/>
<path d="M8.08496 45.588V27.4071C8.08496 23.4954 11.2561 20.3242 15.1678 20.3242H58.8328C62.7446 20.3242 65.9157 23.4954 65.9157 27.4071V56.8136L8.08496 45.588Z" fill="#DF8C0C"/>
<path d="M55.0896 16.9988H30.7857C27.7801 16.9988 25.3438 19.4353 25.3438 22.4407V54.6962C25.3438 57.7018 27.7803 60.1382 30.7857 60.1382H55.0896C58.0951 60.1382 60.5316 57.7017 60.5316 54.6962V22.4407C60.5316 19.4352 58.0951 16.9988 55.0896 16.9988Z" fill="#8DD1AC"/>
<path fill-rule="evenodd" clip-rule="evenodd" d="M30.786 14.2988H55.0899C59.5865 14.2988 63.2319 17.944 63.2319 22.4408V54.6963C63.2319 59.1929 59.5866 62.8382 55.0899 62.8382H30.786C26.2894 62.8382 22.644 59.193 22.644 54.6963V22.4408C22.644 17.9442 26.2892 14.2988 30.786 14.2988ZM30.786 16.9988H55.0899C58.0954 16.9988 60.5319 19.4352 60.5319 22.4408V54.6963C60.5319 57.7017 58.0954 60.1382 55.0899 60.1382H30.786C27.7805 60.1382 25.344 57.7018 25.344 54.6963V22.4408C25.344 19.4353 27.7804 16.9988 30.786 16.9988Z" fill="#212121"/>
<path d="M46.4036 25.304H22.0996C19.0941 25.304 16.6577 27.7405 16.6577 30.7459V63.0014C16.6577 66.0069 19.0942 68.4435 22.0996 68.4435H46.4036C49.4091 68.4435 51.8455 66.0069 51.8455 63.0014V30.746C51.8456 27.7405 49.4091 25.304 46.4036 25.304Z" fill="#F9F6F9"/>
<path fill-rule="evenodd" clip-rule="evenodd" d="M22.0995 22.604H46.4034C50.9 22.604 54.5454 26.2493 54.5453 30.7461C54.5453 30.7461 54.5453 30.7461 54.5453 30.7462V63.0014C54.5453 67.4981 50.9001 71.1435 46.4034 71.1435H22.0995C17.6028 71.1435 13.9575 67.4981 13.9575 63.0014V30.7459C13.9575 26.2494 17.6027 22.604 22.0995 22.604ZM51.8453 30.7461V63.0014C51.8453 66.007 49.4089 68.4435 46.4034 68.4435H22.0995C19.094 68.4435 16.6575 66.007 16.6575 63.0014V30.7459C16.6575 27.7405 19.0939 25.304 22.0995 25.304H46.4034C49.4089 25.304 51.8454 27.7405 51.8453 30.7461Z" fill="#212121"/>
<path d="M65.9157 49.7362V67.9171C65.9157 71.8288 62.7446 75 58.8328 75H15.1678C11.2561 75 8.08496 71.8288 8.08496 67.9171V38.5106C8.08496 34.5989 11.2561 31.4277 15.1678 31.4277H29.062C31.4478 31.4277 33.6732 32.6287 34.9826 34.6229C37.1169 37.7924 39.4949 42.9632 44.0781 42.6532H58.8327C62.7446 42.6533 65.9157 45.8243 65.9157 49.7362Z" fill="#FF9A00"/>
<path fill-rule="evenodd" clip-rule="evenodd" d="M43.9867 39.9532H58.8325C64.2354 39.9534 68.6155 44.3331 68.6155 49.7362V67.9171C68.6155 73.32 64.2356 77.7 58.8326 77.7H15.1676C9.76474 77.7 5.38477 73.32 5.38477 67.9171V38.5107C5.38477 33.1078 9.76474 28.7278 15.1676 28.7278H29.0618C32.3514 28.7278 35.4204 30.381 37.2302 33.1272C37.6609 33.7673 38.0421 34.3788 38.4077 34.9653C39.1293 36.1228 39.7901 37.1827 40.6497 38.1717C41.8345 39.5349 42.8234 40.0319 43.8957 39.9594L43.9867 39.9532ZM34.9824 34.623C33.673 32.6288 31.4476 31.4278 29.0618 31.4278H15.1676C11.2559 31.4278 8.08477 34.5989 8.08477 38.5107V67.9171C8.08477 71.8289 11.2559 75 15.1676 75H58.8326C62.7444 75 65.9155 71.8289 65.9155 67.9171V49.7362C65.9155 45.8244 62.7444 42.6534 58.8325 42.6532H44.0779C40.1902 42.9162 37.8892 39.2356 35.9778 36.178C35.6358 35.631 35.3063 35.104 34.9824 34.623Z" fill="#212121"/>
<path d="M20.9341 74.999H15.1682C11.2566 74.999 8.08496 71.8274 8.08496 67.9158V38.51C8.08496 34.5984 11.2566 31.4268 15.1682 31.4268H20.9341C17.0225 31.4268 13.8509 34.5984 13.8509 38.51V67.9158C13.8509 71.8273 17.0226 74.999 20.9341 74.999Z" fill="#DF8C0C"/>
<path d="M14.5474 55.355H28.5797" stroke="#212121" stroke-width="2.8" stroke-linecap="round"/>
<path d="M14.5474 61.9036H28.5797" stroke="#212121" stroke-width="2.8" stroke-linecap="round"/>
<path fill-rule="evenodd" clip-rule="evenodd" d="M70.7777 0.649902C71.4098 0.649902 71.9573 1.08851 72.0952 1.70539C72.7395 4.58759 74.5847 7.21515 78.1664 7.66021C78.8269 7.74229 79.3291 8.29362 79.3493 8.95897C79.3695 9.62432 78.9017 10.2051 78.2473 10.327C75.868 10.7705 73.452 12.5209 72.8313 16.2231C72.7289 16.8341 72.2237 17.297 71.6061 17.3457C70.9884 17.3944 70.4169 17.0165 70.2199 16.4291C69.4701 14.193 68.9983 12.8414 68.2734 11.9226C67.6526 11.1358 66.7613 10.5792 64.8334 10.3396C64.1636 10.2564 63.6582 9.69126 63.65 9.01637C63.6418 8.34148 64.1332 7.76421 64.8008 7.66467C67.4837 7.26461 68.7473 4.8946 69.4602 1.70539C69.5981 1.08851 70.1456 0.649902 70.7777 0.649902ZM68.7299 8.7733C69.3705 9.16068 69.9181 9.64824 70.3931 10.2502C70.8145 10.7844 71.1646 11.396 71.4761 12.0663C72.1969 10.8345 73.1325 9.86747 74.1803 9.14748C72.7571 8.32617 71.6782 7.17544 70.8926 5.88987C70.3657 6.97191 69.6681 7.98184 68.7299 8.7733Z" fill="#212121"/>
<path fill-rule="evenodd" clip-rule="evenodd" d="M55.5555 0.649902C56.1922 0.649902 56.7423 1.09479 56.8756 1.71741C57.2525 3.47877 58.2873 4.91626 60.1737 5.16113C60.8304 5.24638 61.3283 5.79536 61.3492 6.45724C61.3702 7.11911 60.9079 7.69845 60.2579 7.82502C59.02 8.06606 57.685 9.01981 57.3328 11.2138C57.2339 11.8305 56.7248 12.2988 56.102 12.346C55.4793 12.3933 54.9054 12.0072 54.7145 11.4125C54.2436 9.94558 53.9757 9.16642 53.5893 8.65487C53.3084 8.28299 52.9045 7.97865 51.8261 7.83867C51.1598 7.75218 50.6586 7.18889 50.65 6.51707C50.6415 5.84525 51.1283 5.2694 51.7921 5.16599C53.067 4.9674 53.7926 3.78631 54.2353 1.71741C54.3686 1.09479 54.9187 0.649902 55.5555 0.649902ZM55.0601 6.30206C55.3092 6.51227 55.5366 6.75317 55.7438 7.02762C55.8492 7.16711 55.9477 7.31374 56.0403 7.46649C56.2791 7.1556 56.54 6.87575 56.8182 6.62641C56.3795 6.28934 56.0005 5.90087 55.676 5.48023C55.4953 5.7693 55.2912 6.04589 55.0601 6.30206Z" fill="#212121"/>
<path fill-rule="evenodd" clip-rule="evenodd" d="M17.5555 2.6499C18.1922 2.6499 18.7423 3.09479 18.8756 3.71741C19.2525 5.47877 20.2873 6.91626 22.1737 7.16113C22.8304 7.24638 23.3283 7.79536 23.3492 8.45724C23.3702 9.11911 22.9079 9.69845 22.2579 9.82502C21.02 10.0661 19.685 11.0198 19.3328 13.2138C19.2339 13.8305 18.7248 14.2988 18.102 14.346C17.4793 14.3933 16.9054 14.0072 16.7145 13.4125C16.2436 11.9456 15.9757 11.1664 15.5893 10.6549C15.3084 10.283 14.9045 9.97865 13.8261 9.83867C13.1598 9.75218 12.6586 9.18889 12.65 8.51708C12.6415 7.84525 13.1283 7.2694 13.7921 7.16599C15.067 6.9674 15.7926 5.78631 16.2353 3.71741C16.3686 3.09479 16.9187 2.6499 17.5555 2.6499ZM17.0601 8.30206C17.3092 8.51227 17.5366 8.75317 17.7438 9.02762C17.8492 9.16711 17.9476 9.31374 18.0403 9.46649C18.2791 9.1556 18.54 8.87575 18.8182 8.62641C18.3795 8.28934 18.0005 7.90087 17.676 7.48023C17.4953 7.7693 17.2912 8.04589 17.0601 8.30206Z" fill="#212121"/>
</svg>
