<svg width="43" height="42" viewBox="0 0 43 42" fill="none" xmlns="http://www.w3.org/2000/svg">
<path d="M21.1779 41.0105C10.9906 41.0105 0 34.6206 0 20.5994C0 6.57812 10.9906 0.188232 21.1779 0.188232C26.8375 0.188232 32.059 2.05043 35.9295 5.4462C40.1285 9.1706 42.3559 14.4286 42.3559 20.5994C42.3559 26.7702 40.1285 31.9916 35.9295 35.716C32.059 39.1118 26.801 41.0105 21.1779 41.0105Z" fill="url(#paint0_radial_5901_11754)"/>
<path d="M21.1779 41.0105C10.9906 41.0105 0 34.6206 0 20.5994C0 6.57812 10.9906 0.188232 21.1779 0.188232C26.8375 0.188232 32.059 2.05043 35.9295 5.4462C40.1285 9.1706 42.3559 14.4286 42.3559 20.5994C42.3559 26.7702 40.1285 31.9916 35.9295 35.716C32.059 39.1118 26.801 41.0105 21.1779 41.0105Z" fill="url(#paint1_linear_5901_11754)"/>
<path d="M38.6642 8.46582C40.6104 11.606 41.6254 15.345 41.6254 19.5039C41.6254 25.6747 39.3981 30.8962 35.199 34.6206C31.3286 38.0163 26.0706 39.915 20.4475 39.915C13.8531 39.915 6.93745 37.2313 2.85522 31.5388C6.7841 37.9871 14.1745 41.0105 21.1778 41.0105C26.8009 41.0105 32.0589 39.1117 35.9293 35.716C40.1284 31.9916 42.3557 26.7701 42.3557 20.5993C42.3557 15.9475 41.0887 11.8141 38.6642 8.46582Z" fill="#EB8F00"/>
<path opacity="0.66" d="M0.321289 25.0578C0.686426 24.1048 2.30033 24.0902 3.49433 24.6671C5.80564 25.7881 5.53179 28.2418 6.68927 28.7311C7.84676 29.2204 11.5018 26.2226 16.6392 25.7479C17.2162 25.6931 20.6229 25.2659 20.9588 26.6973C21.0903 27.2632 20.1263 27.3728 20.1263 27.3728C18.0377 28.1469 15.9126 28.9356 14.0431 30.1588C11.9217 31.5426 10.0668 33.4998 7.60212 34.0767C6.64181 34.2994 5.55735 34.2666 4.77596 33.6714C3.80469 32.9411 3.58926 31.6011 3.23508 30.4363C2.82978 29.1035 2.16158 27.8621 1.27795 26.7849" fill="url(#paint2_linear_5901_11754)"/>
<path d="M0.277352 25.054C-0.387197 25.861 1.02588 28.0043 1.27783 29.0961C1.88395 31.7324 1.27783 32.3823 1.23036 34.7265C1.19019 37.3044 1.96063 39.4733 3.92507 40.8571C5.77266 42.168 7.80647 42.3177 10.6545 41.4779C13.5026 40.6381 15.4269 40.2328 15.5729 38.8306C15.6533 38.2501 15.3465 37.6805 14.8134 37.4322C15.0983 37.2971 15.3246 37.067 15.4524 36.7786C16.1316 35.1574 14.7769 34.8141 14.7769 34.8141C14.9632 34.5914 15.1202 34.3468 15.2443 34.0839C15.6496 33.2769 15.5839 32.1815 14.4154 31.8237C13.8787 31.6594 13.7326 31.747 13.7326 31.747C14.2876 31.1774 14.9522 30.721 15.6861 30.4142C17.6506 29.5708 19.9801 29.0596 20.5607 28.5666C21.4042 27.8364 21.4553 26.4306 19.9655 26.0107C17.8258 25.3827 13.8897 26.8432 11.4944 28.3658C9.09906 29.8884 6.90093 30.71 6.17066 30.4325C5.44039 30.155 4.98762 29.7022 4.71011 28.6068C4.19527 26.5694 3.79727 25.7807 2.92459 25.0175C2.20162 24.3968 0.788543 24.4333 0.277352 25.054Z" fill="url(#paint3_radial_5901_11754)"/>
<path d="M12.1518 32.9702C12.1518 32.9702 11.6151 32.6051 13.7584 30.8926C15.219 29.7205 16.0624 29.5087 17.8114 29.0669C21.346 28.2016 21.1232 27.0879 21.1232 27.0879C21.3131 28.7274 19.6919 29.0925 18.5052 29.4649C18.381 29.5014 18.2642 29.5489 18.1401 29.5781C14.0761 30.6151 12.6557 33.2952 12.1518 32.9702Z" fill="url(#paint4_linear_5901_11754)"/>
<path d="M15.4818 37.0343C15.7994 36.5085 15.8871 35.8695 15.7191 35.278C15.6022 34.9311 15.3795 34.628 15.0765 34.4199C15.1203 34.3615 15.1641 34.3067 15.2042 34.241C15.5292 33.7334 15.5767 33.0944 15.332 32.5431C15.0545 32.1086 14.6018 31.8201 14.0942 31.7544C14.4411 31.9224 14.7004 32.2327 14.8026 32.6052C14.861 33.0543 14.7953 33.5144 14.62 33.9306C14.3863 34.5002 13.8642 34.8982 13.2544 34.9786C12.3708 35.1538 12.641 35.519 12.641 35.519C12.7177 35.8111 13.762 35.5409 14.5543 34.9493C14.777 35.0662 14.945 35.267 15.0253 35.5044C15.1093 35.8731 15.0582 36.2638 14.8829 36.5998C14.6383 37.1365 14.1636 37.5382 13.594 37.6952C12.809 37.9106 13.0244 38.1991 13.0244 38.1991C13.0244 38.1991 13.0609 38.8198 14.6748 37.7974C14.8647 38.1625 15.1166 38.9768 14.6127 39.5026C12.9039 41.3027 7.86865 41.9965 7.86865 41.9965C10.4246 41.9965 13.9372 41.0106 15.0253 40.1087C15.4489 39.7765 15.6972 39.2726 15.7008 38.7358C15.7483 38.2356 15.5621 37.739 15.2006 37.3885C15.3028 37.2789 15.3978 37.1621 15.4818 37.0343Z" fill="url(#paint5_linear_5901_11754)"/>
<path d="M26.0238 23.6701C25.907 23.6482 25.7974 23.6007 25.7062 23.524C24.0594 22.2022 22.095 21.3405 20.01 21.0192C17.9251 20.6577 15.7854 20.8549 13.8027 21.5888C13.6932 21.6326 13.5763 21.6472 13.4595 21.629C13.2039 21.5852 12.9957 21.3953 12.9264 21.1433C12.857 20.8951 12.941 20.6322 13.1381 20.4678C17.0086 17.2546 22.7485 17.7877 25.9617 21.6582C26.2246 21.9759 26.4656 22.3118 26.6847 22.6587C26.8235 22.8741 26.8235 23.1516 26.6847 23.367C26.5423 23.5898 26.2831 23.7066 26.0238 23.6701Z" fill="#422B0D"/>
<path d="M27.4477 8.9917C28.9776 8.9917 30.3688 10.2843 30.3688 12.4313C30.3688 14.5783 28.9776 15.8672 27.4477 15.8672C25.9178 15.8672 24.5266 14.5746 24.5266 12.4313C24.5266 10.2879 25.9178 8.9917 27.4477 8.9917Z" fill="#422B0D"/>
<path d="M14.8029 5.66528C13.273 5.66528 11.8818 6.95787 11.8818 9.10122C11.8818 11.2446 13.273 12.5408 14.8029 12.5408C16.3365 12.5408 17.724 11.2482 17.724 9.10122C17.724 6.95422 16.3365 5.66528 14.8029 5.66528Z" fill="#422B0D"/>
<path d="M12.4624 1.51366C12.298 1.24345 12.2761 0.907529 12.4039 0.619071C12.5427 0.330613 12.8165 0.133439 13.1342 0.0932741C15.1242 -0.217092 17.1544 0.253934 18.8048 1.40411C19.4219 1.82767 19.9696 2.33886 20.4333 2.92673C20.4625 2.96325 20.4881 3.00341 20.5136 3.04723C20.7619 3.43427 20.6779 3.94547 20.3201 4.23392C19.9367 4.55159 19.3744 4.54064 19.0056 4.20471L19.159 3.95642L18.9727 4.1755C17.3734 2.8391 15.3725 2.07597 13.2912 2.01389C12.9443 2.01389 12.623 1.83133 12.4477 1.53191L12.4624 1.51366Z" fill="#422B0D"/>
<path d="M31.9132 8.04588C32.1834 7.89618 32.366 7.62232 32.4025 7.31561C32.4244 6.99794 32.2893 6.69122 32.0374 6.4977C30.4563 5.23798 28.4481 4.6355 26.4362 4.82538C25.6913 4.88745 24.961 5.06271 24.2673 5.34387L24.1358 5.40594C23.7305 5.62137 23.5516 6.10701 23.7196 6.53421C23.8985 6.99794 24.3841 7.26084 24.8697 7.15495V6.86284L24.9209 7.14764C26.9656 6.7679 29.0798 7.08557 30.9237 8.04953C31.2268 8.22115 31.5956 8.22115 31.8986 8.04953L31.9132 8.04588Z" fill="#422B0D"/>
<defs>
<radialGradient id="paint0_radial_5901_11754" cx="0" cy="0" r="1" gradientUnits="userSpaceOnUse" gradientTransform="translate(21.1779 20.5994) scale(20.7981 20.7981)">
<stop offset="0.5" stop-color="#FDE030"/>
<stop offset="0.92" stop-color="#F7C02B"/>
<stop offset="1" stop-color="#F4A223"/>
</radialGradient>
<linearGradient id="paint1_linear_5901_11754" x1="21.1779" y1="41.0105" x2="21.1779" y2="0.188232" gradientUnits="userSpaceOnUse">
<stop stop-color="#F4A223"/>
<stop offset="0.08" stop-color="#F7C02B"/>
<stop offset="0.54" stop-color="#FDE030" stop-opacity="0"/>
</linearGradient>
<linearGradient id="paint2_linear_5901_11754" x1="10.7253" y1="36.4866" x2="10.634" y2="24.2983" gradientUnits="userSpaceOnUse">
<stop stop-color="#BF360C"/>
<stop offset="1" stop-color="#BF360C" stop-opacity="0.2"/>
</linearGradient>
<radialGradient id="paint3_radial_5901_11754" cx="0" cy="0" r="1" gradientUnits="userSpaceOnUse" gradientTransform="translate(13.09 28.0522) scale(21.6197 20.3226)">
<stop offset="0.27" stop-color="#FFF176"/>
<stop offset="1" stop-color="#FFC400"/>
</radialGradient>
<linearGradient id="paint4_linear_5901_11754" x1="12.2983" y1="32.1861" x2="21.4961" y2="27.6183" gradientUnits="userSpaceOnUse">
<stop offset="0.13" stop-color="#DA6727"/>
<stop offset="1" stop-color="#FFC400"/>
</linearGradient>
<linearGradient id="paint5_linear_5901_11754" x1="11.8228" y1="41.2553" x2="11.8994" y2="27.391" gradientUnits="userSpaceOnUse">
<stop offset="0.13" stop-color="#DA6727"/>
<stop offset="1" stop-color="#FFC400"/>
</linearGradient>
</defs>
</svg>
