<svg width="50" height="48" viewBox="0 0 50 48" fill="none" xmlns="http://www.w3.org/2000/svg">
<path d="M24.9016 48C12.9231 48 0 40.4866 0 24C0 7.51342 12.9231 0 24.9016 0C31.5564 0 37.6959 2.18962 42.2469 6.18247C47.1843 10.5617 49.8032 16.7442 49.8032 24C49.8032 31.2558 47.1843 37.3954 42.2469 41.7746C37.6959 45.7674 31.5134 48 24.9016 48Z" fill="url(#paint0_radial_4861_2219)"/>
<path d="M45.4626 9.73315C47.751 13.4255 48.9445 17.8219 48.9445 22.712C48.9445 29.9679 46.3256 36.1074 41.3882 40.4866C36.8372 44.4795 30.6547 46.712 24.0429 46.712C16.2891 46.712 8.14025 43.5564 3.35742 36.863C7.9771 44.4451 16.6626 48.0001 24.9016 48.0001C31.5134 48.0001 37.6959 45.7675 42.2469 41.7747C47.1843 37.3954 49.8032 31.2559 49.8032 24.0001C49.8032 18.5303 48.3134 13.6702 45.4626 9.73315Z" fill="#EB8F00"/>
<path d="M24.9016 48C12.9231 48 0 40.4866 0 24C0 7.51342 12.9231 0 24.9016 0C31.5564 0 37.6959 2.18962 42.2469 6.18247C47.1843 10.5617 49.8032 16.7442 49.8032 24C49.8032 31.2558 47.1843 37.3954 42.2469 41.7746C37.6959 45.7674 31.5134 48 24.9016 48Z" fill="url(#paint1_radial_4861_2219)"/>
<path d="M45.4626 9.73315C47.751 13.4255 48.9445 17.8219 48.9445 22.712C48.9445 29.9679 46.3256 36.1074 41.3882 40.4866C36.8372 44.4795 30.6547 46.712 24.0429 46.712C16.2891 46.712 8.14025 43.5564 3.35742 36.863C7.9771 44.4451 16.6626 48.0001 24.9016 48.0001C31.5134 48.0001 37.6959 45.7675 42.2469 41.7747C47.1843 37.3954 49.8032 31.2559 49.8032 24.0001C49.8032 18.5303 48.3134 13.6702 45.4626 9.73315Z" fill="#EB8F00"/>
<path d="M32.6727 11.884C29.0448 12.8758 27.0655 15.9585 27.6838 19.8998C28.0616 22.3298 30.496 27.0397 36.9532 25.6143C40.8044 24.7642 42.7536 21.9606 42.6806 18.2898C42.6763 18.0622 42.5303 17.9291 42.4874 17.9205C42.4874 17.9205 42.3972 18.0064 42.2512 18.5517C41.5128 21.2951 39.585 23.8583 36.1375 24.2404C31.8226 24.7213 29.6244 21.7245 29.2895 19.5778C28.8473 16.7227 30.2985 14.2239 33.1063 13.4554C34.7679 13.0003 36.3822 13.4726 37.5371 14.752C38.0781 15.3531 38.662 16.4651 38.4645 17.5642C37.9192 20.5653 35.1328 20.5223 34.1754 19.8096C33.4455 19.2601 33.1879 18.118 34.7121 17.7445C35.2659 17.6114 35.7425 17.4826 35.8927 16.7484C35.9915 16.2805 35.6051 15.8039 35.1886 15.5935C34.2698 15.1255 33.1063 15.5592 32.4151 16.1603C31.6723 16.8043 31.3632 17.8132 31.5607 18.9252C31.7153 19.7925 32.4194 20.9259 33.6344 21.5313C35.1328 22.2783 39.0827 22.1882 40.0101 18.3155C40.4351 16.5338 39.658 14.6919 38.8251 13.7431C36.4766 11.0855 33.2652 11.7209 32.6727 11.884Z" fill="#422B0D"/>
<path d="M17.1305 25.6958C20.7584 24.7041 22.7376 21.6214 22.1194 17.6801C21.7415 15.25 19.3072 10.5402 12.85 11.9656C8.99879 12.8157 7.04959 15.6193 7.12258 19.2901C7.12688 19.5177 7.27285 19.6508 7.31578 19.6593C7.31578 19.6593 7.40595 19.5735 7.55192 19.0282C8.29038 16.2847 10.2181 13.7216 13.6657 13.3395C17.9805 12.8586 20.1788 15.8554 20.5136 18.0021C20.9559 20.8572 19.5047 23.3559 16.6968 24.1245C15.0353 24.5796 13.421 24.1073 12.2661 22.8279C11.7251 22.2268 11.1412 21.1148 11.3387 20.0157C11.8839 17.0146 14.6703 17.0575 15.6278 17.7702C16.3576 18.3198 16.6152 19.4618 15.0911 19.8354C14.5373 19.9685 14.0607 20.0973 13.9104 20.8314C13.8117 21.2994 14.1981 21.776 14.6145 21.9864C15.5333 22.4543 16.6968 22.0207 17.3881 21.4196C18.1308 20.7756 18.4399 19.7667 18.2424 18.6547C18.0879 17.7874 17.3838 16.654 16.1687 16.0486C14.6703 15.3016 10.7204 15.3917 9.79306 19.2643C9.36802 21.0461 10.1451 22.888 10.978 23.8368C13.3265 26.4901 16.538 25.859 17.1305 25.6958Z" fill="#422B0D"/>
<path d="M40.1388 34.4587C39.499 33.7202 37.5413 32.3936 33.9863 34.1324C33.1964 34.5188 32.7799 34.9567 31.3502 34.8537C30.41 34.7893 29.7058 34.3342 28.8987 33.8147C27.8726 33.1535 26.7091 32.415 24.9058 32.342C23.1026 32.415 21.9391 33.1535 20.913 33.8147C20.1015 34.3385 19.4017 34.7893 18.4615 34.8537C17.0318 34.9567 16.5767 34.5875 15.7867 34.2011C12.2318 32.4623 10.3126 33.7202 9.67293 34.4587C9.10191 35.1199 9.48831 35.824 10.5402 35.0726C11.1885 34.6089 12.352 34.0208 14.9838 35.5063C15.8296 35.9828 16.6282 36.7041 18.5817 36.5667C19.9642 36.468 20.9216 35.854 21.8447 35.2572C22.7463 34.6733 23.6092 34.1281 24.9058 34.0594C26.2067 34.1281 27.0654 34.6733 27.967 35.2572C28.8901 35.854 29.8475 36.4723 31.23 36.5667C33.1835 36.7041 33.9434 35.9141 34.7892 35.4376C37.421 33.9521 38.6232 34.6089 39.2715 35.0726C40.3191 35.824 40.7098 35.1199 40.1388 34.4587Z" fill="#422B0D"/>
<defs>
<radialGradient id="paint0_radial_4861_2219" cx="0" cy="0" r="1" gradientUnits="userSpaceOnUse" gradientTransform="translate(24.9016 24) scale(24.455 24.455)">
<stop offset="0.5" stop-color="#FDE030"/>
<stop offset="0.9188" stop-color="#F7C02B"/>
<stop offset="1" stop-color="#F4A223"/>
</radialGradient>
<radialGradient id="paint1_radial_4861_2219" cx="0" cy="0" r="1" gradientUnits="userSpaceOnUse" gradientTransform="translate(24.9016 24) scale(24.455 24.455)">
<stop offset="0.5" stop-color="#FDE030"/>
<stop offset="0.9188" stop-color="#F7C02B"/>
<stop offset="1" stop-color="#F4A223"/>
</radialGradient>
</defs>
</svg>
