<svg width="51" height="48" viewBox="0 0 51 48" fill="none" xmlns="http://www.w3.org/2000/svg">
<g id="&#240;&#159;&#166;&#134; emoji &#34;disappointed but relieved face&#34;">
<path id="Vector" d="M25.3652 48C13.3867 48 0.463623 40.4866 0.463623 24C0.463623 7.51342 13.3867 0 25.3652 0C32.02 0 38.1595 2.18962 42.7105 6.18247C47.6479 10.5617 50.2668 16.7442 50.2668 24C50.2668 31.2558 47.6479 37.3954 42.7105 41.7746C38.1595 45.7674 31.977 48 25.3652 48Z" fill="url(#paint0_radial_4861_2191)"/>
<path id="Vector_2" d="M45.9262 9.73315C48.2146 13.4255 49.4082 17.8219 49.4082 22.712C49.4082 29.9679 46.7892 36.1074 41.8518 40.4866C37.3008 44.4795 31.1184 46.712 24.5066 46.712C16.7527 46.712 8.62104 43.5564 3.82104 36.863C8.44072 44.4451 17.1305 48.0001 25.3652 48.0001C31.977 48.0001 38.1595 45.7675 42.7105 41.7747C47.6479 37.3954 50.2668 31.2559 50.2668 24.0001C50.2668 18.5303 48.777 13.6702 45.9262 9.73315Z" fill="#EB8F00"/>
<g id="Group">
<path id="Vector_3" d="M25.5373 34.4114C30.1827 34.4114 33.1924 37.8117 33.9738 39.3788C34.2743 39.9842 34.2915 40.4865 34.0339 40.7226C33.7634 40.8987 33.4114 40.8987 33.1409 40.7226C33.0078 40.6582 32.8747 40.5853 32.7545 40.4994C28.4396 37.4082 22.6393 37.4082 18.3244 40.4994C18.2042 40.5853 18.0754 40.6582 17.938 40.7226C17.6675 40.903 17.3155 40.903 17.045 40.7226C16.7874 40.4865 16.8046 39.9842 17.1051 39.3788C17.8822 37.816 20.8919 34.4114 25.5373 34.4114Z" fill="#422B0D"/>
<path id="Vector_4" d="M9.8187 14.0694C8.87416 14.2369 8.82693 15.6108 9.85734 15.658C12.1328 15.6923 14.331 14.8508 16.0055 13.3095C16.6409 12.76 17.1819 12.1117 17.5983 11.3818C17.8473 11.0254 17.7615 10.536 17.4094 10.2827C17.0573 10.0294 16.5636 10.1195 16.3103 10.4716L16.2674 10.5145C14.5801 12.3993 12.3089 13.6487 9.8187 14.0694Z" fill="#422B0D"/>
<path id="Vector_5" d="M35.0338 10.5274L34.9908 10.4845C34.7418 10.1282 34.2481 10.0423 33.8917 10.2913C33.5354 10.5403 33.4495 11.0341 33.7028 11.3904C34.1236 12.116 34.6645 12.7643 35.3042 13.3095C36.9787 14.8509 39.1769 15.6881 41.4524 15.6494C42.4828 15.6022 42.4355 14.2283 41.4867 14.0609C38.9966 13.6444 36.7254 12.3994 35.0338 10.5274Z" fill="#422B0D"/>
</g>
<path id="Vector_6" d="M6.44007 42.9339C2.80787 42.9339 0 39.409 0 36.3908C0 34.2698 0.948837 31.8097 2.29267 28.4008C2.46011 27.8984 2.68336 27.3918 2.90662 26.8337C3.54633 25.2365 4.10877 23.5063 4.96744 22.0079C5.37531 21.2781 6.29839 21.0204 7.02397 21.4283C7.2644 21.5657 7.46619 21.7632 7.60358 22.0079C8.40215 23.4806 8.9517 25.0734 9.78032 26.9324C12.1288 32.1875 12.7857 34.3128 12.7857 36.4337C12.8673 39.4262 10.0165 42.9339 6.44007 42.9339Z" fill="url(#paint1_radial_4861_2191)"/>
<path id="Vector_7" d="M10.3684 38.9195C9.54839 40.2075 7.68506 39.9499 7.68506 37.8418C7.68506 36.4937 7.95983 29.5728 9.11905 30.5431C10.9995 32.1188 11.5362 37.1248 10.3684 38.9195Z" fill="#81D4FA"/>
<path id="Vector_8" d="M17.2379 20.5825C15.439 20.5825 13.8032 22.1024 13.8032 24.6269C13.8032 27.1514 15.439 28.667 17.2379 28.667C19.0369 28.667 20.6726 27.1471 20.6726 24.6269C20.6726 22.1067 19.0369 20.5825 17.2379 20.5825Z" fill="#422B0D"/>
<path id="Vector_9" d="M17.0703 22.2697C16.4606 21.9778 15.7264 22.2354 15.4302 22.845C15.2027 23.3216 15.3057 23.8926 15.6878 24.2619C16.2975 24.5538 17.0316 24.2962 17.3279 23.6865C17.5554 23.21 17.4524 22.639 17.0703 22.2697Z" fill="#896024"/>
<path id="Vector_10" d="M33.694 20.5825C31.8951 20.5825 30.2593 22.1024 30.2593 24.6269C30.2593 27.1514 31.8951 28.667 33.694 28.667C35.4929 28.667 37.1287 27.1471 37.1287 24.6269C37.1287 22.1067 35.5015 20.5825 33.694 20.5825Z" fill="#422B0D"/>
<path id="Vector_11" d="M33.5361 22.2697C32.9264 21.9778 32.1923 22.2354 31.896 22.845C31.6685 23.3216 31.7715 23.8926 32.1536 24.2619C32.7633 24.5538 33.4975 24.2962 33.7937 23.6865C34.0213 23.21 33.9182 22.639 33.5361 22.2697Z" fill="#896024"/>
</g>
<defs>
<radialGradient id="paint0_radial_4861_2191" cx="0" cy="0" r="1" gradientUnits="userSpaceOnUse" gradientTransform="translate(25.3652 24) scale(24.455 24.455)">
<stop offset="0.5" stop-color="#FDE030"/>
<stop offset="0.92" stop-color="#F7C02B"/>
<stop offset="1" stop-color="#F4A223"/>
</radialGradient>
<radialGradient id="paint1_radial_4861_2191" cx="0" cy="0" r="1" gradientUnits="userSpaceOnUse" gradientTransform="translate(6.89946 24.0174) scale(14.3399 22.0834)">
<stop offset="0.46" stop-color="#29B6F6"/>
<stop offset="1" stop-color="#1E88E5"/>
</radialGradient>
</defs>
</svg>
