<svg width="80" height="80" viewBox="0 0 80 80" fill="none" xmlns="http://www.w3.org/2000/svg">
<g clip-path="url(#clip0_5502_1497)">
<path d="M78.6668 20.0001V60.0001C78.6668 61.4146 78.1049 62.7711 77.1047 63.7713C76.1045 64.7715 74.748 65.3334 73.3335 65.3334H53.3335L42.0402 77.7601C41.7831 78.0465 41.4686 78.2756 41.1171 78.4324C40.7656 78.5892 40.385 78.6702 40.0002 78.6702C39.6153 78.6702 39.2347 78.5892 38.8833 78.4324C38.5318 78.2756 38.2173 78.0465 37.9602 77.7601L26.6668 65.3334H6.66683C5.25234 65.3334 3.89579 64.7715 2.89559 63.7713C1.8954 62.7711 1.3335 61.4146 1.3335 60.0001V20.0001C1.3335 18.5856 1.8954 17.229 2.89559 16.2288C3.89579 15.2287 5.25234 14.6667 6.66683 14.6667H40.8935C38.2965 15.7835 35.9141 17.3447 33.8535 19.2801C32.511 20.5035 31.3082 21.8719 30.2668 23.3601C26.6668 28.0001 20.0002 28.0001 20.0002 28.0001V49.3334C23.289 49.404 26.5038 50.3225 29.3335 52.0001C33.3335 54.6668 33.3335 54.6668 42.6668 54.6668H62.6135C63.6744 54.6668 64.6918 54.2453 65.4419 53.4952C66.1921 52.745 66.6135 51.7276 66.6135 50.6668C66.6135 49.6059 66.1921 48.5885 65.4419 47.8383C64.6918 47.0882 63.6744 46.6668 62.6135 46.6668H65.2402C66.301 46.6668 67.3185 46.2453 68.0686 45.4952C68.8187 44.745 69.2402 43.7276 69.2402 42.6667C69.2402 41.6059 68.8187 40.5885 68.0686 39.8383C67.3185 39.0882 66.301 38.6667 65.2402 38.6667H66.5735C67.6344 38.6667 68.6518 38.2453 69.4019 37.4952C70.1521 36.745 70.5735 35.7276 70.5735 34.6667C70.5735 33.6059 70.1521 32.5885 69.4019 31.8383C68.6518 31.0882 67.6344 30.6667 66.5735 30.6667H65.2402C66.301 30.6667 67.3185 30.2453 68.0686 29.4952C68.8187 28.745 69.2402 27.7276 69.2402 26.6667C69.2402 25.6059 68.8187 24.5885 68.0686 23.8383C67.3185 23.0882 66.301 22.6667 65.2402 22.6667H52.0002C51.761 22.6682 51.5259 22.605 51.3198 22.4836C51.1136 22.3623 50.9442 22.1875 50.8294 21.9777C50.7145 21.7679 50.6586 21.5309 50.6676 21.2919C50.6765 21.0529 50.75 20.8207 50.8802 20.6201C52.0271 18.7651 52.9154 16.7621 53.5202 14.6667H73.3335C74.748 14.6667 76.1045 15.2287 77.1047 16.2288C78.1049 17.229 78.6668 18.5856 78.6668 20.0001Z" fill="#FFCE62"/>
<path d="M73.3335 14.6667H69.3335C70.748 14.6667 72.1045 15.2287 73.1047 16.2288C74.1049 17.229 74.6668 18.5856 74.6668 20.0001V60.0001C74.6668 61.4146 74.1049 62.7711 73.1047 63.7713C72.1045 64.7715 70.748 65.3334 69.3335 65.3334H73.3335C74.748 65.3334 76.1045 64.7715 77.1047 63.7713C78.1049 62.7711 78.6668 61.4146 78.6668 60.0001V20.0001C78.6668 18.5856 78.1049 17.229 77.1047 16.2288C76.1045 15.2287 74.748 14.6667 73.3335 14.6667Z" fill="#ECBA4C"/>
<path d="M38.04 77.7599C38.028 77.7733 38.012 77.7826 38 77.7959C38.2591 78.0739 38.5732 78.295 38.9223 78.445C39.2714 78.595 39.6479 78.6707 40.0279 78.6673C40.4079 78.664 40.783 78.5815 41.1294 78.4253C41.4758 78.2691 41.7859 78.0425 42.04 77.7599L53.3333 65.3333H49.3333L38.04 77.7599Z" fill="#ECBA4C"/>
<path d="M66.5733 38.6666H65.24C66.3009 38.6666 67.3183 39.0881 68.0684 39.8382C68.8186 40.5884 69.24 41.6058 69.24 42.6666C69.24 43.7275 68.8186 44.7449 68.0684 45.4951C67.3183 46.2452 66.3009 46.6666 65.24 46.6666H62.6133C63.6742 46.6666 64.6916 47.0881 65.4418 47.8382C66.1919 48.5884 66.6133 49.6058 66.6133 50.6666C66.6133 51.7275 66.1919 52.7449 65.4418 53.4951C64.6916 54.2452 63.6742 54.6666 62.6133 54.6666H42.6667C33.3333 54.6666 33.3333 54.6666 29.3333 52C26.5037 50.3224 23.2888 49.4039 20 49.3333V28C20 28 26.6667 28 30.2667 23.36C31.308 21.8718 32.5109 20.5034 33.8533 19.28C35.9139 17.3446 38.2963 15.7834 40.8933 14.6666C42.494 13.8871 43.7992 12.61 44.6133 11.0266C45.7262 9.14454 46.4346 7.05113 46.6933 4.87997C46.7979 3.87792 47.2766 2.95222 48.034 2.28786C48.7914 1.6235 49.7716 1.26941 50.7787 1.29635C51.7859 1.3233 52.7457 1.7293 53.4665 2.43321C54.1873 3.13712 54.6159 4.0871 54.6667 5.0933C54.8469 8.3269 54.4588 11.5671 53.52 14.6666C52.9146 16.7597 52.0264 18.7604 50.88 20.6133C50.748 20.814 50.6731 21.0469 50.6632 21.2869C50.6534 21.5269 50.7089 21.7651 50.8239 21.976C50.939 22.1869 51.1092 22.3626 51.3163 22.4842C51.5235 22.6059 51.7598 22.6689 52 22.6666H65.24C66.3009 22.6666 67.3183 23.0881 68.0684 23.8382C68.8186 24.5884 69.24 25.6058 69.24 26.6666C69.24 27.7275 68.8186 28.7449 68.0684 29.4951C67.3183 30.2452 66.3009 30.6666 65.24 30.6666H66.5733C67.6342 30.6666 68.6516 31.0881 69.4018 31.8382C70.1519 32.5884 70.5733 33.6058 70.5733 34.6666C70.5733 35.7275 70.1519 36.7449 69.4018 37.4951C68.6516 38.2452 67.6342 38.6666 66.5733 38.6666Z" fill="#FCEBDB"/>
<path d="M50.88 20.6133C50.748 20.814 50.6731 21.0469 50.6632 21.2869C50.6534 21.5269 50.7089 21.7651 50.824 21.976C50.939 22.1869 51.1092 22.3626 51.3163 22.4842C51.5235 22.6059 51.7598 22.6689 52 22.6666H48C47.7608 22.6681 47.5257 22.6048 47.3196 22.4835C47.1135 22.3622 46.944 22.1874 46.8292 21.9776C46.7144 21.7677 46.6585 21.5308 46.6674 21.2918C46.6764 21.0528 46.7498 20.8206 46.88 20.62C49.6622 15.9378 50.9809 10.5307 50.6667 5.09331C50.625 4.43571 50.4219 3.79852 50.0754 3.23807C49.7289 2.67762 49.2496 2.21118 48.68 1.87997C49.2691 1.53811 49.9358 1.35269 50.6168 1.34137C51.2978 1.33005 51.9703 1.49321 52.5704 1.81531C53.1705 2.13741 53.6782 2.60773 54.0451 3.18152C54.4121 3.7553 54.626 4.41344 54.6667 5.09331C54.9782 10.5283 53.6596 15.9325 50.88 20.6133Z" fill="#EED6BF"/>
<path d="M66.5733 38.6667H65.2399C66.3008 38.6667 67.3182 39.0882 68.0684 39.8383C68.8185 40.5885 69.24 41.6059 69.24 42.6667C69.24 43.7276 68.8185 44.745 68.0684 45.4952C67.3182 46.2453 66.3008 46.6668 65.2399 46.6668H62.6133C63.6741 46.6668 64.6916 47.0882 65.4417 47.8383C66.1919 48.5885 66.6133 49.6059 66.6133 50.6668C66.6133 51.7276 66.1919 52.745 65.4417 53.4952C64.6916 54.2453 63.6741 54.6668 62.6133 54.6668H58.6133C59.6741 54.6668 60.6916 54.2453 61.4417 53.4952C62.1919 52.745 62.6133 51.7276 62.6133 50.6668C62.6133 49.6059 62.1919 48.5885 61.4417 47.8383C60.6916 47.0882 59.6741 46.6668 58.6133 46.6668H61.2399C62.3008 46.6668 63.3182 46.2453 64.0684 45.4952C64.8185 44.745 65.2399 43.7276 65.2399 42.6667C65.2399 41.6059 64.8185 40.5885 64.0684 39.8383C63.3182 39.0882 62.3008 38.6667 61.2399 38.6667H62.5733C63.3639 38.6661 64.1366 38.4311 64.7937 37.9915C65.4509 37.5519 65.963 36.9275 66.2655 36.197C66.5679 35.4665 66.6471 34.6628 66.4931 33.8874C66.339 33.1119 65.9586 32.3995 65.3999 31.8401C64.0666 30.5334 62.8399 30.6667 61.2399 30.6667C62.0306 30.6661 62.8032 30.4311 63.4604 29.9915C64.1175 29.5519 64.6297 28.9275 64.9321 28.197C65.2346 27.4665 65.3138 26.6628 65.1598 25.8874C65.0057 25.1119 64.6253 24.3995 64.0666 23.8401C63.337 23.1168 62.3601 22.6975 61.3333 22.6667H65.2399C66.3008 22.6667 67.3182 23.0882 68.0684 23.8383C68.8185 24.5885 69.24 25.6059 69.24 26.6667C69.24 27.7276 68.8185 28.745 68.0684 29.4952C67.3182 30.2453 66.3008 30.6667 65.2399 30.6667H66.5733C67.6341 30.6667 68.6516 31.0882 69.4017 31.8383C70.1519 32.5885 70.5733 33.6059 70.5733 34.6667C70.5733 35.7276 70.1519 36.745 69.4017 37.4952C68.6516 38.2453 67.6341 38.6667 66.5733 38.6667Z" fill="#EED6BF"/>
<path d="M17.3335 25.3333H12.0002C10.5274 25.3333 9.3335 26.5272 9.3335 27.9999V49.3333C9.3335 50.806 10.5274 51.9999 12.0002 51.9999H17.3335C18.8063 51.9999 20.0002 50.806 20.0002 49.3333V27.9999C20.0002 26.5272 18.8063 25.3333 17.3335 25.3333Z" fill="#8DD1AC"/>
<path d="M1.3335 60.0001C1.3335 61.4146 1.8954 62.7711 2.89559 63.7713C3.89579 64.7715 5.25234 65.3334 6.66683 65.3334H10.6668C9.25234 65.3334 7.89579 64.7715 6.89559 63.7713C5.8954 62.7711 5.3335 61.4146 5.3335 60.0001V20.0001C5.3335 18.5856 5.8954 17.229 6.89559 16.2288C7.89579 15.2287 9.25234 14.6667 10.6668 14.6667H6.66683C5.25234 14.6667 3.89579 15.2287 2.89559 16.2288C1.8954 17.229 1.3335 18.5856 1.3335 20.0001V60.0001Z" fill="white"/>
<path d="M0 49.3306H2.66667V59.9972H0V49.3306Z" fill="white"/>
<path d="M1.33333 55.9972C2.06971 55.9972 2.66667 55.4003 2.66667 54.6639C2.66667 53.9275 2.06971 53.3306 1.33333 53.3306C0.596954 53.3306 0 53.9275 0 54.6639C0 55.4003 0.596954 55.9972 1.33333 55.9972Z" fill="#212121"/>
<path d="M73.3333 13.3332H55.2413C55.9017 10.6095 56.1573 7.8034 56 5.00521C55.9273 3.6684 55.3544 2.40784 54.3952 1.47387C53.436 0.539898 52.1607 0.000830032 50.8224 -0.036279C49.4841 -0.0733879 48.1808 0.394176 47.1713 1.27356C46.1619 2.15294 45.52 3.37982 45.3733 4.71055C45.134 6.7016 44.4848 8.62149 43.4667 10.3492C42.8254 11.6161 41.8127 12.6571 40.564 13.3332H6.66667C4.89921 13.3353 3.20474 14.0384 1.95496 15.2882C0.705176 16.538 0.00211714 18.2324 0 19.9999L0 49.3332C0 49.6868 0.140476 50.026 0.390524 50.276C0.640573 50.5261 0.979711 50.6665 1.33333 50.6665C1.68696 50.6665 2.02609 50.5261 2.27614 50.276C2.52619 50.026 2.66667 49.6868 2.66667 49.3332V19.9999C2.66667 18.939 3.08809 17.9216 3.83824 17.1715C4.58839 16.4213 5.6058 15.9999 6.66667 15.9999H35.772C34.7795 16.7075 33.8343 17.4794 32.9427 18.3105C31.5433 19.5771 30.2909 20.9971 29.2093 22.5439C26.868 25.5612 22.9427 26.3692 21.0587 26.5865C20.7725 25.829 20.2632 25.1761 19.598 24.7142C18.9328 24.2523 18.1431 24.0033 17.3333 23.9999H12C10.9391 23.9999 9.92172 24.4213 9.17157 25.1715C8.42143 25.9216 8 26.939 8 27.9999V49.3332C8 50.3941 8.42143 51.4115 9.17157 52.1616C9.92172 52.9118 10.9391 53.3332 12 53.3332H17.3333C18.1465 53.3301 18.9395 53.0793 19.6065 52.614C20.2735 52.1488 20.7829 51.4913 21.0667 50.7292C23.7278 50.9174 26.3066 51.7329 28.592 53.1092C32.9333 55.9999 33.296 55.9999 42.6667 55.9999H62.6187C63.5861 55.9996 64.5351 55.7361 65.3643 55.2378C66.1934 54.7394 66.8714 54.025 67.3257 53.1709C67.7799 52.3168 67.9933 51.3552 67.943 50.3891C67.8927 49.423 67.5805 48.4888 67.04 47.6865C67.8489 47.3958 68.5756 46.9138 69.1581 46.2817C69.7406 45.6496 70.1617 44.886 70.3854 44.0561C70.6092 43.2261 70.6291 42.3544 70.4434 41.5151C70.2576 40.6758 69.8718 39.8939 69.3187 39.2359C70.1066 38.7616 70.7585 38.0916 71.2111 37.2909C71.6636 36.4903 71.9014 35.5862 71.9014 34.6665C71.9014 33.7469 71.6636 32.8428 71.2111 32.0422C70.7585 31.2415 70.1066 30.5715 69.3187 30.0972C69.9717 29.3199 70.3893 28.3724 70.5224 27.3659C70.6556 26.3595 70.4987 25.336 70.0702 24.4156C69.6418 23.4953 68.9595 22.7163 68.1037 22.1703C67.2478 21.6243 66.2539 21.3339 65.2387 21.3332H52C53.0382 19.6617 53.8709 17.871 54.48 15.9999H73.3333C74.3942 15.9999 75.4116 16.4213 76.1618 17.1715C76.9119 17.9216 77.3333 18.939 77.3333 19.9999V59.9999C77.3333 61.0607 76.9119 62.0782 76.1618 62.8283C75.4116 63.5784 74.3942 63.9999 73.3333 63.9999H53.3333C53.1475 64 52.9637 64.0389 52.7938 64.1143C52.6239 64.1896 52.4716 64.2996 52.3467 64.4372L41.0493 76.8665C40.9148 77.0108 40.7521 77.1259 40.5712 77.2045C40.3904 77.2832 40.1952 77.3238 39.998 77.3238C39.8008 77.3238 39.6056 77.2832 39.4248 77.2045C39.2439 77.1259 39.0812 77.0108 38.9467 76.8665L27.6533 64.4412C27.5288 64.3028 27.3767 64.1921 27.2067 64.1161C27.0368 64.0401 26.8528 64.0005 26.6667 63.9999H6.66667C5.6058 63.9999 4.58839 63.5784 3.83824 62.8283C3.08809 62.0782 2.66667 61.0607 2.66667 59.9999C2.66667 59.6463 2.52619 59.3071 2.27614 59.0571C2.02609 58.807 1.68696 58.6665 1.33333 58.6665C0.979711 58.6665 0.640573 58.807 0.390524 59.0571C0.140476 59.3071 0 59.6463 0 59.9999C0.00211714 61.7673 0.705176 63.4618 1.95496 64.7116C3.20474 65.9614 4.89921 66.6644 6.66667 66.6665H26.0773L36.9693 78.6519C37.3514 79.0764 37.8185 79.4159 38.3403 79.6483C38.862 79.8806 39.4268 80.0007 39.998 80.0007C40.5692 80.0007 41.134 79.8806 41.6557 79.6483C42.1775 79.4159 42.6446 79.0764 43.0267 78.6519L53.9227 66.6665H73.3333C75.1008 66.6644 76.7953 65.9614 78.045 64.7116C79.2948 63.4618 79.9979 61.7673 80 59.9999V19.9999C79.9979 18.2324 79.2948 16.538 78.045 15.2882C76.7953 14.0384 75.1008 13.3353 73.3333 13.3332ZM17.3333 50.6665H12C11.6464 50.6665 11.3072 50.5261 11.0572 50.276C10.8071 50.026 10.6667 49.6868 10.6667 49.3332V27.9999C10.6667 27.6463 10.8071 27.3071 11.0572 27.0571C11.3072 26.807 11.6464 26.6665 12 26.6665H17.3333C17.687 26.6665 18.0261 26.807 18.2761 27.0571C18.5262 27.3071 18.6667 27.6463 18.6667 27.9999V49.3332C18.6667 49.6868 18.5262 50.026 18.2761 50.276C18.0261 50.5261 17.687 50.6665 17.3333 50.6665ZM49.6587 22.6052C49.8874 23.0267 50.2257 23.3788 50.6377 23.6242C51.0498 23.8697 51.5204 23.9994 52 23.9999H65.2427C65.9499 23.9999 66.6282 24.2808 67.1283 24.7809C67.6284 25.281 67.9093 25.9593 67.9093 26.6665C67.9093 27.3738 67.6284 28.0521 67.1283 28.5522C66.6282 29.0523 65.9499 29.3332 65.2427 29.3332C64.889 29.3332 64.5499 29.4737 64.2999 29.7237C64.0498 29.9738 63.9093 30.3129 63.9093 30.6665C63.9093 31.0202 64.0498 31.3593 64.2999 31.6094C64.5499 31.8594 64.889 31.9999 65.2427 31.9999H66.576C67.2832 31.9999 67.9615 32.2808 68.4616 32.7809C68.9617 33.281 69.2427 33.9593 69.2427 34.6665C69.2427 35.3738 68.9617 36.0521 68.4616 36.5522C67.9615 37.0523 67.2832 37.3332 66.576 37.3332H65.2427C64.889 37.3332 64.5499 37.4737 64.2999 37.7237C64.0498 37.9738 63.9093 38.3129 63.9093 38.6665C63.9093 39.0202 64.0498 39.3593 64.2999 39.6094C64.5499 39.8594 64.889 39.9999 65.2427 39.9999C65.9499 39.9999 66.6282 40.2808 67.1283 40.7809C67.6284 41.281 67.9093 41.9593 67.9093 42.6665C67.9093 43.3738 67.6284 44.0521 67.1283 44.5522C66.6282 45.0523 65.9499 45.3332 65.2427 45.3332H62.6187C62.265 45.3332 61.9259 45.4737 61.6759 45.7237C61.4258 45.9738 61.2853 46.3129 61.2853 46.6665C61.2853 47.0202 61.4258 47.3593 61.6759 47.6094C61.9259 47.8594 62.265 47.9999 62.6187 47.9999C63.3259 47.9999 64.0042 48.2808 64.5043 48.7809C65.0044 49.281 65.2853 49.9593 65.2853 50.6665C65.2853 51.3738 65.0044 52.0521 64.5043 52.5522C64.0042 53.0523 63.3259 53.3332 62.6187 53.3332H42.6667C33.7333 53.3332 33.7333 53.3332 30.0733 50.8905C27.4262 49.268 24.4296 48.3016 21.3333 48.0719V29.2439C25.2228 28.92 28.8281 27.0767 31.368 24.1132C32.3503 22.7078 33.4877 21.4175 34.7587 20.2665C36.4734 18.617 38.4576 17.2728 40.6253 16.2919C42.8339 15.4212 44.6594 13.791 45.7733 11.6945C46.9767 9.65209 47.7427 7.3819 48.0227 5.02788C48.0999 4.36559 48.4225 3.75628 48.9268 3.32006C49.4311 2.88384 50.0805 2.65237 50.747 2.67128C51.4135 2.69019 52.0488 2.9581 52.5275 3.42221C53.0062 3.88632 53.2937 4.51294 53.3333 5.17855C53.6323 10.3325 52.3838 15.4581 49.748 19.8972C49.4925 20.2994 49.3495 20.7628 49.3338 21.239C49.3181 21.7153 49.4303 22.187 49.6587 22.6052Z" fill="#212121"/>
</g>
<defs>
<clipPath id="clip0_5502_1497">
<rect width="80" height="80" fill="white"/>
</clipPath>
</defs>
</svg>
