<svg width="64" height="64" viewBox="0 0 64 64" fill="none" xmlns="http://www.w3.org/2000/svg">
<g clip-path="url(#clip0_4848_1210)">
<mask id="mask0_4848_1210" style="mask-type:luminance" maskUnits="userSpaceOnUse" x="-26" y="-18" width="91" height="91">
<path d="M64.549 18.3204L10.3206 -18.0002L-25.9999 36.2283L28.2285 72.5488L64.549 18.3204Z" fill="white"/>
</mask>
<g mask="url(#mask0_4848_1210)">
<path d="M27.9188 38.7019L23.4675 35.7206C22.6788 35.1923 21.6111 35.4034 21.0829 36.1921L18.8155 39.5773L26.123 44.4717L28.3904 41.0864C28.9186 40.2978 28.7075 39.2302 27.9188 38.7019Z" fill="#9FBECF"/>
<path d="M27.9551 38.7275L46.4973 11.0431C47.3344 9.79327 46.9998 8.10148 45.75 7.26441C44.5002 6.42733 42.8084 6.76192 41.9713 8.01172L23.4291 35.6962L27.9551 38.7275Z" fill="#DA8B63"/>
<path d="M27.9188 38.7019L23.4675 35.7206C22.6788 35.1923 21.6111 35.4034 21.0829 36.1921L18.8155 39.5773L26.123 44.4717L28.3904 41.0864C28.9186 40.2978 28.7075 39.2302 27.9188 38.7019Z" stroke="black" stroke-width="2.2" stroke-miterlimit="10" stroke-linecap="round" stroke-linejoin="round"/>
<path d="M0.85444 52.6797C2.00012 53.4471 3.55084 53.1403 4.31811 51.9947L10.4755 42.8014C12.7252 39.4425 17.2717 38.5434 20.6306 40.793L24.308 43.256C27.6668 45.5056 28.5659 50.0522 26.3163 53.4111L22.0061 59.8463C20.2186 62.5152 16.606 63.2296 13.9372 61.4421L0.85444 52.6797Z" fill="#FFCE62"/>
<path d="M0.854441 52.6797C2.00012 53.4471 3.55084 53.1403 4.31812 51.9947L10.4755 42.8014C12.7252 39.4425 17.2717 38.5434 20.6306 40.793L24.308 43.256C27.6668 45.5056 28.5659 50.0522 26.3163 53.4111L22.0061 59.8463C20.2186 62.5152 16.606 63.2296 13.9372 61.4421L0.854441 52.6797Z" stroke="black" stroke-width="2.2" stroke-miterlimit="10" stroke-linecap="round" stroke-linejoin="round"/>
<path d="M40.1974 20.4492L46.4973 11.0431C47.3344 9.79326 46.9998 8.10148 45.75 7.26441C44.5002 6.42733 42.8084 6.76192 41.9713 8.01172L23.4291 35.6962" stroke="black" stroke-width="2.2" stroke-miterlimit="10" stroke-linecap="round" stroke-linejoin="round"/>
<path d="M27.9551 38.7275L33.8147 29.9789" stroke="black" stroke-width="2.2" stroke-miterlimit="10" stroke-linecap="round" stroke-linejoin="round"/>
<path d="M10.0958 58.8691C11.9705 60.1247 14.5081 59.6228 15.7637 57.7481L18.5635 53.568" stroke="black" stroke-width="2.2" stroke-miterlimit="10" stroke-linecap="round" stroke-linejoin="round"/>
<path d="M4.81452 55.3329C6.68921 56.5885 9.22688 56.0867 10.4825 54.212L13.2822 50.0318" stroke="black" stroke-width="2.2" stroke-miterlimit="10" stroke-linecap="round" stroke-linejoin="round"/>
</g>
<path d="M4 27.303C7.33333 26.7879 9.33333 24.0909 10 21C10.6667 24.0909 12 26.7879 16 27.303C13.3333 27.8182 10.6667 29.8788 10 34C8.66667 29.8788 8 27.8182 4 27.303Z" stroke="#212121" stroke-width="2" stroke-linejoin="round"/>
<path d="M44 47C46.5 46.5385 47.5 43.7692 48 41C48.5 43.7692 50 46.5385 53 47C51 47.4615 49 49.3077 48.5 53C47.5 49.3077 47 47.4615 44 47Z" stroke="#212121" stroke-width="2" stroke-linejoin="round"/>
<path d="M32 54.5C34.5 54.1538 35.5 52.0769 36 50C36.5 52.0769 38 54.1538 41 54.5C39 54.8462 37 56.2308 36.5 59C35.5 56.2308 35 54.8462 32 54.5Z" stroke="#212121" stroke-width="2" stroke-linejoin="round"/>
</g>
<defs>
<clipPath id="clip0_4848_1210">
<rect width="64" height="64" fill="white"/>
</clipPath>
</defs>
</svg>
