<svg width="32" height="32" viewBox="0 0 32 32" fill="none" xmlns="http://www.w3.org/2000/svg">
<path d="M29.8667 32H2.13333C0.96 32 0 31.04 0 29.8667V2.13333C0 0.96 0.96 0 2.13333 0H29.8667C31.04 0 32 0.96 32 2.13333V29.8667C32 31.04 31.04 32 29.8667 32Z" fill="url(#paint0_linear_5070_3039)"/>
<path opacity="0.4" d="M29.8667 0.8C30.6133 0.8 31.2 1.38667 31.2 2.13333V29.8667C31.2 30.6133 30.6133 31.2 29.8667 31.2H2.13333C1.38667 31.2 0.8 30.6133 0.8 29.8667V2.13333C0.8 1.38667 1.38667 0.8 2.13333 0.8H29.8667ZM29.8667 0H2.13333C0.96 0 0 0.96 0 2.13333V29.8667C0 31.04 0.96 32 2.13333 32H29.8667C31.04 32 32 31.04 32 29.8667V2.13333C32 0.96 31.04 0 29.8667 0Z" fill="#424242"/>
<path d="M10.3466 28.1334C10.2132 28.1334 10.0799 28.1334 9.91989 28.1067C9.03989 27.9467 8.31989 27.3334 8.02656 26.48L3.99989 14.3467C3.57322 13.0667 4.26656 11.7067 5.54656 11.28C6.82656 10.8534 8.18656 11.5467 8.61322 12.8267L11.2266 20.6934L23.7866 4.80002C24.6132 3.76002 26.1332 3.57335 27.1999 4.40002C28.2399 5.22669 28.4266 6.74669 27.5999 7.81335L12.2399 27.2C11.7866 27.7867 11.0666 28.1334 10.3466 28.1334Z" fill="url(#paint1_linear_5070_3039)"/>
<path opacity="0.4" d="M25.7066 4.48003C26.1066 4.48003 26.5066 4.61337 26.8266 4.88003C27.1999 5.17337 27.4399 5.6267 27.4932 6.1067C27.5466 6.5867 27.4132 7.0667 27.1199 7.44003L11.7599 26.8534C11.4132 27.28 10.8799 27.5467 10.3199 27.5467C10.2132 27.5467 10.1066 27.5467 9.99989 27.52C9.33322 27.4134 8.79989 26.9334 8.58656 26.2934L4.55989 14.16C4.23989 13.2 4.74656 12.1867 5.70656 11.8667C5.89322 11.8134 6.07989 11.76 6.29322 11.76C7.06656 11.76 7.75989 12.2667 8.02656 13.0134L10.6399 20.88C10.7199 21.0934 10.8799 21.2534 11.1199 21.28H11.2266C11.4132 21.28 11.5732 21.2 11.7066 21.04L24.2666 5.17337C24.6132 4.72003 25.1466 4.48003 25.7066 4.48003ZM25.7066 3.8667C24.9866 3.8667 24.2932 4.1867 23.8132 4.77337L11.2266 20.6667L8.61322 12.8C8.26656 11.7867 7.33322 11.1467 6.31989 11.1467C6.05322 11.1467 5.81322 11.2 5.54656 11.28C4.26656 11.7067 3.57322 13.0667 3.99989 14.3467L8.05322 26.48C8.34656 27.3334 9.06656 27.9467 9.94656 28.1067C10.0799 28.1334 10.2399 28.1334 10.3732 28.1334C11.1199 28.1334 11.8132 27.7867 12.2666 27.2267L27.6266 7.81337C28.4532 6.77337 28.2932 5.2267 27.2266 4.40003C26.7732 4.05337 26.2399 3.8667 25.7066 3.8667Z" fill="#424242"/>
<defs>
<linearGradient id="paint0_linear_5070_3039" x1="16" y1="0.0533333" x2="16" y2="32.1067" gradientUnits="userSpaceOnUse">
<stop stop-color="#C3F66F"/>
<stop offset="1" stop-color="#07AB0D"/>
</linearGradient>
<linearGradient id="paint1_linear_5070_3039" x1="15.9956" y1="3.86669" x2="15.9956" y2="28.2134" gradientUnits="userSpaceOnUse">
<stop stop-color="white"/>
</linearGradient>
</defs>
</svg>
