<svg width="64" height="64" viewBox="0 0 64 64" fill="none" xmlns="http://www.w3.org/2000/svg">
<path d="M55.5299 48.4187C57.49 50.3822 57.49 53.5647 55.5299 55.5282C53.5701 57.4906 50.3889 57.4906 48.4287 55.5282L35 40.9251L40.9196 35L55.5299 48.4187Z" fill="#E8834D"/>
<path d="M38.5769 32L42 34.829L35.1461 41L32 37.9231L38.5769 32Z" fill="#495D85"/>
<path d="M56.5236 13.2255L52.0122 17.7722H49.1372L46.3293 14.8627V11.9877L50.7744 7.47678C49.8578 7.16793 48.8752 7 47.8538 7C41.5917 7 37.193 13.1584 39.1839 19.068L30.5486 27.7044L30.5419 27.6973L17.0609 14.1858V11.3121L9.875 7L7.00079 9.87418L11.3121 17.06L14.1859 17.0612L27.6677 30.5722L27.6736 30.5782L19.0681 39.1841C13.1696 37.1971 7 41.5791 7 47.8534C7 48.8749 7.16753 49.8574 7.47639 50.7741L11.9878 46.2274H14.8628L17.7723 49.1369V52.0119L13.2256 56.5232C14.1422 56.8321 15.1248 57 16.1462 57C22.4199 57 26.803 50.83 24.8161 44.9316C28.9841 40.7637 40.7826 28.9652 44.9319 24.8159C45.8498 25.1252 46.8323 25.2927 47.8538 25.2927C52.9055 25.2927 57 21.1982 57 16.1466C57 15.1251 56.8325 14.1422 56.5236 13.2255Z" fill="#FCEBDB"/>
<path d="M56.738 12.2482C56.3952 12.1684 56.0349 12.272 55.7874 12.5219L51.5768 16.7657H49.5582L47.336 14.4635V12.4168L51.4863 8.20472C51.7319 7.95557 51.8319 7.59733 51.7505 7.25654C51.6696 6.91614 51.4189 6.64161 51.0872 6.52973C50.0446 6.17823 48.9535 6.0001 47.8438 6.0001C44.5358 6.0001 41.5305 7.54258 39.5984 10.232C37.79 12.7496 37.2326 15.835 38.0312 18.7879L30.5499 26.269L18.0859 13.7768V11.325C18.0859 10.9683 17.8986 10.6375 17.5928 10.4542L10.4114 6.1449C10.0114 5.90488 9.50005 5.96796 9.17075 6.29764L6.29835 9.16956C5.96905 9.49924 5.90597 10.0106 6.1456 10.4105L10.4542 17.5917C10.6375 17.8976 10.968 18.0845 11.3247 18.0849L13.7757 18.0856L26.2409 30.5778L18.7881 38.0304C15.8352 37.2322 12.7482 37.7904 10.2293 39.5999C7.54134 41.5307 6 44.5352 6 47.8431C6 48.9523 6.17814 50.0437 6.52965 51.086C6.64193 51.4196 6.91925 51.6715 7.26203 51.7509C7.60521 51.8306 7.96506 51.7271 8.21302 51.4771L12.4232 47.2337H14.453L16.7656 49.5462V51.5759L12.522 55.786C12.2721 56.034 12.1685 56.3938 12.2483 56.737C12.3276 57.0797 12.5795 57.357 12.9132 57.4693C13.9554 57.8208 15.0469 57.999 16.1562 57.999C19.4642 57.999 22.4683 56.4573 24.3996 53.7694C26.2092 51.2506 26.7674 48.164 25.9691 45.2112L31.9548 39.2257L33.3259 40.7151L34.703 42.2107L47.5677 56.1843C47.5772 56.1946 47.5871 56.2046 47.5971 56.2145C49.9775 58.5948 53.8342 58.5956 56.2159 56.2141C58.5907 53.8381 58.5907 49.9719 56.2159 47.5959C56.2055 47.5856 56.1948 47.5757 56.1841 47.5658L42.1883 34.726C42.2143 34.7857 40.6902 33.3518 40.6902 33.3518L39.1981 31.9823L45.2127 25.9679C46.0676 26.1964 46.95 26.3122 47.8438 26.3122C53.4442 26.3122 58 21.7562 58 16.1564C58 15.0467 57.8219 13.9557 57.4703 12.9131C57.3581 12.5794 57.0807 12.3275 56.738 12.2482ZM14.916 16.3527C14.7255 16.1619 14.4672 16.0647 14.1975 16.0647L11.9003 16.0639L8.29554 10.0455L10.0464 8.29478L16.0546 11.9002V14.1973C16.0546 14.4663 16.1613 14.7242 16.3514 14.9146L29.1137 27.7055L27.6771 29.1417L14.916 16.3527ZM40.7505 36.1638L54.7939 49.0468C56.3626 50.6321 56.3579 53.1989 54.7793 54.7783C53.1971 56.3605 50.6357 56.3652 49.0471 54.7922L36.1404 40.773L40.7505 36.1638ZM39.2524 34.7891L34.7633 39.2773L33.3922 37.788L37.7603 33.4196L39.2524 34.7891ZM47.8438 24.281C46.9555 24.281 46.0819 24.1385 45.248 23.8577C44.8826 23.7351 44.4787 23.8295 44.2057 24.102C39.114 29.1937 28.1425 40.1644 24.1025 44.2047C23.8295 44.4776 23.7347 44.8815 23.8581 45.2473C24.7024 47.7542 24.2985 50.4282 22.7496 52.5844C21.2051 54.7343 18.8016 55.9677 16.1562 55.9677C15.859 55.9677 15.5634 55.9514 15.2706 55.9201L18.4965 52.7193C18.6886 52.5289 18.7969 52.2694 18.7969 51.9984V49.1253C18.7969 48.8559 18.6897 48.5977 18.4993 48.4072L15.5916 45.4996C15.4012 45.3092 15.1429 45.2021 14.8735 45.2021H12.0003C11.7293 45.2021 11.4699 45.3104 11.279 45.5024L8.07852 48.7282C8.04678 48.4354 8.03092 48.1398 8.03092 47.8427C8.03092 45.1969 9.26398 42.7939 11.4143 41.2495C13.5702 39.7006 16.2446 39.2964 18.752 40.141C19.1174 40.2644 19.5213 40.1696 19.7943 39.8966C19.8502 39.8411 39.8832 19.8082 39.8975 19.794C40.1705 19.521 40.2649 19.1175 40.1419 18.7518C39.2972 16.2448 39.7003 13.5717 41.248 11.417C42.7937 9.26518 45.1976 8.03135 47.8434 8.03135C48.1497 8.03135 48.454 8.04841 48.7555 8.08173L45.5967 11.2877C45.4094 11.4777 45.3047 11.7336 45.3047 12.0002V14.8733C45.3047 15.1368 45.4067 15.3895 45.5896 15.5787L48.3957 18.4863C48.5869 18.6847 48.8508 18.7966 49.1265 18.7966H51.9997C52.2703 18.7966 52.5297 18.6887 52.7206 18.4963L55.9211 15.2709C55.9528 15.5636 55.9687 15.8592 55.9687 16.1564C55.9687 20.6362 52.3238 24.281 47.8438 24.281Z" fill="#212121"/>
</svg>
