<svg width="20" height="20" viewBox="0 0 20 20" fill="none" xmlns="http://www.w3.org/2000/svg">
<path fill-rule="evenodd" clip-rule="evenodd" d="M7.50033 4.99992C7.50033 3.61921 8.61961 2.49992 10.0003 2.49992C11.381 2.49992 12.5003 3.61921 12.5003 4.99992C12.5003 6.38063 11.381 7.49992 10.0003 7.49992C8.61961 7.49992 7.50033 6.38063 7.50033 4.99992ZM10.0003 0.833252C7.69914 0.833252 5.83366 2.69873 5.83366 4.99992C5.83366 7.3011 7.69914 9.16658 10.0003 9.16658C12.3015 9.16658 14.167 7.3011 14.167 4.99992C14.167 2.69873 12.3015 0.833252 10.0003 0.833252ZM10.0003 9.99992C5.39796 9.99992 1.66699 13.7309 1.66699 18.3333C1.66699 18.7935 2.04009 19.1666 2.50033 19.1666H17.5003C17.9606 19.1666 18.3337 18.7935 18.3337 18.3333C18.3337 13.7309 14.6027 9.99992 10.0003 9.99992ZM10.0003 11.6666C13.4 11.6666 16.2053 14.2113 16.6154 17.4999H3.38524C3.79532 14.2113 6.60065 11.6666 10.0003 11.6666Z" fill="#212121"/>
</svg>
