<svg width="56" height="56" viewBox="0 0 56 56" fill="none" xmlns="http://www.w3.org/2000/svg">
<path d="M27.2695 54.1389C27.5062 54.2121 27.7524 54.2496 28.0002 54.25C28.2419 54.2494 28.4822 54.2132 28.7133 54.1424C32.2311 53.1343 35.5551 51.544 38.5474 49.4375C38.7252 49.2993 38.8429 49.0978 38.8759 48.875C38.9089 48.6522 38.8547 48.4252 38.7246 48.2413C38.5945 48.0575 38.3986 47.9308 38.1775 47.8878C37.9564 47.8448 37.7272 47.8887 37.5377 48.0104C34.7006 50.0057 31.5493 51.5114 28.2145 52.465C28.0694 52.5114 27.9134 52.5114 27.7683 52.465C23.4128 51.2286 19.3848 49.0437 15.9733 46.067C15.8884 45.9835 15.7874 45.9181 15.6764 45.875C15.5654 45.8318 15.4468 45.8118 15.3278 45.8161C15.2088 45.8204 15.0919 45.8489 14.9843 45.9C14.8767 45.951 14.7807 46.0235 14.7021 46.1129C14.6235 46.2024 14.5639 46.307 14.5272 46.4202C14.4904 46.5335 14.4771 46.6531 14.4881 46.7716C14.4992 46.8902 14.5343 47.0053 14.5914 47.1098C14.6485 47.2143 14.7263 47.3061 14.82 47.3795C18.4208 50.5229 22.6721 52.8311 27.2695 54.1389Z" fill="#212121"/>
<path d="M4.87301 13.1714C4.75907 13.1561 4.64325 13.1635 4.53215 13.193C4.42105 13.2225 4.31686 13.2736 4.22552 13.3434C4.13419 13.4132 4.0575 13.5003 3.99985 13.5998C3.94219 13.6992 3.9047 13.8091 3.88951 13.923C3.27263 18.5351 2.53763 30.3625 9.01263 40.5834C9.07411 40.6805 9.1541 40.7645 9.24806 40.8307C9.34201 40.8969 9.44808 40.9439 9.5602 40.9691C9.67233 40.9943 9.78832 40.9971 9.90155 40.9775C10.0148 40.9579 10.123 40.9161 10.2201 40.8546C10.3172 40.7932 10.4013 40.7132 10.4674 40.6192C10.5336 40.5253 10.5807 40.4192 10.6058 40.3071C10.631 40.1949 10.6339 40.0789 10.6142 39.9657C10.5946 39.8525 10.5529 39.7442 10.4914 39.6471C4.32263 29.9136 5.03226 18.5771 5.62288 14.1549C5.65373 13.925 5.59208 13.6924 5.45148 13.5079C5.31087 13.3235 5.10281 13.2025 4.87301 13.1714Z" fill="#212121"/>
<path d="M11.4093 42.4786C11.3197 42.5507 11.2451 42.6397 11.1899 42.7406C11.1347 42.8415 11.0999 42.9523 11.0876 43.0666C11.0752 43.181 11.0855 43.2966 11.1179 43.407C11.1503 43.5173 11.2041 43.6202 11.2763 43.7098C11.5388 44.0353 11.8197 44.3608 12.1084 44.6863C12.1847 44.7724 12.2771 44.8428 12.3806 44.8932C12.484 44.9437 12.5963 44.9732 12.7112 44.9803C12.826 44.9873 12.9411 44.9716 13.0499 44.9342C13.1587 44.8967 13.2591 44.8382 13.3452 44.762C13.4314 44.6857 13.5017 44.5932 13.5522 44.4898C13.6026 44.3864 13.6322 44.2741 13.6392 44.1592C13.6463 44.0444 13.6306 43.9293 13.5931 43.8205C13.5557 43.7117 13.4972 43.6113 13.4209 43.5251C13.1506 43.2198 12.8881 42.9126 12.6431 42.6116C12.571 42.5216 12.4818 42.4467 12.3807 42.3913C12.2796 42.3359 12.1685 42.301 12.0538 42.2886C11.9392 42.2762 11.8232 42.2867 11.7126 42.3193C11.602 42.3519 11.4989 42.4061 11.4093 42.4786Z" fill="#212121"/>
<path d="M49.8647 11.0416C46.6855 10.4883 43.5708 9.61319 40.5687 8.42976C36.6417 6.87549 32.9389 4.80575 29.5577 2.27501C29.1083 1.93703 28.5612 1.75427 27.9989 1.75427C27.4366 1.75427 26.8895 1.93703 26.4401 2.27501C24.7556 3.53516 22.9901 4.6833 21.1551 5.71201C21.0546 5.7681 20.9661 5.84347 20.8948 5.93379C20.8235 6.02411 20.7707 6.12761 20.7394 6.23837C20.7082 6.34912 20.6991 6.46496 20.7127 6.57924C20.7262 6.69352 20.7622 6.804 20.8185 6.90435C20.8749 7.0047 20.9505 7.09296 21.0409 7.16406C21.1314 7.23516 21.2351 7.28771 21.3459 7.31871C21.4567 7.3497 21.5726 7.35853 21.6868 7.34468C21.8011 7.33083 21.9115 7.29458 22.0117 7.23801C23.9149 6.16907 25.7459 4.97621 27.4927 3.66713C27.638 3.55545 27.8161 3.4949 27.9993 3.4949C28.1826 3.4949 28.3607 3.55545 28.5059 3.66713C32.0125 6.29352 35.8531 8.44155 39.9264 10.0546C43.0418 11.2834 46.2741 12.1922 49.5733 12.7671C49.7528 12.7976 49.9178 12.885 50.0438 13.0164C50.1699 13.1478 50.2503 13.3163 50.2733 13.4969C50.8368 17.1946 51.6926 26.7864 47.4996 35.9529C47.4496 36.0576 47.4209 36.1713 47.4152 36.2872C47.4096 36.4031 47.4271 36.519 47.4666 36.6281C47.5062 36.7372 47.5671 36.8374 47.6457 36.9227C47.7244 37.0081 47.8192 37.077 47.9247 37.1253C48.0302 37.1736 48.1443 37.2005 48.2603 37.2043C48.3763 37.2082 48.4919 37.1889 48.6004 37.1476C48.7089 37.1063 48.8081 37.0439 48.8922 36.9639C48.9763 36.8839 49.0436 36.788 49.0903 36.6818C53.4802 27.0856 52.5903 17.087 52.0041 13.2318C51.9247 12.6874 51.6749 12.1823 51.2905 11.7888C50.9062 11.3953 50.407 11.1337 49.8647 11.0416Z" fill="#212121"/>
<path d="M27.1559 47.9736C27.4264 48.0729 27.7122 48.1241 28.0003 48.125C28.2839 48.1246 28.5652 48.0746 28.8315 47.9771C30.0387 47.5525 31.2156 47.0464 32.3543 46.4625C32.4565 46.4099 32.5473 46.3376 32.6216 46.2499C32.6959 46.1622 32.7522 46.0606 32.7873 45.9512C32.8223 45.8417 32.8355 45.7264 32.826 45.6118C32.8165 45.4972 32.7845 45.3856 32.7319 45.2834C32.6792 45.1812 32.607 45.0904 32.5192 45.0161C32.4315 44.9418 32.33 44.8855 32.2205 44.8505C32.111 44.8154 31.9957 44.8022 31.8811 44.8118C31.7666 44.8213 31.655 44.8532 31.5528 44.9059C30.4826 45.4561 29.3761 45.9327 28.2409 46.3321C28.082 46.3942 27.9055 46.3942 27.7465 46.3321C23.8236 44.9882 20.2977 42.6872 17.488 39.6375C10.8835 32.4354 10.3017 22.7929 10.5414 17.7047C10.5496 17.5691 10.5838 17.4364 10.642 17.3136C10.7268 17.1071 10.7294 16.8759 10.6493 16.6675C10.5692 16.4591 10.4125 16.2892 10.2112 16.1926C10.0099 16.096 9.77931 16.08 9.56661 16.1478C9.3539 16.2157 9.17519 16.3623 9.06704 16.5576C8.91106 16.8872 8.81986 17.2436 8.79842 17.6076C8.54467 22.9862 9.16942 33.1555 16.2018 40.824C19.2023 44.0805 22.9671 46.5377 27.1559 47.9736Z" fill="#212121"/>
<path d="M44.0775 32.375C44.1735 32.4108 44.2751 32.4292 44.3776 32.4292C44.5569 32.4292 44.7319 32.374 44.8789 32.2712C45.0259 32.1683 45.1377 32.0228 45.1992 31.8544C46.7933 27.2809 47.4741 22.439 47.203 17.6032C47.1861 17.2496 47.0993 16.9028 46.9476 16.5829C46.7959 16.263 46.5823 15.9763 46.3192 15.7395C46.2358 15.6533 46.1356 15.5851 46.0247 15.5392C45.9139 15.4933 45.7948 15.4708 45.6749 15.4729C45.5549 15.4749 45.4367 15.5017 45.3275 15.5514C45.2184 15.6011 45.1206 15.6727 45.0403 15.7618C44.9599 15.8509 44.8988 15.9556 44.8606 16.0693C44.8225 16.183 44.8081 16.3034 44.8184 16.4229C44.8287 16.5424 44.8635 16.6585 44.9206 16.7641C44.9776 16.8696 45.0558 16.9622 45.1502 17.0362C45.2418 17.1193 45.316 17.2197 45.3685 17.3315C45.4211 17.4434 45.451 17.5646 45.4565 17.6881C45.7169 22.2896 45.0721 26.8974 43.5586 31.2506C43.5187 31.3585 43.5006 31.4732 43.5051 31.5881C43.5096 31.703 43.5367 31.8159 43.5849 31.9204C43.6331 32.0248 43.7014 32.1187 43.7859 32.1967C43.8704 32.2747 43.9695 32.3353 44.0775 32.375Z" fill="#212121"/>
<path d="M27.6598 9.69675C27.7835 9.64054 27.9193 9.61637 28.0548 9.62646C28.1903 9.63655 28.3211 9.68059 28.435 9.7545C30.9537 11.3802 33.605 12.7904 36.3608 13.9703C36.5725 14.053 36.8081 14.0501 37.0177 13.9622C37.2273 13.8744 37.3945 13.7083 37.4839 13.4994C37.5733 13.2904 37.5778 13.0548 37.4965 12.8425C37.4153 12.6302 37.2546 12.4579 37.0485 12.362C34.3833 11.2198 31.8189 9.85525 29.3827 8.28275C29.0253 8.05275 28.6164 7.91522 28.1927 7.88253C27.769 7.84985 27.3438 7.92303 26.9554 8.0955C26.7551 8.19595 26.601 8.36943 26.5248 8.58016C26.4486 8.7909 26.4562 9.02283 26.5459 9.22815C26.6357 9.43348 26.8008 9.59654 27.0072 9.68372C27.2136 9.77091 27.4457 9.77557 27.6554 9.69675H27.6598Z" fill="#212121"/>
<path d="M41.5537 15.9031C41.6355 15.9277 41.7204 15.9401 41.8057 15.9399C42.0158 15.9397 42.2187 15.864 42.3776 15.7266C42.5364 15.5891 42.6405 15.3992 42.6709 15.1913C42.7012 14.9835 42.6558 14.7717 42.5429 14.5946C42.43 14.4175 42.2572 14.2869 42.056 14.2266C41.6334 14.0997 41.2116 13.9562 40.789 13.804C40.5706 13.7253 40.3299 13.7366 40.1199 13.8354C39.9099 13.9342 39.7477 14.1124 39.669 14.3307C39.5903 14.5491 39.6016 14.7898 39.7004 14.9998C39.7992 15.2099 39.9774 15.3721 40.1957 15.4507C40.649 15.6135 41.1014 15.7675 41.5537 15.9031Z" fill="#212121"/>
<path d="M23.2849 25.7959C22.7649 25.2863 22.0657 25.0009 21.3376 25.0009C20.6095 25.0009 19.9104 25.2863 19.3903 25.7959L18.2948 26.9133C17.7851 27.4391 17.5 28.1427 17.5 28.875C17.5 29.6074 17.7851 30.3109 18.2948 30.8368L24.9991 37.6784C25.2523 37.9384 25.555 38.145 25.8894 38.2861C26.2238 38.4272 26.583 38.4999 26.9459 38.4999C27.3089 38.4999 27.6681 38.4272 28.0025 38.2861C28.3369 38.145 28.6396 37.9384 28.8928 37.6784L41.2058 25.1125C41.7156 24.5867 42.0006 23.8831 42.0006 23.1508C42.0006 22.4184 41.7156 21.7148 41.2058 21.189L40.1103 20.0716C39.8577 19.8111 39.5552 19.6041 39.2209 19.4629C38.8865 19.3218 38.5272 19.2493 38.1643 19.25C37.8012 19.2493 37.4416 19.3217 37.1069 19.4628C36.7723 19.604 36.4695 19.811 36.2166 20.0716L27.6416 28.8216C27.4561 29.005 27.2059 29.1079 26.9451 29.1079C26.6843 29.1079 26.434 29.005 26.2486 28.8216L23.2849 25.7959ZM28.8928 30.0458L37.4678 21.2958C37.5582 21.2022 37.6664 21.1277 37.7862 21.0769C37.9059 21.026 38.0347 20.9998 38.1648 20.9998C38.2948 20.9998 38.4236 21.026 38.5433 21.0769C38.6631 21.1277 38.7714 21.2022 38.8617 21.2958L39.9572 22.414C40.1488 22.6114 40.2559 22.8757 40.2559 23.1508C40.2559 23.4258 40.1488 23.6901 39.9572 23.8875L27.6424 36.4543C27.457 36.6376 27.2067 36.7405 26.9459 36.7405C26.6851 36.7405 26.4349 36.6376 26.2494 36.4543L19.5452 29.6118C19.3536 29.4144 19.2465 29.1501 19.2465 28.875C19.2465 28.5999 19.3536 28.3357 19.5452 28.1383L20.6407 27.02C20.8264 26.8368 21.0768 26.734 21.3376 26.734C21.5985 26.734 21.8489 26.8368 22.0346 27.02L24.9991 30.0458C25.5191 30.5551 26.218 30.8403 26.9459 30.8403C27.6738 30.8403 28.3728 30.5551 28.8928 30.0458Z" fill="#212121"/>
<path d="M7.875 12.25C7.8751 12.4545 7.94684 12.6526 8.07775 12.8097C8.20866 12.9668 8.39048 13.0731 8.59163 13.1101C14.14 14.1321 14.7429 14.735 15.7666 20.2851C15.8041 20.4859 15.9106 20.6672 16.0677 20.7976C16.2248 20.9281 16.4226 20.9995 16.6268 20.9995C16.8309 20.9995 17.0287 20.9281 17.1858 20.7976C17.3429 20.6672 17.4494 20.4859 17.4869 20.2851C18.5089 14.7368 19.1118 14.1339 24.6619 13.1101C24.8626 13.0727 25.0439 12.9661 25.1743 12.8091C25.3048 12.652 25.3762 12.4542 25.3762 12.25C25.3762 12.0458 25.3048 11.8481 25.1743 11.691C25.0439 11.5339 24.8626 11.4274 24.6619 11.3899C19.1135 10.3679 18.5106 9.76502 17.4869 4.21489C17.4494 4.01417 17.3429 3.83288 17.1858 3.70242C17.0287 3.57196 16.8309 3.50055 16.6268 3.50055C16.4226 3.50055 16.2248 3.57196 16.0677 3.70242C15.9106 3.83288 15.8041 4.01417 15.7666 4.21489C14.7446 9.76327 14.1418 10.3661 8.59163 11.3899C8.39048 11.4269 8.20866 11.5332 8.07775 11.6903C7.94684 11.8475 7.8751 12.0455 7.875 12.25ZM16.625 8.12964C16.8849 9.12006 17.4034 10.0236 18.1274 10.7476C18.8514 11.4717 19.755 11.9902 20.7454 12.25C19.755 12.5099 18.8514 13.0284 18.1274 13.7524C17.4034 14.4765 16.8849 15.38 16.625 16.3704C16.3651 15.38 15.8466 14.4765 15.1226 13.7524C14.3986 13.0284 13.495 12.5099 12.5046 12.25C13.495 11.9902 14.3986 11.4717 15.1226 10.7476C15.8466 10.0236 16.3651 9.12006 16.625 8.12964Z" fill="#212121"/>
<path d="M51.7836 42.8899C46.2352 41.8679 45.6324 41.265 44.6086 35.7149C44.5711 35.5142 44.4646 35.3329 44.3075 35.2024C44.1504 35.072 43.9527 35.0005 43.7485 35.0005C43.5443 35.0005 43.3465 35.072 43.1895 35.2024C43.0324 35.3329 42.9259 35.5142 42.8884 35.7149C41.8664 41.2633 41.2635 41.8661 35.7134 42.8899C35.5126 42.9274 35.3314 43.0339 35.2009 43.191C35.0704 43.3481 34.999 43.5458 34.999 43.75C34.999 43.9542 35.0704 44.152 35.2009 44.3091C35.3314 44.4661 35.5126 44.5727 35.7134 44.6101C41.2617 45.6321 41.8646 46.235 42.8884 51.7851C42.9259 51.9859 43.0324 52.1672 43.1895 52.2976C43.3465 52.4281 43.5443 52.4995 43.7485 52.4995C43.9527 52.4995 44.1504 52.4281 44.3075 52.2976C44.4646 52.1672 44.5711 51.9859 44.6086 51.7851C45.6306 46.2368 46.2335 45.6339 51.7836 44.6101C51.9843 44.5727 52.1656 44.4661 52.2961 44.3091C52.4265 44.152 52.498 43.9542 52.498 43.75C52.498 43.5458 52.4265 43.3481 52.2961 43.191C52.1656 43.0339 51.9843 42.9274 51.7836 42.8899ZM43.7502 47.8704C43.4904 46.88 42.9719 45.9765 42.2478 45.2524C41.5238 44.5284 40.6203 44.0099 39.6299 43.75C40.6203 43.4902 41.5238 42.9717 42.2478 42.2476C42.9719 41.5236 43.4904 40.6201 43.7502 39.6296C44.0101 40.6201 44.5286 41.5236 45.2526 42.2476C45.9767 42.9717 46.8802 43.4902 47.8706 43.75C46.8802 44.0099 45.9767 44.5284 45.2526 45.2524C44.5286 45.9765 44.0101 46.88 43.7502 47.8704Z" fill="#212121"/>
</svg>
