<svg width="187" height="240" viewBox="0 0 187 240" fill="none" xmlns="http://www.w3.org/2000/svg">
<g style="mix-blend-mode:multiply" opacity="0.2">
<path d="M17.4737 45.4665C17.4667 45.3327 17.4965 45.1971 17.5457 45.0615V45.7447C17.5141 45.6549 17.4789 45.5634 17.4737 45.4665ZM17.4737 69.0175C17.4719 68.9594 17.4912 68.9013 17.4983 68.8414C17.507 68.7868 17.5299 68.734 17.5457 68.6794V69.294C17.5141 69.2024 17.4789 69.1126 17.4737 69.0157V69.0175ZM17.4737 92.565C17.4667 92.4276 17.4965 92.292 17.5457 92.1582V92.8432C17.5141 92.7516 17.4789 92.6601 17.4737 92.565ZM17.4737 117.928C17.4719 117.875 17.4912 117.824 17.4965 117.775C17.5035 117.71 17.5264 117.646 17.5457 117.584V118.204C17.5141 118.113 17.4789 118.023 17.4737 117.928ZM17.4737 142.562C17.4684 142.458 17.4912 142.357 17.5193 142.259C17.5246 142.238 17.5422 142.224 17.5457 142.206V142.84C17.5141 142.75 17.4789 142.659 17.4737 142.564V142.562ZM17.4737 166.828C17.4667 166.694 17.4965 166.556 17.5457 166.424V167.108C17.5141 167.018 17.4789 166.926 17.4737 166.829V166.828Z" fill="#BE7346"/>
</g>
<path d="M9.09515 240L2.87891 228.159V207.363L10.5842 219.353L9.09515 240Z" fill="#BE7346"/>
<path d="M177.589 240C183.089 237.92 187.002 232.693 187.002 226.547V21.0646C187.002 14.0354 181.893 8.18773 175.126 6.91113H78.1278C77.8521 6.96044 77.5764 6.99213 77.3077 7.05904H9.09766V240H177.589Z" fill="#BE7346"/>
<path d="M174.173 235.846C179.617 233.767 183.487 228.535 183.487 222.392V16.9093C183.487 9.8819 178.428 4.03774 171.734 2.75586H75.7459C75.4737 2.8034 75.2016 2.8439 74.9364 2.90377H7.4375V235.846H174.173Z" fill="white"/>
<path d="M169.602 228.158C175.044 226.125 178.92 221.004 178.92 214.991V13.8541C178.92 6.97285 173.855 1.25194 167.163 0H71.1838C70.9134 0.0475422 70.6377 0.0827586 70.3725 0.147909H2.87891V228.158H169.604H169.602Z" fill="#BE7346"/>
<path d="M173.653 235.846L169.23 228.202H2.87891L7.30052 235.846H173.653Z" fill="#F6F6F6"/>
<path d="M2.5015 42.1418C2.29253 42.1418 2.08181 42.0837 1.89919 41.9569C1.73061 41.8442 0.285426 40.8141 0.181822 39.1079C0.111582 37.9633 0.654186 36.8804 1.79383 35.8856L1.99928 35.7447C2.08708 35.6954 4.24345 34.5773 6.55259 35.3873C8.12421 35.9437 9.34639 37.215 10.191 39.1765C10.4263 39.7259 10.1735 40.3669 9.62384 40.6063C9.06894 40.8423 8.43502 40.5852 8.19972 40.0341C7.60795 38.6641 6.82126 37.7961 5.85019 37.4457C4.65611 37.0213 3.46203 37.4685 3.11259 37.6235C2.72802 37.9809 2.32239 38.474 2.34873 38.9688C2.37331 39.5181 2.91416 40.0147 3.12137 40.1591C3.60778 40.5042 3.73245 41.1786 3.39179 41.6699C3.18283 41.978 2.84392 42.1418 2.5015 42.1418Z" fill="#09101D"/>
<path d="M2.5015 65.6926C2.29253 65.6926 2.08181 65.6327 1.89919 65.5059C1.73061 65.3932 0.285426 64.3632 0.181822 62.6569C0.111582 61.5142 0.654186 60.4295 1.79383 59.4346L1.99928 59.2955C2.08708 59.2462 4.24345 58.1228 6.55259 58.9363C8.12421 59.491 9.34639 60.7658 10.191 62.7238C10.4263 63.2767 10.1735 63.9159 9.62384 64.1536C9.06894 64.3896 8.43502 64.136 8.19972 63.5849C7.60795 62.2132 6.82126 61.3416 5.85019 60.9947C4.65611 60.5686 3.46203 61.0176 3.11259 61.1708C2.72802 61.5282 2.32239 62.0266 2.34873 62.5196C2.37331 63.0672 2.91416 63.5638 3.12137 63.7117C3.60778 64.0533 3.73245 64.7294 3.39179 65.2207C3.18283 65.5235 2.84392 65.6926 2.5015 65.6926Z" fill="#09101D"/>
<path d="M2.5015 89.2382C2.29253 89.2382 2.08181 89.1801 1.89919 89.0568C1.73061 88.9423 0.285426 87.9123 0.181822 86.206C0.111582 85.0633 0.654186 83.9786 1.79383 82.9837L1.99928 82.8446C2.08708 82.7953 4.24345 81.6719 6.55259 82.4872C8.12421 83.0418 9.34639 84.3149 10.191 86.2729C10.4263 86.8258 10.1735 87.465 9.62384 87.7027C9.06894 87.9404 8.43502 87.6851 8.19972 87.1375C7.60795 85.7641 6.82126 84.8925 5.85019 84.5438C4.65611 84.1177 3.46203 84.5667 3.11259 84.7217C2.72802 85.0756 2.32239 85.5721 2.34873 86.0669C2.37331 86.6163 2.91416 87.1129 3.12137 87.259C3.60778 87.6006 3.73245 88.2803 3.39179 88.7698C3.18283 89.0744 2.84392 89.2399 2.5015 89.2399V89.2382Z" fill="#09101D"/>
<path d="M2.5015 114.6C2.29253 114.6 2.08181 114.54 1.89919 114.413C1.73061 114.304 0.285426 113.27 0.181822 111.564C0.111582 110.421 0.654186 109.336 1.79383 108.342L1.99928 108.202C2.08708 108.153 4.24345 107.033 6.55259 107.845C8.12421 108.4 9.34639 109.673 10.191 111.631C10.4263 112.185 10.1735 112.823 9.62384 113.061C9.06894 113.297 8.43502 113.045 8.19972 112.495C7.60795 111.124 6.82126 110.25 5.85019 109.903C4.65611 109.476 3.46203 109.925 3.11259 110.08C2.72802 110.437 2.32239 110.932 2.34873 111.427C2.37331 111.974 2.91416 112.472 3.12137 112.619C3.60778 112.96 3.73245 113.636 3.39179 114.128C3.18283 114.436 2.84392 114.6 2.5015 114.6Z" fill="#09101D"/>
<path d="M2.5015 139.235C2.29253 139.235 2.08181 139.175 1.89919 139.05C1.73061 138.936 0.285426 137.907 0.181822 136.201C0.111582 135.058 0.654186 133.974 1.79383 132.979L1.99928 132.838C2.08708 132.79 4.24345 131.669 6.55259 132.481C8.12421 133.035 9.34639 134.31 10.191 136.268C10.4263 136.823 10.1735 137.46 9.62384 137.698C9.06894 137.934 8.43502 137.677 8.19972 137.127C7.60795 135.757 6.82126 134.886 5.85019 134.539C4.65611 134.113 3.46203 134.562 3.11259 134.713C2.72802 135.071 2.32239 135.569 2.34873 136.06C2.37331 136.61 2.91416 137.106 3.12137 137.252C3.60778 137.594 3.73245 138.272 3.39179 138.761C3.18283 139.071 2.84392 139.233 2.5015 139.233V139.235Z" fill="#09101D"/>
<path d="M2.5015 163.504C2.29253 163.504 2.08181 163.445 1.89919 163.318C1.73061 163.205 0.285426 162.177 0.181822 160.469C0.111582 159.326 0.654186 158.241 1.79383 157.246L1.99928 157.107C2.08708 157.058 4.24345 155.935 6.55259 156.75C8.12421 157.305 9.34639 158.578 10.191 160.537C10.4263 161.087 10.1735 161.728 9.62384 161.964C9.06894 162.201 8.43502 161.948 8.19972 161.398C7.60795 160.029 6.82126 159.155 5.85019 158.808C4.65611 158.382 3.46203 158.831 3.11259 158.983C2.72802 159.342 2.32239 159.835 2.34873 160.33C2.37331 160.879 2.91416 161.376 3.12137 161.522C3.60778 161.863 3.73245 162.541 3.39179 163.032C3.18283 163.337 2.84392 163.504 2.5015 163.504Z" fill="#09101D"/>
<path d="M2.32572 17.6662C2.11675 17.6662 1.90603 17.6081 1.72341 17.4813C1.55483 17.3686 0.109645 16.3385 0.0060408 14.6323C-0.0641992 13.4877 0.478405 12.4048 1.61805 11.41L1.8235 11.2691C1.9113 11.2198 4.06767 10.1017 6.37681 10.9117C7.94843 11.4681 9.17061 12.7394 10.0152 14.701C10.2505 15.2503 9.99768 15.8913 9.44806 16.1307C8.89316 16.3667 8.25924 16.1096 8.02394 15.5585C7.43217 14.1886 6.64548 13.3205 5.67441 12.9701C4.48033 12.5457 3.28625 12.993 2.93681 13.1479C2.55224 13.5054 2.14661 13.9984 2.17295 14.4932C2.19753 15.0426 2.73838 15.5391 2.94559 15.6835C3.432 16.0286 3.55667 16.703 3.21601 17.1943C3.00705 17.5024 2.66814 17.6662 2.32572 17.6662Z" fill="#09101D"/>
<path d="M2.5015 187.409C2.29253 187.409 2.08181 187.351 1.89919 187.224C1.73061 187.112 0.285426 186.082 0.181822 184.375C0.111582 183.231 0.654186 182.148 1.79383 181.153L1.99928 181.012C2.08708 180.963 4.24345 179.845 6.55259 180.655C8.12421 181.211 9.34639 182.483 10.191 184.444C10.4263 184.993 10.1735 185.634 9.62384 185.874C9.06894 186.11 8.43502 185.853 8.19972 185.302C7.60795 183.932 6.82126 183.064 5.85019 182.713C4.65611 182.289 3.46203 182.736 3.11259 182.891C2.72802 183.249 2.32239 183.742 2.34873 184.236C2.37331 184.786 2.91416 185.282 3.12137 185.427C3.60778 185.772 3.73245 186.446 3.39179 186.937C3.18283 187.246 2.84392 187.409 2.5015 187.409Z" fill="#09101D"/>
<path d="M2.18998 212.531C1.99331 212.531 1.79488 212.476 1.62279 212.356C1.46475 212.251 0.102095 211.28 0.00551527 209.673C-0.0594567 208.593 0.449784 207.576 1.52446 206.639L1.71762 206.505C1.80015 206.459 3.83008 205.406 6.00577 206.169C7.48608 206.694 8.63801 207.889 9.43172 209.738C9.65298 210.256 9.41416 210.86 8.8979 211.085C8.37461 211.307 7.77757 211.066 7.55632 210.546C6.99966 209.257 6.25688 208.438 5.34376 208.107C4.21992 207.708 3.09432 208.129 2.76419 208.275C2.40246 208.611 2.01965 209.076 2.04599 209.541C2.06882 210.058 2.57981 210.527 2.77297 210.662C3.23129 210.988 3.34894 211.622 3.02759 212.085C2.83092 212.376 2.51133 212.529 2.18822 212.529L2.18998 212.531Z" fill="#09101D"/>
<path d="M15.1551 37.7928C15.1551 40.1981 13.213 42.142 10.8178 42.142C8.42261 42.142 6.48047 40.1981 6.48047 37.7928C6.48047 35.3875 8.42085 33.4453 10.8178 33.4453C13.2147 33.4453 15.1551 35.3928 15.1551 37.7928Z" fill="#09101D"/>
<path d="M15.1551 62.4477C15.1551 64.8494 13.213 66.7951 10.8178 66.7951C8.42261 66.7951 6.48047 64.8512 6.48047 62.4477C6.48047 60.0441 8.42085 58.0967 10.8178 58.0967C13.2147 58.0967 15.1551 60.0424 15.1551 62.4477Z" fill="#09101D"/>
<path d="M10.8178 91.4481C13.2132 91.4481 15.1551 89.5001 15.1551 87.0971C15.1551 84.6941 13.2132 82.7461 10.8178 82.7461C8.42235 82.7461 6.48047 84.6941 6.48047 87.0971C6.48047 89.5001 8.42235 91.4481 10.8178 91.4481Z" fill="#09101D"/>
<path d="M15.1551 111.751C15.1551 114.152 13.213 116.102 10.8178 116.102C8.42261 116.102 6.48047 114.152 6.48047 111.751C6.48047 109.349 8.42085 107.401 10.8178 107.401C13.2147 107.401 15.1551 109.347 15.1551 111.751Z" fill="#09101D"/>
<path d="M15.1551 136.404C15.1551 138.806 13.213 140.753 10.8178 140.753C8.42261 140.753 6.48047 138.806 6.48047 136.404C6.48047 134.002 8.42085 132.055 10.8178 132.055C13.2147 132.055 15.1551 133.999 15.1551 136.404Z" fill="#09101D"/>
<path d="M15.1551 161.057C15.1551 163.457 13.213 165.406 10.8178 165.406C8.42261 165.406 6.48047 163.457 6.48047 161.057C6.48047 158.657 8.42085 156.706 10.8178 156.706C13.2147 156.706 15.1551 158.655 15.1551 161.057Z" fill="#09101D"/>
<path d="M15.1551 184.652C15.1551 187.052 13.213 189.001 10.8178 189.001C8.42261 189.001 6.48047 187.052 6.48047 184.652C6.48047 182.252 8.42085 180.301 10.8178 180.301C13.2147 180.301 15.1551 182.25 15.1551 184.652Z" fill="#09101D"/>
<path d="M14.9832 14.2045C14.9832 16.6045 13.0411 18.5537 10.6459 18.5537C8.25073 18.5537 6.30859 16.6045 6.30859 14.2045C6.30859 11.8045 8.24897 9.85352 10.6459 9.85352C13.0429 9.85352 14.9832 11.8027 14.9832 14.2045Z" fill="#09101D"/>
<path d="M14.9832 210.184C14.9832 212.584 13.0411 214.533 10.6459 214.533C8.25073 214.533 6.30859 212.584 6.30859 210.184C6.30859 207.784 8.24897 205.833 10.6459 205.833C13.0429 205.833 14.9832 207.782 14.9832 210.184Z" fill="#09101D"/>
<path d="M53.5516 71.3646V72.5635H47.8389V77.3149H46.3803V72.5635H40.7394V71.3646H53.5516ZM42.3472 69.5856V64.0718H51.9383V69.5856H42.3472ZM43.8057 68.4254H50.4687V65.2707H43.8057V68.4254ZM67.4018 74.4144V75.6464H54.5896V74.4144H58.0869V71.9337H56.1477V67.4807H64.3687V65.5304H56.12V64.3204H65.8327V68.6906H57.6228V70.7182H66.1587V71.9337H64.0372V74.4144H67.4018ZM59.5289 74.4144H62.5786V71.9337H59.5289V74.4144ZM83.9925 63.337V74.0166H82.5119V71.1215H80.2577V69.9337H82.5119V68.1989H80.2577V66.9834H82.5119V63.337H83.9925ZM72.3406 66.1657V64.9724H75.6113V63.3204H77.0865V64.9724H80.2191V66.1657H72.3406ZM73.1251 69.5414C73.1141 67.9337 74.4456 66.8398 76.3351 66.8398C78.2246 66.8398 79.5616 67.9337 79.5726 69.5414C79.5616 71.1381 78.2246 72.2376 76.3351 72.2376C74.4456 72.2376 73.1141 71.1381 73.1251 69.5414ZM74.5119 69.5414C74.5008 70.4862 75.2467 71.0829 76.3351 71.0829C77.4069 71.0829 78.1638 70.4862 78.1749 69.5414C78.1638 68.6133 77.4069 68.0166 76.3351 68.0055C75.2467 68.0166 74.5008 68.6133 74.5119 69.5414ZM74.8489 77.0387V73.0773H76.3461V75.8232H84.3075V77.0387H74.8489ZM91.0361 65.9116C91.0361 67.6851 92.2737 69.3094 94.4008 69.989L93.6936 71.1492C92.0969 70.6354 90.9367 69.5801 90.3234 68.2486C89.7157 69.779 88.4836 70.9945 86.7986 71.5801L86.0417 70.3978C88.224 69.674 89.5444 67.8619 89.5555 65.9227V65.5359H86.4726V64.3315H94.0582V65.5359H91.0361V65.9116ZM87.9312 74.674C87.9312 73.0276 89.7157 72.0718 92.6273 72.0718C95.5168 72.0718 97.2792 73.0276 97.2792 74.674C97.2792 76.337 95.5168 77.3039 92.6273 77.3039C89.7157 77.3039 87.9312 76.337 87.9312 74.674ZM89.4173 74.674C89.4063 75.6077 90.6052 76.1326 92.6273 76.1326C94.6439 76.1326 95.8262 75.6077 95.8262 74.674C95.8262 73.7569 94.6439 73.2431 92.6273 73.2486C90.6052 73.2431 89.4063 73.7569 89.4173 74.674ZM95.666 71.7293V63.326H97.1522V66.7901H99.1798V68.0166H97.1522V71.7293H95.666ZM110.362 72.0497C113.251 72.0497 115.014 73.011 115.014 74.674C115.014 76.3481 113.251 77.3149 110.362 77.326C107.45 77.3149 105.666 76.3481 105.666 74.674C105.666 73.011 107.45 72.0497 110.362 72.0497ZM104.422 70.6961V64.1989H105.887V66.221H109.555V64.1989H111.025V70.6961H104.422ZM105.887 69.5138H109.555V67.3812H105.887V69.5138ZM107.152 74.674C107.141 75.6077 108.34 76.1436 110.362 76.1436C112.378 76.1436 113.561 75.6077 113.561 74.674C113.561 73.7403 112.378 73.221 110.362 73.2099C108.34 73.221 107.141 73.7403 107.152 74.674ZM113.4 71.6906V63.326H114.887V66.7569H116.914V68.011H114.887V71.6906H113.4ZM130.505 70.4033V71.6133H124.952V74.326H123.483V71.6133H117.693V70.4033H130.505ZM119.289 77.0387V73H120.77V75.8232H129.085V77.0387H119.289ZM119.339 68.9558V63.9834H128.847V68.9558H119.339ZM120.792 67.7845H127.383V65.1547H120.792V67.7845ZM147.493 64.8785V66.0884H136.095V64.8785H141.084V63.2707H142.554V64.8785H147.493ZM135.449 73.6022V72.3867H148.261V73.6022H142.554V77.3481H141.084V73.6022H135.449ZM137.162 69.1657C137.156 67.6409 138.902 66.8066 141.819 66.8066C144.725 66.8066 146.471 67.6409 146.477 69.1657C146.471 70.6685 144.725 71.5083 141.819 71.5138C138.902 71.5083 137.156 70.6685 137.162 69.1657ZM138.703 69.1657C138.692 69.9558 139.808 70.3978 141.819 70.3867C143.819 70.3978 144.935 69.9558 144.946 69.1657C144.935 68.3646 143.819 67.9227 141.819 67.9227C139.808 67.9227 138.692 68.3646 138.703 69.1657Z" fill="white"/>
<path d="M66.1001 100.207H69.2231V102.797H66.1001V107.697H62.8501V95.1797H66.1001V100.207ZM47.768 96.957H53.0239V95.0781H56.2485V96.957H61.479V99.4199H47.768V96.957ZM48.8852 103.762C48.8852 103 49.1222 102.336 49.5962 101.769C50.0786 101.201 50.7514 100.761 51.6147 100.448C52.478 100.135 53.4809 99.9785 54.6235 99.9785C55.7746 99.9785 56.7775 100.135 57.6323 100.448C58.4871 100.761 59.1473 101.201 59.6128 101.769C60.0783 102.336 60.311 103 60.311 103.762C60.311 104.54 60.0783 105.213 59.6128 105.78C59.1473 106.347 58.4871 106.783 57.6323 107.088C56.7775 107.393 55.7746 107.545 54.6235 107.545C53.4809 107.545 52.4738 107.393 51.602 107.088C50.7388 106.783 50.0701 106.347 49.5962 105.78C49.1222 105.213 48.8852 104.54 48.8852 103.762ZM50.7641 108.637H66.1001V114.477H53.9888V115.797H66.7602V118.184H50.8149V112.268H62.8755V110.973H50.7641V108.637ZM52.0591 103.762C52.0506 104.244 52.2707 104.608 52.7192 104.854C53.1678 105.099 53.8026 105.226 54.6235 105.234C55.4529 105.226 56.0962 105.099 56.5532 104.854C57.0102 104.608 57.2388 104.244 57.2388 103.762C57.2388 103.288 57.0102 102.92 56.5532 102.657C56.1046 102.395 55.4783 102.264 54.6743 102.264C53.8449 102.264 53.1974 102.391 52.7319 102.645C52.2749 102.898 52.0506 103.271 52.0591 103.762ZM89.3264 111.861H86.0764V95.2559H89.3264V111.861ZM70.3342 102.543C70.3342 101.434 70.6135 100.436 71.1721 99.5469C71.7307 98.6582 72.4882 97.9684 73.4446 97.4775C74.4094 96.9782 75.4801 96.7285 76.6565 96.7285C77.8245 96.7285 78.8909 96.9782 79.8557 97.4775C80.8205 97.9684 81.5823 98.6582 82.1409 99.5469C82.6995 100.436 82.9788 101.434 82.9788 102.543C82.9788 103.669 82.6995 104.68 82.1409 105.577C81.5823 106.466 80.8205 107.16 79.8557 107.659C78.8909 108.159 77.8245 108.408 76.6565 108.408C75.4801 108.408 74.4094 108.159 73.4446 107.659C72.4797 107.16 71.718 106.466 71.1594 105.577C70.6093 104.68 70.3342 103.669 70.3342 102.543ZM73.508 102.543C73.4996 103.169 73.6308 103.715 73.9016 104.181C74.1724 104.638 74.5448 104.989 75.0188 105.234C75.5012 105.471 76.0471 105.59 76.6565 105.59C77.2489 105.59 77.7779 105.471 78.2434 105.234C78.7174 104.989 79.0898 104.638 79.3606 104.181C79.6399 103.715 79.7795 103.169 79.7795 102.543C79.7795 101.934 79.6399 101.4 79.3606 100.943C79.0898 100.486 78.7174 100.139 78.2434 99.9023C77.7694 99.6569 77.2405 99.5384 76.6565 99.5469C76.0471 99.5384 75.5012 99.6569 75.0188 99.9023C74.5448 100.139 74.1724 100.486 73.9016 100.943C73.6308 101.4 73.4996 101.934 73.508 102.543ZM73.8381 110.186H77.1135V115.34H89.9358V117.93H73.8381V110.186ZM117.371 112.293H114.172V107.469H108.89V104.879H114.172V102.289H109.22C108.4 104.049 107.168 105.569 105.526 106.847C103.884 108.125 101.9 109.111 99.572 109.805L98.2263 107.291C100.689 106.512 102.661 105.459 104.142 104.13C105.632 102.793 106.521 101.273 106.808 99.5723H99.4705V96.9824H110.363C110.363 97.888 110.27 98.7936 110.084 99.6992H114.172V95.2559H117.371V112.293ZM102.162 110.592H105.463V115.34H117.98V117.93H102.162V110.592ZM133.462 99.0898H128.867C128.875 100.029 129.07 100.939 129.451 101.819C129.84 102.691 130.432 103.478 131.228 104.181C132.024 104.883 133.005 105.429 134.173 105.818L132.574 108.307C131.338 107.917 130.272 107.333 129.375 106.555C128.477 105.768 127.771 104.837 127.254 103.762C126.721 104.955 125.985 105.988 125.045 106.859C124.106 107.723 122.976 108.366 121.656 108.789L120.005 106.225C121.224 105.835 122.248 105.268 123.078 104.523C123.907 103.779 124.525 102.937 124.931 101.997C125.346 101.049 125.557 100.08 125.566 99.0898H120.919V96.5254H133.462V99.0898ZM123.738 110.008H139.607V118.336H136.382V112.598H123.738V110.008ZM132.802 100.791H136.382V95.2305H139.607V108.992H136.382V103.432H132.802V100.791ZM92.8273 154.336H89.755V131.23H92.8273V154.336ZM72.3624 147.582C73.962 146.6 75.1385 145.2 75.8917 143.38C76.6534 141.552 77.0343 139.567 77.0343 137.426V136.182H73.2511V133.592H83.6612V136.182H80.1573V137.426C80.1489 139.516 80.5086 141.421 81.2364 143.139C81.9728 144.857 83.1365 146.169 84.7277 147.074L82.8234 149.461C80.8767 148.31 79.476 146.389 78.6212 143.697C78.215 145.102 77.6521 146.342 76.9327 147.417C76.2133 148.492 75.3416 149.342 74.3175 149.969L72.3624 147.582ZM82.0109 139.152H85.0577V131.611H88.1046V153.27H85.0577V141.768H82.0109V139.152ZM105.466 145.627C107.15 145.627 108.61 145.8 109.846 146.147C111.081 146.486 112.033 146.985 112.702 147.646C113.371 148.297 113.709 149.08 113.718 149.994C113.709 150.891 113.371 151.666 112.702 152.317C112.033 152.978 111.077 153.477 109.833 153.815C108.597 154.162 107.141 154.336 105.466 154.336C103.798 154.336 102.343 154.162 101.099 153.815C99.8628 153.477 98.9107 152.978 98.2421 152.317C97.5734 151.666 97.2391 150.891 97.2391 149.994C97.2391 149.08 97.5734 148.297 98.2421 147.646C98.9107 146.985 99.8628 146.486 101.099 146.147C102.343 145.8 103.798 145.627 105.466 145.627ZM95.1063 141.539H102.977V137.502H106.177V141.539H116.079V144.154H95.1063V141.539ZM97.4677 132.271H113.591V134.15V134.823C113.591 135.839 113.548 136.778 113.464 137.642C113.379 138.505 113.201 139.406 112.931 140.346L109.757 140.041C109.994 139.093 110.15 138.23 110.226 137.451C110.303 136.664 110.349 135.784 110.366 134.811H97.4677V132.271ZM100.464 149.994C100.455 150.612 100.883 151.082 101.746 151.403C102.618 151.716 103.858 151.873 105.466 151.873C107.074 151.873 108.314 151.716 109.185 151.403C110.057 151.082 110.493 150.612 110.493 149.994C110.493 149.359 110.061 148.877 109.198 148.547C108.343 148.208 107.129 148.039 105.555 148.039C103.913 148.039 102.652 148.204 101.771 148.534C100.891 148.864 100.455 149.351 100.464 149.994Z" fill="white"/>
</svg>
