<svg width="111" height="145" viewBox="0 0 111 145" fill="none" xmlns="http://www.w3.org/2000/svg">
<g clip-path="url(#clip0_189_8739)">
<g style="mix-blend-mode:multiply" opacity="0.2">
<path d="M10.7701 27.6351C10.766 27.5548 10.7836 27.4734 10.8126 27.3921V27.802C10.794 27.7481 10.7732 27.6932 10.7701 27.6351ZM10.7701 41.7656C10.7691 41.7307 10.7805 41.6959 10.7846 41.6599C10.7898 41.6272 10.8033 41.5955 10.8126 41.5627V41.9315C10.794 41.8765 10.7732 41.8226 10.7701 41.7645V41.7656ZM10.7701 55.894C10.766 55.8116 10.7836 55.7302 10.8126 55.6499V56.0609C10.794 56.006 10.7732 55.951 10.7701 55.894ZM10.7701 71.1116C10.7691 71.0799 10.7805 71.0493 10.7836 71.0197C10.7878 70.9806 10.8012 70.9426 10.8126 70.9056V71.2775C10.794 71.2225 10.7732 71.1687 10.7701 71.1116ZM10.7701 85.8918C10.767 85.8295 10.7805 85.7693 10.7971 85.7101C10.8002 85.6975 10.8106 85.689 10.8126 85.6784V86.0588C10.794 86.0049 10.7732 85.95 10.7701 85.8929V85.8918ZM10.7701 100.451C10.766 100.371 10.7836 100.289 10.8126 100.209V100.619C10.794 100.565 10.7732 100.51 10.7701 100.452V100.451Z" fill="#BE7346"/>
</g>
<path d="M5.8481 144.357L2.19141 137.252V124.775L6.72405 131.969L5.8481 144.357Z" fill="#BE7346"/>
<path d="M104.959 144.357C108.194 143.11 110.495 139.973 110.495 136.286V12.9969C110.495 8.77943 107.49 5.27084 103.509 4.50488H46.4506C46.2884 4.53446 46.1262 4.55348 45.9682 4.59363H5.84375V144.357H104.959Z" fill="#BE7346"/>
<path d="M102.961 141.864C106.163 140.616 108.44 137.477 108.44 133.791V10.5023C108.44 6.28585 105.464 2.77938 101.526 2.01025H45.0612C44.9011 2.03878 44.741 2.06308 44.585 2.099H4.87891V141.864H102.961Z" fill="white"/>
<path d="M100.266 137.251C103.467 136.031 105.747 132.959 105.747 129.351V8.66937C105.747 4.54062 102.768 1.1081 98.8313 0.356934H42.3716C42.2125 0.385459 42.0504 0.406588 41.8944 0.445678H2.19141V137.251H100.267H100.266Z" fill="#BE7346"/>
<path d="M102.649 141.865L100.047 137.279H2.19141L4.79241 141.865H102.649Z" fill="#F6F6F6"/>
<path d="M1.97357 25.6419C1.85064 25.6419 1.72669 25.607 1.61926 25.5309C1.5201 25.4633 0.669967 24.8453 0.609022 23.8215C0.567704 23.1348 0.886889 22.4851 1.55728 21.8882L1.67814 21.8037C1.72979 21.7741 2.99827 21.1032 4.35661 21.5892C5.28112 21.923 6.00006 22.6858 6.49691 23.8627C6.63533 24.1924 6.48658 24.5769 6.16327 24.7206C5.83685 24.8622 5.46395 24.7079 5.32553 24.3773C4.97742 23.5553 4.51466 23.0345 3.94343 22.8242C3.24101 22.5696 2.5386 22.838 2.33304 22.9309C2.10682 23.1454 1.8682 23.4412 1.8837 23.7381C1.89816 24.0677 2.21631 24.3656 2.3382 24.4523C2.62433 24.6593 2.69767 25.064 2.49728 25.3587C2.37436 25.5436 2.17499 25.6419 1.97357 25.6419Z" fill="#09101D"/>
<path d="M1.97357 39.7726C1.85064 39.7726 1.72669 39.7366 1.61926 39.6606C1.5201 39.593 0.669967 38.9749 0.609022 37.9512C0.567704 37.2655 0.886889 36.6147 1.55728 36.0178L1.67814 35.9343C1.72979 35.9048 2.99827 35.2307 4.35661 35.7188C5.28112 36.0516 6.00006 36.8165 6.49691 37.9913C6.63533 38.3231 6.48658 38.7066 6.16327 38.8492C5.83685 38.9908 5.46395 38.8386 5.32553 38.5079C4.97742 37.6849 4.51466 37.162 3.94343 36.9538C3.24101 36.6982 2.5386 36.9676 2.33304 37.0595C2.10682 37.274 1.8682 37.573 1.8837 37.8688C1.89816 38.1973 2.21631 38.4953 2.3382 38.584C2.62433 38.789 2.69767 39.1947 2.49728 39.4894C2.37436 39.6711 2.17499 39.7726 1.97357 39.7726Z" fill="#09101D"/>
<path d="M1.97357 53.9004C1.85064 53.9004 1.72669 53.8655 1.61926 53.7916C1.5201 53.7229 0.669967 53.1049 0.609022 52.0811C0.567704 51.3955 0.886889 50.7447 1.55728 50.1478L1.67814 50.0643C1.72979 50.0347 2.99827 49.3607 4.35661 49.8498C5.28112 50.1826 6.00006 50.9465 6.49691 52.1213C6.63533 52.453 6.48658 52.8365 6.16327 52.9791C5.83685 53.1218 5.46395 52.9686 5.32553 52.64C4.97742 51.8159 4.51466 51.293 3.94343 51.0838C3.24101 50.8281 2.5386 51.0975 2.33304 51.1905C2.10682 51.4029 1.8682 51.7008 1.8837 51.9977C1.89816 52.3273 2.21631 52.6252 2.3382 52.7129C2.62433 52.9179 2.69767 53.3257 2.49728 53.6194C2.37436 53.8021 2.17499 53.9014 1.97357 53.9014V53.9004Z" fill="#09101D"/>
<path d="M1.97357 69.1164C1.85064 69.1164 1.72669 69.0805 1.61926 69.0045C1.5201 68.939 0.669967 68.3188 0.609022 67.2951C0.567704 66.6094 0.886889 65.9586 1.55728 65.3617L1.67814 65.2782C1.72979 65.2486 2.99827 64.5767 4.35661 65.0638C5.28112 65.3966 6.00006 66.1604 6.49691 67.3352C6.63533 67.668 6.48658 68.0505 6.16327 68.1931C5.83685 68.3346 5.46395 68.1836 5.32553 67.8539C4.97742 67.0309 4.51466 66.5069 3.94343 66.2988C3.24101 66.0421 2.5386 66.3115 2.33304 66.4044C2.10682 66.6189 1.8682 66.9158 1.8837 67.2127C1.89816 67.5412 2.21631 67.8402 2.3382 67.9279C2.62433 68.1329 2.69767 68.5385 2.49728 68.8333C2.37436 69.0182 2.17499 69.1164 1.97357 69.1164Z" fill="#09101D"/>
<path d="M1.97357 83.897C1.85064 83.897 1.72669 83.8611 1.61926 83.7861C1.5201 83.7174 0.669967 83.1005 0.609022 82.0767C0.567704 81.3911 0.886889 80.7403 1.55728 80.1433L1.67814 80.0588C1.72979 80.0303 2.99827 79.3573 4.35661 79.8444C5.28112 80.1772 6.00006 80.9421 6.49691 82.1169C6.63533 82.4497 6.48658 82.8321 6.16327 82.9747C5.83685 83.1163 5.46395 82.9621 5.32553 82.6324C4.97742 81.8105 4.51466 81.2875 3.94343 81.0794C3.24101 80.8237 2.5386 81.0931 2.33304 81.184C2.10682 81.3985 1.8682 81.6974 1.8837 81.9922C1.89816 82.3218 2.21631 82.6197 2.3382 82.7074C2.62433 82.9124 2.69767 83.3191 2.49728 83.6128C2.37436 83.7988 2.17499 83.896 1.97357 83.896V83.897Z" fill="#09101D"/>
<path d="M1.97357 98.4587C1.85064 98.4587 1.72669 98.4227 1.61926 98.3467C1.5201 98.2791 0.669967 97.6621 0.609022 96.6373C0.567704 95.9516 0.886889 95.3008 1.55728 94.7039L1.67814 94.6204C1.72979 94.5909 2.99827 93.9168 4.35661 94.406C5.28112 94.7388 6.00006 95.5026 6.49691 96.6785C6.63533 97.0081 6.48658 97.3927 6.16327 97.5342C5.83685 97.6769 5.46395 97.5247 5.32553 97.1951C4.97742 96.3732 4.51466 95.8491 3.94343 95.641C3.24101 95.3853 2.5386 95.6547 2.33304 95.7456C2.10682 95.9611 1.8682 96.2569 1.8837 96.5538C1.89816 96.8834 2.21631 97.1814 2.3382 97.2691C2.62433 97.474 2.69767 97.8808 2.49728 98.1755C2.37436 98.3583 2.17499 98.4587 1.97357 98.4587Z" fill="#09101D"/>
<path d="M1.86419 10.9568C1.74127 10.9568 1.61731 10.9219 1.50989 10.8459C1.41072 10.7783 0.560592 10.1602 0.499647 9.13648C0.458329 8.44977 0.777514 7.80003 1.44791 7.20311L1.56876 7.11859C1.62041 7.08901 2.88889 6.41814 4.24724 6.90413C5.17174 7.23798 5.89068 8.00076 6.38754 9.17769C6.52596 9.50731 6.37721 9.89187 6.05389 10.0356C5.72748 10.1771 5.35458 10.0229 5.21616 9.6922C4.86805 8.87025 4.40528 8.3494 3.83405 8.13916C3.13164 7.88455 2.42922 8.15289 2.22366 8.24587C1.99744 8.46033 1.75883 8.75615 1.77432 9.05302C1.78879 9.38264 2.10694 9.68057 2.22883 9.76721C2.51496 9.97428 2.5883 10.3789 2.3879 10.6737C2.26498 10.8586 2.06562 10.9568 1.86419 10.9568Z" fill="#09101D"/>
<path d="M1.96575 112.801C1.84283 112.801 1.71888 112.766 1.61145 112.69C1.51228 112.623 0.662155 112.004 0.60121 110.981C0.559891 110.294 0.879077 109.644 1.54947 109.047L1.67033 108.963C1.72198 108.933 2.99045 108.262 4.3488 108.748C5.2733 109.082 5.99225 109.845 6.4891 111.022C6.62752 111.352 6.47877 111.736 6.15545 111.88C5.82904 112.021 5.45614 111.867 5.31772 111.536C4.96961 110.714 4.50684 110.194 3.93562 109.983C3.2332 109.729 2.53079 109.997 2.32523 110.09C2.09901 110.305 1.86039 110.6 1.87589 110.897C1.89035 111.227 2.2085 111.525 2.33039 111.611C2.61652 111.819 2.68986 112.223 2.48947 112.518C2.36654 112.703 2.16718 112.801 1.96575 112.801Z" fill="#09101D"/>
<path d="M1.78434 127.875C1.66865 127.875 1.55193 127.842 1.4507 127.77C1.35773 127.707 0.556151 127.125 0.499338 126.16C0.461118 125.513 0.760678 124.902 1.39285 124.34L1.50648 124.26C1.55503 124.232 2.74913 123.6 4.02897 124.058C4.89976 124.373 5.57739 125.09 6.04429 126.199C6.17444 126.51 6.03396 126.872 5.73026 127.008C5.42244 127.141 5.07123 126.996 4.94108 126.684C4.61363 125.911 4.17669 125.42 3.63955 125.221C2.97845 124.981 2.31632 125.234 2.12212 125.321C1.90933 125.523 1.68415 125.802 1.69964 126.081C1.71307 126.392 2.01366 126.673 2.12729 126.754C2.39689 126.949 2.4661 127.33 2.27707 127.608C2.16138 127.782 1.97338 127.874 1.78331 127.874L1.78434 127.875Z" fill="#09101D"/>
<path d="M9.42706 23.0333C9.42706 24.4764 8.2846 25.6428 6.87564 25.6428C5.46668 25.6428 4.32422 24.4764 4.32422 23.0333C4.32422 21.5901 5.46564 20.4248 6.87564 20.4248C8.28563 20.4248 9.42706 21.5933 9.42706 23.0333Z" fill="#09101D"/>
<path d="M9.42706 37.8259C9.42706 39.267 8.2846 40.4344 6.87564 40.4344C5.46668 40.4344 4.32422 39.268 4.32422 37.8259C4.32422 36.3838 5.46564 35.2153 6.87564 35.2153C8.28563 35.2153 9.42706 36.3827 9.42706 37.8259Z" fill="#09101D"/>
<path d="M6.87564 55.2255C8.28475 55.2255 9.42706 54.0568 9.42706 52.615C9.42706 51.1732 8.28475 50.0044 6.87564 50.0044C5.46653 50.0044 4.32422 51.1732 4.32422 52.615C4.32422 54.0568 5.46653 55.2255 6.87564 55.2255Z" fill="#09101D"/>
<path d="M9.42706 67.4069C9.42706 68.8479 8.2846 70.0175 6.87564 70.0175C5.46668 70.0175 4.32422 68.8479 4.32422 67.4069C4.32422 65.9658 5.46564 64.7974 6.87564 64.7974C8.28563 64.7974 9.42706 65.9648 9.42706 67.4069Z" fill="#09101D"/>
<path d="M9.42706 82.1998C9.42706 83.6409 8.2846 84.8094 6.87564 84.8094C5.46668 84.8094 4.32422 83.6409 4.32422 82.1998C4.32422 80.7588 5.46564 79.5903 6.87564 79.5903C8.28563 79.5903 9.42706 80.7567 9.42706 82.1998Z" fill="#09101D"/>
<path d="M9.42706 96.9919C9.42706 98.4319 8.2846 99.6014 6.87564 99.6014C5.46668 99.6014 4.32422 98.4319 4.32422 96.9919C4.32422 95.5519 5.46564 94.3813 6.87564 94.3813C8.28563 94.3813 9.42706 95.5509 9.42706 96.9919Z" fill="#09101D"/>
<path d="M9.41143 111.147C9.41143 112.587 8.26898 113.756 6.86001 113.756C5.45105 113.756 4.30859 112.587 4.30859 111.147C4.30859 109.707 5.45002 108.536 6.86001 108.536C8.27001 108.536 9.41143 109.706 9.41143 111.147Z" fill="#09101D"/>
<path d="M9.29815 8.8806C9.29815 10.3206 8.15569 11.4901 6.74673 11.4901C5.33777 11.4901 4.19531 10.3206 4.19531 8.8806C4.19531 7.44061 5.33674 6.27002 6.74673 6.27002C8.15673 6.27002 9.29815 7.43955 9.29815 8.8806Z" fill="#09101D"/>
<path d="M9.29815 126.467C9.29815 127.907 8.15569 129.076 6.74673 129.076C5.33777 129.076 4.19531 127.907 4.19531 126.467C4.19531 125.027 5.33674 123.856 6.74673 123.856C8.15673 123.856 9.29815 125.025 9.29815 126.467Z" fill="#09101D"/>
<path d="M30.9128 50.3514H29.8479V44.9605H28.5924V49.8335H27.5399V40.0544H28.5924V44.0282H29.8479V39.8514H30.9128V50.3514ZM21.7015 47.3846C22.2015 47.1056 22.62 46.7285 22.957 46.2533C23.294 45.7754 23.544 45.2299 23.707 44.6166C23.8728 44.0006 23.9557 43.3376 23.9557 42.6277V41.9564H21.9874V41.0489H26.8645V41.9564H25.033V42.6277C25.033 43.2713 25.1145 43.8777 25.2775 44.4467C25.4405 45.0158 25.6891 45.5227 26.0233 45.9674C26.3576 46.4122 26.7733 46.7616 27.2706 47.0158L26.6159 47.8694C26.1103 47.5959 25.6822 47.2257 25.3313 46.7589C24.9805 46.2893 24.7098 45.7423 24.5192 45.118C24.3341 45.8252 24.0634 46.4439 23.707 46.9743C23.3534 47.5047 22.9156 47.9246 22.3935 48.234L21.7015 47.3846ZM40.7121 41.8901C40.7093 42.4923 40.7011 43.0089 40.6872 43.4398C40.6734 43.868 40.6375 44.368 40.5795 44.9398C40.5243 45.5116 40.4345 46.1304 40.3102 46.7962L39.1914 46.6719C39.3129 46.0586 39.4027 45.4799 39.4607 44.9357C39.5215 44.3887 39.5588 43.9025 39.5726 43.4771C39.5892 43.0517 39.5988 42.5531 39.6016 41.9812V41.8901V41.7658H33.2245V40.8625H40.7121V41.8901ZM32.2176 48.0144H35.8557V44.31H36.958V48.0144H41.7895V48.9343H32.2176V48.0144ZM51.361 41.2395V41.339C51.3554 41.8556 51.3361 42.3431 51.3029 42.8017C51.2726 43.2602 51.2035 43.7713 51.0958 44.3348L49.9935 44.2395C50.0958 43.7147 50.1648 43.2409 50.2007 42.8183C50.2394 42.3956 50.2615 41.9785 50.267 41.5669H46.0654V40.647H51.361V41.2395ZM45.5143 45.2423C46.4231 45.2368 47.1123 45.2285 47.5819 45.2174V43.0089H48.6842V45.1801C49.9659 45.1277 51.0792 45.0351 52.0239 44.9025L52.0902 45.7147C51.1151 45.8859 50.0847 46.0006 48.9991 46.0586C47.9162 46.1138 46.7615 46.1428 45.535 46.1456L45.4314 45.2423H45.5143ZM47.0267 47.0282H48.1372V49.2243H54.1579V50.1359H47.0267V47.0282ZM52.6911 39.8514H53.8223V43.1953H55.2684V44.1359H53.8223V47.7409H52.6911V39.8514ZM64.5994 50.3721H63.4972V39.8514H64.5994V50.3721ZM56.4696 40.7962H61.3881V44.6373H57.6257V46.9329C58.5428 46.9274 59.3881 46.8984 60.1616 46.8459C60.9351 46.7906 61.7376 46.694 62.5691 46.5558L62.6727 47.4757C61.797 47.6194 60.9475 47.7188 60.1243 47.7741C59.3039 47.8265 58.3895 47.8528 57.3812 47.8528H56.482V43.7423H60.261V41.7078H56.4696V40.7962ZM73.0439 42.5241C73.0411 43.1567 73.1571 43.7796 73.3919 44.3928C73.6295 45.0061 73.9596 45.5503 74.3823 46.0254C74.8049 46.5006 75.2842 46.8556 75.8201 47.0904L75.1488 47.9771C74.5522 47.6926 74.0232 47.2713 73.5618 46.7133C73.1005 46.1525 72.7455 45.5089 72.4969 44.7823C72.2511 45.5614 71.8933 46.2506 71.4237 46.85C70.9541 47.4495 70.4099 47.8998 69.7911 48.2009L69.1033 47.2727C69.6447 47.0296 70.1295 46.6622 70.5577 46.1705C70.9859 45.6788 71.3201 45.1138 71.5604 44.4757C71.8008 43.8376 71.9223 43.187 71.9251 42.5241V40.7257H73.0439V42.5241ZM76.769 39.8514H77.8878V50.3721H76.769V39.8514ZM87.8114 42.955H89.3321V43.8873H87.8114V47.484H86.6843V39.8514H87.8114V42.955ZM79.5489 45.4412C80.3666 45.1953 81.0766 44.8804 81.6788 44.4964C82.2838 44.1125 82.7617 43.6732 83.1125 43.1788C83.4661 42.6815 83.6788 42.147 83.7506 41.5752H79.9882V40.6511H84.9605C84.9605 41.5572 84.763 42.3832 84.368 43.129C83.9757 43.8721 83.4094 44.5144 82.6691 45.0558C81.9315 45.5945 81.0489 46.0185 80.0213 46.3279L79.5489 45.4412ZM81.1443 46.7009H82.263V49.2243H88.2465V50.1359H81.1443V46.7009Z" fill="white"/>
<path d="M25.7154 79.3569V77.252L34.2099 65.3017H25.6906V62.3846H38.6353V64.4895L30.1326 76.4398H38.6602V79.3569H25.7154ZM41.0576 79.3569V62.3846H52.4443V65.3017H44.5797V69.4122H51.856V72.321H44.5797V76.4398H52.4775V79.3569H41.0576ZM54.9504 79.3569V62.3846H61.5968C65.4587 62.3846 67.6714 64.5641 67.6714 67.9122C67.6714 70.2409 66.6106 71.9232 64.6714 72.752L68.2847 79.3569H64.3814L61.1576 73.3238H58.4725V79.3569H54.9504ZM58.4725 70.473H60.9504C63.0388 70.473 64.0499 69.6111 64.0499 67.9122C64.0499 66.2133 63.0388 65.2768 60.9421 65.2768H58.4725V70.473ZM85.4049 70.8707C85.4049 76.4067 81.9739 79.589 77.4739 79.589C72.9574 79.589 69.5513 76.3901 69.5513 70.8707C69.5513 65.3348 72.9574 62.1525 77.4739 62.1525C81.9739 62.1525 85.4049 65.3348 85.4049 70.8707ZM73.1231 70.8707C73.1231 74.4923 74.8551 76.4647 77.4739 76.4647C80.101 76.4647 81.833 74.4923 81.833 70.8707C81.833 67.2492 80.101 65.2768 77.4739 65.2768C74.8551 65.2768 73.1231 67.2492 73.1231 70.8707Z" fill="white"/>
</g>
<defs>
<clipPath id="clip0_189_8739">
<rect width="110" height="144" fill="white" transform="translate(0.5 0.356934)"/>
</clipPath>
</defs>
</svg>
