<svg width="240" height="356" viewBox="0 0 240 356" fill="none" xmlns="http://www.w3.org/2000/svg">
<g clip-path="url(#clip0_189_7292)">
<g style="mix-blend-mode:multiply" opacity="0.2">
<path d="M24.7708 56.8328C24.762 56.6655 24.7992 56.496 24.8605 56.3265V57.1805C24.8211 57.0683 24.7774 56.9538 24.7708 56.8328ZM24.7708 86.2715C24.7686 86.1989 24.7927 86.1262 24.8014 86.0514C24.8124 85.9832 24.8408 85.9171 24.8605 85.8489V86.6171C24.8211 86.5026 24.7774 86.3904 24.7708 86.2693V86.2715ZM24.7708 115.706C24.762 115.534 24.7992 115.365 24.8605 115.197V116.054C24.8211 115.939 24.7774 115.825 24.7708 115.706ZM24.7708 147.409C24.7686 147.343 24.7927 147.28 24.7992 147.218C24.808 147.137 24.8364 147.057 24.8605 146.98V147.755C24.8211 147.641 24.7774 147.528 24.7708 147.409ZM24.7708 178.202C24.7642 178.072 24.7927 177.946 24.8277 177.823C24.8343 177.797 24.8561 177.779 24.8605 177.757V178.55C24.8211 178.437 24.7774 178.323 24.7708 178.204V178.202ZM24.7708 208.534C24.762 208.367 24.7992 208.195 24.8605 208.03V208.884C24.8211 208.772 24.7774 208.657 24.7708 208.536V208.534Z" fill="#BE7346"/>
</g>
<path d="M14.3352 300L6.58984 285.198V259.204L16.1906 274.191L14.3352 300Z" fill="#BE7346"/>
<path d="M224.275 300C231.128 297.401 236.002 290.866 236.002 283.184V26.3309C236.002 17.5444 229.638 10.2348 221.205 8.63904H100.347C100.003 8.70067 99.6597 8.74029 99.325 8.82392H14.3359V300H224.275Z" fill="#BE7346"/>
<path d="M220.02 294.808C226.803 292.208 231.625 285.669 231.625 277.99V21.1364C231.625 12.3521 225.322 5.04693 216.981 3.44458H97.3811C97.0419 3.50401 96.7028 3.55463 96.3724 3.62947H12.2695V294.808H220.02Z" fill="white"/>
<path d="M214.325 285.198C221.106 282.656 225.935 276.255 225.935 268.739V17.3177C225.935 8.71607 219.625 1.56493 211.286 0H91.697C91.3601 0.0594277 91.0166 0.103448 90.6862 0.184886H6.58984V285.198H214.328H214.325Z" fill="#BE7346"/>
<path d="M219.373 294.808L213.862 285.253H6.58984L12.0991 294.808H219.373Z" fill="#E3E7EB"/>
<path d="M6.11657 52.6772C5.8562 52.6772 5.59365 52.6046 5.3661 52.4461C5.15606 52.3052 3.35537 51.0176 3.22628 48.8848C3.13876 47.4542 3.81484 46.1005 5.23482 44.857L5.49081 44.6809C5.60021 44.6192 8.28702 43.2216 11.1642 44.2341C13.1224 44.9296 14.6452 46.5187 15.6976 48.9707C15.9908 49.6574 15.6758 50.4586 14.9909 50.7579C14.2995 51.0528 13.5097 50.7315 13.2165 50.0426C12.4791 48.3302 11.4989 47.2451 10.289 46.8071C8.80119 46.2766 7.31338 46.8357 6.87798 47.0294C6.39881 47.4762 5.8934 48.0925 5.92622 48.711C5.95685 49.3977 6.63074 50.0184 6.88892 50.1989C7.49498 50.6303 7.65033 51.4732 7.22586 52.0873C6.9655 52.4725 6.54322 52.6772 6.11657 52.6772Z" fill="#09101D"/>
<path d="M6.11657 82.116C5.8562 82.116 5.59365 82.0411 5.3661 81.8827C5.15606 81.7418 3.35537 80.4542 3.22628 78.3214C3.13876 76.8929 3.81484 75.5371 5.23482 74.2935L5.49081 74.1196C5.60021 74.058 8.28702 72.6538 11.1642 73.6706C13.1224 74.364 14.6452 75.9575 15.6976 78.405C15.9908 79.0962 15.6758 79.8951 14.9909 80.1923C14.2995 80.4872 13.5097 80.1703 13.2165 79.4813C12.4791 77.7667 11.4989 76.6772 10.289 76.2436C8.80119 75.711 7.31338 76.2722 6.87798 76.4637C6.39881 76.9105 5.8934 77.5334 5.92622 78.1497C5.95685 78.8342 6.63074 79.4549 6.88892 79.6398C7.49498 80.0668 7.65033 80.912 7.22586 81.5261C6.9655 81.9047 6.54322 82.116 6.11657 82.116Z" fill="#09101D"/>
<path d="M6.11657 111.548C5.8562 111.548 5.59365 111.475 5.3661 111.321C5.15606 111.178 3.35537 109.891 3.22628 107.758C3.13876 106.329 3.81484 104.974 5.23482 103.73L5.49081 103.556C5.60021 103.495 8.28702 102.09 11.1642 103.109C13.1224 103.803 14.6452 105.394 15.6976 107.842C15.9908 108.533 15.6758 109.332 14.9909 109.629C14.2995 109.926 13.5097 109.607 13.2165 108.922C12.4791 107.205 11.4989 106.116 10.289 105.68C8.80119 105.147 7.31338 105.709 6.87798 105.902C6.39881 106.345 5.8934 106.966 5.92622 107.584C5.95685 108.271 6.63074 108.891 6.88892 109.074C7.49498 109.501 7.65033 110.351 7.22586 110.963C6.9655 111.343 6.54322 111.55 6.11657 111.55V111.548Z" fill="#09101D"/>
<path d="M6.11657 143.249C5.8562 143.249 5.59365 143.175 5.3661 143.016C5.15606 142.88 3.35537 141.588 3.22628 139.455C3.13876 138.026 3.81484 136.671 5.23482 135.427L5.49081 135.253C5.60021 135.191 8.28702 133.792 11.1642 134.806C13.1224 135.5 14.6452 137.091 15.6976 139.539C15.9908 140.232 15.6758 141.029 14.9909 141.326C14.2995 141.621 13.5097 141.306 13.2165 140.619C12.4791 138.905 11.4989 137.813 10.289 137.379C8.80119 136.844 7.31338 137.406 6.87798 137.599C6.39881 138.046 5.8934 138.665 5.92622 139.283C5.95685 139.968 6.63074 140.591 6.88892 140.773C7.49498 141.2 7.65033 142.045 7.22586 142.66C6.9655 143.045 6.54322 143.249 6.11657 143.249Z" fill="#09101D"/>
<path d="M6.11657 174.044C5.8562 174.044 5.59365 173.969 5.3661 173.813C5.15606 173.67 3.35537 172.384 3.22628 170.252C3.13876 168.823 3.81484 167.467 5.23482 166.224L5.49081 166.048C5.60021 165.988 8.28702 164.586 11.1642 165.601C13.1224 166.294 14.6452 167.888 15.6976 170.335C15.9908 171.029 15.6758 171.825 14.9909 172.123C14.2995 172.417 13.5097 172.096 13.2165 171.409C12.4791 169.697 11.4989 168.607 10.289 168.174C8.80119 167.641 7.31338 168.202 6.87798 168.392C6.39881 168.839 5.8934 169.461 5.92622 170.076C5.95685 170.762 6.63074 171.383 6.88892 171.566C7.49498 171.993 7.65033 172.84 7.22586 173.452C6.9655 173.839 6.54322 174.042 6.11657 174.042V174.044Z" fill="#09101D"/>
<path d="M6.11657 204.381C5.8562 204.381 5.59365 204.306 5.3661 204.148C5.15606 204.007 3.35537 202.721 3.22628 200.586C3.13876 199.158 3.81484 197.802 5.23482 196.558L5.49081 196.385C5.60021 196.323 8.28702 194.919 11.1642 195.938C13.1224 196.631 14.6452 198.222 15.6976 200.672C15.9908 201.359 15.6758 202.16 14.9909 202.455C14.2995 202.752 13.5097 202.435 13.2165 201.748C12.4791 200.036 11.4989 198.944 10.289 198.511C8.80119 197.978 7.31338 198.539 6.87798 198.729C6.39881 199.178 5.8934 199.794 5.92622 200.412C5.95685 201.099 6.63074 201.72 6.88892 201.902C7.49498 202.329 7.65033 203.177 7.22586 203.791C6.9655 204.172 6.54322 204.381 6.11657 204.381Z" fill="#09101D"/>
<path d="M5.89782 22.0829C5.63745 22.0829 5.3749 22.0103 5.14735 21.8518C4.93731 21.7109 3.13662 20.4233 3.00753 18.2905C2.92001 16.8599 3.59609 15.5062 5.01607 14.2627L5.27206 14.0866C5.38146 14.0249 8.06827 12.6273 10.9454 13.6398C12.9037 14.3353 14.4265 15.9244 15.4789 18.3764C15.7721 19.0631 15.457 19.8643 14.7722 20.1636C14.0808 20.4585 13.2909 20.1372 12.9977 19.4483C12.2604 17.7359 11.2802 16.6508 10.0703 16.2128C8.58244 15.6823 7.09463 16.2414 6.65923 16.4351C6.18006 16.8819 5.67465 17.4982 5.70747 18.1167C5.7381 18.8034 6.41199 19.4241 6.67017 19.6046C7.27623 20.036 7.43158 20.8789 7.00711 21.493C6.74675 21.8782 6.32447 22.0829 5.89782 22.0829Z" fill="#09101D"/>
<path d="M6.11657 234.262C5.8562 234.262 5.59365 234.189 5.3661 234.031C5.15606 233.89 3.35537 232.602 3.22628 230.47C3.13876 229.039 3.81484 227.685 5.23482 226.442L5.49081 226.266C5.60021 226.204 8.28702 224.806 11.1642 225.819C13.1224 226.514 14.6452 228.103 15.6976 230.555C15.9908 231.242 15.6758 232.043 14.9909 232.343C14.2995 232.638 13.5097 232.316 13.2165 231.627C12.4791 229.915 11.4989 228.83 10.289 228.392C8.80119 227.861 7.31338 228.42 6.87798 228.614C6.39881 229.061 5.8934 229.677 5.92622 230.296C5.95685 230.982 6.63074 231.603 6.88892 231.784C7.49498 232.215 7.65033 233.058 7.22586 233.672C6.9655 234.057 6.54322 234.262 6.11657 234.262Z" fill="#09101D"/>
<path d="M5.72869 265.664C5.48364 265.664 5.2364 265.596 5.02198 265.446C4.82506 265.314 3.12721 264.101 3.00687 262.092C2.92592 260.743 3.56043 259.47 4.89946 258.299L5.14013 258.132C5.24296 258.075 7.77224 256.759 10.4831 257.712C12.3276 258.368 13.7629 259.862 14.7518 262.173C15.0275 262.82 14.7299 263.575 14.0867 263.857C13.4347 264.134 12.6908 263.833 12.4151 263.183C11.7215 261.572 10.796 260.549 9.65826 260.135C8.25797 259.635 6.85549 260.161 6.44415 260.344C5.99343 260.765 5.51646 261.346 5.54928 261.927C5.57772 262.574 6.21442 263.159 6.45509 263.329C7.02615 263.736 7.17274 264.528 6.77235 265.107C6.5273 265.47 6.12909 265.662 5.7265 265.662L5.72869 265.664Z" fill="#09101D"/>
<path d="M21.8866 47.2406C21.8866 50.2472 19.4668 52.6771 16.4824 52.6771C13.498 52.6771 11.0781 50.2472 11.0781 47.2406C11.0781 44.234 13.4958 41.8063 16.4824 41.8063C19.4689 41.8063 21.8866 44.2406 21.8866 47.2406Z" fill="#09101D"/>
<path d="M21.8866 78.0593C21.8866 81.0615 19.4668 83.4937 16.4824 83.4937C13.498 83.4937 11.0781 81.0637 11.0781 78.0593C11.0781 75.0549 13.4958 72.6206 16.4824 72.6206C19.4689 72.6206 21.8866 75.0527 21.8866 78.0593Z" fill="#09101D"/>
<path d="M16.4824 114.31C19.4671 114.31 21.8866 111.875 21.8866 108.872C21.8866 105.868 19.4671 103.433 16.4824 103.433C13.4977 103.433 11.0781 105.868 11.0781 108.872C11.0781 111.875 13.4977 114.31 16.4824 114.31Z" fill="#09101D"/>
<path d="M21.8866 139.688C21.8866 142.69 19.4668 145.127 16.4824 145.127C13.498 145.127 11.0781 142.69 11.0781 139.688C11.0781 136.686 13.4958 134.252 16.4824 134.252C19.4689 134.252 21.8866 136.684 21.8866 139.688Z" fill="#09101D"/>
<path d="M21.8866 170.505C21.8866 173.507 19.4668 175.941 16.4824 175.941C13.498 175.941 11.0781 173.507 11.0781 170.505C11.0781 167.503 13.4958 165.068 16.4824 165.068C19.4689 165.068 21.8866 167.498 21.8866 170.505Z" fill="#09101D"/>
<path d="M21.8866 201.321C21.8866 204.321 19.4668 206.758 16.4824 206.758C13.498 206.758 11.0781 204.321 11.0781 201.321C11.0781 198.321 13.4958 195.883 16.4824 195.883C19.4689 195.883 21.8866 198.319 21.8866 201.321Z" fill="#09101D"/>
<path d="M21.8866 230.815C21.8866 233.815 19.4668 236.252 16.4824 236.252C13.498 236.252 11.0781 233.815 11.0781 230.815C11.0781 227.815 13.4958 225.376 16.4824 225.376C19.4689 225.376 21.8866 227.813 21.8866 230.815Z" fill="#09101D"/>
<path d="M21.6679 17.7557C21.6679 20.7557 19.248 23.1922 16.2636 23.1922C13.2793 23.1922 10.8594 20.7557 10.8594 17.7557C10.8594 14.7557 13.2771 12.317 16.2636 12.317C19.2502 12.317 21.6679 14.7535 21.6679 17.7557Z" fill="#09101D"/>
<path d="M21.6679 262.73C21.6679 265.73 19.248 268.167 16.2636 268.167C13.2793 268.167 10.8594 265.73 10.8594 262.73C10.8594 259.73 13.2771 257.291 16.2636 257.291C19.2502 257.291 21.6679 259.728 21.6679 262.73Z" fill="#09101D"/>
</g>
<path d="M86.3539 89.8343H53.9229V85.8564H67.6108V82.4309H72.5555V85.8564H86.3539V89.8343ZM55.2765 80.3591C57.7074 80.2118 59.7701 79.8895 61.4643 79.3923C63.1678 78.8858 64.4846 78.2689 65.4146 77.5414C66.3539 76.8048 66.9432 76.0083 67.1826 75.1519H57.0306V71.2293H67.6108V68.1492H72.5555V71.2293H83.2047V75.1519H72.9699C73.2093 76.0083 73.794 76.8048 74.724 77.5414C75.654 78.2689 76.9708 78.8858 78.6743 79.3923C80.387 79.8895 82.4588 80.2118 84.8898 80.3591L83.3842 84.116C80.1522 83.895 77.4082 83.3333 75.1522 82.4309C72.8962 81.5285 71.2065 80.3499 70.0831 78.895C68.9505 80.3499 67.2562 81.5285 65.0003 82.4309C62.7443 83.3333 60.0049 83.895 56.782 84.116L55.2765 80.3591ZM57.6246 97.5552C57.6246 96.2661 58.1172 95.1703 59.1025 94.268C60.0877 93.3564 61.5104 92.6703 63.3704 92.2099C65.2305 91.7403 67.4634 91.5055 70.0693 91.5055C72.666 91.5055 74.8898 91.7403 76.7406 92.2099C78.5914 92.6703 80.0049 93.3564 80.9809 94.268C81.957 95.1703 82.4496 96.2661 82.4588 97.5552C82.4496 98.8444 81.957 99.9401 80.9809 100.843C80.0049 101.754 78.5914 102.44 76.7406 102.901C74.8898 103.361 72.666 103.591 70.0693 103.591C67.4634 103.591 65.2305 103.361 63.3704 102.901C61.5104 102.44 60.0877 101.754 59.1025 100.843C58.1172 99.9401 57.6246 98.8444 57.6246 97.5552ZM62.7074 97.5552C62.6982 98.3564 63.2876 98.9503 64.4754 99.337C65.6632 99.7145 67.4818 99.9033 69.9312 99.9033C72.4542 99.9033 74.3373 99.7145 75.5804 99.337C76.8235 98.9595 77.4496 98.3656 77.4588 97.5552C77.4496 96.7449 76.8327 96.151 75.608 95.7735C74.3833 95.3867 72.5371 95.1934 70.0693 95.1934C67.5739 95.1934 65.7185 95.3867 64.503 95.7735C63.2968 96.151 62.6982 96.7449 62.7074 97.5552ZM119.966 91.9199H106.071V103.55H101.14V91.9199H87.4518V87.9282H119.966V91.9199ZM91.2916 69.779H116.084V84.1022H91.2916V69.779ZM111.126 80.2072V73.7293H96.1811V80.2072H111.126ZM150.041 87.3895H139.793V95.5387H153.577V99.5442H121.064V95.5387H134.779V87.3895H124.696V70.7735H129.779V83.384H150.041V87.3895ZM183.612 90.3315H158.474V70.663H183.336V74.6961H163.529V78.453H182.493V82.3619H163.529V86.4088H183.612V90.3315ZM154.634 95.4006H187.148V99.4613H154.634V95.4006Z" fill="white"/>
<path d="M111.465 135.061C111.465 135.808 111.447 136.47 111.41 137.044C111.377 137.619 111.29 138.254 111.15 138.95H113.023V140.149H100.294V138.95H109.669C109.773 138.435 109.852 137.906 109.907 137.365L101.708 137.707L101.531 136.541L109.973 136.315C109.984 136.042 109.99 135.65 109.99 135.138H101.879V133.95H111.465V135.061ZM101.747 141.32H111.553V144.713H103.255V145.978H112.051V147.149H101.78V143.608H110.078V142.47H101.747V141.32ZM125.719 147.354H124.249V133.326H125.719V147.354ZM114.879 134.586H121.437V139.707H116.42V142.768C117.643 142.761 118.77 142.722 119.801 142.652C120.833 142.578 121.903 142.449 123.011 142.265L123.149 143.492C121.982 143.683 120.849 143.816 119.752 143.89C118.658 143.959 117.439 143.994 116.094 143.994H114.895V138.514H119.934V135.801H114.879V134.586ZM139.508 141.635H138.033V133.326H139.508V141.635ZM128.784 134.232H130.276V139.298C131.477 139.291 132.583 139.241 133.596 139.149C134.609 139.053 135.622 138.897 136.635 138.68L136.828 139.901C135.757 140.129 134.69 140.293 133.63 140.392C132.569 140.488 131.421 140.536 130.188 140.536H129.944H128.784V134.232ZM130.044 144.541C130.044 143.959 130.237 143.459 130.624 143.039C131.011 142.619 131.561 142.298 132.276 142.077C132.994 141.856 133.841 141.748 134.817 141.751C135.786 141.748 136.628 141.856 137.342 142.077C138.057 142.298 138.606 142.619 138.989 143.039C139.375 143.459 139.571 143.959 139.574 144.541C139.571 145.112 139.375 145.604 138.989 146.017C138.606 146.433 138.057 146.751 137.342 146.972C136.628 147.193 135.786 147.304 134.817 147.304C133.841 147.304 132.994 147.193 132.276 146.972C131.561 146.751 131.011 146.433 130.624 146.017C130.237 145.604 130.044 145.112 130.044 144.541ZM131.536 144.541C131.532 144.869 131.659 145.151 131.917 145.387C132.178 145.622 132.556 145.803 133.049 145.928C133.543 146.053 134.132 146.116 134.817 146.116C135.495 146.116 136.079 146.053 136.569 145.928C137.059 145.803 137.432 145.622 137.69 145.387C137.952 145.151 138.084 144.869 138.088 144.541C138.084 144.203 137.952 143.915 137.69 143.68C137.432 143.44 137.06 143.26 136.574 143.138C136.088 143.017 135.502 142.956 134.817 142.956C134.129 142.956 133.537 143.017 133.044 143.138C132.554 143.26 132.178 143.44 131.917 143.68C131.659 143.915 131.532 144.203 131.536 144.541ZM103.007 174.354H101.515V160.326H103.007V174.354ZM92.1834 161.492H93.6641V165.088H97.4431V161.492H98.9072V171.006H92.1834V161.492ZM97.4431 169.779V166.265H93.6641V169.779H97.4431ZM118.001 168.221H112.343V169.724H116.443V174.149H106.768V169.724H110.879V168.221H105.238V167.028H118.001V168.221ZM106.404 160.757H116.802V161.961H114.763V164.635H116.741V165.845H106.465V164.635H108.448V161.961H106.404V160.757ZM115.001 172.945V170.89H108.233V172.945H115.001ZM113.277 164.635V161.961H109.923V164.635H113.277ZM130.763 162.177V162.309C130.755 162.998 130.729 163.648 130.685 164.26C130.645 164.871 130.553 165.552 130.409 166.304L128.939 166.177C129.076 165.477 129.168 164.845 129.216 164.282C129.267 163.718 129.297 163.162 129.304 162.613H123.702V161.387H130.763V162.177ZM122.967 167.514C124.179 167.506 125.098 167.495 125.724 167.481V164.536H127.193V167.431C128.902 167.361 130.387 167.238 131.646 167.061L131.735 168.144C130.435 168.372 129.061 168.525 127.613 168.602C126.17 168.676 124.63 168.715 122.995 168.718L122.856 167.514H122.967ZM124.984 169.895H126.464V172.823H134.492V174.039H124.984V169.895ZM132.536 160.326H134.044V164.785H135.972V166.039H134.044V170.845H132.536V160.326ZM148.414 174.354H146.944V160.326H148.414V174.354ZM137.574 161.586H144.132V166.707H139.116V169.768C140.338 169.761 141.465 169.722 142.497 169.652C143.528 169.578 144.598 169.449 145.707 169.265L145.845 170.492C144.677 170.683 143.545 170.816 142.447 170.89C141.353 170.959 140.134 170.994 138.79 170.994H137.591V165.514H142.629V162.801H137.574V161.586ZM81.9436 196.127C82.9492 196.127 83.8239 196.23 84.5679 196.436C85.312 196.639 85.8847 196.936 86.2862 197.326C86.6876 197.716 86.8902 198.182 86.8939 198.724C86.8902 199.258 86.6858 199.718 86.2806 200.105C85.8792 200.495 85.3064 200.792 84.5624 200.994C83.8221 201.201 82.9492 201.304 81.9436 201.304C80.9455 201.304 80.0744 201.201 79.3304 200.994C78.59 200.792 78.0191 200.495 77.6177 200.105C77.2162 199.718 77.0155 199.258 77.0155 198.724C77.0155 198.182 77.2162 197.718 77.6177 197.331C78.0191 196.941 78.59 196.643 79.3304 196.436C80.0707 196.23 80.9418 196.127 81.9436 196.127ZM75.6453 193.762H80.7503V191.138H82.2088V193.762H88.3746V194.967H75.6453V193.762ZM77.1315 188.011H86.7889V189.188C86.7889 189.689 86.7816 190.114 86.7668 190.464C86.7558 190.81 86.7208 191.192 86.6619 191.608C86.6066 192.024 86.5182 192.457 86.3967 192.906L84.9381 192.757C85.056 192.308 85.1407 191.886 85.1922 191.492C85.2475 191.094 85.2806 190.733 85.2917 190.409C85.3064 190.085 85.3138 189.683 85.3138 189.204H77.1315V188.011ZM78.4961 198.724C78.4924 199.022 78.6287 199.278 78.905 199.492C79.1849 199.705 79.5845 199.869 80.1039 199.983C80.6232 200.094 81.2364 200.149 81.9436 200.149C82.6508 200.149 83.2641 200.094 83.7834 199.983C84.3064 199.869 84.7079 199.705 84.9878 199.492C85.2714 199.278 85.4151 199.022 85.4188 198.724C85.4151 198.418 85.2714 198.155 84.9878 197.934C84.7079 197.713 84.3064 197.543 83.7834 197.425C83.2641 197.308 82.6508 197.249 81.9436 197.249C81.2401 197.249 80.6269 197.308 80.1039 197.425C79.5845 197.543 79.1849 197.713 78.905 197.934C78.6287 198.155 78.4924 198.418 78.4961 198.724ZM100.457 191.464H102.484V192.707H100.457V197.503H98.9541V187.326H100.457V191.464ZM89.4403 194.779C90.5305 194.451 91.4771 194.031 92.28 193.519C93.0867 193.007 93.7239 192.422 94.1916 191.762C94.6631 191.099 94.9467 190.387 95.0425 189.624H90.0259V188.392H96.6557C96.6557 189.6 96.3924 190.702 95.8657 191.696C95.3427 192.687 94.5876 193.543 93.6005 194.265C92.6171 194.983 91.4403 195.549 90.0701 195.961L89.4403 194.779ZM91.5673 196.459H93.059V199.823H101.037V201.039H91.5673V196.459ZM119.981 196.453H116.738V201.326H115.235V196.453H111.887V201.326H110.362V196.453H107.169V195.238H119.981V196.453ZM108.567 190.95C108.567 190.328 108.775 189.785 109.191 189.32C109.607 188.853 110.191 188.492 110.943 188.238C111.694 187.983 112.561 187.855 113.545 187.851C114.528 187.855 115.397 187.983 116.153 188.238C116.908 188.492 117.493 188.853 117.909 189.32C118.329 189.785 118.539 190.328 118.539 190.95C118.539 191.565 118.329 192.103 117.909 192.564C117.493 193.024 116.908 193.378 116.153 193.624C115.397 193.871 114.528 193.993 113.545 193.989C112.565 193.993 111.698 193.871 110.943 193.624C110.191 193.378 109.607 193.024 109.191 192.564C108.775 192.103 108.567 191.565 108.567 190.95ZM110.092 190.95C110.088 191.33 110.228 191.659 110.512 191.939C110.799 192.219 111.204 192.435 111.727 192.586C112.25 192.737 112.856 192.812 113.545 192.812C114.237 192.812 114.843 192.737 115.362 192.586C115.886 192.435 116.291 192.219 116.578 191.939C116.865 191.659 117.009 191.33 117.009 190.95C117.009 190.564 116.865 190.228 116.578 189.945C116.291 189.657 115.886 189.438 115.362 189.287C114.843 189.133 114.237 189.055 113.545 189.055C112.856 189.055 112.25 189.133 111.727 189.287C111.204 189.438 110.799 189.657 110.512 189.945C110.228 190.228 110.088 190.564 110.092 190.95ZM126.169 191.459C126.169 192.228 126.325 192.994 126.638 193.757C126.955 194.516 127.393 195.193 127.953 195.79C128.517 196.383 129.152 196.831 129.859 197.133L129.047 198.304C128.229 197.943 127.506 197.4 126.876 196.674C126.25 195.945 125.771 195.11 125.439 194.171C125.222 194.834 124.935 195.459 124.577 196.044C124.224 196.626 123.813 197.142 123.345 197.591C122.881 198.037 122.382 198.39 121.848 198.652L120.981 197.481C121.669 197.16 122.294 196.678 122.854 196.033C123.417 195.389 123.859 194.663 124.18 193.856C124.5 193.05 124.662 192.25 124.666 191.459V189.961H121.472V188.735H129.362V189.961H126.169V191.459ZM131.124 187.326H132.616V201.326H131.124V187.326ZM151.566 199.591H138.754V198.365H144.389V195.492H140.212V188.282H141.698V190.696H148.571V188.282H150.047V195.492H145.859V198.365H151.566V199.591ZM148.571 194.287V191.89H141.698V194.287H148.571ZM159.742 188.558C159.742 189.166 159.969 189.753 160.422 190.32C160.875 190.884 161.486 191.365 162.256 191.762C163.026 192.157 163.864 192.414 164.77 192.536L164.179 193.746C163.416 193.624 162.694 193.416 162.013 193.122C161.335 192.823 160.733 192.455 160.206 192.017C159.683 191.575 159.272 191.083 158.974 190.541C158.676 191.087 158.263 191.58 157.737 192.022C157.214 192.46 156.613 192.827 155.935 193.122C155.258 193.416 154.539 193.624 153.781 193.746L153.184 192.536C154.09 192.414 154.926 192.158 155.692 191.768C156.458 191.374 157.066 190.895 157.516 190.331C157.969 189.764 158.195 189.173 158.195 188.558V187.796H159.742V188.558ZM152.582 195.122H165.344V196.348H159.659V201.326H158.201V196.348H152.582V195.122ZM99.8813 216.84C99.8813 217.44 100.023 218.02 100.307 218.58C100.59 219.14 100.997 219.635 101.528 220.066C102.058 220.497 102.677 220.825 103.384 221.05L102.627 222.199C101.828 221.937 101.13 221.543 100.533 221.017C99.9366 220.486 99.478 219.867 99.1576 219.16C98.8371 219.93 98.3731 220.602 97.7653 221.177C97.1576 221.751 96.4412 222.182 95.6162 222.47L94.8482 221.32C95.5627 221.077 96.1852 220.726 96.7156 220.265C97.2497 219.805 97.6604 219.278 97.9476 218.685C98.2349 218.088 98.3804 217.473 98.3841 216.84V216.453H95.2349V215.254H102.964V216.453H99.8813V216.84ZM96.8206 223.481H106.312V228.326H104.826V224.685H96.8206V223.481ZM104.826 214.326H106.312V222.779H104.826V214.326ZM120.174 224.956H118.682V223.613H115.864V222.564H118.682V214.337H120.174V224.956ZM108.455 220.729C110.304 220.718 111.949 220.687 113.389 220.635C114.833 220.584 116.21 220.475 117.522 220.309L117.621 221.381C116.501 221.565 115.269 221.7 113.925 221.785V224.519H112.444V221.867C111.483 221.904 110.393 221.923 109.174 221.923H108.643L108.455 220.729ZM109.549 217.337C109.549 216.851 109.695 216.422 109.986 216.05C110.28 215.678 110.691 215.389 111.218 215.182C111.748 214.976 112.356 214.873 113.041 214.873C113.715 214.873 114.314 214.976 114.837 215.182C115.363 215.389 115.774 215.678 116.069 216.05C116.363 216.422 116.512 216.851 116.516 217.337C116.512 217.827 116.363 218.258 116.069 218.63C115.778 218.998 115.369 219.282 114.842 219.481C114.319 219.68 113.719 219.779 113.041 219.779C112.352 219.779 111.743 219.68 111.212 219.481C110.686 219.282 110.277 218.998 109.986 218.63C109.695 218.262 109.549 217.831 109.549 217.337ZM110.395 223.917H111.875V226.823H120.505V228.039H110.395V223.917ZM110.958 217.337C110.958 217.61 111.045 217.849 111.218 218.055C111.391 218.258 111.634 218.414 111.947 218.525C112.264 218.635 112.628 218.691 113.041 218.691C113.439 218.691 113.792 218.635 114.102 218.525C114.411 218.414 114.654 218.258 114.831 218.055C115.008 217.849 115.098 217.61 115.102 217.337C115.098 217.064 115.008 216.825 114.831 216.619C114.654 216.413 114.409 216.254 114.096 216.144C113.787 216.033 113.435 215.978 113.041 215.978C112.628 215.978 112.264 216.033 111.947 216.144C111.634 216.254 111.391 216.413 111.218 216.619C111.045 216.825 110.958 217.064 110.958 217.337ZM134.554 219.37C134.466 218.899 134.282 218.492 134.002 218.149C133.726 217.807 133.381 217.547 132.969 217.37C132.56 217.19 132.114 217.099 131.632 217.099C130.976 217.099 130.39 217.265 129.875 217.597C129.363 217.924 128.961 218.409 128.67 219.05C128.379 219.687 128.234 220.451 128.234 221.343C128.234 222.238 128.379 223.006 128.67 223.646C128.961 224.284 129.363 224.766 129.875 225.094C130.39 225.422 130.976 225.586 131.632 225.586C132.111 225.586 132.553 225.499 132.958 225.326C133.366 225.149 133.711 224.893 133.991 224.558C134.271 224.223 134.459 223.821 134.554 223.354H136.289C136.171 224.098 135.899 224.757 135.471 225.331C135.048 225.906 134.503 226.354 133.836 226.674C133.173 226.994 132.433 227.155 131.615 227.155C130.632 227.155 129.755 226.921 128.985 226.453C128.215 225.982 127.613 225.308 127.179 224.431C126.744 223.554 126.527 222.525 126.527 221.343C126.527 220.16 126.744 219.131 127.179 218.254C127.617 217.378 128.221 216.705 128.991 216.238C129.761 215.766 130.635 215.53 131.615 215.53C132.414 215.53 133.146 215.683 133.808 215.989C134.471 216.295 135.018 216.737 135.449 217.315C135.884 217.89 136.164 218.575 136.289 219.37H134.554ZM144.307 218.663C144.27 218.32 144.149 218.026 143.942 217.779C143.74 217.532 143.469 217.344 143.13 217.215C142.795 217.083 142.412 217.017 141.981 217.017C141.528 217.017 141.13 217.088 140.788 217.232C140.445 217.376 140.18 217.575 139.992 217.829C139.808 218.079 139.716 218.365 139.716 218.685C139.712 219.164 139.906 219.534 140.296 219.796C140.69 220.053 141.182 220.254 141.771 220.398L142.871 220.685C143.788 220.91 144.559 221.269 145.186 221.762C145.812 222.252 146.125 222.954 146.125 223.867C146.125 224.512 145.959 225.085 145.628 225.586C145.296 226.087 144.814 226.479 144.18 226.762C143.55 227.046 142.801 227.188 141.931 227.188C141.092 227.188 140.361 227.055 139.738 226.79C139.116 226.521 138.628 226.138 138.274 225.641C137.924 225.14 137.731 224.549 137.694 223.867H139.418C139.451 224.262 139.582 224.595 139.81 224.867C140.038 225.14 140.335 225.344 140.699 225.481C141.068 225.613 141.477 225.68 141.926 225.68C142.405 225.68 142.832 225.604 143.208 225.453C143.587 225.298 143.884 225.083 144.097 224.807C144.314 224.53 144.423 224.212 144.423 223.851C144.423 223.534 144.333 223.269 144.152 223.055C143.972 222.842 143.729 222.667 143.423 222.53C143.117 222.39 142.736 222.26 142.279 222.138L140.948 221.779C139.998 221.521 139.268 221.149 138.76 220.663C138.252 220.173 137.998 219.547 137.998 218.785C137.998 218.144 138.173 217.576 138.523 217.083C138.872 216.589 139.353 216.208 139.965 215.939C140.576 215.667 141.261 215.53 142.02 215.53C142.775 215.53 143.449 215.665 144.042 215.934C144.635 216.203 145.101 216.575 145.44 217.05C145.779 217.525 145.955 218.063 145.97 218.663H144.307Z" fill="white"/>
<ellipse cx="120" cy="340" rx="120" ry="16" fill="url(#paint0_radial_189_7292)" fill-opacity="0.5"/>
<defs>
<radialGradient id="paint0_radial_189_7292" cx="0" cy="0" r="1" gradientUnits="userSpaceOnUse" gradientTransform="translate(120 340) rotate(90) scale(16 120)">
<stop stop-color="#FFA644"/>
<stop offset="0.864583" stop-color="#FFA644" stop-opacity="0"/>
</radialGradient>
<clipPath id="clip0_189_7292">
<rect width="233" height="300" fill="white" transform="translate(3)"/>
</clipPath>
</defs>
</svg>
