<svg width="99" height="99" viewBox="0 0 99 99" fill="none" xmlns="http://www.w3.org/2000/svg">
<g id="Group 1" filter="url(#filter0_ddd_570_14954)">
<path id="Ellipse 17" d="M90.712 47.3773C90.712 71.5875 71.0858 91.2137 46.8755 91.2137C22.6653 91.2137 3.03906 71.5875 3.03906 47.3773C3.03906 23.167 22.6653 3.54077 46.8755 3.54077C71.0858 3.54077 90.712 23.167 90.712 47.3773ZM20.5737 47.3773C20.5737 61.9034 32.3494 73.6791 46.8755 73.6791C61.4017 73.6791 73.1774 61.9034 73.1774 47.3773C73.1774 32.8511 61.4017 21.0754 46.8755 21.0754C32.3494 21.0754 20.5737 32.8511 20.5737 47.3773Z" fill="#FFF7EF"/>
<path id="Ellipse 16" d="M46.8755 3.54077C58.0973 3.54077 68.8917 7.8443 77.0353 15.5649C85.179 23.2855 90.0517 33.8352 90.6497 45.041C91.2478 56.2467 87.5257 67.2551 80.2501 75.7987C72.9744 84.3422 62.6994 89.7703 51.5415 90.9647C40.3835 92.1591 29.1924 89.029 20.2732 82.2191C11.354 75.4091 5.38611 65.438 3.59871 54.3596C1.81131 43.2811 4.34055 31.9391 10.6655 22.6696C16.9904 13.4002 26.6293 6.90934 37.5967 4.53405L41.3082 21.6713C34.7278 23.0965 28.9444 26.991 25.1495 32.5527C21.3545 38.1143 19.837 44.9196 20.9094 51.5666C21.9819 58.2137 25.5626 64.1964 30.9141 68.2823C36.2656 72.3683 42.9803 74.2464 49.6751 73.5297C56.3699 72.8131 62.5349 69.5563 66.9003 64.4301C71.2656 59.304 73.4989 52.6989 73.1401 45.9755C72.7812 39.252 69.8576 32.9222 64.9714 28.2898C60.0852 23.6575 53.6086 21.0754 46.8755 21.0754V3.54077Z" fill="#FFE8CE"/>
<path id="Ellipse 19" d="M46.8755 3.54077C57.5616 3.54077 67.8796 7.4441 75.89 14.517C83.9004 21.5899 89.0514 31.3451 90.3746 41.9489C91.6979 52.5527 89.1023 63.2747 83.0758 72.0993C77.0493 80.9238 68.0069 87.2432 57.6486 89.8693C47.2903 92.4955 36.3294 91.2476 26.8265 86.3602C17.3236 81.4729 9.93316 73.2826 6.04454 63.3292C2.15591 53.3758 2.03691 42.3448 5.70991 32.3098C9.38291 22.2748 16.5949 13.9271 25.9902 8.83586L34.3443 24.2524C28.7072 27.3072 24.38 32.3158 22.1762 38.3368C19.9724 44.3578 20.0438 50.9764 22.3769 56.9484C24.7101 62.9205 29.1444 67.8346 34.8461 70.767C40.5479 73.6995 47.1244 74.4482 53.3394 72.8725C59.5544 71.2968 64.9798 67.5052 68.5957 62.2105C72.2116 56.9157 73.769 50.4825 72.975 44.1203C72.181 37.758 69.0904 31.9048 64.2842 27.6611C59.478 23.4174 53.2872 21.0754 46.8755 21.0754V3.54077Z" fill="#F8F1EC"/>
<path id="Ellipse 15" d="M46.8755 3.54077C57.0173 3.54077 66.8454 7.0573 74.6851 13.4912C82.5248 19.9251 87.8912 28.8783 89.8697 38.8252C91.8483 48.7721 90.3167 59.0974 85.5359 68.0416C80.7551 76.9859 73.0208 83.9958 63.651 87.8769C54.2812 91.758 43.8556 92.2702 34.1505 89.3261C24.4454 86.3821 16.0613 80.1641 10.4268 71.7315C4.79235 63.2989 2.25607 53.1735 3.25015 43.0805C4.24422 32.9875 8.70714 23.5515 15.8785 16.3802L28.2773 28.779C23.9745 33.0818 21.2967 38.7434 20.7003 44.7992C20.1039 50.855 21.6256 56.9302 25.0063 61.9898C28.387 67.0494 33.4174 70.7802 39.2405 72.5466C45.0636 74.313 51.319 74.0057 56.9408 71.677C62.5627 69.3484 67.2032 65.1424 70.0717 59.7759C72.9402 54.4093 73.8592 48.2142 72.6721 42.246C71.4849 36.2779 68.2651 30.906 63.5613 27.0456C58.8575 23.1853 52.9606 21.0754 46.8755 21.0754V3.54077Z" fill="#EBD5C7"/>
<path id="Ellipse 14" d="M46.8755 3.54077C56.0377 3.54077 64.9696 6.41157 72.4161 11.7497C79.8625 17.0879 85.4492 24.6251 88.391 33.3022C91.3328 41.9792 91.4818 51.36 88.8172 60.1261C86.1526 68.8923 80.8082 76.6032 73.5352 82.1753C66.2621 87.7473 57.4259 90.9005 48.2684 91.1916C39.1108 91.4827 30.0922 88.8972 22.4799 83.7983C14.8676 78.6994 9.04432 71.3435 5.8283 62.7643C2.61229 54.1851 2.16524 44.8138 4.54998 35.9674L21.4802 40.5314C20.0494 45.8392 20.3176 51.462 22.2472 56.6095C24.1768 61.757 27.6708 66.1705 32.2382 69.2299C36.8055 72.2892 42.2167 73.8405 47.7112 73.6659C53.2058 73.4912 58.5075 71.5993 62.8713 68.2561C67.2352 64.9128 70.4418 60.2863 72.0405 55.0266C73.6393 49.7669 73.5499 44.1384 71.7848 38.9322C70.0197 33.726 66.6677 29.2037 62.1999 26.0007C57.732 22.7978 52.3728 21.0754 46.8755 21.0754V3.54077Z" fill="#FFE8CE"/>
<path id="Ellipse 13" d="M46.8755 3.54077C54.7056 3.54077 62.3927 5.638 69.1378 9.61445C75.8829 13.5909 81.4399 19.3014 85.231 26.1524C89.0222 33.0034 90.9091 40.7448 90.6957 48.5719C90.4823 56.399 88.1764 64.0261 84.0176 70.6604C79.8588 77.2947 73.9989 82.6939 67.0472 86.2969C60.0954 89.9 52.3054 91.5752 44.4871 91.1486C36.6687 90.722 29.1073 88.209 22.5888 83.871C16.0703 79.5329 10.8328 73.5281 7.42056 66.4807L23.2026 58.8393C25.2499 63.0678 28.3924 66.6706 32.3035 69.2735C36.2146 71.8763 40.7514 73.3841 45.4424 73.6401C50.1335 73.896 54.8074 72.8909 58.9785 70.7291C63.1496 68.5673 66.6655 65.3277 69.1608 61.3471C71.6561 57.3666 73.0396 52.7903 73.1677 48.0941C73.2957 43.3978 72.1635 38.753 69.8888 34.6424C67.6142 30.5318 64.28 27.1054 60.2329 24.7196C56.1858 22.3337 51.5735 21.0754 46.8755 21.0754V3.54077Z" fill="#FFF7EF"/>
<path id="Ellipse 12" d="M46.8755 3.54077C53.5427 3.54077 60.1221 5.06156 66.1129 7.98741C72.1038 10.9133 77.3484 15.1671 81.4476 20.4252C85.5467 25.6833 88.3925 31.8072 89.7684 38.3309C91.1443 44.8545 91.014 51.6061 89.3875 58.0718C87.7609 64.5375 84.6809 70.547 80.3819 75.6431C76.0829 80.7392 70.6782 84.7875 64.5789 87.48C58.4795 90.1725 51.8464 91.4383 45.1842 91.1811C38.522 90.9239 32.0063 89.1504 26.1327 85.9955L34.4298 70.5482C37.954 72.4411 41.8634 73.5052 45.8608 73.6596C49.8581 73.8139 53.8379 73.0544 57.4975 71.4389C61.1571 69.8234 64.4 67.3944 66.9794 64.3368C69.5588 61.2791 71.4068 57.6734 72.3827 53.794C73.3586 49.9146 73.4368 45.8636 72.6113 41.9494C71.7858 38.0352 70.0783 34.3609 67.6188 31.206C65.1592 28.0511 62.0125 25.4989 58.418 23.7433C54.8234 21.9878 50.8758 21.0754 46.8755 21.0754V3.54077Z" fill="#FFC98D"/>
<path id="Ellipse 11" d="M46.8755 3.54077C57.3104 3.54077 67.403 7.26309 75.339 14.0385C83.2749 20.814 88.5337 30.1981 90.1698 40.5039C91.8059 50.8097 89.7122 61.3611 84.2648 70.2613C78.8175 79.1614 70.374 85.8265 60.4522 89.0583L55.0215 72.3859C60.9746 70.4468 66.0407 66.4478 69.3091 61.1077C72.5775 55.7676 73.8338 49.4367 72.8521 43.2532C71.8704 37.0698 68.7152 31.4393 63.9536 27.374C59.192 23.3088 53.1365 21.0754 46.8755 21.0754V3.54077Z" fill="#FFB25C"/>
<path id="Ellipse 18" d="M46.8755 3.54077C54.2503 3.54077 61.5058 5.40131 67.9705 8.95016C74.4351 12.499 79.9 17.6215 83.8592 23.8433C87.8184 30.0651 90.1439 37.1853 90.6204 44.5446C91.0969 51.9039 89.7091 59.2645 86.5854 65.945L70.7015 58.5179C72.5757 54.5096 73.4084 50.0932 73.1225 45.6776C72.8365 41.2621 71.4412 36.99 69.0657 33.2569C66.6902 29.5238 63.4113 26.4503 59.5325 24.321C55.6537 22.1917 51.3004 21.0754 46.8755 21.0754V3.54077Z" fill="#BE7346"/>
</g>
<defs>
<filter id="filter0_ddd_570_14954" x="0.460446" y="0.962155" width="97.9863" height="97.9876" filterUnits="userSpaceOnUse" color-interpolation-filters="sRGB">
<feFlood flood-opacity="0" result="BackgroundImageFix"/>
<feColorMatrix in="SourceAlpha" type="matrix" values="0 0 0 0 0 0 0 0 0 0 0 0 0 0 0 0 0 0 127 0" result="hardAlpha"/>
<feOffset dx="2.57862" dy="2.57862"/>
<feGaussianBlur stdDeviation="2.57862"/>
<feComposite in2="hardAlpha" operator="out"/>
<feColorMatrix type="matrix" values="0 0 0 0 0.545098 0 0 0 0 0.54902 0 0 0 0 0.627451 0 0 0 0.25 0"/>
<feBlend mode="multiply" in2="BackgroundImageFix" result="effect1_dropShadow_570_14954"/>
<feColorMatrix in="SourceAlpha" type="matrix" values="0 0 0 0 0 0 0 0 0 0 0 0 0 0 0 0 0 0 127 0" result="hardAlpha"/>
<feOffset dx="1.03145" dy="1.03145"/>
<feGaussianBlur stdDeviation="1.28931"/>
<feComposite in2="hardAlpha" operator="out"/>
<feColorMatrix type="matrix" values="0 0 0 0 0.545098 0 0 0 0 0.54902 0 0 0 0 0.627451 0 0 0 0.1 0"/>
<feBlend mode="multiply" in2="effect1_dropShadow_570_14954" result="effect2_dropShadow_570_14954"/>
<feColorMatrix in="SourceAlpha" type="matrix" values="0 0 0 0 0 0 0 0 0 0 0 0 0 0 0 0 0 0 127 0" result="hardAlpha"/>
<feOffset dx="-0.515723" dy="-0.515723"/>
<feGaussianBlur stdDeviation="0.515723"/>
<feComposite in2="hardAlpha" operator="out"/>
<feColorMatrix type="matrix" values="0 0 0 0 1 0 0 0 0 1 0 0 0 0 1 0 0 0 0.25 0"/>
<feBlend mode="soft-light" in2="effect2_dropShadow_570_14954" result="effect3_dropShadow_570_14954"/>
<feBlend mode="normal" in="SourceGraphic" in2="effect3_dropShadow_570_14954" result="shape"/>
</filter>
</defs>
</svg>
