<svg width="238" height="160" viewBox="0 0 238 160" fill="none" xmlns="http://www.w3.org/2000/svg">
<g filter="url(#filter0_d_171_4973)">
<rect x="33" y="3.35645" width="198" height="140" rx="12" fill="#F6F6F6"/>
</g>
<g opacity="0.5">
<line x1="41" y1="18.1064" x2="223" y2="18.1064" stroke="#E3E7EB" stroke-width="0.5"/>
<line x1="41" y1="40.1064" x2="223" y2="40.1064" stroke="#E3E7EB" stroke-width="0.5"/>
<line x1="41" y1="62.1064" x2="223" y2="62.1064" stroke="#E3E7EB" stroke-width="0.5"/>
<line x1="41" y1="84.1064" x2="223" y2="84.1064" stroke="#E3E7EB" stroke-width="0.5"/>
<line x1="41" y1="106.106" x2="223" y2="106.106" stroke="#E3E7EB" stroke-width="0.5"/>
<line x1="41" y1="128.106" x2="223" y2="128.106" stroke="#E3E7EB" stroke-width="0.5"/>
</g>
<path d="M2.62366 22.4241C2.29815 22.4241 2.00648 22.3693 1.74866 22.2598C1.49083 22.1502 1.28699 21.9963 1.13712 21.7981C0.988873 21.5999 0.909108 21.3719 0.897828 21.114H1.52145C1.53273 21.2671 1.58751 21.4017 1.68581 21.5177C1.78411 21.6321 1.91383 21.7207 2.07497 21.7836C2.23772 21.8464 2.4174 21.8779 2.61399 21.8779C2.82992 21.8779 3.02329 21.8416 3.1941 21.7691C3.36491 21.695 3.49866 21.5918 3.59534 21.4597C3.69203 21.3276 3.74037 21.1769 3.74037 21.0077C3.74037 20.8272 3.69283 20.6677 3.59776 20.5291C3.5043 20.3905 3.36733 20.2826 3.18685 20.2052C3.00637 20.1279 2.78963 20.0892 2.53664 20.0892H2.1354V19.5477H2.53664C2.73646 19.5477 2.91371 19.5123 3.06841 19.4414C3.22472 19.3705 3.34557 19.2714 3.43098 19.1441C3.51799 19.0152 3.5615 18.8661 3.5615 18.6969C3.5615 18.5342 3.52363 18.3907 3.4479 18.2667C3.37216 18.1426 3.2642 18.0467 3.124 17.979C2.98381 17.9097 2.82025 17.8751 2.63333 17.8751C2.45607 17.8751 2.28929 17.9065 2.13298 17.9694C1.97828 18.0322 1.85259 18.1224 1.75591 18.2401C1.65922 18.3561 1.60685 18.4923 1.59879 18.6486H1.00418C1.01385 18.394 1.09281 18.1676 1.24106 17.9694C1.38931 17.7695 1.58671 17.6148 1.83326 17.5053C2.0798 17.3941 2.34972 17.3385 2.64299 17.3385C2.94755 17.3385 3.21424 17.3989 3.44306 17.5198C3.6735 17.6406 3.84995 17.8026 3.97241 18.0056C4.09649 18.2087 4.15773 18.4294 4.15612 18.6679C4.15773 18.8516 4.12469 19.0192 4.05701 19.1707C3.98933 19.3221 3.89184 19.4503 3.76454 19.555C3.63724 19.6597 3.48738 19.7363 3.31495 19.7846V19.8233C3.52766 19.8555 3.71136 19.9256 3.86606 20.0336C4.02237 20.1399 4.14161 20.2777 4.22379 20.4469C4.30598 20.6145 4.34626 20.803 4.34465 21.0125C4.34626 21.2784 4.27214 21.5193 4.12228 21.7352C3.97402 21.9496 3.76776 22.118 3.50349 22.2404C3.24083 22.3629 2.94755 22.4241 2.62366 22.4241ZM6.85212 22.4241C6.48794 22.4241 6.17613 22.325 5.91669 22.1268C5.65886 21.927 5.46146 21.6369 5.32449 21.2567C5.18913 20.8764 5.12146 20.4179 5.12146 19.8813C5.12146 19.3495 5.18994 18.8935 5.32691 18.5132C5.46388 18.1313 5.66209 17.8404 5.92152 17.6406C6.18096 17.4392 6.49116 17.3385 6.85212 17.3385C7.21308 17.3385 7.52327 17.4392 7.78271 17.6406C8.04215 17.8404 8.24036 18.1313 8.37733 18.5132C8.5143 18.8935 8.58278 19.3495 8.58278 19.8813C8.58278 20.4179 8.5143 20.8764 8.37733 21.2567C8.24197 21.6369 8.04457 21.927 7.78513 22.1268C7.5273 22.325 7.2163 22.4241 6.85212 22.4241ZM5.7209 19.8813C5.7209 20.3051 5.76522 20.6669 5.85384 20.9666C5.94247 21.2647 6.07139 21.4911 6.24059 21.6458C6.40978 21.8005 6.61363 21.8779 6.85212 21.8779C7.09061 21.8779 7.29445 21.8005 7.46365 21.6458C7.63285 21.4911 7.76176 21.2647 7.85039 20.9666C7.93902 20.6669 7.98333 20.3051 7.98333 19.8813C7.98333 19.4575 7.93821 19.0957 7.84797 18.796C7.75935 18.4947 7.63043 18.2659 7.46123 18.1096C7.29204 17.9532 7.089 17.8751 6.85212 17.8751C6.61524 17.8751 6.4122 17.9532 6.243 18.1096C6.0738 18.2659 5.94408 18.4947 5.85384 18.796C5.76522 19.0957 5.7209 19.4575 5.7209 19.8813ZM14.0116 20.1859H11.2029V17.3868H14.0116V20.1859ZM13.4895 19.7508V17.8267H11.725V19.7508H13.4895ZM11.8894 20.8675H12.4211V22.3323H15.9743V22.777H11.8894V20.8675ZM15.1573 16.8309H15.6939V18.6824H16.6076V19.1368H15.6939V21.2881H15.1573V16.8309ZM23.7568 21.4573H23.2154V20.824H21.9633V20.4324H23.2154V16.8406H23.7568V21.4573ZM18.7147 19.6541C19.5171 19.6509 20.2334 19.6388 20.8635 19.6178C21.4952 19.5953 22.097 19.5477 22.6691 19.4752L22.7078 19.8668C22.2034 19.9474 21.6458 20.0062 21.0351 20.0433V21.2446H20.4985V20.0698C20.0844 20.086 19.6122 20.094 19.0821 20.094H18.7872L18.7147 19.6541ZM19.2029 18.1458C19.2029 17.9363 19.2658 17.7518 19.3915 17.5923C19.5171 17.4311 19.6944 17.3071 19.9232 17.2201C20.152 17.1314 20.4147 17.0871 20.7112 17.0871C21.0045 17.0871 21.2647 17.1314 21.4919 17.2201C21.7191 17.3071 21.8956 17.4311 22.0213 17.5923C22.1486 17.7518 22.213 17.9363 22.2147 18.1458C22.213 18.3585 22.1486 18.5446 22.0213 18.7042C21.8956 18.8621 21.7191 18.9846 21.4919 19.0716C21.2663 19.157 21.0061 19.1997 20.7112 19.1997C20.4131 19.1997 20.1496 19.157 19.9208 19.0716C19.6936 18.9862 19.5171 18.8637 19.3915 18.7042C19.2658 18.5446 19.2029 18.3585 19.2029 18.1458ZM19.5897 21.0029H20.1263V22.3323H23.9066V22.777H19.5897V21.0029ZM19.7154 18.1458C19.7137 18.2763 19.754 18.3907 19.8362 18.489C19.92 18.5873 20.0376 18.6639 20.1891 18.7187C20.3406 18.7718 20.5146 18.7984 20.7112 18.7984C20.9014 18.7984 21.0714 18.7718 21.2212 18.7187C21.3711 18.6639 21.4879 18.5873 21.5717 18.489C21.6571 18.3907 21.7006 18.2763 21.7022 18.1458C21.7006 18.0169 21.6571 17.9033 21.5717 17.805C21.4879 17.7051 21.3711 17.6277 21.2212 17.573C21.0714 17.5182 20.9014 17.4916 20.7112 17.4932C20.5146 17.4916 20.3406 17.5182 20.1891 17.573C20.0376 17.6277 19.92 17.7051 19.8362 17.805C19.754 17.9033 19.7137 18.0169 19.7154 18.1458Z" fill="#09101D"/>
<path d="M1.51004 39.9069L3.19719 38.1279C3.41957 37.891 3.58876 37.7008 3.70479 37.5574C3.82242 37.4124 3.91185 37.273 3.97309 37.1392C4.03432 37.0039 4.06574 36.8629 4.06736 36.7163C4.06574 36.5487 4.02143 36.4012 3.93441 36.2739C3.84901 36.1466 3.73138 36.0483 3.58151 35.979C3.43326 35.9097 3.26648 35.8751 3.08117 35.8751C2.8878 35.8751 2.71779 35.9138 2.57115 35.9911C2.42613 36.0685 2.31413 36.1772 2.23517 36.3174C2.15783 36.4576 2.11915 36.6196 2.11915 36.8033H1.53421C1.5326 36.5164 1.59947 36.2626 1.73483 36.0419C1.8718 35.8195 2.05953 35.6471 2.29802 35.5246C2.53651 35.4005 2.804 35.3385 3.10051 35.3385C3.39378 35.3385 3.65725 35.3997 3.89091 35.5222C4.12617 35.643 4.30987 35.8082 4.44201 36.0177C4.57415 36.2272 4.64102 36.46 4.64263 36.7163C4.64102 36.9048 4.60557 37.0853 4.53628 37.2577C4.4686 37.4285 4.35338 37.6186 4.19063 37.8281C4.02949 38.0376 3.79986 38.2954 3.50175 38.6016L2.37053 39.7715V39.8102H4.72965V40.3564H1.51487L1.51004 39.9069ZM7.23791 40.4241C6.94302 40.4241 6.67552 40.3677 6.43542 40.2549C6.19532 40.1421 6.00356 39.9866 5.86015 39.7884C5.71834 39.5886 5.64099 39.3638 5.6281 39.114H6.22755C6.24205 39.2591 6.29523 39.3904 6.38708 39.508C6.48054 39.6241 6.6014 39.7159 6.74965 39.7836C6.89951 39.8497 7.06226 39.8827 7.23791 39.8827C7.449 39.8827 7.63835 39.8352 7.80593 39.7401C7.97513 39.645 8.10727 39.5145 8.20234 39.3485C8.29742 39.1825 8.34495 38.9964 8.34495 38.7901C8.34495 38.5791 8.295 38.3889 8.19509 38.2197C8.09679 38.0489 7.95982 37.9151 7.78418 37.8185C7.61015 37.7202 7.41355 37.6702 7.1944 37.6686C6.75287 37.6638 6.44509 37.812 6.27106 38.1134H5.67644L6.02451 35.4062H8.70752V35.9524H6.53694L6.35324 37.4027H6.40642C6.51761 37.3157 6.65216 37.2464 6.81008 37.1948C6.96961 37.1433 7.13478 37.1175 7.30559 37.1175C7.61659 37.1175 7.89617 37.1892 8.14433 37.3326C8.3941 37.4744 8.58989 37.6718 8.73169 37.9248C8.8735 38.1762 8.9444 38.4598 8.9444 38.7756C8.9444 39.0899 8.87108 39.3727 8.72444 39.6241C8.5778 39.8738 8.37476 40.0696 8.11533 40.2114C7.85589 40.3532 7.56342 40.4241 7.23791 40.4241ZM14.4091 38.1859H11.6004V35.3868H14.4091V38.1859ZM13.887 37.7508V35.8267H12.1225V37.7508H13.887ZM12.2868 38.8675H12.8186V40.3323H16.3718V40.777H12.2868V38.8675ZM15.5548 34.8309H16.0914V36.6824H17.0051V37.1368H16.0914V39.2881H15.5548V34.8309ZM24.1542 39.4573H23.6128V38.824H22.3607V38.4324H23.6128V34.8406H24.1542V39.4573ZM19.1121 37.6541C19.9146 37.6509 20.6309 37.6388 21.2609 37.6178C21.8926 37.5953 22.4945 37.5477 23.0665 37.4752L23.1052 37.8668C22.6008 37.9474 22.0433 38.0062 21.4326 38.0433V39.2446H20.896V38.0698C20.4818 38.086 20.0097 38.094 19.4795 38.094H19.1846L19.1121 37.6541ZM19.6004 36.1458C19.6004 35.9363 19.6632 35.7518 19.7889 35.5923C19.9146 35.4311 20.0919 35.3071 20.3207 35.2201C20.5495 35.1314 20.8122 35.0871 21.1087 35.0871C21.4019 35.0871 21.6622 35.1314 21.8894 35.2201C22.1166 35.3071 22.2931 35.4311 22.4188 35.5923C22.5461 35.7518 22.6105 35.9363 22.6121 36.1458C22.6105 36.3585 22.5461 36.5446 22.4188 36.7042C22.2931 36.8621 22.1166 36.9846 21.8894 37.0716C21.6638 37.157 21.4036 37.1997 21.1087 37.1997C20.8106 37.1997 20.5471 37.157 20.3183 37.0716C20.0911 36.9862 19.9146 36.8637 19.7889 36.7042C19.6632 36.5446 19.6004 36.3585 19.6004 36.1458ZM19.9871 39.0029H20.5237V40.3323H24.3041V40.777H19.9871V39.0029ZM20.1128 36.1458C20.1112 36.2763 20.1515 36.3907 20.2337 36.489C20.3175 36.5873 20.4351 36.6639 20.5866 36.7187C20.738 36.7718 20.9121 36.7984 21.1087 36.7984C21.2988 36.7984 21.4688 36.7718 21.6187 36.7187C21.7685 36.6639 21.8854 36.5873 21.9692 36.489C22.0546 36.3907 22.0981 36.2763 22.0997 36.1458C22.0981 36.0169 22.0546 35.9033 21.9692 35.805C21.8854 35.7051 21.7685 35.6277 21.6187 35.573C21.4688 35.5182 21.2988 35.4916 21.1087 35.4932C20.9121 35.4916 20.738 35.5182 20.5866 35.573C20.4351 35.6277 20.3175 35.7051 20.2337 35.805C20.1515 35.9033 20.1112 36.0169 20.1128 36.1458Z" fill="#09101D"/>
<path d="M1.51345 57.9069L3.20061 56.1279C3.42298 55.891 3.59218 55.7008 3.7082 55.5574C3.82584 55.4124 3.91527 55.273 3.97651 55.1392C4.03774 55.0039 4.06916 54.8629 4.07077 54.7163C4.06916 54.5487 4.02485 54.4012 3.93783 54.2739C3.85243 54.1466 3.73479 54.0483 3.58493 53.979C3.43668 53.9097 3.2699 53.8751 3.08459 53.8751C2.89122 53.8751 2.72121 53.9138 2.57457 53.9911C2.42954 54.0685 2.31755 54.1772 2.23859 54.3174C2.16124 54.4576 2.12257 54.6196 2.12257 54.8033H1.53762C1.53601 54.5164 1.60289 54.2626 1.73825 54.0419C1.87522 53.8195 2.06295 53.6471 2.30144 53.5246C2.53993 53.4005 2.80742 53.3385 3.10392 53.3385C3.3972 53.3385 3.66067 53.3997 3.89432 53.5222C4.12959 53.643 4.31329 53.8082 4.44543 54.0177C4.57756 54.2272 4.64444 54.46 4.64605 54.7163C4.64444 54.9048 4.60899 55.0853 4.5397 55.2577C4.47202 55.4285 4.3568 55.6186 4.19405 55.8281C4.03291 56.0376 3.80328 56.2954 3.50517 56.6016L2.37395 57.7715V57.8102H4.73307V58.3564H1.51829L1.51345 57.9069ZM7.24616 58.4241C6.88198 58.4241 6.57017 58.325 6.31073 58.1268C6.05291 57.927 5.85551 57.6369 5.71854 57.2567C5.58318 56.8764 5.5155 56.4179 5.5155 55.8813C5.5155 55.3495 5.58398 54.8935 5.72095 54.5132C5.85792 54.1313 6.05613 53.8404 6.31557 53.6406C6.57501 53.4392 6.8852 53.3385 7.24616 53.3385C7.60712 53.3385 7.91732 53.4392 8.17676 53.6406C8.43619 53.8404 8.6344 54.1313 8.77137 54.5132C8.90834 54.8935 8.97682 55.3495 8.97682 55.8813C8.97682 56.4179 8.90834 56.8764 8.77137 57.2567C8.63601 57.6369 8.43861 57.927 8.17917 58.1268C7.92135 58.325 7.61034 58.4241 7.24616 58.4241ZM6.11495 55.8813C6.11495 56.3051 6.15926 56.6669 6.24789 56.9666C6.33652 57.2647 6.46543 57.4911 6.63463 57.6458C6.80383 57.8005 7.00767 57.8779 7.24616 57.8779C7.48465 57.8779 7.6885 57.8005 7.85769 57.6458C8.02689 57.4911 8.15581 57.2647 8.24443 56.9666C8.33306 56.6669 8.37738 56.3051 8.37738 55.8813C8.37738 55.4575 8.33226 55.0957 8.24202 54.796C8.15339 54.4947 8.02448 54.2659 7.85528 54.1096C7.68608 53.9532 7.48304 53.8751 7.24616 53.8751C7.00928 53.8751 6.80624 53.9532 6.63705 54.1096C6.46785 54.2659 6.33813 54.4947 6.24789 54.796C6.15926 55.0957 6.11495 55.4575 6.11495 55.8813ZM14.4057 56.1859H11.597V53.3868H14.4057V56.1859ZM13.8836 55.7508V53.8267H12.1191V55.7508H13.8836ZM12.2834 56.8675H12.8152V58.3323H16.3684V58.777H12.2834V56.8675ZM15.5514 52.8309H16.088V54.6824H17.0016V55.1368H16.088V57.2881H15.5514V52.8309ZM24.1508 57.4573H23.6094V56.824H22.3573V56.4324H23.6094V52.8406H24.1508V57.4573ZM19.1087 55.6541C19.9112 55.6509 20.6275 55.6388 21.2575 55.6178C21.8892 55.5953 22.4911 55.5477 23.0631 55.4752L23.1018 55.8668C22.5974 55.9474 22.0399 56.0062 21.4291 56.0433V57.2446H20.8925V56.0698C20.4784 56.086 20.0063 56.094 19.4761 56.094H19.1812L19.1087 55.6541ZM19.597 54.1458C19.597 53.9363 19.6598 53.7518 19.7855 53.5923C19.9112 53.4311 20.0884 53.3071 20.3173 53.2201C20.5461 53.1314 20.8087 53.0871 21.1053 53.0871C21.3985 53.0871 21.6588 53.1314 21.886 53.2201C22.1132 53.3071 22.2896 53.4311 22.4153 53.5923C22.5426 53.7518 22.6071 53.9363 22.6087 54.1458C22.6071 54.3585 22.5426 54.5446 22.4153 54.7042C22.2896 54.8621 22.1132 54.9846 21.886 55.0716C21.6604 55.157 21.4001 55.1997 21.1053 55.1997C20.8071 55.1997 20.5437 55.157 20.3148 55.0716C20.0876 54.9862 19.9112 54.8637 19.7855 54.7042C19.6598 54.5446 19.597 54.3585 19.597 54.1458ZM19.9837 57.0029H20.5203V58.3323H24.3007V58.777H19.9837V57.0029ZM20.1094 54.1458C20.1078 54.2763 20.1481 54.3907 20.2303 54.489C20.314 54.5873 20.4317 54.6639 20.5832 54.7187C20.7346 54.7718 20.9087 54.7984 21.1053 54.7984C21.2954 54.7984 21.4654 54.7718 21.6153 54.7187C21.7651 54.6639 21.882 54.5873 21.9657 54.489C22.0512 54.3907 22.0947 54.2763 22.0963 54.1458C22.0947 54.0169 22.0512 53.9033 21.9657 53.805C21.882 53.7051 21.7651 53.6277 21.6153 53.573C21.4654 53.5182 21.2954 53.4916 21.1053 53.4932C20.9087 53.4916 20.7346 53.5182 20.5832 53.573C20.4317 53.6277 20.314 53.7051 20.2303 53.805C20.1481 53.9033 20.1078 54.0169 20.1094 54.1458Z" fill="#09101D"/>
<path d="M4.2844 76.3564H3.66562V72.0491H3.63661L2.43288 72.8468V72.228L3.66562 71.4062H4.2844V76.3564ZM7.21838 76.4241C6.92349 76.4241 6.65599 76.3677 6.41589 76.2549C6.17579 76.1421 5.98403 75.9866 5.84062 75.7884C5.69881 75.5886 5.62146 75.3638 5.60857 75.114H6.20802C6.22252 75.2591 6.2757 75.3904 6.36755 75.508C6.46101 75.6241 6.58187 75.7159 6.73012 75.7836C6.87998 75.8497 7.04273 75.8827 7.21838 75.8827C7.42947 75.8827 7.61882 75.8352 7.7864 75.7401C7.9556 75.645 8.08774 75.5145 8.18281 75.3485C8.27789 75.1825 8.32542 74.9964 8.32542 74.7901C8.32542 74.5791 8.27547 74.3889 8.17556 74.2197C8.07726 74.0489 7.94029 73.9151 7.76465 73.8185C7.59062 73.7202 7.39402 73.6702 7.17487 73.6686C6.73334 73.6638 6.42556 73.812 6.25153 74.1134H5.65691L6.00498 71.4062H8.68799V71.9524H6.51741L6.33371 73.4027H6.38689C6.49807 73.3157 6.63263 73.2464 6.79055 73.1948C6.95008 73.1433 7.11525 73.1175 7.28606 73.1175C7.59706 73.1175 7.87664 73.1892 8.1248 73.3326C8.37457 73.4744 8.57036 73.6718 8.71216 73.9248C8.85397 74.1762 8.92487 74.4598 8.92487 74.7756C8.92487 75.0899 8.85155 75.3727 8.70491 75.6241C8.55827 75.8738 8.35523 76.0696 8.0958 76.2114C7.83636 76.3532 7.54388 76.4241 7.21838 76.4241ZM14.3895 74.1859H11.5808V71.3868H14.3895V74.1859ZM13.8674 73.7508V71.8267H12.1029V73.7508H13.8674ZM12.2673 74.8675H12.7991V76.3323H16.3522V76.777H12.2673V74.8675ZM15.5353 70.8309H16.0719V72.6824H16.9855V73.1368H16.0719V75.2881H15.5353V70.8309ZM24.1347 75.4573H23.5933V74.824H22.3412V74.4324H23.5933V70.8406H24.1347V75.4573ZM19.0926 73.6541C19.8951 73.6509 20.6114 73.6388 21.2414 73.6178C21.8731 73.5953 22.475 73.5477 23.047 73.4752L23.0857 73.8668C22.5813 73.9474 22.0238 74.0062 21.413 74.0433V75.2446H20.8764V74.0698C20.4623 74.086 19.9901 74.094 19.46 74.094H19.1651L19.0926 73.6541ZM19.5808 72.1458C19.5808 71.9363 19.6437 71.7518 19.7694 71.5923C19.8951 71.4311 20.0723 71.3071 20.3012 71.2201C20.53 71.1314 20.7926 71.0871 21.0891 71.0871C21.3824 71.0871 21.6427 71.1314 21.8699 71.2201C22.0971 71.3071 22.2735 71.4311 22.3992 71.5923C22.5265 71.7518 22.591 71.9363 22.5926 72.1458C22.591 72.3585 22.5265 72.5446 22.3992 72.7042C22.2735 72.8621 22.0971 72.9846 21.8699 73.0716C21.6443 73.157 21.384 73.1997 21.0891 73.1997C20.791 73.1997 20.5276 73.157 20.2987 73.0716C20.0715 72.9862 19.8951 72.8637 19.7694 72.7042C19.6437 72.5446 19.5808 72.3585 19.5808 72.1458ZM19.9676 75.0029H20.5042V76.3323H24.2846V76.777H19.9676V75.0029ZM20.0933 72.1458C20.0917 72.2763 20.132 72.3907 20.2141 72.489C20.2979 72.5873 20.4156 72.6639 20.567 72.7187C20.7185 72.7718 20.8925 72.7984 21.0891 72.7984C21.2793 72.7984 21.4493 72.7718 21.5992 72.7187C21.749 72.6639 21.8658 72.5873 21.9496 72.489C22.035 72.3907 22.0785 72.2763 22.0802 72.1458C22.0785 72.0169 22.035 71.9033 21.9496 71.805C21.8658 71.7051 21.749 71.6277 21.5992 71.573C21.4493 71.5182 21.2793 71.4916 21.0891 71.4932C20.8925 71.4916 20.7185 71.5182 20.567 71.573C20.4156 71.6277 20.2979 71.7051 20.2141 71.805C20.132 71.9033 20.0917 72.0169 20.0933 72.1458Z" fill="#09101D"/>
<path d="M4.28782 94.3564H3.66903V90.0491H3.64003L2.4363 90.8468V90.228L3.66903 89.4062H4.28782V94.3564ZM7.22663 94.4241C6.86245 94.4241 6.55064 94.325 6.2912 94.1268C6.03337 93.927 5.83598 93.6369 5.69901 93.2567C5.56365 92.8764 5.49597 92.4179 5.49597 91.8813C5.49597 91.3495 5.56445 90.8935 5.70142 90.5132C5.83839 90.1313 6.0366 89.8404 6.29604 89.6406C6.55547 89.4392 6.86567 89.3385 7.22663 89.3385C7.58759 89.3385 7.89779 89.4392 8.15722 89.6406C8.41666 89.8404 8.61487 90.1313 8.75184 90.5132C8.88881 90.8935 8.95729 91.3495 8.95729 91.8813C8.95729 92.4179 8.88881 92.8764 8.75184 93.2567C8.61648 93.6369 8.41908 93.927 8.15964 94.1268C7.90181 94.325 7.59081 94.4241 7.22663 94.4241ZM6.09541 91.8813C6.09541 92.3051 6.13973 92.6669 6.22836 92.9666C6.31698 93.2647 6.4459 93.4911 6.6151 93.6458C6.7843 93.8005 6.98814 93.8779 7.22663 93.8779C7.46512 93.8779 7.66896 93.8005 7.83816 93.6458C8.00736 93.4911 8.13628 93.2647 8.2249 92.9666C8.31353 92.6669 8.35785 92.3051 8.35785 91.8813C8.35785 91.4575 8.31273 91.0957 8.22249 90.796C8.13386 90.4947 8.00495 90.2659 7.83575 90.1096C7.66655 89.9532 7.46351 89.8751 7.22663 89.8751C6.98975 89.8751 6.78671 89.9532 6.61751 90.1096C6.44832 90.2659 6.3186 90.4947 6.22836 90.796C6.13973 91.0957 6.09541 91.4575 6.09541 91.8813ZM14.3861 92.1859H11.5774V89.3868H14.3861V92.1859ZM13.864 91.7508V89.8267H12.0995V91.7508H13.864ZM12.2639 92.8675H12.7957V94.3323H16.3488V94.777H12.2639V92.8675ZM15.5318 88.8309H16.0684V90.6824H16.9821V91.1368H16.0684V93.2881H15.5318V88.8309ZM24.1313 93.4573H23.5899V92.824H22.3378V92.4324H23.5899V88.8406H24.1313V93.4573ZM19.0892 91.6541C19.8917 91.6509 20.6079 91.6388 21.238 91.6178C21.8697 91.5953 22.4715 91.5477 23.0436 91.4752L23.0823 91.8668C22.5779 91.9474 22.0203 92.0062 21.4096 92.0433V93.2446H20.873V92.0698C20.4589 92.086 19.9867 92.094 19.4566 92.094H19.1617L19.0892 91.6541ZM19.5774 90.1458C19.5774 89.9363 19.6403 89.7518 19.766 89.5923C19.8917 89.4311 20.0689 89.3071 20.2977 89.2201C20.5266 89.1314 20.7892 89.0871 21.0857 89.0871C21.379 89.0871 21.6392 89.1314 21.8665 89.2201C22.0937 89.3071 22.2701 89.4311 22.3958 89.5923C22.5231 89.7518 22.5876 89.9363 22.5892 90.1458C22.5876 90.3585 22.5231 90.5446 22.3958 90.7042C22.2701 90.8621 22.0937 90.9846 21.8665 91.0716C21.6409 91.157 21.3806 91.1997 21.0857 91.1997C20.7876 91.1997 20.5241 91.157 20.2953 91.0716C20.0681 90.9862 19.8917 90.8637 19.766 90.7042C19.6403 90.5446 19.5774 90.3585 19.5774 90.1458ZM19.9642 93.0029H20.5008V94.3323H24.2812V94.777H19.9642V93.0029ZM20.0899 90.1458C20.0883 90.2763 20.1285 90.3907 20.2107 90.489C20.2945 90.5873 20.4121 90.6639 20.5636 90.7187C20.7151 90.7718 20.8891 90.7984 21.0857 90.7984C21.2759 90.7984 21.4459 90.7718 21.5957 90.7187C21.7456 90.6639 21.8624 90.5873 21.9462 90.489C22.0316 90.3907 22.0751 90.2763 22.0767 90.1458C22.0751 90.0169 22.0316 89.9033 21.9462 89.805C21.8624 89.7051 21.7456 89.6277 21.5957 89.573C21.4459 89.5182 21.2759 89.4916 21.0857 89.4932C20.8891 89.4916 20.7151 89.5182 20.5636 89.573C20.4121 89.6277 20.2945 89.7051 20.2107 89.805C20.1285 89.9033 20.0883 90.0169 20.0899 90.1458Z" fill="#09101D"/>
<path d="M7.18371 112.424C6.88882 112.424 6.62132 112.368 6.38122 112.255C6.14112 112.142 5.94936 111.987 5.80595 111.788C5.66414 111.589 5.58679 111.364 5.5739 111.114H6.17335C6.18785 111.259 6.24103 111.39 6.33288 111.508C6.42634 111.624 6.5472 111.716 6.69545 111.784C6.84531 111.85 7.00807 111.883 7.18371 111.883C7.39481 111.883 7.58415 111.835 7.75173 111.74C7.92093 111.645 8.05307 111.514 8.14814 111.349C8.24322 111.183 8.29075 110.996 8.29075 110.79C8.29075 110.579 8.2408 110.389 8.14089 110.22C8.0426 110.049 7.90563 109.915 7.72998 109.818C7.55595 109.72 7.35935 109.67 7.1402 109.669C6.69867 109.664 6.39089 109.812 6.21686 110.113H5.62225L5.97031 107.406H8.65332V107.952H6.48274L6.29904 109.403H6.35222C6.46341 109.316 6.59796 109.246 6.75588 109.195C6.91541 109.143 7.08058 109.117 7.25139 109.117C7.56239 109.117 7.84197 109.189 8.09013 109.333C8.3399 109.474 8.53569 109.672 8.67749 109.925C8.8193 110.176 8.8902 110.46 8.8902 110.776C8.8902 111.09 8.81688 111.373 8.67024 111.624C8.5236 111.874 8.32057 112.07 8.06113 112.211C7.80169 112.353 7.50922 112.424 7.18371 112.424ZM14.3549 110.186H11.5462V107.387H14.3549V110.186ZM13.8328 109.751V107.827H12.0683V109.751H13.8328ZM12.2326 110.867H12.7644V112.332H16.3176V112.777H12.2326V110.867ZM15.5006 106.831H16.0372V108.682H16.9509V109.137H16.0372V111.288H15.5006V106.831ZM24.1 111.457H23.5586V110.824H22.3065V110.432H23.5586V106.841H24.1V111.457ZM19.0579 109.654C19.8604 109.651 20.5767 109.639 21.2067 109.618C21.8384 109.595 22.4403 109.548 23.0123 109.475L23.051 109.867C22.5466 109.947 21.9891 110.006 21.3784 110.043V111.245H20.8418V110.07C20.4276 110.086 19.9555 110.094 19.4253 110.094H19.1304L19.0579 109.654ZM19.5462 108.146C19.5462 107.936 19.609 107.752 19.7347 107.592C19.8604 107.431 20.0377 107.307 20.2665 107.22C20.4953 107.131 20.758 107.087 21.0545 107.087C21.3477 107.087 21.608 107.131 21.8352 107.22C22.0624 107.307 22.2389 107.431 22.3646 107.592C22.4919 107.752 22.5563 107.936 22.5579 108.146C22.5563 108.359 22.4919 108.545 22.3646 108.704C22.2389 108.862 22.0624 108.985 21.8352 109.072C21.6096 109.157 21.3494 109.2 21.0545 109.2C20.7564 109.2 20.4929 109.157 20.2641 109.072C20.0369 108.986 19.8604 108.864 19.7347 108.704C19.609 108.545 19.5462 108.359 19.5462 108.146ZM19.9329 111.003H20.4695V112.332H24.2499V112.777H19.9329V111.003ZM20.0586 108.146C20.057 108.276 20.0973 108.391 20.1795 108.489C20.2633 108.587 20.3809 108.664 20.5324 108.719C20.6838 108.772 20.8579 108.798 21.0545 108.798C21.2446 108.798 21.4146 108.772 21.5645 108.719C21.7143 108.664 21.8312 108.587 21.915 108.489C22.0004 108.391 22.0439 108.276 22.0455 108.146C22.0439 108.017 22.0004 107.903 21.915 107.805C21.8312 107.705 21.7143 107.628 21.5645 107.573C21.4146 107.518 21.2446 107.492 21.0545 107.493C20.8579 107.492 20.6838 107.518 20.5324 107.573C20.3809 107.628 20.2633 107.705 20.1795 107.805C20.0973 107.903 20.057 108.017 20.0586 108.146Z" fill="#09101D"/>
<path d="M7.19196 130.424C6.82778 130.424 6.51597 130.325 6.25653 130.127C5.99871 129.927 5.80131 129.637 5.66434 129.257C5.52898 128.876 5.4613 128.418 5.4613 127.881C5.4613 127.35 5.52978 126.894 5.66675 126.513C5.80373 126.131 6.00193 125.84 6.26137 125.641C6.52081 125.439 6.831 125.338 7.19196 125.338C7.55292 125.338 7.86312 125.439 8.12256 125.641C8.38199 125.84 8.5802 126.131 8.71717 126.513C8.85414 126.894 8.92263 127.35 8.92263 127.881C8.92263 128.418 8.85414 128.876 8.71717 129.257C8.58181 129.637 8.38441 129.927 8.12497 130.127C7.86715 130.325 7.55614 130.424 7.19196 130.424ZM6.06075 127.881C6.06075 128.305 6.10506 128.667 6.19369 128.967C6.28232 129.265 6.41123 129.491 6.58043 129.646C6.74963 129.801 6.95347 129.878 7.19196 129.878C7.43045 129.878 7.6343 129.801 7.8035 129.646C7.97269 129.491 8.10161 129.265 8.19024 128.967C8.27886 128.667 8.32318 128.305 8.32318 127.881C8.32318 127.458 8.27806 127.096 8.18782 126.796C8.09919 126.495 7.97028 126.266 7.80108 126.11C7.63188 125.953 7.42884 125.875 7.19196 125.875C6.95508 125.875 6.75204 125.953 6.58285 126.11C6.41365 126.266 6.28393 126.495 6.19369 126.796C6.10506 127.096 6.06075 127.458 6.06075 127.881ZM14.3515 128.186H11.5428V125.387H14.3515V128.186ZM13.8294 127.751V125.827H12.0649V127.751H13.8294ZM12.2292 128.867H12.761V130.332H16.3142V130.777H12.2292V128.867ZM15.4972 124.831H16.0338V126.682H16.9474V127.137H16.0338V129.288H15.4972V124.831ZM24.0966 129.457H23.5552V128.824H22.3031V128.432H23.5552V124.841H24.0966V129.457ZM19.0545 127.654C19.857 127.651 20.5733 127.639 21.2033 127.618C21.835 127.595 22.4369 127.548 23.0089 127.475L23.0476 127.867C22.5432 127.947 21.9857 128.006 21.3749 128.043V129.245H20.8383V128.07C20.4242 128.086 19.9521 128.094 19.4219 128.094H19.127L19.0545 127.654ZM19.5428 126.146C19.5428 125.936 19.6056 125.752 19.7313 125.592C19.857 125.431 20.0342 125.307 20.2631 125.22C20.4919 125.131 20.7546 125.087 21.0511 125.087C21.3443 125.087 21.6046 125.131 21.8318 125.22C22.059 125.307 22.2354 125.431 22.3611 125.592C22.4884 125.752 22.5529 125.936 22.5545 126.146C22.5529 126.359 22.4884 126.545 22.3611 126.704C22.2354 126.862 22.059 126.985 21.8318 127.072C21.6062 127.157 21.3459 127.2 21.0511 127.2C20.7529 127.2 20.4895 127.157 20.2607 127.072C20.0334 126.986 19.857 126.864 19.7313 126.704C19.6056 126.545 19.5428 126.359 19.5428 126.146ZM19.9295 129.003H20.4661V130.332H24.2465V130.777H19.9295V129.003ZM20.0552 126.146C20.0536 126.276 20.0939 126.391 20.1761 126.489C20.2598 126.587 20.3775 126.664 20.529 126.719C20.6804 126.772 20.8545 126.798 21.0511 126.798C21.2412 126.798 21.4112 126.772 21.5611 126.719C21.7109 126.664 21.8278 126.587 21.9115 126.489C21.997 126.391 22.0405 126.276 22.0421 126.146C22.0405 126.017 21.997 125.903 21.9115 125.805C21.8278 125.705 21.7109 125.628 21.5611 125.573C21.4112 125.518 21.2412 125.492 21.0511 125.493C20.8545 125.492 20.6804 125.518 20.529 125.573C20.3775 125.628 20.2598 125.705 20.1761 125.805C20.0939 125.903 20.0536 126.017 20.0552 126.146Z" fill="#09101D"/>
<path d="M43 88.3418C43 86.6849 44.3431 85.3418 46 85.3418C47.6569 85.3418 49 86.6849 49 88.3418V143.356H43V88.3418Z" fill="#BE7346"/>
<path d="M43.6545 156.356H43.0357V152.049H43.0067L41.803 152.847V152.228L43.0357 151.406H43.6545V156.356ZM49.7646 154.423H49.2232V154.084H47.9953V153.731H49.2232V150.841H49.7646V154.423ZM45.0875 153.132C45.7562 153.132 46.3951 153.122 47.0042 153.101C47.615 153.078 48.1902 153.037 48.7301 152.977L48.7639 153.33C48.2241 153.404 47.6182 153.459 46.9462 153.495V154.442H46.4193V153.514C46.0116 153.527 45.5725 153.533 45.102 153.533H44.7998L44.7321 153.132H45.0875ZM45.2059 151.87C45.2059 151.685 45.2679 151.524 45.392 151.387C45.5161 151.248 45.6917 151.142 45.919 151.068C46.1478 150.994 46.4145 150.957 46.719 150.957C47.0187 150.957 47.2822 150.994 47.5094 151.068C47.7366 151.142 47.9123 151.248 48.0364 151.387C48.162 151.524 48.2257 151.685 48.2273 151.87C48.2257 152.057 48.162 152.219 48.0364 152.356C47.9123 152.493 47.7366 152.598 47.5094 152.67C47.2838 152.743 47.0204 152.779 46.719 152.779C46.4129 152.779 46.1462 152.743 45.919 152.67C45.6917 152.598 45.5161 152.494 45.392 152.359C45.2679 152.222 45.2059 152.059 45.2059 151.87ZM45.6652 154.64H49.7646V155.897H46.2163V156.443H49.9676V156.845H45.6893V155.525H49.2328V155.027H45.6652V154.64ZM45.7135 151.87C45.7119 151.977 45.7522 152.071 45.8344 152.153C45.9165 152.235 46.0334 152.299 46.1848 152.344C46.3379 152.389 46.516 152.412 46.719 152.412C46.9188 152.412 47.0937 152.389 47.2435 152.344C47.395 152.299 47.5118 152.235 47.594 152.153C47.6778 152.071 47.7197 151.977 47.7197 151.87C47.7197 151.764 47.6778 151.67 47.594 151.587C47.5118 151.505 47.395 151.442 47.2435 151.397C47.0937 151.351 46.9188 151.329 46.719 151.329C46.516 151.329 46.3379 151.351 46.1848 151.397C46.0334 151.442 45.9165 151.505 45.8344 151.587C45.7522 151.67 45.7119 151.764 45.7135 151.87Z" fill="#09101D"/>
<path d="M57.5 69.0039C57.5 67.3471 58.8431 66.0039 60.5 66.0039C62.1569 66.0039 63.5 67.3471 63.5 69.0039V143.356H57.5V69.0039Z" fill="#BE7346"/>
<path d="M55.8802 155.907L57.5673 154.128C57.7897 153.891 57.9589 153.701 58.0749 153.557C58.1925 153.412 58.282 153.273 58.3432 153.139C58.4044 153.004 58.4359 152.863 58.4375 152.716C58.4359 152.549 58.3915 152.401 58.3045 152.274C58.2191 152.147 58.1015 152.048 57.9516 151.979C57.8034 151.91 57.6366 151.875 57.4513 151.875C57.2579 151.875 57.0879 151.914 56.9413 151.991C56.7962 152.068 56.6843 152.177 56.6053 152.317C56.5279 152.458 56.4893 152.62 56.4893 152.803H55.9043C55.9027 152.516 55.9696 152.263 56.1049 152.042C56.2419 151.819 56.4296 151.647 56.6681 151.525C56.9066 151.401 57.1741 151.338 57.4706 151.338C57.7639 151.338 58.0274 151.4 58.261 151.522C58.4963 151.643 58.68 151.808 58.8121 152.018C58.9443 152.227 59.0111 152.46 59.0127 152.716C59.0111 152.905 58.9757 153.085 58.9064 153.258C58.8387 153.428 58.7235 153.619 58.5607 153.828C58.3996 154.038 58.17 154.295 57.8719 154.602L56.7406 155.772V155.81H59.0998V156.356H55.885L55.8802 155.907ZM64.7841 154.423H64.2427V154.084H63.0148V153.731H64.2427V150.841H64.7841V154.423ZM60.107 153.132C60.7757 153.132 61.4147 153.122 62.0238 153.101C62.6345 153.078 63.2098 153.037 63.7496 152.977L63.7834 153.33C63.2436 153.404 62.6377 153.459 61.9658 153.495V154.442H61.4388V153.514C61.0311 153.527 60.592 153.533 60.1215 153.533H59.8194L59.7517 153.132H60.107ZM60.2254 151.87C60.2254 151.685 60.2875 151.524 60.4115 151.387C60.5356 151.248 60.7113 151.142 60.9385 151.068C61.1673 150.994 61.434 150.957 61.7386 150.957C62.0383 150.957 62.3017 150.994 62.529 151.068C62.7562 151.142 62.9318 151.248 63.0559 151.387C63.1816 151.524 63.2452 151.685 63.2468 151.87C63.2452 152.057 63.1816 152.219 63.0559 152.356C62.9318 152.493 62.7562 152.598 62.529 152.67C62.3034 152.743 62.0399 152.779 61.7386 152.779C61.4324 152.779 61.1657 152.743 60.9385 152.67C60.7113 152.598 60.5356 152.494 60.4115 152.359C60.2875 152.222 60.2254 152.059 60.2254 151.87ZM60.6847 154.64H64.7841V155.897H61.2358V156.443H64.9872V156.845H60.7089V155.525H64.2524V155.027H60.6847V154.64ZM60.733 151.87C60.7314 151.977 60.7717 152.071 60.8539 152.153C60.9361 152.235 61.0529 152.299 61.2044 152.344C61.3575 152.389 61.5355 152.412 61.7386 152.412C61.9384 152.412 62.1132 152.389 62.2631 152.344C62.4145 152.299 62.5314 152.235 62.6136 152.153C62.6973 152.071 62.7392 151.977 62.7392 151.87C62.7392 151.764 62.6973 151.67 62.6136 151.587C62.5314 151.505 62.4145 151.442 62.2631 151.397C62.1132 151.351 61.9384 151.329 61.7386 151.329C61.5355 151.329 61.3575 151.351 61.2044 151.397C61.0529 151.442 60.9361 151.505 60.8539 151.587C60.7717 151.67 60.7314 151.764 60.733 151.87Z" fill="#09101D"/>
<path d="M72.5 109.567C72.5 107.911 73.8431 106.567 75.5 106.567C77.1569 106.567 78.5 107.911 78.5 109.567V143.357H72.5V109.567Z" fill="#BE7346"/>
<path d="M72.4904 156.424C72.1648 156.424 71.8732 156.369 71.6154 156.26C71.3575 156.15 71.1537 155.996 71.0038 155.798C70.8556 155.6 70.7758 155.372 70.7645 155.114H71.3881C71.3994 155.267 71.4542 155.402 71.5525 155.518C71.6508 155.632 71.7805 155.721 71.9417 155.784C72.1044 155.846 72.2841 155.878 72.4807 155.878C72.6966 155.878 72.89 155.842 73.0608 155.769C73.2316 155.695 73.3654 155.592 73.462 155.46C73.5587 155.328 73.6071 155.177 73.6071 155.008C73.6071 154.827 73.5595 154.668 73.4645 154.529C73.371 154.391 73.234 154.283 73.0535 154.205C72.8731 154.128 72.6563 154.089 72.4033 154.089H72.0021V153.548H72.4033C72.6032 153.548 72.7804 153.512 72.9351 153.441C73.0914 153.37 73.2123 153.271 73.2977 153.144C73.3847 153.015 73.4282 152.866 73.4282 152.697C73.4282 152.534 73.3903 152.391 73.3146 152.267C73.2389 152.143 73.1309 152.047 72.9907 151.979C72.8505 151.91 72.6869 151.875 72.5 151.875C72.3228 151.875 72.156 151.907 71.9997 151.969C71.845 152.032 71.7193 152.122 71.6226 152.24C71.5259 152.356 71.4736 152.492 71.4655 152.649H70.8709C70.8805 152.394 70.9595 152.168 71.1078 151.969C71.256 151.77 71.4534 151.615 71.7 151.505C71.9465 151.394 72.2164 151.338 72.5097 151.338C72.8143 151.338 73.0809 151.399 73.3098 151.52C73.5402 151.641 73.7166 151.803 73.8391 152.006C73.9632 152.209 74.0244 152.429 74.0228 152.668C74.0244 152.852 73.9914 153.019 73.9237 153.171C73.856 153.322 73.7585 153.45 73.6312 153.555C73.5039 153.66 73.3541 153.736 73.1817 153.785V153.823C73.3944 153.856 73.5781 153.926 73.7328 154.034C73.8891 154.14 74.0083 154.278 74.0905 154.447C74.1727 154.615 74.213 154.803 74.2114 155.013C74.213 155.278 74.1388 155.519 73.989 155.735C73.8407 155.95 73.6345 156.118 73.3702 156.24C73.1075 156.363 72.8143 156.424 72.4904 156.424ZM79.8901 154.423H79.3487V154.084H78.1208V153.731H79.3487V150.841H79.8901V154.423ZM75.2129 153.132C75.8817 153.132 76.5206 153.122 77.1297 153.101C77.7405 153.078 78.3157 153.037 78.8556 152.977L78.8894 153.33C78.3496 153.404 77.7437 153.459 77.0717 153.495V154.442H76.5448V153.514C76.1371 153.527 75.698 153.533 75.2275 153.533H74.9253L74.8576 153.132H75.2129ZM75.3314 151.87C75.3314 151.685 75.3934 151.524 75.5175 151.387C75.6416 151.248 75.8172 151.142 76.0444 151.068C76.2733 150.994 76.54 150.957 76.8445 150.957C77.1442 150.957 77.4077 150.994 77.6349 151.068C77.8621 151.142 78.0378 151.248 78.1618 151.387C78.2875 151.524 78.3512 151.685 78.3528 151.87C78.3512 152.057 78.2875 152.219 78.1618 152.356C78.0378 152.493 77.8621 152.598 77.6349 152.67C77.4093 152.743 77.1458 152.779 76.8445 152.779C76.5383 152.779 76.2716 152.743 76.0444 152.67C75.8172 152.598 75.6416 152.494 75.5175 152.359C75.3934 152.222 75.3314 152.059 75.3314 151.87ZM75.7906 154.64H79.8901V155.897H76.3417V156.443H80.0931V156.845H75.8148V155.525H79.3583V155.027H75.7906V154.64ZM75.839 151.87C75.8374 151.977 75.8777 152.071 75.9598 152.153C76.042 152.235 76.1588 152.299 76.3103 152.344C76.4634 152.389 76.6415 152.412 76.8445 152.412C77.0443 152.412 77.2192 152.389 77.369 152.344C77.5205 152.299 77.6373 152.235 77.7195 152.153C77.8033 152.071 77.8452 151.977 77.8452 151.87C77.8452 151.764 77.8033 151.67 77.7195 151.587C77.6373 151.505 77.5205 151.442 77.369 151.397C77.2192 151.351 77.0443 151.329 76.8445 151.329C76.6415 151.329 76.4634 151.351 76.3103 151.397C76.1588 151.442 76.042 151.505 75.9598 151.587C75.8777 151.67 75.8374 151.764 75.839 151.87Z" fill="#09101D"/>
<path d="M87.5 126.547C87.5 124.89 88.8431 123.547 90.5 123.547C92.1569 123.547 93.5 124.89 93.5 126.547V143.357H87.5V126.547Z" fill="#BE7346"/>
<path d="M85.6342 154.838L87.8628 151.406H88.617V154.805H89.3131V155.346H88.617V156.356H88.032V155.346H85.6342V154.838ZM88.032 154.805V152.184H87.974L86.2965 154.766V154.805H88.032ZM94.914 154.423H94.3726V154.084H93.1447V153.731H94.3726V150.841H94.914V154.423ZM90.2369 153.132C90.9056 153.132 91.5445 153.122 92.1537 153.101C92.7644 153.078 93.3397 153.037 93.8795 152.977L93.9133 153.33C93.3735 153.404 92.7676 153.459 92.0956 153.495V154.442H91.5687V153.514C91.161 153.527 90.7219 153.533 90.2514 153.533H89.9492L89.8816 153.132H90.2369ZM90.3553 151.87C90.3553 151.685 90.4174 151.524 90.5414 151.387C90.6655 151.248 90.8412 151.142 91.0684 151.068C91.2972 150.994 91.5639 150.957 91.8684 150.957C92.1682 150.957 92.4316 150.994 92.6588 151.068C92.886 151.142 93.0617 151.248 93.1858 151.387C93.3115 151.524 93.3751 151.685 93.3767 151.87C93.3751 152.057 93.3115 152.219 93.1858 152.356C93.0617 152.493 92.886 152.598 92.6588 152.67C92.4332 152.743 92.1698 152.779 91.8684 152.779C91.5623 152.779 91.2956 152.743 91.0684 152.67C90.8412 152.598 90.6655 152.494 90.5414 152.359C90.4174 152.222 90.3553 152.059 90.3553 151.87ZM90.8146 154.64H94.914V155.897H91.3657V156.443H95.1171V156.845H90.8387V155.525H94.3822V155.027H90.8146V154.64ZM90.8629 151.87C90.8613 151.977 90.9016 152.071 90.9838 152.153C91.0659 152.235 91.1828 152.299 91.3342 152.344C91.4873 152.389 91.6654 152.412 91.8684 152.412C92.0682 152.412 92.2431 152.389 92.393 152.344C92.5444 152.299 92.6613 152.235 92.7434 152.153C92.8272 152.071 92.8691 151.977 92.8691 151.87C92.8691 151.764 92.8272 151.67 92.7434 151.587C92.6613 151.505 92.5444 151.442 92.393 151.397C92.2431 151.351 92.0682 151.329 91.8684 151.329C91.6654 151.329 91.4873 151.351 91.3342 151.397C91.1828 151.442 91.0659 151.505 90.9838 151.587C90.9016 151.67 90.8613 151.764 90.8629 151.87Z" fill="#09101D"/>
<path d="M102.5 89.2852C102.5 87.6283 103.843 86.2852 105.5 86.2852C107.157 86.2852 108.5 87.6283 108.5 89.2852V143.356H102.5V89.2852Z" fill="#BE7346"/>
<path d="M102.465 156.424C101.571 156.424 100.894 155.873 100.856 155.114H101.455C101.499 155.554 101.929 155.883 102.465 155.883C103.108 155.883 103.572 155.414 103.572 154.79C103.572 154.147 103.089 153.673 102.422 153.669C102.006 153.664 101.682 153.794 101.499 154.113H100.904L101.252 151.406H103.935V151.952H101.764L101.581 153.403H101.634C101.851 153.234 102.185 153.117 102.533 153.117C103.476 153.117 104.172 153.814 104.172 154.776C104.172 155.733 103.452 156.424 102.465 156.424ZM109.818 150.841V154.423H109.277V154.084H108.049V153.731H109.277V150.841H109.818ZM104.786 153.132C105.965 153.137 107.469 153.122 108.784 152.977L108.818 153.33C108.223 153.412 107.604 153.463 107 153.495V154.442H106.473V153.514C105.898 153.533 105.347 153.536 104.854 153.533L104.786 153.132ZM105.26 151.87C105.26 151.309 105.854 150.957 106.773 150.957C107.677 150.957 108.276 151.309 108.281 151.87C108.276 152.441 107.677 152.779 106.773 152.779C105.854 152.779 105.26 152.441 105.26 151.87ZM105.719 155.027V154.64H109.818V155.897H106.27V156.443H110.021V156.845H105.743V155.525H109.287V155.027H105.719ZM105.767 151.87C105.762 152.194 106.159 152.412 106.773 152.412C107.377 152.412 107.773 152.194 107.773 151.87C107.773 151.546 107.377 151.329 106.773 151.329C106.159 151.329 105.762 151.546 105.767 151.87Z" fill="#09101D"/>
<path d="M117.5 57.2129C117.5 55.556 118.843 54.2129 120.5 54.2129C122.157 54.2129 123.5 55.556 123.5 57.2129V143.357H117.5V57.2129Z" fill="#BE7346"/>
<path d="M117.514 156.424C116.658 156.414 115.711 155.907 115.711 154.07C115.711 152.32 116.431 151.338 117.591 151.338C118.461 151.338 119.07 151.875 119.196 152.649H118.587C118.476 152.213 118.142 151.885 117.591 151.885C116.779 151.885 116.291 152.581 116.291 153.775H116.353C116.639 153.359 117.093 153.117 117.625 153.117C118.505 153.117 119.24 153.799 119.24 154.756C119.24 155.689 118.558 156.434 117.514 156.424ZM116.378 154.771C116.378 155.351 116.851 155.883 117.514 155.883C118.157 155.883 118.64 155.38 118.645 154.761C118.64 154.157 118.176 153.659 117.533 153.659C116.88 153.659 116.382 154.186 116.378 154.771ZM124.876 150.841V154.423H124.335V154.084H123.107V153.731H124.335V150.841H124.876ZM119.844 153.132C121.024 153.137 122.527 153.122 123.842 152.977L123.876 153.33C123.281 153.412 122.662 153.463 122.058 153.495V154.442H121.531V153.514C120.956 153.533 120.405 153.536 119.912 153.533L119.844 153.132ZM120.318 151.87C120.318 151.309 120.912 150.957 121.831 150.957C122.735 150.957 123.334 151.309 123.339 151.87C123.334 152.441 122.735 152.779 121.831 152.779C120.912 152.779 120.318 152.441 120.318 151.87ZM120.777 155.027V154.64H124.876V155.897H121.328V156.443H125.079V156.845H120.801V155.525H124.345V155.027H120.777ZM120.825 151.87C120.82 152.194 121.217 152.412 121.831 152.412C122.435 152.412 122.832 152.194 122.832 151.87C122.832 151.546 122.435 151.329 121.831 151.329C121.217 151.329 120.82 151.546 120.825 151.87Z" fill="#09101D"/>
<path d="M132 116.17C132 114.513 133.343 113.17 135 113.17C136.657 113.17 138 114.513 138 116.17V143.356H132V116.17Z" fill="#BE7346"/>
<path d="M130.663 156.356L132.935 151.991V151.952H130.319V151.406H133.573V151.981L131.311 156.356H130.663ZM139.161 150.841V154.423H138.62V154.084H137.392V153.731H138.62V150.841H139.161ZM134.129 153.132C135.308 153.137 136.812 153.122 138.127 152.977L138.16 153.33C137.566 153.412 136.947 153.463 136.343 153.495V154.442H135.816V153.514C135.241 153.533 134.689 153.536 134.196 153.533L134.129 153.132ZM134.602 151.87C134.602 151.309 135.197 150.957 136.116 150.957C137.02 150.957 137.619 151.309 137.624 151.87C137.619 152.441 137.02 152.779 136.116 152.779C135.197 152.779 134.602 152.441 134.602 151.87ZM135.062 155.027V154.64H139.161V155.897H135.613V156.443H139.364V156.845H135.086V155.525H138.629V155.027H135.062ZM135.11 151.87C135.105 152.194 135.502 152.412 136.116 152.412C136.72 152.412 137.116 152.194 137.116 151.87C137.116 151.546 136.72 151.329 136.116 151.329C135.502 151.329 135.105 151.546 135.11 151.87Z" fill="#09101D"/>
<path d="M146.5 101.077C146.5 99.4203 147.843 98.0771 149.5 98.0771C151.157 98.0771 152.5 99.4203 152.5 101.077V143.357H146.5V101.077Z" fill="#BE7346"/>
<path d="M146.475 156.424C145.431 156.424 144.71 155.849 144.715 155.042C144.71 154.403 145.155 153.876 145.721 153.785V153.76C145.228 153.644 144.904 153.19 144.904 152.653C144.904 151.894 145.566 151.338 146.475 151.338C147.374 151.338 148.036 151.894 148.041 152.653C148.036 153.19 147.708 153.644 147.224 153.76V153.785C147.785 153.876 148.23 154.403 148.234 155.042C148.23 155.849 147.504 156.424 146.475 156.424ZM145.329 155.008C145.319 155.53 145.759 155.883 146.475 155.883C147.181 155.883 147.62 155.53 147.62 155.008C147.62 154.461 147.137 154.06 146.475 154.06C145.808 154.06 145.319 154.461 145.329 155.008ZM145.503 152.697C145.503 153.2 145.904 153.538 146.475 153.538C147.036 153.538 147.442 153.2 147.442 152.697C147.442 152.204 147.05 151.87 146.475 151.87C145.885 151.87 145.503 152.204 145.503 152.697ZM153.852 150.841V154.423H153.311V154.084H152.083V153.731H153.311V150.841H153.852ZM148.82 153.132C150 153.137 151.503 153.122 152.818 152.977L152.852 153.33C152.257 153.412 151.638 153.463 151.034 153.495V154.442H150.507V153.514C149.932 153.533 149.381 153.536 148.888 153.533L148.82 153.132ZM149.294 151.87C149.294 151.309 149.888 150.957 150.807 150.957C151.711 150.957 152.31 151.309 152.315 151.87C152.31 152.441 151.711 152.779 150.807 152.779C149.888 152.779 149.294 152.441 149.294 151.87ZM149.753 155.027V154.64H153.852V155.897H150.304V156.443H154.056V156.845H149.777V155.525H153.321V155.027H149.753ZM149.801 151.87C149.797 152.194 150.193 152.412 150.807 152.412C151.411 152.412 151.808 152.194 151.808 151.87C151.808 151.546 151.411 151.329 150.807 151.329C150.193 151.329 149.797 151.546 149.801 151.87Z" fill="#09101D"/>
<path d="M161.5 98.2471C161.5 96.5902 162.843 95.2471 164.5 95.2471C166.157 95.2471 167.5 96.5902 167.5 98.2471V143.356H161.5V98.2471Z" fill="#BE7346"/>
<path d="M161.422 151.338C161.739 151.338 162.034 151.411 162.307 151.556C162.579 151.701 162.802 151.948 162.976 152.298C163.152 152.646 163.24 153.108 163.24 153.683C163.24 154.263 163.164 154.759 163.012 155.17C162.861 155.579 162.644 155.891 162.362 156.105C162.08 156.318 161.746 156.424 161.359 156.424C161.074 156.424 160.817 156.369 160.588 156.26C160.359 156.15 160.172 155.996 160.027 155.798C159.884 155.598 159.791 155.367 159.749 155.104H160.358C160.416 155.338 160.531 155.526 160.702 155.668C160.874 155.808 161.093 155.878 161.359 155.878C161.626 155.878 161.858 155.803 162.053 155.653C162.249 155.503 162.4 155.286 162.505 155.003C162.609 154.718 162.663 154.376 162.664 153.978H162.597C162.453 154.186 162.271 154.348 162.05 154.464C161.831 154.578 161.591 154.635 161.33 154.635C161.037 154.635 160.766 154.565 160.518 154.425C160.271 154.283 160.075 154.088 159.928 153.838C159.783 153.588 159.711 153.308 159.711 152.997C159.711 152.692 159.781 152.413 159.921 152.16C160.063 151.907 160.263 151.708 160.523 151.561C160.784 151.413 161.083 151.338 161.422 151.338ZM160.31 152.992C160.31 153.195 160.358 153.381 160.453 153.55C160.549 153.718 160.682 153.851 160.851 153.949C161.021 154.046 161.211 154.094 161.422 154.094C161.631 154.094 161.823 154.042 161.997 153.939C162.173 153.835 162.311 153.697 162.413 153.526C162.516 153.355 162.568 153.174 162.568 152.982C162.568 152.792 162.518 152.612 162.42 152.443C162.322 152.274 162.186 152.138 162.014 152.035C161.843 151.931 161.652 151.88 161.441 151.88C161.23 151.88 161.038 151.93 160.863 152.03C160.691 152.13 160.555 152.265 160.455 152.436C160.357 152.605 160.308 152.79 160.31 152.992ZM168.876 154.423H168.335V154.084H167.107V153.731H168.335V150.841H168.876V154.423ZM164.199 153.132C164.868 153.132 165.507 153.122 166.116 153.101C166.727 153.078 167.302 153.037 167.842 152.977L167.876 153.33C167.336 153.404 166.73 153.459 166.058 153.495V154.442H165.531V153.514C165.123 153.527 164.684 153.533 164.214 153.533H163.912L163.844 153.132H164.199ZM164.318 151.87C164.318 151.685 164.38 151.524 164.504 151.387C164.628 151.248 164.804 151.142 165.031 151.068C165.26 150.994 165.526 150.957 165.831 150.957C166.131 150.957 166.394 150.994 166.621 151.068C166.848 151.142 167.024 151.248 167.148 151.387C167.274 151.524 167.338 151.685 167.339 151.87C167.338 152.057 167.274 152.219 167.148 152.356C167.024 152.493 166.848 152.598 166.621 152.67C166.396 152.743 166.132 152.779 165.831 152.779C165.525 152.779 165.258 152.743 165.031 152.67C164.804 152.598 164.628 152.494 164.504 152.359C164.38 152.222 164.318 152.059 164.318 151.87ZM164.777 154.64H168.876V155.897H165.328V156.443H169.079V156.845H164.801V155.525H168.345V155.027H164.777V154.64ZM164.825 151.87C164.824 151.977 164.864 152.071 164.946 152.153C165.028 152.235 165.145 152.299 165.297 152.344C165.45 152.389 165.628 152.412 165.831 152.412C166.031 152.412 166.205 152.389 166.355 152.344C166.507 152.299 166.624 152.235 166.706 152.153C166.79 152.071 166.832 151.977 166.832 151.87C166.832 151.764 166.79 151.67 166.706 151.587C166.624 151.505 166.507 151.442 166.355 151.397C166.205 151.351 166.031 151.329 165.831 151.329C165.628 151.329 165.45 151.351 165.297 151.397C165.145 151.442 165.028 151.505 164.946 151.587C164.864 151.67 164.824 151.764 164.825 151.87Z" fill="#09101D"/>
<path d="M178 112.868C178 111.211 179.343 109.868 181 109.868C182.657 109.868 184 111.211 184 112.868V143.356H178V112.868Z" fill="#BE7346"/>
<path d="M176.57 151.406V156.356H175.951V152.049H175.922L174.718 152.847V152.228L175.951 151.406H176.57ZM179.508 156.424C178.411 156.424 177.778 155.501 177.778 153.881C177.778 152.276 178.421 151.338 179.508 151.338C180.596 151.338 181.239 152.276 181.239 153.881C181.239 155.501 180.606 156.424 179.508 156.424ZM178.377 153.881C178.377 155.162 178.793 155.878 179.508 155.878C180.224 155.878 180.64 155.162 180.64 153.881C180.64 152.6 180.219 151.875 179.508 151.875C178.798 151.875 178.377 152.6 178.377 153.881ZM186.85 150.841V154.423H186.308V154.084H185.08V153.731H186.308V150.841H186.85ZM181.817 153.132C182.997 153.137 184.5 153.122 185.815 152.977L185.849 153.33C185.254 153.412 184.635 153.463 184.031 153.495V154.442H183.504V153.514C182.929 153.533 182.378 153.536 181.885 153.533L181.817 153.132ZM182.291 151.87C182.291 151.309 182.885 150.957 183.804 150.957C184.708 150.957 185.307 151.309 185.312 151.87C185.307 152.441 184.708 152.779 183.804 152.779C182.885 152.779 182.291 152.441 182.291 151.87ZM182.75 155.027V154.64H186.85V155.897H183.301V156.443H187.053V156.845H182.774V155.525H186.318V155.027H182.75ZM182.798 151.87C182.794 152.194 183.19 152.412 183.804 152.412C184.408 152.412 184.805 152.194 184.805 151.87C184.805 151.546 184.408 151.329 183.804 151.329C183.19 151.329 182.794 151.546 182.798 151.87Z" fill="#09101D"/>
<path d="M195.5 89.7568C195.5 88.1 196.843 86.7568 198.5 86.7568C200.157 86.7568 201.5 88.1 201.5 89.7568V143.356H195.5V89.7568Z" fill="#BE7346"/>
<path d="M194.62 156.356H194.001V152.049H193.972L192.768 152.847V152.228L194.001 151.406H194.62V156.356ZM197.689 156.356H197.07V152.049H197.041L195.838 152.847V152.228L197.07 151.406H197.689V156.356ZM203.799 154.423H203.258V154.084H202.03V153.731H203.258V150.841H203.799V154.423ZM199.122 153.132C199.791 153.132 200.43 153.122 201.039 153.101C201.65 153.078 202.225 153.037 202.765 152.977L202.799 153.33C202.259 153.404 201.653 153.459 200.981 153.495V154.442H200.454V153.514C200.046 153.527 199.607 153.533 199.137 153.533H198.834L198.767 153.132H199.122ZM199.241 151.87C199.241 151.685 199.303 151.524 199.427 151.387C199.551 151.248 199.726 151.142 199.954 151.068C200.182 150.994 200.449 150.957 200.754 150.957C201.053 150.957 201.317 150.994 201.544 151.068C201.771 151.142 201.947 151.248 202.071 151.387C202.197 151.524 202.26 151.685 202.262 151.87C202.26 152.057 202.197 152.219 202.071 152.356C201.947 152.493 201.771 152.598 201.544 152.67C201.318 152.743 201.055 152.779 200.754 152.779C200.448 152.779 200.181 152.743 199.954 152.67C199.726 152.598 199.551 152.494 199.427 152.359C199.303 152.222 199.241 152.059 199.241 151.87ZM199.7 154.64H203.799V155.897H200.251V156.443H204.002V156.845H199.724V155.525H203.268V155.027H199.7V154.64ZM199.748 151.87C199.747 151.977 199.787 152.071 199.869 152.153C199.951 152.235 200.068 152.299 200.22 152.344C200.373 152.389 200.551 152.412 200.754 152.412C200.954 152.412 201.128 152.389 201.278 152.344C201.43 152.299 201.547 152.235 201.629 152.153C201.712 152.071 201.754 151.977 201.754 151.87C201.754 151.764 201.712 151.67 201.629 151.587C201.547 151.505 201.43 151.442 201.278 151.397C201.128 151.351 200.954 151.329 200.754 151.329C200.551 151.329 200.373 151.351 200.22 151.397C200.068 151.442 199.951 151.505 199.869 151.587C199.787 151.67 199.747 151.764 199.748 151.87Z" fill="#09101D"/>
<path d="M213 123.245C213 121.588 214.343 120.245 216 120.245C217.657 120.245 219 121.588 219 123.245V143.356H213V123.245Z" fill="#BE7346"/>
<path d="M211.6 151.406V156.356H210.982V152.049H210.953L209.749 152.847V152.228L210.982 151.406H211.6ZM212.92 156.356L212.915 155.907L214.602 154.128C215.187 153.504 215.467 153.171 215.472 152.716C215.467 152.204 215.042 151.875 214.486 151.875C213.896 151.875 213.524 152.247 213.524 152.803H212.939C212.934 151.928 213.611 151.338 214.505 151.338C215.404 151.338 216.043 151.943 216.047 152.716C216.043 153.267 215.786 153.698 214.907 154.602L213.775 155.772V155.81H216.134V156.356H212.92ZM221.819 150.841V154.423H221.277V154.084H220.049V153.731H221.277V150.841H221.819ZM216.786 153.132C217.966 153.137 219.469 153.122 220.784 152.977L220.818 153.33C220.223 153.412 219.605 153.463 219 153.495V154.442H218.473V153.514C217.898 153.533 217.347 153.536 216.854 153.533L216.786 153.132ZM217.26 151.87C217.26 151.309 217.855 150.957 218.773 150.957C219.677 150.957 220.277 151.309 220.282 151.87C220.277 152.441 219.677 152.779 218.773 152.779C217.855 152.779 217.26 152.441 217.26 151.87ZM217.719 155.027V154.64H221.819V155.897H218.27V156.443H222.022V156.845H217.744V155.525H221.287V155.027H217.719ZM217.768 151.87C217.763 152.194 218.159 152.412 218.773 152.412C219.378 152.412 219.774 152.194 219.774 151.87C219.774 151.546 219.378 151.329 218.773 151.329C218.159 151.329 217.763 151.546 217.768 151.87Z" fill="#09101D"/>
<defs>
<filter id="filter0_d_171_4973" x="30" y="0.356445" width="208" height="150" filterUnits="userSpaceOnUse" color-interpolation-filters="sRGB">
<feFlood flood-opacity="0" result="BackgroundImageFix"/>
<feColorMatrix in="SourceAlpha" type="matrix" values="0 0 0 0 0 0 0 0 0 0 0 0 0 0 0 0 0 0 127 0" result="hardAlpha"/>
<feOffset dx="2" dy="2"/>
<feGaussianBlur stdDeviation="2.5"/>
<feComposite in2="hardAlpha" operator="out"/>
<feColorMatrix type="matrix" values="0 0 0 0 0.545098 0 0 0 0 0.54902 0 0 0 0 0.627451 0 0 0 0.25 0"/>
<feBlend mode="multiply" in2="BackgroundImageFix" result="effect1_dropShadow_171_4973"/>
<feBlend mode="normal" in="SourceGraphic" in2="effect1_dropShadow_171_4973" result="shape"/>
</filter>
</defs>
</svg>
