<svg width="99" height="99" viewBox="0 0 99 99" fill="none" xmlns="http://www.w3.org/2000/svg">
<g id="Group 1" filter="url(#filter0_ddd_570_15017)">
<path id="Ellipse 15" d="M90.423 47.3773C90.423 71.5875 70.7967 91.2137 46.5865 91.2137C22.3763 91.2137 2.75 71.5875 2.75 47.3773C2.75 23.167 22.3763 3.54077 46.5865 3.54077C70.7967 3.54077 90.423 23.167 90.423 47.3773ZM20.2846 47.3773C20.2846 61.9034 32.0603 73.6791 46.5865 73.6791C61.1126 73.6791 72.8884 61.9034 72.8884 47.3773C72.8884 32.8511 61.1126 21.0754 46.5865 21.0754C32.0603 21.0754 20.2846 32.8511 20.2846 47.3773Z" fill="#EBD5C7"/>
<path id="Ellipse 14" d="M46.5865 3.54077C57.3357 3.54077 67.7103 7.49032 75.7382 14.6387C83.7661 21.7871 88.8877 31.6359 90.1295 42.3132C91.3712 52.9905 88.6466 63.7518 82.4735 72.5518C76.3004 81.3517 67.1091 87.5768 56.6468 90.0437C46.1844 92.5106 35.1804 91.0474 25.7262 85.9322C16.2721 80.817 9.02689 72.4064 5.36786 62.2991C1.70883 52.1918 1.89103 41.0924 5.87982 31.1106C9.86861 21.1288 17.3859 12.9605 27.0029 8.15839L34.8363 23.8459C29.0661 26.7272 24.5558 31.6282 22.1625 37.6172C19.7692 43.6063 19.6599 50.266 21.8553 56.3304C24.0507 62.3948 28.3978 67.4411 34.0703 70.5102C39.7428 73.5794 46.3453 74.4573 52.6227 72.9771C58.9001 71.497 64.4148 67.7619 68.1187 62.482C71.8226 57.202 73.4573 50.7452 72.7123 44.3388C71.9672 37.9324 68.8943 32.0231 64.0775 27.7341C59.2608 23.4451 53.036 21.0754 46.5865 21.0754V3.54077Z" fill="#FFE8CE"/>
<path id="Ellipse 13" d="M46.5865 3.54077C56.1666 3.54077 65.4829 6.67908 73.1103 12.4756C80.7377 18.2722 86.2563 26.4078 88.8218 35.638C91.3874 44.8681 90.8586 54.6846 87.3163 63.5857C83.7741 72.4869 77.4135 79.9826 69.2075 84.9262C61.0015 89.8699 51.402 91.9892 41.8774 90.9601C32.3527 89.9309 23.4274 85.81 16.4668 79.2276C9.50623 72.6452 4.89356 63.9638 3.33443 54.5115C1.77531 45.0591 3.35558 35.3563 7.8335 26.8872L23.3347 35.0832C20.6479 40.1647 19.6998 45.9864 20.6353 51.6578C21.5707 57.3292 24.3383 62.538 28.5147 66.4875C32.6911 70.4369 38.0462 72.9095 43.761 73.5269C49.4758 74.1444 55.2355 72.8728 60.1591 69.9066C65.0827 66.9405 68.8991 62.443 71.0244 57.1023C73.1497 51.7617 73.467 45.8718 71.9277 40.3337C70.3884 34.7956 67.0772 29.9142 62.5008 26.4363C57.9243 22.9583 52.3345 21.0754 46.5865 21.0754V3.54077Z" fill="#FFF7EF"/>
<path id="Ellipse 12" d="M46.5865 3.54077C54.2502 3.54077 61.78 5.54991 68.425 9.36782C75.07 13.1857 80.598 18.679 84.4576 25.2998C88.3173 31.9207 90.3738 39.4377 90.4221 47.1012C90.4703 54.7648 88.5087 62.3071 84.7327 68.976C80.9567 75.6449 75.4983 81.2073 68.9019 85.1086C62.3055 89.0099 54.8016 91.1137 47.1385 91.2103C39.4754 91.3068 31.9209 89.3926 25.2284 85.6587C18.5358 81.9248 12.9391 76.5015 8.99636 69.9299L24.0324 60.9088C26.3981 64.8518 29.7561 68.1058 33.7716 70.3461C37.7872 72.5865 42.3199 73.735 46.9177 73.6771C51.5156 73.6191 56.0179 72.3569 59.9758 70.0161C63.9336 67.6753 67.2086 64.3378 69.4742 60.3365C71.7398 56.3351 72.9168 51.8098 72.8878 47.2116C72.8589 42.6135 71.625 38.1033 69.3092 34.1308C66.9934 30.1583 63.6766 26.8623 59.6896 24.5716C55.7026 22.2808 51.1847 21.0754 46.5865 21.0754V3.54077Z" fill="#FFC98D"/>
<path id="Ellipse 11" d="M46.5865 3.54077C57.6601 3.54077 68.3234 7.73171 76.4337 15.2715C84.544 22.8112 89.5002 33.141 90.3066 44.1852C91.1129 55.2294 87.7096 66.1696 80.7804 74.8074C73.8513 83.4451 63.9098 89.1404 52.9536 90.7489L50.4068 73.4002C56.9805 72.4352 62.9454 69.018 67.1029 63.8353C71.2603 58.6526 73.3024 52.0885 72.8185 45.462C72.3347 38.8355 69.361 32.6376 64.4948 28.1138C59.6286 23.5899 53.2306 21.0754 46.5865 21.0754V3.54077Z" fill="#FFB25C"/>
<path id="Ellipse 18" d="M46.5865 3.54077C53.1669 3.54077 59.6628 5.02224 65.5926 7.87529C71.5223 10.7283 76.7337 14.8798 80.8401 20.0217C84.9465 25.1635 87.8426 31.164 89.3136 37.5778C90.7846 43.9917 90.7928 50.6545 89.3375 57.0719L72.2371 53.194C73.1103 49.3436 73.1054 45.3459 72.2228 41.4976C71.3402 37.6493 69.6025 34.049 67.1386 30.9639C64.6748 27.8788 61.548 25.3879 57.9901 23.6761C54.4323 21.9642 50.5347 21.0754 46.5865 21.0754V3.54077Z" fill="#BE7346"/>
</g>
<defs>
<filter id="filter0_ddd_570_15017" x="0.171384" y="0.962155" width="97.9863" height="97.9876" filterUnits="userSpaceOnUse" color-interpolation-filters="sRGB">
<feFlood flood-opacity="0" result="BackgroundImageFix"/>
<feColorMatrix in="SourceAlpha" type="matrix" values="0 0 0 0 0 0 0 0 0 0 0 0 0 0 0 0 0 0 127 0" result="hardAlpha"/>
<feOffset dx="2.57862" dy="2.57862"/>
<feGaussianBlur stdDeviation="2.57862"/>
<feComposite in2="hardAlpha" operator="out"/>
<feColorMatrix type="matrix" values="0 0 0 0 0.545098 0 0 0 0 0.54902 0 0 0 0 0.627451 0 0 0 0.25 0"/>
<feBlend mode="multiply" in2="BackgroundImageFix" result="effect1_dropShadow_570_15017"/>
<feColorMatrix in="SourceAlpha" type="matrix" values="0 0 0 0 0 0 0 0 0 0 0 0 0 0 0 0 0 0 127 0" result="hardAlpha"/>
<feOffset dx="1.03145" dy="1.03145"/>
<feGaussianBlur stdDeviation="1.28931"/>
<feComposite in2="hardAlpha" operator="out"/>
<feColorMatrix type="matrix" values="0 0 0 0 0.545098 0 0 0 0 0.54902 0 0 0 0 0.627451 0 0 0 0.1 0"/>
<feBlend mode="multiply" in2="effect1_dropShadow_570_15017" result="effect2_dropShadow_570_15017"/>
<feColorMatrix in="SourceAlpha" type="matrix" values="0 0 0 0 0 0 0 0 0 0 0 0 0 0 0 0 0 0 127 0" result="hardAlpha"/>
<feOffset dx="-0.515723" dy="-0.515723"/>
<feGaussianBlur stdDeviation="0.515723"/>
<feComposite in2="hardAlpha" operator="out"/>
<feColorMatrix type="matrix" values="0 0 0 0 1 0 0 0 0 1 0 0 0 0 1 0 0 0 0.25 0"/>
<feBlend mode="soft-light" in2="effect2_dropShadow_570_15017" result="effect3_dropShadow_570_15017"/>
<feBlend mode="normal" in="SourceGraphic" in2="effect3_dropShadow_570_15017" result="shape"/>
</filter>
</defs>
</svg>
