<svg width="712" height="285" viewBox="0 0 712 285" fill="none" xmlns="http://www.w3.org/2000/svg">
<g filter="url(#filter0_ddd_304_46015)">
<rect x="57" y="5" width="640" height="250" rx="20" fill="#F6F6F6"/>
</g>
<line x1="70" y1="25.75" x2="684" y2="25.75" stroke="#E3E7EB" stroke-width="0.5"/>
<line x1="70" y1="64.75" x2="684" y2="64.75" stroke="#E3E7EB" stroke-width="0.5"/>
<line x1="70" y1="103.75" x2="684" y2="103.75" stroke="#E3E7EB" stroke-width="0.5"/>
<line x1="70" y1="142.75" x2="684" y2="142.75" stroke="#E3E7EB" stroke-width="0.5"/>
<line x1="70" y1="181.75" x2="684" y2="181.75" stroke="#E3E7EB" stroke-width="0.5"/>
<line x1="70" y1="220.75" x2="684" y2="220.75" stroke="#E3E7EB" stroke-width="0.5"/>
<path d="M4.06913 30.116C2.37852 30.116 1.16857 29.2127 1.11056 27.8702H2.17962C2.23763 28.674 3.0415 29.1796 4.05255 29.1796C5.17134 29.1796 5.98349 28.5746 5.98349 27.6878C5.98349 26.768 5.24592 26.1133 3.91995 26.1133H3.23211V25.1851H3.91995C4.95587 25.1851 5.67686 24.605 5.67686 23.7265C5.67686 22.8812 5.05531 22.3177 4.0857 22.3177C3.18239 22.3177 2.35366 22.8149 2.31222 23.6436H1.29288C1.34261 22.3011 2.59399 21.3978 4.10227 21.3978C5.7183 21.3978 6.70448 22.4586 6.6962 23.6768C6.70448 24.6381 6.14095 25.3425 5.25421 25.5912V25.6575C6.35642 25.8232 7.02769 26.6105 7.0194 27.6961C7.02769 29.0884 5.75973 30.116 4.06913 30.116ZM11.3179 30.116C9.4367 30.116 8.35107 28.5331 8.35107 25.7569C8.35107 23.0055 9.45328 21.3978 11.3179 21.3978C13.1826 21.3978 14.2848 23.0055 14.2848 25.7569C14.2848 28.5331 13.1991 30.116 11.3179 30.116ZM9.37869 25.7569C9.37869 27.953 10.0914 29.1796 11.3179 29.1796C12.5444 29.1796 13.2571 27.953 13.2571 25.7569C13.2571 23.5608 12.5361 22.3177 11.3179 22.3177C10.0997 22.3177 9.37869 23.5608 9.37869 25.7569ZM23.5913 21.4807V26.279H18.7764V21.4807H23.5913ZM19.6714 25.5331H22.6963V22.2348H19.6714V25.5331ZM19.9532 30.721V27.4475H20.8648V29.9586H26.956V30.721H19.9532ZM25.5554 28.1685V20.5276H26.4753V23.7017H28.0416V24.4807H26.4753V28.1685H25.5554ZM40.2974 20.5442V28.4586H39.3692V27.3729H37.2228V26.7017H39.3692V20.5442H40.2974ZM31.6537 25.3674C33.5929 25.3591 36.2034 25.3425 38.4327 25.0608L38.499 25.732C37.5667 25.8812 36.5929 25.9765 35.6316 26.0345V28.0939H34.7117V26.0801C33.6592 26.1215 32.6523 26.1257 31.778 26.1215L31.6537 25.3674ZM32.4907 22.7818C32.4907 21.6878 33.5349 20.9669 35.0764 20.9669C36.6012 20.9669 37.6454 21.6878 37.6537 22.7818C37.6454 23.8923 36.6012 24.5884 35.0764 24.5884C33.5349 24.5884 32.4907 23.8923 32.4907 22.7818ZM33.1537 30.721V27.6796H34.0736V29.9586H40.5543V30.721H33.1537ZM33.3692 22.7818C33.3609 23.4613 34.057 23.9006 35.0764 23.9006C36.0625 23.9006 36.767 23.4613 36.7753 22.7818C36.767 22.1105 36.0625 21.6547 35.0764 21.663C34.057 21.6547 33.3609 22.1105 33.3692 22.7818Z" fill="#09101D"/>
<path d="M1.81121 69L1.80292 68.2293L4.69518 65.1796C5.69795 64.1105 6.17861 63.5387 6.1869 62.7597C6.17861 61.8812 5.44933 61.3177 4.49629 61.3177C3.48524 61.3177 2.84712 61.9558 2.84712 62.9088H1.84435C1.83607 61.4088 2.99629 60.3978 4.52944 60.3978C6.07087 60.3978 7.1648 61.4337 7.17308 62.7597C7.1648 63.7044 6.72557 64.442 5.21728 65.9917L3.27806 67.9972V68.0635H7.32226V69H1.81121ZM11.6221 69.116C10.089 69.116 8.92876 68.1713 8.86246 66.8702H9.89009C9.96467 67.6243 10.7022 68.1878 11.6221 68.1878C12.7243 68.1878 13.5199 67.384 13.5199 66.3149C13.5199 65.2127 12.6912 64.4006 11.5475 64.3923C10.8348 64.384 10.2796 64.6077 9.96467 65.1547H8.94533L9.54202 60.5138H14.1415V61.4503H10.4205L10.1056 63.9365H10.1967C10.5696 63.6464 11.1415 63.4475 11.7382 63.4475C13.3542 63.4475 14.5475 64.6409 14.5475 66.2901C14.5475 67.9309 13.3127 69.116 11.6221 69.116ZM23.9156 60.4807V65.279H19.1006V60.4807H23.9156ZM19.9957 64.5331H23.0205V61.2348H19.9957V64.5331ZM20.2774 69.721V66.4475H21.189V68.9586H27.2802V69.721H20.2774ZM25.8796 67.1685V59.5276H26.7995V62.7017H28.3658V63.4807H26.7995V67.1685H25.8796ZM40.6216 59.5442V67.4586H39.6934V66.3729H37.547V65.7017H39.6934V59.5442H40.6216ZM31.9779 64.3674C33.9171 64.3591 36.5276 64.3425 38.7569 64.0608L38.8232 64.732C37.8909 64.8812 36.9171 64.9765 35.9558 65.0345V67.0939H35.0359V65.0801C33.9834 65.1215 32.9765 65.1257 32.1022 65.1215L31.9779 64.3674ZM32.8149 61.7818C32.8149 60.6878 33.8591 59.9669 35.4006 59.9669C36.9254 59.9669 37.9696 60.6878 37.9779 61.7818C37.9696 62.8923 36.9254 63.5884 35.4006 63.5884C33.8591 63.5884 32.8149 62.8923 32.8149 61.7818ZM33.4779 69.721V66.6796H34.3978V68.9586H40.8785V69.721H33.4779ZM33.6934 61.7818C33.6851 62.4613 34.3812 62.9006 35.4006 62.9006C36.3868 62.9006 37.0912 62.4613 37.0995 61.7818C37.0912 61.1105 36.3868 60.6547 35.4006 60.663C34.3812 60.6547 33.6851 61.1105 33.6934 61.7818Z" fill="#09101D"/>
<path d="M1.81706 108L1.80878 107.229L4.70104 104.18C5.7038 103.11 6.18447 102.539 6.19276 101.76C6.18447 100.881 5.45519 100.318 4.50215 100.318C3.4911 100.318 2.85298 100.956 2.85298 101.909H1.85021C1.84193 100.409 3.00215 99.3978 4.5353 99.3978C6.07673 99.3978 7.17066 100.434 7.17894 101.76C7.17066 102.704 6.73143 103.442 5.22314 104.992L3.28392 106.997V107.064H7.32811V108H1.81706ZM11.6363 108.116C9.75506 108.116 8.66943 106.533 8.66943 103.757C8.66943 101.006 9.77164 99.3978 11.6363 99.3978C13.5009 99.3978 14.6031 101.006 14.6031 103.757C14.6031 106.533 13.5175 108.116 11.6363 108.116ZM9.69705 103.757C9.69705 105.953 10.4098 107.18 11.6363 107.18C12.8628 107.18 13.5755 105.953 13.5755 103.757C13.5755 101.561 12.8545 100.318 11.6363 100.318C10.418 100.318 9.69705 101.561 9.69705 103.757ZM23.9097 99.4807V104.279H19.0948V99.4807H23.9097ZM19.9898 103.533H23.0147V100.235H19.9898V103.533ZM20.2716 108.721V105.448H21.1832V107.959H27.2743V108.721H20.2716ZM25.8738 106.169V98.5276H26.7937V101.702H28.36V102.481H26.7937V106.169H25.8738ZM40.6157 98.5442V106.459H39.6875V105.373H37.5411V104.702H39.6875V98.5442H40.6157ZM31.9721 103.367C33.9113 103.359 36.5218 103.343 38.7511 103.061L38.8174 103.732C37.885 103.881 36.9113 103.977 35.95 104.035V106.094H35.0301V104.08C33.9776 104.122 32.9707 104.126 32.0964 104.122L31.9721 103.367ZM32.8091 100.782C32.8091 99.6878 33.8533 98.9669 35.3947 98.9669C36.9196 98.9669 37.9638 99.6878 37.9721 100.782C37.9638 101.892 36.9196 102.588 35.3947 102.588C33.8533 102.588 32.8091 101.892 32.8091 100.782ZM33.4721 108.721V105.68H34.392V107.959H40.8726V108.721H33.4721ZM33.6875 100.782C33.6792 101.461 34.3754 101.901 35.3947 101.901C36.3809 101.901 37.0853 101.461 37.0936 100.782C37.0853 100.11 36.3809 99.6547 35.3947 99.663C34.3754 99.6547 33.6792 100.11 33.6875 100.782Z" fill="#09101D"/>
<path d="M6.20183 138.514V147H5.14106V139.616H5.09133L3.0278 140.983V139.923L5.14106 138.514H6.20183ZM11.2315 147.116C9.69836 147.116 8.53813 146.171 8.47184 144.87H9.49946C9.57405 145.624 10.3116 146.188 11.2315 146.188C12.3337 146.188 13.1293 145.384 13.1293 144.315C13.1293 143.213 12.3006 142.401 11.1569 142.392C10.4442 142.384 9.88896 142.608 9.57405 143.155H8.55471L9.15139 138.514H13.7508V139.45H10.0298L9.71493 141.936H9.80609C10.179 141.646 10.7508 141.448 11.3475 141.448C12.9635 141.448 14.1569 142.641 14.1569 144.29C14.1569 145.931 12.9221 147.116 11.2315 147.116ZM23.5249 138.481V143.279H18.71V138.481H23.5249ZM19.605 142.533H22.6299V139.235H19.605V142.533ZM19.8868 147.721V144.448H20.7984V146.959H26.8896V147.721H19.8868ZM25.489 145.169V137.528H26.4089V140.702H27.9752V141.481H26.4089V145.169H25.489ZM40.2309 137.544V145.459H39.3028V144.373H37.1564V143.702H39.3028V137.544H40.2309ZM31.5873 142.367C33.5265 142.359 36.137 142.343 38.3663 142.061L38.4326 142.732C37.5003 142.881 36.5265 142.977 35.5652 143.035V145.094H34.6453V143.08C33.5928 143.122 32.5859 143.126 31.7116 143.122L31.5873 142.367ZM32.4243 139.782C32.4243 138.688 33.4685 137.967 35.0099 137.967C36.5348 137.967 37.579 138.688 37.5873 139.782C37.579 140.892 36.5348 141.588 35.0099 141.588C33.4685 141.588 32.4243 140.892 32.4243 139.782ZM33.0873 147.721V144.68H34.0072V146.959H40.4879V147.721H33.0873ZM33.3028 139.782C33.2945 140.461 33.9906 140.901 35.0099 140.901C35.9961 140.901 36.7006 140.461 36.7088 139.782C36.7006 139.11 35.9961 138.655 35.0099 138.663C33.9906 138.655 33.2945 139.11 33.3028 139.782Z" fill="#09101D"/>
<path d="M6.20769 177.514V186H5.14692V178.616H5.09719L3.03366 179.983V178.923L5.14692 177.514H6.20769ZM11.2457 186.116C9.36444 186.116 8.2788 184.533 8.2788 181.757C8.2788 179.006 9.38101 177.398 11.2457 177.398C13.1103 177.398 14.2125 179.006 14.2125 181.757C14.2125 184.533 13.1269 186.116 11.2457 186.116ZM9.30642 181.757C9.30642 183.953 10.0191 185.18 11.2457 185.18C12.4722 185.18 13.1849 183.953 13.1849 181.757C13.1849 179.561 12.4639 178.318 11.2457 178.318C10.0274 178.318 9.30642 179.561 9.30642 181.757ZM23.5191 177.481V182.279H18.7042V177.481H23.5191ZM19.5992 181.533H22.624V178.235H19.5992V181.533ZM19.8809 186.721V183.448H20.7925V185.959H26.8837V186.721H19.8809ZM25.4832 184.169V176.528H26.403V179.702H27.9693V180.481H26.403V184.169H25.4832ZM40.2251 176.544V184.459H39.2969V183.373H37.1505V182.702H39.2969V176.544H40.2251ZM31.5814 181.367C33.5207 181.359 36.1312 181.343 38.3604 181.061L38.4267 181.732C37.4944 181.881 36.5207 181.977 35.5593 182.035V184.094H34.6394V182.08C33.587 182.122 32.5801 182.126 31.7057 182.122L31.5814 181.367ZM32.4185 178.782C32.4185 177.688 33.4627 176.967 35.0041 176.967C36.529 176.967 37.5732 177.688 37.5814 178.782C37.5732 179.892 36.529 180.588 35.0041 180.588C33.4627 180.588 32.4185 179.892 32.4185 178.782ZM33.0814 186.721V183.68H34.0013V185.959H40.482V186.721H33.0814ZM33.2969 178.782C33.2886 179.461 33.9848 179.901 35.0041 179.901C35.9903 179.901 36.6947 179.461 36.703 178.782C36.6947 178.11 35.9903 177.655 35.0041 177.663C33.9848 177.655 33.2886 178.11 33.2969 178.782Z" fill="#09101D"/>
<path d="M11.6006 225.116C10.0675 225.116 8.90728 224.171 8.84098 222.87H9.8686C9.94319 223.624 10.6808 224.188 11.6006 224.188C12.7029 224.188 13.4984 223.384 13.4984 222.315C13.4984 221.213 12.6697 220.401 11.5261 220.392C10.8134 220.384 10.2581 220.608 9.94319 221.155H8.92385L9.52053 216.514H14.12V217.45H10.399L10.0841 219.936H10.1752C10.5482 219.646 11.12 219.448 11.7167 219.448C13.3327 219.448 14.5261 220.641 14.5261 222.29C14.5261 223.931 13.2913 225.116 11.6006 225.116ZM23.8941 216.481V221.279H19.0792V216.481H23.8941ZM19.9742 220.533H22.999V217.235H19.9742V220.533ZM20.2559 225.721V222.448H21.1675V224.959H27.2587V225.721H20.2559ZM25.8582 223.169V215.528H26.778V218.702H28.3443V219.481H26.778V223.169H25.8582ZM40.6001 215.544V223.459H39.6719V222.373H37.5255V221.702H39.6719V215.544H40.6001ZM31.9564 220.367C33.8957 220.359 36.5062 220.343 38.7354 220.061L38.8017 220.732C37.8694 220.881 36.8957 220.977 35.9343 221.035V223.094H35.0144V221.08C33.962 221.122 32.9551 221.126 32.0807 221.122L31.9564 220.367ZM32.7935 217.782C32.7935 216.688 33.8377 215.967 35.3791 215.967C36.904 215.967 37.9482 216.688 37.9564 217.782C37.9482 218.892 36.904 219.588 35.3791 219.588C33.8377 219.588 32.7935 218.892 32.7935 217.782ZM33.4564 225.721V222.68H34.3763V224.959H40.857V225.721H33.4564ZM33.6719 217.782C33.6636 218.461 34.3598 218.901 35.3791 218.901C36.3653 218.901 37.0697 218.461 37.078 217.782C37.0697 217.11 36.3653 216.655 35.3791 216.663C34.3598 216.655 33.6636 217.11 33.6719 217.782Z" fill="#09101D"/>
<path d="M91.5 140C91.5 135.582 95.0817 132 99.5 132H101.5C105.918 132 109.5 135.582 109.5 140V255H91.5V140Z" fill="#BE7346"/>
<path d="M95.809 268.099V278H94.5715V269.385H94.5135L92.106 270.981V269.743L94.5715 268.099H95.809ZM108.029 266.968V274.133H106.946V273.456H104.491V272.75H106.946V266.968H108.029ZM97.9643 271.551C100.323 271.561 103.33 271.532 105.96 271.242L106.028 271.948C104.839 272.112 103.601 272.213 102.392 272.276V274.171H101.339V272.315C100.188 272.354 99.0858 272.358 98.0996 272.354L97.9643 271.551ZM98.9118 269.028C98.9118 267.906 100.101 267.2 101.938 267.2C103.746 267.2 104.945 267.906 104.955 269.028C104.945 270.169 103.746 270.845 101.938 270.845C100.101 270.845 98.9118 270.169 98.9118 269.028ZM99.8303 275.341V274.568H108.029V277.081H100.933V278.174H108.435V278.977H99.8786V276.337H106.966V275.341H99.8303ZM99.927 269.028C99.9173 269.675 100.71 270.11 101.938 270.11C103.147 270.11 103.939 269.675 103.939 269.028C103.939 268.38 103.147 267.945 101.938 267.945C100.71 267.945 99.9173 268.38 99.927 269.028Z" fill="#09101D"/>
<path d="M139.5 99C139.5 94.5817 143.082 91 147.5 91H149.5C153.918 91 157.5 94.5817 157.5 99V255H139.5V99Z" fill="#BE7346"/>
<path d="M139.27 278L139.26 277.101L142.635 273.543C143.805 272.296 144.365 271.628 144.375 270.72C144.365 269.695 143.514 269.037 142.403 269.037C141.223 269.037 140.479 269.782 140.479 270.894H139.309C139.299 269.144 140.653 267.964 142.441 267.964C144.24 267.964 145.516 269.173 145.525 270.72C145.516 271.822 145.003 272.682 143.244 274.49L140.981 276.83V276.907H145.7V278H139.27ZM157.068 266.968V274.133H155.985V273.456H153.53V272.75H155.985V266.968H157.068ZM147.003 271.551C149.362 271.561 152.369 271.532 154.999 271.242L155.067 271.948C153.878 272.112 152.64 272.213 151.432 272.276V274.171H150.378V272.315C149.227 272.354 148.125 272.358 147.139 272.354L147.003 271.551ZM147.951 269.028C147.951 267.906 149.14 267.2 150.977 267.2C152.785 267.2 153.984 267.906 153.994 269.028C153.984 270.169 152.785 270.845 150.977 270.845C149.14 270.845 147.951 270.169 147.951 269.028ZM148.869 275.341V274.568H157.068V277.081H149.972V278.174H157.474V278.977H148.918V276.337H156.005V275.341H148.869ZM148.966 269.028C148.956 269.675 149.749 270.11 150.977 270.11C152.186 270.11 152.978 269.675 152.978 269.028C152.978 268.38 152.186 267.945 150.977 267.945C149.749 267.945 148.956 268.38 148.966 269.028Z" fill="#09101D"/>
<path d="M188.5 185C188.5 180.582 192.082 177 196.5 177H198.5C202.918 177 206.5 180.582 206.5 185V255H188.5V185Z" fill="#BE7346"/>
<path d="M191.481 278.135C189.508 278.135 188.097 277.081 188.029 275.515H189.276C189.344 276.453 190.282 277.043 191.461 277.043C192.767 277.043 193.714 276.337 193.714 275.302C193.714 274.229 192.854 273.465 191.307 273.465H190.504V272.383H191.307C192.515 272.383 193.356 271.706 193.356 270.681C193.356 269.695 192.631 269.037 191.5 269.037C190.446 269.037 189.479 269.617 189.431 270.584H188.242C188.3 269.018 189.76 267.964 191.519 267.964C193.405 267.964 194.555 269.202 194.546 270.623C194.555 271.744 193.898 272.566 192.863 272.856V272.934C194.149 273.127 194.932 274.046 194.923 275.312C194.932 276.936 193.453 278.135 191.481 278.135ZM206.28 266.968V274.133H205.197V273.456H202.742V272.75H205.197V266.968H206.28ZM196.215 271.551C198.574 271.561 201.581 271.532 204.211 271.242L204.279 271.948C203.09 272.112 201.852 272.213 200.643 272.276V274.171H199.59V272.315C198.439 272.354 197.337 272.358 196.351 272.354L196.215 271.551ZM197.163 269.028C197.163 267.906 198.352 267.2 200.189 267.2C201.997 267.2 203.196 267.906 203.206 269.028C203.196 270.169 201.997 270.845 200.189 270.845C198.352 270.845 197.163 270.169 197.163 269.028ZM198.081 275.341V274.568H206.28V277.081H199.183V278.174H206.686V278.977H198.13V276.337H205.217V275.341H198.081ZM198.178 269.028C198.168 269.675 198.961 270.11 200.189 270.11C201.398 270.11 202.19 269.675 202.19 269.028C202.19 268.38 201.398 267.945 200.189 267.945C198.961 267.945 198.168 268.38 198.178 269.028Z" fill="#09101D"/>
<path d="M237.5 221C237.5 216.582 241.082 213 245.5 213H247.5C251.918 213 255.5 216.582 255.5 221V255H237.5V221Z" fill="#BE7346"/>
<path d="M236.768 275.979V274.964L241.226 268.099H242.734V274.896H244.126V275.979H242.734V278H241.564V275.979H236.768ZM238.093 274.896H241.564V269.656H241.448L238.093 274.819V274.896ZM255.328 266.968V274.133H254.245V273.456H251.789V272.75H254.245V266.968H255.328ZM245.263 271.551C247.622 271.561 250.629 271.532 253.259 271.242L253.327 271.948C252.137 272.112 250.9 272.213 249.691 272.276V274.171H248.637V272.315C247.487 272.354 246.385 272.358 245.398 272.354L245.263 271.551ZM246.211 269.028C246.211 267.906 247.4 267.2 249.237 267.2C251.045 267.2 252.244 267.906 252.253 269.028C252.244 270.169 251.045 270.845 249.237 270.845C247.4 270.845 246.211 270.169 246.211 269.028ZM247.129 275.341V274.568H255.328V277.081H248.231V278.174H255.734V278.977H247.177V276.337H254.264V275.341H247.129ZM247.226 269.028C247.216 269.675 248.009 270.11 249.237 270.11C250.445 270.11 251.238 269.675 251.238 269.028C251.238 268.38 250.445 267.945 249.237 267.945C248.009 267.945 247.216 268.38 247.226 269.028Z" fill="#09101D"/>
<path d="M286.5 142C286.5 137.582 290.082 134 294.5 134H296.5C300.918 134 304.5 137.582 304.5 142V255H286.5V142Z" fill="#BE7346"/>
<path d="M289.431 278.135C287.642 278.135 286.289 277.033 286.211 275.515H287.41C287.497 276.395 288.358 277.052 289.431 277.052C290.717 277.052 291.645 276.115 291.645 274.867C291.645 273.581 290.678 272.634 289.344 272.624C288.512 272.615 287.865 272.876 287.497 273.514H286.308L287.004 268.099H292.37V269.192H288.029L287.662 272.093H287.768C288.203 271.754 288.87 271.522 289.566 271.522C291.452 271.522 292.844 272.914 292.844 274.838C292.844 276.753 291.403 278.135 289.431 278.135ZM304.137 266.968V274.133H303.054V273.456H300.598V272.75H303.054V266.968H304.137ZM294.072 271.551C296.431 271.561 299.438 271.532 302.068 271.242L302.135 271.948C300.946 272.112 299.708 272.213 298.5 272.276V274.171H297.446V272.315C296.295 272.354 295.193 272.358 294.207 272.354L294.072 271.551ZM295.019 269.028C295.019 267.906 296.208 267.2 298.045 267.2C299.853 267.2 301.052 267.906 301.062 269.028C301.052 270.169 299.853 270.845 298.045 270.845C296.208 270.845 295.019 270.169 295.019 269.028ZM295.938 275.341V274.568H304.137V277.081H297.04V278.174H304.543V278.977H295.986V276.337H303.073V275.341H295.938ZM296.034 269.028C296.025 269.675 296.818 270.11 298.045 270.11C299.254 270.11 300.047 269.675 300.047 269.028C300.047 268.38 299.254 267.945 298.045 267.945C296.818 267.945 296.025 268.38 296.034 269.028Z" fill="#09101D"/>
<path d="M335.5 74C335.5 69.5817 339.082 66 343.5 66H345.5C349.918 66 353.5 69.5817 353.5 74V255H335.5V74Z" fill="#BE7346"/>
<path d="M338.527 278.135C336.816 278.116 334.921 277.101 334.921 273.427C334.921 269.927 336.362 267.964 338.682 267.964C340.422 267.964 341.641 269.037 341.892 270.584H340.674C340.451 269.714 339.784 269.057 338.682 269.057C337.058 269.057 336.081 270.449 336.081 272.837H336.207C336.777 272.006 337.686 271.522 338.75 271.522C340.509 271.522 341.979 272.885 341.979 274.8C341.979 276.666 340.616 278.155 338.527 278.135ZM336.255 274.829C336.255 275.989 337.203 277.052 338.527 277.052C339.813 277.052 340.78 276.047 340.79 274.809C340.78 273.601 339.852 272.605 338.566 272.605C337.261 272.605 336.265 273.659 336.255 274.829ZM353.253 266.968V274.133H352.17V273.456H349.714V272.75H352.17V266.968H353.253ZM343.188 271.551C345.547 271.561 348.554 271.532 351.184 271.242L351.251 271.948C350.062 272.112 348.825 272.213 347.616 272.276V274.171H346.562V272.315C345.412 272.354 344.309 272.358 343.323 272.354L343.188 271.551ZM344.135 269.028C344.135 267.906 345.325 267.2 347.162 267.2C348.97 267.2 350.169 267.906 350.178 269.028C350.169 270.169 348.97 270.845 347.162 270.845C345.325 270.845 344.135 270.169 344.135 269.028ZM345.054 275.341V274.568H353.253V277.081H346.156V278.174H353.659V278.977H345.102V276.337H352.189V275.341H345.054ZM345.151 269.028C345.141 269.675 345.934 270.11 347.162 270.11C348.37 270.11 349.163 269.675 349.163 269.028C349.163 268.38 348.37 267.945 347.162 267.945C345.934 267.945 345.141 268.38 345.151 269.028Z" fill="#09101D"/>
<path d="M384 199C384 194.582 387.582 191 392 191H394C398.418 191 402 194.582 402 199V255H384V199Z" fill="#BE7346"/>
<path d="M384.325 278L388.87 269.269V269.192H383.639V268.099H390.146V269.25L385.621 278H384.325ZM401.322 266.968V274.133H400.239V273.456H397.783V272.75H400.239V266.968H401.322ZM391.257 271.551C393.616 271.561 396.623 271.532 399.253 271.242L399.321 271.948C398.132 272.112 396.894 272.213 395.685 272.276V274.171H394.632V272.315C393.481 272.354 392.379 272.358 391.393 272.354L391.257 271.551ZM392.205 269.028C392.205 267.906 393.394 267.2 395.231 267.2C397.039 267.2 398.238 267.906 398.248 269.028C398.238 270.169 397.039 270.845 395.231 270.845C393.394 270.845 392.205 270.169 392.205 269.028ZM393.123 275.341V274.568H401.322V277.081H394.225V278.174H401.728V278.977H393.172V276.337H400.259V275.341H393.123ZM393.22 269.028C393.21 269.675 394.003 270.11 395.231 270.11C396.44 270.11 397.232 269.675 397.232 269.028C397.232 268.38 396.44 267.945 395.231 267.945C394.003 267.945 393.21 268.38 393.22 269.028Z" fill="#09101D"/>
<path d="M432.5 167C432.5 162.582 436.082 159 440.5 159H442.5C446.918 159 450.5 162.582 450.5 167V255H432.5V167Z" fill="#BE7346"/>
<path d="M435.45 278.135C433.361 278.135 431.921 276.985 431.93 275.37C431.921 274.094 432.81 273.04 433.941 272.856V272.808C432.955 272.576 432.307 271.667 432.307 270.594C432.307 269.076 433.632 267.964 435.45 267.964C437.248 267.964 438.572 269.076 438.582 270.594C438.572 271.667 437.915 272.576 436.948 272.808V272.856C438.07 273.04 438.959 274.094 438.969 275.37C438.959 276.985 437.509 278.135 435.45 278.135ZM433.158 275.302C433.139 276.347 434.019 277.052 435.45 277.052C436.861 277.052 437.741 276.347 437.741 275.302C437.741 274.21 436.774 273.407 435.45 273.407C434.115 273.407 433.139 274.21 433.158 275.302ZM433.506 270.681C433.506 271.686 434.309 272.363 435.45 272.363C436.571 272.363 437.383 271.686 437.383 270.681C437.383 269.695 436.6 269.028 435.45 269.028C434.27 269.028 433.506 269.695 433.506 270.681ZM450.205 266.968V274.133H449.122V273.456H446.666V272.75H449.122V266.968H450.205ZM440.14 271.551C442.499 271.561 445.506 271.532 448.136 271.242L448.204 271.948C447.014 272.112 445.777 272.213 444.568 272.276V274.171H443.514V272.315C442.364 272.354 441.262 272.358 440.275 272.354L440.14 271.551ZM441.088 269.028C441.088 267.906 442.277 267.2 444.114 267.2C445.922 267.2 447.121 267.906 447.13 269.028C447.121 270.169 445.922 270.845 444.114 270.845C442.277 270.845 441.088 270.169 441.088 269.028ZM442.006 275.341V274.568H450.205V277.081H443.108V278.174H450.611V278.977H442.054V276.337H449.141V275.341H442.006ZM442.103 269.028C442.093 269.675 442.886 270.11 444.114 270.11C445.322 270.11 446.115 269.675 446.115 269.028C446.115 268.38 445.322 267.945 444.114 267.945C442.886 267.945 442.093 268.38 442.103 269.028Z" fill="#09101D"/>
<path d="M481.5 161C481.5 156.582 485.082 153 489.5 153H491.5C495.918 153 499.5 156.582 499.5 161V255H481.5V161Z" fill="#BE7346"/>
<path d="M484.382 267.964C486.084 267.983 487.979 269.008 487.979 272.653C487.979 276.173 486.538 278.135 484.218 278.135C482.478 278.135 481.25 277.072 480.998 275.496H482.217C482.439 276.385 483.116 277.043 484.218 277.043C485.833 277.043 486.819 275.651 486.828 273.243H486.693C486.123 274.065 485.214 274.558 484.16 274.558C482.391 274.558 480.921 273.195 480.921 271.28C480.921 269.443 482.275 267.945 484.382 267.964ZM482.12 271.271C482.12 272.499 483.048 273.475 484.344 273.475C485.63 273.475 486.635 272.412 486.635 271.251C486.635 270.11 485.688 269.047 484.382 269.047C483.087 269.047 482.11 270.052 482.12 271.271ZM499.253 266.968V274.133H498.17V273.456H495.714V272.75H498.17V266.968H499.253ZM489.188 271.551C491.547 271.561 494.554 271.532 497.184 271.242L497.251 271.948C496.062 272.112 494.825 272.213 493.616 272.276V274.171H492.562V272.315C491.412 272.354 490.309 272.358 489.323 272.354L489.188 271.551ZM490.135 269.028C490.135 267.906 491.325 267.2 493.162 267.2C494.97 267.2 496.169 267.906 496.178 269.028C496.169 270.169 494.97 270.845 493.162 270.845C491.325 270.845 490.135 270.169 490.135 269.028ZM491.054 275.341V274.568H499.253V277.081H492.156V278.174H499.659V278.977H491.102V276.337H498.189V275.341H491.054ZM491.151 269.028C491.141 269.675 491.934 270.11 493.162 270.11C494.37 270.11 495.163 269.675 495.163 269.028C495.163 268.38 494.37 267.945 493.162 267.945C491.934 267.945 491.141 268.38 491.151 269.028Z" fill="#09101D"/>
<path d="M533.5 192C533.5 187.582 537.082 184 541.5 184H543.5C547.918 184 551.5 187.582 551.5 192V255H533.5V192Z" fill="#BE7346"/>
<path d="M533.639 268.099V278H532.402V269.385H532.344L529.936 270.981V269.743L532.402 268.099H533.639ZM539.517 278.135C537.322 278.135 536.055 276.289 536.055 273.05C536.055 269.84 537.341 267.964 539.517 267.964C541.692 267.964 542.978 269.84 542.978 273.05C542.978 276.289 541.711 278.135 539.517 278.135ZM537.254 273.05C537.254 275.612 538.086 277.043 539.517 277.043C540.948 277.043 541.779 275.612 541.779 273.05C541.779 270.488 540.938 269.037 539.517 269.037C538.095 269.037 537.254 270.488 537.254 273.05ZM554.199 266.968V274.133H553.116V273.456H550.66V272.75H553.116V266.968H554.199ZM544.134 271.551C546.493 271.561 549.5 271.532 552.13 271.242L552.198 271.948C551.009 272.112 549.771 272.213 548.562 272.276V274.171H547.509V272.315C546.358 272.354 545.256 272.358 544.27 272.354L544.134 271.551ZM545.082 269.028C545.082 267.906 546.271 267.2 548.108 267.2C549.916 267.2 551.115 267.906 551.125 269.028C551.115 270.169 549.916 270.845 548.108 270.845C546.271 270.845 545.082 270.169 545.082 269.028ZM546 275.341V274.568H554.199V277.081H547.102V278.174H554.605V278.977H546.049V276.337H553.136V275.341H546ZM546.097 269.028C546.087 269.675 546.88 270.11 548.108 270.11C549.317 270.11 550.109 269.675 550.109 269.028C550.109 268.38 549.317 267.945 548.108 267.945C546.88 267.945 546.087 268.38 546.097 269.028Z" fill="#09101D"/>
<path d="M587.5 143C587.5 138.582 591.082 135 595.5 135H597.5C601.918 135 605.5 138.582 605.5 143V255H587.5V143Z" fill="#BE7346"/>
<path d="M588.74 268.099V278H587.502V269.385H587.444L585.037 270.981V269.743L587.502 268.099H588.74ZM594.878 268.099V278H593.641V269.385H593.583L591.175 270.981V269.743L593.641 268.099H594.878ZM607.099 266.968V274.133H606.016V273.456H603.56V272.75H606.016V266.968H607.099ZM597.034 271.551C599.393 271.561 602.4 271.532 605.029 271.242L605.097 271.948C603.908 272.112 602.67 272.213 601.462 272.276V274.171H600.408V272.315C599.257 272.354 598.155 272.358 597.169 272.354L597.034 271.551ZM597.981 269.028C597.981 267.906 599.17 267.2 601.007 267.2C602.815 267.2 604.014 267.906 604.024 269.028C604.014 270.169 602.815 270.845 601.007 270.845C599.17 270.845 597.981 270.169 597.981 269.028ZM598.9 275.341V274.568H607.099V277.081H600.002V278.174H607.505V278.977H598.948V276.337H606.035V275.341H598.9ZM598.996 269.028C598.987 269.675 599.779 270.11 601.007 270.11C602.216 270.11 603.009 269.675 603.009 269.028C603.009 268.38 602.216 267.945 601.007 267.945C599.779 267.945 598.987 268.38 598.996 269.028Z" fill="#09101D"/>
<path d="M641.5 214C641.5 209.582 645.082 206 649.5 206H651.5C655.918 206 659.5 209.582 659.5 214V255H641.5V214Z" fill="#BE7346"/>
<path d="M641.701 268.099V278H640.463V269.385H640.405L637.998 270.981V269.743L640.463 268.099H641.701ZM644.339 278L644.33 277.101L647.704 273.543C648.874 272.296 649.435 271.628 649.444 270.72C649.435 269.695 648.584 269.037 647.472 269.037C646.292 269.037 645.548 269.782 645.548 270.894H644.378C644.368 269.144 645.722 267.964 647.511 267.964C649.309 267.964 650.585 269.173 650.595 270.72C650.585 271.822 650.073 272.682 648.313 274.49L646.051 276.83V276.907H650.769V278H644.339ZM662.138 266.968V274.133H661.055V273.456H658.599V272.75H661.055V266.968H662.138ZM652.073 271.551C654.432 271.561 657.439 271.532 660.069 271.242L660.136 271.948C658.947 272.112 657.709 272.213 656.501 272.276V274.171H655.447V272.315C654.296 272.354 653.194 272.358 652.208 272.354L652.073 271.551ZM653.02 269.028C653.02 267.906 654.209 267.2 656.046 267.2C657.854 267.2 659.053 267.906 659.063 269.028C659.053 270.169 657.854 270.845 656.046 270.845C654.209 270.845 653.02 270.169 653.02 269.028ZM653.939 275.341V274.568H662.138V277.081H655.041V278.174H662.544V278.977H653.987V276.337H661.074V275.341H653.939ZM654.035 269.028C654.026 269.675 654.819 270.11 656.046 270.11C657.255 270.11 658.048 269.675 658.048 269.028C658.048 268.38 657.255 267.945 656.046 267.945C654.819 267.945 654.026 268.38 654.035 269.028Z" fill="#09101D"/>
<defs>
<filter id="filter0_ddd_304_46015" x="52" y="0" width="660" height="270" filterUnits="userSpaceOnUse" color-interpolation-filters="sRGB">
<feFlood flood-opacity="0" result="BackgroundImageFix"/>
<feColorMatrix in="SourceAlpha" type="matrix" values="0 0 0 0 0 0 0 0 0 0 0 0 0 0 0 0 0 0 127 0" result="hardAlpha"/>
<feOffset dx="5" dy="5"/>
<feGaussianBlur stdDeviation="5"/>
<feComposite in2="hardAlpha" operator="out"/>
<feColorMatrix type="matrix" values="0 0 0 0 0.545098 0 0 0 0 0.54902 0 0 0 0 0.627451 0 0 0 0.25 0"/>
<feBlend mode="multiply" in2="BackgroundImageFix" result="effect1_dropShadow_304_46015"/>
<feColorMatrix in="SourceAlpha" type="matrix" values="0 0 0 0 0 0 0 0 0 0 0 0 0 0 0 0 0 0 127 0" result="hardAlpha"/>
<feOffset dx="2" dy="2"/>
<feGaussianBlur stdDeviation="2.5"/>
<feComposite in2="hardAlpha" operator="out"/>
<feColorMatrix type="matrix" values="0 0 0 0 0.545098 0 0 0 0 0.54902 0 0 0 0 0.627451 0 0 0 0.1 0"/>
<feBlend mode="multiply" in2="effect1_dropShadow_304_46015" result="effect2_dropShadow_304_46015"/>
<feColorMatrix in="SourceAlpha" type="matrix" values="0 0 0 0 0 0 0 0 0 0 0 0 0 0 0 0 0 0 127 0" result="hardAlpha"/>
<feOffset dx="-1" dy="-1"/>
<feGaussianBlur stdDeviation="1"/>
<feComposite in2="hardAlpha" operator="out"/>
<feColorMatrix type="matrix" values="0 0 0 0 1 0 0 0 0 1 0 0 0 0 1 0 0 0 0.25 0"/>
<feBlend mode="soft-light" in2="effect2_dropShadow_304_46015" result="effect3_dropShadow_304_46015"/>
<feBlend mode="normal" in="SourceGraphic" in2="effect3_dropShadow_304_46015" result="shape"/>
</filter>
</defs>
</svg>
