<svg width="572" height="315" viewBox="0 0 572 315" fill="none" xmlns="http://www.w3.org/2000/svg">
<g filter="url(#filter0_ddd_189_6694)">
<rect x="57" y="5" width="500" height="280" rx="20" fill="white"/>
</g>
<g opacity="0.5">
<line x1="67" y1="39.5" x2="547" y2="39.5" stroke="#FFC98D"/>
<line x1="67" y1="81.5" x2="547" y2="81.5" stroke="#FFC98D"/>
<line x1="67" y1="123.5" x2="547" y2="123.5" stroke="#FFC98D"/>
<line x1="67" y1="165.5" x2="547" y2="165.5" stroke="#FFC98D"/>
<line x1="67" y1="207.5" x2="547" y2="207.5" stroke="#FFC98D"/>
<line x1="67" y1="249.5" x2="547" y2="249.5" stroke="#FFC98D"/>
</g>
<path d="M80 156C80 151.582 83.5817 148 88 148H90C94.4183 148 98 151.582 98 156V285H80V156Z" fill="#FFB25C"/>
<path d="M73.976 300.622C73.9733 301.693 73.8241 302.686 73.5285 303.601C73.2357 304.515 72.7385 305.367 72.0368 306.157C71.3379 306.948 70.3987 307.638 69.2191 308.229L68.697 307.525C69.6335 307.055 70.4084 306.523 71.0216 305.93C71.6349 305.333 72.1073 304.675 72.4388 303.957L68.8959 304.293L68.7219 303.489L72.7247 303.228C72.907 302.673 73.0216 302.058 73.0686 301.384H69.2523V300.622H73.976ZM73.9429 303.721H76.3959V299.536H77.3075V309.953H76.3959V304.492H73.9429V303.721ZM87.6621 309.953H86.7422V299.536H87.6621V309.953ZM79.035 306.58C79.6621 306.58 80.1455 306.577 80.4853 306.572V301.425H79.3085V300.663H85.2587V301.425H84.0819V306.439C84.7394 306.392 85.314 306.34 85.8057 306.282L85.8554 306.97C84.8471 307.127 83.8002 307.232 82.7145 307.285C81.6289 307.334 80.4383 307.362 79.1427 307.367L79.035 306.58ZM81.3803 306.555C81.9797 306.541 82.5792 306.521 83.1786 306.493V301.425H81.3803V306.555ZM98.0083 307.459H97.0801V306.373H94.9337V305.702H97.0801V299.544H98.0083V307.459ZM89.3646 304.367C90.7403 304.362 91.9682 304.341 93.0483 304.305C94.1312 304.267 95.163 304.185 96.1436 304.061L96.2099 304.732C95.3453 304.87 94.3895 304.971 93.3425 305.035V307.094H92.4227V305.08C91.7127 305.108 90.9033 305.122 89.9945 305.122H89.489L89.3646 304.367ZM90.2017 301.782C90.2017 301.423 90.3094 301.106 90.5249 300.833C90.7403 300.557 91.0442 300.344 91.4365 300.195C91.8287 300.043 92.279 299.967 92.7873 299.967C93.2901 299.967 93.7362 300.043 94.1257 300.195C94.5152 300.344 94.8177 300.557 95.0331 300.833C95.2514 301.106 95.3619 301.423 95.3646 301.782C95.3619 302.146 95.2514 302.465 95.0331 302.739C94.8177 303.01 94.5152 303.22 94.1257 303.369C93.739 303.515 93.2928 303.588 92.7873 303.588C92.2762 303.588 91.8246 303.515 91.4323 303.369C91.0428 303.222 90.7403 303.012 90.5249 302.739C90.3094 302.465 90.2017 302.146 90.2017 301.782ZM90.8646 306.68H91.7845V308.959H98.2652V309.721H90.8646V306.68ZM91.0801 301.782C91.0773 302.006 91.1464 302.202 91.2873 302.37C91.4309 302.539 91.6326 302.67 91.8923 302.764C92.1519 302.855 92.4503 302.901 92.7873 302.901C93.1133 302.901 93.4047 302.855 93.6616 302.764C93.9185 302.67 94.1188 302.539 94.2624 302.37C94.4088 302.202 94.4834 302.006 94.4862 301.782C94.4834 301.561 94.4088 301.366 94.2624 301.198C94.1188 301.026 93.9185 300.894 93.6616 300.8C93.4047 300.706 93.1133 300.66 92.7873 300.663C92.4503 300.66 92.1519 300.706 91.8923 300.8C91.6326 300.894 91.4309 301.026 91.2873 301.198C91.1464 301.366 91.0773 301.561 91.0801 301.782ZM108.106 304.177H101.103V300.149H107.965V300.912H102.04V303.431H108.106V304.177ZM99.7772 305.552H109.316V306.307H104.973V309.92H104.07V306.307H99.7772V305.552Z" fill="#09101D"/>
<path d="M135 166C135 161.582 138.582 158 143 158H145C149.418 158 153 161.582 153 166V285H135V166Z" fill="#FFE8CE"/>
<path d="M138.363 304.682H134.062V305.718H137.137V308.047H130.946V309.108H137.452V309.837H130.043V307.359H136.233V306.431H130.018V305.718H133.142V304.682H128.866V303.936H138.363V304.682ZM130.101 299.884H137.128V303.058H130.101V299.884ZM136.209 302.32V300.622H131.004V302.32H136.209ZM144.98 301.251H140.82V303.414H144.607V304.16H140.82V306.68C141.837 306.68 142.711 306.656 143.443 306.609C144.175 306.559 144.925 306.47 145.693 306.34L145.792 307.102C145.013 307.232 144.247 307.32 143.493 307.367C142.741 307.412 141.823 307.436 140.737 307.442H139.908V300.481H144.98V301.251ZM146.928 299.536H147.848V309.953H146.928V299.536ZM159.13 306.257H156.702V310.028H155.782V306.257H152.965V310.028H152.045V306.257H149.592V305.494H159.13V306.257ZM150.097 303.539C150.73 303.448 151.337 303.256 151.92 302.963C152.503 302.667 152.976 302.304 153.337 301.873C153.702 301.442 153.884 300.986 153.884 300.506V299.909H154.837V300.506C154.837 300.978 155.02 301.431 155.384 301.865C155.752 302.296 156.227 302.66 156.81 302.959C157.395 303.257 158 303.45 158.625 303.539L158.252 304.301C157.705 304.204 157.176 304.041 156.665 303.812C156.154 303.583 155.697 303.298 155.293 302.959C154.893 302.616 154.583 302.236 154.365 301.819C154.15 302.239 153.842 302.62 153.441 302.963C153.041 303.302 152.585 303.587 152.074 303.816C151.563 304.043 151.031 304.204 150.478 304.301L150.097 303.539Z" fill="#09101D"/>
<path d="M190 275C190 270.582 193.582 267 198 267H200C204.418 267 208 270.582 208 275V285H190V275Z" fill="#BE7346"/>
<path d="M184.266 300.622C184.263 301.693 184.111 302.689 183.81 303.609C183.512 304.526 183.004 305.381 182.285 306.174C181.57 306.967 180.609 307.657 179.401 308.246L178.896 307.517C179.849 307.058 180.638 306.533 181.262 305.942C181.889 305.348 182.372 304.689 182.712 303.965L179.087 304.309L178.937 303.489L183.006 303.22C183.189 302.651 183.303 302.039 183.35 301.384H179.459V300.622H184.266ZM186.371 299.536H187.291V309.953H186.371V299.536ZM197.654 307.243H196.734V299.544H197.654V307.243ZM189.267 305.254C189.784 305.083 190.242 304.831 190.643 304.5C191.046 304.169 191.36 303.783 191.583 303.344C191.807 302.905 191.919 302.445 191.919 301.964V301.691H189.516V300.945H191.919V299.586H192.847V300.945H195.226V301.691H192.831V301.964C192.831 302.417 192.944 302.851 193.17 303.265C193.4 303.677 193.717 304.039 194.123 304.351C194.529 304.66 194.991 304.895 195.507 305.055L195.052 305.793C194.438 305.594 193.9 305.294 193.436 304.894C192.974 304.493 192.626 304.023 192.391 303.485C192.165 304.065 191.82 304.572 191.355 305.006C190.891 305.439 190.35 305.762 189.731 305.975L189.267 305.254ZM190.924 306.522H191.844V308.959H197.977V309.721H190.924V306.522ZM204.768 301.251H200.807V303.414H204.536V304.16H200.807V306.68C201.804 306.677 202.659 306.652 203.372 306.605C204.087 306.558 204.818 306.47 205.564 306.34L205.663 307.102C204.895 307.232 204.142 307.32 203.405 307.367C202.667 307.412 201.765 307.436 200.699 307.442H199.878V300.481H204.768V301.251ZM206.566 299.536H207.486V303.721H209.227V304.508H207.486V309.953H206.566V299.536ZM214.534 299.66C215.305 299.66 215.965 299.731 216.515 299.872C217.067 300.01 217.488 300.214 217.779 300.485C218.069 300.756 218.214 301.083 218.214 301.467C218.214 301.829 218.087 302.14 217.832 302.399C217.578 302.659 217.209 302.862 216.726 303.008C216.243 303.155 215.658 303.243 214.973 303.273V304.061H219.291V304.815H209.794V304.061H214.07V303.269C213.39 303.239 212.809 303.151 212.326 303.004C211.845 302.858 211.477 302.655 211.223 302.395C210.972 302.135 210.846 301.826 210.846 301.467C210.846 301.083 210.991 300.756 211.281 300.485C211.574 300.214 211.995 300.01 212.545 299.872C213.098 299.731 213.761 299.66 214.534 299.66ZM210.946 305.693H218.064V308.03H211.874V309.108H218.379V309.837H210.971V307.351H217.161V306.414H210.946V305.693ZM211.808 301.467C211.805 301.702 211.91 301.902 212.122 302.068C212.338 302.233 212.65 302.359 213.059 302.445C213.468 302.53 213.959 302.575 214.534 302.577C215.111 302.575 215.605 302.53 216.013 302.445C216.425 302.359 216.738 302.233 216.954 302.068C217.169 301.902 217.277 301.702 217.277 301.467C217.277 301.238 217.168 301.041 216.95 300.878C216.734 300.715 216.421 300.59 216.009 300.501C215.6 300.413 215.109 300.367 214.534 300.365C213.962 300.367 213.472 300.413 213.063 300.501C212.654 300.59 212.342 300.717 212.127 300.883C211.911 301.046 211.805 301.24 211.808 301.467Z" fill="#09101D"/>
<path d="M239.5 201C239.5 196.582 243.082 193 247.5 193H249.5C253.918 193 257.5 196.582 257.5 201V285H239.5V201Z" fill="#FFB25C"/>
<path d="M248.074 306.282H243.731V309.953H242.828V306.282H238.535V305.503H248.074V306.282ZM239.621 302.246C239.621 301.782 239.773 301.377 240.076 301.032C240.383 300.686 240.813 300.421 241.365 300.236C241.918 300.048 242.557 299.953 243.284 299.95C244.01 299.953 244.65 300.048 245.202 300.236C245.757 300.421 246.188 300.686 246.495 301.032C246.802 301.377 246.955 301.782 246.955 302.246C246.955 302.704 246.802 303.105 246.495 303.448C246.188 303.79 245.757 304.054 245.202 304.239C244.65 304.424 244.01 304.517 243.284 304.517C242.557 304.517 241.918 304.424 241.365 304.239C240.813 304.054 240.383 303.79 240.076 303.448C239.773 303.105 239.621 302.704 239.621 302.246ZM240.565 302.246C240.563 302.552 240.674 302.82 240.901 303.05C241.128 303.279 241.447 303.457 241.858 303.584C242.27 303.709 242.745 303.771 243.284 303.771C243.822 303.771 244.297 303.709 244.709 303.584C245.121 303.457 245.44 303.279 245.666 303.05C245.895 302.82 246.01 302.552 246.01 302.246C246.01 301.936 245.895 301.666 245.666 301.434C245.44 301.202 245.121 301.022 244.709 300.895C244.297 300.768 243.822 300.704 243.284 300.704C242.745 300.704 242.27 300.768 241.858 300.895C241.447 301.022 241.128 301.202 240.901 301.434C240.674 301.666 240.563 301.936 240.565 302.246ZM258.445 306.232H255.934V309.953H255.006V306.232H252.329V309.953H251.384V306.232H248.906V305.47H258.445V306.232ZM249.992 302.229C249.992 301.771 250.144 301.37 250.448 301.028C250.754 300.685 251.184 300.421 251.736 300.236C252.289 300.048 252.928 299.953 253.655 299.95C254.381 299.953 255.021 300.048 255.573 300.236C256.128 300.421 256.559 300.685 256.866 301.028C257.173 301.37 257.326 301.771 257.326 302.229C257.326 302.685 257.173 303.083 256.866 303.423C256.559 303.762 256.128 304.023 255.573 304.206C255.021 304.388 254.381 304.478 253.655 304.475C252.931 304.478 252.291 304.388 251.736 304.206C251.184 304.023 250.754 303.762 250.448 303.423C250.144 303.083 249.992 302.685 249.992 302.229ZM250.936 302.229C250.934 302.533 251.046 302.798 251.272 303.025C251.499 303.251 251.818 303.427 252.229 303.551C252.641 303.675 253.116 303.738 253.655 303.738C254.193 303.738 254.669 303.675 255.08 303.551C255.492 303.427 255.811 303.251 256.037 303.025C256.267 302.798 256.381 302.533 256.381 302.229C256.381 301.923 256.267 301.655 256.037 301.425C255.811 301.196 255.492 301.019 255.08 300.895C254.669 300.768 254.193 300.704 253.655 300.704C253.116 300.704 252.641 300.768 252.229 300.895C251.818 301.019 251.499 301.196 251.272 301.425C251.046 301.655 250.934 301.923 250.936 302.229Z" fill="#09101D"/>
<path d="M278.5 133C278.5 128.582 282.082 125 286.5 125H288.5C292.918 125 296.5 128.582 296.5 133V285H278.5V133Z" fill="#BE7346"/>
<path d="M281.256 302.337C281.253 302.953 281.379 303.565 281.633 304.173C281.887 304.78 282.23 305.32 282.661 305.793C283.094 306.262 283.565 306.613 284.074 306.845L283.51 307.575C283.118 307.381 282.746 307.122 282.395 306.796C282.045 306.467 281.732 306.087 281.459 305.656C281.186 305.225 280.967 304.765 280.804 304.276C280.644 304.796 280.427 305.285 280.154 305.743C279.883 306.199 279.57 306.602 279.213 306.953C278.857 307.304 278.477 307.58 278.074 307.782L277.494 307.011C278.007 306.773 278.481 306.412 278.915 305.925C279.349 305.436 279.692 304.877 279.947 304.247C280.203 303.617 280.333 302.981 280.336 302.337V300.439H281.256V302.337ZM285.217 299.536H286.137V309.97H285.217V299.536ZM296.558 305.262H295.638V302.478H293.649V301.707H295.638V299.544H296.558V305.262ZM288.345 299.975H292.986V302.785H289.282V304.227C290.221 304.224 291.033 304.202 291.718 304.16C292.406 304.119 293.119 304.039 293.856 303.92L293.931 304.682C293.163 304.804 292.42 304.885 291.702 304.927C290.986 304.968 290.138 304.989 289.157 304.989H288.37V302.072H292.091V300.729H288.345V299.975ZM289.738 305.76H290.657V307.028H295.646V305.76H296.558V309.812H289.738V305.76ZM295.646 309.058V307.765H290.657V309.058H295.646Z" fill="#09101D"/>
<path d="M323 192C323 187.582 326.582 184 331 184H333C337.418 184 341 187.582 341 192V285H323V192Z" fill="#FFB25C"/>
<path d="M322.062 304.724H326.363V305.486H316.866V304.724H321.159V303.232H322.062V304.724ZM317.396 303.025C318.01 302.959 318.59 302.82 319.137 302.61C319.684 302.398 320.128 302.133 320.471 301.815C320.814 301.494 320.996 301.146 321.018 300.771H317.736V300.025H325.51V300.771H322.211C322.231 301.144 322.41 301.49 322.75 301.811C323.093 302.131 323.537 302.398 324.084 302.61C324.634 302.82 325.217 302.959 325.833 303.025L325.493 303.754C324.913 303.682 324.362 303.552 323.84 303.365C323.32 303.177 322.866 302.936 322.477 302.644C322.087 302.351 321.8 302.018 321.615 301.645C321.427 302.018 321.138 302.351 320.749 302.644C320.359 302.936 319.905 303.177 319.385 303.365C318.866 303.552 318.316 303.682 317.736 303.754L317.396 303.025ZM318.01 308.138C318.01 307.754 318.152 307.428 318.436 307.16C318.721 306.892 319.133 306.689 319.671 306.551C320.21 306.41 320.855 306.34 321.606 306.34C322.355 306.34 322.997 306.41 323.533 306.551C324.069 306.689 324.479 306.892 324.764 307.16C325.048 307.428 325.192 307.754 325.195 308.138C325.192 308.519 325.048 308.844 324.764 309.112C324.479 309.38 324.069 309.583 323.533 309.721C322.997 309.859 322.355 309.928 321.606 309.928C320.855 309.928 320.21 309.859 319.671 309.721C319.133 309.583 318.721 309.38 318.436 309.112C318.152 308.844 318.01 308.519 318.01 308.138ZM318.946 308.138C318.943 308.365 319.047 308.558 319.257 308.718C319.467 308.878 319.771 309 320.168 309.083C320.569 309.169 321.048 309.21 321.606 309.207C322.162 309.21 322.638 309.169 323.036 309.083C323.436 309 323.742 308.878 323.952 308.718C324.164 308.558 324.272 308.365 324.275 308.138C324.272 307.912 324.164 307.718 323.952 307.558C323.742 307.395 323.436 307.272 323.036 307.189C322.638 307.104 322.162 307.061 321.606 307.061C321.048 307.061 320.569 307.104 320.168 307.189C319.771 307.272 319.467 307.395 319.257 307.558C319.047 307.718 318.943 307.912 318.946 308.138ZM335.823 309.97H334.903V299.536H335.823V309.97ZM327.627 303.97C327.627 303.243 327.738 302.606 327.962 302.059C328.189 301.512 328.504 301.09 328.907 300.791C329.31 300.493 329.77 300.343 330.287 300.34C330.801 300.343 331.258 300.493 331.658 300.791C332.062 301.09 332.377 301.514 332.603 302.064C332.832 302.61 332.947 303.246 332.947 303.97C332.947 304.696 332.832 305.334 332.603 305.884C332.377 306.434 332.062 306.858 331.658 307.156C331.255 307.452 330.798 307.599 330.287 307.599C329.77 307.599 329.31 307.452 328.907 307.156C328.504 306.858 328.189 306.435 327.962 305.888C327.738 305.338 327.627 304.699 327.627 303.97ZM328.513 303.97C328.513 304.528 328.588 305.019 328.737 305.445C328.886 305.87 329.095 306.199 329.363 306.431C329.634 306.663 329.942 306.779 330.287 306.779C330.632 306.779 330.937 306.663 331.203 306.431C331.471 306.199 331.679 305.87 331.828 305.445C331.977 305.019 332.052 304.528 332.052 303.97C332.052 303.414 331.977 302.925 331.828 302.503C331.679 302.077 331.471 301.749 331.203 301.517C330.937 301.282 330.632 301.163 330.287 301.16C329.942 301.163 329.634 301.282 329.363 301.517C329.095 301.749 328.886 302.077 328.737 302.503C328.588 302.925 328.513 303.414 328.513 303.97ZM346.244 305.246H345.324V303.008H343.012V302.254H345.324V299.536H346.244V305.246ZM341.777 301.977C341.923 301.62 342.013 301.246 342.046 300.854H338.354V300.099H343.028C343.023 301.436 342.626 302.566 341.839 303.489C341.052 304.412 339.86 305.11 338.263 305.586L337.89 304.84C339.564 304.354 340.735 303.627 341.404 302.66L337.989 302.917L337.832 302.155L341.777 301.977ZM339.506 305.776H340.409V307.028H345.332V305.776H346.244V309.812H339.506V305.776ZM345.332 309.058V307.765H340.409V309.058H345.332Z" fill="#09101D"/>
<path d="M378 231C378 226.582 381.582 223 386 223H388C392.418 223 396 226.582 396 231V285H378V231Z" fill="#FFE8CE"/>
<path d="M376.178 305.685H366.68V304.923H370.973V303.671H367.94V299.776H368.86V300.986H374.015V299.776H374.935V303.671H371.885V304.923H376.178V305.685ZM367.733 306.713H375.001V309.953H374.073V307.459H367.733V306.713ZM374.015 302.925V301.691H368.86V302.925H374.015ZM380.549 302.337C380.546 302.934 380.665 303.529 380.905 304.123C381.145 304.717 381.471 305.249 381.883 305.718C382.297 306.188 382.75 306.544 383.242 306.787L382.67 307.525C382.292 307.326 381.936 307.062 381.601 306.733C381.27 306.402 380.976 306.025 380.719 305.602C380.465 305.177 380.26 304.724 380.105 304.243C379.951 304.751 379.742 305.232 379.48 305.685C379.22 306.138 378.919 306.54 378.576 306.891C378.234 307.239 377.869 307.517 377.482 307.724L376.902 306.986C377.402 306.738 377.861 306.367 378.278 305.876C378.695 305.381 379.025 304.823 379.268 304.202C379.512 303.58 379.634 302.959 379.637 302.337V300.439H380.549V302.337ZM384.195 299.536H385.115V303.762H386.855V304.558H385.115V309.953H384.195V299.536ZM396.92 305.445H387.423V304.691H389.776V303.22C389.356 303.057 389.035 302.844 388.811 302.581C388.587 302.316 388.475 302.011 388.475 301.666C388.475 301.262 388.623 300.916 388.919 300.626C389.217 300.336 389.642 300.115 390.195 299.963C390.75 299.811 391.406 299.735 392.163 299.735C392.917 299.735 393.57 299.811 394.123 299.963C394.675 300.115 395.099 300.336 395.395 300.626C395.693 300.916 395.843 301.262 395.843 301.666C395.843 302.011 395.732 302.315 395.511 302.577C395.29 302.84 394.972 303.051 394.558 303.211V304.691H396.92V305.445ZM388.566 308.08C388.566 307.688 388.709 307.355 388.993 307.081C389.278 306.805 389.689 306.597 390.228 306.456C390.767 306.315 391.412 306.246 392.163 306.249C392.909 306.246 393.55 306.315 394.086 306.456C394.622 306.597 395.032 306.805 395.316 307.081C395.604 307.355 395.749 307.688 395.751 308.08C395.749 308.475 395.604 308.811 395.316 309.087C395.032 309.363 394.622 309.572 394.086 309.713C393.55 309.856 392.909 309.928 392.163 309.928C391.412 309.928 390.767 309.856 390.228 309.713C389.689 309.572 389.278 309.363 388.993 309.087C388.709 308.811 388.566 308.475 388.566 308.08ZM389.428 301.666C389.425 301.917 389.533 302.134 389.751 302.316C389.972 302.496 390.287 302.633 390.696 302.727C391.108 302.82 391.597 302.867 392.163 302.867C392.727 302.867 393.214 302.82 393.626 302.727C394.037 302.633 394.354 302.496 394.575 302.316C394.796 302.134 394.906 301.917 394.906 301.666C394.906 301.417 394.794 301.202 394.57 301.019C394.349 300.837 394.033 300.698 393.622 300.601C393.21 300.504 392.724 300.456 392.163 300.456C391.599 300.456 391.112 300.504 390.7 300.601C390.289 300.698 389.972 300.837 389.751 301.019C389.533 301.202 389.425 301.417 389.428 301.666ZM389.503 308.08C389.5 308.315 389.604 308.518 389.814 308.689C390.026 308.86 390.333 308.99 390.733 309.079C391.134 309.167 391.61 309.21 392.163 309.207C392.713 309.21 393.186 309.167 393.584 309.079C393.985 308.99 394.291 308.86 394.504 308.689C394.72 308.518 394.829 308.315 394.831 308.08C394.829 307.848 394.72 307.648 394.504 307.479C394.291 307.311 393.985 307.182 393.584 307.094C393.186 307.003 392.713 306.956 392.163 306.953C391.61 306.956 391.134 307.003 390.733 307.094C390.333 307.182 390.026 307.311 389.814 307.479C389.604 307.648 389.5 307.848 389.503 308.08ZM393.646 304.691V303.46C393.199 303.54 392.704 303.58 392.163 303.58C391.613 303.58 391.124 303.541 390.696 303.464V304.691H393.646ZM401.523 302.735C401.523 303.309 401.65 303.881 401.904 304.45C402.158 305.017 402.501 305.522 402.932 305.967C403.363 306.409 403.832 306.74 404.341 306.961L403.827 307.691C403.424 307.506 403.042 307.254 402.683 306.936C402.324 306.619 402.005 306.253 401.726 305.838C401.45 305.421 401.232 304.975 401.071 304.5C400.908 305.003 400.689 305.481 400.413 305.934C400.136 306.384 399.82 306.783 399.464 307.131C399.107 307.479 398.733 307.751 398.341 307.948L397.794 307.218C398.288 306.983 398.75 306.626 399.178 306.145C399.606 305.664 399.948 305.123 400.205 304.521C400.462 303.916 400.592 303.32 400.595 302.735V301.376H398.134V300.605H404.001V301.376H401.523V302.735ZM405.459 299.536H406.379V309.953H405.459V299.536Z" fill="#09101D"/>
<path d="M427.5 172C427.5 167.582 431.082 164 435.5 164H437.5C441.918 164 445.5 167.582 445.5 172V285H427.5V172Z" fill="#BE7346"/>
<path d="M432.295 301.251H428.134V303.414H431.922V304.16H428.134V306.68C429.151 306.68 430.025 306.656 430.757 306.609C431.489 306.559 432.239 306.47 433.007 306.34L433.107 307.102C432.328 307.232 431.561 307.32 430.807 307.367C430.056 307.412 429.137 307.436 428.052 307.442H427.223V300.481H432.295V301.251ZM434.242 299.536H435.162V309.953H434.242V299.536ZM446.445 306.257H444.017V310.028H443.097V306.257H440.279V310.028H439.359V306.257H436.906V305.494H446.445V306.257ZM437.412 303.539C438.044 303.448 438.652 303.256 439.235 302.963C439.818 302.667 440.29 302.304 440.652 301.873C441.017 301.442 441.199 300.986 441.199 300.506V299.909H442.152V300.506C442.152 300.978 442.334 301.431 442.699 301.865C443.066 302.296 443.541 302.66 444.124 302.959C444.71 303.257 445.315 303.45 445.939 303.539L445.566 304.301C445.019 304.204 444.49 304.041 443.979 303.812C443.468 303.583 443.011 303.298 442.608 302.959C442.207 302.616 441.898 302.236 441.68 301.819C441.464 302.239 441.156 302.62 440.756 302.963C440.355 303.302 439.899 303.587 439.388 303.816C438.877 304.043 438.345 304.204 437.793 304.301L437.412 303.539Z" fill="#09101D"/>
<path d="M472 192C472 187.582 475.582 184 480 184H482C486.418 184 490 187.582 490 192V285H472V192Z" fill="#FFB25C"/>
<path d="M469.57 302.337C469.568 302.953 469.693 303.565 469.948 304.173C470.202 304.78 470.544 305.32 470.975 305.793C471.409 306.262 471.88 306.613 472.388 306.845L471.825 307.575C471.432 307.381 471.061 307.122 470.71 306.796C470.359 306.467 470.047 306.087 469.773 305.656C469.5 305.225 469.282 304.765 469.119 304.276C468.959 304.796 468.742 305.285 468.468 305.743C468.198 306.199 467.884 306.602 467.528 306.953C467.171 307.304 466.791 307.58 466.388 307.782L465.808 307.011C466.322 306.773 466.796 306.412 467.229 305.925C467.663 305.436 468.007 304.877 468.261 304.247C468.518 303.617 468.648 302.981 468.651 302.337V300.439H469.57V302.337ZM473.532 299.536H474.452V309.97H473.532V299.536ZM484.839 309.97H483.928V299.536H484.839V309.97ZM476.826 300.506H481.674V304.21H477.787V306.671C478.729 306.669 479.599 306.641 480.397 306.588C481.198 306.533 482.038 306.434 482.917 306.29L483.008 307.061C482.105 307.204 481.24 307.304 480.414 307.359C479.588 307.414 478.687 307.442 477.712 307.442H476.842V303.456H480.745V301.268H476.826V300.506ZM495.235 304.84H494.324V302.627H492.14C492.076 303.022 491.923 303.372 491.68 303.675C491.437 303.979 491.125 304.215 490.744 304.384C490.362 304.55 489.94 304.633 489.476 304.633C488.959 304.633 488.495 304.532 488.083 304.33C487.672 304.128 487.35 303.847 487.118 303.485C486.886 303.123 486.771 302.713 486.774 302.254C486.771 301.798 486.886 301.392 487.118 301.036C487.35 300.677 487.672 300.398 488.083 300.199C488.495 300 488.959 299.901 489.476 299.901C489.937 299.901 490.357 299.982 490.735 300.145C491.114 300.308 491.424 300.537 491.668 300.833C491.913 301.128 492.07 301.47 492.136 301.856H494.324V299.536H495.235V304.84ZM487.652 302.254C487.652 302.566 487.73 302.845 487.884 303.091C488.042 303.334 488.259 303.525 488.535 303.663C488.811 303.801 489.125 303.87 489.476 303.87C489.818 303.87 490.126 303.801 490.4 303.663C490.676 303.525 490.891 303.333 491.046 303.087C491.204 302.841 491.282 302.564 491.282 302.254C491.282 301.95 491.204 301.677 491.046 301.434C490.891 301.191 490.676 301.001 490.4 300.866C490.123 300.728 489.815 300.66 489.476 300.663C489.128 300.66 488.814 300.728 488.535 300.866C488.259 301.001 488.042 301.191 487.884 301.434C487.73 301.674 487.652 301.948 487.652 302.254ZM488.481 305.42H495.235V307.906H489.418V309.066H495.633V309.812H488.506V307.21H494.324V306.149H488.481V305.42Z" fill="#09101D"/>
<path d="M516.5 213C516.5 208.582 520.082 205 524.5 205H526.5C530.918 205 534.5 208.582 534.5 213V285H516.5V213Z" fill="#FFE8CE"/>
<path d="M520.748 301.069C520.748 301.638 520.938 302.186 521.32 302.714C521.701 303.242 522.19 303.689 522.786 304.057C523.383 304.424 523.988 304.666 524.601 304.782L524.17 305.552C523.637 305.428 523.114 305.225 522.6 304.943C522.086 304.662 521.623 304.315 521.212 303.903C520.803 303.489 520.489 303.035 520.271 302.54C520.053 303.032 519.739 303.485 519.331 303.899C518.922 304.311 518.459 304.659 517.942 304.943C517.429 305.225 516.905 305.428 516.372 305.552L515.949 304.782C516.563 304.663 517.165 304.421 517.756 304.057C518.35 303.689 518.836 303.243 519.215 302.718C519.593 302.191 519.784 301.641 519.786 301.069V300.265H520.748V301.069ZM515.552 307.765H525.09V308.536H515.552V307.765ZM534.508 300.779H532.909V303.215H534.475V303.961H526.843V303.215H528.417V300.779H526.809V300.025H534.508V300.779ZM525.906 305.047H535.445V305.809H531.202V307.823H530.29V305.809H525.906V305.047ZM527.133 306.804H528.052V308.959H534.384V309.721H527.133V306.804ZM531.989 303.215V300.779H529.329V303.215H531.989Z" fill="#09101D"/>
<path d="M4.06913 42.116C3.51111 42.116 3.01111 42.0221 2.56913 41.8343C2.12714 41.6464 1.77769 41.3826 1.52078 41.0428C1.26664 40.703 1.1299 40.3122 1.11056 39.8702H2.17962C2.19896 40.1326 2.29288 40.3633 2.46139 40.5622C2.6299 40.7583 2.85227 40.9102 3.12852 41.018C3.40752 41.1257 3.71553 41.1796 4.05255 41.1796C4.42272 41.1796 4.75421 41.1174 5.04703 40.9931C5.33984 40.866 5.56913 40.6892 5.73487 40.4627C5.90062 40.2362 5.98349 39.9779 5.98349 39.6878C5.98349 39.3785 5.902 39.105 5.73902 38.8674C5.57879 38.6298 5.34399 38.4448 5.0346 38.3122C4.7252 38.1796 4.35366 38.1133 3.91995 38.1133H3.23211V37.1851H3.91995C4.2625 37.1851 4.56636 37.1243 4.83156 37.0028C5.09951 36.8812 5.30669 36.7113 5.4531 36.4931C5.60228 36.2721 5.67686 36.0166 5.67686 35.7265C5.67686 35.4475 5.61194 35.2017 5.48211 34.989C5.35227 34.7762 5.16719 34.6119 4.92686 34.4959C4.68653 34.3771 4.40614 34.3177 4.0857 34.3177C3.78183 34.3177 3.49592 34.3715 3.22797 34.4793C2.96277 34.587 2.7473 34.7417 2.58156 34.9434C2.41581 35.1423 2.32603 35.3757 2.31222 35.6436H1.29288C1.30946 35.2072 1.44482 34.8191 1.69896 34.4793C1.9531 34.1367 2.2915 33.8715 2.71415 33.6837C3.13681 33.4931 3.59951 33.3978 4.10227 33.3978C4.62437 33.3978 5.08156 33.5014 5.47382 33.7086C5.86885 33.9157 6.17134 34.1934 6.38128 34.5414C6.59399 34.8895 6.69896 35.268 6.6962 35.6768C6.69896 35.9917 6.64233 36.279 6.52631 36.5387C6.41029 36.7983 6.24316 37.018 6.02493 37.1975C5.80669 37.3771 5.54979 37.5083 5.25421 37.5912V37.6575C5.61885 37.7127 5.93377 37.8329 6.19896 38.018C6.46692 38.2003 6.67134 38.4365 6.81222 38.7265C6.9531 39.0138 7.02216 39.337 7.0194 39.6961C7.02216 40.1519 6.89509 40.5649 6.63819 40.9351C6.38404 41.3025 6.03045 41.5912 5.57741 41.8011C5.12714 42.011 4.62437 42.116 4.06913 42.116ZM11.3179 42.116C10.6936 42.116 10.1591 41.9461 9.71433 41.6064C9.27234 41.2638 8.93394 40.7666 8.69913 40.1146C8.46709 39.4627 8.35107 38.6768 8.35107 37.7569C8.35107 36.8453 8.46847 36.0635 8.70328 35.4116C8.93808 34.7569 9.27786 34.2583 9.72261 33.9157C10.1674 33.5704 10.6991 33.3978 11.3179 33.3978C11.9367 33.3978 12.4685 33.5704 12.9132 33.9157C13.358 34.2583 13.6978 34.7569 13.9326 35.4116C14.1674 36.0635 14.2848 36.8453 14.2848 37.7569C14.2848 38.6768 14.1674 39.4627 13.9326 40.1146C13.7005 40.7666 13.3621 41.2638 12.9174 41.6064C12.4754 41.9461 11.9422 42.116 11.3179 42.116ZM9.37869 37.7569C9.37869 38.4834 9.45466 39.1036 9.60659 39.6174C9.75852 40.1285 9.97952 40.5166 10.2696 40.7818C10.5596 41.047 10.9091 41.1796 11.3179 41.1796C11.7268 41.1796 12.0762 41.047 12.3663 40.7818C12.6563 40.5166 12.8773 40.1285 13.0292 39.6174C13.1812 39.1036 13.2571 38.4834 13.2571 37.7569C13.2571 37.0304 13.1798 36.4102 13.0251 35.8964C12.8732 35.3798 12.6522 34.9876 12.3621 34.7196C12.0721 34.4517 11.724 34.3177 11.3179 34.3177C10.9118 34.3177 10.5638 34.4517 10.2737 34.7196C9.98366 34.9876 9.76129 35.3798 9.60659 35.8964C9.45466 36.4102 9.37869 37.0304 9.37869 37.7569ZM23.5913 38.279H18.7764V33.4807H23.5913V38.279ZM22.6963 37.5331V34.2348H19.6714V37.5331H22.6963ZM19.9532 39.4475H20.8648V41.9586H26.956V42.721H19.9532V39.4475ZM25.5554 32.5276H26.4753V35.7017H28.0416V36.4807H26.4753V40.1685H25.5554V32.5276ZM40.2974 40.4586H39.3692V39.3729H37.2228V38.7017H39.3692V32.5442H40.2974V40.4586ZM31.6537 37.3674C33.0294 37.3619 34.2573 37.3412 35.3374 37.3052C36.4203 37.2666 37.452 37.1851 38.4327 37.0608L38.499 37.732C37.6344 37.8702 36.6786 37.971 35.6316 38.0345V40.0939H34.7117V38.0801C34.0018 38.1077 33.1924 38.1215 32.2835 38.1215H31.778L31.6537 37.3674ZM32.4907 34.7818C32.4907 34.4227 32.5985 34.1064 32.8139 33.8329C33.0294 33.5566 33.3333 33.3439 33.7255 33.1948C34.1178 33.0428 34.5681 32.9669 35.0764 32.9669C35.5791 32.9669 36.0253 33.0428 36.4148 33.1948C36.8043 33.3439 37.1067 33.5566 37.3222 33.8329C37.5404 34.1064 37.6509 34.4227 37.6537 34.7818C37.6509 35.1464 37.5404 35.4655 37.3222 35.739C37.1067 36.0097 36.8043 36.2196 36.4148 36.3688C36.028 36.5152 35.5819 36.5884 35.0764 36.5884C34.5653 36.5884 34.1136 36.5152 33.7214 36.3688C33.3319 36.2224 33.0294 36.0124 32.8139 35.739C32.5985 35.4655 32.4907 35.1464 32.4907 34.7818ZM33.1537 39.6796H34.0736V41.9586H40.5543V42.721H33.1537V39.6796ZM33.3692 34.7818C33.3664 35.0055 33.4355 35.2017 33.5764 35.3702C33.72 35.5387 33.9217 35.6699 34.1813 35.7638C34.441 35.855 34.7393 35.9006 35.0764 35.9006C35.4023 35.9006 35.6938 35.855 35.9507 35.7638C36.2076 35.6699 36.4078 35.5387 36.5515 35.3702C36.6979 35.2017 36.7725 35.0055 36.7753 34.7818C36.7725 34.5608 36.6979 34.366 36.5515 34.1975C36.4078 34.0262 36.2076 33.8936 35.9507 33.7997C35.6938 33.7058 35.4023 33.6602 35.0764 33.663C34.7393 33.6602 34.441 33.7058 34.1813 33.7997C33.9217 33.8936 33.72 34.0262 33.5764 34.1975C33.4355 34.366 33.3664 34.5608 33.3692 34.7818Z" fill="#09101D"/>
<path d="M1.80292 83.2293L4.69518 80.1796C5.0764 79.7735 5.36645 79.4475 5.56535 79.2017C5.76701 78.953 5.92032 78.7141 6.02529 78.4848C6.13027 78.2528 6.18413 78.011 6.1869 77.7597C6.18413 77.4724 6.10817 77.2196 5.959 77.0014C5.81259 76.7831 5.61093 76.6146 5.35402 76.4959C5.09988 76.3771 4.81397 76.3177 4.49629 76.3177C4.1648 76.3177 3.87336 76.384 3.62198 76.5166C3.37336 76.6492 3.18137 76.8356 3.04601 77.076C2.91342 77.3163 2.84712 77.5939 2.84712 77.9088H1.84435C1.84159 77.4171 1.95623 76.982 2.18828 76.6036C2.42308 76.2224 2.74491 75.9268 3.15375 75.7169C3.56259 75.5041 4.02115 75.3978 4.52944 75.3978C5.0322 75.3978 5.48386 75.5028 5.88441 75.7127C6.28772 75.9199 6.60264 76.203 6.82916 76.5622C7.05568 76.9213 7.17032 77.3204 7.17308 77.7597C7.17032 78.0829 7.10955 78.3923 6.99076 78.6878C6.87474 78.9807 6.67723 79.3066 6.39822 79.6657C6.12198 80.0249 5.72833 80.4669 5.21728 80.9917L3.27806 82.9972V83.0635H7.32226V84H1.81121L1.80292 83.2293ZM11.6221 84.116C11.1166 84.116 10.658 84.0193 10.2464 83.826C9.83484 83.6326 9.50611 83.366 9.26025 83.0262C9.01716 82.6837 8.88456 82.2983 8.86246 81.8702H9.89009C9.91495 82.1188 10.0061 82.3439 10.1636 82.5456C10.3238 82.7445 10.531 82.9019 10.7851 83.018C11.042 83.1312 11.321 83.1878 11.6221 83.1878C11.984 83.1878 12.3086 83.1064 12.5959 82.9434C12.8859 82.7804 13.1125 82.5566 13.2754 82.2721C13.4384 81.9876 13.5199 81.6685 13.5199 81.3149C13.5199 80.953 13.4343 80.6271 13.263 80.337C13.0945 80.0442 12.8597 79.8149 12.5586 79.6492C12.2603 79.4807 11.9232 79.395 11.5475 79.3923C10.7906 79.384 10.263 79.6381 9.96467 80.1547H8.94533L9.54202 75.5138H14.1415V76.4503H10.4205L10.1056 78.9365H10.1967C10.3873 78.7873 10.618 78.6685 10.8887 78.5801C11.1622 78.4917 11.4453 78.4475 11.7382 78.4475C12.2713 78.4475 12.7506 78.5704 13.176 78.8163C13.6042 79.0594 13.9398 79.3978 14.1829 79.8315C14.426 80.2624 14.5475 80.7486 14.5475 81.2901C14.5475 81.8287 14.4219 82.3135 14.1705 82.7445C13.9191 83.1727 13.571 83.5083 13.1263 83.7514C12.6815 83.9945 12.1801 84.116 11.6221 84.116ZM23.9156 80.279H19.1006V75.4807H23.9156V80.279ZM23.0205 79.5331V76.2348H19.9957V79.5331H23.0205ZM20.2774 81.4475H21.189V83.9586H27.2802V84.721H20.2774V81.4475ZM25.8796 74.5276H26.7995V77.7017H28.3658V78.4807H26.7995V82.1685H25.8796V74.5276ZM40.6216 82.4586H39.6934V81.3729H37.547V80.7017H39.6934V74.5442H40.6216V82.4586ZM31.9779 79.3674C33.3536 79.3619 34.5815 79.3412 35.6616 79.3052C36.7445 79.2666 37.7763 79.1851 38.7569 79.0608L38.8232 79.732C37.9586 79.8702 37.0028 79.971 35.9558 80.0345V82.0939H35.0359V80.0801C34.326 80.1077 33.5166 80.1215 32.6078 80.1215H32.1022L31.9779 79.3674ZM32.8149 76.7818C32.8149 76.4227 32.9227 76.1064 33.1381 75.8329C33.3536 75.5566 33.6575 75.3439 34.0497 75.1948C34.442 75.0428 34.8923 74.9669 35.4006 74.9669C35.9033 74.9669 36.3495 75.0428 36.739 75.1948C37.1285 75.3439 37.431 75.5566 37.6464 75.8329C37.8647 76.1064 37.9752 76.4227 37.9779 76.7818C37.9752 77.1464 37.8647 77.4655 37.6464 77.739C37.431 78.0097 37.1285 78.2196 36.739 78.3688C36.3522 78.5152 35.9061 78.5884 35.4006 78.5884C34.8895 78.5884 34.4379 78.5152 34.0456 78.3688C33.6561 78.2224 33.3536 78.0124 33.1381 77.739C32.9227 77.4655 32.8149 77.1464 32.8149 76.7818ZM33.4779 81.6796H34.3978V83.9586H40.8785V84.721H33.4779V81.6796ZM33.6934 76.7818C33.6906 77.0055 33.7597 77.2017 33.9006 77.3702C34.0442 77.5387 34.2459 77.6699 34.5055 77.7638C34.7652 77.855 35.0636 77.9006 35.4006 77.9006C35.7265 77.9006 36.018 77.855 36.2749 77.7638C36.5318 77.6699 36.7321 77.5387 36.8757 77.3702C37.0221 77.2017 37.0967 77.0055 37.0995 76.7818C37.0967 76.5608 37.0221 76.366 36.8757 76.1975C36.7321 76.0262 36.5318 75.8936 36.2749 75.7997C36.018 75.7058 35.7265 75.6602 35.4006 75.663C35.0636 75.6602 34.7652 75.7058 34.5055 75.7997C34.2459 75.8936 34.0442 76.0262 33.9006 76.1975C33.7597 76.366 33.6906 76.5608 33.6934 76.7818Z" fill="#09101D"/>
<path d="M1.80878 125.229L4.70104 122.18C5.08226 121.773 5.37231 121.448 5.57121 121.202C5.77287 120.953 5.92618 120.714 6.03115 120.485C6.13613 120.253 6.18999 120.011 6.19276 119.76C6.18999 119.472 6.11403 119.22 5.96485 119.001C5.81845 118.783 5.61679 118.615 5.35988 118.496C5.10574 118.377 4.81983 118.318 4.50215 118.318C4.17066 118.318 3.87922 118.384 3.62784 118.517C3.37922 118.649 3.18723 118.836 3.05187 119.076C2.91927 119.316 2.85298 119.594 2.85298 119.909H1.85021C1.84745 119.417 1.96209 118.982 2.19414 118.604C2.42894 118.222 2.75077 117.927 3.15961 117.717C3.56845 117.504 4.02701 117.398 4.5353 117.398C5.03806 117.398 5.48972 117.503 5.89027 117.713C6.29358 117.92 6.6085 118.203 6.83502 118.562C7.06154 118.921 7.17618 119.32 7.17894 119.76C7.17618 120.083 7.11541 120.392 6.99662 120.688C6.8806 120.981 6.68309 121.307 6.40408 121.666C6.12784 122.025 5.73419 122.467 5.22314 122.992L3.28392 124.997V125.064H7.32811V126H1.81706L1.80878 125.229ZM11.6363 126.116C11.012 126.116 10.4774 125.946 10.0327 125.606C9.5907 125.264 9.2523 124.767 9.01749 124.115C8.78545 123.463 8.66943 122.677 8.66943 121.757C8.66943 120.845 8.78683 120.064 9.02164 119.412C9.25644 118.757 9.59622 118.258 10.041 117.916C10.4857 117.57 11.0175 117.398 11.6363 117.398C12.2551 117.398 12.7868 117.57 13.2316 117.916C13.6763 118.258 14.0161 118.757 14.2509 119.412C14.4857 120.064 14.6031 120.845 14.6031 121.757C14.6031 122.677 14.4857 123.463 14.2509 124.115C14.0189 124.767 13.6805 125.264 13.2357 125.606C12.7937 125.946 12.2606 126.116 11.6363 126.116ZM9.69705 121.757C9.69705 122.483 9.77302 123.104 9.92495 123.617C10.0769 124.128 10.2979 124.517 10.5879 124.782C10.878 125.047 11.2274 125.18 11.6363 125.18C12.0451 125.18 12.3946 125.047 12.6846 124.782C12.9747 124.517 13.1957 124.128 13.3476 123.617C13.4995 123.104 13.5755 122.483 13.5755 121.757C13.5755 121.03 13.4982 120.41 13.3435 119.896C13.1915 119.38 12.9705 118.988 12.6805 118.72C12.3904 118.452 12.0424 118.318 11.6363 118.318C11.2302 118.318 10.8821 118.452 10.5921 118.72C10.302 118.988 10.0796 119.38 9.92495 119.896C9.77302 120.41 9.69705 121.03 9.69705 121.757ZM23.9097 122.279H19.0948V117.481H23.9097V122.279ZM23.0147 121.533V118.235H19.9898V121.533H23.0147ZM20.2716 123.448H21.1832V125.959H27.2743V126.721H20.2716V123.448ZM25.8738 116.528H26.7937V119.702H28.36V120.481H26.7937V124.169H25.8738V116.528ZM40.6157 124.459H39.6875V123.373H37.5411V122.702H39.6875V116.544H40.6157V124.459ZM31.9721 121.367C33.3478 121.362 34.5757 121.341 35.6558 121.305C36.7386 121.267 37.7704 121.185 38.7511 121.061L38.8174 121.732C37.9527 121.87 36.9969 121.971 35.95 122.035V124.094H35.0301V122.08C34.3201 122.108 33.5107 122.122 32.6019 122.122H32.0964L31.9721 121.367ZM32.8091 118.782C32.8091 118.423 32.9168 118.106 33.1323 117.833C33.3478 117.557 33.6516 117.344 34.0439 117.195C34.4362 117.043 34.8864 116.967 35.3947 116.967C35.8975 116.967 36.3436 117.043 36.7331 117.195C37.1226 117.344 37.4251 117.557 37.6406 117.833C37.8588 118.106 37.9693 118.423 37.9721 118.782C37.9693 119.146 37.8588 119.465 37.6406 119.739C37.4251 120.01 37.1226 120.22 36.7331 120.369C36.3464 120.515 35.9002 120.588 35.3947 120.588C34.8837 120.588 34.432 120.515 34.0397 120.369C33.6502 120.222 33.3478 120.012 33.1323 119.739C32.9168 119.465 32.8091 119.146 32.8091 118.782ZM33.4721 123.68H34.392V125.959H40.8726V126.721H33.4721V123.68ZM33.6875 118.782C33.6848 119.006 33.7538 119.202 33.8947 119.37C34.0384 119.539 34.24 119.67 34.4997 119.764C34.7594 119.855 35.0577 119.901 35.3947 119.901C35.7207 119.901 36.0121 119.855 36.269 119.764C36.5259 119.67 36.7262 119.539 36.8699 119.37C37.0163 119.202 37.0908 119.006 37.0936 118.782C37.0908 118.561 37.0163 118.366 36.8699 118.198C36.7262 118.026 36.5259 117.894 36.269 117.8C36.0121 117.706 35.7207 117.66 35.3947 117.663C35.0577 117.66 34.7594 117.706 34.4997 117.8C34.24 117.894 34.0384 118.026 33.8947 118.198C33.7538 118.366 33.6848 118.561 33.6875 118.782Z" fill="#09101D"/>
<path d="M6.20183 168H5.14106V160.616H5.09133L3.0278 161.983V160.923L5.14106 159.514H6.20183V168ZM11.2315 168.116C10.726 168.116 10.2674 168.019 9.85581 167.826C9.44421 167.633 9.11548 167.366 8.86963 167.026C8.62653 166.684 8.49394 166.298 8.47184 165.87H9.49946C9.52432 166.119 9.61548 166.344 9.77294 166.546C9.93316 166.744 10.1403 166.902 10.3945 167.018C10.6514 167.131 10.9304 167.188 11.2315 167.188C11.5934 167.188 11.918 167.106 12.2053 166.943C12.4953 166.78 12.7218 166.557 12.8848 166.272C13.0478 165.988 13.1293 165.669 13.1293 165.315C13.1293 164.953 13.0437 164.627 12.8724 164.337C12.7039 164.044 12.4691 163.815 12.168 163.649C11.8696 163.481 11.5326 163.395 11.1569 163.392C10.4 163.384 9.87239 163.638 9.57405 164.155H8.55471L9.15139 159.514H13.7508V160.45H10.0298L9.71493 162.936H9.80609C9.9967 162.787 10.2274 162.669 10.4981 162.58C10.7716 162.492 11.0547 162.448 11.3475 162.448C11.8807 162.448 12.36 162.57 12.7854 162.816C13.2135 163.059 13.5492 163.398 13.7923 163.831C14.0354 164.262 14.1569 164.749 14.1569 165.29C14.1569 165.829 14.0312 166.314 13.7798 166.744C13.5285 167.173 13.1804 167.508 12.7356 167.751C12.2909 167.994 11.7895 168.116 11.2315 168.116ZM23.5249 164.279H18.71V159.481H23.5249V164.279ZM22.6299 163.533V160.235H19.605V163.533H22.6299ZM19.8868 165.448H20.7984V167.959H26.8896V168.721H19.8868V165.448ZM25.489 158.528H26.4089V161.702H27.9752V162.481H26.4089V166.169H25.489V158.528ZM40.2309 166.459H39.3028V165.373H37.1564V164.702H39.3028V158.544H40.2309V166.459ZM31.5873 163.367C32.963 163.362 34.1909 163.341 35.271 163.305C36.3539 163.267 37.3856 163.185 38.3663 163.061L38.4326 163.732C37.568 163.87 36.6122 163.971 35.5652 164.035V166.094H34.6453V164.08C33.9354 164.108 33.126 164.122 32.2171 164.122H31.7116L31.5873 163.367ZM32.4243 160.782C32.4243 160.423 32.532 160.106 32.7475 159.833C32.963 159.557 33.2669 159.344 33.6591 159.195C34.0514 159.043 34.5017 158.967 35.0099 158.967C35.5127 158.967 35.9588 159.043 36.3483 159.195C36.7378 159.344 37.0403 159.557 37.2558 159.833C37.474 160.106 37.5845 160.423 37.5873 160.782C37.5845 161.146 37.474 161.465 37.2558 161.739C37.0403 162.01 36.7378 162.22 36.3483 162.369C35.9616 162.515 35.5155 162.588 35.0099 162.588C34.4989 162.588 34.0472 162.515 33.655 162.369C33.2655 162.222 32.963 162.012 32.7475 161.739C32.532 161.465 32.4243 161.146 32.4243 160.782ZM33.0873 165.68H34.0072V167.959H40.4879V168.721H33.0873V165.68ZM33.3028 160.782C33.3 161.006 33.3691 161.202 33.5099 161.37C33.6536 161.539 33.8553 161.67 34.1149 161.764C34.3746 161.855 34.6729 161.901 35.0099 161.901C35.3359 161.901 35.6274 161.855 35.8843 161.764C36.1412 161.67 36.3414 161.539 36.4851 161.37C36.6315 161.202 36.7061 161.006 36.7088 160.782C36.7061 160.561 36.6315 160.366 36.4851 160.198C36.3414 160.026 36.1412 159.894 35.8843 159.8C35.6274 159.706 35.3359 159.66 35.0099 159.663C34.6729 159.66 34.3746 159.706 34.1149 159.8C33.8553 159.894 33.6536 160.026 33.5099 160.198C33.3691 160.366 33.3 160.561 33.3028 160.782Z" fill="#09101D"/>
<path d="M6.20769 210H5.14692V202.616H5.09719L3.03366 203.983V202.923L5.14692 201.514H6.20769V210ZM11.2457 210.116C10.6213 210.116 10.0868 209.946 9.64206 209.606C9.20007 209.264 8.86167 208.767 8.62687 208.115C8.39482 207.463 8.2788 206.677 8.2788 205.757C8.2788 204.845 8.3962 204.064 8.63101 203.412C8.86582 202.757 9.2056 202.258 9.65035 201.916C10.0951 201.57 10.6269 201.398 11.2457 201.398C11.8644 201.398 12.3962 201.57 12.841 201.916C13.2857 202.258 13.6255 202.757 13.8603 203.412C14.0951 204.064 14.2125 204.845 14.2125 205.757C14.2125 206.677 14.0951 207.463 13.8603 208.115C13.6282 208.767 13.2899 209.264 12.8451 209.606C12.4031 209.946 11.87 210.116 11.2457 210.116ZM9.30642 205.757C9.30642 206.483 9.38239 207.104 9.53433 207.617C9.68626 208.128 9.90725 208.517 10.1973 208.782C10.4874 209.047 10.8368 209.18 11.2457 209.18C11.6545 209.18 12.0039 209.047 12.294 208.782C12.584 208.517 12.805 208.128 12.957 207.617C13.1089 207.104 13.1849 206.483 13.1849 205.757C13.1849 205.03 13.1075 204.41 12.9528 203.896C12.8009 203.38 12.5799 202.988 12.2899 202.72C11.9998 202.452 11.6517 202.318 11.2457 202.318C10.8396 202.318 10.4915 202.452 10.2015 202.72C9.9114 202.988 9.68902 203.38 9.53433 203.896C9.38239 204.41 9.30642 205.03 9.30642 205.757ZM23.5191 206.279H18.7042V201.481H23.5191V206.279ZM22.624 205.533V202.235H19.5992V205.533H22.624ZM19.8809 207.448H20.7925V209.959H26.8837V210.721H19.8809V207.448ZM25.4832 200.528H26.403V203.702H27.9693V204.481H26.403V208.169H25.4832V200.528ZM40.2251 208.459H39.2969V207.373H37.1505V206.702H39.2969V200.544H40.2251V208.459ZM31.5814 205.367C32.9571 205.362 34.185 205.341 35.2651 205.305C36.348 205.267 37.3798 205.185 38.3604 205.061L38.4267 205.732C37.5621 205.87 36.6063 205.971 35.5593 206.035V208.094H34.6394V206.08C33.9295 206.108 33.1201 206.122 32.2113 206.122H31.7057L31.5814 205.367ZM32.4185 202.782C32.4185 202.423 32.5262 202.106 32.7417 201.833C32.9571 201.557 33.261 201.344 33.6533 201.195C34.0455 201.043 34.4958 200.967 35.0041 200.967C35.5069 200.967 35.953 201.043 36.3425 201.195C36.732 201.344 37.0345 201.557 37.2499 201.833C37.4682 202.106 37.5787 202.423 37.5814 202.782C37.5787 203.146 37.4682 203.465 37.2499 203.739C37.0345 204.01 36.732 204.22 36.3425 204.369C35.9557 204.515 35.5096 204.588 35.0041 204.588C34.493 204.588 34.0414 204.515 33.6491 204.369C33.2596 204.222 32.9571 204.012 32.7417 203.739C32.5262 203.465 32.4185 203.146 32.4185 202.782ZM33.0814 207.68H34.0013V209.959H40.482V210.721H33.0814V207.68ZM33.2969 202.782C33.2941 203.006 33.3632 203.202 33.5041 203.37C33.6477 203.539 33.8494 203.67 34.1091 203.764C34.3687 203.855 34.6671 203.901 35.0041 203.901C35.3301 203.901 35.6215 203.855 35.8784 203.764C36.1353 203.67 36.3356 203.539 36.4792 203.37C36.6256 203.202 36.7002 203.006 36.703 202.782C36.7002 202.561 36.6256 202.366 36.4792 202.198C36.3356 202.026 36.1353 201.894 35.8784 201.8C35.6215 201.706 35.3301 201.66 35.0041 201.663C34.6671 201.66 34.3687 201.706 34.1091 201.8C33.8494 201.894 33.6477 202.026 33.5041 202.198C33.3632 202.366 33.2941 202.561 33.2969 202.782Z" fill="#09101D"/>
<path d="M11.6006 252.116C11.0951 252.116 10.6366 252.019 10.225 251.826C9.81335 251.633 9.48462 251.366 9.23877 251.026C8.99567 250.684 8.86308 250.298 8.84098 249.87H9.8686C9.89346 250.119 9.98462 250.344 10.1421 250.546C10.3023 250.744 10.5095 250.902 10.7636 251.018C11.0205 251.131 11.2995 251.188 11.6006 251.188C11.9625 251.188 12.2871 251.106 12.5744 250.943C12.8645 250.78 13.091 250.557 13.254 250.272C13.4169 249.988 13.4984 249.669 13.4984 249.315C13.4984 248.953 13.4128 248.627 13.2415 248.337C13.073 248.044 12.8382 247.815 12.5371 247.649C12.2388 247.481 11.9018 247.395 11.5261 247.392C10.7692 247.384 10.2415 247.638 9.94319 248.155H8.92385L9.52053 243.514H14.12V244.45H10.399L10.0841 246.936H10.1752C10.3658 246.787 10.5965 246.669 10.8672 246.58C11.1407 246.492 11.4238 246.448 11.7167 246.448C12.2498 246.448 12.7291 246.57 13.1545 246.816C13.5827 247.059 13.9183 247.398 14.1614 247.831C14.4045 248.262 14.5261 248.749 14.5261 249.29C14.5261 249.829 14.4004 250.314 14.149 250.744C13.8976 251.173 13.5495 251.508 13.1048 251.751C12.66 251.994 12.1587 252.116 11.6006 252.116ZM23.8941 248.279H19.0792V243.481H23.8941V248.279ZM22.999 247.533V244.235H19.9742V247.533H22.999ZM20.2559 249.448H21.1675V251.959H27.2587V252.721H20.2559V249.448ZM25.8582 242.528H26.778V245.702H28.3443V246.481H26.778V250.169H25.8582V242.528ZM40.6001 250.459H39.6719V249.373H37.5255V248.702H39.6719V242.544H40.6001V250.459ZM31.9564 247.367C33.3321 247.362 34.56 247.341 35.6401 247.305C36.723 247.267 37.7548 247.185 38.7354 247.061L38.8017 247.732C37.9371 247.87 36.9813 247.971 35.9343 248.035V250.094H35.0144V248.08C34.3045 248.108 33.4951 248.122 32.5863 248.122H32.0807L31.9564 247.367ZM32.7935 244.782C32.7935 244.423 32.9012 244.106 33.1167 243.833C33.3321 243.557 33.636 243.344 34.0283 243.195C34.4205 243.043 34.8708 242.967 35.3791 242.967C35.8819 242.967 36.328 243.043 36.7175 243.195C37.107 243.344 37.4095 243.557 37.6249 243.833C37.8432 244.106 37.9537 244.423 37.9564 244.782C37.9537 245.146 37.8432 245.465 37.6249 245.739C37.4095 246.01 37.107 246.22 36.7175 246.369C36.3307 246.515 35.8846 246.588 35.3791 246.588C34.868 246.588 34.4164 246.515 34.0241 246.369C33.6346 246.222 33.3321 246.012 33.1167 245.739C32.9012 245.465 32.7935 245.146 32.7935 244.782ZM33.4564 249.68H34.3763V251.959H40.857V252.721H33.4564V249.68ZM33.6719 244.782C33.6691 245.006 33.7382 245.202 33.8791 245.37C34.0227 245.539 34.2244 245.67 34.4841 245.764C34.7437 245.855 35.0421 245.901 35.3791 245.901C35.7051 245.901 35.9965 245.855 36.2534 245.764C36.5103 245.67 36.7106 245.539 36.8542 245.37C37.0006 245.202 37.0752 245.006 37.078 244.782C37.0752 244.561 37.0006 244.366 36.8542 244.198C36.7106 244.026 36.5103 243.894 36.2534 243.8C35.9965 243.706 35.7051 243.66 35.3791 243.663C35.0421 243.66 34.7437 243.706 34.4841 243.8C34.2244 243.894 34.0227 244.026 33.8791 244.198C33.7382 244.366 33.6691 244.561 33.6719 244.782Z" fill="#09101D"/>
<defs>
<filter id="filter0_ddd_189_6694" x="52" y="0" width="520" height="300" filterUnits="userSpaceOnUse" color-interpolation-filters="sRGB">
<feFlood flood-opacity="0" result="BackgroundImageFix"/>
<feColorMatrix in="SourceAlpha" type="matrix" values="0 0 0 0 0 0 0 0 0 0 0 0 0 0 0 0 0 0 127 0" result="hardAlpha"/>
<feOffset dx="5" dy="5"/>
<feGaussianBlur stdDeviation="5"/>
<feComposite in2="hardAlpha" operator="out"/>
<feColorMatrix type="matrix" values="0 0 0 0 0.545098 0 0 0 0 0.54902 0 0 0 0 0.627451 0 0 0 0.25 0"/>
<feBlend mode="multiply" in2="BackgroundImageFix" result="effect1_dropShadow_189_6694"/>
<feColorMatrix in="SourceAlpha" type="matrix" values="0 0 0 0 0 0 0 0 0 0 0 0 0 0 0 0 0 0 127 0" result="hardAlpha"/>
<feOffset dx="2" dy="2"/>
<feGaussianBlur stdDeviation="2.5"/>
<feComposite in2="hardAlpha" operator="out"/>
<feColorMatrix type="matrix" values="0 0 0 0 0.545098 0 0 0 0 0.54902 0 0 0 0 0.627451 0 0 0 0.1 0"/>
<feBlend mode="multiply" in2="effect1_dropShadow_189_6694" result="effect2_dropShadow_189_6694"/>
<feColorMatrix in="SourceAlpha" type="matrix" values="0 0 0 0 0 0 0 0 0 0 0 0 0 0 0 0 0 0 127 0" result="hardAlpha"/>
<feOffset dx="-1" dy="-1"/>
<feGaussianBlur stdDeviation="1"/>
<feComposite in2="hardAlpha" operator="out"/>
<feColorMatrix type="matrix" values="0 0 0 0 1 0 0 0 0 1 0 0 0 0 1 0 0 0 0.25 0"/>
<feBlend mode="soft-light" in2="effect2_dropShadow_189_6694" result="effect3_dropShadow_189_6694"/>
<feBlend mode="normal" in="SourceGraphic" in2="effect3_dropShadow_189_6694" result="shape"/>
</filter>
</defs>
</svg>
