<svg width="99" height="99" viewBox="0 0 99 99" fill="none" xmlns="http://www.w3.org/2000/svg">
<g id="Group 1" filter="url(#filter0_ddd_570_14986)">
<path id="Ellipse 14" d="M90.548 47.3773C90.548 71.5875 70.9217 91.2137 46.7115 91.2137C22.5013 91.2137 2.875 71.5875 2.875 47.3773C2.875 23.167 22.5013 3.54077 46.7115 3.54077C70.9217 3.54077 90.548 23.167 90.548 47.3773ZM20.4096 47.3773C20.4096 61.9034 32.1853 73.6791 46.7115 73.6791C61.2376 73.6791 73.0134 61.9034 73.0134 47.3773C73.0134 32.8511 61.2376 21.0754 46.7115 21.0754C32.1853 21.0754 20.4096 32.8511 20.4096 47.3773Z" fill="#FFE8CE"/>
<path id="Ellipse 13" d="M46.7115 3.54077C57.6631 3.54077 68.2181 7.64012 76.2989 15.0319C84.3797 22.4237 89.401 32.5726 90.3745 43.4809C91.3479 54.3892 88.2029 65.2668 81.5586 73.9726C74.9143 82.6785 65.2519 88.5819 54.4733 90.5211C43.6947 92.4602 32.5807 90.2946 23.3187 84.4504C14.0568 78.6062 7.31782 69.5068 4.42831 58.9432C1.5388 48.3796 2.70803 37.117 7.70586 27.3723C12.7037 17.6275 21.1681 10.1065 31.433 6.28946L37.5444 22.7246C31.3855 25.0148 26.3068 29.5274 23.3081 35.3743C20.3094 41.2211 19.6079 47.9787 21.3416 54.3168C23.0753 60.655 27.1186 66.1146 32.6758 69.6211C38.233 73.1276 44.9014 74.427 51.3686 73.2635C57.8358 72.1001 63.6332 68.558 67.6198 63.3345C71.6063 58.111 73.4933 51.5844 72.9093 45.0394C72.3252 38.4945 69.3124 32.4051 64.464 27.9701C59.6155 23.535 53.2825 21.0754 46.7115 21.0754V3.54077Z" fill="#FFF7EF"/>
<path id="Ellipse 12" d="M46.7115 3.54077C56.6149 3.54077 66.2265 6.89418 73.9805 13.0547C81.7346 19.2153 87.1741 27.8199 89.413 37.4669C91.6519 47.1139 90.5583 57.2348 86.3103 66.1808C82.0622 75.1268 74.9101 82.3708 66.019 86.7327C57.128 91.0947 47.0219 92.3174 37.3471 90.2018C27.6723 88.0863 18.9989 82.757 12.7399 75.0823C6.48085 67.4075 3.00501 57.8395 2.87857 47.9369C2.75214 38.0343 5.98256 28.3807 12.0436 20.5486L25.9108 31.2801C22.2741 35.9793 20.3359 41.7715 20.4117 47.713C20.4876 53.6546 22.5731 59.3954 26.3285 64.0003C30.0839 68.6051 35.288 71.8027 41.0928 73.072C46.8977 74.3413 52.9614 73.6077 58.296 70.9905C63.6307 68.3734 67.9219 64.027 70.4707 58.6594C73.0196 53.2918 73.6758 47.2192 72.3324 41.431C70.9891 35.6428 67.7253 30.4801 63.0729 26.7837C58.4205 23.0874 52.6535 21.0754 46.7115 21.0754V3.54077Z" fill="#FFC98D"/>
<path id="Ellipse 11" d="M46.7115 3.54077C54.7466 3.54077 62.6272 5.74925 69.4921 9.9249C76.3571 14.1005 81.9423 20.0827 85.6375 27.2178C89.3327 34.3528 90.9957 42.3663 90.4448 50.3825C89.894 58.3987 87.1504 66.1094 82.514 72.6719C77.8775 79.2344 71.5265 84.3964 64.1549 87.5937C56.7833 90.7911 48.6747 91.9008 40.7151 90.8017C32.7555 89.7026 25.2511 86.4369 19.0219 81.3614C12.7926 76.2859 8.07824 69.596 5.39379 62.0226L21.9209 56.1644C23.5315 60.7085 26.3602 64.7225 30.0977 67.7677C33.8352 70.813 38.3379 72.7724 43.1137 73.4319C47.8894 74.0914 52.7546 73.4255 57.1775 71.5071C61.6005 69.5887 65.4111 66.4916 68.193 62.554C70.9748 58.6165 72.621 53.9901 72.9515 49.1804C73.282 44.3707 72.2842 39.5626 70.0671 35.2816C67.85 31.0005 64.4988 27.4112 60.3799 24.9058C56.2609 22.4004 51.5326 21.0754 46.7115 21.0754V3.54077Z" fill="#FFB25C"/>
<path id="Ellipse 18" d="M46.7115 3.54077C56.4863 3.54077 65.9806 6.80776 73.6857 12.8226C81.3908 18.8373 86.8646 27.2548 89.2371 36.7373C91.6096 46.2198 90.7448 56.2232 86.78 65.1578C82.8153 74.0924 75.9781 81.4455 67.355 86.0487L59.0976 70.5801C64.2714 67.8182 68.3738 63.4063 70.7526 58.0456C73.1315 52.6848 73.6504 46.6828 72.2269 40.9933C70.8033 35.3038 67.5191 30.2533 62.896 26.6444C58.273 23.0356 52.5763 21.0754 46.7115 21.0754V3.54077Z" fill="#BE7346"/>
</g>
<defs>
<filter id="filter0_ddd_570_14986" x="0.296384" y="0.962155" width="97.9863" height="97.9876" filterUnits="userSpaceOnUse" color-interpolation-filters="sRGB">
<feFlood flood-opacity="0" result="BackgroundImageFix"/>
<feColorMatrix in="SourceAlpha" type="matrix" values="0 0 0 0 0 0 0 0 0 0 0 0 0 0 0 0 0 0 127 0" result="hardAlpha"/>
<feOffset dx="2.57862" dy="2.57862"/>
<feGaussianBlur stdDeviation="2.57862"/>
<feComposite in2="hardAlpha" operator="out"/>
<feColorMatrix type="matrix" values="0 0 0 0 0.545098 0 0 0 0 0.54902 0 0 0 0 0.627451 0 0 0 0.25 0"/>
<feBlend mode="multiply" in2="BackgroundImageFix" result="effect1_dropShadow_570_14986"/>
<feColorMatrix in="SourceAlpha" type="matrix" values="0 0 0 0 0 0 0 0 0 0 0 0 0 0 0 0 0 0 127 0" result="hardAlpha"/>
<feOffset dx="1.03145" dy="1.03145"/>
<feGaussianBlur stdDeviation="1.28931"/>
<feComposite in2="hardAlpha" operator="out"/>
<feColorMatrix type="matrix" values="0 0 0 0 0.545098 0 0 0 0 0.54902 0 0 0 0 0.627451 0 0 0 0.1 0"/>
<feBlend mode="multiply" in2="effect1_dropShadow_570_14986" result="effect2_dropShadow_570_14986"/>
<feColorMatrix in="SourceAlpha" type="matrix" values="0 0 0 0 0 0 0 0 0 0 0 0 0 0 0 0 0 0 127 0" result="hardAlpha"/>
<feOffset dx="-0.515723" dy="-0.515723"/>
<feGaussianBlur stdDeviation="0.515723"/>
<feComposite in2="hardAlpha" operator="out"/>
<feColorMatrix type="matrix" values="0 0 0 0 1 0 0 0 0 1 0 0 0 0 1 0 0 0 0.25 0"/>
<feBlend mode="soft-light" in2="effect2_dropShadow_570_14986" result="effect3_dropShadow_570_14986"/>
<feBlend mode="normal" in="SourceGraphic" in2="effect3_dropShadow_570_14986" result="shape"/>
</filter>
</defs>
</svg>
