<svg width="574" height="427" viewBox="0 0 574 427" fill="none" xmlns="http://www.w3.org/2000/svg">
<rect width="574" height="472" rx="16" fill="#F8F1EC"/>
<rect x="47" y="71" width="480" height="2" rx="1" fill="#BE7346"/>
<path d="M65.761 98.8619V105.18H64.2431V102.062H61.7825V100.844H64.2431V98.8619H65.761ZM55.3432 104.044C57.3301 103.44 58.3598 101.917 58.3695 100.249V99.2631H59.8971V100.249C59.8874 101.772 60.8881 103.218 62.8025 103.802L61.9952 104.982C60.6561 104.537 59.6892 103.662 59.1478 102.541C58.6064 103.798 57.596 104.774 56.1409 105.253L55.3432 104.044ZM57.6202 106.911V105.727H65.761V108.912H59.1333V109.86H66.1478V111.064H57.6395V107.791H64.2528V106.911H57.6202ZM77.793 98.8619V111.238H76.2605V98.8619H77.793ZM68.1583 108.318V99.8674H69.6811V102.956H72.6735V99.8674H74.177V108.318H68.1583ZM69.6811 107.07H72.6735V104.146H69.6811V107.07ZM89.5167 99.6257V104.765H83.5657V99.6257H89.5167ZM84.3005 110.019C86.6741 109.807 88.1872 108.748 88.3274 107.767H84.8033V106.631H88.3613V105.543H89.8841V106.631H93.4566V107.767H89.9227C90.0629 108.724 91.5567 109.778 93.9207 110.019L93.4082 111.18C91.402 110.967 89.8841 110.179 89.1299 109.149C88.3709 110.193 86.8336 110.957 84.8226 111.18L84.3005 110.019ZM85.0595 103.575H88.0132V100.825H85.0595V103.575ZM91.6969 105.896V98.8619H93.2004V105.896H91.6969ZM109.091 98.8619V111.209H107.631V98.8619H109.091ZM98.2189 107.095C98.5525 107.095 98.9295 107.095 99.3356 107.09V101.535H98.4655V100.298H104.122V101.535H103.251V106.945C103.628 106.916 103.991 106.882 104.329 106.843L104.436 107.974C102.531 108.303 99.9979 108.352 98.3929 108.356L98.2189 107.095ZM100.699 107.066C101.086 107.056 101.487 107.041 101.878 107.027V101.535H100.699V107.066ZM103.841 106.06V104.818H105.209V103.556H103.841V102.309H105.209V99.1229H106.626V110.599H105.209V106.06H103.841ZM120.77 98.8619V111.209H119.238V98.8619H120.77ZM110.536 107.81C113.77 106.273 115.269 104.189 115.54 101.376H111.165V100.172H117.086C117.082 103.851 115.656 106.974 111.334 109.028L110.536 107.81ZM133.812 103.87V105.074H128.93V106.007H132.411V109.038H125.382V109.947H132.749V111.107H123.893V107.95H130.912V107.157H123.878V106.007H127.402V105.074H122.553V103.87H133.812ZM123.97 103.092V99.239H132.372V103.092H123.97ZM125.464 101.903H130.854V100.428H125.464V101.903Z" fill="#09101D"/>
<path d="M65.761 316.872V325.902H64.2431V321.372H62.0532V320.144H64.2431V316.872H65.761ZM55.3819 323.224C57.3494 322.581 58.4033 320.966 58.4033 319.323V318.989H55.8267V317.761H62.5076V318.989H59.9503V319.332C59.9503 320.816 60.9461 322.354 62.8557 322.987L62.0967 324.191C60.7141 323.727 59.7376 322.779 59.201 321.614C58.6547 322.91 57.6298 323.954 56.1651 324.456L55.3819 323.224ZM57.654 328.977V325.104H59.172V327.744H66.0704V328.977H57.654ZM77.8268 316.862V329.209H76.2944V316.862H77.8268ZM67.5927 325.81C70.8268 324.273 72.3254 322.189 72.5962 319.376H68.2212V318.172H74.1431C74.1383 321.851 72.7122 324.974 68.3904 327.028L67.5927 325.81ZM88.4966 324.587C91.1845 324.592 92.8765 325.438 92.8861 326.903C92.8765 328.343 91.1845 329.204 88.4966 329.199C85.8329 329.204 84.1265 328.343 84.1265 326.903C84.1265 325.438 85.8329 324.592 88.4966 324.587ZM82.9566 323.688V322.455H87.3026V320.217H88.806V322.455H94.172V323.688H82.9566ZM84.2425 318.646V317.442H92.8088V318.467C92.8088 319.448 92.8088 320.488 92.4607 321.759L90.9621 321.609C91.2667 320.41 91.286 319.545 91.2908 318.646H84.2425ZM85.6444 326.903C85.6347 327.633 86.7128 328.029 88.4966 328.029C90.2901 328.029 91.3682 327.633 91.373 326.903C91.3682 326.153 90.2901 325.733 88.4966 325.728C86.7128 325.733 85.6347 326.153 85.6444 326.903ZM99.4457 319.83C99.436 322.03 100.543 324.263 102.453 325.186L101.529 326.405C100.185 325.728 99.2281 324.423 98.7012 322.852C98.1549 324.529 97.1446 325.926 95.733 326.637L94.7951 325.409C96.7868 324.471 97.9181 322.107 97.9277 319.83V317.853H99.4457V319.83ZM103.187 329.209V316.862H104.71V321.706H106.615V322.997H104.71V329.209H103.187Z" fill="#09101D"/>
<path d="M230.67 49.1174V50.3453H219.411V49.1174H224.274V47.8122H225.782V49.1174H230.67ZM219.943 47.2514C222.505 47.0725 223.96 46.2217 224.158 45.2065H220.518V44.0028H224.274V42.8764H225.782V44.0028H229.563V45.2065H225.894C226.087 46.2217 227.547 47.0725 230.114 47.2514L229.655 48.4116C227.441 48.2327 225.797 47.5463 225.028 46.4731C224.255 47.5463 222.611 48.2327 220.412 48.4116L219.943 47.2514ZM220.721 53.1202C220.721 51.7762 222.321 51.0366 225.023 51.0366C227.726 51.0366 229.302 51.7762 229.307 53.1202C229.302 54.4689 227.726 55.2037 225.023 55.1989C222.321 55.2037 220.721 54.4689 220.721 53.1202ZM222.268 53.1202C222.258 53.7535 223.211 54.0677 225.023 54.0628C226.812 54.0677 227.779 53.7535 227.789 53.1202C227.779 52.4869 226.812 52.1678 225.023 52.1678C223.211 52.1678 222.258 52.4869 222.268 53.1202ZM242.794 49.857V51.0849H237.863V55.1989H236.359V51.0849H231.496V49.857H242.794ZM232.874 48.4116V43.4952H241.406V48.4116H232.874ZM234.363 47.2224H239.893V44.7086H234.363V47.2224ZM253.656 48.2859V49.5186H250.006V52.5062H254.908V53.7341H243.61V52.5062H248.478V49.5186H244.915V43.8432H246.467V48.2859H253.656ZM265.755 49.3398V50.5435H257.088V43.8287H265.644V45.0615H258.63V46.5407H265.364V47.7445H258.63V49.3398H265.755ZM255.71 53.7148V52.4724H267.007V53.7148H255.71Z" fill="#BE7346"/>
<path d="M337.171 54H335.266L338.756 44.0994H340.951L344.441 54H342.541L341.72 51.549H337.992L337.171 54ZM338.471 50.1181H341.236L339.892 46.1202H339.815L338.471 50.1181ZM348.545 43.4033C350.15 43.3985 351.412 44.3218 351.717 45.6802H353.95V42.8619H355.468V49.4945H353.95V46.8985H351.722C351.436 48.2907 350.165 49.2286 348.545 49.2286C346.655 49.2286 345.277 48.0152 345.287 46.3039C345.277 44.6167 346.655 43.3985 348.545 43.4033ZM346.733 46.3039C346.733 47.2901 347.482 47.9475 348.545 47.9475C349.59 47.9475 350.334 47.2901 350.334 46.3039C350.334 45.308 349.59 44.6699 348.545 44.6747C347.482 44.6699 346.733 45.308 346.733 46.3039ZM347.322 55.0635V50.0649H348.826V51.375H353.95V50.0649H355.468V55.0635H347.322ZM348.826 53.8308H353.95V52.5594H348.826V53.8308ZM360.993 46.6326C360.993 48.547 361.776 50.471 363.507 51.404L362.661 52.5207C361.506 51.9164 360.727 50.8287 360.287 49.5283C359.852 50.9302 359.074 52.1291 357.914 52.8108L357.029 51.6651C358.779 50.6499 359.548 48.5856 359.557 46.6326V46.2459H357.45V45.018H359.557V43.297H360.988V45.018H363.057V46.2459H360.993V46.6326ZM362.289 48.8612V47.6091H363.908V43.0939H365.334V54.614H363.908V48.8612H362.289ZM366.407 55.2086V42.8619H367.848V55.2086H366.407Z" fill="#09101D"/>
<path d="M443.923 54V44.0994H447.709C449.85 44.0994 450.909 45.192 450.909 46.6713C450.909 47.8702 450.15 48.547 449.183 48.7742V48.8709C450.237 48.9289 451.296 49.8039 451.296 51.3025C451.296 52.8446 450.189 54 447.921 54H443.923ZM445.698 52.511H447.641C448.946 52.511 449.492 51.9551 449.492 51.1671C449.492 50.2776 448.796 49.6008 447.694 49.6008H445.698V52.511ZM445.698 48.3149H447.486C448.424 48.3149 449.135 47.7686 449.135 46.8936C449.135 46.1298 448.584 45.5739 447.525 45.5739H445.698V48.3149ZM455.67 43.4033C457.275 43.3985 458.537 44.3218 458.842 45.6802H461.075V42.8619H462.593V49.4945H461.075V46.8985H458.847C458.561 48.2907 457.29 49.2286 455.67 49.2286C453.78 49.2286 452.402 48.0152 452.412 46.3039C452.402 44.6167 453.78 43.3985 455.67 43.4033ZM453.858 46.3039C453.858 47.2901 454.607 47.9475 455.67 47.9475C456.715 47.9475 457.459 47.2901 457.459 46.3039C457.459 45.308 456.715 44.6699 455.67 44.6747C454.607 44.6699 453.858 45.308 453.858 46.3039ZM454.447 55.0635V50.0649H455.951V51.375H461.075V50.0649H462.593V55.0635H454.447ZM455.951 53.8308H461.075V52.5594H455.951V53.8308ZM468.118 46.6326C468.118 48.547 468.901 50.471 470.632 51.404L469.786 52.5207C468.631 51.9164 467.852 50.8287 467.412 49.5283C466.977 50.9302 466.199 52.1291 465.039 52.8108L464.154 51.6651C465.904 50.6499 466.673 48.5856 466.682 46.6326V46.2459H464.575V45.018H466.682V43.297H468.113V45.018H470.182V46.2459H468.118V46.6326ZM469.414 48.8612V47.6091H471.033V43.0939H472.459V54.614H471.033V48.8612H469.414ZM473.532 55.2086V42.8619H474.973V55.2086H473.532Z" fill="#09101D"/>
<rect x="47" y="131" width="480" height="46" rx="8" fill="white"/>
<path d="M84.674 160.184H83.3736V153.818H80.8453V152.759H83.3736V147.91H84.674V160.184ZM74.4496 156.815C75.0555 156.535 75.5905 156.133 76.0546 155.611C76.5219 155.086 76.8828 154.494 77.1374 153.837C77.392 153.18 77.5193 152.516 77.5193 151.845V151.043H74.7977V149.999H77.5242V148.152H78.8198V149.999H81.4834V151.043H78.8004V151.845C78.8004 152.49 78.9309 153.126 79.192 153.755C79.453 154.38 79.8188 154.942 80.2894 155.442C80.7631 155.942 81.3078 156.328 81.9233 156.602L81.2079 157.608C80.5182 157.302 79.9091 156.847 79.3805 156.244C78.8552 155.639 78.454 154.946 78.1768 154.166C77.9061 154.994 77.5097 155.729 76.9876 156.37C76.4655 157.012 75.858 157.493 75.1651 157.816L74.4496 156.815ZM96.7156 160.184H95.4297V147.91H96.7156V160.184ZM87.2308 149.012H92.9691V153.494H88.5796V156.172C89.6496 156.166 90.6358 156.132 91.5381 156.07C92.4405 156.006 93.3768 155.893 94.3468 155.732L94.4677 156.805C93.4461 156.973 92.455 157.089 91.4946 157.153C90.5375 157.215 89.4707 157.245 88.2944 157.245H87.2453V152.45H91.6542V150.076H87.2308V149.012ZM108.801 160.184H107.495V147.91H108.801V160.184ZM99.3304 148.93H100.626V152.077H103.933V148.93H105.214V157.255H99.3304V148.93ZM103.933 156.182V153.107H100.626V156.182H103.933Z" fill="#798087"/>
<path d="M222.638 153.019H222.704L224.876 149.514H226.119L223.45 153.757L226.119 158H224.876L222.704 154.561H222.638L220.467 158H219.224L221.959 153.757L219.224 149.514H220.475L222.638 153.019ZM229.986 153.019H230.052L232.223 149.514H233.466L230.798 153.757L233.466 158H232.223L230.052 154.561H229.986L227.815 158H226.571L229.306 153.757L226.571 149.514H227.823L229.986 153.019ZM237.333 153.019H237.4L239.571 149.514H240.814L238.146 153.757L240.814 158H239.571L237.4 154.561H237.333L235.162 158H233.919L236.654 153.757L233.919 149.514H235.17L237.333 153.019ZM242.269 160.395H241.399L242.046 157.204H243.173L242.269 160.395ZM247.775 153.019H247.841L250.012 149.514H251.256L248.587 153.757L251.256 158H250.012L247.841 154.561H247.775L245.604 158H244.36L247.095 153.757L244.36 149.514H245.612L247.775 153.019ZM255.122 153.019H255.189L257.36 149.514H258.603L255.935 153.757L258.603 158H257.36L255.189 154.561H255.122L252.951 158H251.708L254.443 153.757L251.708 149.514H252.96L255.122 153.019ZM262.47 153.019H262.536L264.708 149.514H265.951L263.282 153.757L265.951 158H264.708L262.536 154.561H262.47L260.299 158H259.056L261.791 153.757L259.056 149.514H260.307L262.47 153.019Z" fill="#798087"/>
<path d="M331.638 153.019H331.704L333.876 149.514H335.119L332.45 153.757L335.119 158H333.876L331.704 154.561H331.638L329.467 158H328.224L330.959 153.757L328.224 149.514H329.475L331.638 153.019ZM338.986 153.019H339.052L341.223 149.514H342.466L339.798 153.757L342.466 158H341.223L339.052 154.561H338.986L336.815 158H335.571L338.306 153.757L335.571 149.514H336.823L338.986 153.019ZM346.333 153.019H346.4L348.571 149.514H349.814L347.146 153.757L349.814 158H348.571L346.4 154.561H346.333L344.162 158H342.919L345.654 153.757L342.919 149.514H344.17L346.333 153.019ZM351.269 160.395H350.399L351.046 157.204H352.173L351.269 160.395ZM356.775 153.019H356.841L359.012 149.514H360.256L357.587 153.757L360.256 158H359.012L356.841 154.561H356.775L354.604 158H353.36L356.095 153.757L353.36 149.514H354.612L356.775 153.019ZM364.122 153.019H364.189L366.36 149.514H367.603L364.935 153.757L367.603 158H366.36L364.189 154.561H364.122L361.951 158H360.708L363.443 153.757L360.708 149.514H361.96L364.122 153.019ZM371.47 153.019H371.536L373.708 149.514H374.951L372.282 153.757L374.951 158H373.708L371.536 154.561H371.47L369.299 158H368.056L370.791 153.757L368.056 149.514H369.307L371.47 153.019Z" fill="#798087"/>
<path d="M439.638 153.019H439.704L441.876 149.514H443.119L440.45 153.757L443.119 158H441.876L439.704 154.561H439.638L437.467 158H436.224L438.959 153.757L436.224 149.514H437.475L439.638 153.019ZM446.986 153.019H447.052L449.223 149.514H450.466L447.798 153.757L450.466 158H449.223L447.052 154.561H446.986L444.815 158H443.571L446.306 153.757L443.571 149.514H444.823L446.986 153.019ZM454.333 153.019H454.4L456.571 149.514H457.814L455.146 153.757L457.814 158H456.571L454.4 154.561H454.333L452.162 158H450.919L453.654 153.757L450.919 149.514H452.17L454.333 153.019ZM459.269 160.395H458.399L459.046 157.204H460.173L459.269 160.395ZM464.775 153.019H464.841L467.012 149.514H468.256L465.587 153.757L468.256 158H467.012L464.841 154.561H464.775L462.604 158H461.36L464.095 153.757L461.36 149.514H462.612L464.775 153.019ZM472.122 153.019H472.189L474.36 149.514H475.603L472.935 153.757L475.603 158H474.36L472.189 154.561H472.122L469.951 158H468.708L471.443 153.757L468.708 149.514H469.96L472.122 153.019ZM479.47 153.019H479.536L481.708 149.514H482.951L480.282 153.757L482.951 158H481.708L479.536 154.561H479.47L477.299 158H476.056L478.791 153.757L476.056 149.514H477.307L479.47 153.019Z" fill="#798087"/>
<rect x="47" y="349" width="480" height="46" rx="8" fill="white"/>
<path d="M84.6644 374.892H83.3688V370.295H81.0193V369.236H83.3688V365.92H84.6644V374.892ZM74.4593 372.335C75.0748 372.129 75.613 371.824 76.0739 371.421C76.538 371.015 76.8941 370.551 77.1423 370.029C77.3936 369.504 77.5193 368.961 77.5193 368.4V367.916H74.8605V366.858H81.4738V367.916H78.8343V368.4C78.8343 368.912 78.9535 369.412 79.192 369.898C79.4305 370.385 79.7721 370.82 80.2169 371.204C80.6616 371.584 81.1853 371.876 81.788 372.079L81.1257 373.113C80.4489 372.878 79.8591 372.528 79.3564 372.064C78.8568 371.6 78.4717 371.059 78.201 370.44C77.927 371.126 77.5258 371.726 76.9972 372.238C76.4719 372.751 75.8499 373.136 75.1312 373.394L74.4593 372.335ZM76.712 374.095H78.0076V376.845H84.9883V377.909H76.712V374.095ZM97.7357 372.736H86.554V371.663H97.7357V372.736ZM87.8738 375.917C87.8738 375.447 88.043 375.045 88.3814 374.713C88.7198 374.381 89.2064 374.128 89.8413 373.954C90.4794 373.78 91.24 373.693 92.1231 373.693C92.9997 373.693 93.7538 373.78 94.3855 373.954C95.0204 374.128 95.5071 374.381 95.8455 374.713C96.1839 375.045 96.3547 375.447 96.3579 375.917C96.3547 376.388 96.1839 376.789 95.8455 377.121C95.5103 377.456 95.0253 377.709 94.3904 377.88C93.7587 378.054 93.0029 378.141 92.1231 378.141C91.24 378.141 90.4794 378.054 89.8413 377.88C89.2064 377.709 88.7198 377.456 88.3814 377.121C88.043 376.789 87.8738 376.388 87.8738 375.917ZM87.9463 366.35H96.3579V367.409H89.2322V369.55H96.4304V370.599H87.9463V366.35ZM89.1935 375.917C89.1903 376.31 89.4417 376.612 89.9477 376.821C90.4569 377.027 91.182 377.131 92.1231 377.131C93.0545 377.131 93.7764 377.027 94.2888 376.821C94.8013 376.612 95.0591 376.31 95.0623 375.917C95.0591 375.659 94.9415 375.44 94.7094 375.26C94.4774 375.076 94.1422 374.937 93.7039 374.844C93.2656 374.747 92.7387 374.697 92.1231 374.694C91.5011 374.697 90.9709 374.747 90.5326 374.844C90.0943 374.937 89.7608 375.076 89.5319 375.26C89.3031 375.44 89.1903 375.659 89.1935 375.917ZM106.887 373.447H102.487V372.19H106.887V373.447ZM121.838 374.892H120.543V370.295H118.193V369.236H120.543V365.92H121.838V374.892ZM111.633 372.335C112.249 372.129 112.787 371.824 113.248 371.421C113.712 371.015 114.068 370.551 114.316 370.029C114.567 369.504 114.693 368.961 114.693 368.4V367.916H112.034V366.858H118.648V367.916H116.008V368.4C116.008 368.912 116.127 369.412 116.366 369.898C116.604 370.385 116.946 370.82 117.391 371.204C117.835 371.584 118.359 371.876 118.962 372.079L118.3 373.113C117.623 372.878 117.033 372.528 116.53 372.064C116.031 371.6 115.646 371.059 115.375 370.44C115.101 371.126 114.7 371.726 114.171 372.238C113.646 372.751 113.024 373.136 112.305 373.394L111.633 372.335ZM113.886 374.095H115.181V376.845H122.162V377.909H113.886V374.095ZM133.474 367.762C133.47 368.297 133.462 368.751 133.45 369.125C133.44 369.496 133.411 369.921 133.363 370.401C133.314 370.878 133.238 371.387 133.135 371.929H134.895V372.988H129.925V378.18H128.625V372.988H123.728V371.929H131.816C131.928 371.387 132.011 370.877 132.062 370.396C132.117 369.916 132.151 369.488 132.164 369.11C132.177 368.73 132.183 368.281 132.183 367.762V367.738H125.086V366.684H133.474V367.762ZM147.038 376.691H135.827V375.598H140.749V372.983H136.809V371.948H138.636V368.1H136.78V367.046H146.013V368.1H144.138V371.948H145.975V372.983H142.025V375.598H147.038V376.691ZM142.861 371.948V368.1H139.927V371.948H142.861ZM157.552 369.086H159.326V370.189H157.552V373.292H156.252V365.91H157.552V369.086ZM147.942 367.148H150.948V365.823H152.239V367.148H155.232V368.197H147.942V367.148ZM148.609 370.919C148.609 370.487 148.733 370.105 148.981 369.773C149.229 369.441 149.579 369.185 150.03 369.004C150.481 368.82 151.002 368.729 151.591 368.729C152.175 368.729 152.69 368.82 153.138 369.004C153.586 369.185 153.934 369.441 154.183 369.773C154.434 370.105 154.56 370.487 154.56 370.919C154.56 371.354 154.434 371.737 154.183 372.069C153.934 372.401 153.586 372.659 153.138 372.843C152.69 373.023 152.175 373.113 151.591 373.113C150.998 373.113 150.476 373.023 150.025 372.843C149.574 372.659 149.224 372.401 148.976 372.069C148.731 371.737 148.609 371.354 148.609 370.919ZM149.721 373.935H157.552V378.006H149.721V373.935ZM149.861 370.919C149.858 371.167 149.927 371.383 150.069 371.566C150.214 371.747 150.417 371.887 150.678 371.987C150.939 372.084 151.243 372.132 151.591 372.132C151.936 372.132 152.239 372.084 152.5 371.987C152.761 371.887 152.964 371.747 153.109 371.566C153.254 371.383 153.329 371.167 153.332 370.919C153.329 370.677 153.254 370.466 153.109 370.285C152.964 370.105 152.76 369.966 152.495 369.869C152.234 369.77 151.933 369.72 151.591 369.72C151.247 369.72 150.942 369.77 150.678 369.869C150.417 369.966 150.214 370.105 150.069 370.285C149.927 370.466 149.858 370.677 149.861 370.919ZM156.266 376.952V374.97H150.997V376.952H156.266Z" fill="#798087"/>
<path d="M222.638 371.019H222.704L224.876 367.514H226.119L223.45 371.757L226.119 376H224.876L222.704 372.561H222.638L220.467 376H219.224L221.959 371.757L219.224 367.514H220.475L222.638 371.019ZM229.986 371.019H230.052L232.223 367.514H233.466L230.798 371.757L233.466 376H232.223L230.052 372.561H229.986L227.815 376H226.571L229.306 371.757L226.571 367.514H227.823L229.986 371.019ZM237.333 371.019H237.4L239.571 367.514H240.814L238.146 371.757L240.814 376H239.571L237.4 372.561H237.333L235.162 376H233.919L236.654 371.757L233.919 367.514H235.17L237.333 371.019ZM242.269 378.395H241.399L242.046 375.204H243.173L242.269 378.395ZM247.775 371.019H247.841L250.012 367.514H251.256L248.587 371.757L251.256 376H250.012L247.841 372.561H247.775L245.604 376H244.36L247.095 371.757L244.36 367.514H245.612L247.775 371.019ZM255.122 371.019H255.189L257.36 367.514H258.603L255.935 371.757L258.603 376H257.36L255.189 372.561H255.122L252.951 376H251.708L254.443 371.757L251.708 367.514H252.96L255.122 371.019ZM262.47 371.019H262.536L264.708 367.514H265.951L263.282 371.757L265.951 376H264.708L262.536 372.561H262.47L260.299 376H259.056L261.791 371.757L259.056 367.514H260.307L262.47 371.019Z" fill="#798087"/>
<path d="M331.638 371.019H331.704L333.876 367.514H335.119L332.45 371.757L335.119 376H333.876L331.704 372.561H331.638L329.467 376H328.224L330.959 371.757L328.224 367.514H329.475L331.638 371.019ZM338.986 371.019H339.052L341.223 367.514H342.466L339.798 371.757L342.466 376H341.223L339.052 372.561H338.986L336.815 376H335.571L338.306 371.757L335.571 367.514H336.823L338.986 371.019ZM346.333 371.019H346.4L348.571 367.514H349.814L347.146 371.757L349.814 376H348.571L346.4 372.561H346.333L344.162 376H342.919L345.654 371.757L342.919 367.514H344.17L346.333 371.019ZM351.269 378.395H350.399L351.046 375.204H352.173L351.269 378.395ZM356.775 371.019H356.841L359.012 367.514H360.256L357.587 371.757L360.256 376H359.012L356.841 372.561H356.775L354.604 376H353.36L356.095 371.757L353.36 367.514H354.612L356.775 371.019ZM364.122 371.019H364.189L366.36 367.514H367.603L364.935 371.757L367.603 376H366.36L364.189 372.561H364.122L361.951 376H360.708L363.443 371.757L360.708 367.514H361.96L364.122 371.019ZM371.47 371.019H371.536L373.708 367.514H374.951L372.282 371.757L374.951 376H373.708L371.536 372.561H371.47L369.299 376H368.056L370.791 371.757L368.056 367.514H369.307L371.47 371.019Z" fill="#798087"/>
<path d="M439.638 371.019H439.704L441.876 367.514H443.119L440.45 371.757L443.119 376H441.876L439.704 372.561H439.638L437.467 376H436.224L438.959 371.757L436.224 367.514H437.475L439.638 371.019ZM446.986 371.019H447.052L449.223 367.514H450.466L447.798 371.757L450.466 376H449.223L447.052 372.561H446.986L444.815 376H443.571L446.306 371.757L443.571 367.514H444.823L446.986 371.019ZM454.333 371.019H454.4L456.571 367.514H457.814L455.146 371.757L457.814 376H456.571L454.4 372.561H454.333L452.162 376H450.919L453.654 371.757L450.919 367.514H452.17L454.333 371.019ZM459.269 378.395H458.399L459.046 375.204H460.173L459.269 378.395ZM464.775 371.019H464.841L467.012 367.514H468.256L465.587 371.757L468.256 376H467.012L464.841 372.561H464.775L462.604 376H461.36L464.095 371.757L461.36 367.514H462.612L464.775 371.019ZM472.122 371.019H472.189L474.36 367.514H475.603L472.935 371.757L475.603 376H474.36L472.189 372.561H472.122L469.951 376H468.708L471.443 371.757L468.708 367.514H469.96L472.122 371.019ZM479.47 371.019H479.536L481.708 367.514H482.951L480.282 371.757L482.951 376H481.708L479.536 372.561H479.47L477.299 376H476.056L478.791 371.757L476.056 367.514H477.307L479.47 371.019Z" fill="#798087"/>
<rect x="47" y="183" width="480" height="46" rx="8" fill="#F8F1EC"/>
<path d="M78.7134 201.984C78.7102 202.49 78.8262 202.977 79.0615 203.444C79.2967 203.908 79.6384 204.321 80.0863 204.682C80.5375 205.039 81.0693 205.312 81.6816 205.499L81.0628 206.509C80.3667 206.29 79.7624 205.963 79.25 205.528C78.7408 205.089 78.3476 204.575 78.0704 203.985C77.7997 204.637 77.4001 205.204 76.8715 205.687C76.343 206.167 75.7145 206.525 74.9862 206.76L74.3239 205.731C74.9491 205.531 75.4938 205.242 75.9579 204.865C76.422 204.488 76.7781 204.053 77.0262 203.56C77.2776 203.067 77.4049 202.548 77.4081 202.003V201.742H74.7203V200.684H81.3481V201.742H78.7134V201.984ZM76.2238 207.191H77.5145V208.564H82.779V207.191H84.0794V212.006H76.2238V207.191ZM82.779 210.952V209.579H77.5145V210.952H82.779ZM82.779 199.91H84.0794V202.671H85.8536V203.744H84.0794V206.63H82.779V199.91ZM90.8227 203.526C90.8195 204.168 90.95 204.817 91.2143 205.474C91.4785 206.129 91.8475 206.725 92.3213 207.263C92.7983 207.798 93.3397 208.207 93.9456 208.491L93.2108 209.516C92.534 209.19 91.9313 208.705 91.4028 208.061C90.8775 207.416 90.473 206.686 90.1894 205.871C90.0025 206.454 89.7543 207.004 89.4449 207.519C89.1355 208.035 88.7794 208.491 88.3765 208.887C87.9769 209.281 87.5483 209.592 87.0906 209.82L86.322 208.796C86.9279 208.506 87.4741 208.077 87.9608 207.51C88.4507 206.942 88.8342 206.308 89.1113 205.605C89.3917 204.902 89.5335 204.209 89.5368 203.526V202.216H86.7764V201.143H93.4815V202.216H90.8227V203.526ZM94.7964 199.91H96.0968V204.769H98.0596V205.866H96.0968V212.16H94.7964V199.91ZM109.231 212.16H107.989V205.871H106.524V211.556H105.296V200.147H106.524V204.783H107.989V199.91H109.231V212.16ZM98.4844 208.699C99.0678 208.373 99.556 207.933 99.9492 207.379C100.342 206.822 100.634 206.185 100.824 205.47C101.018 204.751 101.114 203.977 101.114 203.149V202.366H98.818V201.307H104.508V202.366H102.371V203.149C102.371 203.9 102.466 204.608 102.656 205.271C102.847 205.935 103.137 206.527 103.527 207.046C103.917 207.564 104.402 207.972 104.982 208.269L104.218 209.265C103.628 208.945 103.129 208.514 102.719 207.969C102.31 207.421 101.994 206.783 101.772 206.055C101.556 206.88 101.24 207.602 100.824 208.22C100.412 208.839 99.9009 209.329 99.2918 209.69L98.4844 208.699Z" fill="#798087"/>
<path d="M222.638 205.019H222.704L224.876 201.514H226.119L223.45 205.757L226.119 210H224.876L222.704 206.561H222.638L220.467 210H219.224L221.959 205.757L219.224 201.514H220.475L222.638 205.019ZM229.986 205.019H230.052L232.223 201.514H233.466L230.798 205.757L233.466 210H232.223L230.052 206.561H229.986L227.815 210H226.571L229.306 205.757L226.571 201.514H227.823L229.986 205.019ZM237.333 205.019H237.4L239.571 201.514H240.814L238.146 205.757L240.814 210H239.571L237.4 206.561H237.333L235.162 210H233.919L236.654 205.757L233.919 201.514H235.17L237.333 205.019ZM242.269 212.395H241.399L242.046 209.204H243.173L242.269 212.395ZM247.775 205.019H247.841L250.012 201.514H251.256L248.587 205.757L251.256 210H250.012L247.841 206.561H247.775L245.604 210H244.36L247.095 205.757L244.36 201.514H245.612L247.775 205.019ZM255.122 205.019H255.189L257.36 201.514H258.603L255.935 205.757L258.603 210H257.36L255.189 206.561H255.122L252.951 210H251.708L254.443 205.757L251.708 201.514H252.96L255.122 205.019ZM262.47 205.019H262.536L264.708 201.514H265.951L263.282 205.757L265.951 210H264.708L262.536 206.561H262.47L260.299 210H259.056L261.791 205.757L259.056 201.514H260.307L262.47 205.019Z" fill="#798087"/>
<path d="M331.638 205.019H331.704L333.876 201.514H335.119L332.45 205.757L335.119 210H333.876L331.704 206.561H331.638L329.467 210H328.224L330.959 205.757L328.224 201.514H329.475L331.638 205.019ZM338.986 205.019H339.052L341.223 201.514H342.466L339.798 205.757L342.466 210H341.223L339.052 206.561H338.986L336.815 210H335.571L338.306 205.757L335.571 201.514H336.823L338.986 205.019ZM346.333 205.019H346.4L348.571 201.514H349.814L347.146 205.757L349.814 210H348.571L346.4 206.561H346.333L344.162 210H342.919L345.654 205.757L342.919 201.514H344.17L346.333 205.019ZM351.269 212.395H350.399L351.046 209.204H352.173L351.269 212.395ZM356.775 205.019H356.841L359.012 201.514H360.256L357.587 205.757L360.256 210H359.012L356.841 206.561H356.775L354.604 210H353.36L356.095 205.757L353.36 201.514H354.612L356.775 205.019ZM364.122 205.019H364.189L366.36 201.514H367.603L364.935 205.757L367.603 210H366.36L364.189 206.561H364.122L361.951 210H360.708L363.443 205.757L360.708 201.514H361.96L364.122 205.019ZM371.47 205.019H371.536L373.708 201.514H374.951L372.282 205.757L374.951 210H373.708L371.536 206.561H371.47L369.299 210H368.056L370.791 205.757L368.056 201.514H369.307L371.47 205.019Z" fill="#798087"/>
<path d="M439.638 205.019H439.704L441.876 201.514H443.119L440.45 205.757L443.119 210H441.876L439.704 206.561H439.638L437.467 210H436.224L438.959 205.757L436.224 201.514H437.475L439.638 205.019ZM446.986 205.019H447.052L449.223 201.514H450.466L447.798 205.757L450.466 210H449.223L447.052 206.561H446.986L444.815 210H443.571L446.306 205.757L443.571 201.514H444.823L446.986 205.019ZM454.333 205.019H454.4L456.571 201.514H457.814L455.146 205.757L457.814 210H456.571L454.4 206.561H454.333L452.162 210H450.919L453.654 205.757L450.919 201.514H452.17L454.333 205.019ZM459.269 212.395H458.399L459.046 209.204H460.173L459.269 212.395ZM464.775 205.019H464.841L467.012 201.514H468.256L465.587 205.757L468.256 210H467.012L464.841 206.561H464.775L462.604 210H461.36L464.095 205.757L461.36 201.514H462.612L464.775 205.019ZM472.122 205.019H472.189L474.36 201.514H475.603L472.935 205.757L475.603 210H474.36L472.189 206.561H472.122L469.951 210H468.708L471.443 205.757L468.708 201.514H469.96L472.122 205.019ZM479.47 205.019H479.536L481.708 201.514H482.951L480.282 205.757L482.951 210H481.708L479.536 206.561H479.47L477.299 210H476.056L478.791 205.757L476.056 201.514H477.307L479.47 205.019Z" fill="#798087"/>
<rect x="47" y="401" width="480" height="46" rx="8" fill="#F8F1EC"/>
<path d="M74.5173 419.099H82.1892V420.395H79.1098V429H77.6064V420.395H74.5173V419.099ZM86.9535 429.135C86.3347 429.135 85.7739 429.019 85.2711 428.787C84.7684 428.552 84.3687 428.228 84.0722 427.816C83.779 427.4 83.6227 426.933 83.6033 426.414H85.0681C85.0907 426.691 85.1873 426.941 85.3582 427.163C85.5322 427.385 85.7578 427.559 86.035 427.685C86.3153 427.811 86.6215 427.874 86.9535 427.874C87.3466 427.874 87.6995 427.787 88.0122 427.613C88.328 427.435 88.5729 427.192 88.747 426.883C88.9242 426.57 89.0129 426.219 89.0129 425.829C89.0129 425.429 88.9194 425.071 88.7325 424.756C88.5488 424.436 88.2942 424.188 87.9687 424.011C87.6431 423.831 87.2757 423.74 86.8664 423.74C86.0382 423.74 85.4613 424.03 85.1358 424.61H83.7193L84.3671 419.099H89.9749V420.39H85.6144L85.276 423.155H85.3727C85.5854 422.956 85.8561 422.796 86.1848 422.677C86.5168 422.558 86.8664 422.498 87.2338 422.498C87.8494 422.498 88.4037 422.64 88.8968 422.923C89.3899 423.204 89.7751 423.595 90.0522 424.098C90.3326 424.598 90.4728 425.163 90.4728 425.795C90.4728 426.436 90.3229 427.01 90.0232 427.516C89.7235 428.022 89.3061 428.418 88.7711 428.705C88.2361 428.992 87.6303 429.135 86.9535 429.135Z" fill="#798087"/>
<path d="M222.638 423.019H222.704L224.876 419.514H226.119L223.45 423.757L226.119 428H224.876L222.704 424.561H222.638L220.467 428H219.224L221.959 423.757L219.224 419.514H220.475L222.638 423.019ZM229.986 423.019H230.052L232.223 419.514H233.466L230.798 423.757L233.466 428H232.223L230.052 424.561H229.986L227.815 428H226.571L229.306 423.757L226.571 419.514H227.823L229.986 423.019ZM237.333 423.019H237.4L239.571 419.514H240.814L238.146 423.757L240.814 428H239.571L237.4 424.561H237.333L235.162 428H233.919L236.654 423.757L233.919 419.514H235.17L237.333 423.019ZM242.269 430.395H241.399L242.046 427.204H243.173L242.269 430.395ZM247.775 423.019H247.841L250.012 419.514H251.256L248.587 423.757L251.256 428H250.012L247.841 424.561H247.775L245.604 428H244.36L247.095 423.757L244.36 419.514H245.612L247.775 423.019ZM255.122 423.019H255.189L257.36 419.514H258.603L255.935 423.757L258.603 428H257.36L255.189 424.561H255.122L252.951 428H251.708L254.443 423.757L251.708 419.514H252.96L255.122 423.019ZM262.47 423.019H262.536L264.708 419.514H265.951L263.282 423.757L265.951 428H264.708L262.536 424.561H262.47L260.299 428H259.056L261.791 423.757L259.056 419.514H260.307L262.47 423.019Z" fill="#798087"/>
<path d="M331.638 423.019H331.704L333.876 419.514H335.119L332.45 423.757L335.119 428H333.876L331.704 424.561H331.638L329.467 428H328.224L330.959 423.757L328.224 419.514H329.475L331.638 423.019ZM338.986 423.019H339.052L341.223 419.514H342.466L339.798 423.757L342.466 428H341.223L339.052 424.561H338.986L336.815 428H335.571L338.306 423.757L335.571 419.514H336.823L338.986 423.019ZM346.333 423.019H346.4L348.571 419.514H349.814L347.146 423.757L349.814 428H348.571L346.4 424.561H346.333L344.162 428H342.919L345.654 423.757L342.919 419.514H344.17L346.333 423.019ZM351.269 430.395H350.399L351.046 427.204H352.173L351.269 430.395ZM356.775 423.019H356.841L359.012 419.514H360.256L357.587 423.757L360.256 428H359.012L356.841 424.561H356.775L354.604 428H353.36L356.095 423.757L353.36 419.514H354.612L356.775 423.019ZM364.122 423.019H364.189L366.36 419.514H367.603L364.935 423.757L367.603 428H366.36L364.189 424.561H364.122L361.951 428H360.708L363.443 423.757L360.708 419.514H361.96L364.122 423.019ZM371.47 423.019H371.536L373.708 419.514H374.951L372.282 423.757L374.951 428H373.708L371.536 424.561H371.47L369.299 428H368.056L370.791 423.757L368.056 419.514H369.307L371.47 423.019Z" fill="#798087"/>
<path d="M439.638 423.019H439.704L441.876 419.514H443.119L440.45 423.757L443.119 428H441.876L439.704 424.561H439.638L437.467 428H436.224L438.959 423.757L436.224 419.514H437.475L439.638 423.019ZM446.986 423.019H447.052L449.223 419.514H450.466L447.798 423.757L450.466 428H449.223L447.052 424.561H446.986L444.815 428H443.571L446.306 423.757L443.571 419.514H444.823L446.986 423.019ZM454.333 423.019H454.4L456.571 419.514H457.814L455.146 423.757L457.814 428H456.571L454.4 424.561H454.333L452.162 428H450.919L453.654 423.757L450.919 419.514H452.17L454.333 423.019ZM459.269 430.395H458.399L459.046 427.204H460.173L459.269 430.395ZM464.775 423.019H464.841L467.012 419.514H468.256L465.587 423.757L468.256 428H467.012L464.841 424.561H464.775L462.604 428H461.36L464.095 423.757L461.36 419.514H462.612L464.775 423.019ZM472.122 423.019H472.189L474.36 419.514H475.603L472.935 423.757L475.603 428H474.36L472.189 424.561H472.122L469.951 428H468.708L471.443 423.757L468.708 419.514H469.96L472.122 423.019ZM479.47 423.019H479.536L481.708 419.514H482.951L480.282 423.757L482.951 428H481.708L479.536 424.561H479.47L477.299 428H476.056L478.791 423.757L476.056 419.514H477.307L479.47 423.019Z" fill="#798087"/>
<rect x="47" y="235" width="480" height="46" rx="8" fill="white"/>
<path d="M78.7279 254.11C78.7279 254.635 78.8439 255.141 79.076 255.628C79.3112 256.111 79.6512 256.541 80.096 256.919C80.544 257.296 81.0741 257.587 81.6865 257.794L81.0242 258.799C80.3409 258.564 79.7495 258.219 79.25 257.765C78.7505 257.307 78.3653 256.773 78.0946 256.164C77.8239 256.831 77.4275 257.413 76.9054 257.91C76.3833 258.406 75.7661 258.78 75.0539 259.031L74.3577 258.026C74.983 257.813 75.526 257.507 75.9869 257.107C76.451 256.704 76.8071 256.243 77.0552 255.724C77.3034 255.206 77.4291 254.666 77.4323 254.105V253.771H74.7348V252.722H81.3722V253.771H78.7279V254.11ZM75.982 259.901H84.0794V264.16H82.779V260.95H75.982V259.901ZM82.779 251.91H84.0794V255.057H85.8536V256.155H84.0794V259.292H82.779V251.91ZM89.938 252.466C90.4698 252.463 90.9564 252.558 91.398 252.751C91.8427 252.942 92.2101 253.212 92.5002 253.564C92.7934 253.915 92.9852 254.318 93.0754 254.772H95.4684V251.91H96.764V258.485H95.4684V255.831H93.0803C92.9965 256.295 92.8096 256.706 92.5195 257.064C92.2294 257.418 91.8604 257.694 91.4125 257.89C90.9677 258.087 90.4762 258.185 89.938 258.185C89.3192 258.185 88.7665 258.064 88.2799 257.823C87.7932 257.578 87.4129 257.238 87.139 256.802C86.865 256.367 86.7297 255.873 86.7329 255.318C86.7297 254.767 86.865 254.276 87.139 253.844C87.4129 253.409 87.7932 253.07 88.2799 252.829C88.7697 252.584 89.3224 252.463 89.938 252.466ZM87.9656 255.318C87.9656 255.663 88.0494 255.971 88.217 256.242C88.3846 256.509 88.6183 256.719 88.918 256.87C89.2177 257.018 89.5577 257.093 89.938 257.093C90.3119 257.093 90.647 257.018 90.9435 256.87C91.24 256.719 91.4705 256.509 91.6348 256.242C91.8024 255.971 91.8862 255.663 91.8862 255.318C91.8862 254.97 91.8024 254.663 91.6348 254.395C91.4705 254.128 91.24 253.921 90.9435 253.776C90.6503 253.628 90.3151 253.555 89.938 253.559C89.5577 253.555 89.2177 253.628 88.918 253.776C88.6183 253.921 88.3846 254.128 88.217 254.395C88.0494 254.663 87.9656 254.97 87.9656 255.318ZM88.7778 259.079H90.0637V260.506H95.4684V259.079H96.764V264.006H88.7778V259.079ZM95.4684 262.947V261.526H90.0637V262.947H95.4684ZM108.279 255.536H110.053V256.624H108.279V260.926H106.978V251.92H108.279V255.536ZM99.1226 252.795H100.404V254.762H103.614V252.795H104.899V258.896H99.1226V252.795ZM103.614 257.861V255.778H100.404V257.861H103.614ZM100.515 260.032H101.806V262.845H108.801V263.909H100.515V260.032ZM115.027 254.173C115.027 254.692 115.143 255.186 115.375 255.657C115.61 256.127 115.948 256.545 116.39 256.909C116.835 257.27 117.362 257.547 117.971 257.74L117.352 258.756C116.666 258.533 116.071 258.203 115.568 257.765C115.065 257.326 114.677 256.811 114.403 256.218C114.132 256.898 113.733 257.491 113.204 257.997C112.676 258.499 112.047 258.878 111.319 259.133L110.657 258.098C111.282 257.892 111.825 257.589 112.286 257.189C112.75 256.79 113.106 256.33 113.354 255.811C113.602 255.293 113.728 254.75 113.731 254.182V253.844H111.034V252.79H117.671V253.844H115.027V254.173ZM112.31 261.84C112.31 261.363 112.474 260.953 112.803 260.612C113.135 260.27 113.609 260.011 114.224 259.834C114.84 259.653 115.571 259.563 116.419 259.563C117.26 259.563 117.985 259.653 118.594 259.834C119.207 260.011 119.676 260.27 120.001 260.612C120.327 260.953 120.489 261.363 120.489 261.84C120.489 262.32 120.327 262.733 120.001 263.077C119.676 263.422 119.207 263.685 118.594 263.865C117.985 264.049 117.26 264.141 116.419 264.141C115.571 264.141 114.84 264.049 114.224 263.865C113.609 263.685 113.135 263.422 112.803 263.077C112.474 262.733 112.31 262.32 112.31 261.84ZM113.61 261.84C113.607 262.11 113.717 262.341 113.939 262.531C114.161 262.721 114.482 262.866 114.901 262.966C115.323 263.066 115.829 263.116 116.419 263.116C117.006 263.116 117.508 263.066 117.927 262.966C118.346 262.866 118.665 262.721 118.884 262.531C119.107 262.341 119.218 262.11 119.218 261.84C119.218 261.576 119.108 261.35 118.889 261.163C118.67 260.976 118.353 260.834 117.937 260.738C117.524 260.641 117.028 260.593 116.448 260.593C115.852 260.593 115.341 260.641 114.916 260.738C114.49 260.834 114.165 260.976 113.939 261.163C113.717 261.347 113.607 261.572 113.61 261.84ZM119.078 251.91H120.378V254.941H122.152V256.015H120.378V259.263H119.078V251.91Z" fill="#798087"/>
<path d="M222.638 257.019H222.704L224.876 253.514H226.119L223.45 257.757L226.119 262H224.876L222.704 258.561H222.638L220.467 262H219.224L221.959 257.757L219.224 253.514H220.475L222.638 257.019ZM229.986 257.019H230.052L232.223 253.514H233.466L230.798 257.757L233.466 262H232.223L230.052 258.561H229.986L227.815 262H226.571L229.306 257.757L226.571 253.514H227.823L229.986 257.019ZM237.333 257.019H237.4L239.571 253.514H240.814L238.146 257.757L240.814 262H239.571L237.4 258.561H237.333L235.162 262H233.919L236.654 257.757L233.919 253.514H235.17L237.333 257.019ZM242.269 264.395H241.399L242.046 261.204H243.173L242.269 264.395ZM247.775 257.019H247.841L250.012 253.514H251.256L248.587 257.757L251.256 262H250.012L247.841 258.561H247.775L245.604 262H244.36L247.095 257.757L244.36 253.514H245.612L247.775 257.019ZM255.122 257.019H255.189L257.36 253.514H258.603L255.935 257.757L258.603 262H257.36L255.189 258.561H255.122L252.951 262H251.708L254.443 257.757L251.708 253.514H252.96L255.122 257.019ZM262.47 257.019H262.536L264.708 253.514H265.951L263.282 257.757L265.951 262H264.708L262.536 258.561H262.47L260.299 262H259.056L261.791 257.757L259.056 253.514H260.307L262.47 257.019Z" fill="#798087"/>
<path d="M331.638 257.019H331.704L333.876 253.514H335.119L332.45 257.757L335.119 262H333.876L331.704 258.561H331.638L329.467 262H328.224L330.959 257.757L328.224 253.514H329.475L331.638 257.019ZM338.986 257.019H339.052L341.223 253.514H342.466L339.798 257.757L342.466 262H341.223L339.052 258.561H338.986L336.815 262H335.571L338.306 257.757L335.571 253.514H336.823L338.986 257.019ZM346.333 257.019H346.4L348.571 253.514H349.814L347.146 257.757L349.814 262H348.571L346.4 258.561H346.333L344.162 262H342.919L345.654 257.757L342.919 253.514H344.17L346.333 257.019ZM351.269 264.395H350.399L351.046 261.204H352.173L351.269 264.395ZM356.775 257.019H356.841L359.012 253.514H360.256L357.587 257.757L360.256 262H359.012L356.841 258.561H356.775L354.604 262H353.36L356.095 257.757L353.36 253.514H354.612L356.775 257.019ZM364.122 257.019H364.189L366.36 253.514H367.603L364.935 257.757L367.603 262H366.36L364.189 258.561H364.122L361.951 262H360.708L363.443 257.757L360.708 253.514H361.96L364.122 257.019ZM371.47 257.019H371.536L373.708 253.514H374.951L372.282 257.757L374.951 262H373.708L371.536 258.561H371.47L369.299 262H368.056L370.791 257.757L368.056 253.514H369.307L371.47 257.019Z" fill="#798087"/>
<path d="M439.638 257.019H439.704L441.876 253.514H443.119L440.45 257.757L443.119 262H441.876L439.704 258.561H439.638L437.467 262H436.224L438.959 257.757L436.224 253.514H437.475L439.638 257.019ZM446.986 257.019H447.052L449.223 253.514H450.466L447.798 257.757L450.466 262H449.223L447.052 258.561H446.986L444.815 262H443.571L446.306 257.757L443.571 253.514H444.823L446.986 257.019ZM454.333 257.019H454.4L456.571 253.514H457.814L455.146 257.757L457.814 262H456.571L454.4 258.561H454.333L452.162 262H450.919L453.654 257.757L450.919 253.514H452.17L454.333 257.019ZM459.269 264.395H458.399L459.046 261.204H460.173L459.269 264.395ZM464.775 257.019H464.841L467.012 253.514H468.256L465.587 257.757L468.256 262H467.012L464.841 258.561H464.775L462.604 262H461.36L464.095 257.757L461.36 253.514H462.612L464.775 257.019ZM472.122 257.019H472.189L474.36 253.514H475.603L472.935 257.757L475.603 262H474.36L472.189 258.561H472.122L469.951 262H468.708L471.443 257.757L468.708 253.514H469.96L472.122 257.019ZM479.47 257.019H479.536L481.708 253.514H482.951L480.282 257.757L482.951 262H481.708L479.536 258.561H479.47L477.299 262H476.056L478.791 257.757L476.056 253.514H477.307L479.47 257.019Z" fill="#798087"/>
</svg>
