<svg width="142" height="142" viewBox="0 0 142 142" fill="none" xmlns="http://www.w3.org/2000/svg">
<path d="M8.99151 81.1341C13.2681 78.2719 7.90987 82.8426 13.1905 77.9169C13.5694 77.5717 13.9656 77.2459 14.3775 76.9407C16.0693 75.6316 15.975 73.6126 16.4576 71.8487C17.3396 68.5982 18.1217 65.3089 19.1756 62.1194C20.0464 59.5013 21.2446 56.9886 22.365 54.4592C23.2248 52.5178 24.3619 50.7428 26.3255 49.7388C27.3002 49.2305 28.3317 48.8395 29.3985 48.574C33.5808 47.5644 37.7964 46.6936 41.9788 45.6619C44.7189 44.9851 46.7768 45.7894 48.3355 48.0914C48.6267 48.4953 48.9494 48.8755 49.3007 49.2285C49.5808 49.5744 49.9728 49.8119 50.4092 49.9C50.8455 49.9881 51.2989 49.9213 51.6914 49.7111C53.9101 48.8014 56.1288 47.9028 58.5861 48.169C59.4409 48.2355 60.2728 48.4777 61.0297 48.8805C61.7866 49.2832 62.4522 49.8379 62.9848 50.5098C62.9848 48.2911 62.8572 46.3219 63.0458 44.3694C63.4008 40.7029 64.5712 37.3582 68.0047 35.4223C69.192 34.7261 70.5173 34.2982 71.8875 34.1687C76.1753 33.9191 80.4741 33.9136 84.7729 33.8026C87.5463 33.725 90.3198 34.0245 93.0433 33.3589C95.7668 32.6933 98.4737 33.4698 101.081 34.3573C106.25 36.1896 111.153 38.6983 115.663 41.8179C116.961 42.6943 118.287 43.5208 119.602 44.375C122.375 46.1999 120.6 45.8948 123.939 45.9392L126.752 46.4606C126.863 46.4797 126.969 46.5251 127.06 46.5931C127.151 46.661 127.224 46.7495 127.274 46.8514C127.324 46.9532 127.348 47.0655 127.346 47.1788C127.344 47.2922 127.315 47.4035 127.262 47.5034C127.007 47.9139 126.502 47.7586 123.867 47.6976C119.213 47.5922 120.023 47.0042 116.268 44.3195C110.688 40.3258 104.714 37.0476 98.041 35.206C95.0125 34.3684 92.0893 35.0507 89.2936 36.1767C85.7769 37.5912 82.3378 39.2053 78.86 40.7251C76.6412 41.7014 75.199 43.4209 74.9217 45.7894C74.7284 47.9386 74.7154 50.1002 74.8828 52.2516C74.9846 54.6171 74.6557 56.9815 73.9121 59.2295C73.7647 59.6479 73.7125 60.094 73.7595 60.5352C73.8065 60.9764 73.9514 61.4014 74.1837 61.7794C74.4161 62.1574 74.7299 62.4787 75.1023 62.7199C75.4746 62.961 75.8962 63.116 76.3361 63.1733C78.4939 63.5172 80.6849 63.4729 82.3323 61.7922C83.1216 60.9399 83.7326 59.9385 84.1295 58.8468C84.8104 57.0523 85.3555 55.2093 85.7603 53.3332C85.8938 52.6282 86.2161 51.9727 86.6927 51.4364C87.1694 50.9001 87.7827 50.5032 88.4671 50.288C90.3976 49.6989 92.3657 49.2412 94.3579 48.9179C94.6075 48.868 95.1955 49.284 95.1955 49.4726C95.1875 49.6685 95.133 49.8596 95.0365 50.0303C94.9401 50.2011 94.8045 50.3464 94.6408 50.4544C93.8621 50.7049 93.067 50.9014 92.2612 51.0423L91.3737 51.2531C91.9839 52.2515 92.5774 53.1612 93.1099 54.1042C94.1305 55.8903 94.9459 57.8151 96.144 59.468C98.9563 63.3508 102.8 66.0411 107.238 67.8438C109.978 68.9532 112.785 69.5966 115.769 68.8922C116.107 68.8145 116.573 69.2583 116.978 69.4469C116.684 69.7963 116.457 70.3344 116.091 70.4619C113.628 71.3106 111.098 70.9833 108.747 70.2068C103.039 68.3486 98.1464 65.2146 94.5576 60.2945C93.5592 58.93 92.8935 57.3103 92.1003 55.8126C91.9339 55.502 91.7398 55.2025 91.5013 54.8142C91.2572 56.3562 91.0742 57.7097 90.8135 59.0465C90.6859 59.6899 90.0868 60.4498 90.2865 60.8936C90.4862 61.3373 91.3959 61.4871 92.0116 61.7922C94.4245 63.0347 95.0513 65.0815 93.7422 67.6164C93.4482 68.1711 93.4482 68.4595 93.9863 68.9199C96.4546 71.0055 96.5988 75.5484 94.2192 77.6951C92.8262 78.9004 91.3549 80.0122 89.815 81.0232C89.6055 81.1316 89.4395 81.3086 89.3446 81.5246C89.2497 81.7406 89.2317 81.9826 89.2936 82.2102C89.3428 82.9085 89.2542 83.6096 89.0329 84.2737C88.9442 84.5565 88.4283 84.7008 88.101 84.9115C87.8329 84.5775 87.6195 84.2031 87.4687 83.8022C87.4609 83.4233 87.5268 83.0465 87.6628 82.6928L87.3522 82.482C86.7884 82.7785 86.2437 83.1101 85.7214 83.4749C85.1668 83.9076 84.5455 84.4012 84.0019 83.6247C83.4583 82.8481 84.1739 82.3544 84.7285 82.005C86.3926 80.9677 88.1177 80.0469 89.7485 78.9764C90.9628 78.1766 92.111 77.2807 93.182 76.2972C94.602 74.9937 94.491 71.4215 92.9102 70.3122C92.5409 70.1304 92.1357 70.0331 91.7241 70.0273C91.3125 70.0216 90.9048 70.1075 90.5306 70.2789C87.502 71.771 84.5621 73.4351 81.589 75.0326C80.8438 75.3571 80.1194 75.7276 79.4202 76.1419C77.9392 77.0943 76.5402 78.1686 75.2378 79.3536C74.6641 80.0609 74.3912 80.9653 74.4779 81.8719C74.8606 85.5994 76.1808 87.4187 80.4741 87.2634C83.2087 87.158 85.9267 86.7087 88.6557 86.6033C90.2699 86.5368 91.9006 86.8419 93.5259 86.9362C97.2994 87.1625 101.079 86.5957 104.62 85.2721C109.212 83.5581 113.7 81.5779 118.27 79.8029C121.183 78.6935 124.267 78.8044 127.329 78.8433C129.83 78.8821 128.166 79.1151 130.657 79.1372C130.874 79.1407 131.083 79.2184 131.249 79.3575C131.416 79.4965 131.53 79.6884 131.572 79.9013C131.614 80.1141 131.582 80.335 131.481 80.527C131.38 80.7191 131.216 80.8707 131.017 80.9566C127.39 80.9067 127.933 80.4962 124.317 80.6349C122.193 80.6906 120.089 81.0645 118.076 81.7443C114.909 82.8537 111.914 84.4567 108.78 85.6881C103.754 87.6517 98.5458 89.2714 93.1154 88.6002C88.8942 88.0788 84.8284 89.0551 80.696 88.994C79.1414 88.9083 77.6048 88.6192 76.1253 88.1343C75.5459 87.9439 75.0195 87.6197 74.5888 87.188C74.158 86.7562 73.835 86.2291 73.6459 85.6493C72.7362 83.314 72.1538 80.9788 73.4351 78.5881L70.0071 78.4605C69.8241 80.0081 69.7963 81.6611 69.1751 83.1532C69.0138 83.5614 68.8073 83.9503 68.5594 84.3125C68.3664 84.5848 68.245 84.9012 68.2062 85.2327C68.1674 85.5641 68.2126 85.9 68.3375 86.2095C68.7314 87.8126 69.2971 89.4822 69.1806 91.0741C68.9865 93.7976 66.8399 95.2176 64.671 96.4823C64.166 96.722 63.7135 97.0595 63.3398 97.4752C61.9938 99.41 60.2759 101.057 58.2865 102.321C56.297 103.585 54.0758 104.44 51.7524 104.836C48.0082 105.524 44.2419 106.056 40.4867 106.672C36.4817 107.362 32.6873 108.957 29.3929 111.337C26.3643 113.445 31.6394 109.789 28.4888 111.72C28.3146 111.829 28.1079 111.875 27.9037 111.85C27.6996 111.824 27.5104 111.729 27.3682 111.581C27.2261 111.432 27.1396 111.239 27.1234 111.034C27.1073 110.828 27.1624 110.624 27.2796 110.455C31.4453 107.815 27.1131 110.649 31.301 108.048C34.4073 106.123 37.9129 105.307 41.4851 104.764C44.5414 104.292 47.5867 103.865 50.6541 103.333C55.491 102.49 59.4126 100.21 62.2526 96.0774C62.8073 95.2509 64.0165 94.8349 64.9484 94.2691C67.3335 92.8325 68.1101 90.8134 67.2448 88.1676C67.1431 87.7893 67.0152 87.4187 66.8621 87.0582C66.5303 86.454 66.3858 85.7648 66.4471 85.0783C66.5083 84.3918 66.7725 83.739 67.206 83.2031C67.8485 82.3381 68.2226 81.3032 68.2818 80.2273C68.3409 79.1514 68.0826 78.0818 67.5388 77.1515C66.5514 75.382 65.7638 73.5904 66.2297 71.477C66.2237 71.1018 66.0863 70.7407 65.8414 70.4564C65.3503 69.7975 65.0131 69.037 64.8548 68.2306C64.6964 67.4243 64.7208 66.5927 64.9262 65.797C64.9483 65.632 64.9377 65.4643 64.8948 65.3034C64.852 65.1426 64.7778 64.9917 64.6766 64.8596C63.3232 62.9847 63.1068 60.8936 63.3287 58.6693C63.4563 57.3824 63.7503 55.9458 63.3287 54.8142C62.7019 53.1501 61.9864 51.3696 60.2335 50.4211C59.6248 50.0811 58.9523 49.8706 58.2584 49.8028C57.5644 49.735 56.864 49.8114 56.201 50.0273C54.0654 50.6984 51.9853 51.5582 49.8331 52.1628C46.934 52.9689 44.0052 53.6845 41.0469 54.3094C39.3321 54.6052 37.6027 54.8089 35.8661 54.9196C35.4122 54.9982 34.9459 54.9659 34.5071 54.8253C34.1965 54.6922 33.8082 54.193 33.8526 53.9323C33.9297 53.7508 34.0497 53.5909 34.2024 53.4662C34.3551 53.3416 34.5358 53.2559 34.729 53.2167C37.4747 52.8728 40.2426 52.662 42.9828 52.2793C44.7189 52.0241 46.4107 51.4861 48.1192 51.0756C48.1691 50.9092 48.1857 50.8704 48.2356 50.704C47.3038 49.6667 46.5106 48.4353 45.3956 47.6587C44.5279 47.1978 43.5206 47.0733 42.5667 47.3093C38.2901 48.2134 34.0578 49.3172 29.8089 50.2491C27.4737 50.7594 25.5711 51.8411 24.5782 54.0321C22.9194 57.5197 21.4384 61.089 20.1407 64.7265C19.0314 68.0546 18.6153 71.5824 17.5892 74.9272C17.0955 76.3663 16.2237 77.6461 15.0653 78.6325C11.8315 81.4059 13.4623 80.0525 10.0177 82.5652C9.91467 82.6391 9.79685 82.6898 9.67236 82.7137C9.54786 82.7377 9.41967 82.7343 9.29659 82.7039C9.13047 82.6675 8.97863 82.5833 8.85981 82.4617C8.74099 82.34 8.66037 82.1862 8.62793 82.0193C8.59549 81.8524 8.61263 81.6796 8.67724 81.5223C8.74185 81.365 8.8511 81.2301 8.99151 81.1341ZM73.9898 76.6966C74.8671 76.4225 75.7266 76.0946 76.5635 75.7148C80.4685 73.6921 84.3514 71.6323 88.212 69.5356C89.443 68.9115 90.6177 68.1821 91.7231 67.3557C93.1154 66.2463 92.9435 64.5046 91.4902 63.5117C89.9482 62.4522 88.395 62.663 86.8641 63.5117C82.0938 66.152 76.8797 67.156 71.5436 67.6497C69.4525 67.8438 69.2417 67.8993 68.4928 69.8684C68.3542 70.2345 68.221 70.6006 68.0768 70.9778C67.4611 72.5808 67.977 75.1379 69.1474 76.0144C70.5951 77.1015 72.2148 77.035 73.9898 76.7022V76.6966ZM75.3932 40.8915C74.1174 40.9692 73.1134 40.9969 72.1205 41.1023C71.5325 41.1633 71.0111 41.1855 70.9002 40.4589C70.8644 40.3269 70.8613 40.1883 70.891 40.0548C70.9208 39.9214 70.9825 39.7972 71.0709 39.6929C71.1594 39.5886 71.2718 39.5075 71.3986 39.4563C71.5254 39.4052 71.6628 39.3857 71.7988 39.3994C73.2779 39.3144 74.7682 39.2608 76.2696 39.2386C76.7521 39.2386 77.3068 39.5381 77.7062 39.3828C79.8196 38.5563 81.8941 37.6411 83.9742 36.7369C84.6343 36.443 85.2666 36.0769 86.143 35.6276C85.8026 35.5395 85.4557 35.4783 85.1057 35.4445C80.8069 35.5665 76.5025 35.5998 72.2148 35.8605C68.9199 36.0602 66.6679 37.8796 65.5585 41.008C64.662 43.5697 64.4031 46.3113 64.8042 48.9955C64.8606 49.7706 65.0759 50.5259 65.4365 51.2143C66.8731 53.5495 68.4706 54.0376 71.3938 53.2112C73.3353 52.6565 73.2576 52.6565 73.0135 50.6208C72.5852 47.8592 73.0395 45.0328 74.3115 42.5445C74.55 42.0675 74.8828 41.6348 75.3932 40.8971V40.8915ZM76.5913 64.9983C76.4138 64.9151 76.2307 64.8263 76.0366 64.7542C75.0741 64.4324 74.1377 64.0374 73.2354 63.5727C72.6512 63.2564 72.2 62.7408 71.9638 62.1198C71.7276 61.4989 71.7222 60.8137 71.9485 60.1891C72.2244 59.3465 72.4449 58.4867 72.6086 57.6154C72.8139 56.6391 72.9636 55.6518 73.1633 54.5424C72.6634 54.6948 72.1538 54.8134 71.6379 54.8974C70.3511 55.0697 69.0532 55.1457 67.7551 55.1248C67.4878 55.0718 67.2108 55.1 66.9597 55.2057C66.7086 55.3115 66.4949 55.4901 66.3462 55.7183C65.4351 56.9095 64.9419 58.3677 64.9428 59.8674C64.8985 63.1955 66.5071 65.2645 69.5301 65.8192C71.9485 66.263 74.2394 65.5585 76.5913 65.0038V64.9983ZM83.8632 62.9404L84.0463 63.1512L86.5868 61.6868C89.0551 60.2834 90.4696 56.1399 89.3324 53.5107C89.0794 53.114 88.7648 52.7602 88.4006 52.4623C88.0374 52.7991 87.7336 53.1948 87.502 53.6327C86.4703 56.8111 86.0598 60.2169 83.8632 62.9459V62.9404ZM66.7511 68.7036L67.0895 68.7535C67.3173 68.4024 67.5123 68.031 67.6719 67.6441C67.7001 67.5228 67.6987 67.3965 67.6678 67.2758C67.6369 67.1551 67.5774 67.0436 67.4944 66.9508C67.3866 66.8669 67.2613 66.8085 67.1279 66.7796C66.9944 66.7508 66.8562 66.7524 66.7234 66.7844C66.5736 66.8454 66.4682 67.2447 66.4849 67.4777C66.5394 67.8948 66.6284 68.3067 66.7511 68.7091V68.7036Z" fill="#E17C3D"/>
<path d="M28.3556 112.552C28.2921 112.55 28.2296 112.535 28.1729 112.506C28.1162 112.477 28.0668 112.436 28.0284 112.385C27.631 112.378 27.2525 112.214 26.9745 111.93C26.7402 111.694 26.5963 111.383 26.5679 111.052C26.5395 110.72 26.6284 110.389 26.8191 110.117L26.8801 110.017L26.98 109.956C27.6828 109.46 28.4249 109.022 29.1988 108.647C29.3984 108.536 29.8755 108.247 31.0015 107.537C34.3296 105.468 38.1292 104.675 41.3963 104.176L43.9035 103.799C46.089 103.471 48.341 103.133 50.5598 102.745C55.4632 101.891 59.1352 99.5997 61.7922 95.728C62.3519 95.0522 63.0677 94.523 63.8778 94.186C64.1441 94.0417 64.4325 93.9031 64.6599 93.7588C66.8177 92.4553 67.4888 90.6803 66.7178 88.3229C66.679 88.212 66.6457 88.0955 66.6069 87.9735C66.545 87.7377 66.4633 87.5076 66.3628 87.2856C65.9897 86.5934 65.8271 85.8071 65.8951 85.0236C65.9631 84.24 66.2587 83.4935 66.7455 82.8759C67.3325 82.096 67.6749 81.1594 67.7292 80.1848C67.7835 79.2102 67.5473 78.2414 67.0506 77.4011C66.1132 75.737 65.1591 73.7291 65.6916 71.3439C65.6301 71.1251 65.5244 70.9212 65.381 70.7449C64.8441 70.0228 64.4766 69.1892 64.3056 68.3058C64.1347 67.4224 64.1648 66.5119 64.3937 65.6417C64.3876 65.4696 64.3296 65.3033 64.2273 65.1647C62.9626 63.4174 62.5022 61.3263 62.7795 58.5972C62.7795 58.3698 62.8295 58.1313 62.8572 57.8983C62.9792 56.8666 63.1068 55.796 62.8073 54.9917C62.2526 53.5551 61.5925 51.769 59.9728 50.8926C59.429 50.5874 58.8279 50.3982 58.2073 50.3371C57.5867 50.276 56.9602 50.3443 56.3673 50.5376C55.4687 50.8205 54.5591 51.1477 53.6827 51.4584C52.479 51.8855 51.2365 52.3237 49.9829 52.6787C47.0486 53.4996 44.081 54.2318 41.1689 54.8364C39.8585 55.086 38.534 55.2546 37.2029 55.3412L35.9271 55.4577C35.3788 55.5525 34.8153 55.5048 34.2908 55.319C34.0022 55.1893 33.7566 54.9801 33.5827 54.7158C33.4088 54.4516 33.3139 54.1432 33.309 53.8269C33.4081 53.5279 33.5863 53.2613 33.8245 53.0553C34.0628 52.8493 34.3523 52.7115 34.6624 52.6565C35.8106 52.5123 36.981 52.3958 38.1126 52.2793C39.6879 52.1184 41.3187 51.952 42.9051 51.7246C44.087 51.5254 45.2572 51.2624 46.4107 50.937L47.4757 50.6596C47.3148 50.471 47.1595 50.2824 47.0042 50.1049C46.4569 49.3611 45.8113 48.695 45.085 48.1247C44.3427 47.7554 43.4931 47.663 42.6887 47.864C40.3812 48.3521 38.0405 48.9068 35.7829 49.4449C33.8581 49.8997 31.8723 50.3712 29.9088 50.8038C27.4293 51.3585 25.8928 52.4679 25.0719 54.2706L24.6115 55.2857C23.1242 58.42 21.7986 61.6284 20.6399 64.8984C20.0901 66.6567 19.6365 68.4436 19.2809 70.2512C18.937 71.8487 18.582 73.4961 18.0939 75.0881C17.5673 76.6264 16.6361 77.9944 15.3981 79.0485L14.6327 79.7086C13.8966 80.3902 13.1145 81.0203 12.2919 81.5945C11.9036 81.8663 11.3323 82.2657 10.3172 83.009C10.1487 83.1307 9.95571 83.2142 9.75161 83.2535C9.54752 83.2927 9.33731 83.2869 9.1357 83.2364C8.86916 83.1759 8.62621 83.0385 8.43692 82.8414C8.24764 82.6442 8.12031 82.3958 8.07069 82.127C8.02023 81.8541 8.05119 81.5724 8.15968 81.3169C8.26818 81.0615 8.44942 80.8436 8.68085 80.6904C9.28001 80.2241 9.94562 79.8502 10.6555 79.581C11.0716 79.1539 11.7649 78.5216 12.8133 77.5287C13.1849 77.1848 13.5843 76.8742 13.9726 76.5746L14.0391 76.5191C15.1485 75.6649 15.3815 74.4169 15.6311 73.0967C15.7143 72.6474 15.7975 72.1815 15.9251 71.7267C16.158 70.8613 16.3855 69.996 16.6073 69.1252C17.223 66.7622 17.8609 64.3216 18.6486 61.9642C19.3697 59.8009 20.3127 57.6875 21.2334 55.6463C21.4442 55.1859 21.6494 54.7199 21.8547 54.2595C22.6091 52.5511 23.7739 50.4433 26.0759 49.2674C27.0873 48.7379 28.1579 48.3301 29.2653 48.0526C31.179 47.5977 33.1481 47.154 35.023 46.7324C37.2417 46.2277 39.577 45.7007 41.8456 45.146C44.8187 44.4083 47.093 45.2791 48.7959 47.803C49.0424 48.1536 49.3189 48.4821 49.6223 48.7848L49.7055 48.8735C49.9099 49.1355 50.2018 49.3151 50.5279 49.3793C50.8539 49.4435 51.1921 49.388 51.4805 49.223C53.5884 48.3466 55.9791 47.3592 58.6471 47.6421C60.0328 47.7556 61.3508 48.2898 62.4245 49.1731C62.4245 48.9456 62.4245 48.7238 62.4245 48.5019C62.3711 47.1129 62.3988 45.7219 62.5077 44.3362C62.9515 39.7045 64.6155 36.7259 67.7384 34.962C69.006 34.2177 70.4233 33.7649 71.8875 33.6363C74.8495 33.4643 77.867 33.4088 80.7625 33.3534C82.0974 33.3312 83.4342 33.3035 84.7729 33.2702C85.5494 33.2702 86.3371 33.2702 87.097 33.2702C89.0521 33.3738 91.0125 33.2322 92.9323 32.8486C95.8334 32.1442 98.5347 32.9263 101.253 33.8637C106.471 35.7051 111.42 38.2346 115.969 41.3852C116.801 41.9399 117.633 42.4946 118.487 43.0493L119.896 43.959C120.455 44.3135 120.989 44.7064 121.493 45.1349C121.843 45.4234 121.837 45.4234 122.775 45.4234H123.939H124.034L126.851 45.9448C127.057 45.9841 127.251 46.0728 127.415 46.2032C127.579 46.3336 127.709 46.5019 127.794 46.6936C127.873 46.8703 127.908 47.0633 127.897 47.2564C127.885 47.4495 127.827 47.637 127.728 47.803C127.367 48.3854 126.84 48.3577 125.426 48.3077L123.851 48.2578C120.317 48.1746 119.729 47.8085 118.032 46.3996C117.511 45.9725 116.867 45.44 115.941 44.7744C109.745 40.3369 103.843 37.3915 97.8913 35.7496C95.4118 35.0618 92.8214 35.3558 89.4933 36.6981C87.1525 37.6411 84.8062 38.6895 82.532 39.7045C81.3838 40.2204 80.23 40.7363 79.0762 41.241C76.9573 42.1618 75.7093 43.7593 75.4652 45.8616C75.2765 47.9776 75.2635 50.1057 75.4264 52.2238C75.532 54.6567 75.1956 57.0886 74.4335 59.4015C74.3135 59.7473 74.2707 60.1152 74.3081 60.4794C74.3454 60.8435 74.4621 61.1951 74.6498 61.5093C74.8457 61.8111 75.105 62.0667 75.4096 62.2583C75.7142 62.4499 76.0568 62.5728 76.4137 62.6187C79.0319 63.0347 80.6793 62.6686 81.9273 61.3984C82.6614 60.5941 83.2272 59.6511 83.5914 58.6249C84.2641 56.8581 84.8018 55.0427 85.2 53.1945C85.3507 52.3955 85.7157 51.6524 86.256 51.0448C86.7963 50.4371 87.4915 49.9876 88.2674 49.7444C89.9008 49.225 91.5691 48.8228 93.2596 48.5407L94.2359 48.3521C94.4373 48.3396 94.6392 48.3676 94.8298 48.4342C95.0203 48.5009 95.1955 48.605 95.3452 48.7404C95.4641 48.8231 95.5631 48.9312 95.6351 49.0569C95.707 49.1825 95.7501 49.3226 95.7613 49.467C95.754 49.7744 95.6654 50.0744 95.5047 50.3364C95.3439 50.5985 95.1167 50.8133 94.846 50.9591C94.2693 51.1667 93.6753 51.3227 93.071 51.4251L92.3943 51.5693L92.2556 51.6026L92.422 51.8744C92.838 52.5345 93.2263 53.1613 93.598 53.8158C93.9696 54.4703 94.2858 55.0805 94.6075 55.7017C95.1882 56.8924 95.8537 58.0399 96.5988 59.1352C99.1892 62.7296 102.734 65.4088 107.437 67.3169C110.616 68.6149 113.145 68.931 115.63 68.3431C115.855 68.3224 116.081 68.3477 116.296 68.4173C116.51 68.4869 116.708 68.5994 116.878 68.748C116.986 68.8262 117.099 68.8966 117.217 68.9588L117.843 69.2694L117.394 69.8241C117.312 69.9267 117.236 70.0342 117.167 70.1458C116.968 70.5225 116.65 70.8228 116.262 71C113.999 71.7821 111.481 71.7045 108.569 70.7559C102.423 68.748 97.5584 65.3477 94.1027 60.6385C93.4303 59.6592 92.8439 58.6236 92.3499 57.5433C92.1669 57.1827 91.9894 56.8222 91.7952 56.4672C91.651 57.3991 91.5123 58.2866 91.3404 59.1685C91.268 59.482 91.1581 59.7855 91.0131 60.0727C90.9069 60.2732 90.8303 60.4881 90.7857 60.7106C91.0196 60.8391 91.267 60.9414 91.5234 61.0156C91.7718 61.0977 92.0145 61.196 92.2501 61.3096C92.8307 61.5657 93.3535 61.9366 93.7872 62.3998C94.2209 62.8631 94.5565 63.4092 94.7739 64.0054C94.9458 64.6568 94.9853 65.3361 94.8901 66.003C94.7948 66.67 94.5667 67.311 94.2192 67.8882C94.0306 68.2599 94.0306 68.2599 94.3301 68.5095C95.007 69.1252 95.5465 69.8766 95.9136 70.7148C96.2806 71.553 96.4668 72.4591 96.4601 73.3741C96.5022 74.2542 96.3556 75.1331 96.0304 75.952C95.7051 76.7708 95.2086 77.5108 94.5742 78.1222C93.1719 79.3492 91.6895 80.4814 90.1367 81.5113C89.8261 81.7221 89.8094 81.761 89.8538 82.1825C89.9129 82.9555 89.8167 83.7325 89.5709 84.4678C89.4863 84.6503 89.3654 84.8138 89.2157 84.9482C89.066 85.0826 88.8906 85.1853 88.7001 85.2499C88.6028 85.296 88.5083 85.3479 88.4172 85.4052L87.9402 85.7159L87.6406 85.2277C87.5796 85.1334 87.513 85.0336 87.4409 84.9393C87.2123 84.6529 87.041 84.3253 86.9362 83.9742C86.9023 83.7908 86.9023 83.6028 86.9362 83.4195C86.6365 83.5862 86.3475 83.7714 86.0709 83.9742L86.0209 84.013C85.8198 84.2162 85.5793 84.3761 85.3141 84.483C85.0489 84.5898 84.7647 84.6413 84.4789 84.6342C84.2914 84.5984 84.1134 84.5242 83.9559 84.4163C83.7984 84.3085 83.6649 84.1693 83.5637 84.0074C83.4425 83.8522 83.3556 83.6731 83.3088 83.4819C83.2619 83.2907 83.2562 83.0917 83.2919 82.8981C83.3857 82.6132 83.5363 82.3503 83.7346 82.1254C83.933 81.9004 84.1748 81.7179 84.4456 81.589C85.1778 81.1286 85.9266 80.6904 86.6644 80.2688C87.5962 79.7142 88.5614 79.1595 89.4711 78.5604C90.6607 77.7759 91.7866 76.8986 92.838 75.9367C93.3927 75.4209 93.7145 74.3337 93.6423 73.1633C93.6456 72.721 93.5566 72.2828 93.3808 71.8769C93.2051 71.4709 92.9465 71.1062 92.6217 70.8059C92.3344 70.6819 92.0249 70.618 91.712 70.618C91.3992 70.618 91.0896 70.6819 90.8023 70.8059C88.6446 71.8709 86.4924 73.0246 84.4123 74.1784C83.5692 74.6369 82.7242 75.0955 81.8774 75.554C81.6112 75.6982 81.3227 75.8258 81.062 75.9534C80.6108 76.1522 80.1767 76.3878 79.7641 76.6578L79.1539 77.0794C77.9137 77.8906 76.743 78.8034 75.6538 79.8085C75.2 80.3975 74.9878 81.1374 75.0603 81.8774C75.3987 85.1778 76.3472 86.9362 80.4796 86.7698C81.8386 86.7199 83.2198 86.5812 84.5566 86.4425C85.8934 86.3038 87.2856 86.1707 88.6612 86.1097C89.7254 86.0932 90.7894 86.1525 91.8451 86.2872C92.3998 86.3482 93.01 86.4092 93.5869 86.4425C97.2852 86.6594 100.988 86.1021 104.459 84.8062C107.055 83.8355 109.662 82.7594 112.191 81.7221C114.121 80.9289 116.118 80.108 118.104 79.337C120.927 78.2276 123.895 78.2886 126.768 78.333H127.367C127.983 78.2982 128.6 78.3581 129.198 78.5105C129.694 78.6268 130.204 78.6661 130.712 78.627C131.059 78.6241 131.395 78.7439 131.662 78.9651C131.929 79.1864 132.109 79.4949 132.171 79.8362C132.241 80.1735 132.19 80.5246 132.028 80.8285C131.866 81.1324 131.602 81.3701 131.283 81.5002L131.172 81.5446H131.056C129.99 81.5404 128.925 81.4719 127.867 81.3394C126.712 81.1873 125.545 81.1482 124.383 81.2229C122.316 81.2794 120.269 81.644 118.309 82.3045C116.551 82.9258 114.804 83.7135 113.112 84.4789C111.786 85.078 110.416 85.6992 109.029 86.2428C104.076 88.1842 98.7177 89.8816 93.0932 89.1882C90.677 88.9748 88.2451 89.0175 85.8379 89.3158C84.1426 89.4938 82.4393 89.5846 80.7348 89.5876C79.1238 89.519 77.5291 89.2374 75.9922 88.75C75.3298 88.5383 74.727 88.1725 74.2333 87.6827C73.7396 87.1928 73.3691 86.5929 73.1522 85.9322C72.3202 83.8077 71.7044 81.5335 72.5975 79.1927L70.5174 79.1206C70.5174 79.287 70.4897 79.4534 70.473 79.6199C70.4121 80.9274 70.1521 82.218 69.702 83.4472C69.5166 83.8598 69.286 84.2505 69.0142 84.612C68.6814 85.0835 68.7147 85.3997 68.8755 86.0598C68.9532 86.3649 69.0309 86.6699 69.1141 86.975C69.545 88.3075 69.7548 89.7016 69.7353 91.1019C69.5245 94.0473 67.2559 95.6004 64.9484 96.9427L64.8319 97.0093C64.4377 97.1989 64.0837 97.4626 63.7891 97.7859C62.3975 99.7716 60.626 101.462 58.577 102.758C56.5281 104.055 54.2425 104.933 51.8522 105.341C49.4171 105.79 46.9321 106.178 44.5303 106.55L40.5754 107.182C36.6521 107.857 32.9352 109.421 29.7091 111.753L29.1544 112.136C29.049 112.213 28.9491 112.285 28.8548 112.341L28.755 112.413C28.6361 112.493 28.4985 112.541 28.3556 112.552ZM27.6955 110.821C27.6736 110.88 27.6693 110.943 27.6831 111.005C27.6969 111.066 27.7282 111.121 27.7732 111.165C27.8264 111.223 27.8989 111.261 27.9774 111.27C28.0559 111.279 28.1351 111.26 28.2003 111.215C28.6016 110.915 29.0521 110.688 29.5316 110.544C32.7848 108.286 36.4944 106.771 40.3979 106.106C41.718 105.89 43.0382 105.685 44.3584 105.479C46.7546 105.102 49.2285 104.719 51.6469 104.276C53.8984 103.891 56.0514 103.065 57.9813 101.843C59.9112 100.622 61.5797 99.0296 62.8905 97.1591C63.2684 96.6948 63.7412 96.3165 64.2772 96.0497L64.3881 95.9831C66.5237 94.7406 68.454 93.4316 68.6315 91.0187C68.6333 89.7416 68.433 88.4723 68.038 87.2579C67.9548 86.9417 67.8771 86.6367 67.7995 86.326C67.6552 85.9388 67.6076 85.5221 67.6607 85.1123C67.7139 84.7025 67.8662 84.3118 68.1045 83.9742C68.3207 83.6754 68.5065 83.3558 68.6592 83.0201C69.0578 81.8915 69.2877 80.7102 69.3415 79.5145C69.3803 79.165 69.4136 78.8211 69.4524 78.4772L69.5134 77.9724L74.3337 78.1499L73.9177 78.932C72.8083 81.0288 73.2021 83.0867 74.1562 85.5328C74.3121 86.0339 74.5859 86.4903 74.9546 86.8638C75.3232 87.2373 75.7761 87.517 76.2751 87.6795C77.7101 88.1569 79.2025 88.4405 80.7126 88.5226C82.3803 88.5214 84.0468 88.4307 85.7048 88.2508C88.1897 87.9476 90.6998 87.9085 93.193 88.1343C98.5624 88.7944 103.765 87.1414 108.586 85.2499C109.945 84.6952 111.304 84.1073 112.613 83.5138C114.327 82.7372 116.096 81.9384 117.904 81.295C119.97 80.5993 122.127 80.2142 124.305 80.1524C125.525 80.076 126.749 80.1168 127.961 80.2744C128.934 80.4 129.914 80.4667 130.895 80.4741C130.956 80.4303 131.002 80.3696 131.029 80.2996C131.056 80.2296 131.061 80.1533 131.045 80.0802C131.029 79.9907 130.982 79.9096 130.912 79.8517C130.842 79.7938 130.753 79.7627 130.662 79.7641C130.045 79.8065 129.425 79.7504 128.826 79.5977C128.331 79.4781 127.82 79.4351 127.312 79.4701H126.713C123.939 79.4257 121.088 79.3813 118.465 80.3964C116.495 81.1619 114.499 81.9828 112.574 82.776C110.039 83.8188 107.421 84.8949 104.808 85.8712C101.196 87.2263 97.3387 87.8084 93.487 87.5796C92.8824 87.5463 92.2778 87.4798 91.6898 87.4188C90.6876 87.2884 89.6773 87.231 88.6668 87.2468C87.3244 87.3023 85.9544 87.441 84.6287 87.5741C83.303 87.7072 81.8552 87.8514 80.4852 87.9069C76.2141 88.0844 74.3836 86.4314 73.9177 82.0161C73.866 81.4851 73.9209 80.9491 74.079 80.4395C74.2371 79.93 74.4953 79.4571 74.8384 79.0485C75.9698 77.9961 77.1889 77.0422 78.4827 76.1974L79.0873 75.7759C79.5511 75.4688 80.0412 75.2034 80.5517 74.9827C80.8069 74.8606 81.0676 74.7386 81.3116 74.6055L83.841 73.2354C85.9322 72.0927 88.0955 70.9168 90.2754 69.8407C91.063 69.4524 92.4664 69.3859 93.2152 69.9184C93.681 70.3106 94.0558 70.7997 94.3134 71.3514C94.5711 71.9032 94.7055 72.5044 94.7073 73.1134C94.8072 74.6221 94.3634 76.0199 93.548 76.7688C92.4527 77.7688 91.2806 78.6813 90.0424 79.4978C89.105 80.1135 88.1287 80.6849 87.1858 81.234C86.4647 81.6556 85.7214 82.0882 85.0114 82.5375C84.8395 82.6429 84.3902 82.9258 84.3513 83.1255C84.3506 83.2149 84.3821 83.3015 84.4401 83.3695C84.5288 83.4971 84.5954 83.5359 84.6231 83.5415C84.7618 83.5415 85.1113 83.2919 85.322 83.131L85.3719 83.0922C85.7689 82.804 86.186 82.5444 86.62 82.3156L87.0637 82.066L87.3633 81.8885L88.273 82.5042L88.1953 82.8648C88.1676 82.9979 88.1287 83.1255 88.0899 83.2586C88.0348 83.4082 88.003 83.5653 87.9956 83.7245C88.056 83.904 88.1481 84.0712 88.2674 84.2182C88.3512 84.1798 88.4311 84.1333 88.5059 84.0795C88.6965 83.5045 88.7719 82.8976 88.7278 82.2934C88.6544 81.9664 88.6887 81.6244 88.8256 81.3185C88.9626 81.0126 89.1949 80.7591 89.4877 80.5961C91.0076 79.5938 92.4603 78.4932 93.8365 77.3013C94.3495 76.798 94.7501 76.1918 95.012 75.5226C95.274 74.8533 95.3913 74.1363 95.3563 73.4184C95.3639 72.6624 95.2134 71.9131 94.9144 71.2187C94.6154 70.5242 94.1746 69.8999 93.6201 69.3859C93.4592 69.2859 93.3208 69.1536 93.2136 68.9975C93.1064 68.8413 93.0327 68.6646 92.9973 68.4785C92.9618 68.2924 92.9654 68.101 93.0077 67.9163C93.05 67.7316 93.1301 67.5578 93.243 67.4056C93.5271 66.9548 93.7177 66.4514 93.8034 65.9254C93.8892 65.3994 93.8684 64.8615 93.7422 64.3438C93.5671 63.8885 93.3027 63.4728 92.9645 63.1213C92.6264 62.7698 92.2212 62.4895 91.773 62.297C91.582 62.2074 91.3856 62.1296 91.1851 62.064C90.9031 62.0101 90.6348 61.8998 90.3965 61.7397C90.1582 61.5796 89.9548 61.3729 89.7984 61.1321C89.7277 60.8764 89.7123 60.6085 89.7535 60.3464C89.7946 60.0843 89.8912 59.834 90.0369 59.6123C90.1418 59.4011 90.2254 59.18 90.2865 58.9522C90.4695 58.0259 90.6082 57.0829 90.7635 56.0845C90.8301 55.6463 90.8966 55.197 90.9687 54.7366L91.2128 53.2278L92.2168 54.8919C92.361 55.1248 92.4886 55.3356 92.6051 55.552C92.8713 56.0401 93.1154 56.5393 93.365 57.0385C93.8338 58.0611 94.3906 59.0411 95.0291 59.9673C98.3572 64.4824 103.022 67.7329 108.941 69.6799C111.614 70.5563 113.9 70.6339 115.93 69.935C116.041 69.8438 116.135 69.7328 116.207 69.6077C116.104 69.5371 115.994 69.4759 115.88 69.4247C113.167 70.057 110.444 69.7242 107.049 68.3153C102.223 66.3462 98.4127 63.4674 95.7335 59.7509C94.9558 58.6114 94.2607 57.4176 93.6534 56.1788C93.3373 55.5686 93.01 54.9363 92.6661 54.3317C92.3222 53.727 91.9228 53.0781 91.5179 52.4291L90.9632 51.4972L90.5638 50.8482L91.6732 50.582L92.2279 50.4544C92.4608 50.3989 92.6994 50.3545 92.9379 50.3046C93.4792 50.2107 94.0118 50.0715 94.5298 49.8886C94.6132 49.7915 94.6755 49.6782 94.7129 49.5558C94.646 49.5006 94.5712 49.4557 94.491 49.4227L93.5758 49.6002C91.9395 49.8698 90.3249 50.2572 88.7444 50.7595C88.1523 50.9448 87.6214 51.2871 87.2083 51.7501C86.7951 52.2131 86.5152 52.7793 86.3981 53.3887C85.9847 55.2934 85.4284 57.1643 84.7341 58.9855C84.3147 60.1505 83.6637 61.2184 82.8204 62.125C80.8845 64.0942 78.3385 63.9832 76.3361 63.667C75.821 63.5943 75.3279 63.4102 74.8911 63.1276C74.4543 62.845 74.0843 62.4707 73.8067 62.0307C73.5347 61.5814 73.364 61.0781 73.3065 60.5559C73.2491 60.0338 73.3062 59.5054 73.4739 59.0077C74.1967 56.8222 74.5162 54.5236 74.4169 52.2238C74.2503 50.0409 74.2652 47.8479 74.4612 45.6674C74.7552 43.1547 76.2307 41.2299 78.7323 40.1594C79.8861 39.6602 81.0343 39.1443 82.1825 38.634C84.4623 37.6134 86.8197 36.5539 89.1771 35.6054C92.7493 34.1688 95.556 33.8637 98.2851 34.6181C104.387 36.2821 110.383 39.3052 116.684 43.8092C117.644 44.497 118.304 45.0462 118.836 45.4733C120.367 46.738 120.683 46.9987 123.973 47.0763L125.565 47.1263C126.011 47.1682 126.46 47.1682 126.907 47.1263V47.0486C126.894 47.0212 126.875 46.9973 126.851 46.9789C126.826 46.9606 126.798 46.9483 126.768 46.9432L123.995 46.4274H122.885C121.698 46.4274 121.526 46.4274 120.889 45.8727C120.415 45.4721 119.916 45.1016 119.396 44.7633L117.993 43.8592C117.139 43.3045 116.29 42.7498 115.453 42.1951C110.985 39.097 106.124 36.6103 100.997 34.8011C98.4182 33.9191 95.8888 33.1814 93.2762 33.8138C91.2697 34.2218 89.2196 34.3746 87.1747 34.2686C86.4259 34.2686 85.6493 34.2686 84.8894 34.2686C83.5526 34.3019 82.2102 34.3241 80.8734 34.3518C77.9669 34.4073 74.966 34.4627 72.0262 34.6291C70.7308 34.7503 69.4785 35.1576 68.3597 35.8217C65.5862 37.3859 64.0886 40.0928 63.6837 44.3306C63.5791 45.6759 63.5532 47.026 63.606 48.3743C63.606 49.0399 63.606 49.7222 63.606 50.4211V51.9742L62.6242 50.7706C62.1385 50.154 61.5294 49.6456 60.836 49.2779C60.1426 48.9102 59.3801 48.6912 58.5972 48.635C56.212 48.3799 54.0598 49.2729 51.9742 50.1327C51.4776 50.3864 50.9094 50.4637 50.3631 50.3518C49.8167 50.2399 49.3247 49.9455 48.9678 49.517L48.8846 49.4338C48.5436 49.089 48.2302 48.7181 47.9472 48.3244C46.5161 46.2055 44.6856 45.5066 42.184 46.1056C39.9042 46.6603 37.5801 47.215 35.3391 47.6976C33.4532 48.1191 31.5062 48.5574 29.5981 49.0177C28.5758 49.2695 27.5871 49.6419 26.6527 50.1271C25.0996 50.9203 23.9569 52.2959 22.9419 54.5646C22.7366 55.0306 22.5258 55.4909 22.3206 55.9569C21.4165 57.976 20.4791 60.0616 19.7746 62.1749C18.998 64.4935 18.3657 66.9175 17.7555 69.2583C17.5281 70.1347 17.3007 71.0056 17.0677 71.8709C16.9568 72.2869 16.8736 72.7085 16.7904 73.1577C16.5297 74.5556 16.2357 76.1364 14.7935 77.2569L14.7214 77.3068C14.3387 77.6063 13.9726 77.8615 13.612 78.1999C12.0478 79.6587 11.4543 80.2522 11.2435 80.4685C11.1908 80.5424 11.1272 80.6078 11.0549 80.6627L10.6389 80.9955L10.4448 80.7736C10.2062 80.9123 9.85679 81.1342 9.33538 81.4781C9.28304 81.5106 9.24177 81.5582 9.21702 81.6146C9.19227 81.6711 9.18518 81.7337 9.19671 81.7942C9.20622 81.8543 9.2335 81.9102 9.27501 81.9547C9.31653 81.9992 9.37039 82.0302 9.42968 82.0438C9.47592 82.0555 9.52412 82.057 9.57101 82.0484C9.61791 82.0398 9.66239 82.0212 9.70147 81.9939C10.7221 81.2506 11.299 80.8457 11.6873 80.5684C12.4792 80.0169 13.2317 79.4108 13.9393 78.7545L14.7048 78.0889C15.7842 77.1708 16.5998 75.9819 17.0677 74.6443C17.5392 73.0967 17.8887 71.4715 18.227 69.9017C18.595 68.0555 19.0598 66.2299 19.6193 64.4325C20.7897 61.1189 22.1301 57.8678 23.6352 54.6922L24.0901 53.6827C25.0552 51.5416 26.8912 50.2048 29.7035 49.5891C31.6616 49.1564 33.6418 48.6849 35.5555 48.2301C37.8241 47.6754 40.1705 47.1207 42.4946 46.6437C43.4986 46.4329 44.8964 46.4828 45.7506 47.0819C46.5663 47.7069 47.289 48.4446 47.8973 49.2729C48.158 49.5891 48.4187 49.9108 48.6849 50.2103L48.8957 50.4488L48.5962 51.4195L48.2911 51.4916C47.7641 51.6192 47.2427 51.7579 46.7269 51.891C45.5335 52.2293 44.3225 52.5015 43.0992 52.7064C41.4906 52.9449 39.8487 53.1113 38.2568 53.2611C37.1474 53.3776 35.9715 53.4941 34.8344 53.6383C34.6942 53.6829 34.5681 53.7632 34.4683 53.8713C34.5395 53.9972 34.6404 54.1039 34.7623 54.1819C35.1241 54.2783 35.5026 54.2954 35.8716 54.2318L37.1641 54.1153C38.45 54.0297 39.7299 53.8686 40.997 53.6327C43.8869 53.0281 46.8267 52.307 49.7388 51.4861C50.9591 51.1477 52.1794 50.7096 53.3665 50.2935C54.254 49.9718 55.1692 49.6501 56.09 49.3616C56.8242 49.1242 57.5994 49.0401 58.3675 49.1145C59.1356 49.1889 59.8802 49.4203 60.5552 49.7943C62.541 50.8704 63.3287 52.956 63.8834 54.4814C64.2827 55.5353 64.1385 56.7445 63.9943 57.9094C63.9666 58.1368 63.9444 58.3642 63.9222 58.5861C63.6726 61.0656 64.0553 62.8572 65.1647 64.3937C65.3155 64.5923 65.4234 64.8201 65.4816 65.0626C65.5399 65.3052 65.5472 65.5571 65.503 65.8026C65.3155 66.5211 65.2935 67.2728 65.4386 68.0011C65.5837 68.7294 65.8921 69.4153 66.3406 70.0071C66.6826 70.4108 66.852 70.9328 66.8121 71.4604C66.4127 73.2687 66.9896 74.8218 68.0602 76.741C68.6571 77.7641 68.9415 78.9395 68.8784 80.1223C68.8153 81.305 68.4075 82.4435 67.7052 83.3973C67.3248 83.8511 67.0918 84.4102 67.0373 84.9998C66.9828 85.5895 67.1093 86.1818 67.4001 86.6977C67.527 86.9733 67.6309 87.2591 67.7107 87.5519C67.744 87.6628 67.7717 87.7682 67.8105 87.8736C68.7591 90.7524 67.9048 93.0156 65.2701 94.602C65.0038 94.7628 64.7154 94.9126 64.4269 95.0624C63.7894 95.3267 63.2203 95.7326 62.7629 96.2494C59.9284 100.376 56.0179 102.828 50.8038 103.738C48.5851 104.12 46.3164 104.459 44.1476 104.786L41.6404 105.163C38.4842 105.651 34.8344 106.411 31.656 108.375C30.9529 108.864 30.2109 109.294 29.4373 109.662C29.0046 109.989 28.1282 110.544 27.6955 110.821ZM10.2839 79.9527V79.9859V79.9527ZM94.3856 49.4449H94.4799H94.3856ZM71.9319 77.4566C70.7864 77.4879 69.6634 77.1344 68.7424 76.4526C67.3945 75.4431 66.7733 72.6308 67.4888 70.7726C67.5776 70.5452 67.6608 70.3122 67.7495 70.0848L67.8993 69.6799C68.7313 67.4611 69.1141 67.3002 71.416 67.0895C75.7592 66.6845 81.4004 65.8525 86.5202 63.0125C88.4449 61.9475 90.1478 61.9586 91.7342 63.0402C92.1451 63.3004 92.4885 63.6542 92.7363 64.0726C92.984 64.4911 93.1292 64.9623 93.1598 65.4476C93.1679 65.9011 93.0661 66.3498 92.8633 66.7554C92.6605 67.1611 92.3625 67.5117 91.9949 67.7773C90.8646 68.6186 89.6639 69.3609 88.4061 69.996C84.4068 72.1538 80.4796 74.2338 76.7244 76.1808C76.113 76.4805 75.4786 76.7309 74.8273 76.9296C74.5722 77.0184 74.3226 77.1016 74.0896 77.1903H74.0009C73.3522 77.3426 72.6915 77.4373 72.0262 77.4732L71.9319 77.4566ZM89.3047 63.3509C88.5382 63.3785 87.7915 63.602 87.1358 63.9999C81.833 66.9397 76.0421 67.7939 71.6046 68.2099C69.6632 68.3874 69.6632 68.3874 69.0198 70.0848L68.87 70.4897L68.6093 71.1886C68.0546 72.5698 68.5372 74.8717 69.4912 75.5817C70.7226 76.5025 72.1205 76.4859 73.8289 76.1642L74.5611 75.9145C75.1564 75.7296 75.7368 75.4997 76.2973 75.2267C80.0469 73.2853 83.9686 71.2052 87.9457 69.0531C89.1469 68.4419 90.2937 67.7293 91.3737 66.9231C91.6033 66.7626 91.7912 66.5494 91.9215 66.3014C92.0518 66.0533 92.1207 65.7777 92.1225 65.4975C92.0945 65.1868 91.9941 64.887 91.8294 64.6221C91.6647 64.3573 91.4402 64.1346 91.174 63.9721C90.6278 63.5812 89.9762 63.3646 89.3047 63.3509ZM67.3668 69.3637L66.2574 69.2028L66.1687 68.8367C66.1409 68.7258 66.1077 68.6149 66.0799 68.5039C65.9855 68.1927 65.9205 67.8733 65.8858 67.5499C65.8858 67.2281 65.9745 66.5015 66.4737 66.3018C66.6997 66.2334 66.9389 66.2209 67.1708 66.2654C67.4027 66.3098 67.6203 66.4099 67.805 66.557C67.9717 66.7227 68.0918 66.9294 68.1532 67.1563C68.2145 67.3832 68.215 67.6223 68.1544 67.8494C68.0396 68.1616 67.8888 68.4595 67.7052 68.7369C67.6441 68.8312 67.5831 68.931 67.5276 69.0309L67.3668 69.3637ZM67.0284 67.3613V67.4722C67.0345 67.5468 67.0456 67.6209 67.0617 67.6941C67.0617 67.6275 67.1172 67.5665 67.1394 67.5055L67.095 67.3668L67.0284 67.3613ZM71.0887 66.5181C70.5306 66.5201 69.9735 66.47 69.4247 66.3684C66.1243 65.7638 64.3327 63.4563 64.3826 59.8674C64.387 58.2503 64.9186 56.6787 65.8969 55.3911C66.1001 55.0875 66.3868 54.849 66.7223 54.7043C67.0579 54.5597 67.428 54.515 67.7883 54.5757C68.7835 54.6076 69.7796 54.5593 70.767 54.4315L71.5824 54.3538C71.8685 54.3162 72.1507 54.2531 72.4255 54.1652C72.6086 54.1153 72.8083 54.0599 73.0302 54.0099L73.8511 53.8102L73.7013 54.6478C73.6403 54.9862 73.5848 55.319 73.5294 55.6352C73.4073 56.3673 73.2908 57.0496 73.1466 57.7374V57.8151C72.9828 58.6828 72.7623 59.5389 72.4865 60.3777C72.3024 60.8817 72.3072 61.4354 72.5 61.9361C72.6927 62.4369 73.0604 62.8508 73.5349 63.1013C74.1116 63.4268 74.7192 63.6944 75.3487 63.9C75.6538 64.0109 75.9589 64.1219 76.2584 64.2439L76.6578 64.4214L78.3219 65.1702L76.741 65.5419L75.8812 65.7527C74.326 66.1994 72.7224 66.4565 71.1054 66.5181H71.0887ZM67.5166 55.674C67.3699 55.6607 67.2224 55.6896 67.0917 55.7574C66.961 55.8253 66.8524 55.9291 66.7788 56.0567C65.9409 57.1564 65.4886 58.5015 65.492 59.8841C65.4531 62.9071 66.8787 64.7764 69.6244 65.2812C71.3494 65.5918 73.0246 65.2812 74.7663 64.8707C74.1324 64.658 73.5211 64.3831 72.9414 64.0498C72.2497 63.6669 71.717 63.0503 71.4385 62.3104C71.16 61.5705 71.154 60.7556 71.4216 60.0117C71.68 59.2158 71.8875 58.4043 72.0428 57.5821V57.51C72.187 56.8444 72.298 56.1677 72.42 55.4521L72.4477 55.3024C72.1914 55.3743 71.93 55.4263 71.6656 55.4577L70.8669 55.5353C69.8171 55.6725 68.7575 55.7207 67.6996 55.6795L67.5166 55.674ZM83.9076 63.8667L83.1255 62.957L83.4139 62.5965C84.9726 60.6606 85.5883 58.3864 86.2373 55.9791C86.4591 55.1526 86.6866 54.315 86.9584 53.4663C87.1127 53.0785 87.3514 52.7298 87.6573 52.4457C87.7571 52.3403 87.8569 52.2349 87.9457 52.124L88.3506 51.6137L88.7888 52.0907C88.8831 52.1906 88.983 52.2848 89.0828 52.3791C89.3922 52.6285 89.6455 52.9404 89.8261 53.2944C91.0575 56.1566 89.5543 60.6384 86.8474 62.1694L85.1223 63.1623L83.9076 63.8667ZM88.4283 53.25C88.26 53.4069 88.1243 53.5954 88.0289 53.8047C87.7682 54.609 87.5408 55.4688 87.3244 56.262C86.8921 58.1777 86.2173 60.0305 85.3165 61.7756L86.3149 61.2209C88.5337 59.9506 89.8427 56.1066 88.8221 53.7492C88.7217 53.5606 88.5884 53.3915 88.4283 53.25ZM69.103 54.1264C67.3113 54.1264 66.0522 53.2944 64.9484 51.4916C64.5467 50.7351 64.3033 49.9047 64.2328 49.051C63.8227 46.2803 64.0931 43.4513 65.0205 40.8084C66.2574 37.4137 68.7313 35.5056 72.1759 35.2948C75.3044 35.1062 78.4827 35.0341 81.5557 34.9675L85.0891 34.8788C85.3252 34.8835 85.5599 34.917 85.788 34.9786C85.9155 35.0063 86.0653 35.0396 86.2428 35.0674L87.8514 35.3613L86.3981 36.1102L85.5938 36.5317C85.0891 36.798 84.6564 37.0309 84.196 37.2306L83.8188 37.397C81.8941 38.2346 79.9027 39.1055 77.9059 39.8876C77.5296 39.9983 77.1281 39.9886 76.7577 39.8598C76.6017 39.8177 76.4419 39.7917 76.2806 39.7822C74.7719 39.7822 73.2742 39.8599 71.8431 39.9431C71.7158 39.9342 71.5902 39.976 71.4937 40.0595C71.447 40.1522 71.4352 40.2585 71.4604 40.3591C71.4646 40.4218 71.4837 40.4826 71.5159 40.5366C71.6987 40.575 71.8876 40.575 72.0705 40.5366C72.7694 40.4645 73.4573 40.4312 74.256 40.3868L75.3654 40.3313L76.4748 40.2648L75.8535 41.1911L75.3876 41.8678C75.1688 42.165 74.967 42.4743 74.783 42.7941C73.5959 45.0129 73.191 47.5367 73.546 50.5598L73.5738 50.7872C73.8289 52.9006 73.6569 53.1502 71.5325 53.7548C70.7438 53.993 69.9266 54.1236 69.103 54.143V54.1264ZM84.1849 36.0547L81.5779 36.1102C78.516 36.1823 75.3487 36.2544 72.248 36.443C69.1473 36.6316 67.1505 38.2346 66.0633 41.2244C65.1941 43.7021 64.9446 46.3549 65.3366 48.9512C65.3875 49.6487 65.5761 50.3293 65.8913 50.9536C67.1671 53.0281 68.5094 53.4774 71.2219 52.7064C71.6792 52.625 72.1186 52.4635 72.5198 52.2294C72.5807 51.7988 72.5619 51.3607 72.4644 50.937V50.7151C72.0816 47.4757 72.5254 44.7245 73.8289 42.3116C73.9749 42.0437 74.136 41.7845 74.3115 41.535C73.5405 41.5738 72.8693 41.6071 72.1981 41.6792C71.7155 41.7347 70.584 41.8512 70.3732 40.5699C70.3306 40.3671 70.3323 40.1575 70.3782 39.9555C70.4242 39.7535 70.5133 39.5638 70.6395 39.3995C70.7792 39.2294 70.9543 39.0916 71.1526 38.9959C71.3508 38.9001 71.5675 38.8485 71.7877 38.8448C73.2465 38.7616 74.7608 38.7061 76.2862 38.6839C76.5409 38.694 76.7938 38.7312 77.0406 38.7949C77.1969 38.843 77.3596 38.8673 77.5231 38.867C79.4978 38.096 81.478 37.2029 83.3973 36.393L83.7689 36.2267L84.1849 36.0547Z" fill="#E17C3D"/>
<path d="M16.0859 88.2453C15.587 88.3795 15.0714 88.4412 14.555 88.4283C14.2055 88.3562 13.7174 88.0511 13.6564 87.7738C13.5954 87.4965 13.9781 87.0416 14.2832 86.8697C14.7656 86.648 15.2745 86.4896 15.7975 86.3982C18.5176 85.6476 20.926 84.0459 22.67 81.8275C23.0361 81.3893 23.43 81.0177 23.8682 81.5058C24.1122 81.7832 24.2343 82.5708 24.0457 82.7539C22.7593 84.1051 21.3621 85.3463 19.8689 86.4647C18.6819 87.2968 17.1953 87.7405 16.0859 88.2453Z" fill="#E17C3D"/>
<path d="M14.7824 89.0052C14.6687 89.0076 14.5551 88.9964 14.4441 88.9719C14.1467 88.9175 13.8685 88.7866 13.6371 88.5921C13.4056 88.3976 13.2287 88.1461 13.1239 87.8626C12.9908 87.2413 13.6509 86.5701 14.0169 86.3649C14.4286 86.1523 14.8699 86.0027 15.326 85.9211L15.6644 85.8379C18.275 85.1209 20.5855 83.5825 22.2541 81.4504C22.3843 81.2479 22.5568 81.0761 22.7598 80.9469C22.9628 80.8176 23.1915 80.7339 23.43 80.7015C23.5943 80.7033 23.7562 80.7415 23.9039 80.8135C24.0516 80.8854 24.1815 80.9893 24.2842 81.1176C24.6725 81.5502 24.9055 82.6707 24.4395 83.1255L24.1178 83.4472C22.9085 84.704 21.5968 85.8581 20.1962 86.8974C19.3072 87.469 18.3563 87.9379 17.3617 88.2952C16.9956 88.445 16.6462 88.5837 16.3244 88.7279L16.1691 88.7722C15.9473 88.8055 15.7476 88.8443 15.5701 88.8776C15.3124 88.946 15.0485 88.9887 14.7824 89.0052ZM14.2277 87.6851C14.36 87.7762 14.5061 87.8455 14.6604 87.8903C14.8905 87.9008 15.1208 87.8746 15.3427 87.8126C15.5146 87.7793 15.7032 87.7405 15.8973 87.7072C16.2135 87.5686 16.5574 87.4299 16.9124 87.2912C17.8258 86.9611 18.7001 86.5314 19.5195 86.0099C20.8702 85.009 22.1338 83.8957 23.2969 82.6818L23.552 82.4377C23.5534 82.2447 23.5077 82.0543 23.4189 81.883L23.3912 81.8553C23.2689 81.9525 23.159 82.0642 23.0639 82.1881C21.2513 84.5015 18.7394 86.167 15.9029 86.9362L15.5423 87.025C15.1892 87.0914 14.8461 87.2032 14.5217 87.3578C14.408 87.4469 14.3137 87.5583 14.2444 87.6851H14.2277Z" fill="#E17C3D"/>
<path d="M60.8658 57.2715C60.7161 57.4656 60.533 57.9149 60.2279 58.0259C60.0517 58.0488 59.8725 58.029 59.7055 57.9681C59.5385 57.9073 59.3886 57.8073 59.2683 57.6764C58.2921 56.2953 57.3602 54.903 56.4949 53.4386C56.3229 53.1557 56.4949 52.6731 56.4949 52.2793C56.8499 52.307 57.2992 52.2128 57.5488 52.3903C59.1796 53.544 60.0449 55.2524 60.8658 57.2715Z" fill="#E17C3D"/>
<path d="M60.0782 58.6083C59.8361 58.6035 59.5981 58.5459 59.3806 58.4395C59.1631 58.3332 58.9715 58.1807 58.819 57.9926C57.7707 56.5172 56.8554 55.1193 56.0123 53.7271C55.8481 53.3714 55.809 52.9707 55.9014 52.59C55.9014 52.479 55.9347 52.3681 55.9402 52.2683V51.6803L56.5226 51.7302H56.8166C57.1755 51.684 57.5396 51.7561 57.8539 51.9354C59.5179 53.1169 60.4332 54.7755 61.365 57.0663L61.4871 57.3603L61.2874 57.6154C61.2528 57.6614 61.2213 57.7096 61.1931 57.7597C61.0288 58.1049 60.7507 58.3831 60.4054 58.5473C60.3005 58.5858 60.1899 58.6065 60.0782 58.6083ZM56.9885 52.834C56.9733 52.9463 56.9733 53.0601 56.9885 53.1724C57.8039 54.5258 58.7081 55.9015 59.762 57.3547C59.8561 57.4269 59.9666 57.4746 60.0837 57.4934C60.1598 57.4082 60.2268 57.3153 60.2834 57.2161C59.4625 55.2469 58.6526 53.8214 57.2714 52.8396L56.9885 52.834Z" fill="#E17C3D"/>
<path d="M63.8168 87.1691C64.0045 87.8642 64.0203 88.5945 63.8628 89.2971C63.7053 89.9996 63.3792 90.6533 62.9127 91.2017C62.6908 91.479 62.1084 91.468 61.6923 91.5844C61.6258 91.1795 61.3651 90.6581 61.5259 90.3919C61.9086 89.8304 62.1305 89.1749 62.1677 88.4965C62.2048 87.818 62.0558 87.1423 61.7367 86.5423C61.5925 86.2483 61.9697 85.7048 62.1084 85.2721C62.4966 85.444 62.9959 85.5273 63.2177 85.8268C63.4843 86.2413 63.6863 86.6939 63.8168 87.1691Z" fill="#E17C3D"/>
<path d="M61.243 92.2945L61.1432 91.6732C61.122 91.5589 61.0942 91.4459 61.06 91.3349C60.9723 91.1414 60.927 90.9315 60.927 90.7192C60.927 90.5068 60.9723 90.2969 61.06 90.1034C61.3962 89.6203 61.5914 89.0531 61.6237 88.4654C61.656 87.8776 61.5242 87.2924 61.243 86.7753C61.1749 86.5559 61.1565 86.3241 61.1891 86.0968C61.2217 85.8694 61.3046 85.6521 61.4316 85.4607C61.49 85.3423 61.54 85.22 61.5814 85.0946L61.77 84.5011L62.3246 84.7563C62.4245 84.8006 62.541 84.8395 62.6519 84.8783C63.0312 84.9674 63.3786 85.1593 63.6559 85.433C63.913 85.762 64.1016 86.1392 64.2106 86.5424C64.255 86.6755 64.2993 86.8142 64.3493 86.9417V87.0083C64.5668 87.7854 64.589 88.6041 64.4138 89.3918C64.2387 90.1796 63.8716 90.9118 63.3453 91.5234C63.0487 91.8195 62.6542 91.997 62.2359 92.0227C62.1125 92.0415 61.9903 92.0674 61.8698 92.1003L61.243 92.2945ZM62.0307 90.6304C62.0461 90.7353 62.0684 90.839 62.0972 90.941C62.2344 90.9233 62.3686 90.8879 62.4966 90.8356C62.9021 90.3611 63.1858 89.7948 63.3231 89.1859C63.4603 88.577 63.447 87.9437 63.2843 87.3411C63.2343 87.2024 63.1844 87.0527 63.14 86.9084C63.075 86.6479 62.9662 86.4004 62.8183 86.1763C62.6985 86.0826 62.5606 86.0147 62.4134 85.9766C62.3556 86.1009 62.3056 86.2288 62.2636 86.3593C62.6037 87.0289 62.7612 87.7763 62.7203 88.5261C62.6794 89.276 62.4415 90.0018 62.0307 90.6304Z" fill="#E17C3D"/>
<path d="M76.5468 54.1375C78.0624 53.9008 79.6131 54.2031 80.9288 54.9917C81.417 55.2801 81.9384 55.6296 81.5334 56.3451C81.1285 57.0607 80.6681 56.6946 80.1412 56.567C79.0646 56.2992 77.9738 56.0917 76.8741 55.9457C76.3194 55.8792 75.7647 55.8625 75.8313 55.2191C75.8534 54.8364 76.2806 54.4925 76.5468 54.1375Z" fill="#E17C3D"/>
<path d="M80.9178 57.2992C80.6817 57.2913 80.448 57.2483 80.2245 57.1716L79.997 57.1051C78.9392 56.8409 77.8668 56.639 76.7854 56.5004H76.6856C76.2307 56.4505 75.1602 56.3229 75.2656 55.1858C75.3318 54.7806 75.5262 54.4074 75.8202 54.1208C75.9042 54.03 75.9821 53.9336 76.0532 53.8324L76.1919 53.6327L76.4304 53.5994C78.0698 53.3462 79.7461 53.676 81.1674 54.5313C81.5391 54.7476 82.6762 55.4077 81.9773 56.6336C81.8797 56.8318 81.7289 56.9989 81.5418 57.1165C81.3548 57.234 81.1387 57.2973 80.9178 57.2992ZM76.3638 55.3079C76.5115 55.3446 76.6617 55.3706 76.8131 55.3855H76.9241C78.0444 55.5338 79.1555 55.7449 80.2522 56.0179L80.5351 56.0955C80.9345 56.2176 80.94 56.2176 81.0287 56.0567C81.1175 55.8958 81.1841 55.7849 80.6238 55.4576C79.4813 54.7707 78.1419 54.4856 76.8187 54.6478L76.6745 54.8142C76.5481 54.9448 76.4433 55.0945 76.3638 55.2579V55.3079Z" fill="#E17C3D"/>
<path d="M91.7731 74.1838C91.8285 74.4224 92.0005 74.7385 91.9228 74.8994C91.7176 75.3598 91.4902 76.042 91.1185 76.153C90.3808 76.3804 90.2698 75.7037 90.1811 75.0991C90.0923 74.4945 89.8206 74.023 89.7706 73.4683C89.7899 73.038 89.8683 72.6125 90.0036 72.2036C90.4196 72.3645 90.9632 72.4144 91.2184 72.7084C91.4987 73.1574 91.7065 73.6479 91.8341 74.1617L91.7731 74.1838Z" fill="#E17C3D"/>
<path d="M90.8522 76.7522C90.656 76.7509 90.464 76.6953 90.2975 76.5913C90.0949 76.4153 89.9323 76.1981 89.8203 75.9541C89.7084 75.7102 89.6498 75.4452 89.6485 75.1768C89.6101 74.9481 89.5507 74.7235 89.471 74.5057C89.3577 74.1879 89.2796 73.8587 89.2381 73.5239C89.2203 73.159 89.2711 72.794 89.3878 72.4478C89.4211 72.3313 89.4544 72.2093 89.4766 72.0928L89.6097 71.4493L90.2199 71.6823C90.3377 71.7267 90.4581 71.7637 90.5804 71.7932C90.9858 71.8683 91.3602 72.0613 91.6565 72.3479C91.9212 72.6991 92.11 73.1015 92.2112 73.5294C92.2556 73.6736 92.3055 73.8179 92.3554 73.9565L92.5662 74.5112L92.4664 74.55C92.5239 74.744 92.5121 74.9518 92.4331 75.138L92.3499 75.3377C92.1169 75.8924 91.8506 76.5358 91.2904 76.7078C91.147 76.7419 90.9996 76.7568 90.8522 76.7522ZM90.3974 72.9026C90.344 73.0692 90.3197 73.2437 90.3253 73.4185C90.3605 73.6719 90.4219 73.921 90.5083 74.1618C90.607 74.4395 90.6812 74.7253 90.7302 75.016C90.7495 75.2323 90.798 75.445 90.8744 75.6483H90.9576C91.1093 75.4203 91.2323 75.1743 91.3237 74.9161L91.3792 74.7886L91.3237 74.6388C91.2904 74.5334 91.2516 74.4336 91.2294 74.3393L91.1129 73.8567C91.0488 73.5905 90.936 73.3385 90.7801 73.1134C90.6737 73.0189 90.5491 72.9472 90.414 72.9026H90.3974Z" fill="#E17C3D"/>
<path d="M68.8368 72.7417C68.8894 72.2251 68.9897 71.7144 69.1363 71.2163C69.2078 71.0878 69.3112 70.98 69.4366 70.9033C69.5619 70.8265 69.705 70.7834 69.8519 70.7781C70.0098 70.8319 70.155 70.9178 70.2781 71.0305C70.4013 71.1431 70.4998 71.28 70.5674 71.4326C70.8268 72.1173 71.0127 72.8276 71.1221 73.5515C71.1394 73.7326 71.116 73.9152 71.0536 74.086C70.9912 74.2568 70.8914 74.4115 70.7616 74.5389C70.5785 74.6609 70.0127 74.4889 69.8075 74.2726C69.4368 73.7937 69.1118 73.2812 68.8368 72.7417Z" fill="#E17C3D"/>
<path d="M70.5673 75.1325C70.1293 75.1218 69.7106 74.95 69.3914 74.6499C69.1027 74.3116 68.8568 73.939 68.6592 73.5405C68.5705 73.3741 68.4706 73.1966 68.3652 73.0136L68.2543 72.8361L68.2931 72.6308C68.2931 72.5033 68.3319 72.3701 68.3541 72.2315C68.3951 71.8157 68.4844 71.4062 68.6204 71.0111C68.739 70.7544 68.9347 70.5411 69.1803 70.4009C69.4259 70.2607 69.7091 70.2006 69.9904 70.229C70.2378 70.3029 70.4656 70.4307 70.6575 70.6034C70.8494 70.7761 71.0004 70.9892 71.0998 71.2275C71.3665 71.9442 71.5525 72.6884 71.6545 73.4462C71.6867 73.7287 71.6495 74.0148 71.5461 74.2797C71.4426 74.5445 71.2761 74.7801 71.061 74.9661C70.9168 75.0697 70.7448 75.1276 70.5673 75.1325ZM69.4191 72.6308L69.6299 73.0136C69.7827 73.3266 69.9686 73.6223 70.1846 73.8955C70.267 73.9513 70.3592 73.9908 70.4564 74.012C70.5123 73.8904 70.5389 73.7574 70.534 73.6237C70.4379 72.9413 70.2668 72.2717 70.0237 71.6268C69.961 71.5111 69.8692 71.4136 69.7575 71.344C69.7024 71.3707 69.6533 71.4085 69.6133 71.4549C69.5224 71.7608 69.4611 72.0747 69.4302 72.3923L69.4191 72.6308Z" fill="#E17C3D"/>
<path d="M71 142C52.1759 141.979 34.1287 134.493 20.8181 121.182C7.50749 107.871 0.0205551 89.8241 0 71C0.0205551 52.1759 7.50749 34.1287 20.8181 20.8181C34.1287 7.50749 52.1759 0.0205551 71 0C89.8241 0.0205551 107.871 7.50749 121.182 20.8181C134.493 34.1287 141.979 52.1759 142 71C141.979 89.8241 134.493 107.871 121.182 121.182C107.871 134.493 89.8241 141.979 71 142ZM71 4.4375C53.3524 4.45659 36.433 11.4755 23.9543 23.9543C11.4755 36.433 4.45659 53.3524 4.4375 71C4.45659 88.6476 11.4755 105.567 23.9543 118.046C36.433 130.524 53.3524 137.543 71 137.562C88.6476 137.543 105.567 130.524 118.046 118.046C130.524 105.567 137.543 88.6476 137.562 71C137.543 53.3524 130.524 36.433 118.046 23.9543C105.567 11.4755 88.6476 4.45659 71 4.4375Z" fill="#E17C3D"/>
</svg>
