<svg width="872" height="319" viewBox="0 0 872 319" fill="none" xmlns="http://www.w3.org/2000/svg">
<g filter="url(#filter0_ddd_189_13949)">
<rect x="89" y="5" width="768" height="280" rx="20" fill="#F6F6F6"/>
</g>
<line x1="113" y1="54.5" x2="833" y2="54.5" stroke="#E3E7EB"/>
<line x1="113" y1="114.5" x2="833" y2="114.5" stroke="#E3E7EB"/>
<line x1="113" y1="174.5" x2="833" y2="174.5" stroke="#E3E7EB"/>
<line x1="113" y1="234.5" x2="833" y2="234.5" stroke="#E3E7EB"/>
<path d="M0.695253 56.9641L5.15244 50.0994H6.66072V56.8964H8.05299V57.9793H6.66072V60H5.49083V57.9793H0.695253V56.9641ZM5.49083 56.8964V51.6561H5.37481L2.01984 56.8191V56.8964H5.49083ZM12.9122 60.1354C12.1839 60.1354 11.5603 59.9372 11.0414 59.5407C10.5257 59.1411 10.1309 58.561 9.857 57.8004C9.58628 57.0398 9.45092 56.1229 9.45092 55.0497C9.45092 53.9862 9.58789 53.0741 9.86183 52.3135C10.1358 51.5497 10.5322 50.968 11.0511 50.5684C11.5699 50.1655 12.1903 49.9641 12.9122 49.9641C13.6342 49.9641 14.2546 50.1655 14.7734 50.5684C15.2923 50.968 15.6887 51.5497 15.9627 52.3135C16.2366 53.0741 16.3736 53.9862 16.3736 55.0497C16.3736 56.1229 16.2366 57.0398 15.9627 57.8004C15.6919 58.561 15.2971 59.1411 14.7783 59.5407C14.2626 59.9372 13.6406 60.1354 12.9122 60.1354ZM10.6498 55.0497C10.6498 55.8973 10.7384 56.6209 10.9157 57.2203C11.093 57.8165 11.3508 58.2693 11.6892 58.5787C12.0276 58.8881 12.4353 59.0428 12.9122 59.0428C13.3892 59.0428 13.7969 58.8881 14.1353 58.5787C14.4737 58.2693 14.7315 57.8165 14.9088 57.2203C15.086 56.6209 15.1747 55.8973 15.1747 55.0497C15.1747 54.2021 15.0844 53.4786 14.904 52.8791C14.7267 52.2765 14.4689 51.8188 14.1305 51.5062C13.7921 51.1936 13.386 51.0373 12.9122 51.0373C12.4385 51.0373 12.0324 51.1936 11.694 51.5062C11.3556 51.8188 11.0962 52.2765 10.9157 52.8791C10.7384 53.4786 10.6498 54.2021 10.6498 55.0497ZM21.2521 60.1354C20.5237 60.1354 19.9001 59.9372 19.3812 59.5407C18.8656 59.1411 18.4708 58.561 18.1968 57.8004C17.9261 57.0398 17.7908 56.1229 17.7908 55.0497C17.7908 53.9862 17.9277 53.0741 18.2017 52.3135C18.4756 51.5497 18.872 50.968 19.3909 50.5684C19.9098 50.1655 20.5302 49.9641 21.2521 49.9641C21.974 49.9641 22.5944 50.1655 23.1133 50.5684C23.6322 50.968 24.0286 51.5497 24.3025 52.3135C24.5764 53.0741 24.7134 53.9862 24.7134 55.0497C24.7134 56.1229 24.5764 57.0398 24.3025 57.8004C24.0318 58.561 23.637 59.1411 23.1181 59.5407C22.6025 59.9372 21.9804 60.1354 21.2521 60.1354ZM18.9897 55.0497C18.9897 55.8973 19.0783 56.6209 19.2555 57.2203C19.4328 57.8165 19.6906 58.2693 20.029 58.5787C20.3674 58.8881 20.7751 59.0428 21.2521 59.0428C21.7291 59.0428 22.1368 58.8881 22.4752 58.5787C22.8136 58.2693 23.0714 57.8165 23.2486 57.2203C23.4259 56.6209 23.5145 55.8973 23.5145 55.0497C23.5145 54.2021 23.4243 53.4786 23.2438 52.8791C23.0665 52.2765 22.8087 51.8188 22.4703 51.5062C22.1319 51.1936 21.7258 51.0373 21.2521 51.0373C20.7783 51.0373 20.3723 51.1936 20.0339 51.5062C19.6955 51.8188 19.436 52.2765 19.2555 52.8791C19.0783 53.4786 18.9897 54.2021 18.9897 55.0497ZM29.5919 60.1354C28.8636 60.1354 28.24 59.9372 27.7211 59.5407C27.2054 59.1411 26.8106 58.561 26.5367 57.8004C26.266 57.0398 26.1306 56.1229 26.1306 55.0497C26.1306 53.9862 26.2676 53.0741 26.5415 52.3135C26.8155 51.5497 27.2119 50.968 27.7307 50.5684C28.2496 50.1655 28.87 49.9641 29.5919 49.9641C30.3138 49.9641 30.9342 50.1655 31.4531 50.5684C31.972 50.968 32.3684 51.5497 32.6423 52.3135C32.9163 53.0741 33.0533 53.9862 33.0533 55.0497C33.0533 56.1229 32.9163 57.0398 32.6423 57.8004C32.3716 58.561 31.9768 59.1411 31.458 59.5407C30.9423 59.9372 30.3203 60.1354 29.5919 60.1354ZM27.3295 55.0497C27.3295 55.8973 27.4181 56.6209 27.5954 57.2203C27.7726 57.8165 28.0305 58.2693 28.3689 58.5787C28.7073 58.8881 29.115 59.0428 29.5919 59.0428C30.0689 59.0428 30.4766 58.8881 30.815 58.5787C31.1534 58.2693 31.4112 57.8165 31.5885 57.2203C31.7657 56.6209 31.8544 55.8973 31.8544 55.0497C31.8544 54.2021 31.7641 53.4786 31.5836 52.8791C31.4064 52.2765 31.1486 51.8188 30.8102 51.5062C30.4718 51.1936 30.0657 51.0373 29.5919 51.0373C29.1182 51.0373 28.7121 51.1936 28.3737 51.5062C28.0353 51.8188 27.7759 52.2765 27.5954 52.8791C27.4181 53.4786 27.3295 54.2021 27.3295 55.0497ZM43.9109 55.6588H38.2935V50.0608H43.9109V55.6588ZM42.8667 54.7887V50.9406H39.3377V54.7887H42.8667ZM39.6664 57.0221H40.73V59.9517H47.8363V60.8412H39.6664V57.0221ZM46.2024 48.9489H47.2756V52.6519H49.1029V53.5608H47.2756V57.8633H46.2024V48.9489ZM63.4013 58.2017H62.3184V56.9351H59.8143V56.1519H62.3184V48.9682H63.4013V58.2017ZM53.317 54.5953C54.922 54.5889 56.3545 54.5647 57.6147 54.5228C58.878 54.4777 60.0817 54.3826 61.2259 54.2376L61.3032 55.0207C60.2945 55.1819 59.1794 55.2995 57.9579 55.3736V57.7762H56.8847V55.4268C56.0564 55.459 55.1121 55.4751 54.0518 55.4751H53.462L53.317 54.5953ZM54.2935 51.5787C54.2935 51.1598 54.4192 50.7907 54.6706 50.4717C54.922 50.1494 55.2765 49.9012 55.7341 49.7272C56.1918 49.55 56.7171 49.4613 57.3101 49.4613C57.8967 49.4613 58.4172 49.55 58.8716 49.7272C59.326 49.9012 59.6789 50.1494 59.9303 50.4717C60.1849 50.7907 60.3138 51.1598 60.317 51.5787C60.3138 52.0041 60.1849 52.3764 59.9303 52.6954C59.6789 53.0113 59.326 53.2562 58.8716 53.4302C58.4204 53.6011 57.8999 53.6865 57.3101 53.6865C56.7139 53.6865 56.187 53.6011 55.7293 53.4302C55.2749 53.2594 54.922 53.0145 54.6706 52.6954C54.4192 52.3764 54.2935 52.0041 54.2935 51.5787ZM55.067 57.2928H56.1402V59.9517H63.701V60.8412H55.067V57.2928ZM55.3184 51.5787C55.3152 51.8398 55.3957 52.0686 55.5601 52.2652C55.7277 52.4618 55.963 52.6149 56.2659 52.7244C56.5689 52.8308 56.9169 52.884 57.3101 52.884C57.6904 52.884 58.0304 52.8308 58.3301 52.7244C58.6299 52.6149 58.8635 52.4618 59.0311 52.2652C59.2019 52.0686 59.2889 51.8398 59.2922 51.5787C59.2889 51.3209 59.2019 51.0937 59.0311 50.8971C58.8635 50.6973 58.6299 50.5426 58.3301 50.433C58.0304 50.3234 57.6904 50.2703 57.3101 50.2735C56.9169 50.2703 56.5689 50.3234 56.2659 50.433C55.963 50.5426 55.7277 50.6973 55.5601 50.8971C55.3957 51.0937 55.3152 51.3209 55.3184 51.5787Z" fill="#09101D"/>
<path d="M4.40747 120.135C2.43509 120.135 1.02349 119.081 0.955812 117.515H2.20305C2.27073 118.453 3.20857 119.043 4.38813 119.043C5.69338 119.043 6.6409 118.337 6.6409 117.302C6.6409 116.229 5.7804 115.465 4.23344 115.465H3.43095V114.383H4.23344C5.442 114.383 6.28316 113.706 6.28316 112.681C6.28316 111.695 5.55802 111.037 4.42681 111.037C3.37294 111.037 2.40609 111.617 2.35775 112.584H1.16852C1.22653 111.018 2.68647 109.964 4.44614 109.964C6.3315 109.964 7.48206 111.202 7.47239 112.623C7.48206 113.744 6.8246 114.566 5.79007 114.856V114.934C7.07598 115.127 7.85913 116.046 7.84946 117.312C7.85913 118.936 6.37985 120.135 4.40747 120.135ZM12.8644 120.135C10.6696 120.135 9.40307 118.289 9.40307 115.05C9.40307 111.84 10.689 109.964 12.8644 109.964C15.0398 109.964 16.3257 111.84 16.3257 115.05C16.3257 118.289 15.0591 120.135 12.8644 120.135ZM10.602 115.05C10.602 117.612 11.4335 119.043 12.8644 119.043C14.2953 119.043 15.1268 117.612 15.1268 115.05C15.1268 112.488 14.2857 111.037 12.8644 111.037C11.4431 111.037 10.602 112.488 10.602 115.05ZM21.2042 120.135C19.0095 120.135 17.7429 118.289 17.7429 115.05C17.7429 111.84 19.0288 109.964 21.2042 109.964C23.3797 109.964 24.6656 111.84 24.6656 115.05C24.6656 118.289 23.399 120.135 21.2042 120.135ZM18.9418 115.05C18.9418 117.612 19.7733 119.043 21.2042 119.043C22.6352 119.043 23.4667 117.612 23.4667 115.05C23.4667 112.488 22.6255 111.037 21.2042 111.037C19.783 111.037 18.9418 112.488 18.9418 115.05ZM29.5441 120.135C27.3493 120.135 26.0828 118.289 26.0828 115.05C26.0828 111.84 27.3687 109.964 29.5441 109.964C31.7195 109.964 33.0054 111.84 33.0054 115.05C33.0054 118.289 31.7388 120.135 29.5441 120.135ZM27.2816 115.05C27.2816 117.612 28.1131 119.043 29.5441 119.043C30.975 119.043 31.8065 117.612 31.8065 115.05C31.8065 112.488 30.9654 111.037 29.5441 111.037C28.1228 111.037 27.2816 112.488 27.2816 115.05ZM43.8631 110.061V115.659H38.2457V110.061H43.8631ZM39.2899 114.789H42.8189V110.941H39.2899V114.789ZM39.6186 120.841V117.022H40.6821V119.952H47.7885V120.841H39.6186ZM46.1545 117.863V108.949H47.2277V112.652H49.0551V113.561H47.2277V117.863H46.1545ZM63.3534 108.968V118.202H62.2705V116.935H59.7664V116.152H62.2705V108.968H63.3534ZM53.2692 114.595C55.5316 114.586 58.5772 114.566 61.178 114.238L61.2554 115.021C60.1676 115.195 59.0316 115.306 57.91 115.374V117.776H56.8368V115.427C55.6089 115.475 54.4342 115.48 53.4142 115.475L53.2692 114.595ZM54.2457 111.579C54.2457 110.302 55.4639 109.461 57.2623 109.461C59.0413 109.461 60.2595 110.302 60.2692 111.579C60.2595 112.874 59.0413 113.686 57.2623 113.686C55.4639 113.686 54.2457 112.874 54.2457 111.579ZM55.0192 120.841V117.293H56.0924V119.952H63.6531V120.841H55.0192ZM55.2705 111.579C55.2609 112.372 56.073 112.884 57.2623 112.884C58.4128 112.884 59.2346 112.372 59.2443 111.579C59.2346 110.796 58.4128 110.264 57.2623 110.273C56.073 110.264 55.2609 110.796 55.2705 111.579Z" fill="#09101D"/>
<path d="M1.18706 179.101L4.56137 175.543C5.00612 175.069 5.34452 174.689 5.57657 174.402C5.81183 174.112 5.9907 173.833 6.11317 173.566C6.23564 173.295 6.29848 173.013 6.3017 172.72C6.29848 172.384 6.20985 172.09 6.03582 171.835C5.86501 171.58 5.62974 171.384 5.33002 171.245C5.03352 171.107 4.69995 171.037 4.32933 171.037C3.94259 171.037 3.60258 171.115 3.3093 171.269C3.01925 171.424 2.79526 171.642 2.63734 171.922C2.48264 172.202 2.4053 172.526 2.4053 172.894H1.23541C1.23218 172.32 1.36593 171.812 1.63665 171.371C1.91059 170.926 2.28605 170.581 2.76303 170.336C3.24001 170.088 3.775 169.964 4.368 169.964C4.95456 169.964 5.48149 170.087 5.9488 170.331C6.41934 170.573 6.78674 170.904 7.05101 171.323C7.31529 171.741 7.44903 172.207 7.45226 172.72C7.44903 173.097 7.37813 173.458 7.23955 173.802C7.10419 174.144 6.87376 174.524 6.54825 174.943C6.22597 175.362 5.76671 175.878 5.17049 176.49L2.90806 178.83V178.907H7.62629V180H1.19673L1.18706 179.101ZM12.6525 180.135C11.9241 180.135 11.3005 179.937 10.7816 179.541C10.266 179.141 9.87117 178.561 9.59723 177.8C9.32651 177.04 9.19115 176.123 9.19115 175.05C9.19115 173.986 9.32812 173.074 9.60206 172.314C9.87601 171.55 10.2724 170.968 10.7913 170.568C11.3102 170.166 11.9306 169.964 12.6525 169.964C13.3744 169.964 13.9948 170.166 14.5137 170.568C15.0325 170.968 15.429 171.55 15.7029 172.314C15.9768 173.074 16.1138 173.986 16.1138 175.05C16.1138 176.123 15.9768 177.04 15.7029 177.8C15.4322 178.561 15.0374 179.141 14.5185 179.541C14.0028 179.937 13.3808 180.135 12.6525 180.135ZM10.39 175.05C10.39 175.897 10.4787 176.621 10.6559 177.22C10.8332 177.817 11.091 178.269 11.4294 178.579C11.7678 178.888 12.1755 179.043 12.6525 179.043C13.1295 179.043 13.5371 178.888 13.8755 178.579C14.2139 178.269 14.4718 177.817 14.649 177.22C14.8263 176.621 14.9149 175.897 14.9149 175.05C14.9149 174.202 14.8247 173.479 14.6442 172.879C14.4669 172.276 14.2091 171.819 13.8707 171.506C13.5323 171.194 13.1262 171.037 12.6525 171.037C12.1787 171.037 11.7726 171.194 11.4342 171.506C11.0958 171.819 10.8364 172.276 10.6559 172.879C10.4787 173.479 10.39 174.202 10.39 175.05ZM20.9923 180.135C20.264 180.135 19.6403 179.937 19.1215 179.541C18.6058 179.141 18.211 178.561 17.9371 177.8C17.6664 177.04 17.531 176.123 17.531 175.05C17.531 173.986 17.668 173.074 17.9419 172.314C18.2158 171.55 18.6123 170.968 19.1311 170.568C19.65 170.166 20.2704 169.964 20.9923 169.964C21.7142 169.964 22.3346 170.166 22.8535 170.568C23.3724 170.968 23.7688 171.55 24.0427 172.314C24.3167 173.074 24.4536 173.986 24.4536 175.05C24.4536 176.123 24.3167 177.04 24.0427 177.8C23.772 178.561 23.3772 179.141 22.8583 179.541C22.3427 179.937 21.7207 180.135 20.9923 180.135ZM18.7299 175.05C18.7299 175.897 18.8185 176.621 18.9958 177.22C19.173 177.817 19.4309 178.269 19.7693 178.579C20.1077 178.888 20.5153 179.043 20.9923 179.043C21.4693 179.043 21.877 178.888 22.2154 178.579C22.5538 178.269 22.8116 177.817 22.9889 177.22C23.1661 176.621 23.2548 175.897 23.2548 175.05C23.2548 174.202 23.1645 173.479 22.984 172.879C22.8068 172.276 22.549 171.819 22.2106 171.506C21.8722 171.194 21.4661 171.037 20.9923 171.037C20.5186 171.037 20.1125 171.194 19.7741 171.506C19.4357 171.819 19.1763 172.276 18.9958 172.879C18.8185 173.479 18.7299 174.202 18.7299 175.05ZM29.3322 180.135C28.6038 180.135 27.9802 179.937 27.4613 179.541C26.9457 179.141 26.5509 178.561 26.2769 177.8C26.0062 177.04 25.8708 176.123 25.8708 175.05C25.8708 173.986 26.0078 173.074 26.2818 172.314C26.5557 171.55 26.9521 170.968 27.471 170.568C27.9899 170.166 28.6103 169.964 29.3322 169.964C30.0541 169.964 30.6745 170.166 31.1934 170.568C31.7122 170.968 32.1086 171.55 32.3826 172.314C32.6565 173.074 32.7935 173.986 32.7935 175.05C32.7935 176.123 32.6565 177.04 32.3826 177.8C32.1119 178.561 31.7171 179.141 31.1982 179.541C30.6825 179.937 30.0605 180.135 29.3322 180.135ZM27.0697 175.05C27.0697 175.897 27.1584 176.621 27.3356 177.22C27.5129 177.817 27.7707 178.269 28.1091 178.579C28.4475 178.888 28.8552 179.043 29.3322 179.043C29.8091 179.043 30.2168 178.888 30.5552 178.579C30.8936 178.269 31.1515 177.817 31.3287 177.22C31.506 176.621 31.5946 175.897 31.5946 175.05C31.5946 174.202 31.5044 173.479 31.3239 172.879C31.1466 172.276 30.8888 171.819 30.5504 171.506C30.212 171.194 29.8059 171.037 29.3322 171.037C28.8584 171.037 28.4523 171.194 28.1139 171.506C27.7755 171.819 27.5161 172.276 27.3356 172.879C27.1584 173.479 27.0697 174.202 27.0697 175.05ZM43.6512 175.659H38.0337V170.061H43.6512V175.659ZM42.607 174.789V170.941H39.0779V174.789H42.607ZM39.4067 177.022H40.4702V179.952H47.5766V180.841H39.4067V177.022ZM45.9426 168.949H47.0158V172.652H48.8431V173.561H47.0158V177.863H45.9426V168.949ZM63.1415 178.202H62.0586V176.935H59.5545V176.152H62.0586V168.968H63.1415V178.202ZM53.0573 174.595C54.6622 174.589 56.0948 174.565 57.3549 174.523C58.6183 174.478 59.822 174.383 60.9661 174.238L61.0434 175.021C60.0347 175.182 58.9196 175.299 57.6981 175.374V177.776H56.6249V175.427C55.7967 175.459 54.8524 175.475 53.7921 175.475H53.2023L53.0573 174.595ZM54.0338 171.579C54.0338 171.16 54.1595 170.791 54.4108 170.472C54.6622 170.149 55.0167 169.901 55.4744 169.727C55.932 169.55 56.4573 169.461 57.0503 169.461C57.6369 169.461 58.1574 169.55 58.6118 169.727C59.0662 169.901 59.4191 170.149 59.6705 170.472C59.9251 170.791 60.054 171.16 60.0573 171.579C60.054 172.004 59.9251 172.376 59.6705 172.695C59.4191 173.011 59.0662 173.256 58.6118 173.43C58.1606 173.601 57.6401 173.686 57.0503 173.686C56.4541 173.686 55.9272 173.601 55.4695 173.43C55.0151 173.259 54.6622 173.015 54.4108 172.695C54.1595 172.376 54.0338 172.004 54.0338 171.579ZM54.8073 177.293H55.8805V179.952H63.4412V180.841H54.8073V177.293ZM55.0586 171.579C55.0554 171.84 55.136 172.069 55.3003 172.265C55.4679 172.462 55.7032 172.615 56.0061 172.724C56.3091 172.831 56.6572 172.884 57.0503 172.884C57.4306 172.884 57.7706 172.831 58.0704 172.724C58.3701 172.615 58.6038 172.462 58.7713 172.265C58.9421 172.069 59.0292 171.84 59.0324 171.579C59.0292 171.321 58.9421 171.094 58.7713 170.897C58.6038 170.697 58.3701 170.543 58.0704 170.433C57.7706 170.323 57.4306 170.27 57.0503 170.273C56.6572 170.27 56.3091 170.323 56.0061 170.433C55.7032 170.543 55.4679 170.697 55.3003 170.897C55.136 171.094 55.0554 171.321 55.0586 171.579Z" fill="#09101D"/>
<path d="M5.73579 240H4.49823V231.385H4.44021L2.03276 232.981V231.743L4.49823 230.099H5.73579V240ZM11.6134 240.135C10.8851 240.135 10.2614 239.937 9.74256 239.541C9.22691 239.141 8.83211 238.561 8.55817 237.8C8.28745 237.04 8.15209 236.123 8.15209 235.05C8.15209 233.986 8.28906 233.074 8.563 232.314C8.83694 231.55 9.23335 230.968 9.75223 230.568C10.2711 230.166 10.8915 229.964 11.6134 229.964C12.3353 229.964 12.9557 230.166 13.4746 230.568C13.9935 230.968 14.3899 231.55 14.6638 232.314C14.9378 233.074 15.0747 233.986 15.0747 235.05C15.0747 236.123 14.9378 237.04 14.6638 237.8C14.3931 238.561 13.9983 239.141 13.4794 239.541C12.9638 239.937 12.3418 240.135 11.6134 240.135ZM9.35099 235.05C9.35099 235.897 9.43961 236.621 9.61687 237.22C9.79413 237.817 10.052 238.269 10.3903 238.579C10.7287 238.888 11.1364 239.043 11.6134 239.043C12.0904 239.043 12.4981 238.888 12.8365 238.579C13.1749 238.269 13.4327 237.817 13.61 237.22C13.7872 236.621 13.8758 235.897 13.8758 235.05C13.8758 234.202 13.7856 233.479 13.6051 232.879C13.4279 232.276 13.17 231.819 12.8316 231.506C12.4933 231.194 12.0872 231.037 11.6134 231.037C11.1397 231.037 10.7336 231.194 10.3952 231.506C10.0568 231.819 9.79735 232.276 9.61687 232.879C9.43961 233.479 9.35099 234.202 9.35099 235.05ZM19.9533 240.135C19.2249 240.135 18.6013 239.937 18.0824 239.541C17.5667 239.141 17.172 238.561 16.898 237.8C16.6273 237.04 16.4919 236.123 16.4919 235.05C16.4919 233.986 16.6289 233.074 16.9028 232.314C17.1768 231.55 17.5732 230.968 18.0921 230.568C18.6109 230.166 19.2313 229.964 19.9533 229.964C20.6752 229.964 21.2956 230.166 21.8144 230.568C22.3333 230.968 22.7297 231.55 23.0037 232.314C23.2776 233.074 23.4146 233.986 23.4146 235.05C23.4146 236.123 23.2776 237.04 23.0037 237.8C22.733 238.561 22.3382 239.141 21.8193 239.541C21.3036 239.937 20.6816 240.135 19.9533 240.135ZM17.6908 235.05C17.6908 235.897 17.7795 236.621 17.9567 237.22C18.134 237.817 18.3918 238.269 18.7302 238.579C19.0686 238.888 19.4763 239.043 19.9533 239.043C20.4302 239.043 20.8379 238.888 21.1763 238.579C21.5147 238.269 21.7726 237.817 21.9498 237.22C22.1271 236.621 22.2157 235.897 22.2157 235.05C22.2157 234.202 22.1255 233.479 21.945 232.879C21.7677 232.276 21.5099 231.819 21.1715 231.506C20.8331 231.194 20.427 231.037 19.9533 231.037C19.4795 231.037 19.0734 231.194 18.735 231.506C18.3966 231.819 18.1372 232.276 17.9567 232.879C17.7795 233.479 17.6908 234.202 17.6908 235.05ZM28.2931 240.135C27.5647 240.135 26.9411 239.937 26.4222 239.541C25.9066 239.141 25.5118 238.561 25.2379 237.8C24.9671 237.04 24.8318 236.123 24.8318 235.05C24.8318 233.986 24.9687 233.074 25.2427 232.314C25.5166 231.55 25.913 230.968 26.4319 230.568C26.9508 230.166 27.5712 229.964 28.2931 229.964C29.015 229.964 29.6354 230.166 30.1543 230.568C30.6732 230.968 31.0696 231.55 31.3435 232.314C31.6175 233.074 31.7544 233.986 31.7544 235.05C31.7544 236.123 31.6175 237.04 31.3435 237.8C31.0728 238.561 30.678 239.141 30.1591 239.541C29.6435 239.937 29.0215 240.135 28.2931 240.135ZM26.0307 235.05C26.0307 235.897 26.1193 236.621 26.2966 237.22C26.4738 237.817 26.7316 238.269 27.07 238.579C27.4084 238.888 27.8161 239.043 28.2931 239.043C28.7701 239.043 29.1778 238.888 29.5162 238.579C29.8546 238.269 30.1124 237.817 30.2897 237.22C30.4669 236.621 30.5555 235.897 30.5555 235.05C30.5555 234.202 30.4653 233.479 30.2848 232.879C30.1076 232.276 29.8497 231.819 29.5113 231.506C29.1729 231.194 28.7669 231.037 28.2931 231.037C27.8193 231.037 27.4133 231.194 27.0749 231.506C26.7365 231.819 26.477 232.276 26.2966 232.879C26.1193 233.479 26.0307 234.202 26.0307 235.05ZM42.6121 235.659H36.9947V230.061H42.6121V235.659ZM41.5679 234.789V230.941H38.0389V234.789H41.5679ZM38.3676 237.022H39.4311V239.952H46.5375V240.841H38.3676V237.022ZM44.9035 228.949H45.9767V232.652H47.8041V233.561H45.9767V237.863H44.9035V228.949ZM62.1024 238.202H61.0196V236.935H58.5154V236.152H61.0196V228.968H62.1024V238.202ZM52.0182 234.595C53.6232 234.589 55.0557 234.565 56.3158 234.523C57.5792 234.478 58.7829 234.383 59.927 234.238L60.0044 235.021C58.9956 235.182 57.8805 235.299 56.6591 235.374V237.776H55.5859V235.427C54.7576 235.459 53.8133 235.475 52.753 235.475H52.1632L52.0182 234.595ZM52.9947 231.579C52.9947 231.16 53.1204 230.791 53.3718 230.472C53.6232 230.149 53.9777 229.901 54.4353 229.727C54.893 229.55 55.4183 229.461 56.0113 229.461C56.5978 229.461 57.1183 229.55 57.5727 229.727C58.0272 229.901 58.3801 230.149 58.6314 230.472C58.8861 230.791 59.015 231.16 59.0182 231.579C59.015 232.004 58.8861 232.376 58.6314 232.695C58.3801 233.011 58.0272 233.256 57.5727 233.43C57.1215 233.601 56.6011 233.686 56.0113 233.686C55.4151 233.686 54.8881 233.601 54.4305 233.43C53.9761 233.259 53.6232 233.015 53.3718 232.695C53.1204 232.376 52.9947 232.004 52.9947 231.579ZM53.7682 237.293H54.8414V239.952H62.4022V240.841H53.7682V237.293ZM54.0196 231.579C54.0163 231.84 54.0969 232.069 54.2613 232.265C54.4289 232.462 54.6641 232.615 54.9671 232.724C55.27 232.831 55.6181 232.884 56.0113 232.884C56.3916 232.884 56.7316 232.831 57.0313 232.724C57.331 232.615 57.5647 232.462 57.7323 232.265C57.9031 232.069 57.9901 231.84 57.9933 231.579C57.9901 231.321 57.9031 231.094 57.7323 230.897C57.5647 230.697 57.331 230.543 57.0313 230.433C56.7316 230.323 56.3916 230.27 56.0113 230.273C55.6181 230.27 55.27 230.323 54.9671 230.433C54.6641 230.543 54.4289 230.697 54.2613 230.897C54.0969 231.094 54.0163 231.321 54.0196 231.579Z" fill="#09101D"/>
<path d="M132.5 244C132.5 239.582 136.082 236 140.5 236H142.5C146.918 236 150.5 239.582 150.5 244V285H132.5V244Z" fill="#BE7346"/>
<path d="M136.809 302.099V312H135.571V303.385H135.513L133.106 304.981V303.743L135.571 302.099H136.809ZM149.029 300.968V308.133H147.946V307.456H145.491V306.75H147.946V300.968H149.029ZM138.964 305.551C141.323 305.561 144.33 305.532 146.96 305.242L147.028 305.948C145.839 306.112 144.601 306.213 143.392 306.276V308.171H142.339V306.315C141.188 306.354 140.086 306.358 139.1 306.354L138.964 305.551ZM139.912 303.028C139.912 301.906 141.101 301.2 142.938 301.2C144.746 301.2 145.945 301.906 145.955 303.028C145.945 304.169 144.746 304.845 142.938 304.845C141.101 304.845 139.912 304.169 139.912 303.028ZM140.83 309.341V308.568H149.029V311.081H141.933V312.174H149.435V312.977H140.879V310.337H147.966V309.341H140.83ZM140.927 303.028C140.917 303.675 141.71 304.11 142.938 304.11C144.147 304.11 144.939 303.675 144.939 303.028C144.939 302.38 144.147 301.945 142.938 301.945C141.71 301.945 140.917 302.38 140.927 303.028Z" fill="#09101D"/>
<path d="M190.5 244C190.5 239.582 194.082 236 198.5 236H200.5C204.918 236 208.5 239.582 208.5 244V285H190.5V244Z" fill="#BE7346"/>
<path d="M190.27 312L190.26 311.101L193.635 307.543C194.805 306.296 195.365 305.628 195.375 304.72C195.365 303.695 194.514 303.037 193.403 303.037C192.223 303.037 191.479 303.782 191.479 304.894H190.309C190.299 303.144 191.653 301.964 193.441 301.964C195.24 301.964 196.516 303.173 196.525 304.72C196.516 305.822 196.003 306.682 194.244 308.49L191.981 310.83V310.907H196.7V312H190.27ZM208.068 300.968V308.133H206.985V307.456H204.53V306.75H206.985V300.968H208.068ZM198.003 305.551C200.362 305.561 203.369 305.532 205.999 305.242L206.067 305.948C204.878 306.112 203.64 306.213 202.432 306.276V308.171H201.378V306.315C200.227 306.354 199.125 306.358 198.139 306.354L198.003 305.551ZM198.951 303.028C198.951 301.906 200.14 301.2 201.977 301.2C203.785 301.2 204.984 301.906 204.994 303.028C204.984 304.169 203.785 304.845 201.977 304.845C200.14 304.845 198.951 304.169 198.951 303.028ZM199.869 309.341V308.568H208.068V311.081H200.972V312.174H208.474V312.977H199.918V310.337H207.005V309.341H199.869ZM199.966 303.028C199.956 303.675 200.749 304.11 201.977 304.11C203.186 304.11 203.978 303.675 203.978 303.028C203.978 302.38 203.186 301.945 201.977 301.945C200.749 301.945 199.956 302.38 199.966 303.028Z" fill="#09101D"/>
<path d="M249.5 215C249.5 210.582 253.082 207 257.5 207H259.5C263.918 207 267.5 210.582 267.5 215V285H249.5V215Z" fill="#BE7346"/>
<path d="M252.481 312.135C251.83 312.135 251.246 312.026 250.731 311.807C250.215 311.587 249.807 311.28 249.508 310.883C249.211 310.487 249.052 310.031 249.029 309.515H250.276C250.299 309.821 250.408 310.09 250.605 310.323C250.802 310.551 251.061 310.729 251.383 310.854C251.709 310.98 252.068 311.043 252.461 311.043C252.893 311.043 253.28 310.97 253.622 310.825C253.963 310.677 254.231 310.471 254.424 310.206C254.617 309.942 254.714 309.641 254.714 309.302C254.714 308.942 254.619 308.622 254.429 308.345C254.242 308.068 253.968 307.852 253.607 307.698C253.246 307.543 252.813 307.465 252.307 307.465H251.504V306.383H252.307C252.706 306.383 253.061 306.312 253.37 306.17C253.683 306.028 253.925 305.83 254.095 305.575C254.269 305.317 254.356 305.019 254.356 304.681C254.356 304.355 254.281 304.069 254.129 303.82C253.978 303.572 253.762 303.381 253.481 303.245C253.201 303.107 252.874 303.037 252.5 303.037C252.146 303.037 251.812 303.1 251.499 303.226C251.19 303.352 250.939 303.532 250.745 303.767C250.552 303.999 250.447 304.272 250.431 304.584H249.242C249.261 304.075 249.419 303.622 249.716 303.226C250.012 302.826 250.407 302.517 250.9 302.298C251.393 302.075 251.933 301.964 252.519 301.964C253.129 301.964 253.662 302.085 254.12 302.327C254.58 302.568 254.933 302.892 255.178 303.298C255.426 303.704 255.549 304.146 255.546 304.623C255.549 304.99 255.483 305.326 255.347 305.628C255.212 305.931 255.017 306.188 254.762 306.397C254.508 306.607 254.208 306.76 253.863 306.856V306.934C254.289 306.998 254.656 307.138 254.966 307.354C255.278 307.567 255.517 307.843 255.681 308.181C255.845 308.516 255.926 308.893 255.923 309.312C255.926 309.844 255.778 310.326 255.478 310.758C255.181 311.186 254.769 311.523 254.24 311.768C253.715 312.013 253.129 312.135 252.481 312.135ZM267.28 308.133H266.197V307.456H263.742V306.75H266.197V300.968H267.28V308.133ZM257.926 305.551C259.263 305.551 260.541 305.53 261.759 305.488C262.981 305.443 264.131 305.361 265.211 305.242L265.279 305.948C264.199 306.096 262.987 306.205 261.643 306.276V308.171H260.59V306.315C259.774 306.341 258.896 306.354 257.955 306.354H257.351L257.215 305.551H257.926ZM258.163 303.028C258.163 302.657 258.287 302.335 258.535 302.061C258.783 301.784 259.134 301.571 259.589 301.423C260.047 301.274 260.58 301.2 261.189 301.2C261.788 301.2 262.315 301.274 262.77 301.423C263.224 301.571 263.576 301.784 263.824 302.061C264.075 302.335 264.202 302.657 264.206 303.028C264.202 303.401 264.075 303.725 263.824 303.999C263.576 304.273 263.224 304.483 262.77 304.628C262.319 304.773 261.792 304.845 261.189 304.845C260.577 304.845 260.043 304.773 259.589 304.628C259.134 304.483 258.783 304.275 258.535 304.004C258.287 303.73 258.163 303.405 258.163 303.028ZM259.081 308.568H267.28V311.081H260.183V312.174H267.686V312.977H259.13V310.337H266.217V309.341H259.081V308.568ZM259.178 303.028C259.175 303.24 259.255 303.429 259.42 303.593C259.584 303.758 259.818 303.885 260.121 303.975C260.427 304.065 260.783 304.11 261.189 304.11C261.589 304.11 261.938 304.065 262.238 303.975C262.541 303.885 262.775 303.758 262.939 303.593C263.107 303.429 263.19 303.24 263.19 303.028C263.19 302.815 263.107 302.626 262.939 302.462C262.775 302.298 262.541 302.17 262.238 302.08C261.938 301.99 261.589 301.945 261.189 301.945C260.783 301.945 260.427 301.99 260.121 302.08C259.818 302.17 259.584 302.298 259.42 302.462C259.255 302.626 259.175 302.815 259.178 303.028Z" fill="#09101D"/>
<path d="M308.5 251C308.5 246.582 312.082 243 316.5 243H318.5C322.918 243 326.5 246.582 326.5 251V285H308.5V251Z" fill="#BE7346"/>
<path d="M307.768 308.964L312.226 302.099H313.734V308.896H315.126V309.979H313.734V312H312.564V309.979H307.768V308.964ZM312.564 308.896V303.656H312.448L309.093 308.819V308.896H312.564ZM326.328 308.133H325.245V307.456H322.789V306.75H325.245V300.968H326.328V308.133ZM316.974 305.551C318.311 305.551 319.589 305.53 320.807 305.488C322.029 305.443 323.179 305.361 324.259 305.242L324.327 305.948C323.247 306.096 322.035 306.205 320.691 306.276V308.171H319.637V306.315C318.822 306.341 317.944 306.354 317.003 306.354H316.398L316.263 305.551H316.974ZM317.211 303.028C317.211 302.657 317.335 302.335 317.583 302.061C317.831 301.784 318.182 301.571 318.637 301.423C319.094 301.274 319.628 301.2 320.237 301.2C320.836 301.2 321.363 301.274 321.818 301.423C322.272 301.571 322.623 301.784 322.872 302.061C323.123 302.335 323.25 302.657 323.253 303.028C323.25 303.401 323.123 303.725 322.872 303.999C322.623 304.273 322.272 304.483 321.818 304.628C321.366 304.773 320.84 304.845 320.237 304.845C319.625 304.845 319.091 304.773 318.637 304.628C318.182 304.483 317.831 304.275 317.583 304.004C317.335 303.73 317.211 303.405 317.211 303.028ZM318.129 308.568H326.328V311.081H319.231V312.174H326.734V312.977H318.177V310.337H325.264V309.341H318.129V308.568ZM318.226 303.028C318.223 303.24 318.303 303.429 318.468 303.593C318.632 303.758 318.866 303.885 319.168 303.975C319.475 304.065 319.831 304.11 320.237 304.11C320.636 304.11 320.986 304.065 321.286 303.975C321.589 303.885 321.823 303.758 321.987 303.593C322.154 303.429 322.238 303.24 322.238 303.028C322.238 302.815 322.154 302.626 321.987 302.462C321.823 302.298 321.589 302.17 321.286 302.08C320.986 301.99 320.636 301.945 320.237 301.945C319.831 301.945 319.475 301.99 319.168 302.08C318.866 302.17 318.632 302.298 318.468 302.462C318.303 302.626 318.223 302.815 318.226 303.028Z" fill="#09101D"/>
<path d="M367.5 231C367.5 226.582 371.082 223 375.5 223H377.5C381.918 223 385.5 226.582 385.5 231V285H367.5V231Z" fill="#BE7346"/>
<path d="M370.431 312.135C368.642 312.135 367.289 311.033 367.211 309.515H368.41C368.497 310.395 369.358 311.052 370.431 311.052C371.717 311.052 372.645 310.115 372.645 308.867C372.645 307.581 371.678 306.634 370.344 306.624C369.512 306.615 368.865 306.876 368.497 307.514H367.308L368.004 302.099H373.37V303.192H369.029L368.662 306.093H368.768C369.203 305.754 369.87 305.522 370.566 305.522C372.452 305.522 373.844 306.914 373.844 308.838C373.844 310.753 372.403 312.135 370.431 312.135ZM385.137 300.968V308.133H384.054V307.456H381.598V306.75H384.054V300.968H385.137ZM375.072 305.551C377.431 305.561 380.438 305.532 383.068 305.242L383.135 305.948C381.946 306.112 380.708 306.213 379.5 306.276V308.171H378.446V306.315C377.295 306.354 376.193 306.358 375.207 306.354L375.072 305.551ZM376.019 303.028C376.019 301.906 377.208 301.2 379.045 301.2C380.853 301.2 382.052 301.906 382.062 303.028C382.052 304.169 380.853 304.845 379.045 304.845C377.208 304.845 376.019 304.169 376.019 303.028ZM376.938 309.341V308.568H385.137V311.081H378.04V312.174H385.543V312.977H376.986V310.337H384.073V309.341H376.938ZM377.034 303.028C377.025 303.675 377.818 304.11 379.045 304.11C380.254 304.11 381.047 303.675 381.047 303.028C381.047 302.38 380.254 301.945 379.045 301.945C377.818 301.945 377.025 302.38 377.034 303.028Z" fill="#09101D"/>
<path d="M426.5 170C426.5 165.582 430.082 162 434.5 162H436.5C440.918 162 444.5 165.582 444.5 170V285H426.5V170Z" fill="#BE7346"/>
<path d="M429.566 312.135C428.928 312.135 428.335 311.992 427.787 311.705C427.242 311.415 426.794 310.92 426.443 310.221C426.095 309.518 425.921 308.587 425.921 307.427C425.921 306.273 426.073 305.287 426.375 304.468C426.678 303.65 427.112 303.028 427.676 302.602C428.24 302.177 428.909 301.964 429.682 301.964C430.253 301.964 430.765 302.075 431.219 302.298C431.677 302.517 432.049 302.825 432.336 303.221C432.623 303.614 432.808 304.069 432.892 304.584H431.674C431.558 304.127 431.329 303.758 430.987 303.477C430.646 303.197 430.211 303.057 429.682 303.057C429.144 303.057 428.68 303.206 428.29 303.506C427.9 303.803 427.6 304.235 427.391 304.802C427.184 305.369 427.081 306.047 427.081 306.837H427.207C427.494 306.418 427.856 306.094 428.295 305.865C428.736 305.637 429.221 305.522 429.75 305.522C430.333 305.522 430.871 305.664 431.364 305.948C431.858 306.228 432.249 306.618 432.539 307.117C432.832 307.617 432.979 308.178 432.979 308.8C432.979 309.419 432.837 309.983 432.554 310.492C432.27 310.998 431.869 311.399 431.35 311.695C430.834 311.989 430.24 312.135 429.566 312.135ZM427.255 308.829C427.255 309.215 427.354 309.58 427.55 309.921C427.747 310.263 428.017 310.537 428.362 310.743C428.71 310.949 429.099 311.052 429.527 311.052C429.946 311.052 430.328 310.953 430.673 310.753C431.018 310.553 431.289 310.282 431.485 309.941C431.685 309.596 431.787 309.219 431.79 308.809C431.787 308.41 431.688 308.042 431.495 307.707C431.305 307.369 431.041 307.101 430.702 306.905C430.364 306.705 429.985 306.605 429.566 306.605C429.144 306.605 428.756 306.708 428.401 306.914C428.05 307.121 427.771 307.395 427.565 307.736C427.362 308.078 427.259 308.442 427.255 308.829ZM444.253 308.133H443.17V307.456H440.714V306.75H443.17V300.968H444.253V308.133ZM434.899 305.551C436.236 305.551 437.514 305.53 438.732 305.488C439.954 305.443 441.104 305.361 442.184 305.242L442.251 305.948C441.172 306.096 439.96 306.205 438.616 306.276V308.171H437.562V306.315C436.747 306.341 435.869 306.354 434.928 306.354H434.323L434.188 305.551H434.899ZM435.135 303.028C435.135 302.657 435.26 302.335 435.508 302.061C435.756 301.784 436.107 301.571 436.562 301.423C437.019 301.274 437.553 301.2 438.162 301.2C438.761 301.2 439.288 301.274 439.742 301.423C440.197 301.571 440.548 301.784 440.796 302.061C441.048 302.335 441.175 302.657 441.178 303.028C441.175 303.401 441.048 303.725 440.796 303.999C440.548 304.273 440.197 304.483 439.742 304.628C439.291 304.773 438.764 304.845 438.162 304.845C437.549 304.845 437.016 304.773 436.562 304.628C436.107 304.483 435.756 304.275 435.508 304.004C435.26 303.73 435.135 303.405 435.135 303.028ZM436.054 308.568H444.253V311.081H437.156V312.174H444.659V312.977H436.102V310.337H443.189V309.341H436.054V308.568ZM436.151 303.028C436.147 303.24 436.228 303.429 436.392 303.593C436.557 303.758 436.79 303.885 437.093 303.975C437.399 304.065 437.756 304.11 438.162 304.11C438.561 304.11 438.911 304.065 439.211 303.975C439.514 303.885 439.747 303.758 439.912 303.593C440.079 303.429 440.163 303.24 440.163 303.028C440.163 302.815 440.079 302.626 439.912 302.462C439.747 302.298 439.514 302.17 439.211 302.08C438.911 301.99 438.561 301.945 438.162 301.945C437.756 301.945 437.399 301.99 437.093 302.08C436.79 302.17 436.557 302.298 436.392 302.462C436.228 302.626 436.147 302.815 436.151 303.028Z" fill="#09101D"/>
<path d="M485 268C485 263.582 488.582 260 493 260H495C499.418 260 503 263.582 503 268V285H485V268Z" fill="#BE7346"/>
<path d="M489.87 303.269V303.192H484.639V302.099H491.146V303.25L486.621 312H485.325L489.87 303.269ZM502.322 308.133H501.239V307.456H498.783V306.75H501.239V300.968H502.322V308.133ZM492.968 305.551C494.305 305.551 495.583 305.53 496.801 305.488C498.023 305.443 499.173 305.361 500.253 305.242L500.321 305.948C499.241 306.096 498.029 306.205 496.685 306.276V308.171H495.632V306.315C494.816 306.341 493.938 306.354 492.997 306.354H492.393L492.257 305.551H492.968ZM493.205 303.028C493.205 302.657 493.329 302.335 493.577 302.061C493.825 301.784 494.176 301.571 494.631 301.423C495.089 301.274 495.622 301.2 496.231 301.2C496.83 301.2 497.357 301.274 497.812 301.423C498.266 301.571 498.618 301.784 498.866 302.061C499.117 302.335 499.244 302.657 499.248 303.028C499.244 303.401 499.117 303.725 498.866 303.999C498.618 304.273 498.266 304.483 497.812 304.628C497.361 304.773 496.834 304.845 496.231 304.845C495.619 304.845 495.085 304.773 494.631 304.628C494.176 304.483 493.825 304.275 493.577 304.004C493.329 303.73 493.205 303.405 493.205 303.028ZM494.123 308.568H502.322V311.081H495.225V312.174H502.728V312.977H494.172V310.337H501.259V309.341H494.123V308.568ZM494.22 303.028C494.217 303.24 494.297 303.429 494.462 303.593C494.626 303.758 494.86 303.885 495.163 303.975C495.469 304.065 495.825 304.11 496.231 304.11C496.631 304.11 496.98 304.065 497.28 303.975C497.583 303.885 497.817 303.758 497.981 303.593C498.149 303.429 498.232 303.24 498.232 303.028C498.232 302.815 498.149 302.626 497.981 302.462C497.817 302.298 497.583 302.17 497.28 302.08C496.98 301.99 496.631 301.945 496.231 301.945C495.825 301.945 495.469 301.99 495.163 302.08C494.86 302.17 494.626 302.298 494.462 302.462C494.297 302.626 494.217 302.815 494.22 303.028Z" fill="#09101D"/>
<path d="M543.5 244C543.5 239.582 547.082 236 551.5 236H553.5C557.918 236 561.5 239.582 561.5 244V285H543.5V244Z" fill="#BE7346"/>
<path d="M546.45 312.135C545.763 312.135 545.152 312.018 544.617 311.782C544.082 311.547 543.667 311.22 543.37 310.801C543.074 310.379 542.927 309.902 542.93 309.37C542.927 308.954 543.014 308.566 543.191 308.205C543.369 307.841 543.61 307.541 543.916 307.306C544.226 307.067 544.567 306.918 544.941 306.856V306.808C544.619 306.731 544.334 306.586 544.086 306.373C543.837 306.16 543.646 305.899 543.51 305.59C543.375 305.28 543.307 304.948 543.307 304.594C543.307 304.094 543.443 303.645 543.713 303.245C543.984 302.846 544.358 302.533 544.835 302.307C545.315 302.078 545.853 301.964 546.45 301.964C547.043 301.964 547.576 302.078 548.05 302.307C548.527 302.533 548.901 302.846 549.171 303.245C549.442 303.645 549.579 304.094 549.582 304.594C549.579 304.948 549.508 305.28 549.369 305.59C549.234 305.899 549.042 306.16 548.794 306.373C548.549 306.586 548.267 306.731 547.948 306.808V306.856C548.319 306.918 548.657 307.067 548.963 307.306C549.273 307.541 549.516 307.841 549.693 308.205C549.874 308.566 549.966 308.954 549.969 309.37C549.966 309.902 549.814 310.379 549.514 310.801C549.215 311.22 548.797 311.547 548.262 311.782C547.731 312.018 547.126 312.135 546.45 312.135ZM544.158 309.302C544.152 309.651 544.24 309.957 544.424 310.221C544.608 310.482 544.874 310.687 545.222 310.835C545.57 310.98 545.979 311.052 546.45 311.052C546.914 311.052 547.318 310.98 547.663 310.835C548.008 310.687 548.274 310.482 548.461 310.221C548.648 309.957 548.741 309.651 548.741 309.302C548.741 308.942 548.641 308.618 548.441 308.331C548.245 308.044 547.972 307.818 547.624 307.654C547.276 307.49 546.885 307.407 546.45 307.407C546.011 307.407 545.616 307.49 545.265 307.654C544.914 307.818 544.64 308.046 544.443 308.336C544.247 308.622 544.152 308.945 544.158 309.302ZM544.506 304.681C544.506 305.013 544.588 305.306 544.753 305.561C544.917 305.815 545.146 306.014 545.439 306.155C545.736 306.294 546.072 306.363 546.45 306.363C546.82 306.363 547.152 306.294 547.445 306.155C547.739 306.014 547.968 305.815 548.132 305.561C548.299 305.303 548.383 305.01 548.383 304.681C548.383 304.355 548.301 304.069 548.137 303.82C547.976 303.569 547.748 303.374 547.455 303.235C547.165 303.097 546.83 303.028 546.45 303.028C546.063 303.028 545.721 303.097 545.425 303.235C545.131 303.374 544.904 303.569 544.743 303.82C544.585 304.069 544.506 304.355 544.506 304.681ZM561.205 308.133H560.122V307.456H557.666V306.75H560.122V300.968H561.205V308.133ZM551.851 305.551C553.188 305.551 554.466 305.53 555.684 305.488C556.906 305.443 558.056 305.361 559.136 305.242L559.204 305.948C558.124 306.096 556.912 306.205 555.568 306.276V308.171H554.514V306.315C553.699 306.341 552.821 306.354 551.88 306.354H551.275L551.14 305.551H551.851ZM552.088 303.028C552.088 302.657 552.212 302.335 552.46 302.061C552.708 301.784 553.059 301.571 553.514 301.423C553.971 301.274 554.505 301.2 555.114 301.2C555.713 301.2 556.24 301.274 556.695 301.423C557.149 301.571 557.5 301.784 557.748 302.061C558 302.335 558.127 302.657 558.13 303.028C558.127 303.401 558 303.725 557.748 303.999C557.5 304.273 557.149 304.483 556.695 304.628C556.243 304.773 555.716 304.845 555.114 304.845C554.501 304.845 553.968 304.773 553.514 304.628C553.059 304.483 552.708 304.275 552.46 304.004C552.212 303.73 552.088 303.405 552.088 303.028ZM553.006 308.568H561.205V311.081H554.108V312.174H561.611V312.977H553.054V310.337H560.141V309.341H553.006V308.568ZM553.103 303.028C553.1 303.24 553.18 303.429 553.344 303.593C553.509 303.758 553.743 303.885 554.045 303.975C554.352 304.065 554.708 304.11 555.114 304.11C555.513 304.11 555.863 304.065 556.163 303.975C556.466 303.885 556.699 303.758 556.864 303.593C557.031 303.429 557.115 303.24 557.115 303.028C557.115 302.815 557.031 302.626 556.864 302.462C556.699 302.298 556.466 302.17 556.163 302.08C555.863 301.99 555.513 301.945 555.114 301.945C554.708 301.945 554.352 301.99 554.045 302.08C553.743 302.17 553.509 302.298 553.344 302.462C553.18 302.626 553.1 302.815 553.103 303.028Z" fill="#09101D"/>
<path d="M602.5 231C602.5 226.582 606.082 223 610.5 223H612.5C616.918 223 620.5 226.582 620.5 231V285H602.5V231Z" fill="#BE7346"/>
<path d="M605.382 301.964C607.084 301.983 608.979 303.008 608.979 306.653C608.979 310.173 607.538 312.135 605.218 312.135C603.478 312.135 602.25 311.072 601.998 309.496H603.217C603.439 310.385 604.116 311.043 605.218 311.043C606.833 311.043 607.819 309.651 607.828 307.243H607.693C607.123 308.065 606.214 308.558 605.16 308.558C603.391 308.558 601.921 307.195 601.921 305.28C601.921 303.443 603.275 301.945 605.382 301.964ZM603.12 305.271C603.12 306.499 604.048 307.475 605.344 307.475C606.63 307.475 607.635 306.412 607.635 305.251C607.635 304.11 606.688 303.047 605.382 303.047C604.087 303.047 603.11 304.052 603.12 305.271ZM620.253 300.968V308.133H619.17V307.456H616.714V306.75H619.17V300.968H620.253ZM610.188 305.551C612.547 305.561 615.554 305.532 618.184 305.242L618.251 305.948C617.062 306.112 615.825 306.213 614.616 306.276V308.171H613.562V306.315C612.412 306.354 611.309 306.358 610.323 306.354L610.188 305.551ZM611.135 303.028C611.135 301.906 612.325 301.2 614.162 301.2C615.97 301.2 617.169 301.906 617.178 303.028C617.169 304.169 615.97 304.845 614.162 304.845C612.325 304.845 611.135 304.169 611.135 303.028ZM612.054 309.341V308.568H620.253V311.081H613.156V312.174H620.659V312.977H612.102V310.337H619.189V309.341H612.054ZM612.151 303.028C612.141 303.675 612.934 304.11 614.162 304.11C615.37 304.11 616.163 303.675 616.163 303.028C616.163 302.38 615.37 301.945 614.162 301.945C612.934 301.945 612.141 302.38 612.151 303.028Z" fill="#09101D"/>
<path d="M664.5 222C664.5 217.582 668.082 214 672.5 214H674.5C678.918 214 682.5 217.582 682.5 222V285H664.5V222Z" fill="#BE7346"/>
<path d="M664.639 302.099V312H663.402V303.385H663.344L660.936 304.981V303.743L663.402 302.099H664.639ZM670.517 312.135C668.322 312.135 667.055 310.289 667.055 307.05C667.055 303.84 668.341 301.964 670.517 301.964C672.692 301.964 673.978 303.84 673.978 307.05C673.978 310.289 672.711 312.135 670.517 312.135ZM668.254 307.05C668.254 309.612 669.086 311.043 670.517 311.043C671.948 311.043 672.779 309.612 672.779 307.05C672.779 304.488 671.938 303.037 670.517 303.037C669.095 303.037 668.254 304.488 668.254 307.05ZM685.199 300.968V308.133H684.116V307.456H681.66V306.75H684.116V300.968H685.199ZM675.134 305.551C677.493 305.561 680.5 305.532 683.13 305.242L683.198 305.948C682.009 306.112 680.771 306.213 679.562 306.276V308.171H678.509V306.315C677.358 306.354 676.256 306.358 675.27 306.354L675.134 305.551ZM676.082 303.028C676.082 301.906 677.271 301.2 679.108 301.2C680.916 301.2 682.115 301.906 682.125 303.028C682.115 304.169 680.916 304.845 679.108 304.845C677.271 304.845 676.082 304.169 676.082 303.028ZM677 309.341V308.568H685.199V311.081H678.102V312.174H685.605V312.977H677.049V310.337H684.136V309.341H677ZM677.097 303.028C677.087 303.675 677.88 304.11 679.108 304.11C680.317 304.11 681.109 303.675 681.109 303.028C681.109 302.38 680.317 301.945 679.108 301.945C677.88 301.945 677.087 302.38 677.097 303.028Z" fill="#09101D"/>
<path d="M728.5 208C728.5 203.582 732.082 200 736.5 200H738.5C742.918 200 746.5 203.582 746.5 208V285H728.5V208Z" fill="#BE7346"/>
<path d="M729.74 312H728.502V303.385H728.444L726.037 304.981V303.743L728.502 302.099H729.74V312ZM735.878 312H734.641V303.385H734.583L732.175 304.981V303.743L734.641 302.099H735.878V312ZM748.099 308.133H747.016V307.456H744.56V306.75H747.016V300.968H748.099V308.133ZM738.744 305.551C740.082 305.551 741.36 305.53 742.578 305.488C743.799 305.443 744.95 305.361 746.029 305.242L746.097 305.948C745.018 306.096 743.806 306.205 742.462 306.276V308.171H741.408V306.315C740.593 306.341 739.714 306.354 738.773 306.354H738.169L738.034 305.551H738.744ZM738.981 303.028C738.981 302.657 739.105 302.335 739.353 302.061C739.602 301.784 739.953 301.571 740.407 301.423C740.865 301.274 741.398 301.2 742.007 301.2C742.607 301.2 743.134 301.274 743.588 301.423C744.043 301.571 744.394 301.784 744.642 302.061C744.893 302.335 745.021 302.657 745.024 303.028C745.021 303.401 744.893 303.725 744.642 303.999C744.394 304.273 744.043 304.483 743.588 304.628C743.137 304.773 742.61 304.845 742.007 304.845C741.395 304.845 740.862 304.773 740.407 304.628C739.953 304.483 739.602 304.275 739.353 304.004C739.105 303.73 738.981 303.405 738.981 303.028ZM739.9 308.568H748.099V311.081H741.002V312.174H748.505V312.977H739.948V310.337H747.035V309.341H739.9V308.568ZM739.996 303.028C739.993 303.24 740.074 303.429 740.238 303.593C740.402 303.758 740.636 303.885 740.939 303.975C741.245 304.065 741.601 304.11 742.007 304.11C742.407 304.11 742.757 304.065 743.056 303.975C743.359 303.885 743.593 303.758 743.757 303.593C743.925 303.429 744.009 303.24 744.009 303.028C744.009 302.815 743.925 302.626 743.757 302.462C743.593 302.298 743.359 302.17 743.056 302.08C742.757 301.99 742.407 301.945 742.007 301.945C741.601 301.945 741.245 301.99 740.939 302.08C740.636 302.17 740.402 302.298 740.238 302.462C740.074 302.626 739.993 302.815 739.996 303.028Z" fill="#09101D"/>
<path d="M792.5 244C792.5 239.582 796.082 236 800.5 236H802.5C806.918 236 810.5 239.582 810.5 244V285H792.5V244Z" fill="#BE7346"/>
<path d="M792.701 312H791.463V303.385H791.405L788.998 304.981V303.743L791.463 302.099H792.701V312ZM795.33 311.101L798.704 307.543C799.149 307.069 799.487 306.689 799.719 306.402C799.954 306.112 800.133 305.833 800.256 305.566C800.378 305.295 800.441 305.013 800.444 304.72C800.441 304.384 800.352 304.09 800.178 303.835C800.008 303.58 799.772 303.384 799.473 303.245C799.176 303.107 798.843 303.037 798.472 303.037C798.085 303.037 797.745 303.115 797.452 303.269C797.162 303.424 796.938 303.642 796.78 303.922C796.625 304.202 796.548 304.526 796.548 304.894H795.378C795.375 304.32 795.509 303.812 795.779 303.371C796.053 302.926 796.429 302.581 796.906 302.336C797.383 302.088 797.918 301.964 798.511 301.964C799.097 301.964 799.624 302.087 800.091 302.331C800.562 302.573 800.929 302.904 801.194 303.323C801.458 303.741 801.592 304.207 801.595 304.72C801.592 305.097 801.521 305.458 801.382 305.802C801.247 306.144 801.016 306.524 800.691 306.943C800.369 307.362 799.909 307.878 799.313 308.49L797.051 310.83V310.907H801.769V312H795.339L795.33 311.101ZM813.138 308.133H812.055V307.456H809.599V306.75H812.055V300.968H813.138V308.133ZM803.783 305.551C805.121 305.551 806.399 305.53 807.617 305.488C808.838 305.443 809.989 305.361 811.069 305.242L811.136 305.948C810.057 306.096 808.845 306.205 807.501 306.276V308.171H806.447V306.315C805.632 306.341 804.753 306.354 803.812 306.354H803.208L803.073 305.551H803.783ZM804.02 303.028C804.02 302.657 804.144 302.335 804.392 302.061C804.641 301.784 804.992 301.571 805.446 301.423C805.904 301.274 806.437 301.2 807.046 301.2C807.646 301.2 808.173 301.274 808.627 301.423C809.082 301.571 809.433 301.784 809.681 302.061C809.932 302.335 810.06 302.657 810.063 303.028C810.06 303.401 809.932 303.725 809.681 303.999C809.433 304.273 809.082 304.483 808.627 304.628C808.176 304.773 807.649 304.845 807.046 304.845C806.434 304.845 805.901 304.773 805.446 304.628C804.992 304.483 804.641 304.275 804.392 304.004C804.144 303.73 804.02 303.405 804.02 303.028ZM804.939 308.568H813.138V311.081H806.041V312.174H813.544V312.977H804.987V310.337H812.074V309.341H804.939V308.568ZM805.035 303.028C805.032 303.24 805.113 303.429 805.277 303.593C805.441 303.758 805.675 303.885 805.978 303.975C806.284 304.065 806.64 304.11 807.046 304.11C807.446 304.11 807.796 304.065 808.095 303.975C808.398 303.885 808.632 303.758 808.796 303.593C808.964 303.429 809.048 303.24 809.048 303.028C809.048 302.815 808.964 302.626 808.796 302.462C808.632 302.298 808.398 302.17 808.095 302.08C807.796 301.99 807.446 301.945 807.046 301.945C806.64 301.945 806.284 301.99 805.978 302.08C805.675 302.17 805.441 302.298 805.277 302.462C805.113 302.626 805.032 302.815 805.035 303.028Z" fill="#09101D"/>
<defs>
<filter id="filter0_ddd_189_13949" x="84" y="0" width="788" height="300" filterUnits="userSpaceOnUse" color-interpolation-filters="sRGB">
<feFlood flood-opacity="0" result="BackgroundImageFix"/>
<feColorMatrix in="SourceAlpha" type="matrix" values="0 0 0 0 0 0 0 0 0 0 0 0 0 0 0 0 0 0 127 0" result="hardAlpha"/>
<feOffset dx="5" dy="5"/>
<feGaussianBlur stdDeviation="5"/>
<feComposite in2="hardAlpha" operator="out"/>
<feColorMatrix type="matrix" values="0 0 0 0 0.545098 0 0 0 0 0.54902 0 0 0 0 0.627451 0 0 0 0.25 0"/>
<feBlend mode="multiply" in2="BackgroundImageFix" result="effect1_dropShadow_189_13949"/>
<feColorMatrix in="SourceAlpha" type="matrix" values="0 0 0 0 0 0 0 0 0 0 0 0 0 0 0 0 0 0 127 0" result="hardAlpha"/>
<feOffset dx="2" dy="2"/>
<feGaussianBlur stdDeviation="2.5"/>
<feComposite in2="hardAlpha" operator="out"/>
<feColorMatrix type="matrix" values="0 0 0 0 0.545098 0 0 0 0 0.54902 0 0 0 0 0.627451 0 0 0 0.1 0"/>
<feBlend mode="multiply" in2="effect1_dropShadow_189_13949" result="effect2_dropShadow_189_13949"/>
<feColorMatrix in="SourceAlpha" type="matrix" values="0 0 0 0 0 0 0 0 0 0 0 0 0 0 0 0 0 0 127 0" result="hardAlpha"/>
<feOffset dx="-1" dy="-1"/>
<feGaussianBlur stdDeviation="1"/>
<feComposite in2="hardAlpha" operator="out"/>
<feColorMatrix type="matrix" values="0 0 0 0 1 0 0 0 0 1 0 0 0 0 1 0 0 0 0.25 0"/>
<feBlend mode="soft-light" in2="effect2_dropShadow_189_13949" result="effect3_dropShadow_189_13949"/>
<feBlend mode="normal" in="SourceGraphic" in2="effect3_dropShadow_189_13949" result="shape"/>
</filter>
</defs>
</svg>
