<svg width="348" height="192" viewBox="0 0 348 192" fill="none" xmlns="http://www.w3.org/2000/svg">
<g filter="url(#filter0_ddd_189_13373)">
<rect x="34.9492" y="3.2998" width="303.75" height="170.1" rx="12" fill="#F6F6F6"/>
</g>
<g opacity="0.5">
<line x1="41.0234" y1="24.2583" x2="332.623" y2="24.2583" stroke="#B1B7BD" stroke-width="0.6075"/>
<line x1="41.0234" y1="49.7734" x2="332.623" y2="49.7734" stroke="#B1B7BD" stroke-width="0.6075"/>
<line x1="41.0234" y1="75.288" x2="332.623" y2="75.288" stroke="#B1B7BD" stroke-width="0.6075"/>
<line x1="41.0234" y1="100.803" x2="332.623" y2="100.803" stroke="#B1B7BD" stroke-width="0.6075"/>
<line x1="41.0234" y1="126.318" x2="332.623" y2="126.318" stroke="#B1B7BD" stroke-width="0.6075"/>
<line x1="41.0234" y1="151.833" x2="332.623" y2="151.833" stroke="#B1B7BD" stroke-width="0.6075"/>
</g>
<path d="M49.1602 95.0324C49.1602 92.3483 51.3361 90.1724 54.0202 90.1724H55.2352C57.9193 90.1724 60.0952 92.3483 60.0952 95.0324V173.4H49.1602V95.0324Z" fill="#FF8F43"/>
<path d="M45.5019 183.385C45.5002 184.036 45.4096 184.64 45.23 185.195C45.0521 185.751 44.75 186.268 44.3238 186.748C43.8992 187.228 43.3286 187.648 42.612 188.007L42.2949 187.579C42.8638 187.294 43.3345 186.971 43.707 186.61C44.0796 186.247 44.3666 185.848 44.5679 185.412L42.4157 185.615L42.31 185.127L44.7416 184.969C44.8524 184.631 44.922 184.258 44.9506 183.848H42.6322V183.385H45.5019ZM45.4817 185.268H46.9719V182.726H47.5257V189.054H46.9719V185.736H45.4817V185.268ZM53.8161 189.054H53.2573V182.726H53.8161V189.054ZM48.5752 187.005C48.9561 187.005 49.2498 187.003 49.4562 187V183.874H48.7413V183.41H52.3561V183.874H51.6412V186.919C52.0406 186.891 52.3897 186.859 52.6884 186.824L52.7186 187.242C52.106 187.337 51.47 187.401 50.8105 187.433C50.151 187.463 49.4277 187.48 48.6406 187.483L48.5752 187.005ZM49.9999 186.99C50.3641 186.982 50.7283 186.969 51.0924 186.952V183.874H49.9999V186.99ZM60.1014 187.539H59.5376V186.879H58.2336V186.471H59.5376V182.731H60.1014V187.539ZM54.8504 185.661C55.6862 185.657 56.4321 185.645 57.0883 185.623C57.7461 185.6 58.3729 185.55 58.9687 185.475L59.0089 185.882C58.4837 185.966 57.903 186.027 57.267 186.066V187.317H56.7082V186.094C56.2769 186.111 55.7852 186.119 55.233 186.119H54.9259L54.8504 185.661ZM55.3589 184.09C55.3589 183.872 55.4244 183.68 55.5553 183.514C55.6862 183.346 55.8708 183.217 56.1091 183.126C56.3474 183.034 56.6209 182.987 56.9297 182.987C57.2351 182.987 57.5061 183.034 57.7428 183.126C57.9794 183.217 58.1631 183.346 58.294 183.514C58.4266 183.68 58.4937 183.872 58.4954 184.09C58.4937 184.312 58.4266 184.505 58.294 184.672C58.1631 184.836 57.9794 184.964 57.7428 185.054C57.5078 185.143 57.2368 185.188 56.9297 185.188C56.6192 185.188 56.3448 185.143 56.1065 185.054C55.8699 184.965 55.6862 184.838 55.5553 184.672C55.4244 184.505 55.3589 184.312 55.3589 184.09ZM55.7617 187.065H56.3205V188.45H60.2575V188.913H55.7617V187.065ZM55.8926 184.09C55.8909 184.226 55.9328 184.345 56.0184 184.447C56.1057 184.55 56.2282 184.63 56.386 184.687C56.5437 184.742 56.7249 184.77 56.9297 184.77C57.1277 184.77 57.3048 184.742 57.4608 184.687C57.6169 184.63 57.7386 184.55 57.8258 184.447C57.9148 184.345 57.9601 184.226 57.9618 184.09C57.9601 183.956 57.9148 183.837 57.8258 183.735C57.7386 183.631 57.6169 183.55 57.4608 183.493C57.3048 183.436 57.1277 183.409 56.9297 183.41C56.7249 183.409 56.5437 183.436 56.386 183.493C56.2282 183.55 56.1057 183.631 56.0184 183.735C55.9328 183.837 55.8909 183.956 55.8926 184.09ZM66.2357 185.545H61.9816V183.098H66.1502V183.561H62.5505V185.092H66.2357V185.545ZM61.176 186.381H66.9708V186.839H64.3327V189.034H63.7839V186.839H61.176V186.381Z" fill="#09101D"/>
<path d="M82.5938 101.107C82.5938 98.423 84.7696 96.2471 87.4538 96.2471H88.6687C91.3529 96.2471 93.5288 98.423 93.5288 101.107V173.4H82.5938V101.107Z" fill="#FFDDC7"/>
<path d="M84.6382 185.399V185.852H82.0253V186.481H83.8931V187.896H80.1323V188.54H84.0844V188.983H79.5835V187.478H83.3443V186.914H79.5684V186.481H81.4664V185.852H78.8686V185.399H84.6382ZM79.6187 184.865V182.937H83.888V184.865H79.6187ZM80.1675 184.417H83.3292V183.385H80.1675V184.417ZM88.658 183.299V183.767H86.1306V185.081H88.4314V185.534H86.1306V187.065C87.3112 187.065 88.1218 187.022 89.0909 186.859L89.1514 187.322C88.1495 187.488 87.2986 187.523 86.0803 187.528H85.5768V183.299H88.658ZM89.8411 189.054V182.725H90.3999V189.054H89.8411ZM97.2542 186.345V186.808H95.779V189.099H95.2202V186.808H93.5085V189.099H92.9496V186.808H91.4594V186.345H97.2542ZM91.7665 185.157C92.9043 184.991 94.0673 184.225 94.0673 183.314V182.952H94.6463V183.314C94.6463 184.21 95.8193 184.996 96.9471 185.157L96.7205 185.62C95.7388 185.446 94.7671 184.895 94.3593 184.112C93.9565 184.9 92.9874 185.446 91.9981 185.62L91.7665 185.157Z" fill="#09101D"/>
<path d="M116.031 167.325C116.031 164.641 118.207 162.465 120.891 162.465H122.106C124.79 162.465 126.966 164.641 126.966 167.325V173.4H116.031V167.325Z" fill="#BE7346"/>
<path d="M112.549 183.385C112.547 184.036 112.455 184.641 112.272 185.2C112.091 185.757 111.782 186.276 111.346 186.758C110.911 187.239 110.327 187.659 109.594 188.016L109.287 187.573C109.866 187.295 110.345 186.976 110.724 186.617C111.105 186.256 111.399 185.856 111.605 185.416L109.403 185.625L109.312 185.127L111.784 184.963C111.895 184.617 111.964 184.246 111.993 183.848H109.629V183.385H112.549ZM113.828 182.725H114.387V189.054H113.828V182.725ZM120.682 187.407H120.123V182.73H120.682V187.407ZM115.587 186.199C115.901 186.095 116.18 185.942 116.423 185.741C116.668 185.539 116.858 185.305 116.994 185.039C117.13 184.772 117.198 184.492 117.198 184.2V184.034H115.738V183.581H117.198V182.755H117.762V183.581H119.207V184.034H117.752V184.2C117.752 184.476 117.821 184.739 117.958 184.991C118.098 185.241 118.291 185.461 118.537 185.65C118.784 185.838 119.064 185.981 119.378 186.078L119.101 186.526C118.729 186.405 118.402 186.223 118.12 185.98C117.839 185.737 117.628 185.451 117.485 185.124C117.348 185.477 117.138 185.784 116.856 186.048C116.574 186.311 116.245 186.508 115.869 186.637L115.587 186.199ZM116.594 186.969H117.153V188.449H120.879V188.913H116.594V186.969ZM125.004 183.767H122.598V185.081H124.863V185.534H122.598V187.065C123.203 187.063 123.723 187.048 124.156 187.02C124.59 186.991 125.034 186.937 125.487 186.859L125.548 187.322C125.081 187.401 124.624 187.454 124.176 187.483C123.728 187.51 123.18 187.525 122.532 187.528H122.034V183.299H125.004V183.767ZM126.097 182.725H126.655V185.268H127.713V185.746H126.655V189.054H126.097V182.725ZM130.937 182.801C131.405 182.801 131.806 182.843 132.14 182.929C132.476 183.013 132.732 183.137 132.908 183.302C133.084 183.466 133.172 183.665 133.172 183.898C133.172 184.118 133.095 184.307 132.941 184.465C132.786 184.622 132.562 184.746 132.269 184.835C131.975 184.924 131.62 184.977 131.204 184.996V185.474H133.827V185.932H128.057V185.474H130.655V184.993C130.242 184.975 129.889 184.921 129.595 184.832C129.303 184.743 129.08 184.62 128.926 184.462C128.773 184.304 128.697 184.116 128.697 183.898C128.697 183.665 128.785 183.466 128.961 183.302C129.139 183.137 129.395 183.013 129.729 182.929C130.064 182.843 130.467 182.801 130.937 182.801ZM128.757 186.466H133.082V187.886H129.321V188.54H133.273V188.983H128.772V187.473H132.533V186.904H128.757V186.466ZM129.281 183.898C129.279 184.041 129.343 184.163 129.472 184.263C129.603 184.364 129.792 184.44 130.041 184.492C130.289 184.544 130.588 184.571 130.937 184.573C131.288 184.571 131.587 184.544 131.836 184.492C132.086 184.44 132.276 184.364 132.407 184.263C132.538 184.163 132.603 184.041 132.603 183.898C132.603 183.759 132.537 183.64 132.405 183.541C132.274 183.442 132.083 183.365 131.833 183.312C131.585 183.258 131.286 183.23 130.937 183.229C130.59 183.23 130.292 183.258 130.043 183.312C129.795 183.365 129.605 183.443 129.474 183.543C129.344 183.642 129.279 183.761 129.281 183.898Z" fill="#09101D"/>
<path d="M146.465 122.37C146.465 119.686 148.641 117.51 151.325 117.51H152.54C155.224 117.51 157.4 119.686 157.4 122.37V173.4H146.465V122.37Z" fill="#FF8F43"/>
<path d="M151.675 186.823H149.036V189.054H148.488V186.823H145.88V186.35H151.675V186.823ZM146.539 184.371C146.539 184.09 146.632 183.844 146.816 183.634C147.003 183.424 147.264 183.263 147.599 183.151C147.935 183.036 148.323 182.979 148.765 182.977C149.206 182.979 149.594 183.036 149.93 183.151C150.267 183.263 150.529 183.424 150.716 183.634C150.902 183.844 150.995 184.09 150.995 184.371C150.995 184.65 150.902 184.893 150.716 185.101C150.529 185.31 150.267 185.47 149.93 185.582C149.594 185.695 149.206 185.751 148.765 185.751C148.323 185.751 147.935 185.695 147.599 185.582C147.264 185.47 147.003 185.31 146.816 185.101C146.632 184.893 146.539 184.65 146.539 184.371ZM147.113 184.371C147.112 184.558 147.18 184.721 147.317 184.86C147.455 184.999 147.649 185.107 147.899 185.185C148.149 185.26 148.437 185.298 148.765 185.298C149.092 185.298 149.381 185.26 149.631 185.185C149.881 185.107 150.074 184.999 150.212 184.86C150.351 184.721 150.421 184.558 150.421 184.371C150.421 184.184 150.351 184.019 150.212 183.878C150.074 183.737 149.881 183.628 149.631 183.551C149.381 183.474 149.092 183.435 148.765 183.435C148.437 183.435 148.149 183.474 147.899 183.551C147.649 183.628 147.455 183.737 147.317 183.878C147.18 184.019 147.112 184.184 147.113 184.371ZM157.975 186.793H156.45V189.054H155.886V186.793H154.26V189.054H153.686V186.793H152.18V186.33H157.975V186.793ZM152.84 184.361C152.84 184.083 152.932 183.839 153.117 183.631C153.303 183.423 153.564 183.263 153.9 183.151C154.235 183.036 154.624 182.979 155.065 182.977C155.506 182.979 155.895 183.036 156.231 183.151C156.568 183.263 156.83 183.423 157.016 183.631C157.202 183.839 157.295 184.083 157.295 184.361C157.295 184.638 157.202 184.88 157.016 185.086C156.83 185.293 156.568 185.451 156.231 185.562C155.895 185.673 155.506 185.727 155.065 185.726C154.625 185.727 154.237 185.673 153.9 185.562C153.564 185.451 153.303 185.293 153.117 185.086C152.932 184.88 152.84 184.638 152.84 184.361ZM153.414 184.361C153.412 184.546 153.48 184.707 153.618 184.845C153.755 184.982 153.949 185.089 154.199 185.164C154.449 185.24 154.738 185.278 155.065 185.278C155.392 185.278 155.681 185.24 155.931 185.164C156.181 185.089 156.375 184.982 156.512 184.845C156.652 184.707 156.721 184.546 156.721 184.361C156.721 184.175 156.652 184.012 156.512 183.873C156.375 183.734 156.181 183.626 155.931 183.551C155.681 183.474 155.392 183.435 155.065 183.435C154.738 183.435 154.449 183.474 154.199 183.551C153.949 183.626 153.755 183.734 153.618 183.873C153.48 184.012 153.412 184.175 153.414 184.361Z" fill="#09101D"/>
<path d="M170.398 81.0597C170.398 78.3756 172.574 76.1997 175.258 76.1997H176.473C179.158 76.1997 181.333 78.3756 181.333 81.0597V173.4H170.398V81.0597Z" fill="#BE7346"/>
<path d="M172.074 184.427C172.072 184.801 172.149 185.173 172.303 185.542C172.457 185.911 172.666 186.239 172.927 186.526C173.191 186.812 173.477 187.025 173.786 187.166L173.443 187.609C173.205 187.491 172.979 187.333 172.766 187.135C172.553 186.936 172.363 186.705 172.197 186.443C172.031 186.181 171.899 185.902 171.8 185.605C171.702 185.92 171.57 186.217 171.404 186.496C171.24 186.773 171.049 187.018 170.833 187.231C170.616 187.444 170.386 187.612 170.141 187.735L169.788 187.266C170.1 187.122 170.388 186.902 170.652 186.607C170.915 186.31 171.124 185.97 171.278 185.587C171.435 185.205 171.513 184.818 171.515 184.427V183.274H172.074V184.427ZM174.48 182.725H175.039V189.064H174.48V182.725ZM181.37 186.204H180.811V184.512H179.603V184.044H180.811V182.73H181.37V186.204ZM176.381 182.992H179.2V184.699H176.95V185.575C177.52 185.573 178.014 185.56 178.43 185.534C178.848 185.509 179.281 185.461 179.729 185.388L179.774 185.852C179.307 185.925 178.856 185.975 178.42 186C177.985 186.025 177.47 186.038 176.874 186.038H176.396V184.266H178.656V183.45H176.381V182.992ZM177.227 186.506H177.785V187.276H180.816V186.506H181.37V188.968H177.227V186.506ZM180.816 188.51V187.724H177.785V188.51H180.816Z" fill="#09101D"/>
<path d="M197.336 116.902C197.336 114.218 199.512 112.042 202.196 112.042H203.411C206.095 112.042 208.271 114.218 208.271 116.902V173.399H197.336V116.902Z" fill="#FF8F43"/>
<path d="M196.767 185.877H199.38V186.34H193.611V185.877H196.219V184.971H196.767V185.877ZM193.933 184.845C194.306 184.804 194.658 184.721 194.99 184.593C195.323 184.464 195.593 184.303 195.801 184.11C196.009 183.915 196.12 183.704 196.133 183.475H194.139V183.022H198.862V183.475H196.858C196.87 183.702 196.979 183.912 197.185 184.107C197.393 184.302 197.664 184.464 197.996 184.593C198.33 184.721 198.684 184.804 199.058 184.845L198.852 185.288C198.499 185.244 198.165 185.165 197.847 185.051C197.532 184.937 197.256 184.791 197.019 184.613C196.783 184.435 196.608 184.233 196.496 184.006C196.381 184.233 196.206 184.435 195.969 184.613C195.733 184.791 195.457 184.937 195.141 185.051C194.826 185.165 194.492 185.244 194.139 185.288L193.933 184.845ZM194.306 187.951C194.306 187.718 194.392 187.52 194.565 187.357C194.738 187.194 194.988 187.071 195.315 186.987C195.642 186.901 196.034 186.859 196.491 186.859C196.945 186.859 197.336 186.901 197.661 186.987C197.987 187.071 198.236 187.194 198.409 187.357C198.582 187.52 198.669 187.718 198.67 187.951C198.669 188.183 198.582 188.38 198.409 188.543C198.236 188.705 197.987 188.829 197.661 188.913C197.336 188.997 196.945 189.038 196.491 189.038C196.034 189.038 195.642 188.997 195.315 188.913C194.988 188.829 194.738 188.705 194.565 188.543C194.392 188.38 194.306 188.183 194.306 187.951ZM194.874 187.951C194.873 188.089 194.936 188.206 195.063 188.303C195.191 188.401 195.375 188.475 195.617 188.525C195.86 188.577 196.152 188.602 196.491 188.6C196.828 188.602 197.117 188.577 197.359 188.525C197.602 188.475 197.788 188.401 197.915 188.303C198.045 188.206 198.11 188.089 198.112 187.951C198.11 187.813 198.045 187.696 197.915 187.599C197.788 187.5 197.602 187.425 197.359 187.375C197.117 187.323 196.828 187.297 196.491 187.297C196.152 187.297 195.86 187.323 195.617 187.375C195.375 187.425 195.191 187.5 195.063 187.599C194.936 187.696 194.873 187.813 194.874 187.951ZM205.127 189.064H204.568V182.725H205.127V189.064ZM200.148 185.419C200.148 184.977 200.216 184.59 200.352 184.258C200.489 183.926 200.681 183.669 200.926 183.488C201.171 183.307 201.45 183.215 201.764 183.214C202.076 183.215 202.354 183.307 202.597 183.488C202.842 183.669 203.033 183.927 203.171 184.261C203.31 184.593 203.38 184.979 203.38 185.419C203.38 185.86 203.31 186.248 203.171 186.582C203.033 186.916 202.842 187.173 202.597 187.354C202.352 187.534 202.074 187.624 201.764 187.624C201.45 187.624 201.171 187.534 200.926 187.354C200.681 187.173 200.489 186.916 200.352 186.584C200.216 186.25 200.148 185.862 200.148 185.419ZM200.687 185.419C200.687 185.758 200.732 186.056 200.822 186.315C200.913 186.573 201.04 186.773 201.203 186.914C201.367 187.055 201.554 187.125 201.764 187.125C201.974 187.125 202.159 187.055 202.32 186.914C202.483 186.773 202.61 186.573 202.7 186.315C202.791 186.056 202.836 185.758 202.836 185.419C202.836 185.081 202.791 184.784 202.7 184.528C202.61 184.269 202.483 184.069 202.32 183.928C202.159 183.786 201.974 183.714 201.764 183.712C201.554 183.714 201.367 183.786 201.203 183.928C201.04 184.069 200.913 184.269 200.822 184.528C200.732 184.784 200.687 185.081 200.687 185.419ZM211.458 186.194H210.899V184.835H209.494V184.377H210.899V182.725H211.458V186.194ZM208.744 184.208C208.833 183.991 208.888 183.764 208.908 183.526H206.665V183.068H209.504C209.501 183.88 209.26 184.566 208.782 185.127C208.304 185.687 207.579 186.112 206.609 186.4L206.383 185.947C207.4 185.652 208.111 185.211 208.517 184.623L206.443 184.779L206.348 184.316L208.744 184.208ZM207.365 186.516H207.913V187.276H210.904V186.516H211.458V188.968H207.365V186.516ZM210.904 188.51V187.724H207.913V188.51H210.904Z" fill="#09101D"/>
<path d="M230.77 140.595C230.77 137.911 232.945 135.735 235.63 135.735H236.845C239.529 135.735 241.705 137.911 241.705 140.595V173.4H230.77V140.595Z" fill="#FFDDC7"/>
<path d="M229.664 186.461H223.894V185.998H226.502V185.238H224.659V182.872H225.218V183.607H228.35V182.872H228.909V185.238H227.056V185.998H229.664V186.461ZM224.534 187.086H228.949V189.054H228.385V187.539H224.534V187.086ZM228.35 184.785V184.035H225.218V184.785H228.35ZM232.319 184.427C232.317 184.79 232.39 185.151 232.536 185.512C232.682 185.873 232.88 186.196 233.13 186.481C233.381 186.767 233.657 186.983 233.955 187.131L233.608 187.579C233.378 187.458 233.162 187.298 232.959 187.098C232.757 186.897 232.578 186.668 232.422 186.411C232.268 186.153 232.144 185.877 232.05 185.585C231.956 185.894 231.829 186.186 231.67 186.461C231.512 186.737 231.329 186.981 231.121 187.194C230.913 187.405 230.691 187.574 230.456 187.7L230.104 187.252C230.408 187.101 230.686 186.876 230.94 186.577C231.193 186.277 231.394 185.938 231.541 185.56C231.689 185.183 231.764 184.805 231.765 184.427V183.274H232.319V184.427ZM234.534 182.726H235.093V185.293H236.15V185.777H235.093V189.054H234.534V182.726ZM242.265 186.315H236.495V185.857H237.925V184.964C237.67 184.865 237.474 184.735 237.338 184.576C237.202 184.415 237.134 184.229 237.134 184.02C237.134 183.775 237.224 183.564 237.404 183.388C237.585 183.211 237.843 183.077 238.179 182.985C238.516 182.893 238.915 182.846 239.375 182.846C239.833 182.846 240.23 182.893 240.565 182.985C240.901 183.077 241.159 183.211 241.338 183.388C241.52 183.564 241.61 183.775 241.61 184.02C241.61 184.229 241.543 184.414 241.409 184.573C241.274 184.733 241.081 184.861 240.83 184.958V185.857H242.265V186.315ZM237.19 187.916C237.19 187.678 237.276 187.476 237.449 187.31C237.622 187.142 237.872 187.015 238.199 186.929C238.526 186.844 238.918 186.802 239.375 186.804C239.828 186.802 240.217 186.844 240.543 186.929C240.868 187.015 241.118 187.142 241.29 187.31C241.465 187.476 241.553 187.678 241.555 187.916C241.553 188.156 241.465 188.36 241.29 188.528C241.118 188.696 240.868 188.822 240.543 188.908C240.217 188.995 239.828 189.039 239.375 189.039C238.918 189.039 238.526 188.995 238.199 188.908C237.872 188.822 237.622 188.696 237.449 188.528C237.276 188.36 237.19 188.156 237.19 187.916ZM237.713 184.02C237.712 184.172 237.777 184.304 237.91 184.415C238.044 184.524 238.235 184.607 238.484 184.664C238.734 184.721 239.031 184.75 239.375 184.75C239.717 184.75 240.013 184.721 240.263 184.664C240.513 184.607 240.706 184.524 240.84 184.415C240.974 184.304 241.041 184.172 241.041 184.02C241.041 183.869 240.973 183.738 240.837 183.627C240.703 183.516 240.511 183.431 240.261 183.373C240.011 183.314 239.715 183.284 239.375 183.284C239.032 183.284 238.736 183.314 238.486 183.373C238.236 183.431 238.044 183.516 237.91 183.627C237.777 183.738 237.712 183.869 237.713 184.02ZM237.759 187.916C237.757 188.059 237.82 188.182 237.948 188.286C238.077 188.39 238.263 188.469 238.506 188.523C238.75 188.577 239.039 188.603 239.375 188.601C239.709 188.603 239.997 188.577 240.238 188.523C240.482 188.469 240.668 188.39 240.797 188.286C240.928 188.182 240.994 188.059 240.996 187.916C240.994 187.775 240.928 187.654 240.797 187.551C240.668 187.449 240.482 187.371 240.238 187.317C239.997 187.262 239.709 187.233 239.375 187.232C239.039 187.233 238.75 187.262 238.506 187.317C238.263 187.371 238.077 187.449 237.948 187.551C237.82 187.654 237.757 187.775 237.759 187.916ZM240.276 185.857V185.11C240.004 185.158 239.704 185.183 239.375 185.183C239.041 185.183 238.744 185.159 238.484 185.112V185.857H240.276ZM245.061 184.669C245.061 185.018 245.138 185.365 245.293 185.711C245.447 186.055 245.655 186.362 245.917 186.632C246.179 186.901 246.464 187.102 246.773 187.237L246.461 187.68C246.216 187.567 245.984 187.414 245.766 187.221C245.548 187.029 245.354 186.806 245.184 186.554C245.017 186.301 244.884 186.03 244.787 185.741C244.688 186.047 244.554 186.337 244.386 186.612C244.219 186.886 244.026 187.128 243.81 187.34C243.593 187.551 243.366 187.717 243.128 187.836L242.795 187.393C243.096 187.25 243.376 187.033 243.636 186.741C243.896 186.449 244.104 186.12 244.261 185.754C244.417 185.386 244.495 185.025 244.497 184.669V183.843H243.002V183.375H246.566V183.843H245.061V184.669ZM247.452 182.726H248.011V189.054H247.452V182.726Z" fill="#09101D"/>
<path d="M261.207 104.752C261.207 102.068 263.383 99.8921 266.067 99.8921H267.282C269.966 99.8921 272.142 102.068 272.142 104.752V173.4H261.207V104.752Z" fill="#BE7346"/>
<path d="M264.121 183.299V183.767H261.594V185.081H263.894V185.534H261.594V187.065C262.774 187.065 263.585 187.022 264.554 186.859L264.614 187.322C263.613 187.488 262.762 187.523 261.543 187.528H261.04V183.299H264.121ZM265.304 189.054V182.725H265.863V189.054H265.304ZM272.717 186.345V186.808H271.242V189.099H270.683V186.808H268.972V189.099H268.413V186.808H266.922V186.345H272.717ZM267.23 185.157C268.367 184.991 269.53 184.225 269.53 183.314V182.952H270.109V183.314C270.109 184.21 271.282 184.996 272.41 185.157L272.184 185.62C271.202 185.446 270.23 184.895 269.822 184.112C269.42 184.9 268.45 185.446 267.461 185.62L267.23 185.157Z" fill="#09101D"/>
<path d="M288.141 116.902C288.141 114.218 290.317 112.042 293.001 112.042H294.216C296.9 112.042 299.076 114.218 299.076 116.902V173.399H288.141V116.902Z" fill="#FF8F43"/>
<path d="M286.666 184.427C286.661 185.58 287.446 186.743 288.378 187.166L288.035 187.609C287.315 187.256 286.694 186.506 286.392 185.605C286.1 186.559 285.475 187.362 284.733 187.735L284.38 187.266C285.322 186.833 286.102 185.625 286.107 184.427V183.274H286.666V184.427ZM289.072 189.064V182.725H289.631V189.064H289.072ZM295.942 182.725V189.064H295.388V182.725H295.942ZM291.073 183.777V183.314H294.019V185.565H291.657V187.06C292.707 187.057 293.641 187.012 294.774 186.828L294.829 187.297C293.666 187.483 292.705 187.528 291.612 187.528H291.083V185.107H293.455V183.777H291.073ZM302.257 182.725V185.947H301.704V184.603H300.377C300.261 185.331 299.614 185.821 298.758 185.821C297.807 185.821 297.112 185.227 297.117 184.377C297.112 183.531 297.807 182.947 298.758 182.947C299.607 182.947 300.251 183.422 300.374 184.135H301.704V182.725H302.257ZM297.651 184.377C297.651 184.95 298.114 185.358 298.758 185.358C299.388 185.358 299.856 184.95 299.856 184.377C299.856 183.813 299.388 183.405 298.758 183.41C298.114 183.405 297.651 183.813 297.651 184.377ZM298.154 186.743V186.3H302.257V187.81H298.723V188.515H302.499V188.968H298.169V187.387H301.704V186.743H298.154Z" fill="#09101D"/>
<path d="M315.074 129.66C315.074 126.976 317.25 124.8 319.934 124.8H321.149C323.833 124.8 326.009 126.976 326.009 129.66V173.4H315.074V129.66Z" fill="#FFDDC7"/>
<path d="M317.656 183.657C317.656 184.002 317.772 184.335 318.003 184.656C318.235 184.976 318.532 185.248 318.894 185.472C319.257 185.695 319.624 185.842 319.997 185.912L319.735 186.38C319.411 186.305 319.093 186.181 318.781 186.01C318.469 185.839 318.188 185.628 317.938 185.378C317.69 185.127 317.499 184.851 317.366 184.55C317.234 184.849 317.043 185.124 316.795 185.376C316.547 185.626 316.266 185.837 315.952 186.01C315.64 186.181 315.322 186.305 314.998 186.38L314.741 185.912C315.114 185.84 315.479 185.693 315.838 185.472C316.199 185.248 316.495 184.977 316.725 184.658C316.954 184.338 317.07 184.004 317.072 183.657V183.168H317.656V183.657ZM314.499 187.724H320.294V188.193H314.499V187.724ZM326.016 183.48H325.044V184.961H325.995V185.414H321.359V184.961H322.315V183.48H321.338V183.022H326.016V183.48ZM320.79 186.073H326.584V186.536H324.007V187.76H323.453V186.536H320.79V186.073ZM321.535 187.14H322.094V188.449H325.94V188.913H321.535V187.14ZM324.485 184.961V183.48H322.869V184.961H324.485Z" fill="#09101D"/>
<path d="M3.03481 26.3429C2.69582 26.3429 2.39207 26.2859 2.12356 26.1718C1.85505 26.0577 1.64276 25.8974 1.48669 25.691C1.3323 25.4846 1.24923 25.2471 1.23748 24.9786H1.88693C1.89868 25.138 1.95574 25.2781 2.05811 25.399C2.16048 25.5181 2.29557 25.6104 2.46339 25.6759C2.63288 25.7413 2.82 25.774 3.02474 25.774C3.24961 25.774 3.45099 25.7363 3.62888 25.6608C3.80677 25.5836 3.94606 25.4762 4.04675 25.3386C4.14744 25.2009 4.19778 25.044 4.19778 24.8678C4.19778 24.6799 4.14828 24.5137 4.04926 24.3694C3.95193 24.2251 3.80929 24.1126 3.62133 24.0321C3.43337 23.9515 3.20766 23.9113 2.94419 23.9113H2.52632V23.3474H2.94419C3.15228 23.3474 3.33688 23.3105 3.49798 23.2366C3.66077 23.1628 3.78663 23.0596 3.87557 22.927C3.9662 22.7928 4.01151 22.6375 4.01151 22.4613C4.01151 22.2918 3.97207 22.1425 3.89319 22.0132C3.81432 21.884 3.70188 21.7842 3.55588 21.7137C3.40988 21.6415 3.23954 21.6055 3.04488 21.6055C2.86028 21.6055 2.68659 21.6382 2.5238 21.7036C2.3627 21.7691 2.2318 21.8631 2.13111 21.9856C2.03042 22.1064 1.97588 22.2482 1.96749 22.411H1.34824C1.35831 22.1458 1.44054 21.91 1.59493 21.7036C1.74932 21.4955 1.9549 21.3344 2.21166 21.2203C2.46842 21.1045 2.74952 21.0466 3.05494 21.0466C3.37212 21.0466 3.64986 21.1095 3.88816 21.2354C4.12814 21.3613 4.3119 21.5299 4.43944 21.7414C4.56866 21.9528 4.63243 22.1827 4.63075 22.4311C4.63243 22.6224 4.59803 22.797 4.52755 22.9547C4.45706 23.1125 4.35553 23.2459 4.22296 23.355C4.09038 23.464 3.93431 23.5437 3.75474 23.5941V23.6344C3.97626 23.6679 4.16758 23.7409 4.32868 23.8534C4.49146 23.9641 4.61565 24.1076 4.70124 24.2838C4.78682 24.4584 4.82878 24.6547 4.8271 24.8729C4.82878 25.1498 4.75158 25.4006 4.59551 25.6255C4.44112 25.8487 4.22631 26.0241 3.95109 26.1516C3.67755 26.2792 3.37212 26.3429 3.03481 26.3429ZM7.43845 26.3429C7.05918 26.3429 6.73445 26.2397 6.46427 26.0333C6.19576 25.8252 5.99018 25.5232 5.84754 25.1271C5.70657 24.7311 5.63609 24.2536 5.63609 23.6948C5.63609 23.141 5.70741 22.6661 5.85005 22.27C5.9927 21.8723 6.19911 21.5694 6.4693 21.3613C6.73949 21.1515 7.06254 21.0466 7.43845 21.0466C7.81436 21.0466 8.13741 21.1515 8.40759 21.3613C8.67778 21.5694 8.8842 21.8723 9.02684 22.27C9.16949 22.6661 9.24081 23.141 9.24081 23.6948C9.24081 24.2536 9.16949 24.7311 9.02684 25.1271C8.88587 25.5232 8.6803 25.8252 8.41011 26.0333C8.1416 26.2397 7.81772 26.3429 7.43845 26.3429ZM6.26037 23.6948C6.26037 24.1361 6.30652 24.5129 6.39882 24.825C6.49112 25.1355 6.62537 25.3713 6.80158 25.5324C6.97779 25.6935 7.19008 25.774 7.43845 25.774C7.68682 25.774 7.89911 25.6935 8.07532 25.5324C8.25152 25.3713 8.38578 25.1355 8.47808 24.825C8.57038 24.5129 8.61653 24.1361 8.61653 23.6948C8.61653 23.2534 8.56954 22.8767 8.47556 22.5645C8.38326 22.2507 8.24901 22.0124 8.0728 21.8496C7.89659 21.6868 7.68514 21.6055 7.43845 21.6055C7.19176 21.6055 6.98031 21.6868 6.8041 21.8496C6.62789 22.0124 6.49279 22.2507 6.39882 22.5645C6.30652 22.8767 6.26037 23.2534 6.26037 23.6948ZM14.8945 24.012H11.9695V21.097H14.8945V24.012ZM14.3508 23.5588V21.5551H12.5132V23.5588H14.3508ZM12.6844 24.7218H13.2382V26.2473H16.9386V26.7105H12.6844V24.7218ZM16.0877 20.518H16.6466V22.4462H17.5981V22.9195H16.6466V25.1598H16.0877V20.518ZM25.0435 25.336H24.4796V24.6765H23.1756V24.2687H24.4796V20.5281H25.0435V25.336ZM19.7924 23.4582C20.6282 23.4548 21.3741 23.4422 22.0303 23.4204C22.6881 23.3969 23.3149 23.3474 23.9107 23.2719L23.951 23.6797C23.4257 23.7636 22.845 23.8248 22.209 23.8634V25.1145H21.6502V23.8911C21.2189 23.9079 20.7272 23.9163 20.1751 23.9163H19.868L19.7924 23.4582ZM20.3009 21.8874C20.3009 21.6692 20.3664 21.4771 20.4973 21.3109C20.6282 21.1431 20.8128 21.0139 21.0511 20.9233C21.2894 20.831 21.5629 20.7848 21.8717 20.7848C22.1771 20.7848 22.4482 20.831 22.6848 20.9233C22.9214 21.0139 23.1052 21.1431 23.2361 21.3109C23.3686 21.4771 23.4358 21.6692 23.4374 21.8874C23.4358 22.1089 23.3686 22.3027 23.2361 22.4689C23.1052 22.6333 22.9214 22.7609 22.6848 22.8515C22.4498 22.9404 22.1788 22.9849 21.8717 22.9849C21.5612 22.9849 21.2869 22.9404 21.0486 22.8515C20.8119 22.7626 20.6282 22.635 20.4973 22.4689C20.3664 22.3027 20.3009 22.1089 20.3009 21.8874ZM20.7037 24.8628H21.2625V26.2473H25.1995V26.7105H20.7037V24.8628ZM20.8346 21.8874C20.8329 22.0233 20.8749 22.1425 20.9604 22.2448C21.0477 22.3472 21.1702 22.4269 21.328 22.484C21.4857 22.5394 21.667 22.567 21.8717 22.567C22.0697 22.567 22.2468 22.5394 22.4028 22.484C22.5589 22.4269 22.6806 22.3472 22.7678 22.2448C22.8568 22.1425 22.9021 22.0233 22.9038 21.8874C22.9021 21.7531 22.8568 21.6348 22.7678 21.5325C22.6806 21.4284 22.5589 21.3479 22.4028 21.2908C22.2468 21.2337 22.0697 21.206 21.8717 21.2077C21.667 21.206 21.4857 21.2337 21.328 21.2908C21.1702 21.3479 21.0477 21.4284 20.9604 21.5325C20.8749 21.6348 20.8329 21.7531 20.8346 21.8874Z" fill="#09101D"/>
<path d="M1.85434 51.1695L3.61139 49.3168C3.84297 49.0701 4.01918 48.8721 4.14001 48.7227C4.26252 48.5717 4.35566 48.4265 4.41943 48.2872C4.4832 48.1462 4.51592 47.9994 4.5176 47.8467C4.51592 47.6722 4.46977 47.5186 4.37915 47.386C4.29021 47.2535 4.1677 47.1511 4.01163 47.0789C3.85724 47.0068 3.68355 46.9707 3.49056 46.9707C3.28918 46.9707 3.11213 47.011 2.95941 47.0915C2.80838 47.1721 2.69175 47.2853 2.60951 47.4313C2.52896 47.5773 2.48869 47.746 2.48869 47.9373H1.87951C1.87783 47.6386 1.94747 47.3743 2.08844 47.1444C2.23109 46.9128 2.42659 46.7332 2.67496 46.6057C2.92333 46.4765 3.20191 46.4119 3.5107 46.4119C3.81612 46.4119 4.09051 46.4756 4.33384 46.6032C4.57886 46.729 4.77017 46.901 4.90778 47.1192C5.04539 47.3374 5.11503 47.5799 5.11671 47.8467C5.11503 48.043 5.07811 48.231 5.00595 48.4106C4.93547 48.5884 4.81548 48.7865 4.64598 49.0046C4.47816 49.2228 4.23902 49.4913 3.92856 49.8102L2.75048 51.0285V51.0688H5.20733V51.6377H1.85937L1.85434 51.1695ZM7.81951 51.7082C7.5124 51.7082 7.23382 51.6494 6.98377 51.532C6.73373 51.4145 6.53402 51.2526 6.38467 51.0461C6.23699 50.838 6.15643 50.6039 6.14301 50.3438H6.76729C6.78239 50.4949 6.83777 50.6316 6.93343 50.7541C7.03076 50.875 7.15663 50.9706 7.31102 51.0411C7.46709 51.1099 7.63659 51.1443 7.81951 51.1443C8.03935 51.1443 8.23653 51.0948 8.41106 50.9958C8.58727 50.8968 8.72488 50.7608 8.8239 50.588C8.92291 50.4151 8.97241 50.2213 8.97241 50.0065C8.97241 49.7867 8.92039 49.5886 8.81634 49.4124C8.71397 49.2345 8.57133 49.0953 8.38841 48.9946C8.20717 48.8922 8.00243 48.8402 7.7742 48.8385C7.31438 48.8335 6.99384 48.9879 6.8126 49.3017H6.19335L6.55584 46.4823H9.35V47.0512H7.0895L6.89819 48.5616H6.95357C7.06936 48.471 7.20949 48.3988 7.37395 48.3451C7.54009 48.2914 7.7121 48.2646 7.88999 48.2646C8.21388 48.2646 8.50504 48.3392 8.76348 48.4886C9.0236 48.6363 9.2275 48.8419 9.37518 49.1053C9.52286 49.3671 9.5967 49.6625 9.5967 49.9914C9.5967 50.3186 9.52034 50.6132 9.36762 50.875C9.21491 51.1351 9.00346 51.339 8.73327 51.4867C8.46309 51.6343 8.1585 51.7082 7.81951 51.7082ZM15.2878 49.3772H12.3627V46.4622H15.2878V49.3772ZM14.744 48.9241V46.9203H12.9064V48.9241H14.744ZM13.0776 50.0871H13.6314V51.6125H17.3318V52.0757H13.0776V50.0871ZM16.4809 45.8832H17.0398V47.8115H17.9913V48.2847H17.0398V50.5251H16.4809V45.8832ZM25.4367 50.7013H24.8728V50.0417H23.5689V49.634H24.8728V45.8933H25.4367V50.7013ZM20.1856 48.8234C21.0214 48.82 21.7673 48.8074 22.4235 48.7856C23.0813 48.7621 23.7081 48.7126 24.3039 48.6371L24.3442 49.0449C23.8189 49.1288 23.2383 49.1901 22.6022 49.2287V50.4798H22.0434V49.2564C21.6121 49.2731 21.1204 49.2815 20.5683 49.2815H20.2612L20.1856 48.8234ZM20.6941 47.2526C20.6941 47.0345 20.7596 46.8423 20.8905 46.6762C21.0214 46.5083 21.206 46.3791 21.4443 46.2885C21.6826 46.1962 21.9561 46.1501 22.2649 46.1501C22.5703 46.1501 22.8414 46.1962 23.078 46.2885C23.3146 46.3791 23.4984 46.5083 23.6293 46.6762C23.7618 46.8423 23.829 47.0345 23.8306 47.2526C23.829 47.4741 23.7618 47.668 23.6293 47.8341C23.4984 47.9986 23.3146 48.1261 23.078 48.2167C22.843 48.3057 22.572 48.3501 22.2649 48.3501C21.9544 48.3501 21.6801 48.3057 21.4418 48.2167C21.2051 48.1278 21.0214 48.0002 20.8905 47.8341C20.7596 47.668 20.6941 47.4741 20.6941 47.2526ZM21.0969 50.228H21.6557V51.6125H25.5927V52.0757H21.0969V50.228ZM21.2278 47.2526C21.2261 47.3886 21.2681 47.5077 21.3537 47.6101C21.4409 47.7124 21.5634 47.7922 21.7212 47.8492C21.8789 47.9046 22.0602 47.9323 22.2649 47.9323C22.4629 47.9323 22.64 47.9046 22.7961 47.8492C22.9521 47.7922 23.0738 47.7124 23.1611 47.6101C23.25 47.5077 23.2953 47.3886 23.297 47.2526C23.2953 47.1184 23.25 47.0001 23.1611 46.8977C23.0738 46.7936 22.9521 46.7131 22.7961 46.656C22.64 46.599 22.4629 46.5713 22.2649 46.573C22.0602 46.5713 21.8789 46.599 21.7212 46.656C21.5634 46.7131 21.4409 46.7936 21.3537 46.8977C21.2681 47.0001 21.2261 47.1184 21.2278 47.2526Z" fill="#09101D"/>
<path d="M1.85789 76.5342L3.61495 74.6815C3.84653 74.4348 4.02274 74.2368 4.14357 74.0874C4.26608 73.9364 4.35922 73.7912 4.42299 73.652C4.48676 73.511 4.51948 73.3642 4.52116 73.2114C4.51948 73.0369 4.47333 72.8834 4.38271 72.7508C4.29377 72.6182 4.17126 72.5158 4.01519 72.4437C3.8608 72.3715 3.68711 72.3354 3.49412 72.3354C3.29274 72.3354 3.11569 72.3757 2.96297 72.4563C2.81194 72.5368 2.6953 72.6501 2.61307 72.7961C2.53252 72.9421 2.49225 73.1107 2.49225 73.3021H1.88307C1.88139 73.0033 1.95103 72.739 2.092 72.5091C2.23464 72.2775 2.43015 72.098 2.67852 71.9704C2.92689 71.8412 3.20547 71.7766 3.51425 71.7766C3.81968 71.7766 4.09406 71.8404 4.3374 71.9679C4.58241 72.0938 4.77373 72.2658 4.91134 72.484C5.04895 72.7021 5.11859 72.9446 5.12027 73.2114C5.11859 73.4078 5.08167 73.5957 5.00951 73.7753C4.93903 73.9532 4.81904 74.1512 4.64954 74.3694C4.48172 74.5875 4.24258 74.8561 3.93212 75.1749L2.75404 76.3933V76.4335H5.21089V77.0024H1.86293L1.85789 76.5342ZM7.8281 77.0729C7.44883 77.0729 7.1241 76.9697 6.85392 76.7633C6.58541 76.5552 6.37983 76.2531 6.23719 75.8571C6.09622 75.461 6.02574 74.9836 6.02574 74.4248C6.02574 73.871 6.09706 73.396 6.23971 73C6.38235 72.6023 6.58877 72.2994 6.85895 72.0913C7.12914 71.8815 7.45219 71.7766 7.8281 71.7766C8.20401 71.7766 8.52706 71.8815 8.79725 72.0913C9.06743 72.2994 9.27385 72.6023 9.41649 73C9.55914 73.396 9.63046 73.871 9.63046 74.4248C9.63046 74.9836 9.55914 75.461 9.41649 75.8571C9.27553 76.2531 9.06995 76.5552 8.79976 76.7633C8.53126 76.9697 8.20737 77.0729 7.8281 77.0729ZM6.65002 74.4248C6.65002 74.8661 6.69617 75.2429 6.78847 75.555C6.88077 75.8655 7.01502 76.1013 7.19123 76.2624C7.36744 76.4235 7.57973 76.504 7.8281 76.504C8.07647 76.504 8.28876 76.4235 8.46497 76.2624C8.64118 76.1013 8.77543 75.8655 8.86773 75.555C8.96003 75.2429 9.00618 74.8661 9.00618 74.4248C9.00618 73.9834 8.95919 73.6067 8.86521 73.2945C8.77291 72.9807 8.63866 72.7424 8.46245 72.5796C8.28624 72.4168 8.07479 72.3354 7.8281 72.3354C7.58141 72.3354 7.36996 72.4168 7.19375 72.5796C7.01754 72.7424 6.88245 72.9807 6.78847 73.2945C6.69617 73.6067 6.65002 73.9834 6.65002 74.4248ZM15.2842 74.7419H12.3591V71.8269H15.2842V74.7419ZM14.7405 74.2888V72.2851H12.9029V74.2888H14.7405ZM13.074 75.4518H13.6278V76.9773H17.3282V77.4404H13.074V75.4518ZM16.4774 71.248H17.0362V73.1762H17.9877V73.6494H17.0362V75.8898H16.4774V71.248ZM25.4331 76.066H24.8692V75.4065H23.5653V74.9987H24.8692V71.258H25.4331V76.066ZM20.1821 74.1881C21.0178 74.1848 21.7638 74.1722 22.4199 74.1504C23.0778 74.1269 23.7046 74.0774 24.3003 74.0019L24.3406 74.4097C23.8153 74.4936 23.2347 74.5548 22.5987 74.5934V75.8445H22.0398V74.6211C21.6085 74.6379 21.1168 74.6463 20.5647 74.6463H20.2576L20.1821 74.1881ZM20.6906 72.6174C20.6906 72.3992 20.756 72.2071 20.8869 72.0409C21.0178 71.8731 21.2024 71.7439 21.4407 71.6533C21.679 71.561 21.9526 71.5148 22.2614 71.5148C22.5668 71.5148 22.8378 71.561 23.0744 71.6533C23.3111 71.7439 23.4948 71.8731 23.6257 72.0409C23.7583 72.2071 23.8254 72.3992 23.8271 72.6174C23.8254 72.8389 23.7583 73.0327 23.6257 73.1989C23.4948 73.3633 23.3111 73.4909 23.0744 73.5815C22.8395 73.6704 22.5685 73.7149 22.2614 73.7149C21.9509 73.7149 21.6765 73.6704 21.4382 73.5815C21.2016 73.4925 21.0178 73.365 20.8869 73.1989C20.756 73.0327 20.6906 72.8389 20.6906 72.6174ZM21.0933 75.5928H21.6522V76.9773H25.5892V77.4404H21.0933V75.5928ZM21.2242 72.6174C21.2226 72.7533 21.2645 72.8724 21.3501 72.9748C21.4374 73.0772 21.5599 73.1569 21.7176 73.214C21.8754 73.2693 22.0566 73.297 22.2614 73.297C22.4594 73.297 22.6364 73.2693 22.7925 73.214C22.9486 73.1569 23.0702 73.0772 23.1575 72.9748C23.2464 72.8724 23.2918 72.7533 23.2934 72.6174C23.2918 72.4831 23.2464 72.3648 23.1575 72.2624C23.0702 72.1584 22.9486 72.0778 22.7925 72.0208C22.6364 71.9637 22.4594 71.936 22.2614 71.9377C22.0566 71.936 21.8754 71.9637 21.7176 72.0208C21.5599 72.0778 21.4374 72.1584 21.3501 72.2624C21.2645 72.3648 21.2226 72.4831 21.2242 72.6174Z" fill="#09101D"/>
<path d="M4.72292 102.368H4.0785V97.8819H4.0483L2.7947 98.7126V98.0682L4.0785 97.2123H4.72292V102.368ZM7.77845 102.438C7.47135 102.438 7.19277 102.379 6.94272 102.262C6.69267 102.144 6.49297 101.983 6.34361 101.776C6.19593 101.568 6.11538 101.334 6.10195 101.074H6.72623C6.74134 101.225 6.79672 101.362 6.89237 101.484C6.98971 101.605 7.11557 101.701 7.26996 101.771C7.42603 101.84 7.59553 101.874 7.77845 101.874C7.99829 101.874 8.19548 101.825 8.37001 101.726C8.54622 101.627 8.68383 101.491 8.78284 101.318C8.88185 101.145 8.93136 100.951 8.93136 100.736C8.93136 100.517 8.87934 100.319 8.77529 100.142C8.67292 99.9645 8.53027 99.8252 8.34735 99.7245C8.16611 99.6222 7.96137 99.5702 7.73314 99.5685C7.27332 99.5634 6.95279 99.7178 6.77155 100.032H6.1523L6.51478 97.2123H9.30895V97.7812H7.04844L6.85713 99.2916H6.91251C7.02831 99.201 7.16843 99.1288 7.3329 99.0751C7.49904 99.0214 7.67105 98.9945 7.84894 98.9945C8.17282 98.9945 8.46399 99.0692 8.72243 99.2186C8.98254 99.3663 9.18644 99.5718 9.33412 99.8353C9.4818 100.097 9.55564 100.392 9.55564 100.721C9.55564 101.049 9.47928 101.343 9.32657 101.605C9.17386 101.865 8.96241 102.069 8.69222 102.217C8.42203 102.364 8.11744 102.438 7.77845 102.438ZM15.2467 100.107H12.3216V97.1922H15.2467V100.107ZM14.703 99.6541V97.6503H12.8654V99.6541H14.703ZM13.0365 100.817H13.5903V102.343H17.2907V102.806H13.0365V100.817ZM16.4399 96.6132H16.9987V98.5414H17.9502V99.0147H16.9987V101.255H16.4399V96.6132ZM25.3956 101.431H24.8317V100.772H23.5278V100.364H24.8317V96.6233H25.3956V101.431ZM20.1446 99.5534C20.9803 99.55 21.7263 99.5374 22.3824 99.5156C23.0403 99.4921 23.6671 99.4426 24.2628 99.3671L24.3031 99.7749C23.7778 99.8588 23.1972 99.9201 22.5612 99.9587V101.21H22.0023V99.9863C21.571 100.003 21.0793 100.012 20.5272 100.012H20.2201L20.1446 99.5534ZM20.6531 97.9826C20.6531 97.7644 20.7185 97.5723 20.8494 97.4061C20.9803 97.2383 21.1649 97.1091 21.4032 97.0185C21.6415 96.9262 21.9151 96.88 22.2239 96.88C22.5293 96.88 22.8003 96.9262 23.0369 97.0185C23.2736 97.1091 23.4573 97.2383 23.5882 97.4061C23.7208 97.5723 23.7879 97.7644 23.7896 97.9826C23.7879 98.2041 23.7208 98.3979 23.5882 98.5641C23.4573 98.7285 23.2736 98.8561 23.0369 98.9467C22.802 99.0357 22.531 99.0801 22.2239 99.0801C21.9134 99.0801 21.639 99.0357 21.4007 98.9467C21.1641 98.8578 20.9803 98.7302 20.8494 98.5641C20.7185 98.3979 20.6531 98.2041 20.6531 97.9826ZM21.0558 100.958H21.6147V102.343H25.5517V102.806H21.0558V100.958ZM21.1867 97.9826C21.1851 98.1185 21.227 98.2377 21.3126 98.3401C21.3999 98.4424 21.5224 98.5221 21.6801 98.5792C21.8379 98.6346 22.0191 98.6623 22.2239 98.6623C22.4219 98.6623 22.5989 98.6346 22.755 98.5792C22.9111 98.5221 23.0327 98.4424 23.12 98.3401C23.2089 98.2377 23.2543 98.1185 23.2559 97.9826C23.2543 97.8483 23.2089 97.73 23.12 97.6277C23.0327 97.5236 22.9111 97.4431 22.755 97.386C22.5989 97.3289 22.4219 97.3013 22.2239 97.3029C22.0191 97.3013 21.8379 97.3289 21.6801 97.386C21.5224 97.4431 21.3999 97.5236 21.3126 97.6277C21.227 97.73 21.1851 97.8483 21.1867 97.9826Z" fill="#09101D"/>
<path d="M4.72648 122.577V127.732H4.08206V123.247H4.05186L2.79826 124.077V123.433L4.08206 122.577H4.72648ZM7.78705 127.803C6.64421 127.803 5.98468 126.841 5.98468 125.155C5.98468 123.483 6.65428 122.507 7.78705 122.507C8.91982 122.507 9.58941 123.483 9.58941 125.155C9.58941 126.841 8.92988 127.803 7.78705 127.803ZM6.60897 125.155C6.60897 126.489 7.04194 127.234 7.78705 127.234C8.53216 127.234 8.96513 126.489 8.96513 125.155C8.96513 123.821 8.52712 123.065 7.78705 123.065C7.04697 123.065 6.60897 123.821 6.60897 125.155ZM15.2431 122.557V125.472H12.3181V122.557H15.2431ZM12.8618 125.019H14.6994V123.015H12.8618V125.019ZM13.033 128.17V126.182H13.5868V127.707H17.2872V128.17H13.033ZM16.4363 126.62V121.978H16.9952V123.906H17.9467V124.379H16.9952V126.62H16.4363ZM25.3921 121.988V126.796H24.8282V126.136H23.5242V125.729H24.8282V121.988H25.3921ZM20.141 124.918C21.3191 124.913 22.905 124.903 24.2593 124.732L24.2996 125.14C23.7332 125.23 23.1416 125.288 22.5576 125.323V126.574H21.9988V125.351C21.3594 125.376 20.7477 125.379 20.2166 125.376L20.141 124.918ZM20.6495 123.347C20.6495 122.683 21.2839 122.245 22.2203 122.245C23.1467 122.245 23.781 122.683 23.786 123.347C23.781 124.022 23.1467 124.445 22.2203 124.445C21.2839 124.445 20.6495 124.022 20.6495 123.347ZM21.0523 128.17V126.323H21.6111V127.707H25.5481V128.17H21.0523ZM21.1832 123.347C21.1782 123.76 21.6011 124.027 22.2203 124.027C22.8194 124.027 23.2473 123.76 23.2524 123.347C23.2473 122.94 22.8194 122.663 22.2203 122.668C21.6011 122.663 21.1782 122.94 21.1832 123.347Z" fill="#09101D"/>
<path d="M7.6802 153.168C6.74882 153.168 6.04398 152.594 6.00371 151.804H6.62799C6.6733 152.262 7.12137 152.604 7.6802 152.604C8.3498 152.604 8.83311 152.116 8.83311 151.466C8.83311 150.797 8.32966 150.303 7.63489 150.298C7.20192 150.293 6.86461 150.429 6.6733 150.762H6.05405L6.41654 147.942H9.2107V148.511H6.9502L6.75889 150.022H6.81426C7.04082 149.845 7.3882 149.725 7.75069 149.725C8.73242 149.725 9.45739 150.449 9.45739 151.451C9.45739 152.448 8.70725 153.168 7.6802 153.168ZM15.1485 147.922V150.837H12.2234V147.922H15.1485ZM12.7671 150.384H14.6047V148.38H12.7671V150.384ZM12.9383 153.536V151.547H13.4921V153.072H17.1925V153.536H12.9383ZM16.3416 151.985V147.343H16.9005V149.271H17.852V149.745H16.9005V151.985H16.3416ZM25.2974 147.353V152.161H24.7335V151.502H23.4296V151.094H24.7335V147.353H25.2974ZM20.0463 150.283C21.2244 150.278 22.8103 150.268 24.1646 150.097L24.2049 150.505C23.6385 150.595 23.0469 150.653 22.4629 150.689V151.94H21.9041V150.716C21.2647 150.741 20.653 150.744 20.1219 150.741L20.0463 150.283ZM20.5548 148.713C20.5548 148.048 21.1892 147.61 22.1256 147.61C23.052 147.61 23.6863 148.048 23.6913 148.713C23.6863 149.387 23.052 149.81 22.1256 149.81C21.1892 149.81 20.5548 149.387 20.5548 148.713ZM20.9576 153.536V151.688H21.5164V153.072H25.4534V153.536H20.9576ZM21.0885 148.713C21.0835 149.125 21.5064 149.392 22.1256 149.392C22.7247 149.392 23.1527 149.125 23.1577 148.713C23.1527 148.305 22.7247 148.028 22.1256 148.033C21.5064 148.028 21.0835 148.305 21.0885 148.713Z" fill="#09101D"/>
<defs>
<filter id="filter0_ddd_189_13373" x="31.9117" y="0.262305" width="315.9" height="182.25" filterUnits="userSpaceOnUse" color-interpolation-filters="sRGB">
<feFlood flood-opacity="0" result="BackgroundImageFix"/>
<feColorMatrix in="SourceAlpha" type="matrix" values="0 0 0 0 0 0 0 0 0 0 0 0 0 0 0 0 0 0 127 0" result="hardAlpha"/>
<feOffset dx="3.0375" dy="3.0375"/>
<feGaussianBlur stdDeviation="3.0375"/>
<feComposite in2="hardAlpha" operator="out"/>
<feColorMatrix type="matrix" values="0 0 0 0 0.545098 0 0 0 0 0.54902 0 0 0 0 0.627451 0 0 0 0.25 0"/>
<feBlend mode="multiply" in2="BackgroundImageFix" result="effect1_dropShadow_189_13373"/>
<feColorMatrix in="SourceAlpha" type="matrix" values="0 0 0 0 0 0 0 0 0 0 0 0 0 0 0 0 0 0 127 0" result="hardAlpha"/>
<feOffset dx="1.215" dy="1.215"/>
<feGaussianBlur stdDeviation="1.51875"/>
<feComposite in2="hardAlpha" operator="out"/>
<feColorMatrix type="matrix" values="0 0 0 0 0.545098 0 0 0 0 0.54902 0 0 0 0 0.627451 0 0 0 0.1 0"/>
<feBlend mode="multiply" in2="effect1_dropShadow_189_13373" result="effect2_dropShadow_189_13373"/>
<feColorMatrix in="SourceAlpha" type="matrix" values="0 0 0 0 0 0 0 0 0 0 0 0 0 0 0 0 0 0 127 0" result="hardAlpha"/>
<feOffset dx="-0.6075" dy="-0.6075"/>
<feGaussianBlur stdDeviation="0.6075"/>
<feComposite in2="hardAlpha" operator="out"/>
<feColorMatrix type="matrix" values="0 0 0 0 1 0 0 0 0 1 0 0 0 0 1 0 0 0 0.25 0"/>
<feBlend mode="soft-light" in2="effect2_dropShadow_189_13373" result="effect3_dropShadow_189_13373"/>
<feBlend mode="normal" in="SourceGraphic" in2="effect3_dropShadow_189_13373" result="shape"/>
</filter>
</defs>
</svg>
