<svg width="546" height="296" viewBox="0 0 546 296" fill="none" xmlns="http://www.w3.org/2000/svg">
<g filter="url(#filter0_dd_189_13368)">
<rect x="20" y="20" width="486" height="236" rx="20" fill="white"/>
<path d="M53.2329 50.2838V51.2404C53.2329 52.2431 53.2329 53.3423 52.9476 54.8568H54.4286V55.9309H50.1702V60.3654H48.8403V55.9309H44.6574V54.8568H51.6134C51.9071 53.3968 51.9197 52.306 51.9197 51.3452H45.8153V50.2838H53.2329ZM64.4091 49.6335V60.3487H63.1421V54.8568H62.0009V59.8368H60.7507V49.8181H62.0009V53.7744H63.1421V49.6335H64.4091ZM55.4896 57.5923V50.7914H59.7018V57.5923H55.4896ZM56.7272 56.5518H58.4641V51.8319H56.7272V56.5518ZM77.147 50.1495V50.9844C77.147 51.8235 77.147 52.7675 76.8785 54.0303H78.3469V55.096H68.5421V54.0303H75.5485C75.8044 52.8724 75.8254 51.9955 75.8296 51.211H69.7546V50.1495H77.147ZM69.721 60.2228V56.3462H77.1302V60.2228H69.721ZM71.0132 59.1572H75.8212V57.3783H71.0132V59.1572ZM81.5685 50.288C82.9908 50.288 84.0396 51.3578 84.0396 52.8808C84.0396 54.4079 82.9908 55.4484 81.5685 55.4484C80.1379 55.4484 79.1058 54.4079 79.1142 52.8808C79.1058 51.3578 80.1379 50.288 81.5685 50.288ZM80.2973 52.8808C80.2889 53.7702 80.8217 54.3534 81.5685 54.345C82.3069 54.3534 82.8355 53.7702 82.8397 52.8808C82.8355 51.983 82.3069 51.4166 81.5685 51.4166C80.8217 51.4166 80.2889 51.983 80.2973 52.8808ZM80.8679 57.6048V56.5476H88.2141V60.3487H86.9009V57.6048H80.8679ZM84.6731 55.9728V49.8391H85.9066V52.2976H86.9596V49.6419H88.2141V56.0358H86.9596V53.3549H85.9066V55.9728H84.6731ZM100.956 50.6698V51.8865C100.956 53.3171 100.956 54.7981 100.566 57.051L99.2276 56.9378C99.643 54.8317 99.643 53.2751 99.6472 51.8865V51.7396H93.4589V50.6698H100.956ZM92.4268 58.8887V57.802H102.198V58.8887H92.4268ZM107.295 50.7201V54.7142H104.522V56.8077C105.608 56.7993 106.645 56.7532 107.836 56.5602L107.933 57.6216C106.489 57.8692 105.315 57.9069 103.981 57.9153H103.246V53.6569H106.024V51.7942H103.234V50.7201H107.295ZM108.482 59.8158V49.8349H109.695V53.7492H110.903V49.6335H112.153V60.3487H110.903V54.8149H109.695V59.8158H108.482ZM123.233 57.9573V59.0607H113.428V57.9573H123.233ZM114.23 51.6893V50.6236H122.377V51.6893H120.804V55.1002H122.335V56.149H114.263V55.1002H115.782V51.6893H114.23ZM117.095 55.1002H119.503V51.6893H117.095V55.1002Z" fill="#09101D"/>
<path d="M46.5021 101.04L45.6639 97.6606H44.5047V96.6864H45.4184L44.5802 93.307H45.8867L46.6456 96.6864H47.8426L48.6544 93.307H49.9344L50.7462 96.6864H51.947L52.7022 93.307H54.0086L53.1704 96.6864H54.0841V97.6606H52.9249L52.0867 101.04H50.7236L49.8967 97.6606H48.6997L47.8728 101.04H46.5021ZM46.8608 97.6606L47.1893 99.1181H47.2573L47.6085 97.6606H46.8608ZM48.9376 96.6864H49.6588L49.3265 95.3347H49.2661L48.9376 96.6864ZM50.9803 97.6606L51.3315 99.1257H51.3995L51.728 97.6606H50.9803ZM60.3277 101.146C58.6059 101.146 57.3863 100.228 57.3938 98.9671C57.3863 97.9891 58.1188 97.1848 59.0477 97.0414V96.9923C58.2359 96.8224 57.6846 96.12 57.6846 95.2742C57.6846 94.0773 58.8022 93.2013 60.3277 93.2013C61.8494 93.2013 62.9671 94.0773 62.9708 95.2742C62.9671 96.12 62.4007 96.8224 61.604 96.9923V97.0414C62.5253 97.1848 63.2616 97.9891 63.2653 98.9671C63.2616 100.228 62.0382 101.146 60.3277 101.146ZM58.8287 98.8689C58.8173 99.5788 59.4102 100.073 60.3277 100.073C61.2415 100.073 61.8305 99.5788 61.8305 98.8689C61.8305 98.1364 61.1962 97.5964 60.3277 97.5964C59.4555 97.5964 58.8173 98.1326 58.8287 98.8689ZM59.0439 95.4064C59.0439 96.0785 59.5763 96.5429 60.3277 96.5429C61.0716 96.5429 61.6115 96.0785 61.6115 95.4064C61.6115 94.7456 61.0867 94.2887 60.3277 94.2887C59.5574 94.2887 59.0439 94.7456 59.0439 95.4064ZM67.2261 101.146C65.5043 101.146 64.2847 100.228 64.2923 98.9671C64.2847 97.9891 65.0172 97.1848 65.9461 97.0414V96.9923C65.1343 96.8224 64.583 96.12 64.583 95.2742C64.583 94.0773 65.7007 93.2013 67.2261 93.2013C68.7478 93.2013 69.8655 94.0773 69.8693 95.2742C69.8655 96.12 69.2991 96.8224 68.5024 96.9923V97.0414C69.4237 97.1848 70.16 97.9891 70.1638 98.9671C70.16 100.228 68.9366 101.146 67.2261 101.146ZM65.7271 98.8689C65.7158 99.5788 66.3086 100.073 67.2261 100.073C68.1399 100.073 68.729 99.5788 68.729 98.8689C68.729 98.1364 68.0946 97.5964 67.2261 97.5964C66.3539 97.5964 65.7158 98.1326 65.7271 98.8689ZM65.9423 95.4064C65.9423 96.0785 66.4747 96.5429 67.2261 96.5429C67.97 96.5429 68.51 96.0785 68.51 95.4064C68.51 94.7456 67.9851 94.2887 67.2261 94.2887C66.4559 94.2887 65.9423 94.7456 65.9423 95.4064ZM74.1699 101.187C72.3046 101.184 71.1945 99.7147 71.1983 97.1811C71.1983 94.655 72.3159 93.2013 74.1699 93.2013C76.0201 93.2013 77.1415 94.6588 77.1415 97.1811C77.1378 99.7223 76.0314 101.187 74.1699 101.187ZM72.5991 97.1811C72.5991 99.0388 73.1995 100.009 74.1699 100.009C75.1365 100.009 75.7369 99.0388 75.7369 97.1811C75.7331 95.3347 75.1328 94.3605 74.1699 94.3605C73.2033 94.3605 72.6029 95.3347 72.5991 97.1811ZM79.5672 100.27L78.6761 103.264H77.6604L78.2079 100.27H79.5672ZM83.5885 101.187C81.7232 101.184 80.6131 99.7147 80.6169 97.1811C80.6169 94.655 81.7346 93.2013 83.5885 93.2013C85.4387 93.2013 86.5602 94.6588 86.5602 97.1811C86.5564 99.7223 85.45 101.187 83.5885 101.187ZM82.0178 97.1811C82.0178 99.0388 82.6181 100.009 83.5885 100.009C84.5552 100.009 85.1555 99.0388 85.1555 97.1811C85.1517 95.3347 84.5514 94.3605 83.5885 94.3605C82.6219 94.3605 82.0215 95.3347 82.0178 97.1811ZM90.5724 101.187C88.7071 101.184 87.597 99.7147 87.6008 97.1811C87.6008 94.655 88.7184 93.2013 90.5724 93.2013C92.4226 93.2013 93.544 94.6588 93.544 97.1811C93.5403 99.7223 92.4339 101.187 90.5724 101.187ZM89.0016 97.1811C89.0016 99.0388 89.602 100.009 90.5724 100.009C91.539 100.009 92.1394 99.0388 92.1394 97.1811C92.1356 95.3347 91.5353 94.3605 90.5724 94.3605C89.6058 94.3605 89.0054 95.3347 89.0016 97.1811ZM97.5563 101.187C95.691 101.184 94.5809 99.7147 94.5846 97.1811C94.5846 94.655 95.7023 93.2013 97.5563 93.2013C99.4065 93.2013 100.528 94.6588 100.528 97.1811C100.524 99.7223 99.4178 101.187 97.5563 101.187ZM95.9855 97.1811C95.9855 99.0388 96.5859 100.009 97.5563 100.009C98.5229 100.009 99.1233 99.0388 99.1233 97.1811C99.1195 95.3347 98.5191 94.3605 97.5563 94.3605C96.5897 94.3605 95.9893 95.3347 95.9855 97.1811ZM112.059 92.3479V99.6505H110.866V98.8047H108.974V97.9816H110.866V92.3479H112.059ZM103.922 96.6864C105.7 96.6751 108.094 96.6562 110.141 96.3957L110.212 97.249C109.42 97.3812 108.593 97.468 107.777 97.5285V99.3824H106.584V97.5926C105.685 97.6304 104.824 97.6342 104.065 97.6342L103.922 96.6864ZM104.654 94.4096C104.654 93.3901 105.636 92.6953 107.067 92.6991C108.476 92.6953 109.465 93.3901 109.472 94.4096C109.465 95.4442 108.476 96.1012 107.067 96.1012C105.64 96.1012 104.654 95.4442 104.654 94.4096ZM105.202 101.803V98.9444H106.391V100.84H112.282V101.803H105.202ZM105.783 94.4096C105.776 94.9344 106.297 95.2365 107.067 95.2365C107.807 95.2365 108.332 94.9344 108.34 94.4096C108.332 93.8847 107.807 93.5713 107.067 93.5751C106.297 93.5713 105.776 93.8847 105.783 94.4096Z" fill="#09101D"/>
<path d="M49.8035 73.4599H49.2447V71.0283H47.9407V70.5701H49.2447V68.8181H49.8035V73.4599ZM44.5827 72.1912C44.8932 72.0822 45.1701 71.9227 45.4134 71.713C45.6584 71.5015 45.8497 71.2582 45.9873 70.9829C46.125 70.706 46.1938 70.4191 46.1938 70.122V69.7948H44.764V69.3316H48.1723V69.7948H46.7576V70.122C46.7576 70.3906 46.8231 70.6532 46.954 70.9099C47.0866 71.1667 47.2703 71.3949 47.5053 71.5946C47.7419 71.7943 48.0129 71.9462 48.3183 72.0503L48.0263 72.4983C47.6722 72.3708 47.3618 72.1812 47.0949 71.9294C46.8281 71.6777 46.6251 71.3866 46.4858 71.0559C46.3482 71.4218 46.1392 71.744 45.859 72.0226C45.5787 72.2995 45.2506 72.5084 44.8747 72.6494L44.5827 72.1912ZM45.7407 73.0421H46.2995V74.5373H49.9797V75.0005H45.7407V73.0421ZM52.7107 70.7614C52.7107 71.1021 52.7661 71.4369 52.8768 71.7658C52.9893 72.0947 53.1495 72.3926 53.3576 72.6594C53.5657 72.9246 53.8099 73.1327 54.0902 73.2837L53.7679 73.7016C53.4592 73.5321 53.1923 73.2938 52.9674 72.9867C52.7426 72.6779 52.5714 72.328 52.4539 71.937C52.3381 72.3549 52.1678 72.7308 51.9429 73.0647C51.718 73.397 51.4521 73.6563 51.1449 73.8426L50.8076 73.4197C51.0879 73.2569 51.3312 73.0345 51.5376 72.7526C51.7441 72.469 51.9026 72.1543 52.0134 71.8086C52.1242 71.4612 52.1804 71.1122 52.1821 70.7614V70.4493H50.9788V69.9861H52.1821V69.0447H52.7157V69.9861H53.8988V70.4493H52.7107V70.7614ZM53.4608 71.3102H54.4577V68.9641H54.9863V74.8092H54.4577V71.7834H53.4608V71.3102ZM55.7314 68.8131H56.2651V75.1415H55.7314V68.8131ZM62.2706 69.4726C62.2689 70.1271 62.1799 70.7321 62.0037 71.2875C61.8275 71.8413 61.5254 72.3574 61.0975 72.8357C60.6713 73.3139 60.094 73.7318 59.3656 74.0893L59.0535 73.6664C59.6325 73.3844 60.1082 73.0639 60.4808 72.7048C60.855 72.344 61.142 71.9437 61.3417 71.504L59.1693 71.7079L59.0787 71.2196L61.5129 71.0509C61.6186 70.7136 61.6857 70.3419 61.7142 69.9358H59.4009V69.4726H62.2706ZM63.3278 68.8131H63.8866V71.3907H64.9137V71.8539H63.8866V75.1364H63.3278V68.8131ZM67.8964 70.0365H66.0688V71.2901H67.5993V71.7331H66.0688V73.1579C66.5421 73.1545 66.9356 73.1411 67.2494 73.1176C67.5649 73.0924 67.888 73.0488 68.2186 72.9867L68.274 73.4448C67.9333 73.5153 67.6002 73.5606 67.2746 73.5808C66.949 73.6009 66.5018 73.6127 65.9329 73.616H65.5352V69.5833H67.8964V70.0365ZM67.9467 71.2145H68.8781V68.9641H69.4118V74.8092H68.8781V71.6827H67.9467V71.2145ZM70.1619 68.8131H70.7056V75.1415H70.1619V68.8131ZM76.6637 70.0818V70.1371C76.662 70.4862 76.6562 70.7883 76.6461 71.0434C76.6377 71.2984 76.6167 71.5921 76.5832 71.9244C76.5496 72.2567 76.4976 72.6158 76.4271 73.0018L75.8632 72.9363C75.9354 72.5722 75.9883 72.2273 76.0218 71.9018C76.0571 71.5762 76.0789 71.2867 76.0873 71.0333C76.0973 70.7799 76.1032 70.4812 76.1049 70.1371V70.0818V69.9156H72.2031V69.4525H76.6637V70.0818ZM71.5889 73.7771H73.8494V71.5166H74.4032V73.7771H77.3585V74.2453H71.5889V73.7771ZM83.1152 75.1515H82.5614V68.8131H83.1152V75.1515ZM78.2468 69.4021H81.192V71.6525H78.8308V73.1478C79.4031 73.1461 79.9317 73.1293 80.4167 73.0975C80.9034 73.0639 81.4135 73.0035 81.9472 72.9162L82.0026 73.3844C81.4538 73.4717 80.9285 73.5321 80.4268 73.5657C79.925 73.5992 79.3779 73.616 78.7855 73.616H78.2569V71.1944H80.6281V69.8653H78.2468V69.4021ZM91.0237 69.7797C91.0237 70.0499 91.0204 70.2831 91.0137 70.4795C91.0086 70.6758 90.9927 70.899 90.9658 71.1491C90.939 71.3975 90.8979 71.6626 90.8425 71.9445H91.789V72.4077H89.171V75.1515H88.6122V72.4077H86.0194V71.9445H90.2736C90.334 71.6626 90.3785 71.3966 90.407 71.1466C90.4355 70.8965 90.4532 70.6733 90.4599 70.477C90.4666 70.279 90.4699 70.0465 90.4699 69.7797V69.6891H86.7444V69.2259H91.0237V69.7797ZM97.742 75.1415H97.2034V71.7885H96.3173V74.8193H95.7836V68.949H96.3173V71.3203H97.2034V68.8131H97.742V75.1415ZM92.5514 69.5531H94.9781V73.4348H92.5514V69.5531ZM94.4495 72.9867V70.0012H93.0801V72.9867H94.4495ZM105.484 69.6186C105.484 69.8435 105.481 70.0407 105.474 70.2101C105.469 70.3796 105.454 70.5726 105.429 70.7891C105.406 71.0056 105.367 71.2364 105.313 71.4814H106.245V71.9445H100.45V71.4814H104.752C104.807 71.2347 104.848 71.0031 104.873 70.7866C104.9 70.5701 104.916 70.378 104.921 70.2101C104.927 70.0423 104.931 69.8451 104.931 69.6186V69.6136H101.185V69.1504H105.484V69.6186ZM101.165 72.8155H105.51V75.0559H101.165V72.8155ZM104.956 74.5977V73.2586H101.714V74.5977H104.956ZM108.266 69.2108C108.541 69.2108 108.788 69.2746 109.008 69.4021C109.23 69.528 109.403 69.705 109.527 69.9332C109.653 70.1598 109.716 70.4174 109.716 70.706C109.716 70.9947 109.653 71.2515 109.527 71.4763C109.403 71.7012 109.231 71.8757 109.011 71.9999C108.791 72.1241 108.543 72.1862 108.266 72.1862C107.985 72.1862 107.735 72.1241 107.516 71.9999C107.296 71.8757 107.125 71.7012 107.002 71.4763C106.88 71.2515 106.819 70.9947 106.821 70.706C106.819 70.4157 106.88 70.1573 107.002 69.9307C107.126 69.7042 107.298 69.528 107.518 69.4021C107.738 69.2746 107.987 69.2108 108.266 69.2108ZM107.324 70.706C107.323 70.8974 107.362 71.0702 107.443 71.2246C107.525 71.379 107.637 71.4998 107.78 71.5871C107.924 71.6727 108.086 71.7146 108.266 71.713C108.444 71.7146 108.604 71.6727 108.747 71.5871C108.889 71.4998 109.001 71.3798 109.081 71.2271C109.164 71.0727 109.206 70.899 109.207 70.706C109.206 70.5131 109.164 70.3394 109.081 70.185C109.001 70.0306 108.889 69.9106 108.747 69.825C108.604 69.7377 108.444 69.6941 108.266 69.6941C108.086 69.6941 107.924 69.7377 107.78 69.825C107.637 69.9106 107.525 70.0306 107.443 70.185C107.362 70.3394 107.323 70.5131 107.324 70.706ZM107.858 72.9363H112.122V75.1415H111.573V73.3895H107.858V72.9363ZM110.224 68.9389H110.753V70.4493H111.594V68.8181H112.122V72.5839H111.594V70.9074H110.753V72.5386H110.224V68.9389Z" fill="#09101D"/>
<g filter="url(#filter1_ddd_189_13368)">
<rect x="177.949" y="44.2998" width="303.75" height="170.1" rx="12" fill="#F6F6F6"/>
</g>
<g opacity="0.5">
<line x1="184.023" y1="65.2583" x2="475.623" y2="65.2583" stroke="#B1B7BD" stroke-width="0.6075"/>
<line x1="184.023" y1="90.7734" x2="475.623" y2="90.7734" stroke="#B1B7BD" stroke-width="0.6075"/>
<line x1="184.023" y1="116.288" x2="475.623" y2="116.288" stroke="#B1B7BD" stroke-width="0.6075"/>
<line x1="184.023" y1="141.803" x2="475.623" y2="141.803" stroke="#B1B7BD" stroke-width="0.6075"/>
<line x1="184.023" y1="167.318" x2="475.623" y2="167.318" stroke="#B1B7BD" stroke-width="0.6075"/>
<line x1="184.023" y1="192.833" x2="475.623" y2="192.833" stroke="#B1B7BD" stroke-width="0.6075"/>
</g>
<path d="M192.16 136.032C192.16 133.348 194.336 131.172 197.02 131.172H198.235C200.919 131.172 203.095 133.348 203.095 136.032V214.4H192.16V136.032Z" fill="#FF8F43"/>
<path d="M188.502 224.385C188.5 225.036 188.41 225.64 188.23 226.195C188.052 226.751 187.75 227.268 187.324 227.748C186.899 228.228 186.329 228.648 185.612 229.007L185.295 228.579C185.864 228.294 186.334 227.971 186.707 227.61C187.08 227.247 187.367 226.848 187.568 226.412L185.416 226.615L185.31 226.127L187.742 225.969C187.852 225.631 187.922 225.258 187.951 224.848H185.632V224.385H188.502ZM188.482 226.268H189.972V223.726H190.526V230.054H189.972V226.736H188.482V226.268ZM196.816 230.054H196.257V223.726H196.816V230.054ZM191.575 228.005C191.956 228.005 192.25 228.003 192.456 228V224.874H191.741V224.41H195.356V224.874H194.641V227.919C195.041 227.891 195.39 227.859 195.688 227.824L195.719 228.242C195.106 228.337 194.47 228.401 193.81 228.433C193.151 228.463 192.428 228.48 191.641 228.483L191.575 228.005ZM193 227.99C193.364 227.982 193.728 227.969 194.092 227.952V224.874H193V227.99ZM203.101 228.539H202.538V227.879H201.234V227.471H202.538V223.731H203.101V228.539ZM197.85 226.661C198.686 226.657 199.432 226.645 200.088 226.623C200.746 226.6 201.373 226.55 201.969 226.475L202.009 226.882C201.484 226.966 200.903 227.027 200.267 227.066V228.317H199.708V227.094C199.277 227.111 198.785 227.119 198.233 227.119H197.926L197.85 226.661ZM198.359 225.09C198.359 224.872 198.424 224.68 198.555 224.514C198.686 224.346 198.871 224.217 199.109 224.126C199.347 224.034 199.621 223.987 199.93 223.987C200.235 223.987 200.506 224.034 200.743 224.126C200.979 224.217 201.163 224.346 201.294 224.514C201.427 224.68 201.494 224.872 201.495 225.09C201.494 225.312 201.427 225.505 201.294 225.672C201.163 225.836 200.979 225.964 200.743 226.054C200.508 226.143 200.237 226.188 199.93 226.188C199.619 226.188 199.345 226.143 199.107 226.054C198.87 225.965 198.686 225.838 198.555 225.672C198.424 225.505 198.359 225.312 198.359 225.09ZM198.762 228.065H199.321V229.45H203.258V229.913H198.762V228.065ZM198.893 225.09C198.891 225.226 198.933 225.345 199.018 225.447C199.106 225.55 199.228 225.63 199.386 225.687C199.544 225.742 199.725 225.77 199.93 225.77C200.128 225.77 200.305 225.742 200.461 225.687C200.617 225.63 200.739 225.55 200.826 225.447C200.915 225.345 200.96 225.226 200.962 225.09C200.96 224.956 200.915 224.837 200.826 224.735C200.739 224.631 200.617 224.55 200.461 224.493C200.305 224.436 200.128 224.409 199.93 224.41C199.725 224.409 199.544 224.436 199.386 224.493C199.228 224.55 199.106 224.631 199.018 224.735C198.933 224.837 198.891 224.956 198.893 225.09ZM209.236 226.545H204.982V224.098H209.15V224.561H205.55V226.092H209.236V226.545ZM204.176 227.381H209.971V227.839H207.333V230.034H206.784V227.839H204.176V227.381Z" fill="#09101D"/>
<path d="M225.594 142.107C225.594 139.423 227.77 137.247 230.454 137.247H231.669C234.353 137.247 236.529 139.423 236.529 142.107V214.4H225.594V142.107Z" fill="#FFDDC7"/>
<path d="M227.638 226.399V226.852H225.025V227.481H226.893V228.896H223.132V229.54H227.084V229.983H222.584V228.478H226.344V227.914H222.568V227.481H224.466V226.852H221.869V226.399H227.638ZM222.619 225.865V223.937H226.888V225.865H222.619ZM223.168 225.417H226.329V224.385H223.168V225.417ZM231.658 224.299V224.767H229.131V226.081H231.431V226.534H229.131V228.065C230.311 228.065 231.122 228.022 232.091 227.859L232.151 228.322C231.149 228.488 230.299 228.523 229.08 228.528H228.577V224.299H231.658ZM232.841 230.054V223.725H233.4V230.054H232.841ZM240.254 227.345V227.808H238.779V230.099H238.22V227.808H236.508V230.099H235.95V227.808H234.459V227.345H240.254ZM234.767 226.157C235.904 225.991 237.067 225.225 237.067 224.314V223.952H237.646V224.314C237.646 225.21 238.819 225.996 239.947 226.157L239.72 226.62C238.739 226.446 237.767 225.895 237.359 225.112C236.957 225.9 235.987 226.446 234.998 226.62L234.767 226.157Z" fill="#09101D"/>
<path d="M259.031 208.325C259.031 205.641 261.207 203.465 263.891 203.465H265.106C267.79 203.465 269.966 205.641 269.966 208.325V214.4H259.031V208.325Z" fill="#BE7346"/>
<path d="M255.549 224.385C255.547 225.036 255.455 225.641 255.272 226.2C255.091 226.757 254.782 227.276 254.346 227.758C253.911 228.239 253.327 228.659 252.594 229.016L252.287 228.573C252.866 228.295 253.345 227.976 253.724 227.617C254.105 227.256 254.399 226.856 254.605 226.416L252.403 226.625L252.312 226.127L254.784 225.963C254.895 225.617 254.964 225.246 254.993 224.848H252.629V224.385H255.549ZM256.828 223.725H257.387V230.054H256.828V223.725ZM263.682 228.407H263.123V223.73H263.682V228.407ZM258.587 227.199C258.901 227.095 259.18 226.942 259.423 226.741C259.668 226.539 259.858 226.305 259.994 226.039C260.13 225.772 260.198 225.492 260.198 225.2V225.034H258.738V224.581H260.198V223.755H260.762V224.581H262.207V225.034H260.752V225.2C260.752 225.476 260.821 225.739 260.958 225.991C261.098 226.241 261.291 226.461 261.537 226.65C261.784 226.838 262.064 226.981 262.378 227.078L262.101 227.526C261.729 227.405 261.402 227.223 261.12 226.98C260.839 226.737 260.628 226.451 260.485 226.124C260.348 226.477 260.138 226.784 259.856 227.048C259.574 227.311 259.245 227.508 258.869 227.637L258.587 227.199ZM259.594 227.969H260.153V229.449H263.879V229.913H259.594V227.969ZM268.004 224.767H265.598V226.081H267.863V226.534H265.598V228.065C266.203 228.063 266.723 228.048 267.156 228.02C267.59 227.991 268.034 227.937 268.487 227.859L268.548 228.322C268.081 228.401 267.624 228.454 267.176 228.483C266.728 228.51 266.18 228.525 265.532 228.528H265.034V224.299H268.004V224.767ZM269.097 223.725H269.655V226.268H270.713V226.746H269.655V230.054H269.097V223.725ZM273.937 223.801C274.405 223.801 274.806 223.843 275.14 223.929C275.476 224.013 275.732 224.137 275.908 224.302C276.084 224.466 276.172 224.665 276.172 224.898C276.172 225.118 276.095 225.307 275.941 225.465C275.786 225.622 275.562 225.746 275.269 225.835C274.975 225.924 274.62 225.977 274.204 225.996V226.474H276.827V226.932H271.057V226.474H273.655V225.993C273.242 225.975 272.889 225.921 272.595 225.832C272.303 225.743 272.08 225.62 271.926 225.462C271.773 225.304 271.697 225.116 271.697 224.898C271.697 224.665 271.785 224.466 271.961 224.302C272.139 224.137 272.395 224.013 272.729 223.929C273.064 223.843 273.467 223.801 273.937 223.801ZM271.757 227.466H276.082V228.886H272.321V229.54H276.273V229.983H271.772V228.473H275.533V227.904H271.757V227.466ZM272.281 224.898C272.279 225.041 272.343 225.163 272.472 225.263C272.603 225.364 272.792 225.44 273.041 225.492C273.289 225.544 273.588 225.571 273.937 225.573C274.288 225.571 274.587 225.544 274.836 225.492C275.086 225.44 275.276 225.364 275.407 225.263C275.538 225.163 275.603 225.041 275.603 224.898C275.603 224.759 275.537 224.64 275.405 224.541C275.274 224.442 275.083 224.365 274.833 224.312C274.585 224.258 274.286 224.23 273.937 224.229C273.59 224.23 273.292 224.258 273.043 224.312C272.795 224.365 272.605 224.443 272.474 224.543C272.344 224.642 272.279 224.761 272.281 224.898Z" fill="#09101D"/>
<path d="M289.465 163.37C289.465 160.686 291.641 158.51 294.325 158.51H295.54C298.224 158.51 300.4 160.686 300.4 163.37V214.4H289.465V163.37Z" fill="#FF8F43"/>
<path d="M294.675 227.823H292.036V230.054H291.488V227.823H288.88V227.35H294.675V227.823ZM289.539 225.371C289.539 225.09 289.632 224.844 289.816 224.634C290.003 224.424 290.264 224.263 290.599 224.151C290.935 224.036 291.323 223.979 291.765 223.977C292.206 223.979 292.594 224.036 292.93 224.151C293.267 224.263 293.529 224.424 293.716 224.634C293.902 224.844 293.995 225.09 293.995 225.371C293.995 225.65 293.902 225.893 293.716 226.101C293.529 226.31 293.267 226.47 292.93 226.582C292.594 226.695 292.206 226.751 291.765 226.751C291.323 226.751 290.935 226.695 290.599 226.582C290.264 226.47 290.003 226.31 289.816 226.101C289.632 225.893 289.539 225.65 289.539 225.371ZM290.113 225.371C290.112 225.558 290.18 225.721 290.317 225.86C290.455 225.999 290.649 226.107 290.899 226.185C291.149 226.26 291.437 226.298 291.765 226.298C292.092 226.298 292.381 226.26 292.631 226.185C292.881 226.107 293.074 225.999 293.212 225.86C293.351 225.721 293.421 225.558 293.421 225.371C293.421 225.184 293.351 225.019 293.212 224.878C293.074 224.737 292.881 224.628 292.631 224.551C292.381 224.474 292.092 224.435 291.765 224.435C291.437 224.435 291.149 224.474 290.899 224.551C290.649 224.628 290.455 224.737 290.317 224.878C290.18 225.019 290.112 225.184 290.113 225.371ZM300.975 227.793H299.45V230.054H298.886V227.793H297.26V230.054H296.686V227.793H295.18V227.33H300.975V227.793ZM295.84 225.361C295.84 225.083 295.932 224.839 296.117 224.631C296.303 224.423 296.564 224.263 296.9 224.151C297.235 224.036 297.624 223.979 298.065 223.977C298.506 223.979 298.895 224.036 299.231 224.151C299.568 224.263 299.83 224.423 300.016 224.631C300.202 224.839 300.295 225.083 300.295 225.361C300.295 225.638 300.202 225.88 300.016 226.086C299.83 226.293 299.568 226.451 299.231 226.562C298.895 226.673 298.506 226.727 298.065 226.726C297.625 226.727 297.237 226.673 296.9 226.562C296.564 226.451 296.303 226.293 296.117 226.086C295.932 225.88 295.84 225.638 295.84 225.361ZM296.414 225.361C296.412 225.546 296.48 225.707 296.618 225.845C296.755 225.982 296.949 226.089 297.199 226.164C297.449 226.24 297.738 226.278 298.065 226.278C298.392 226.278 298.681 226.24 298.931 226.164C299.181 226.089 299.375 225.982 299.512 225.845C299.652 225.707 299.721 225.546 299.721 225.361C299.721 225.175 299.652 225.012 299.512 224.873C299.375 224.734 299.181 224.626 298.931 224.551C298.681 224.474 298.392 224.435 298.065 224.435C297.738 224.435 297.449 224.474 297.199 224.551C296.949 224.626 296.755 224.734 296.618 224.873C296.48 225.012 296.412 225.175 296.414 225.361Z" fill="#09101D"/>
<path d="M313.398 122.06C313.398 119.376 315.574 117.2 318.258 117.2H319.473C322.158 117.2 324.333 119.376 324.333 122.06V214.4H313.398V122.06Z" fill="#BE7346"/>
<path d="M315.074 225.427C315.072 225.801 315.149 226.173 315.303 226.542C315.457 226.911 315.666 227.239 315.927 227.526C316.191 227.812 316.477 228.025 316.786 228.166L316.443 228.609C316.205 228.491 315.979 228.333 315.766 228.135C315.553 227.936 315.363 227.705 315.197 227.443C315.031 227.181 314.899 226.902 314.8 226.605C314.702 226.92 314.57 227.217 314.404 227.496C314.24 227.773 314.049 228.018 313.833 228.231C313.616 228.444 313.386 228.612 313.141 228.735L312.788 228.266C313.1 228.122 313.388 227.902 313.652 227.607C313.915 227.31 314.124 226.97 314.278 226.587C314.435 226.205 314.513 225.818 314.515 225.427V224.274H315.074V225.427ZM317.48 223.725H318.039V230.064H317.48V223.725ZM324.37 227.204H323.811V225.512H322.603V225.044H323.811V223.73H324.37V227.204ZM319.381 223.992H322.2V225.699H319.95V226.575C320.52 226.573 321.014 226.56 321.43 226.534C321.848 226.509 322.281 226.461 322.729 226.388L322.774 226.852C322.307 226.925 321.856 226.975 321.42 227C320.985 227.025 320.47 227.038 319.874 227.038H319.396V225.266H321.656V224.45H319.381V223.992ZM320.227 227.506H320.785V228.276H323.816V227.506H324.37V229.968H320.227V227.506ZM323.816 229.51V228.724H320.785V229.51H323.816Z" fill="#09101D"/>
<path d="M340.336 157.902C340.336 155.218 342.512 153.042 345.196 153.042H346.411C349.095 153.042 351.271 155.218 351.271 157.902V214.399H340.336V157.902Z" fill="#FF8F43"/>
<path d="M339.767 226.877H342.38V227.34H336.611V226.877H339.219V225.971H339.767V226.877ZM336.933 225.845C337.306 225.804 337.658 225.721 337.99 225.593C338.323 225.464 338.593 225.303 338.801 225.11C339.009 224.915 339.12 224.704 339.133 224.475H337.139V224.022H341.862V224.475H339.858C339.87 224.702 339.979 224.912 340.185 225.107C340.393 225.302 340.664 225.464 340.996 225.593C341.33 225.721 341.684 225.804 342.058 225.845L341.852 226.288C341.499 226.244 341.165 226.165 340.847 226.051C340.532 225.937 340.256 225.791 340.019 225.613C339.783 225.435 339.608 225.233 339.496 225.006C339.381 225.233 339.206 225.435 338.969 225.613C338.733 225.791 338.457 225.937 338.141 226.051C337.826 226.165 337.492 226.244 337.139 226.288L336.933 225.845ZM337.306 228.951C337.306 228.718 337.392 228.52 337.565 228.357C337.738 228.194 337.988 228.071 338.315 227.987C338.642 227.901 339.034 227.859 339.491 227.859C339.945 227.859 340.336 227.901 340.661 227.987C340.987 228.071 341.236 228.194 341.409 228.357C341.582 228.52 341.669 228.718 341.67 228.951C341.669 229.183 341.582 229.38 341.409 229.543C341.236 229.705 340.987 229.829 340.661 229.913C340.336 229.997 339.945 230.038 339.491 230.038C339.034 230.038 338.642 229.997 338.315 229.913C337.988 229.829 337.738 229.705 337.565 229.543C337.392 229.38 337.306 229.183 337.306 228.951ZM337.874 228.951C337.873 229.089 337.936 229.206 338.063 229.303C338.191 229.401 338.375 229.475 338.617 229.525C338.86 229.577 339.152 229.602 339.491 229.6C339.828 229.602 340.117 229.577 340.359 229.525C340.602 229.475 340.788 229.401 340.915 229.303C341.045 229.206 341.11 229.089 341.112 228.951C341.11 228.813 341.045 228.696 340.915 228.599C340.788 228.5 340.602 228.425 340.359 228.375C340.117 228.323 339.828 228.297 339.491 228.297C339.152 228.297 338.86 228.323 338.617 228.375C338.375 228.425 338.191 228.5 338.063 228.599C337.936 228.696 337.873 228.813 337.874 228.951ZM348.127 230.064H347.568V223.725H348.127V230.064ZM343.148 226.419C343.148 225.977 343.216 225.59 343.352 225.258C343.489 224.926 343.681 224.669 343.926 224.488C344.171 224.307 344.45 224.215 344.764 224.214C345.076 224.215 345.354 224.307 345.597 224.488C345.842 224.669 346.033 224.927 346.171 225.261C346.31 225.593 346.38 225.979 346.38 226.419C346.38 226.86 346.31 227.248 346.171 227.582C346.033 227.916 345.842 228.173 345.597 228.354C345.352 228.534 345.074 228.624 344.764 228.624C344.45 228.624 344.171 228.534 343.926 228.354C343.681 228.173 343.489 227.916 343.352 227.584C343.216 227.25 343.148 226.862 343.148 226.419ZM343.687 226.419C343.687 226.758 343.732 227.056 343.822 227.315C343.913 227.573 344.04 227.773 344.203 227.914C344.367 228.055 344.554 228.125 344.764 228.125C344.974 228.125 345.159 228.055 345.32 227.914C345.483 227.773 345.61 227.573 345.7 227.315C345.791 227.056 345.836 226.758 345.836 226.419C345.836 226.081 345.791 225.784 345.7 225.528C345.61 225.269 345.483 225.069 345.32 224.928C345.159 224.786 344.974 224.714 344.764 224.712C344.554 224.714 344.367 224.786 344.203 224.928C344.04 225.069 343.913 225.269 343.822 225.528C343.732 225.784 343.687 226.081 343.687 226.419ZM354.458 227.194H353.899V225.835H352.494V225.377H353.899V223.725H354.458V227.194ZM351.744 225.208C351.833 224.991 351.888 224.764 351.908 224.526H349.665V224.068H352.504C352.501 224.88 352.26 225.566 351.782 226.127C351.304 226.687 350.579 227.112 349.609 227.4L349.383 226.947C350.4 226.652 351.111 226.211 351.517 225.623L349.443 225.779L349.348 225.316L351.744 225.208ZM350.365 227.516H350.913V228.276H353.904V227.516H354.458V229.968H350.365V227.516ZM353.904 229.51V228.724H350.913V229.51H353.904Z" fill="#09101D"/>
<path d="M373.77 181.595C373.77 178.911 375.945 176.735 378.63 176.735H379.845C382.529 176.735 384.705 178.911 384.705 181.595V214.4H373.77V181.595Z" fill="#FFDDC7"/>
<path d="M372.664 227.461H366.894V226.998H369.502V226.238H367.659V223.872H368.218V224.607H371.35V223.872H371.909V226.238H370.056V226.998H372.664V227.461ZM367.534 228.086H371.949V230.054H371.385V228.539H367.534V228.086ZM371.35 225.785V225.035H368.218V225.785H371.35ZM375.319 225.427C375.317 225.79 375.39 226.151 375.536 226.512C375.682 226.873 375.88 227.196 376.13 227.481C376.381 227.767 376.657 227.983 376.955 228.131L376.608 228.579C376.378 228.458 376.162 228.298 375.959 228.098C375.757 227.897 375.578 227.668 375.422 227.411C375.268 227.153 375.144 226.877 375.05 226.585C374.956 226.894 374.829 227.186 374.67 227.461C374.512 227.737 374.329 227.981 374.121 228.194C373.913 228.405 373.691 228.574 373.456 228.7L373.104 228.252C373.408 228.101 373.686 227.876 373.94 227.577C374.193 227.277 374.394 226.938 374.541 226.56C374.689 226.183 374.764 225.805 374.765 225.427V224.274H375.319V225.427ZM377.534 223.726H378.093V226.293H379.15V226.777H378.093V230.054H377.534V223.726ZM385.265 227.315H379.495V226.857H380.925V225.964C380.67 225.865 380.474 225.735 380.338 225.576C380.202 225.415 380.134 225.229 380.134 225.02C380.134 224.775 380.224 224.564 380.404 224.388C380.585 224.211 380.843 224.077 381.179 223.985C381.516 223.893 381.915 223.846 382.375 223.846C382.833 223.846 383.23 223.893 383.565 223.985C383.901 224.077 384.159 224.211 384.338 224.388C384.52 224.564 384.61 224.775 384.61 225.02C384.61 225.229 384.543 225.414 384.409 225.573C384.274 225.733 384.081 225.861 383.83 225.958V226.857H385.265V227.315ZM380.19 228.916C380.19 228.678 380.276 228.476 380.449 228.31C380.622 228.142 380.872 228.015 381.199 227.929C381.526 227.844 381.918 227.802 382.375 227.804C382.828 227.802 383.217 227.844 383.543 227.929C383.868 228.015 384.118 228.142 384.29 228.31C384.465 228.476 384.553 228.678 384.555 228.916C384.553 229.156 384.465 229.36 384.29 229.528C384.118 229.696 383.868 229.822 383.543 229.908C383.217 229.995 382.828 230.039 382.375 230.039C381.918 230.039 381.526 229.995 381.199 229.908C380.872 229.822 380.622 229.696 380.449 229.528C380.276 229.36 380.19 229.156 380.19 228.916ZM380.713 225.02C380.712 225.172 380.777 225.304 380.91 225.415C381.044 225.524 381.235 225.607 381.484 225.664C381.734 225.721 382.031 225.75 382.375 225.75C382.717 225.75 383.013 225.721 383.263 225.664C383.513 225.607 383.706 225.524 383.84 225.415C383.974 225.304 384.041 225.172 384.041 225.02C384.041 224.869 383.973 224.738 383.837 224.627C383.703 224.516 383.511 224.431 383.261 224.373C383.011 224.314 382.715 224.284 382.375 224.284C382.032 224.284 381.736 224.314 381.486 224.373C381.236 224.431 381.044 224.516 380.91 224.627C380.777 224.738 380.712 224.869 380.713 225.02ZM380.759 228.916C380.757 229.059 380.82 229.182 380.948 229.286C381.077 229.39 381.263 229.469 381.506 229.523C381.75 229.577 382.039 229.603 382.375 229.601C382.709 229.603 382.997 229.577 383.238 229.523C383.482 229.469 383.668 229.39 383.797 229.286C383.928 229.182 383.994 229.059 383.996 228.916C383.994 228.775 383.928 228.654 383.797 228.551C383.668 228.449 383.482 228.371 383.238 228.317C382.997 228.262 382.709 228.233 382.375 228.232C382.039 228.233 381.75 228.262 381.506 228.317C381.263 228.371 381.077 228.449 380.948 228.551C380.82 228.654 380.757 228.775 380.759 228.916ZM383.276 226.857V226.11C383.004 226.158 382.704 226.183 382.375 226.183C382.041 226.183 381.744 226.159 381.484 226.112V226.857H383.276ZM388.061 225.669C388.061 226.018 388.138 226.365 388.293 226.711C388.447 227.055 388.655 227.362 388.917 227.632C389.179 227.901 389.464 228.102 389.773 228.237L389.461 228.68C389.216 228.567 388.984 228.414 388.766 228.221C388.548 228.029 388.354 227.806 388.184 227.554C388.017 227.301 387.884 227.03 387.787 226.741C387.688 227.047 387.554 227.337 387.386 227.612C387.219 227.886 387.026 228.128 386.81 228.34C386.593 228.551 386.366 228.717 386.128 228.836L385.795 228.393C386.096 228.25 386.376 228.033 386.636 227.741C386.896 227.449 387.104 227.12 387.261 226.754C387.417 226.386 387.495 226.025 387.497 225.669V224.843H386.002V224.375H389.566V224.843H388.061V225.669ZM390.452 223.726H391.011V230.054H390.452V223.726Z" fill="#09101D"/>
<path d="M404.207 145.752C404.207 143.068 406.383 140.892 409.067 140.892H410.282C412.966 140.892 415.142 143.068 415.142 145.752V214.4H404.207V145.752Z" fill="#BE7346"/>
<path d="M407.121 224.299V224.767H404.594V226.081H406.894V226.534H404.594V228.065C405.774 228.065 406.585 228.022 407.554 227.859L407.614 228.322C406.613 228.488 405.762 228.523 404.543 228.528H404.04V224.299H407.121ZM408.304 230.054V223.725H408.863V230.054H408.304ZM415.717 227.345V227.808H414.242V230.099H413.683V227.808H411.972V230.099H411.413V227.808H409.922V227.345H415.717ZM410.23 226.157C411.367 225.991 412.53 225.225 412.53 224.314V223.952H413.109V224.314C413.109 225.21 414.282 225.996 415.41 226.157L415.184 226.62C414.202 226.446 413.23 225.895 412.822 225.112C412.42 225.9 411.45 226.446 410.461 226.62L410.23 226.157Z" fill="#09101D"/>
<path d="M431.141 157.902C431.141 155.218 433.317 153.042 436.001 153.042H437.216C439.9 153.042 442.076 155.218 442.076 157.902V214.399H431.141V157.902Z" fill="#FF8F43"/>
<path d="M429.666 225.427C429.661 226.58 430.446 227.743 431.378 228.166L431.035 228.609C430.315 228.256 429.694 227.506 429.392 226.605C429.1 227.559 428.475 228.362 427.733 228.735L427.38 228.266C428.322 227.833 429.102 226.625 429.107 225.427V224.274H429.666V225.427ZM432.072 230.064V223.725H432.631V230.064H432.072ZM438.942 223.725V230.064H438.388V223.725H438.942ZM434.073 224.777V224.314H437.019V226.565H434.657V228.06C435.707 228.057 436.641 228.012 437.774 227.828L437.829 228.297C436.666 228.483 435.705 228.528 434.612 228.528H434.083V226.107H436.455V224.777H434.073ZM445.257 223.725V226.947H444.704V225.603H443.377C443.261 226.331 442.614 226.821 441.758 226.821C440.807 226.821 440.112 226.227 440.117 225.377C440.112 224.531 440.807 223.947 441.758 223.947C442.607 223.947 443.251 224.422 443.374 225.135H444.704V223.725H445.257ZM440.651 225.377C440.651 225.95 441.114 226.358 441.758 226.358C442.388 226.358 442.856 225.95 442.856 225.377C442.856 224.813 442.388 224.405 441.758 224.41C441.114 224.405 440.651 224.813 440.651 225.377ZM441.154 227.743V227.3H445.257V228.81H441.723V229.515H445.499V229.968H441.169V228.387H444.704V227.743H441.154Z" fill="#09101D"/>
<path d="M458.074 170.66C458.074 167.976 460.25 165.8 462.934 165.8H464.149C466.833 165.8 469.009 167.976 469.009 170.66V214.4H458.074V170.66Z" fill="#FFDDC7"/>
<path d="M460.656 224.657C460.656 225.002 460.772 225.335 461.003 225.656C461.235 225.976 461.532 226.248 461.894 226.472C462.257 226.695 462.624 226.842 462.997 226.912L462.735 227.38C462.411 227.305 462.093 227.181 461.781 227.01C461.469 226.839 461.188 226.628 460.938 226.378C460.69 226.127 460.499 225.851 460.366 225.55C460.234 225.849 460.043 226.124 459.795 226.376C459.547 226.626 459.266 226.837 458.952 227.01C458.64 227.181 458.322 227.305 457.998 227.38L457.741 226.912C458.114 226.84 458.479 226.693 458.838 226.472C459.199 226.248 459.495 225.977 459.725 225.658C459.954 225.338 460.07 225.004 460.072 224.657V224.168H460.656V224.657ZM457.499 228.724H463.294V229.193H457.499V228.724ZM469.016 224.48H468.044V225.961H468.995V226.414H464.359V225.961H465.315V224.48H464.338V224.022H469.016V224.48ZM463.79 227.073H469.584V227.536H467.007V228.76H466.453V227.536H463.79V227.073ZM464.535 228.14H465.094V229.449H468.94V229.913H464.535V228.14ZM467.485 225.961V224.48H465.869V225.961H467.485Z" fill="#09101D"/>
<path d="M146.035 67.3429C145.696 67.3429 145.392 67.2859 145.124 67.1718C144.855 67.0577 144.643 66.8974 144.487 66.691C144.332 66.4846 144.249 66.2471 144.237 65.9786H144.887C144.899 66.138 144.956 66.2781 145.058 66.399C145.16 66.5181 145.296 66.6104 145.463 66.6759C145.633 66.7413 145.82 66.774 146.025 66.774C146.25 66.774 146.451 66.7363 146.629 66.6608C146.807 66.5836 146.946 66.4762 147.047 66.3386C147.147 66.2009 147.198 66.044 147.198 65.8678C147.198 65.6799 147.148 65.5137 147.049 65.3694C146.952 65.2251 146.809 65.1126 146.621 65.0321C146.433 64.9515 146.208 64.9113 145.944 64.9113H145.526V64.3474H145.944C146.152 64.3474 146.337 64.3105 146.498 64.2366C146.661 64.1628 146.787 64.0596 146.876 63.927C146.966 63.7928 147.012 63.6375 147.012 63.4613C147.012 63.2918 146.972 63.1425 146.893 63.0132C146.814 62.884 146.702 62.7842 146.556 62.7137C146.41 62.6415 146.24 62.6055 146.045 62.6055C145.86 62.6055 145.687 62.6382 145.524 62.7036C145.363 62.7691 145.232 62.8631 145.131 62.9856C145.03 63.1064 144.976 63.2482 144.967 63.411H144.348C144.358 63.1458 144.441 62.91 144.595 62.7036C144.749 62.4955 144.955 62.3344 145.212 62.2203C145.468 62.1045 145.75 62.0466 146.055 62.0466C146.372 62.0466 146.65 62.1095 146.888 62.2354C147.128 62.3613 147.312 62.5299 147.439 62.7414C147.569 62.9528 147.632 63.1827 147.631 63.4311C147.632 63.6224 147.598 63.797 147.528 63.9547C147.457 64.1125 147.356 64.2459 147.223 64.355C147.09 64.464 146.934 64.5437 146.755 64.5941V64.6344C146.976 64.6679 147.168 64.7409 147.329 64.8534C147.491 64.9641 147.616 65.1076 147.701 65.2838C147.787 65.4584 147.829 65.6547 147.827 65.8729C147.829 66.1498 147.752 66.4006 147.596 66.6255C147.441 66.8487 147.226 67.0241 146.951 67.1516C146.678 67.2792 146.372 67.3429 146.035 67.3429ZM150.438 67.3429C150.059 67.3429 149.734 67.2397 149.464 67.0333C149.196 66.8252 148.99 66.5232 148.848 66.1271C148.707 65.7311 148.636 65.2536 148.636 64.6948C148.636 64.141 148.707 63.6661 148.85 63.27C148.993 62.8723 149.199 62.5694 149.469 62.3613C149.739 62.1515 150.063 62.0466 150.438 62.0466C150.814 62.0466 151.137 62.1515 151.408 62.3613C151.678 62.5694 151.884 62.8723 152.027 63.27C152.169 63.6661 152.241 64.141 152.241 64.6948C152.241 65.2536 152.169 65.7311 152.027 66.1271C151.886 66.5232 151.68 66.8252 151.41 67.0333C151.142 67.2397 150.818 67.3429 150.438 67.3429ZM149.26 64.6948C149.26 65.1361 149.307 65.5129 149.399 65.825C149.491 66.1355 149.625 66.3713 149.802 66.5324C149.978 66.6935 150.19 66.774 150.438 66.774C150.687 66.774 150.899 66.6935 151.075 66.5324C151.252 66.3713 151.386 66.1355 151.478 65.825C151.57 65.5129 151.617 65.1361 151.617 64.6948C151.617 64.2534 151.57 63.8767 151.476 63.5645C151.383 63.2507 151.249 63.0124 151.073 62.8496C150.897 62.6868 150.685 62.6055 150.438 62.6055C150.192 62.6055 149.98 62.6868 149.804 62.8496C149.628 63.0124 149.493 63.2507 149.399 63.5645C149.307 63.8767 149.26 64.2534 149.26 64.6948ZM157.895 65.012H154.969V62.097H157.895V65.012ZM157.351 64.5588V62.5551H155.513V64.5588H157.351ZM155.684 65.7218H156.238V67.2473H159.939V67.7105H155.684V65.7218ZM159.088 61.518H159.647V63.4462H160.598V63.9195H159.647V66.1598H159.088V61.518ZM168.043 66.336H167.48V65.6765H166.176V65.2687H167.48V61.5281H168.043V66.336ZM162.792 64.4582C163.628 64.4548 164.374 64.4422 165.03 64.4204C165.688 64.3969 166.315 64.3474 166.911 64.2719L166.951 64.6797C166.426 64.7636 165.845 64.8248 165.209 64.8634V66.1145H164.65V64.8911C164.219 64.9079 163.727 64.9163 163.175 64.9163H162.868L162.792 64.4582ZM163.301 62.8874C163.301 62.6692 163.366 62.4771 163.497 62.3109C163.628 62.1431 163.813 62.0139 164.051 61.9233C164.289 61.831 164.563 61.7848 164.872 61.7848C165.177 61.7848 165.448 61.831 165.685 61.9233C165.921 62.0139 166.105 62.1431 166.236 62.3109C166.369 62.4771 166.436 62.6692 166.437 62.8874C166.436 63.1089 166.369 63.3027 166.236 63.4689C166.105 63.6333 165.921 63.7609 165.685 63.8515C165.45 63.9404 165.179 63.9849 164.872 63.9849C164.561 63.9849 164.287 63.9404 164.049 63.8515C163.812 63.7626 163.628 63.635 163.497 63.4689C163.366 63.3027 163.301 63.1089 163.301 62.8874ZM163.704 65.8628H164.263V67.2473H168.2V67.7105H163.704V65.8628ZM163.835 62.8874C163.833 63.0233 163.875 63.1425 163.96 63.2448C164.048 63.3472 164.17 63.4269 164.328 63.484C164.486 63.5394 164.667 63.567 164.872 63.567C165.07 63.567 165.247 63.5394 165.403 63.484C165.559 63.4269 165.681 63.3472 165.768 63.2448C165.857 63.1425 165.902 63.0233 165.904 62.8874C165.902 62.7531 165.857 62.6348 165.768 62.5325C165.681 62.4284 165.559 62.3479 165.403 62.2908C165.247 62.2337 165.07 62.206 164.872 62.2077C164.667 62.206 164.486 62.2337 164.328 62.2908C164.17 62.3479 164.048 62.4284 163.96 62.5325C163.875 62.6348 163.833 62.7531 163.835 62.8874Z" fill="#09101D"/>
<path d="M144.854 92.1695L146.611 90.3168C146.843 90.0701 147.019 89.8721 147.14 89.7227C147.263 89.5717 147.356 89.4265 147.419 89.2872C147.483 89.1462 147.516 88.9994 147.518 88.8467C147.516 88.6722 147.47 88.5186 147.379 88.386C147.29 88.2535 147.168 88.1511 147.012 88.0789C146.857 88.0068 146.684 87.9707 146.491 87.9707C146.289 87.9707 146.112 88.011 145.959 88.0915C145.808 88.1721 145.692 88.2853 145.61 88.4313C145.529 88.5773 145.489 88.746 145.489 88.9373H144.88C144.878 88.6386 144.947 88.3743 145.088 88.1444C145.231 87.9128 145.427 87.7332 145.675 87.6057C145.923 87.4765 146.202 87.4119 146.511 87.4119C146.816 87.4119 147.091 87.4756 147.334 87.6032C147.579 87.729 147.77 87.901 147.908 88.1192C148.045 88.3374 148.115 88.5799 148.117 88.8467C148.115 89.043 148.078 89.231 148.006 89.4106C147.935 89.5884 147.815 89.7865 147.646 90.0046C147.478 90.2228 147.239 90.4913 146.929 90.8102L145.75 92.0285V92.0688H148.207V92.6377H144.859L144.854 92.1695ZM150.82 92.7082C150.512 92.7082 150.234 92.6494 149.984 92.532C149.734 92.4145 149.534 92.2526 149.385 92.0461C149.237 91.838 149.156 91.6039 149.143 91.3438H149.767C149.782 91.4949 149.838 91.6316 149.933 91.7541C150.031 91.875 150.157 91.9706 150.311 92.0411C150.467 92.1099 150.637 92.1443 150.82 92.1443C151.039 92.1443 151.237 92.0948 151.411 91.9958C151.587 91.8968 151.725 91.7608 151.824 91.588C151.923 91.4151 151.972 91.2213 151.972 91.0065C151.972 90.7867 151.92 90.5886 151.816 90.4124C151.714 90.2345 151.571 90.0953 151.388 89.9946C151.207 89.8922 151.002 89.8402 150.774 89.8385C150.314 89.8335 149.994 89.9879 149.813 90.3017H149.193L149.556 87.4823H152.35V88.0512H150.089L149.898 89.5616H149.954C150.069 89.471 150.209 89.3988 150.374 89.3451C150.54 89.2914 150.712 89.2646 150.89 89.2646C151.214 89.2646 151.505 89.3392 151.763 89.4886C152.024 89.6363 152.227 89.8419 152.375 90.1053C152.523 90.3671 152.597 90.6625 152.597 90.9914C152.597 91.3186 152.52 91.6132 152.368 91.875C152.215 92.1351 152.003 92.339 151.733 92.4867C151.463 92.6343 151.158 92.7082 150.82 92.7082ZM158.288 90.3772H155.363V87.4622H158.288V90.3772ZM157.744 89.9241V87.9203H155.906V89.9241H157.744ZM156.078 91.0871H156.631V92.6125H160.332V93.0757H156.078V91.0871ZM159.481 86.8832H160.04V88.8115H160.991V89.2847H160.04V91.5251H159.481V86.8832ZM168.437 91.7013H167.873V91.0417H166.569V90.634H167.873V86.8933H168.437V91.7013ZM163.186 89.8234C164.021 89.82 164.767 89.8074 165.423 89.7856C166.081 89.7621 166.708 89.7126 167.304 89.6371L167.344 90.0449C166.819 90.1288 166.238 90.1901 165.602 90.2287V91.4798H165.043V90.2564C164.612 90.2731 164.12 90.2815 163.568 90.2815H163.261L163.186 89.8234ZM163.694 88.2526C163.694 88.0345 163.76 87.8423 163.89 87.6762C164.021 87.5083 164.206 87.3791 164.444 87.2885C164.683 87.1962 164.956 87.1501 165.265 87.1501C165.57 87.1501 165.841 87.1962 166.078 87.2885C166.315 87.3791 166.498 87.5083 166.629 87.6762C166.762 87.8423 166.829 88.0345 166.831 88.2526C166.829 88.4741 166.762 88.668 166.629 88.8341C166.498 88.9986 166.315 89.1261 166.078 89.2167C165.843 89.3057 165.572 89.3501 165.265 89.3501C164.954 89.3501 164.68 89.3057 164.442 89.2167C164.205 89.1278 164.021 89.0002 163.89 88.8341C163.76 88.668 163.694 88.4741 163.694 88.2526ZM164.097 91.228H164.656V92.6125H168.593V93.0757H164.097V91.228ZM164.228 88.2526C164.226 88.3886 164.268 88.5077 164.354 88.6101C164.441 88.7124 164.563 88.7922 164.721 88.8492C164.879 88.9046 165.06 88.9323 165.265 88.9323C165.463 88.9323 165.64 88.9046 165.796 88.8492C165.952 88.7922 166.074 88.7124 166.161 88.6101C166.25 88.5077 166.295 88.3886 166.297 88.2526C166.295 88.1184 166.25 88.0001 166.161 87.8977C166.074 87.7936 165.952 87.7131 165.796 87.656C165.64 87.599 165.463 87.5713 165.265 87.573C165.06 87.5713 164.879 87.599 164.721 87.656C164.563 87.7131 164.441 87.7936 164.354 87.8977C164.268 88.0001 164.226 88.1184 164.228 88.2526Z" fill="#09101D"/>
<path d="M144.858 117.534L146.615 115.682C146.847 115.435 147.023 115.237 147.144 115.087C147.266 114.936 147.359 114.791 147.423 114.652C147.487 114.511 147.519 114.364 147.521 114.211C147.519 114.037 147.473 113.883 147.383 113.751C147.294 113.618 147.171 113.516 147.015 113.444C146.861 113.372 146.687 113.335 146.494 113.335C146.293 113.335 146.116 113.376 145.963 113.456C145.812 113.537 145.695 113.65 145.613 113.796C145.533 113.942 145.492 114.111 145.492 114.302H144.883C144.881 114.003 144.951 113.739 145.092 113.509C145.235 113.278 145.43 113.098 145.679 112.97C145.927 112.841 146.205 112.777 146.514 112.777C146.82 112.777 147.094 112.84 147.337 112.968C147.582 113.094 147.774 113.266 147.911 113.484C148.049 113.702 148.119 113.945 148.12 114.211C148.119 114.408 148.082 114.596 148.01 114.775C147.939 114.953 147.819 115.151 147.65 115.369C147.482 115.588 147.243 115.856 146.932 116.175L145.754 117.393V117.434H148.211V118.002H144.863L144.858 117.534ZM150.828 118.073C150.449 118.073 150.124 117.97 149.854 117.763C149.585 117.555 149.38 117.253 149.237 116.857C149.096 116.461 149.026 115.984 149.026 115.425C149.026 114.871 149.097 114.396 149.24 114C149.382 113.602 149.589 113.299 149.859 113.091C150.129 112.881 150.452 112.777 150.828 112.777C151.204 112.777 151.527 112.881 151.797 113.091C152.067 113.299 152.274 113.602 152.416 114C152.559 114.396 152.63 114.871 152.63 115.425C152.63 115.984 152.559 116.461 152.416 116.857C152.276 117.253 152.07 117.555 151.8 117.763C151.531 117.97 151.207 118.073 150.828 118.073ZM149.65 115.425C149.65 115.866 149.696 116.243 149.788 116.555C149.881 116.865 150.015 117.101 150.191 117.262C150.367 117.423 150.58 117.504 150.828 117.504C151.076 117.504 151.289 117.423 151.465 117.262C151.641 117.101 151.775 116.865 151.868 116.555C151.96 116.243 152.006 115.866 152.006 115.425C152.006 114.983 151.959 114.607 151.865 114.295C151.773 113.981 151.639 113.742 151.462 113.58C151.286 113.417 151.075 113.335 150.828 113.335C150.581 113.335 150.37 113.417 150.194 113.58C150.018 113.742 149.882 113.981 149.788 114.295C149.696 114.607 149.65 114.983 149.65 115.425ZM158.284 115.742H155.359V112.827H158.284V115.742ZM157.74 115.289V113.285H155.903V115.289H157.74ZM156.074 116.452H156.628V117.977H160.328V118.44H156.074V116.452ZM159.477 112.248H160.036V114.176H160.988V114.649H160.036V116.89H159.477V112.248ZM168.433 117.066H167.869V116.406H166.565V115.999H167.869V112.258H168.433V117.066ZM163.182 115.188C164.018 115.185 164.764 115.172 165.42 115.15C166.078 115.127 166.705 115.077 167.3 115.002L167.341 115.41C166.815 115.494 166.235 115.555 165.599 115.593V116.844H165.04V115.621C164.609 115.638 164.117 115.646 163.565 115.646H163.258L163.182 115.188ZM163.691 113.617C163.691 113.399 163.756 113.207 163.887 113.041C164.018 112.873 164.202 112.744 164.441 112.653C164.679 112.561 164.953 112.515 165.261 112.515C165.567 112.515 165.838 112.561 166.074 112.653C166.311 112.744 166.495 112.873 166.626 113.041C166.758 113.207 166.825 113.399 166.827 113.617C166.825 113.839 166.758 114.033 166.626 114.199C166.495 114.363 166.311 114.491 166.074 114.581C165.839 114.67 165.568 114.715 165.261 114.715C164.951 114.715 164.677 114.67 164.438 114.581C164.202 114.493 164.018 114.365 163.887 114.199C163.756 114.033 163.691 113.839 163.691 113.617ZM164.093 116.593H164.652V117.977H168.589V118.44H164.093V116.593ZM164.224 113.617C164.223 113.753 164.265 113.872 164.35 113.975C164.437 114.077 164.56 114.157 164.718 114.214C164.875 114.269 165.057 114.297 165.261 114.297C165.459 114.297 165.636 114.269 165.792 114.214C165.949 114.157 166.07 114.077 166.157 113.975C166.246 113.872 166.292 113.753 166.293 113.617C166.292 113.483 166.246 113.365 166.157 113.262C166.07 113.158 165.949 113.078 165.792 113.021C165.636 112.964 165.459 112.936 165.261 112.938C165.057 112.936 164.875 112.964 164.718 113.021C164.56 113.078 164.437 113.158 164.35 113.262C164.265 113.365 164.223 113.483 164.224 113.617Z" fill="#09101D"/>
<path d="M147.723 143.368H147.079V138.882H147.048L145.795 139.713V139.068L147.079 138.212H147.723V143.368ZM150.778 143.438C150.471 143.438 150.193 143.379 149.943 143.262C149.693 143.144 149.493 142.983 149.344 142.776C149.196 142.568 149.115 142.334 149.102 142.074H149.726C149.741 142.225 149.797 142.362 149.892 142.484C149.99 142.605 150.116 142.701 150.27 142.771C150.426 142.84 150.596 142.874 150.778 142.874C150.998 142.874 151.195 142.825 151.37 142.726C151.546 142.627 151.684 142.491 151.783 142.318C151.882 142.145 151.931 141.951 151.931 141.736C151.931 141.517 151.879 141.319 151.775 141.142C151.673 140.965 151.53 140.825 151.347 140.725C151.166 140.622 150.961 140.57 150.733 140.568C150.273 140.563 149.953 140.718 149.772 141.032H149.152L149.515 138.212H152.309V138.781H150.048L149.857 140.292H149.913C150.028 140.201 150.168 140.129 150.333 140.075C150.499 140.021 150.671 139.995 150.849 139.995C151.173 139.995 151.464 140.069 151.722 140.219C151.983 140.366 152.186 140.572 152.334 140.835C152.482 141.097 152.556 141.392 152.556 141.721C152.556 142.049 152.479 142.343 152.327 142.605C152.174 142.865 151.962 143.069 151.692 143.217C151.422 143.364 151.117 143.438 150.778 143.438ZM158.247 141.107H155.322V138.192H158.247V141.107ZM157.703 140.654V138.65H155.865V140.654H157.703ZM156.037 141.817H156.59V143.343H160.291V143.806H156.037V141.817ZM159.44 137.613H159.999V139.541H160.95V140.015H159.999V142.255H159.44V137.613ZM168.396 142.431H167.832V141.772H166.528V141.364H167.832V137.623H168.396V142.431ZM163.145 140.553C163.98 140.55 164.726 140.537 165.382 140.516C166.04 140.492 166.667 140.443 167.263 140.367L167.303 140.775C166.778 140.859 166.197 140.92 165.561 140.959V142.21H165.002V140.986C164.571 141.003 164.079 141.012 163.527 141.012H163.22L163.145 140.553ZM163.653 138.983C163.653 138.764 163.719 138.572 163.849 138.406C163.98 138.238 164.165 138.109 164.403 138.018C164.642 137.926 164.915 137.88 165.224 137.88C165.529 137.88 165.8 137.926 166.037 138.018C166.274 138.109 166.457 138.238 166.588 138.406C166.721 138.572 166.788 138.764 166.79 138.983C166.788 139.204 166.721 139.398 166.588 139.564C166.457 139.729 166.274 139.856 166.037 139.947C165.802 140.036 165.531 140.08 165.224 140.08C164.913 140.08 164.639 140.036 164.401 139.947C164.164 139.858 163.98 139.73 163.849 139.564C163.719 139.398 163.653 139.204 163.653 138.983ZM164.056 141.958H164.615V143.343H168.552V143.806H164.056V141.958ZM164.187 138.983C164.185 139.119 164.227 139.238 164.313 139.34C164.4 139.442 164.522 139.522 164.68 139.579C164.838 139.635 165.019 139.662 165.224 139.662C165.422 139.662 165.599 139.635 165.755 139.579C165.911 139.522 166.033 139.442 166.12 139.34C166.209 139.238 166.254 139.119 166.256 138.983C166.254 138.848 166.209 138.73 166.12 138.628C166.033 138.524 165.911 138.443 165.755 138.386C165.599 138.329 165.422 138.301 165.224 138.303C165.019 138.301 164.838 138.329 164.68 138.386C164.522 138.443 164.4 138.524 164.313 138.628C164.227 138.73 164.185 138.848 164.187 138.983Z" fill="#09101D"/>
<path d="M147.726 163.577V168.732H147.082V164.247H147.052L145.798 165.077V164.433L147.082 163.577H147.726ZM150.787 168.803C149.644 168.803 148.985 167.841 148.985 166.155C148.985 164.483 149.654 163.507 150.787 163.507C151.92 163.507 152.589 164.483 152.589 166.155C152.589 167.841 151.93 168.803 150.787 168.803ZM149.609 166.155C149.609 167.489 150.042 168.234 150.787 168.234C151.532 168.234 151.965 167.489 151.965 166.155C151.965 164.821 151.527 164.065 150.787 164.065C150.047 164.065 149.609 164.821 149.609 166.155ZM158.243 163.557V166.472H155.318V163.557H158.243ZM155.862 166.019H157.699V164.015H155.862V166.019ZM156.033 169.17V167.182H156.587V168.707H160.287V169.17H156.033ZM159.436 167.62V162.978H159.995V164.906H160.947V165.379H159.995V167.62H159.436ZM168.392 162.988V167.796H167.828V167.136H166.524V166.729H167.828V162.988H168.392ZM163.141 165.918C164.319 165.913 165.905 165.903 167.259 165.732L167.3 166.14C166.733 166.23 166.142 166.288 165.558 166.323V167.574H164.999V166.351C164.359 166.376 163.748 166.379 163.217 166.376L163.141 165.918ZM163.65 164.347C163.65 163.683 164.284 163.245 165.22 163.245C166.147 163.245 166.781 163.683 166.786 164.347C166.781 165.022 166.147 165.445 165.22 165.445C164.284 165.445 163.65 165.022 163.65 164.347ZM164.052 169.17V167.323H164.611V168.707H168.548V169.17H164.052ZM164.183 164.347C164.178 164.76 164.601 165.027 165.22 165.027C165.819 165.027 166.247 164.76 166.252 164.347C166.247 163.94 165.819 163.663 165.22 163.668C164.601 163.663 164.178 163.94 164.183 164.347Z" fill="#09101D"/>
<path d="M150.68 194.168C149.749 194.168 149.044 193.594 149.004 192.804H149.628C149.673 193.262 150.121 193.604 150.68 193.604C151.35 193.604 151.833 193.116 151.833 192.466C151.833 191.797 151.33 191.303 150.635 191.298C150.202 191.293 149.865 191.429 149.673 191.762H149.054L149.417 188.942H152.211V189.511H149.95L149.759 191.022H149.814C150.041 190.845 150.388 190.725 150.751 190.725C151.732 190.725 152.457 191.449 152.457 192.451C152.457 193.448 151.707 194.168 150.68 194.168ZM158.148 188.922V191.837H155.223V188.922H158.148ZM155.767 191.384H157.605V189.38H155.767V191.384ZM155.938 194.536V192.547H156.492V194.072H160.192V194.536H155.938ZM159.342 192.985V188.343H159.9V190.271H160.852V190.745H159.9V192.985H159.342ZM168.297 188.353V193.161H167.733V192.502H166.43V192.094H167.733V188.353H168.297ZM163.046 191.283C164.224 191.278 165.81 191.268 167.165 191.097L167.205 191.505C166.638 191.595 166.047 191.653 165.463 191.689V192.94H164.904V191.716C164.265 191.741 163.653 191.744 163.122 191.741L163.046 191.283ZM163.555 189.713C163.555 189.048 164.189 188.61 165.126 188.61C166.052 188.61 166.686 189.048 166.691 189.713C166.686 190.387 166.052 190.81 165.126 190.81C164.189 190.81 163.555 190.387 163.555 189.713ZM163.958 194.536V192.688H164.516V194.072H168.453V194.536H163.958ZM164.088 189.713C164.083 190.125 164.506 190.392 165.126 190.392C165.725 190.392 166.153 190.125 166.158 189.713C166.153 189.305 165.725 189.028 165.126 189.033C164.506 189.028 164.083 189.305 164.088 189.713Z" fill="#09101D"/>
</g>
<defs>
<filter id="filter0_dd_189_13368" x="0" y="0" width="546" height="296" filterUnits="userSpaceOnUse" color-interpolation-filters="sRGB">
<feFlood flood-opacity="0" result="BackgroundImageFix"/>
<feColorMatrix in="SourceAlpha" type="matrix" values="0 0 0 0 0 0 0 0 0 0 0 0 0 0 0 0 0 0 127 0" result="hardAlpha"/>
<feOffset dx="5" dy="5"/>
<feGaussianBlur stdDeviation="5"/>
<feComposite in2="hardAlpha" operator="out"/>
<feColorMatrix type="matrix" values="0 0 0 0 0.545098 0 0 0 0 0.54902 0 0 0 0 0.627451 0 0 0 0.25 0"/>
<feBlend mode="multiply" in2="BackgroundImageFix" result="effect1_dropShadow_189_13368"/>
<feColorMatrix in="SourceAlpha" type="matrix" values="0 0 0 0 0 0 0 0 0 0 0 0 0 0 0 0 0 0 127 0" result="hardAlpha"/>
<feOffset dx="10" dy="10"/>
<feGaussianBlur stdDeviation="15"/>
<feComposite in2="hardAlpha" operator="out"/>
<feColorMatrix type="matrix" values="0 0 0 0 0.545098 0 0 0 0 0.54902 0 0 0 0 0.627451 0 0 0 0.15 0"/>
<feBlend mode="multiply" in2="effect1_dropShadow_189_13368" result="effect2_dropShadow_189_13368"/>
<feBlend mode="normal" in="SourceGraphic" in2="effect2_dropShadow_189_13368" result="shape"/>
</filter>
<filter id="filter1_ddd_189_13368" x="174.912" y="41.2623" width="315.9" height="182.25" filterUnits="userSpaceOnUse" color-interpolation-filters="sRGB">
<feFlood flood-opacity="0" result="BackgroundImageFix"/>
<feColorMatrix in="SourceAlpha" type="matrix" values="0 0 0 0 0 0 0 0 0 0 0 0 0 0 0 0 0 0 127 0" result="hardAlpha"/>
<feOffset dx="3.0375" dy="3.0375"/>
<feGaussianBlur stdDeviation="3.0375"/>
<feComposite in2="hardAlpha" operator="out"/>
<feColorMatrix type="matrix" values="0 0 0 0 0.545098 0 0 0 0 0.54902 0 0 0 0 0.627451 0 0 0 0.25 0"/>
<feBlend mode="multiply" in2="BackgroundImageFix" result="effect1_dropShadow_189_13368"/>
<feColorMatrix in="SourceAlpha" type="matrix" values="0 0 0 0 0 0 0 0 0 0 0 0 0 0 0 0 0 0 127 0" result="hardAlpha"/>
<feOffset dx="1.215" dy="1.215"/>
<feGaussianBlur stdDeviation="1.51875"/>
<feComposite in2="hardAlpha" operator="out"/>
<feColorMatrix type="matrix" values="0 0 0 0 0.545098 0 0 0 0 0.54902 0 0 0 0 0.627451 0 0 0 0.1 0"/>
<feBlend mode="multiply" in2="effect1_dropShadow_189_13368" result="effect2_dropShadow_189_13368"/>
<feColorMatrix in="SourceAlpha" type="matrix" values="0 0 0 0 0 0 0 0 0 0 0 0 0 0 0 0 0 0 127 0" result="hardAlpha"/>
<feOffset dx="-0.6075" dy="-0.6075"/>
<feGaussianBlur stdDeviation="0.6075"/>
<feComposite in2="hardAlpha" operator="out"/>
<feColorMatrix type="matrix" values="0 0 0 0 1 0 0 0 0 1 0 0 0 0 1 0 0 0 0.25 0"/>
<feBlend mode="soft-light" in2="effect2_dropShadow_189_13368" result="effect3_dropShadow_189_13368"/>
<feBlend mode="normal" in="SourceGraphic" in2="effect3_dropShadow_189_13368" result="shape"/>
</filter>
</defs>
</svg>
