<svg width="401" height="395" viewBox="0 0 401 395" fill="none" xmlns="http://www.w3.org/2000/svg">
<g clip-path="url(#clip0_191_8377)">
<path d="M168.933 135.796C168.522 120.097 166.27 46.5053 166.237 46.5053C78.6483 49.7489 12.168 65.5555 12.168 84.5728C12.168 99.4574 53.6113 152.805 112.612 141.575V139.682C129.963 137.805 148.918 136.471 168.941 135.796H168.933Z" fill="#EBD5C7"/>
<path opacity="0.15" d="M112.613 141.575V139.682C129.644 137.838 148.228 136.529 167.832 135.837C167.084 111.106 166.254 84.2351 166.238 84.2351C101.475 86.6308 48.2613 95.9007 24.9258 108.258C41.5294 127.703 73.1421 149.092 112.613 141.583V141.575Z" fill="#D29D7E"/>
<path d="M143.152 24.8454H92.6178C91.4784 24.8454 90.5547 25.7706 90.5547 26.9118V90.1876C90.5547 91.3288 91.4784 92.254 92.6178 92.254H143.152C144.292 92.254 145.215 91.3288 145.215 90.1876V26.9118C145.215 25.7706 144.292 24.8454 143.152 24.8454Z" fill="#09101D"/>
<path d="M129.667 43.0803V32.6825C123.929 32.6825 119.285 37.3339 119.285 43.0803C119.285 48.8266 123.929 53.4781 129.667 53.4781C135.404 53.4781 140.048 48.8266 140.048 43.0803H129.667Z" fill="white"/>
<path d="M140.502 40.2898C140.502 35.3832 136.532 31.4068 131.633 31.4068V40.2898H140.502Z" fill="#D29D7E"/>
<path d="M114.072 35.4653H97.411C97.1808 35.4653 97 35.2842 97 35.0537C97 34.8232 97.1808 34.6421 97.411 34.6421H114.072C114.302 34.6421 114.483 34.8232 114.483 35.0537C114.483 35.2842 114.302 35.4653 114.072 35.4653Z" fill="white"/>
<path d="M132.17 82.3419H118.263C118.032 82.3419 117.852 82.1608 117.852 81.9303C117.852 81.6997 118.032 81.5186 118.263 81.5186H132.17C132.4 81.5186 132.581 81.6997 132.581 81.9303C132.581 82.1608 132.4 82.3419 132.17 82.3419Z" fill="white"/>
<path d="M112.354 45.6735H97.411C97.1808 45.6735 97 45.4924 97 45.2619C97 45.0314 97.1808 44.8502 97.411 44.8502H112.354C112.584 44.8502 112.765 45.0314 112.765 45.2619C112.765 45.4924 112.584 45.6735 112.354 45.6735Z" fill="white"/>
<path d="M116.513 53.8903H97.411C97.1808 53.8903 97 53.7092 97 53.4787C97 53.2482 97.1808 53.067 97.411 53.067H116.513C116.744 53.067 116.924 53.2482 116.924 53.4787C116.924 53.7092 116.744 53.8903 116.513 53.8903Z" fill="white"/>
<path d="M132.172 62.1804H97.411C97.1808 62.1804 97 61.9993 97 61.7688C97 61.5383 97.1808 61.3572 97.411 61.3572H132.172C132.402 61.3572 132.583 61.5383 132.583 61.7688C132.583 61.9993 132.402 62.1804 132.172 62.1804Z" fill="white"/>
<path d="M132.172 71.1455H97.411C97.1808 71.1455 97 70.9644 97 70.7339C97 70.5034 97.1808 70.3223 97.411 70.3223H132.172C132.402 70.3223 132.583 70.5034 132.583 70.7339C132.583 70.9644 132.402 71.1455 132.172 71.1455Z" fill="white"/>
<path d="M62.022 129.432C61.7015 129.432 61.3727 129.309 61.1343 129.054C60.6658 128.56 60.6822 127.777 61.1672 127.308L100.227 89.8169C100.564 89.4959 101.008 89.3395 101.476 89.3888C101.937 89.4382 102.348 89.677 102.611 90.0557L110.797 101.927L141.185 62.8469C141.539 62.3941 142.098 62.1719 142.665 62.2542C143.224 62.3365 143.701 62.7234 143.898 63.2586L149.035 76.9658L177.927 41.4092C178.354 40.8823 179.135 40.8 179.661 41.2281C180.187 41.6562 180.27 42.4383 179.842 42.9652L149.972 79.732C149.619 80.1683 149.051 80.3824 148.493 80.2918C147.934 80.2013 147.473 79.8143 147.276 79.2874L142.155 65.6131L111.997 104.397C111.693 104.792 111.2 105.014 110.707 105.006C110.206 104.99 109.737 104.734 109.458 104.323L101.172 92.3114L62.8687 129.078C62.6303 129.309 62.3262 129.424 62.0138 129.424L62.022 129.432Z" fill="#B1B7BD"/>
<path d="M179.527 51.8236C179.478 51.8236 179.428 51.8236 179.379 51.8153C178.705 51.733 178.22 51.1238 178.302 50.4405L179.379 41.4505L170.674 44.3072C170.025 44.5213 169.335 44.1673 169.121 43.5169C168.907 42.8665 169.261 42.175 169.91 41.9609L179.938 38.6679C180.448 38.495 181.007 38.602 181.426 38.9478C181.845 39.2936 182.059 39.8204 181.993 40.3556L180.752 50.7369C180.678 51.3626 180.143 51.8236 179.527 51.8236Z" fill="#B1B7BD"/>
<path d="M105.774 70.0666H72.4678C71.2149 70.0666 70.1992 71.0839 70.1992 72.3388V101.457C70.1992 102.712 71.2149 103.73 72.4678 103.73H105.774C107.027 103.73 108.042 102.712 108.042 101.457V72.3388C108.042 71.0839 107.027 70.0666 105.774 70.0666Z" fill="#B1B7BD"/>
<path d="M105.774 104.141H72.4765C70.9969 104.141 69.7969 102.939 69.7969 101.458V72.3389C69.7969 70.857 70.9969 69.6551 72.4765 69.6551H105.774C107.254 69.6551 108.454 70.857 108.454 72.3389V101.458C108.454 102.939 107.254 104.141 105.774 104.141ZM72.4765 70.4783C71.449 70.4783 70.6188 71.3098 70.6188 72.3389V101.458C70.6188 102.487 71.449 103.318 72.4765 103.318H105.774C106.802 103.318 107.632 102.487 107.632 101.458V72.3389C107.632 71.3098 106.802 70.4783 105.774 70.4783H72.4765Z" fill="#B1B7BD"/>
<path d="M78.4521 77.4514H100.094C100.785 77.4514 101.336 78.0112 101.336 78.6945V93.3156C101.336 94.0072 100.777 94.5588 100.094 94.5588H78.4521C77.7617 94.5588 77.2109 93.9989 77.2109 93.3156V78.6945C77.2109 78.003 77.7699 77.4514 78.4521 77.4514Z" fill="white"/>
<path d="M77.2103 95.5797C77.0952 95.5797 76.9719 95.5303 76.8979 95.4315C76.75 95.2586 76.7746 94.9952 76.9472 94.8552L88.7013 85.0008C88.8493 84.8773 89.0712 84.8691 89.2192 85.0008L101.286 94.74C101.458 94.8799 101.491 95.1434 101.351 95.3163C101.212 95.4891 100.949 95.5221 100.776 95.3821L88.9726 85.857L77.4733 95.4974C77.3993 95.5632 77.3007 95.5962 77.2103 95.5962V95.5797Z" fill="#B1B7BD"/>
<path d="M77.2148 77.8299L86.2811 85.0581C87.9415 86.3835 90.3005 86.3753 91.9526 85.0416L101.035 77.7311" fill="white"/>
<path d="M89.1088 86.4743C88.0238 86.4743 86.9306 86.1121 86.0264 85.3876L76.9602 78.1594C76.7793 78.0194 76.7547 77.756 76.8944 77.5831C77.0341 77.402 77.2972 77.3773 77.4698 77.5172L86.536 84.7455C88.0567 85.9557 90.1773 85.9557 91.698 84.729L100.781 77.4184C100.953 77.2785 101.216 77.3032 101.356 77.4843C101.496 77.6654 101.471 77.9206 101.29 78.0606L92.2076 85.3711C91.2952 86.1038 90.202 86.4743 89.1006 86.4743H89.1088Z" fill="#B1B7BD"/>
<path d="M386.653 84.5724C386.653 68.2389 337.631 54.2764 268.315 48.6041C268.035 48.5794 267.879 113.889 267.896 133.581C288.264 135.228 306.89 137.599 323.049 140.529C361.739 130.774 386.653 96.1145 386.653 84.5724Z" fill="#EBD5C7"/>
<path opacity="0.15" d="M371.672 110.76C352.093 101.292 314.76 93.7678 268.31 89.9644C268.146 89.9479 268.031 111.501 267.957 133.581C288.301 135.227 306.902 137.598 323.045 140.521C343.791 135.285 360.568 122.903 371.672 110.752V110.76Z" fill="#D29D7E"/>
<path d="M323.014 74.775H293.563C292.424 74.775 291.5 75.7002 291.5 76.8414V106.339C291.5 107.48 292.424 108.405 293.563 108.405H323.014C324.153 108.405 325.077 107.48 325.077 106.339V76.8414C325.077 75.7002 324.153 74.775 323.014 74.775Z" fill="#09101D"/>
<path d="M309.63 101.275C309.424 101.275 309.235 101.193 309.087 101.053C308.931 100.905 308.841 100.691 308.841 100.477V90.9186H299.281C299.068 90.9186 298.862 90.828 298.714 90.6798C298.566 90.5234 298.492 90.3258 298.492 90.1118C298.599 87.1316 299.955 84.2996 302.216 82.3484C304.501 80.3726 307.435 79.467 310.468 79.7963C315.408 80.3397 319.395 84.3325 319.937 89.2803C320.274 92.3181 319.37 95.2489 317.397 97.5376C315.449 99.8016 312.63 101.16 309.654 101.275C309.646 101.275 309.63 101.275 309.622 101.275H309.63ZM309.252 90.0953H309.663V100.477C312.375 100.353 314.981 99.0936 316.781 97.0025C318.606 94.8867 319.436 92.1782 319.123 89.3709C318.622 84.8018 314.948 81.1218 310.386 80.6114C307.583 80.2985 304.871 81.1383 302.758 82.9659C300.67 84.7688 299.421 87.3868 299.322 90.1365L309.252 90.0871V90.0953Z" fill="white"/>
<path d="M306.844 104.033C306.844 104.033 306.819 104.033 306.811 104.033C300.851 103.786 295.985 98.9207 295.739 92.952C295.731 92.7215 295.813 92.4992 295.977 92.3263C296.142 92.1535 296.372 92.0547 296.602 92.0547H306.835C307.312 92.0547 307.69 92.4416 307.69 92.9109V103.169C307.69 103.399 307.592 103.63 307.427 103.794C307.263 103.951 307.057 104.033 306.835 104.033H306.844ZM296.602 92.8779L296.561 92.9109C296.783 98.4596 301.304 102.979 306.844 103.21L306.876 92.9109L296.602 92.8779Z" fill="#D29D7E"/>
<path d="M322.691 34.2789H369.879C371.129 34.2789 372.148 35.2998 372.148 36.5511V79.4759C372.148 80.7273 371.129 81.7481 369.879 81.7481H322.691C321.441 81.7481 320.422 80.7273 320.422 79.4759V36.5511C320.422 35.2998 321.441 34.2789 322.691 34.2789Z" fill="#B1B7BD"/>
<path d="M369.88 82.1599H322.691C321.212 82.1599 320.012 80.9579 320.012 79.476V36.5512C320.012 35.0693 321.212 33.8674 322.691 33.8674H369.88C371.36 33.8674 372.56 35.0693 372.56 36.5512V79.476C372.56 80.9579 371.36 82.1599 369.88 82.1599ZM322.691 34.6906C321.664 34.6906 320.834 35.5221 320.834 36.5512V79.476C320.834 80.5051 321.664 81.3366 322.691 81.3366H369.88C370.908 81.3366 371.738 80.5051 371.738 79.476V36.5512C371.738 35.5221 370.908 34.6906 369.88 34.6906H322.691Z" fill="#B1B7BD"/>
<path d="M346.285 73.17C354.642 73.17 361.417 66.3844 361.417 58.0138C361.417 49.6433 354.642 42.8576 346.285 42.8576C337.927 42.8576 331.152 49.6433 331.152 58.0138C331.152 66.3844 337.927 73.17 346.285 73.17Z" fill="white"/>
<path d="M351.489 58.4255H345.875V49.5673C345.875 49.3367 346.056 49.1556 346.286 49.1556C346.516 49.1556 346.697 49.3367 346.697 49.5673V57.6023H351.489C351.719 57.6023 351.9 57.7834 351.9 58.0139C351.9 58.2444 351.719 58.4255 351.489 58.4255Z" fill="#B1B7BD"/>
<path d="M274.008 99.6631C279.851 99.6631 284.587 94.9194 284.587 89.0677C284.587 83.2161 279.851 78.4724 274.008 78.4724C268.166 78.4724 263.43 83.2161 263.43 89.0677C263.43 94.9194 268.166 99.6631 274.008 99.6631Z" fill="#D29D7E"/>
<path d="M273.791 92.0647C273.536 92.0647 273.281 91.9659 273.084 91.7683L269.311 87.9895C269.146 87.8249 269.146 87.5697 269.311 87.405C269.475 87.2404 269.73 87.2404 269.894 87.405L273.667 91.1838C273.741 91.2579 273.848 91.2579 273.922 91.1838L283.81 81.28C283.975 81.1153 284.229 81.1153 284.394 81.28C284.558 81.4446 284.558 81.6998 284.394 81.8645L274.506 91.7683C274.308 91.9659 274.054 92.0647 273.799 92.0647H273.791Z" fill="#09101D"/>
<path d="M276.917 31.5871C275.322 31.5871 274.023 32.8879 274.023 34.485V54.3503C274.023 55.9474 275.322 57.2482 276.917 57.2482H282.21C284.495 57.2482 286.345 59.1087 286.345 61.3892V66.1065C286.345 66.9791 287.01 67.3249 287.216 67.4072C287.421 67.4895 288.137 67.72 288.753 67.1026L297.384 58.4584C298.156 57.6845 299.217 57.2482 300.31 57.2482H310.93C312.524 57.2482 313.831 55.9474 313.831 54.3503V34.485C313.831 32.8879 312.532 31.5871 310.93 31.5871H276.917Z" fill="#D29D7E"/>
<path d="M285.048 48.0274C283.511 48.0274 282.262 46.7761 282.262 45.2366C282.262 43.6971 283.511 42.4457 285.048 42.4457C286.585 42.4457 287.835 43.6971 287.835 45.2366C287.835 46.7761 286.585 48.0274 285.048 48.0274ZM285.048 43.269C283.963 43.269 283.084 44.1499 283.084 45.2366C283.084 46.3233 283.963 47.2042 285.048 47.2042C286.133 47.2042 287.013 46.3233 287.013 45.2366C287.013 44.1499 286.133 43.269 285.048 43.269Z" fill="#09101D"/>
<path d="M293.88 48.0274C292.343 48.0274 291.094 46.7761 291.094 45.2366C291.094 43.6971 292.343 42.4457 293.88 42.4457C295.417 42.4457 296.667 43.6971 296.667 45.2366C296.667 46.7761 295.417 48.0274 293.88 48.0274ZM293.88 43.269C292.795 43.269 291.916 44.1499 291.916 45.2366C291.916 46.3233 292.795 47.2042 293.88 47.2042C294.965 47.2042 295.845 46.3233 295.845 45.2366C295.845 44.1499 294.965 43.269 293.88 43.269Z" fill="#09101D"/>
<path d="M302.618 48.0274C301.081 48.0274 299.832 46.7761 299.832 45.2366C299.832 43.6971 301.081 42.4457 302.618 42.4457C304.156 42.4457 305.405 43.6971 305.405 45.2366C305.405 46.7761 304.156 48.0274 302.618 48.0274ZM302.618 43.269C301.533 43.269 300.654 44.1499 300.654 45.2366C300.654 46.3233 301.533 47.2042 302.618 47.2042C303.703 47.2042 304.583 46.3233 304.583 45.2366C304.583 44.1499 303.703 43.269 302.618 43.269Z" fill="#09101D"/>
<path d="M48.6495 50.5309C47.7206 50.5309 46.9727 51.2883 46.9727 52.2103V63.7278C46.9727 64.658 47.7289 65.4072 48.6495 65.4072H54.806C55.4389 65.4072 56.0553 65.6624 56.4992 66.1152L61.505 71.1289C61.8666 71.4911 62.2776 71.3511 62.3927 71.31C62.5078 71.2606 62.8941 71.063 62.8941 70.5526V67.8193C62.8941 66.4939 63.9708 65.4154 65.2942 65.4154H68.3684C69.2972 65.4154 70.0452 64.658 70.0452 63.736V52.2186C70.0452 51.2883 69.289 50.5391 68.3684 50.5391H48.6412L48.6495 50.5309Z" fill="#D29D7E"/>
<path d="M63.6508 60.2376C62.6645 60.2376 61.8672 59.4308 61.8672 58.4511C61.8672 57.4714 62.6727 56.6646 63.6508 56.6646C64.629 56.6646 65.4345 57.4714 65.4345 58.4511C65.4345 59.4308 64.629 60.2376 63.6508 60.2376ZM63.6508 57.4796C63.1166 57.4796 62.6892 57.916 62.6892 58.4428C62.6892 58.9697 63.1248 59.4061 63.6508 59.4061C64.1769 59.4061 64.6125 58.9697 64.6125 58.4428C64.6125 57.916 64.1769 57.4796 63.6508 57.4796Z" fill="#09101D"/>
<path d="M58.5337 60.2376C57.5473 60.2376 56.75 59.4308 56.75 58.4511C56.75 57.4714 57.5555 56.6646 58.5337 56.6646C59.5118 56.6646 60.3173 57.4714 60.3173 58.4511C60.3173 59.4308 59.5118 60.2376 58.5337 60.2376ZM58.5337 57.4796C57.9994 57.4796 57.572 57.916 57.572 58.4428C57.572 58.9697 58.0076 59.4061 58.5337 59.4061C59.0597 59.4061 59.4954 58.9697 59.4954 58.4428C59.4954 57.916 59.0597 57.4796 58.5337 57.4796Z" fill="#09101D"/>
<path d="M53.4633 60.2376C52.477 60.2376 51.6797 59.4308 51.6797 58.4511C51.6797 57.4714 52.4852 56.6646 53.4633 56.6646C54.4415 56.6646 55.247 57.4714 55.247 58.4511C55.247 59.4308 54.4415 60.2376 53.4633 60.2376ZM53.4633 57.4796C52.9291 57.4796 52.5017 57.916 52.5017 58.4428C52.5017 58.9697 52.9373 59.4061 53.4633 59.4061C53.9894 59.4061 54.425 58.9697 54.425 58.4428C54.425 57.916 53.9894 57.4796 53.4633 57.4796Z" fill="#09101D"/>
<path d="M172.447 7.91091C172.447 9.17873 171.419 10.216 170.145 10.216C168.871 10.216 167.844 9.18696 167.844 7.91091C167.844 6.63486 168.871 5.60578 170.145 5.60578C171.419 5.60578 172.447 6.63486 172.447 7.91091Z" fill="#D29D7E"/>
<path d="M11.7195 230.883C12.9905 230.883 14.021 229.851 14.021 228.578C14.021 227.305 12.9905 226.273 11.7195 226.273C10.4484 226.273 9.41797 227.305 9.41797 228.578C9.41797 229.851 10.4484 230.883 11.7195 230.883Z" fill="#D29D7E"/>
<path d="M335.189 236.036C335.189 237.304 334.161 238.341 332.887 238.341C331.613 238.341 330.586 237.312 330.586 236.036C330.586 234.76 331.613 233.731 332.887 233.731C334.161 233.731 335.189 234.76 335.189 236.036Z" fill="#D29D7E"/>
<path d="M388.947 12.5124C388.947 13.7802 387.919 14.8175 386.645 14.8175C385.371 14.8175 384.344 13.7884 384.344 12.5124C384.344 11.2363 385.371 10.2072 386.645 10.2072C387.919 10.2072 388.947 11.2363 388.947 12.5124Z" fill="#D29D7E"/>
<path d="M399.36 68.691C399.36 69.3249 398.842 69.8436 398.209 69.8436C397.576 69.8436 397.059 69.3249 397.059 68.691C397.059 68.0571 397.576 67.5385 398.209 67.5385C398.842 67.5385 399.36 68.0571 399.36 68.691Z" fill="#B1B7BD"/>
<path d="M398.21 70.2478C397.347 70.2478 396.648 69.548 396.648 68.6836C396.648 67.8192 397.347 67.1194 398.21 67.1194C399.073 67.1194 399.772 67.8192 399.772 68.6836C399.772 69.548 399.073 70.2478 398.21 70.2478ZM398.21 67.9427C397.799 67.9427 397.47 68.272 397.47 68.6836C397.47 69.0953 397.799 69.4246 398.21 69.4246C398.621 69.4246 398.95 69.0953 398.95 68.6836C398.95 68.272 398.621 67.9427 398.21 67.9427Z" fill="#B1B7BD"/>
<path d="M79.946 237.189C79.946 237.823 79.4282 238.341 78.7953 238.341C78.1624 238.341 77.6445 237.823 77.6445 237.189C77.6445 236.555 78.1624 236.036 78.7953 236.036C79.4282 236.036 79.946 236.555 79.946 237.189Z" fill="#B1B7BD"/>
<path d="M78.8039 238.753C77.9409 238.753 77.2422 238.053 77.2422 237.189C77.2422 236.324 77.9409 235.625 78.8039 235.625C79.667 235.625 80.3656 236.324 80.3656 237.189C80.3656 238.053 79.667 238.753 78.8039 238.753ZM78.8039 236.448C78.3929 236.448 78.0642 236.777 78.0642 237.189C78.0642 237.6 78.3929 237.93 78.8039 237.93C79.2149 237.93 79.5437 237.6 79.5437 237.189C79.5437 236.777 79.2149 236.448 78.8039 236.448Z" fill="#B1B7BD"/>
<path d="M3.69822 38.3789C4.81949 38.3789 5.72847 37.4685 5.72847 36.3455C5.72847 35.2224 4.81949 34.312 3.69822 34.312C2.57694 34.312 1.66797 35.2224 1.66797 36.3455C1.66797 37.4685 2.57694 38.3789 3.69822 38.3789Z" fill="#B1B7BD"/>
<path d="M3.69904 38.7907C2.35102 38.7907 1.25781 37.6957 1.25781 36.3456C1.25781 34.9954 2.35102 33.9005 3.69904 33.9005C5.04706 33.9005 6.14027 34.9954 6.14027 36.3456C6.14027 37.6957 5.04706 38.7907 3.69904 38.7907ZM3.69904 34.7238C2.8031 34.7238 2.07978 35.4482 2.07978 36.3456C2.07978 37.2429 2.8031 37.9674 3.69904 37.9674C4.59498 37.9674 5.31831 37.2429 5.31831 36.3456C5.31831 35.4482 4.59498 34.7238 3.69904 34.7238Z" fill="#B1B7BD"/>
<path d="M102.559 0.410465C102.994 0.410465 103.348 0.764467 103.348 1.2008C103.348 1.63712 102.994 1.99113 102.559 1.99113C102.123 1.99113 101.77 1.63712 101.77 1.2008C101.77 0.764467 102.123 0.410465 102.559 0.410465Z" fill="#B1B7BD"/>
<path d="M102.559 2.40288C101.902 2.40288 101.359 1.86776 101.359 1.20092C101.359 0.534078 101.894 -0.00104141 102.559 -0.00104141C103.225 -0.00104141 103.76 0.534078 103.76 1.20092C103.76 1.86776 103.225 2.40288 102.559 2.40288ZM102.559 0.822219C102.354 0.822219 102.181 0.995104 102.181 1.20092C102.181 1.40673 102.354 1.57962 102.559 1.57962C102.765 1.57962 102.938 1.40673 102.938 1.20092C102.938 0.995104 102.765 0.822219 102.559 0.822219Z" fill="#B1B7BD"/>
<path d="M71.1921 30.4433C71.1921 31.0772 70.6743 31.5959 70.0414 31.5959C69.4085 31.5959 68.8906 31.0772 68.8906 30.4433C68.8906 29.8094 69.4085 29.2908 70.0414 29.2908C70.6743 29.2908 71.1921 29.8094 71.1921 30.4433Z" fill="#09101D"/>
<path d="M2.81712 134.289C2.81712 134.923 2.29928 135.442 1.66637 135.442C1.03346 135.442 0.515625 134.923 0.515625 134.289C0.515625 133.656 1.03346 133.137 1.66637 133.137C2.29928 133.137 2.81712 133.656 2.81712 134.289Z" fill="#09101D"/>
<path d="M301.38 2.44454C301.38 3.07845 300.862 3.5971 300.229 3.5971C299.596 3.5971 299.078 3.07845 299.078 2.44454C299.078 1.81063 299.596 1.29197 300.229 1.29197C300.862 1.29197 301.38 1.81063 301.38 2.44454Z" fill="#09101D"/>
<path d="M400.516 209.716C400.516 210.35 399.998 210.869 399.366 210.869C398.733 210.869 398.215 210.35 398.215 209.716C398.215 209.083 398.733 208.564 399.366 208.564C399.998 208.564 400.516 209.083 400.516 209.716Z" fill="#09101D"/>
<path d="M293.377 382.743C294.61 364.129 288.536 345.696 276.075 330.21L269.359 321.862L262.948 313.893L258.345 308.172L212.759 310.897L167.173 308.172L162.57 313.893L156.158 321.862L149.443 330.21C140.352 341.505 134.664 354.373 132.724 367.734C132.634 368.344 131.598 379.878 130.168 393.972H293.065L293.385 382.751L293.377 382.743Z" fill="#09101D"/>
<path d="M152.369 394.779C152.369 394.779 152.312 394.779 152.287 394.779C151.835 394.729 151.506 394.326 151.556 393.873C152.484 384.768 153.241 376.79 153.685 372.015C153.964 369.043 154.079 367.825 154.112 367.603C156.068 354.093 161.912 340.979 171.003 329.683C171.291 329.329 171.809 329.272 172.162 329.56C172.516 329.848 172.573 330.367 172.286 330.721C163.376 341.785 157.655 354.628 155.739 367.842C155.715 368.039 155.55 369.768 155.32 372.172C154.868 376.947 154.112 384.932 153.183 394.038C153.142 394.458 152.78 394.779 152.369 394.779Z" fill="white"/>
<path d="M271.049 138.547C269.89 130.487 265.797 123.473 259.821 118.089C258.441 116.648 257.134 115.348 255.934 114.203C251.75 110.219 246.029 106.226 245.733 100.768C244.73 81.9562 215.435 67.5903 205.983 75.79C205.728 76.0123 197.673 71.8054 186.486 74.1764C184.291 66.5448 177.28 60.9631 168.953 60.9631C158.876 60.9631 150.706 69.1463 150.706 79.2394C150.706 86.2289 154.627 92.3046 160.389 95.3754C160.126 96.1739 159.854 96.9889 159.558 97.804C155.975 107.634 150.089 114.747 141.409 122.271L140.234 123.292C124.222 137.181 125.513 160.462 137.785 170.621L141.327 173.577C141.878 174.038 142.437 174.474 143.012 174.886C145.116 176.401 146.21 178.656 145.914 181.06C145.363 185.514 145.708 190.116 147.18 194.735C152.67 211.891 172.2 223.112 193.308 221.095C207.947 219.696 220.31 212.583 227.748 202.786C236.634 191.079 247.451 180.492 258.638 170.276C267.778 161.92 272.751 150.419 271.041 138.555L271.049 138.547Z" fill="#09101D"/>
<path d="M246.423 146.146L243.463 113.455L228.981 113.191L228.397 102.481L223.999 112.648L211.243 111.174L208.308 106.111C207.593 104.876 206.335 104.349 205.135 104.448C204.133 116.196 198.576 126.479 192.913 127.393L185.269 125.73V125.581L182.868 125.639C176.547 125.779 171.484 131.081 171.624 137.412V137.675C171.772 144.006 177.065 149.077 183.386 148.937L188.08 148.83L186.395 191.063C186.329 202.457 196.521 209.002 207.1 209.06H207.535C218.106 209.118 226.811 199.848 226.868 188.454L226.95 173.594C239.124 170.573 247.606 159.03 246.431 146.138L246.423 146.146Z" fill="#FFA485"/>
<path d="M181.874 141.265C181.603 141.265 181.331 141.133 181.175 140.886C180.929 140.499 181.044 139.997 181.43 139.75L184.406 137.856L181.085 134.061C180.789 133.715 180.822 133.197 181.159 132.9C181.496 132.604 182.022 132.637 182.318 132.974L186.271 137.494C186.428 137.675 186.502 137.914 186.469 138.153C186.436 138.391 186.296 138.606 186.099 138.729L182.318 141.133C182.178 141.223 182.03 141.265 181.874 141.265Z" fill="#E06A4B"/>
<path d="M226.926 173.907C226.926 173.907 204.363 174.837 200.631 166.777C200.631 166.777 199.538 179.044 226.696 185.597L226.926 173.915V173.907Z" fill="#E06A4B"/>
<path d="M181.366 154.576C181.218 154.576 181.07 154.576 180.922 154.56C179.335 154.445 177.889 153.712 176.845 152.51C175.801 151.3 175.3 149.76 175.415 148.171C175.653 144.887 178.513 142.425 181.801 142.656C185.081 142.894 187.547 145.767 187.308 149.044C187.078 152.181 184.456 154.576 181.366 154.576ZM181.366 145.932C179.976 145.932 178.801 147.002 178.702 148.41C178.653 149.126 178.875 149.81 179.344 150.353C179.812 150.896 180.461 151.217 181.168 151.275C182.64 151.382 183.922 150.279 184.029 148.805C184.136 147.332 183.026 146.047 181.555 145.94C181.489 145.94 181.423 145.94 181.357 145.94L181.366 145.932Z" fill="white"/>
<path d="M242.432 129.335C242.4 130.57 241.38 131.542 240.147 131.509C238.914 131.476 237.944 130.455 237.977 129.22C238.01 127.985 239.029 127.014 240.262 127.047C241.495 127.08 242.465 128.1 242.432 129.335Z" fill="#09101D"/>
<path d="M218.87 129.335C218.837 130.57 217.818 131.542 216.585 131.509C215.352 131.476 214.382 130.455 214.415 129.22C214.448 127.985 215.467 127.014 216.7 127.047C217.933 127.08 218.903 128.1 218.87 129.335Z" fill="#09101D"/>
<path d="M214.161 141.133C208.317 141.133 203.533 135.633 203.492 128.833C203.468 124.799 208.802 122.955 214.104 122.922C219.405 122.881 224.765 124.659 224.798 128.702C224.839 135.518 220.096 141.1 214.219 141.133H214.161ZM214.252 125.392C214.202 125.392 214.161 125.392 214.12 125.392C209.534 125.425 205.942 126.923 205.958 128.817C205.991 134.259 209.673 138.663 214.161 138.663H214.202C218.715 138.638 222.365 134.168 222.323 128.718C222.315 126.841 218.773 125.392 214.252 125.392Z" fill="white"/>
<path d="M240.103 140.631C237.242 140.631 234.555 139.338 232.541 136.984C230.56 134.67 229.458 131.6 229.434 128.331C229.409 124.297 234.744 122.453 240.053 122.42C242.676 122.404 245.166 122.832 247.032 123.63C249.416 124.651 250.731 126.273 250.747 128.2C250.764 131.468 249.703 134.547 247.747 136.885C245.741 139.281 243.054 140.614 240.169 140.631H240.111H240.103ZM240.201 124.89C240.16 124.89 240.111 124.89 240.07 124.89C235.483 124.923 231.891 126.421 231.908 128.315C231.924 130.999 232.82 133.501 234.415 135.37C235.968 137.181 238.007 138.169 240.152 138.161C242.297 138.145 244.328 137.132 245.857 135.304C247.435 133.419 248.298 130.9 248.281 128.216C248.273 126.339 244.73 124.89 240.21 124.89H240.201Z" fill="white"/>
<path d="M226.682 125.408L226.83 132.81C226.846 133.723 227.602 134.448 228.515 134.431L230.159 134.398C231.4 134.374 232.427 135.362 232.452 136.605C232.51 139.684 230.068 142.228 226.994 142.294L224.43 142.343" fill="#FFA485"/>
<path d="M224.408 143.166C223.964 143.166 223.594 142.812 223.586 142.359C223.578 141.906 223.94 141.528 224.392 141.519L226.956 141.47C228.222 141.445 229.406 140.927 230.285 140.013C231.165 139.099 231.633 137.897 231.608 136.621C231.608 136.242 231.444 135.88 231.173 135.617C230.902 135.353 230.54 135.213 230.154 135.222L228.51 135.254C227.827 135.254 227.227 135.024 226.751 134.563C226.274 134.102 226.003 133.484 225.994 132.826L225.846 125.433C225.838 124.98 226.2 124.601 226.652 124.593H226.668C227.112 124.593 227.482 124.947 227.49 125.4L227.638 132.801C227.638 133.023 227.729 133.229 227.893 133.386C228.049 133.542 228.255 133.624 228.485 133.616L230.129 133.583C230.943 133.567 231.724 133.871 232.315 134.439C232.907 135.007 233.244 135.773 233.261 136.596C233.293 138.309 232.661 139.922 231.477 141.157C230.293 142.392 228.707 143.084 226.997 143.125L224.433 143.174H224.416L224.408 143.166Z" fill="#E06A4B"/>
<path d="M204.624 131.015C204.509 131.015 204.385 130.999 204.262 130.958L186.984 125.697C186.335 125.499 185.965 124.808 186.162 124.158C186.36 123.507 187.05 123.137 187.7 123.334L204.977 128.595C205.627 128.793 205.996 129.484 205.799 130.134C205.635 130.67 205.15 131.007 204.624 131.007V131.015Z" fill="white"/>
<path d="M223.442 131.764C223.056 131.764 222.678 131.583 222.431 131.245C222.037 130.694 222.168 129.92 222.719 129.533C224.33 128.38 228.242 126.898 231.522 129.533C232.056 129.961 232.138 130.735 231.719 131.27C231.292 131.805 230.519 131.887 229.985 131.468C227.346 129.36 224.28 131.468 224.149 131.558C223.935 131.706 223.689 131.78 223.442 131.78V131.764Z" fill="white"/>
<path d="M228.651 162.39C228.553 162.414 228.446 162.414 228.339 162.373C228.232 162.332 225.758 161.295 223.974 163.262C223.802 163.452 223.506 163.468 223.317 163.295C223.128 163.122 223.111 162.826 223.284 162.637C225.528 160.175 228.668 161.509 228.701 161.525C228.931 161.624 229.038 161.904 228.939 162.134C228.881 162.266 228.766 162.357 228.643 162.398L228.651 162.39Z" fill="#E06A4B"/>
<path d="M208.655 120.65C209.534 120.831 210.561 120.51 211.573 120.255C212.584 119.975 213.611 119.728 214.507 119.539C215.403 119.35 216.447 119.168 217.482 119.012C218.51 118.839 219.587 118.716 220.31 118.197C221.009 117.711 221.132 116.707 219.973 115.752C218.88 114.813 216.381 114.064 213.414 114.682C210.446 115.316 208.498 116.995 207.907 118.288C207.274 119.621 207.808 120.486 208.655 120.65Z" fill="#09101D"/>
<path d="M245.546 120.271C244.856 120.436 244.042 120.222 243.237 120.049C242.431 119.86 241.618 119.695 240.911 119.58C240.196 119.456 239.374 119.349 238.552 119.259C237.738 119.152 236.891 119.094 236.308 118.707C235.74 118.345 235.617 117.563 236.497 116.772C237.327 115.998 239.267 115.34 241.626 115.727C243.977 116.13 245.563 117.39 246.064 118.394C246.607 119.423 246.212 120.123 245.546 120.271Z" fill="#09101D"/>
<path d="M224.181 151.654C224.181 151.654 224.148 151.654 224.131 151.654L217.72 151.259C215.262 151.11 213.347 149.052 213.355 146.582V145.71C213.355 145.257 213.725 144.887 214.177 144.887C214.63 144.887 214.999 145.257 214.999 145.71V146.591C214.983 148.188 216.224 149.513 217.819 149.612L224.23 150.007C224.682 150.032 225.027 150.427 225.003 150.88C224.978 151.316 224.616 151.654 224.181 151.654Z" fill="#E06A4B"/>
<path d="M187.089 226.702L233.308 226.438L233.596 225.722L247.676 190.281C247.742 190.124 247.898 190.025 248.063 190.017L172.508 190.001L186.695 225.722L187.089 226.71V226.702Z" fill="#FFA485"/>
<path opacity="0.46" d="M244.917 194.233L229.431 201.815C224.656 204.153 220.636 207.809 217.833 212.336L212.285 221.335L214.118 223.047L219.617 214.123C222.412 209.587 226.431 205.94 231.215 203.602L245.065 196.818L246.323 193.64C245.846 193.805 245.369 193.994 244.909 194.225L244.917 194.233Z" fill="#E06A4B"/>
<path d="M207.61 278.369C208.071 279.53 209.09 280.123 210.142 280.189C211.186 280.123 212.205 279.53 212.674 278.369L233.305 226.43L187.086 226.693L207.61 278.361V278.369Z" fill="#D29D7E"/>
<path d="M317.954 252.692L280.447 208.846C269.639 196.521 264.477 190.388 248.366 190.009C248.35 190.009 248.341 190.009 248.325 190.009C248.243 190.009 248.169 190.009 248.087 190.009C248.078 190.009 248.07 190.009 248.062 190.009C247.889 190.009 247.733 190.116 247.676 190.273L233.595 225.714L233.308 226.43L212.676 278.37C212.216 279.531 211.197 280.124 210.145 280.189C209.101 280.124 208.082 279.531 207.613 278.37L187.089 226.702L186.694 225.714L172.507 189.993C172.376 189.993 172.244 189.993 172.104 189.993C172.072 189.993 172.039 189.993 172.006 189.993C157.4 190.248 140.59 196.283 127.784 206.03C115.101 215.687 108.904 231.419 110.835 246.963C111.23 250.165 112.06 253.293 113.129 256.34L113.951 258.678C116.704 266.515 119.803 274.237 123.222 281.811C124.463 284.561 125.45 286.718 125.466 286.734L134.582 288.397C134.754 288.587 135.059 288.578 135.223 288.381L159.389 319.031C159.389 319.212 159.504 319.368 159.668 319.434L178.59 326.415C188.798 329.947 199.468 331.668 210.145 331.577C220.814 331.668 231.491 329.947 241.7 326.415L265.192 317.244C265.389 317.162 265.504 316.948 265.455 316.742C265.455 316.742 285.535 288.587 285.716 288.397L317.937 253.269C318.085 253.104 318.085 252.865 317.945 252.692H317.954Z" fill="#B1B7BD"/>
<path d="M209.345 331.997C198.791 331.997 188.41 330.252 178.464 326.811L159.534 319.829C159.255 319.731 159.057 319.484 159 319.204L135.13 288.924C135.064 288.941 134.998 288.949 134.924 288.957C134.744 288.957 134.555 288.899 134.407 288.792L125.406 287.154C125.324 287.138 125.242 287.096 125.184 287.031C125.14 286.981 124.368 285.302 122.866 281.992C119.447 274.435 116.323 266.647 113.578 258.826L112.756 256.488C111.572 253.112 110.816 250.017 110.446 247.028C108.465 231.09 115.025 215.259 127.56 205.717C140.284 196.027 157.323 189.853 172.02 189.598L172.118 190.009V189.598H172.513C172.718 189.614 172.842 189.697 172.907 189.861L208.013 278.238C208.375 279.152 209.189 279.737 210.183 279.802C211.129 279.737 211.942 279.152 212.304 278.238L247.303 190.141C247.418 189.853 247.69 189.647 248.01 189.622C248.051 189.614 248.101 189.606 248.142 189.614H248.355C264.474 190.001 269.784 196.052 280.354 208.121L280.774 208.599L318.28 252.454C318.559 252.775 318.551 253.26 318.263 253.573L286.042 288.702C285.738 289.089 272.792 307.233 265.904 316.89C265.904 317.228 265.691 317.541 265.37 317.664L241.878 326.835C231.669 330.375 220.992 332.129 210.167 332.03C209.896 332.03 209.633 332.03 209.37 332.03L209.345 331.997ZM210.142 331.174C220.885 331.273 231.456 329.536 241.566 326.028L265.041 316.866C265.016 316.75 265.041 316.602 265.115 316.503C269.833 309.893 285.229 288.307 285.401 288.117L317.63 252.989L317.943 252.692L317.63 252.964L279.713 208.64C269.299 196.76 264.071 190.791 248.355 190.421H248.125C248.125 190.421 248.101 190.421 248.092 190.421L233.683 226.587L213.052 278.526C212.567 279.745 211.49 280.519 210.167 280.601C208.794 280.519 207.717 279.737 207.233 278.526L172.225 190.413H172.11H172.011C157.479 190.668 140.629 196.777 128.028 206.368C115.723 215.728 109.296 231.271 111.235 246.921C111.597 249.852 112.345 252.89 113.504 256.216L114.326 258.554C117.063 266.342 120.178 274.114 123.59 281.655C125.036 284.849 125.562 285.993 125.735 286.38L134.637 288.002C134.727 288.019 134.801 288.06 134.867 288.126C134.949 288.035 135.089 287.977 135.204 287.977C135.327 287.977 135.459 288.035 135.533 288.134L159.698 318.784C159.756 318.858 159.789 318.948 159.789 319.039L178.727 326.037C188.829 329.536 199.366 331.273 210.134 331.174H210.142Z" fill="#B1B7BD"/>
<path d="M257.651 243.712H206.648C203.475 243.712 200.902 246.288 200.902 249.466V317.978C200.902 321.156 203.475 323.733 206.648 323.733H257.651C260.824 323.733 263.396 321.156 263.396 317.978V249.466C263.396 246.288 260.824 243.712 257.651 243.712Z" fill="#09101D"/>
<path d="M241.563 237.496H222.74C221.369 237.496 220.258 238.609 220.258 239.983V242.074C220.258 243.447 221.369 244.56 222.74 244.56H241.563C242.934 244.56 244.045 243.447 244.045 242.074V239.983C244.045 238.609 242.934 237.496 241.563 237.496Z" fill="white"/>
<path d="M241.564 244.971H222.749C221.154 244.971 219.855 243.67 219.855 242.073V239.991C219.855 238.393 221.154 237.093 222.749 237.093H241.564C243.158 237.093 244.457 238.393 244.457 239.991V242.073C244.457 243.67 243.158 244.971 241.564 244.971ZM222.749 237.908C221.606 237.908 220.677 238.838 220.677 239.982V242.065C220.677 243.209 221.606 244.14 222.749 244.14H241.564C242.706 244.14 243.635 243.209 243.635 242.065V239.982C243.635 238.838 242.706 237.908 241.564 237.908H222.749Z" fill="#09101D"/>
<path d="M247.418 243.819H216.906C216.47 243.819 216.117 244.173 216.117 244.609V246.338C216.117 246.774 216.47 247.128 216.906 247.128H247.418C247.853 247.128 248.207 246.774 248.207 246.338V244.609C248.207 244.173 247.853 243.819 247.418 243.819Z" fill="white"/>
<path d="M247.418 247.548H216.907C216.241 247.548 215.707 247.004 215.707 246.346V244.617C215.707 243.95 216.25 243.415 216.907 243.415H247.418C248.084 243.415 248.618 243.958 248.618 244.617V246.346C248.618 247.013 248.076 247.548 247.418 247.548ZM216.907 244.238C216.702 244.238 216.529 244.411 216.529 244.617V246.346C216.529 246.552 216.702 246.725 216.907 246.725H247.418C247.624 246.725 247.796 246.552 247.796 246.346V244.617C247.796 244.411 247.624 244.238 247.418 244.238H216.907Z" fill="#09101D"/>
<path d="M214.894 293.14C215.683 296.284 218.56 296.136 221.371 295.42C219.694 296.128 218.453 297.248 219.061 299.33C219.719 303.175 223.368 303.331 226.426 302.475C223.796 304.147 227.141 308.189 231.226 308.131C236.955 308.337 242.627 308.526 248.356 308.847C252.4 309.078 256.222 308.88 259.798 306.913L264.154 307.094L263.234 276.888L256.074 278.214C255.236 277.638 254.373 277.086 253.502 276.592C253.502 276.592 238.361 269.792 232.846 268.483C232.254 268.343 231.646 268.211 231.046 268.277C230.437 268.343 229.829 268.639 229.533 269.166C229.139 269.858 229.361 270.722 229.673 271.455C230.643 273.711 231.506 275.67 232.377 277.391C230.24 277.498 229.648 277.522 227.149 277.605C221.881 278.156 213.086 278 214.212 284.858C214.804 287.204 216.719 287.574 218.7 287.311C215.995 288.225 213.562 289.846 214.91 293.14H214.894ZM219.144 296.284C219.596 296.153 220.015 296.037 220.385 295.963C220.023 296.07 219.596 296.177 219.144 296.284Z" fill="#FFA485"/>
<path opacity="0.36" d="M232.364 277.398L246.099 277.72C246.099 277.72 232.948 273.883 230.77 274.015L232.364 277.407V277.398Z" fill="#E06A4B"/>
<path d="M263.558 312.504L270.528 312.519C271.65 312.521 272.56 311.612 272.563 310.489L272.638 274.324C272.641 273.201 271.734 272.288 270.612 272.286L263.642 272.271C262.521 272.269 261.61 273.178 261.608 274.301L261.532 310.466C261.53 311.589 262.437 312.502 263.558 312.504Z" fill="#F4F6F9"/>
<path d="M268.063 272.302V313.013C268.063 315.096 269.937 316.668 271.984 316.306L304.501 310.551C329.505 305.603 339.171 274.937 321.54 256.504L318.4 253.227L271.49 267.651C269.452 268.277 268.055 270.162 268.055 272.302H268.063Z" fill="#B1B7BD"/>
<path d="M276.586 306.962C277.129 308.057 276.676 309.382 275.583 309.925C274.49 310.469 273.167 310.016 272.624 308.921C272.082 307.826 272.534 306.501 273.627 305.957C274.72 305.414 276.044 305.867 276.586 306.962Z" fill="#F4F6F9"/>
<path d="M271.412 316.766C270.541 316.766 269.686 316.462 269.004 315.886C268.149 315.169 267.664 314.124 267.664 313.004V272.294C267.664 269.964 269.16 267.931 271.388 267.247L318.297 252.824C318.445 252.774 318.609 252.824 318.716 252.931L321.856 256.207C330.24 264.975 333.068 277.118 329.418 288.693C325.769 300.268 316.489 308.583 304.595 310.938L272.07 316.692C271.848 316.733 271.634 316.75 271.412 316.75V316.766ZM318.289 253.696L271.626 268.046C269.744 268.622 268.486 270.335 268.486 272.302V313.012C268.486 313.885 268.864 314.7 269.53 315.26C270.196 315.82 271.067 316.058 271.922 315.902L304.439 310.147C316.02 307.859 325.07 299.75 328.629 288.463C332.188 277.176 329.426 265.337 321.256 256.792L318.297 253.696H318.289Z" fill="#B1B7BD"/>
<path d="M218.173 287.771C217.975 287.771 217.795 287.623 217.77 287.417C217.737 287.195 217.893 286.981 218.115 286.948L226.532 285.713C226.754 285.688 226.968 285.837 227.001 286.059C227.034 286.281 226.877 286.495 226.655 286.528L218.239 287.763C218.239 287.763 218.197 287.763 218.181 287.763L218.173 287.771Z" fill="#F16F5F"/>
<path d="M221.378 295.831C221.189 295.831 221.024 295.7 220.975 295.51C220.926 295.288 221.057 295.066 221.279 295.016L228.184 293.403C228.406 293.353 228.628 293.485 228.677 293.707C228.726 293.93 228.595 294.152 228.373 294.201L221.468 295.815C221.468 295.815 221.403 295.823 221.378 295.823V295.831Z" fill="#F16F5F"/>
<path d="M226.061 303.184C225.88 303.184 225.716 303.06 225.666 302.879C225.609 302.657 225.732 302.434 225.954 302.377L232.579 300.566C232.801 300.508 233.023 300.631 233.081 300.854C233.138 301.076 233.015 301.298 232.793 301.356L226.168 303.167C226.168 303.167 226.094 303.184 226.061 303.184Z" fill="#F16F5F"/>
<path d="M268.063 279.284C267.833 279.284 267.652 279.103 267.652 278.872V272.714C267.652 269.915 269.535 267.445 272.239 266.721L299.191 259.435C299.405 259.377 299.635 259.509 299.692 259.723C299.75 259.946 299.618 260.168 299.405 260.225L272.453 267.511C270.11 268.145 268.474 270.286 268.474 272.714V278.872C268.474 279.103 268.293 279.284 268.063 279.284Z" fill="#09101D"/>
<path d="M276.806 266.317C276.666 266.317 276.526 266.243 276.452 266.111L266.334 248.963C266.219 248.765 266.285 248.518 266.482 248.403C266.671 248.288 266.926 248.354 267.041 248.551L277.159 265.7C277.274 265.897 277.209 266.144 277.011 266.26C276.946 266.301 276.872 266.317 276.806 266.317Z" fill="#09101D"/>
<path d="M210.852 228.356L219.623 214.13C222.417 209.594 226.437 205.947 231.221 203.609L246.706 196.027C248.926 194.94 251.416 194.52 253.874 194.825L283.719 193.121C284.443 193.079 284.961 193.82 284.665 194.487C284.665 194.504 284.648 194.52 284.64 194.537C283.876 196.298 282.223 197.509 280.316 197.739L266.294 199.46L266.984 199.526C268.875 199.699 270.494 200.95 271.143 202.736L272.294 205.906L273.272 206.951C274.62 208.384 275.015 210.459 274.3 212.286L267.338 229.986C266.91 231.065 265.661 231.559 264.609 231.048C262.028 229.797 260.787 226.817 261.699 224.1L263.688 218.189L254.079 230.003C252.501 231.946 250.479 233.485 248.186 234.498L240.78 237.758L235.561 252.404L210.836 228.364L210.852 228.356Z" fill="#FFA485"/>
<path d="M266.42 200.266C266.362 200.299 266.288 200.316 266.223 200.316L256.022 200.769C255.743 200.777 255.512 200.563 255.504 200.291C255.496 200.019 255.71 199.781 255.981 199.772L266.181 199.32C266.461 199.311 266.691 199.526 266.699 199.797C266.699 200.003 266.592 200.184 266.42 200.266Z" fill="#E06A4B"/>
<path d="M272.114 206.4C272.064 206.425 272.007 206.441 271.941 206.449L259.529 207.742C259.258 207.775 259.012 207.569 258.979 207.297C258.954 207.017 259.151 206.779 259.423 206.746L271.834 205.453C272.105 205.42 272.352 205.626 272.385 205.898C272.41 206.112 272.294 206.309 272.114 206.4Z" fill="#E06A4B"/>
<path d="M263.919 218.633C263.796 218.691 263.648 218.707 263.517 218.649C263.262 218.551 263.138 218.254 263.237 217.999L264.585 214.599C264.684 214.344 264.98 214.22 265.234 214.319C265.489 214.418 265.613 214.714 265.514 214.969L264.166 218.37C264.117 218.493 264.034 218.584 263.919 218.633Z" fill="#E06A4B"/>
<path d="M205.177 227.92L210.322 222.392C211.085 221.573 212.374 221.528 213.192 222.291L241.132 248.378C241.949 249.141 241.995 250.433 241.232 251.252L236.087 256.78C235.325 257.599 234.036 257.644 233.218 256.881L205.278 230.794C204.46 230.031 204.415 228.739 205.177 227.92Z" fill="#F4F6F9"/>
<path d="M128.56 293.493C130.015 296.243 132.103 299.882 134.486 303.866C141.876 316.273 156.129 321.64 169.124 318.594C173.85 317.491 178.42 315.268 182.423 311.86C189.229 306.072 196.536 299.651 203.663 293.287C218.483 280.041 232.538 267.042 239.772 260.513C241.342 259.097 241.358 256.636 239.813 255.195L208.003 225.64C207 224.71 205.455 224.685 204.419 225.582L165.787 259.328L118.672 268.548C118.672 268.548 124.458 285.697 128.56 293.477V293.493Z" fill="#B1B7BD"/>
<path d="M161.799 319.862C150.612 319.862 140.067 314.042 134.132 304.08C131.535 299.725 129.537 296.226 128.197 293.682C124.12 285.96 118.342 268.861 118.285 268.688C118.243 268.573 118.26 268.45 118.317 268.351C118.375 268.252 118.482 268.178 118.597 268.153L165.605 258.957L204.147 225.286C205.339 224.24 207.114 224.273 208.281 225.352L240.091 254.907C240.913 255.673 241.382 256.751 241.373 257.879C241.365 259.007 240.88 260.077 240.05 260.834C237.568 263.074 234.28 266.087 230.425 269.602C222.962 276.427 213.665 284.915 203.941 293.608C195.812 300.87 188.866 306.945 182.694 312.189C178.74 315.548 174.211 317.837 169.222 319.006C166.747 319.582 164.257 319.862 161.807 319.862H161.799ZM119.213 268.878C120.15 271.627 125.247 286.339 128.929 293.304C130.261 295.831 132.25 299.314 134.839 303.66C141.891 315.499 155.635 321.344 169.033 318.199C173.89 317.063 178.304 314.824 182.159 311.555C188.324 306.32 195.27 300.244 203.391 292.983C213.114 284.289 222.411 275.801 229.874 268.985C233.721 265.469 237.017 262.456 239.499 260.217C240.165 259.616 240.552 258.76 240.552 257.871C240.552 256.965 240.198 256.125 239.532 255.508L207.722 225.953C206.867 225.163 205.569 225.138 204.689 225.903L166.065 259.649C166.008 259.698 165.942 259.731 165.876 259.739L119.222 268.869L119.213 268.878Z" fill="#B1B7BD"/>
<path d="M160.233 319.639C159.485 319.639 158.729 319.623 157.981 319.582C157.751 319.574 157.578 319.376 157.595 319.145C157.603 318.915 157.809 318.726 158.03 318.759C169.185 319.368 180.289 315.334 188.468 307.702L200.633 296.349C200.797 296.193 201.06 296.201 201.216 296.374C201.373 296.539 201.364 296.802 201.192 296.959L189.027 308.311C181.234 315.581 170.853 319.648 160.242 319.648L160.233 319.639Z" fill="#09101D"/>
<path d="M149.995 271.75C149.88 271.75 149.765 271.701 149.683 271.602C149.535 271.429 149.56 271.166 149.732 271.018L191.151 235.716C191.324 235.568 191.587 235.593 191.726 235.766C191.874 235.939 191.85 236.202 191.677 236.342L150.258 271.643C150.184 271.709 150.086 271.742 149.995 271.742V271.75Z" fill="#09101D"/>
<path d="M160.996 262.373C160.856 262.373 160.716 262.299 160.642 262.168L144.326 233.938C144.211 233.74 144.277 233.493 144.474 233.378C144.671 233.263 144.918 233.329 145.033 233.526L161.349 261.756C161.464 261.954 161.398 262.201 161.201 262.316C161.135 262.357 161.07 262.373 160.996 262.373Z" fill="#09101D"/>
<path d="M230.86 256.636C231.402 257.73 230.95 259.056 229.857 259.599C228.764 260.143 227.44 259.69 226.898 258.595C226.355 257.5 226.807 256.175 227.9 255.631C228.994 255.088 230.317 255.541 230.86 256.636Z" fill="#F4F6F9"/>
<path d="M12.1602 84.5735V181.644C12.1602 196.529 52.8966 209.454 112.604 215.917V118.846C52.8966 112.383 12.1602 99.4581 12.1602 84.5735Z" fill="#D29D7E"/>
<path d="M102.129 139.51C102.129 139.51 102.096 139.51 102.088 139.51C52.836 134.175 22.2344 123.629 22.2344 111.98C22.2344 111.75 22.4152 111.568 22.6454 111.568C22.8755 111.568 23.0563 111.75 23.0563 111.98C23.0563 123.004 54.1101 133.484 102.178 138.695C102.4 138.72 102.565 138.925 102.54 139.148C102.515 139.362 102.343 139.518 102.129 139.518V139.51Z" fill="white"/>
<path d="M59.8603 148.681C59.8603 148.681 59.7945 148.681 59.7699 148.672C52.0928 146.886 45.4349 144.91 39.977 142.803C39.7633 142.72 39.6565 142.482 39.7387 142.267C39.8208 142.053 40.0592 141.955 40.2729 142.029C45.6979 144.12 52.3229 146.079 59.9589 147.866C60.1809 147.915 60.3206 148.137 60.2631 148.36C60.222 148.549 60.0494 148.681 59.8603 148.681Z" fill="white"/>
<path d="M102.129 155.522C102.129 155.522 102.096 155.522 102.087 155.522C91.5745 154.386 81.7192 152.978 72.7927 151.357C72.5707 151.315 72.4228 151.101 72.4639 150.879C72.505 150.657 72.7187 150.509 72.9406 150.55C81.8507 152.172 91.6896 153.571 102.178 154.707C102.4 154.732 102.564 154.938 102.54 155.16C102.515 155.374 102.342 155.531 102.129 155.531V155.522Z" fill="#09101D"/>
<path d="M24.918 180.936L36.2611 184.575V168.373L24.918 164.01V180.936Z" fill="#09101D"/>
<path d="M36.6729 185.134L24.5078 181.232V153.488L36.6729 158.172V185.134ZM25.3298 180.631L35.8509 184.006V158.741L25.3298 154.69V180.631Z" fill="white"/>
<path d="M53.0205 190.197L40.8555 186.295V170.9L53.0205 175.584V190.197ZM41.6774 185.694L52.1986 189.069V176.152L41.6774 172.102V185.694Z" fill="white"/>
<path d="M386.633 84.5735V181.644C386.633 193.944 358.826 204.901 315.492 211.981C314.267 212.179 314.029 115.149 315.073 114.977C358.645 107.897 386.633 96.906 386.633 84.5735Z" fill="#D29D7E"/>
<path d="M356.452 125.086C356.263 125.086 356.099 124.963 356.049 124.774C356 124.551 356.132 124.329 356.354 124.28C366.653 121.826 374.363 119.044 379.286 115.989C379.475 115.874 379.73 115.932 379.853 116.121C379.977 116.31 379.911 116.566 379.722 116.689C374.724 119.785 366.924 122.608 356.543 125.078C356.51 125.078 356.477 125.086 356.444 125.086H356.452Z" fill="#09101D"/>
<path d="M357.05 138.35C356.861 138.35 356.696 138.226 356.647 138.037C356.598 137.814 356.729 137.592 356.951 137.543C366.979 135.155 374.5 132.439 379.3 129.467C379.489 129.343 379.744 129.409 379.868 129.598C379.991 129.788 379.925 130.043 379.736 130.166C374.862 133.188 367.267 135.937 357.148 138.341C357.116 138.341 357.083 138.35 357.05 138.35Z" fill="white"/>
<path opacity="0.69" d="M89.3926 191.827L73.4383 175.346C72.9616 174.86 72.978 174.078 73.463 173.6C73.9479 173.123 74.7288 173.139 75.2055 173.625L89.4666 188.361L105.963 172.859L126.274 188.633C126.808 189.053 126.907 189.827 126.496 190.362C126.077 190.905 125.304 190.996 124.77 190.584L106.12 176.095L89.3926 191.811V191.827Z" fill="#798087"/>
<path d="M78.4682 174.481C78.4682 176.77 76.6187 178.622 74.3337 178.622C72.0486 178.622 70.1992 176.77 70.1992 174.481C70.1992 172.193 72.0486 170.34 74.3337 170.34C76.6187 170.34 78.4682 172.193 78.4682 174.481Z" fill="#FFE8CE"/>
<path d="M110.183 174.481C110.183 176.77 108.334 178.622 106.049 178.622C103.763 178.622 101.914 176.77 101.914 174.481C101.914 172.193 103.763 170.34 106.049 170.34C108.334 170.34 110.183 172.193 110.183 174.481Z" fill="#FFE8CE"/>
<path d="M93.5697 189.613C93.5697 191.901 91.7203 193.754 89.4353 193.754C87.1502 193.754 85.3008 191.901 85.3008 189.613C85.3008 187.324 87.1502 185.472 89.4353 185.472C91.7203 185.472 93.5697 187.324 93.5697 189.613Z" fill="#BE7346"/>
<path d="M129.667 189.613C129.667 191.901 127.818 193.754 125.533 193.754C123.248 193.754 121.398 191.901 121.398 189.613C121.398 187.324 123.248 185.472 125.533 185.472C127.818 185.472 129.667 187.324 129.667 189.613Z" fill="#BE7346"/>
<path d="M293.717 141.288H287.051V188.79H293.717V141.288Z" fill="#B1B7BD"/>
<path d="M294.129 189.202H286.641V140.877H294.129V189.202ZM287.463 188.379H293.307V141.7H287.463V188.379Z" fill="#B1B7BD"/>
<path d="M306.859 189.202H299.371V128.009H306.859V189.202ZM300.193 188.379H306.037V128.832H300.193V188.379Z" fill="#09101D"/>
<path d="M333.281 189.202H325.793V128.009H333.281V189.202ZM326.615 188.379H332.459V128.832H326.615V188.379Z" fill="#09101D"/>
<path opacity="0.46" d="M345.217 119.266H338.551V188.79H345.217V119.266Z" fill="white"/>
<path d="M345.229 143.388H338.562V188.791H345.229V143.388Z" fill="#B1B7BD"/>
<path d="M345.64 189.202H338.152V142.976H345.64V189.202ZM338.974 188.379H344.818V143.8H338.974V188.379Z" fill="#B1B7BD"/>
<path d="M320.018 146.236H313.352V188.79H320.018V146.236Z" fill="#B1B7BD"/>
<path d="M320.429 189.202H312.941V145.824H320.429V189.202ZM313.763 188.379H319.608V146.648H313.763V188.379Z" fill="#B1B7BD"/>
</g>
<defs>
<clipPath id="clip0_191_8377">
<rect width="400" height="394.778" fill="white" transform="translate(0.5)"/>
</clipPath>
</defs>
</svg>
