<svg width="279" height="270" viewBox="0 0 279 270" fill="none" xmlns="http://www.w3.org/2000/svg">
<g clip-path="url(#clip0_495_9128)">
<path d="M241.331 244.48C234.974 249.173 228.492 253.613 221.637 257.292C215.994 260.262 210.423 263.028 204.272 265.315C202.336 265.957 200.595 266.647 198.662 267.255C195.519 268.261 192.639 268.956 190.092 269.309C185.485 269.949 181.341 269.561 177.085 269.185C175.728 269.064 174.382 268.888 173.051 268.659C172.453 268.555 171.865 268.452 171.275 268.348C163.667 267.01 156.633 263.955 150.805 259.281C150.62 259.131 150.434 258.981 150.25 258.827C144.886 254.329 140.024 249.368 136.245 243.253C132.132 237.231 128.624 230.697 125.129 223.896C124.682 223.025 124.206 222.17 123.704 221.334C122.099 218.657 120.576 216.156 118.713 213.897C111.75 204.569 101.887 199.743 90.968 196.986C85.5083 195.608 79.7926 194.735 74.058 194.045C29.4419 196.559 -5.62418 156.816 0.745676 110.82C1.06667 109 1.70732 107.483 2.22471 105.712C4.11819 100.036 6.92185 94.8067 10.8348 90.0716C17.5595 82.0642 25.9055 77.1883 34.8934 73.446C37.8894 72.2 40.9572 71.0785 44.0602 70.0099C53.3217 66.8838 63.2524 64.1831 70.2304 56.5157C80.696 45.0153 85.102 30.6882 93.3815 17.2008C106.464 -4.15303 133.57 -4.31826 148.148 9.52531C150.594 11.6883 152.707 13.8811 155.023 16.12C165.518 27.1613 167.802 42.706 171.765 57.671C171.983 58.4945 172.206 59.3153 172.437 60.1347C175.258 69.4234 180.627 77.5486 189.98 80.7355C207.684 87.1393 225.572 91.2025 240.624 101.219C241.858 102.039 243.071 102.899 244.264 103.804C246.635 105.447 248.932 107.182 251.134 109.012C257.741 114.503 263.482 120.851 267.714 128.139C269.407 131.054 270.857 134.117 272.025 137.338C286.126 171.956 276.297 218.667 241.331 244.48Z" fill="#FFE8CE"/>
<path d="M241.895 76.1347C241.267 77.122 240.506 77.9916 239.633 78.7433C237.148 80.8873 233.761 82.0698 229.976 82.2824C224.865 82.5695 219.041 81.1162 213.739 77.9063C208.44 74.6949 204.666 70.3364 202.832 65.8519C200.998 61.3674 201.089 56.7217 203.509 52.9198C203.523 52.8995 203.537 52.8778 203.55 52.8575C205.976 49.0922 210.246 46.8723 215.22 46.3631C220.222 45.8511 225.947 47.0999 231.241 50.2895C236.536 53.4792 240.404 58.0247 242.354 62.7489C244.306 67.4745 244.318 72.3301 241.895 76.1347Z" fill="#FFE8CE"/>
<path d="M99.1254 243.544C90.8959 248.323 80.0158 243.211 75.0302 234.444C72.3579 229.801 71.5155 224.741 72.2238 220.251C72.9322 215.761 75.1724 211.813 78.7847 209.456C82.3983 207.099 86.704 206.771 90.7374 208.146C99.7606 211.287 105.43 221.995 105.012 232.083C104.76 236.948 102.832 241.202 99.124 243.545L99.1254 243.544Z" fill="#FFE8CE"/>
<g style="mix-blend-mode:multiply" opacity="0.5">
<path d="M202.832 65.8514C200.998 61.3669 201.089 56.7212 203.509 52.9193C203.523 52.899 203.537 52.8773 203.55 52.857L205.03 52.6322C208.893 52.0471 212.871 55.062 213.917 59.3664L215.348 65.2622L231.885 62.7565C235.749 62.1714 239.02 64.8789 239.195 68.804L239.633 78.7428C237.148 80.8868 233.761 82.0693 229.976 82.2819C224.865 82.569 219.041 81.1157 213.739 77.9057C208.44 74.6944 204.666 70.3359 202.832 65.8514Z" fill="#FFC98D"/>
</g>
<g style="mix-blend-mode:multiply" opacity="0.5">
<path d="M236.705 171.834L234.07 172.234L91.5605 193.821C87.6977 194.406 83.7184 191.391 82.6741 187.088L61.7144 100.764C60.6688 96.4594 62.9537 92.495 66.8165 91.9099L126.679 82.842C128.932 82.5007 130.752 80.9743 131.572 78.7381L136.08 66.4413C136.9 64.2051 138.72 62.6773 140.971 62.336L171.768 57.6714C171.986 58.4949 172.21 59.3157 172.44 60.1351C175.261 69.4237 180.63 77.5489 189.984 80.7359C207.687 87.1396 225.575 91.2029 240.627 101.219L243.386 163.667C243.559 167.592 240.568 171.249 236.705 171.834Z" fill="#FFC98D"/>
</g>
<path d="M124.561 54.923L120.052 67.2198C119.233 69.4559 117.412 70.9824 115.161 71.3237L55.297 80.3916C51.4341 80.9767 49.1492 84.9397 50.1948 89.2441L71.1546 175.568C72.2002 179.873 76.1781 182.888 80.0423 182.303L222.552 160.716C226.415 160.131 228.7 156.168 227.654 151.863L202.4 47.8488C201.354 43.5444 197.376 40.5295 193.513 41.1146L129.454 50.8177C127.203 51.159 125.383 52.6868 124.564 54.9216L124.561 54.923Z" fill="#F69931"/>
<path d="M150.761 64.7619L143.983 76.074C142.751 78.13 140.687 79.5522 138.434 79.8921L78.5714 88.96C74.7085 89.5451 71.7166 93.2021 71.89 97.1272L75.3681 175.856C75.5415 179.781 78.8138 182.49 82.6766 181.905L225.186 160.318C229.049 159.733 232.041 156.076 231.868 152.151L227.677 57.2881C227.504 53.363 224.232 50.6555 220.369 51.2406L156.31 60.9437C154.059 61.285 151.993 62.7058 150.761 64.7619Z" fill="#FFB25C"/>
<path d="M153.43 195.646V206.422H213.466V195.646" stroke="#FFB25C" stroke-width="8.01142" stroke-miterlimit="10" stroke-linecap="square"/>
<path d="M208.486 165.105L183.451 190.142L158.414 165.105" stroke="white" stroke-width="8.01142" stroke-miterlimit="10" stroke-linecap="square"/>
<path d="M183.449 187.063V132.522" stroke="white" stroke-width="8.01142" stroke-miterlimit="10" stroke-linecap="square"/>
</g>
<defs>
<clipPath id="clip0_495_9128">
<rect width="278.23" height="269.651" fill="white"/>
</clipPath>
</defs>
</svg>
