<svg width="512" height="350" viewBox="0 0 512 350" fill="none" xmlns="http://www.w3.org/2000/svg">
<g clip-path="url(#clip0_198_3011)">
<path d="M0.65625 322.351H508.856" stroke="#09101D" stroke-width="0.7" stroke-linecap="round"/>
<g clip-path="url(#clip1_198_3011)">
<path opacity="0.5" fill-rule="evenodd" clip-rule="evenodd" d="M186.681 253.295C189.047 253.589 191.336 254.205 193.485 255.094L198.49 250.901L207.086 257.439L204.377 263.375C205.805 265.216 207.009 267.253 207.926 269.458L214.429 270.032L215.878 280.735L209.767 283.017C209.473 285.383 208.857 287.672 207.968 289.821L212.161 294.826L205.623 303.415L199.687 300.706C197.846 302.134 195.809 303.338 193.604 304.255L193.03 310.751L182.327 312.207L180.045 306.096C177.679 305.802 175.39 305.186 173.241 304.297L168.236 308.49L159.64 301.952L162.349 296.016C160.921 294.175 159.717 292.138 158.8 289.933L152.304 289.359L150.855 278.656L156.966 276.374C157.26 274.008 157.876 271.719 158.765 269.57L154.572 264.565L161.11 255.976L167.053 258.685C168.894 257.257 170.931 256.053 173.136 255.136L173.71 248.64L184.413 247.191L186.695 253.302L186.681 253.295ZM183.475 268.051C176.118 268.317 170.882 275.191 172.59 282.352C173.85 287.651 178.785 291.41 184.231 291.207C191.588 290.941 196.817 284.067 195.109 276.906C193.849 271.607 188.914 267.848 183.475 268.044V268.051Z" fill="#BE7346"/>
<g opacity="0.5">
<path d="M72.9425 96.5159V65.4219C90.0015 65.4219 104.036 79.4569 104.036 96.5159C104.036 113.575 90.0015 127.61 72.9425 127.61C55.8835 127.61 42.2405 114.016 41.8555 97.2299L72.9425 96.5089V96.5159Z" fill="#BE7346"/>
<path d="M65.3596 88.1368L34.2656 88.8368C34.2656 80.7378 37.4296 72.2538 43.0786 66.4508C48.7276 60.6478 56.7846 57.2738 64.8836 57.0498L65.3666 88.1368H65.3596Z" fill="#EBD5C7"/>
</g>
<path opacity="0.5" fill-rule="evenodd" clip-rule="evenodd" d="M415.174 22.9113C417.54 23.2053 419.829 23.8213 421.978 24.7103L426.983 20.5173L435.579 27.0553L432.87 32.9913C434.298 34.8323 435.502 36.8693 436.419 39.0743L442.922 39.6483L444.371 50.3513L438.26 52.6333C437.966 54.9993 437.35 57.2883 436.461 59.4373L440.654 64.4423L434.116 73.0313L428.18 70.3223C426.339 71.7503 424.302 72.9543 422.097 73.8643L421.523 80.3603L410.82 81.8163L408.538 75.7053C406.172 75.4113 403.883 74.7953 401.734 73.9063L396.729 78.0993L388.133 71.5613L390.842 65.6253C389.414 63.7843 388.21 61.7473 387.293 59.5423L380.797 58.9683L379.348 48.2653L385.459 45.9833C385.753 43.6173 386.369 41.3283 387.258 39.1793L383.065 34.1743L389.603 25.5853L395.546 28.2943C397.387 26.8663 399.424 25.6623 401.629 24.7453L402.203 18.2493L412.906 16.8003L415.188 22.9113H415.174ZM411.968 37.6673C404.611 37.9333 399.375 44.8073 401.083 51.9683C402.343 57.2673 407.278 61.0263 412.724 60.8233C420.081 60.5573 425.31 53.6833 423.602 46.5223C422.342 41.2233 417.407 37.4643 411.968 37.6603V37.6673Z" fill="#BE7346"/>
<path opacity="0.5" fill-rule="evenodd" clip-rule="evenodd" d="M450.28 83.0693C451.925 83.2793 453.521 83.6993 455.019 84.3223L458.505 81.4033L464.49 85.9603L462.607 90.0973C463.601 91.3783 464.441 92.7993 465.078 94.3323L469.6 94.7313L470.608 102.179L466.352 103.768C466.149 105.413 465.722 107.009 465.099 108.507L468.018 111.993L463.468 117.978L459.331 116.095C458.05 117.089 456.629 117.922 455.096 118.566L454.697 123.088L447.249 124.096L445.66 119.84C444.015 119.637 442.419 119.21 440.921 118.587L437.435 121.506L431.45 116.956L433.333 112.819C432.339 111.538 431.506 110.117 430.862 108.584L426.34 108.185L425.332 100.737L429.588 99.1483C429.791 97.5033 430.218 95.9073 430.841 94.4093L427.922 90.9233L432.472 84.9383L436.609 86.8213C437.89 85.8273 439.311 84.9873 440.844 84.3503L441.243 79.8283L448.691 78.8203L450.28 83.0763V83.0693ZM448.047 93.3453C442.923 93.5273 439.276 98.3153 440.466 103.306C441.348 106.995 444.778 109.613 448.572 109.473C453.696 109.284 457.336 104.503 456.146 99.5193C455.271 95.8303 451.834 93.2123 448.047 93.3523V93.3453Z" fill="#BE7346"/>
<g opacity="0.5">
<path fill-rule="evenodd" clip-rule="evenodd" d="M90.7023 171.604C92.6763 172.633 94.4823 173.914 96.0783 175.391L101.818 173.347L107.215 181.866L102.917 186.185C103.575 188.264 103.96 190.434 104.044 192.667L109.546 195.278L107.334 205.12L101.237 205.134C100.208 207.108 98.9273 208.914 97.4503 210.51L99.4943 216.257L90.9753 221.654L86.6563 217.356C84.5773 218.014 82.4073 218.399 80.1743 218.483L77.5633 223.992L67.7213 221.787L67.7073 215.69C65.7333 214.661 63.9273 213.38 62.3313 211.903L56.5843 213.947L51.1873 205.428L55.4923 201.109C54.8343 199.03 54.4493 196.86 54.3653 194.634L48.8633 192.016L51.0683 182.174L57.1653 182.16C58.1943 180.186 59.4753 178.38 60.9523 176.784L58.9083 171.037L67.4273 165.64L71.7463 169.945C73.8253 169.287 75.9953 168.902 78.2283 168.818L80.8393 163.316L90.6813 165.521L90.6953 171.618L90.7023 171.604ZM82.0223 183.189C76.1913 181.88 70.4023 185.548 69.0933 191.379C67.7843 197.21 71.4523 202.999 77.2833 204.308C83.1143 205.617 88.9033 201.949 90.2123 196.118C91.5213 190.287 87.8533 184.498 82.0223 183.189Z" fill="#BE7346"/>
<g opacity="0.8">
<path fill-rule="evenodd" clip-rule="evenodd" d="M90.7023 171.604C92.6763 172.633 94.4823 173.914 96.0783 175.391L101.818 173.347L107.215 181.866L102.917 186.185C103.575 188.264 103.96 190.434 104.044 192.667L109.546 195.278L107.334 205.12L101.237 205.134C100.208 207.108 98.9273 208.914 97.4503 210.51L99.4943 216.257L90.9753 221.654L86.6563 217.356C84.5773 218.014 82.4073 218.399 80.1743 218.483L77.5633 223.992L67.7213 221.787L67.7073 215.69C65.7333 214.661 63.9273 213.38 62.3313 211.903L56.5843 213.947L51.1873 205.428L55.4923 201.109C54.8343 199.03 54.4493 196.86 54.3653 194.634L48.8633 192.016L51.0683 182.174L57.1653 182.16C58.1943 180.186 59.4753 178.38 60.9523 176.784L58.9083 171.037L67.4273 165.64L71.7463 169.945C73.8253 169.287 75.9953 168.902 78.2283 168.818L80.8393 163.316L90.6813 165.521L90.6953 171.618L90.7023 171.604ZM82.0223 183.189C76.1913 181.88 70.4023 185.548 69.0933 191.379C67.7843 197.21 71.4523 202.999 77.2833 204.308C83.1143 205.617 88.9033 201.949 90.2123 196.118C91.5213 190.287 87.8533 184.498 82.0223 183.189Z" fill="#EBD5C7"/>
</g>
<path fill-rule="evenodd" clip-rule="evenodd" d="M55.1061 229.586C56.2541 230.188 57.3041 230.93 58.2351 231.791L61.5811 230.601L64.7241 235.564L62.2181 238.077C62.5961 239.288 62.8271 240.555 62.8761 241.85L66.0821 243.369L64.7941 249.095H61.2451C60.6431 250.25 59.9011 251.3 59.0401 252.231L60.2301 255.577L55.2671 258.72L52.7541 256.214C51.5431 256.592 50.2761 256.823 48.9811 256.872L47.4621 260.078L41.7291 258.79V255.241C40.5741 254.639 39.5241 253.897 38.5931 253.036L35.2471 254.226L32.1041 249.263L34.6101 246.75C34.2321 245.539 34.0011 244.272 33.9521 242.977L30.7461 241.458L32.0341 235.725H35.5831C36.1851 234.57 36.9271 233.52 37.7881 232.589L36.5981 229.243L41.5611 226.1L44.0741 228.606C45.2851 228.228 46.5521 227.997 47.8471 227.948L49.3661 224.742L55.0921 226.03V229.579H55.0991L55.1061 229.586ZM50.0521 236.327C46.6571 235.564 43.2901 237.699 42.5271 241.094C41.7641 244.489 43.8991 247.856 47.2941 248.619C50.6891 249.382 54.0561 247.247 54.8191 243.852C55.5821 240.457 53.4471 237.09 50.0521 236.327Z" fill="#BE7346"/>
<g opacity="0.4">
<path fill-rule="evenodd" clip-rule="evenodd" d="M55.1061 229.586C56.2541 230.188 57.3041 230.93 58.2351 231.791L61.5811 230.601L64.7241 235.564L62.2181 238.077C62.5961 239.288 62.8271 240.555 62.8761 241.85L66.0821 243.369L64.7941 249.095H61.2451C60.6431 250.25 59.9011 251.3 59.0401 252.231L60.2301 255.577L55.2671 258.72L52.7541 256.214C51.5431 256.592 50.2761 256.823 48.9811 256.872L47.4621 260.078L41.7291 258.79V255.241C40.5741 254.639 39.5241 253.897 38.5931 253.036L35.2471 254.226L32.1041 249.263L34.6101 246.75C34.2321 245.539 34.0011 244.272 33.9521 242.977L30.7461 241.458L32.0341 235.725H35.5831C36.1851 234.57 36.9271 233.52 37.7881 232.589L36.5981 229.243L41.5611 226.1L44.0741 228.606C45.2851 228.228 46.5521 227.997 47.8471 227.948L49.3661 224.742L55.0921 226.03V229.579H55.0991L55.1061 229.586ZM50.0521 236.327C46.6571 235.564 43.2901 237.699 42.5271 241.094C41.7641 244.489 43.8991 247.856 47.2941 248.619C50.6891 249.382 54.0561 247.247 54.8191 243.852C55.5821 240.457 53.4471 237.09 50.0521 236.327Z" fill="#EBD5C7"/>
</g>
</g>
<path opacity="0.5" fill-rule="evenodd" clip-rule="evenodd" d="M423.385 130.417C425.009 130.62 426.577 131.04 428.054 131.649L431.484 128.772L437.378 133.259L435.523 137.333C436.503 138.593 437.329 139.993 437.959 141.505L442.418 141.897L443.412 149.24L439.219 150.808C439.016 152.432 438.596 154 437.987 155.477L440.864 158.914L436.377 164.808L432.303 162.953C431.043 163.933 429.643 164.759 428.131 165.389L427.739 169.848L420.396 170.842L418.828 166.649C417.204 166.446 415.636 166.026 414.159 165.417L410.722 168.294L404.828 163.807L406.69 159.733C405.71 158.473 404.884 157.073 404.254 155.561L399.795 155.169L398.801 147.826L402.994 146.258C403.197 144.634 403.617 143.066 404.226 141.589L401.349 138.152L405.836 132.258L409.91 134.113C411.17 133.133 412.57 132.307 414.082 131.677L414.474 127.218L421.817 126.224L423.385 130.417ZM421.18 140.546C416.126 140.728 412.535 145.446 413.711 150.36C414.579 154 417.967 156.576 421.698 156.436C426.745 156.254 430.336 151.536 429.167 146.622C428.306 142.982 424.918 140.406 421.18 140.539V140.546Z" fill="#09101D"/>
<g filter="url(#filter0_dd_198_3011)">
<path d="M417.954 47.1455H95.9258V269.759H417.954V47.1455Z" fill="white"/>
<path d="M417.954 47.1455H95.9258V60.0605H417.954V47.1455Z" fill="#09101D"/>
<path d="M105.114 53.3614C105.114 54.4534 104.225 55.3424 103.133 55.3424C102.041 55.3424 101.152 54.4534 101.152 53.3614C101.152 52.2694 102.041 51.3804 103.133 51.3804C104.225 51.3804 105.114 52.2694 105.114 53.3614Z" fill="white"/>
<path d="M112.271 53.3614C112.271 54.4534 111.382 55.3424 110.29 55.3424C109.198 55.3424 108.309 54.4534 108.309 53.3614C108.309 52.2694 109.198 51.3804 110.29 51.3804C111.382 51.3804 112.271 52.2694 112.271 53.3614Z" fill="white"/>
<path d="M119.427 53.3614C119.427 54.4534 118.538 55.3424 117.446 55.3424C116.354 55.3424 115.465 54.4534 115.465 53.3614C115.465 52.2694 116.354 51.3804 117.446 51.3804C118.538 51.3804 119.427 52.2694 119.427 53.3614Z" fill="white"/>
<path d="M406.431 255.773C406.431 254.968 406.389 229.194 406.326 183.463L406.431 183.568C340.008 183.582 231.515 183.61 109.141 183.645H109.119L109.301 183.463C109.301 208.236 109.301 232.435 109.301 255.773L109.119 255.591C278.653 255.696 404.652 255.766 406.423 255.773C404.652 255.773 278.653 255.85 109.119 255.955H108.938V255.773C108.938 232.435 108.938 208.236 108.938 183.463V183.281H109.141C231.515 183.309 340.001 183.337 406.431 183.358H406.536V183.463C406.466 229.194 406.431 254.968 406.431 255.773Z" fill="#E3E7EB"/>
<path d="M253.529 177.394C253.529 177.394 253.515 176.764 253.515 175.553C253.515 174.342 253.508 172.543 253.501 170.198C253.494 165.508 253.48 158.62 253.466 149.807C253.445 132.195 253.424 106.911 253.389 76.1667L253.536 76.3137C213.517 76.3207 163.691 76.3347 109.805 76.3487H109.791L109.973 76.1667C109.973 112.378 109.959 146.748 109.959 177.387L109.791 177.219C152.232 177.254 188.142 177.282 213.454 177.303C226.117 177.324 236.127 177.338 242.98 177.345C246.403 177.352 249.035 177.359 250.82 177.366C251.709 177.366 252.381 177.373 252.843 177.373C253.298 177.373 253.536 177.38 253.536 177.38C253.536 177.38 253.312 177.38 252.864 177.387C252.409 177.387 251.744 177.387 250.862 177.394C249.084 177.394 246.466 177.408 243.057 177.415C236.218 177.422 226.215 177.443 213.566 177.457C188.226 177.478 152.274 177.506 109.791 177.541H109.623V177.373C109.623 146.734 109.609 112.364 109.609 76.1527V75.9707H109.805C163.691 75.9847 213.524 75.9987 253.536 76.0057H253.683V76.1527C253.648 106.932 253.627 132.251 253.606 149.884C253.592 158.683 253.578 165.557 253.571 170.24C253.564 172.571 253.557 174.356 253.557 175.567C253.557 176.771 253.543 177.38 253.543 177.38L253.529 177.394Z" fill="#E3E7EB"/>
<path d="M125.331 158.249L135.684 143.276C137.791 140.231 141.984 139.496 144.994 141.652L146.45 142.695C150.062 145.278 155.144 143.647 156.579 139.447L161.605 124.74C163.649 118.762 172.112 118.762 174.156 124.74L176.585 131.859C178.538 137.564 186.476 137.914 188.919 132.398L191.026 127.638C193.133 122.892 199.629 122.297 202.562 126.581C205.642 131.089 212.544 130.151 214.308 124.985L216.66 118.104C218.823 111.783 227.916 112.266 229.4 118.776L238.395 158.256C238.395 158.256 125.639 157.941 125.324 158.256L125.331 158.249Z" fill="#BE7346"/>
<g opacity="0.3">
<path d="M125.331 158.249L135.684 143.276C137.791 140.231 141.984 139.496 144.994 141.652L146.45 142.695C150.062 145.278 155.144 143.647 156.579 139.447L161.605 124.74C163.649 118.762 172.112 118.762 174.156 124.74L176.585 131.859C178.538 137.564 186.476 137.914 188.919 132.398L191.026 127.638C193.133 122.892 199.629 122.297 202.562 126.581C205.642 131.089 212.544 130.151 214.308 124.985L216.66 118.104C218.823 111.783 227.916 112.266 229.4 118.776L238.395 158.256C238.395 158.256 125.639 157.941 125.324 158.256L125.331 158.249Z" fill="#09101D"/>
</g>
<path d="M125.035 158.634L133.449 134.022C135.423 128.254 143.543 128.156 145.65 133.875L149.682 144.781C151.425 149.499 157.648 150.514 160.805 146.594L164.067 142.534C166.237 139.839 170.143 139.321 172.936 141.365L180.538 146.923C181.651 147.735 182.988 148.169 184.36 148.169H194.034C195.406 148.169 196.75 148.603 197.856 149.415L205.052 154.679C208.006 156.835 212.157 156.128 214.222 153.104L220.977 143.22C221.061 143.094 221.152 142.975 221.243 142.856C223.952 139.426 229.391 140.147 231.358 144.053L238.589 158.389C238.589 158.389 125.035 158.158 125.035 158.62V158.634Z" fill="#BE7346"/>
<path d="M238.557 158.403L229.765 151.249C217.711 142.38 211.992 159.257 202.514 146.594L199.252 142.534C197.082 139.839 193.176 139.321 190.383 141.365L186.603 144.13C183.012 146.762 178.672 148.176 174.22 148.176H169.285C167.913 148.176 166.569 148.61 165.463 149.422L158.267 154.686C155.313 156.842 153.255 157.136 148.53 153.167C148.53 153.167 143.399 148.995 143.28 148.848C140.767 145.789 135.51 145.789 133.249 148.848C132.703 149.583 132.136 150.234 131.52 150.913L124.73 158.396C124.73 158.396 238.557 157.927 238.557 158.396V158.403Z" fill="#BE7346"/>
<g opacity="0.3">
<path d="M238.554 158.403L229.762 151.249C217.708 142.38 211.989 159.257 202.511 146.594L199.249 142.534C197.079 139.839 193.173 139.321 190.38 141.365L186.6 144.13C183.009 146.762 178.669 148.176 174.217 148.176H169.282C167.91 148.176 166.566 148.61 165.46 149.422L158.264 154.686C155.31 156.842 153.252 157.136 148.527 153.167C148.527 153.167 143.396 148.995 143.277 148.848C140.764 145.789 135.507 145.789 133.246 148.848C132.7 149.583 132.133 150.234 131.517 150.913L124.727 158.396C124.727 158.396 238.554 157.927 238.554 158.396V158.403Z" fill="white"/>
</g>
<path d="M136.327 100.044H133.254V103.117H136.327V100.044Z" fill="#BE7346"/>
<path d="M170.221 100.044H167.148V103.117H170.221V100.044Z" fill="#BE7346"/>
<path d="M204.108 100.044H201.035V103.117H204.108V100.044Z" fill="#BE7346"/>
<path d="M224.487 243.411L231.886 232.862C232.747 231.637 234.455 231.364 235.652 232.267L239.544 235.207C240.818 236.166 242.638 235.795 243.436 234.416L254.664 214.97C255.602 213.346 257.884 213.185 259.039 214.655L266.046 223.545C267.18 224.98 269.385 224.868 270.365 223.328L275.489 215.278C276.56 213.598 279.024 213.654 280.018 215.376L284.246 222.705C285.24 224.427 287.704 224.483 288.775 222.803L303.237 200.137C304.266 198.527 306.611 198.499 307.675 200.088L331.566 235.83C332.525 237.265 334.576 237.412 335.731 236.138L350.249 220.157C351.271 219.037 353.021 218.995 354.092 220.066L365.635 231.651C366.867 232.89 368.939 232.617 369.807 231.105L390.464 195.328C391.822 192.976 395.413 193.942 395.413 196.651V243.411H224.473H224.487Z" fill="#BE7346"/>
<path d="M407.368 154.203C407.368 154.203 407.361 153.783 407.354 152.978C407.354 152.166 407.347 150.969 407.34 149.408C407.333 146.272 407.319 141.652 407.305 135.716C407.291 123.844 407.263 106.68 407.235 85.4911L407.368 85.6241C369.911 85.6381 319.266 85.6521 263.63 85.6731H263.623L263.805 85.4911C263.805 109.683 263.805 132.93 263.798 154.21L263.623 154.035C305.504 154.07 341.414 154.098 366.866 154.119C379.599 154.14 389.714 154.154 396.658 154.168C400.123 154.175 402.797 154.182 404.61 154.189C405.513 154.189 406.199 154.196 406.668 154.196C407.13 154.196 407.375 154.21 407.375 154.21C407.375 154.21 407.151 154.217 406.689 154.224C406.227 154.224 405.548 154.224 404.652 154.231C402.846 154.231 400.186 154.245 396.735 154.252C389.805 154.266 379.704 154.28 366.985 154.301C341.505 154.322 305.553 154.35 263.623 154.385H263.448V154.21C263.448 132.937 263.448 109.683 263.441 85.4911V85.3091H263.63C319.266 85.3301 369.904 85.3441 407.368 85.3581H407.501V85.4911C407.473 106.715 407.445 123.907 407.431 135.8C407.417 141.729 407.403 146.335 407.396 149.464C407.396 151.018 407.382 152.208 407.382 153.013C407.382 153.811 407.368 154.21 407.368 154.21V154.203Z" fill="#E3E7EB"/>
<path d="M374.83 115.451H275.808C274.898 115.451 274.156 114.709 274.156 113.799C274.156 112.889 274.898 112.147 275.808 112.147H374.83C375.74 112.147 376.482 112.889 376.482 113.799C376.482 114.709 375.74 115.451 374.83 115.451Z" fill="#E3E7EB"/>
<path d="M374.83 102.382H275.808C274.898 102.382 274.156 101.64 274.156 100.73C274.156 99.8201 274.898 99.0781 275.808 99.0781H374.83C375.74 99.0781 376.482 99.8201 376.482 100.73C376.482 101.64 375.74 102.382 374.83 102.382Z" fill="#E3E7EB"/>
<path d="M320.552 115.451H275.808C274.898 115.451 274.156 114.709 274.156 113.799C274.156 112.889 274.898 112.147 275.808 112.147H320.552C321.462 112.147 322.204 112.889 322.204 113.799C322.204 114.709 321.462 115.451 320.552 115.451Z" fill="#798087"/>
<path d="M387.39 114.506H386.662V115.451H386.13V114.506H383.988V114.121L385.955 111.601H386.55L384.66 114.03H386.137V113.197H386.655V114.03H387.383V114.506H387.39Z" fill="#09101D"/>
<path d="M390.401 114.297C390.401 114.962 389.925 115.494 388.945 115.494C388.399 115.494 387.86 115.319 387.531 115.025L387.783 114.591C388.042 114.836 388.469 115.004 388.938 115.004C389.519 115.004 389.848 114.738 389.848 114.318C389.848 113.898 389.575 113.611 388.679 113.611H387.804L388.007 111.595H390.177V112.071H388.469L388.364 113.128H388.791C389.939 113.128 390.394 113.604 390.394 114.29L390.401 114.297Z" fill="#09101D"/>
<path d="M390.742 112.616C390.742 111.986 391.106 111.566 391.638 111.566C392.17 111.566 392.527 111.986 392.527 112.616C392.527 113.246 392.17 113.666 391.638 113.666C391.106 113.666 390.742 113.239 390.742 112.616ZM392.177 112.616C392.177 112.154 391.974 111.881 391.638 111.881C391.302 111.881 391.099 112.161 391.099 112.616C391.099 113.071 391.309 113.351 391.638 113.351C391.967 113.351 392.177 113.078 392.177 112.616ZM393.962 111.601H394.389L391.757 115.451H391.337L393.969 111.601H393.962ZM393.185 114.436C393.185 113.806 393.542 113.386 394.074 113.386C394.606 113.386 394.97 113.806 394.97 114.436C394.97 115.066 394.606 115.486 394.074 115.486C393.542 115.486 393.185 115.059 393.185 114.436ZM394.613 114.436C394.613 113.981 394.403 113.701 394.074 113.701C393.745 113.701 393.535 113.974 393.535 114.436C393.535 114.898 393.738 115.171 394.074 115.171C394.41 115.171 394.613 114.891 394.613 114.436Z" fill="#09101D"/>
<path d="M374.83 127.553H275.808C274.898 127.553 274.156 126.811 274.156 125.901C274.156 124.991 274.898 124.249 275.808 124.249H374.83C375.74 124.249 376.482 124.991 376.482 125.901C376.482 126.811 375.74 127.553 374.83 127.553Z" fill="#E3E7EB"/>
<path d="M335.134 127.553H275.914C274.682 127.553 274.164 126.811 274.164 125.901C274.164 124.991 274.689 124.249 275.326 124.249H334.546C335.708 124.249 336.443 124.991 336.443 125.901C336.443 127.252 335.19 127.553 335.134 127.553Z" fill="#798087"/>
<path d="M386.844 123.703V124.074L385.29 127.553H384.709L386.235 124.179H384.478V124.865H383.953V123.696H386.858L386.844 123.703Z" fill="#09101D"/>
<path d="M387.219 125.629C387.219 124.376 387.891 123.662 388.794 123.662C389.697 123.662 390.362 124.376 390.362 125.629C390.362 126.882 389.69 127.596 388.794 127.596C387.898 127.596 387.219 126.882 387.219 125.629ZM389.809 125.629C389.809 124.642 389.389 124.152 388.794 124.152C388.199 124.152 387.772 124.649 387.772 125.629C387.772 126.609 388.192 127.106 388.794 127.106C389.396 127.106 389.809 126.609 389.809 125.629Z" fill="#09101D"/>
<path d="M390.828 124.718C390.828 124.088 391.192 123.668 391.724 123.668C392.256 123.668 392.613 124.088 392.613 124.718C392.613 125.348 392.256 125.768 391.724 125.768C391.192 125.768 390.828 125.341 390.828 124.718ZM392.263 124.718C392.263 124.256 392.06 123.983 391.724 123.983C391.388 123.983 391.185 124.263 391.185 124.718C391.185 125.173 391.395 125.453 391.724 125.453C392.053 125.453 392.263 125.18 392.263 124.718ZM394.048 123.703H394.475L391.843 127.553H391.423L394.055 123.703H394.048ZM393.271 126.538C393.271 125.908 393.628 125.488 394.16 125.488C394.692 125.488 395.056 125.908 395.056 126.538C395.056 127.168 394.692 127.588 394.16 127.588C393.628 127.588 393.271 127.161 393.271 126.538ZM394.699 126.538C394.699 126.083 394.489 125.803 394.16 125.803C393.831 125.803 393.621 126.076 393.621 126.538C393.621 127 393.824 127.273 394.16 127.273C394.496 127.273 394.699 126.993 394.699 126.538Z" fill="#09101D"/>
<path d="M374.83 139.37H275.808C274.898 139.37 274.156 138.628 274.156 137.718C274.156 136.808 274.898 136.066 275.808 136.066H374.83C375.74 136.066 376.482 136.808 376.482 137.718C376.482 138.628 375.74 139.37 374.83 139.37Z" fill="#E3E7EB"/>
<path d="M312.594 139.37H275.816C274.906 139.37 274.164 138.628 274.164 137.718C274.164 136.808 274.906 136.066 275.816 136.066H312.594C313.504 136.066 314.246 136.808 314.246 137.718C314.246 138.628 313.504 139.37 312.594 139.37Z" fill="#798087"/>
<path d="M386.737 138.215C386.737 138.88 386.261 139.412 385.281 139.412C384.735 139.412 384.196 139.237 383.867 138.943L384.119 138.509C384.378 138.754 384.805 138.922 385.274 138.922C385.855 138.922 386.184 138.656 386.184 138.236C386.184 137.816 385.911 137.529 385.015 137.529H384.14L384.343 135.513H386.513V135.989H384.805L384.7 137.046H385.127C386.275 137.046 386.73 137.522 386.73 138.208L386.737 138.215Z" fill="#09101D"/>
<path d="M387.191 137.438C387.191 136.185 387.863 135.471 388.766 135.471C389.669 135.471 390.334 136.185 390.334 137.438C390.334 138.691 389.662 139.405 388.766 139.405C387.87 139.405 387.191 138.691 387.191 137.438ZM389.781 137.438C389.781 136.451 389.361 135.961 388.766 135.961C388.171 135.961 387.744 136.458 387.744 137.438C387.744 138.418 388.164 138.915 388.766 138.915C389.368 138.915 389.781 138.418 389.781 137.438Z" fill="#09101D"/>
<path d="M390.805 136.534C390.805 135.904 391.169 135.484 391.701 135.484C392.233 135.484 392.59 135.904 392.59 136.534C392.59 137.164 392.233 137.584 391.701 137.584C391.169 137.584 390.805 137.157 390.805 136.534ZM392.24 136.534C392.24 136.072 392.037 135.799 391.701 135.799C391.365 135.799 391.162 136.079 391.162 136.534C391.162 136.989 391.372 137.269 391.701 137.269C392.03 137.269 392.24 136.996 392.24 136.534ZM394.025 135.519H394.452L391.82 139.369H391.4L394.032 135.519H394.025ZM393.248 138.354C393.248 137.724 393.605 137.304 394.137 137.304C394.669 137.304 395.033 137.731 395.033 138.354C395.033 138.977 394.669 139.404 394.137 139.404C393.605 139.404 393.248 138.977 393.248 138.354ZM394.676 138.354C394.676 137.899 394.466 137.619 394.137 137.619C393.808 137.619 393.598 137.892 393.598 138.354C393.598 138.816 393.801 139.089 394.137 139.089C394.473 139.089 394.676 138.809 394.676 138.354Z" fill="#09101D"/>
<path d="M341.363 102.382H275.808C274.898 102.382 274.156 101.64 274.156 100.73C274.156 99.8201 274.898 99.0781 275.808 99.0781H341.363C342.273 99.0781 343.015 99.8201 343.015 100.73C343.015 101.64 342.273 102.382 341.363 102.382Z" fill="#BE7346"/>
<path d="M387.021 101.206C387.021 101.948 386.419 102.424 385.656 102.424C384.62 102.424 384.039 101.731 384.039 100.506C384.039 99.1902 384.781 98.4902 385.859 98.4902C386.223 98.4902 386.566 98.5602 386.818 98.7142L386.608 99.1412C386.412 99.0082 386.146 98.9592 385.873 98.9592C385.089 98.9592 384.592 99.4492 384.592 100.408C384.592 100.45 384.592 100.499 384.592 100.548C384.809 100.219 385.222 100.044 385.698 100.044C386.461 100.044 387.021 100.499 387.021 101.213V101.206ZM386.489 101.227C386.489 100.779 386.146 100.485 385.607 100.485C385.068 100.485 384.718 100.807 384.718 101.234C384.718 101.633 385.04 101.976 385.628 101.976C386.125 101.976 386.482 101.682 386.482 101.227H386.489Z" fill="#09101D"/>
<path d="M387.438 100.457C387.438 99.2042 388.11 98.4902 389.013 98.4902C389.916 98.4902 390.581 99.2042 390.581 100.457C390.581 101.71 389.909 102.424 389.013 102.424C388.117 102.424 387.438 101.71 387.438 100.457ZM390.027 100.457C390.027 99.4702 389.608 98.9802 389.013 98.9802C388.418 98.9802 387.99 99.4772 387.99 100.457C387.99 101.437 388.411 101.934 389.013 101.934C389.615 101.934 390.027 101.437 390.027 100.457Z" fill="#09101D"/>
<path d="M391.039 99.5471C391.039 98.9171 391.403 98.4971 391.935 98.4971C392.467 98.4971 392.824 98.9171 392.824 99.5471C392.824 100.177 392.467 100.597 391.935 100.597C391.403 100.597 391.039 100.17 391.039 99.5471ZM392.474 99.5471C392.474 99.0851 392.271 98.8121 391.935 98.8121C391.599 98.8121 391.396 99.0921 391.396 99.5471C391.396 100.002 391.606 100.282 391.935 100.282C392.264 100.282 392.474 100.009 392.474 99.5471ZM394.259 98.5321H394.686L392.054 102.382H391.634L394.266 98.5321H394.259ZM393.482 101.367C393.482 100.737 393.839 100.317 394.371 100.317C394.903 100.317 395.267 100.737 395.267 101.367C395.267 101.997 394.903 102.417 394.371 102.417C393.839 102.417 393.482 101.99 393.482 101.367ZM394.91 101.367C394.91 100.912 394.7 100.632 394.371 100.632C394.042 100.632 393.832 100.905 393.832 101.367C393.832 101.829 394.035 102.102 394.371 102.102C394.707 102.102 394.91 101.822 394.91 101.367Z" fill="#09101D"/>
<path d="M128.911 239.218C127.833 239.218 126.965 238.35 126.965 237.272V200.767C126.965 199.689 127.833 198.821 128.911 198.821C129.989 198.821 130.857 199.689 130.857 200.767V237.272C130.857 238.35 129.989 239.218 128.911 239.218Z" fill="#E3E7EB"/>
<path d="M128.911 239.386C127.833 239.386 126.965 238.518 126.965 237.44V213.906C126.965 212.835 127.833 211.96 128.911 211.96C129.989 211.96 130.857 212.828 130.857 213.906V237.44C130.857 238.518 129.989 239.386 128.911 239.386Z" fill="#BE7346"/>
<path d="M127.681 240.912V244.16H127.345V241.213H126.582V240.919H127.681V240.912Z" fill="#09101D"/>
<path d="M128.453 242.536C128.453 241.5 128.992 240.884 129.748 240.884C130.504 240.884 131.043 241.5 131.043 242.536C131.043 243.572 130.497 244.188 129.748 244.188C128.999 244.188 128.453 243.572 128.453 242.536ZM130.7 242.536C130.7 241.668 130.308 241.192 129.748 241.192C129.188 241.192 128.796 241.668 128.796 242.536C128.796 243.404 129.188 243.88 129.748 243.88C130.308 243.88 130.7 243.404 130.7 242.536Z" fill="#09101D"/>
<path d="M136.688 239.218C135.61 239.218 134.742 238.35 134.742 237.272V200.767C134.742 199.689 135.61 198.821 136.688 198.821C137.759 198.821 138.634 199.689 138.634 200.767V237.272C138.634 238.35 137.766 239.218 136.688 239.218Z" fill="#E3E7EB"/>
<path d="M136.688 239.386C135.61 239.386 134.742 238.518 134.742 237.44V206.493C134.742 205.415 135.61 204.547 136.688 204.547C137.759 204.547 138.634 205.415 138.634 206.493V237.44C138.634 238.518 137.766 239.386 136.688 239.386Z" fill="#BE7346"/>
<path d="M136.225 243.859V244.153H133.95V243.915L135.301 242.592C135.665 242.228 135.735 242.011 135.735 241.787C135.735 241.409 135.469 241.178 134.972 241.178C134.594 241.178 134.3 241.297 134.09 241.542L133.852 241.339C134.104 241.045 134.503 240.877 135 240.877C135.658 240.877 136.078 241.213 136.078 241.752C136.078 242.06 135.98 242.34 135.546 242.767L134.44 243.852H136.225V243.859Z" fill="#09101D"/>
<path d="M136.617 242.535C136.617 241.499 137.156 240.883 137.912 240.883C138.668 240.883 139.207 241.499 139.207 242.535C139.207 243.571 138.661 244.187 137.912 244.187C137.163 244.187 136.617 243.571 136.617 242.535ZM138.864 242.535C138.864 241.667 138.472 241.191 137.912 241.191C137.352 241.191 136.96 241.667 136.96 242.535C136.96 243.403 137.352 243.879 137.912 243.879C138.472 243.879 138.864 243.403 138.864 242.535Z" fill="#09101D"/>
<path d="M144.466 239.218C143.395 239.218 142.52 238.35 142.52 237.272V200.767C142.52 199.689 143.388 198.821 144.466 198.821C145.544 198.821 146.412 199.689 146.412 200.767V237.272C146.412 238.35 145.544 239.218 144.466 239.218Z" fill="#E3E7EB"/>
<path d="M144.466 239.386C143.395 239.386 142.52 238.518 142.52 237.44V219.464C142.52 218.386 143.388 217.518 144.466 217.518C145.544 217.518 146.412 218.386 146.412 219.464V237.44C146.412 238.518 145.544 239.386 144.466 239.386Z" fill="#BE7346"/>
<path d="M143.966 243.229C143.966 243.768 143.574 244.188 142.79 244.188C142.321 244.188 141.873 244.027 141.621 243.768L141.782 243.502C141.992 243.719 142.363 243.88 142.79 243.88C143.329 243.88 143.623 243.628 143.623 243.229C143.623 242.83 143.35 242.585 142.748 242.585H142.517V242.34L143.413 241.213H141.754V240.919H143.84V241.157L142.923 242.312C143.616 242.347 143.966 242.718 143.966 243.236V243.229Z" fill="#09101D"/>
<path d="M144.43 242.536C144.43 241.5 144.969 240.884 145.725 240.884C146.481 240.884 147.02 241.5 147.02 242.536C147.02 243.572 146.474 244.188 145.725 244.188C144.976 244.188 144.43 243.572 144.43 242.536ZM146.677 242.536C146.677 241.668 146.285 241.192 145.725 241.192C145.165 241.192 144.773 241.668 144.773 242.536C144.773 243.404 145.165 243.88 145.725 243.88C146.285 243.88 146.677 243.404 146.677 242.536Z" fill="#09101D"/>
<path d="M152.239 239.218C151.161 239.218 150.293 238.35 150.293 237.272V200.767C150.293 199.689 151.161 198.821 152.239 198.821C153.31 198.821 154.185 199.689 154.185 200.767V237.272C154.185 238.35 153.317 239.218 152.239 239.218Z" fill="#E3E7EB"/>
<path d="M152.239 239.386C151.161 239.386 150.293 238.518 150.293 237.44V206.493C150.293 205.415 151.161 204.547 152.239 204.547C153.31 204.547 154.185 205.415 154.185 206.493V237.44C154.185 238.518 153.317 239.386 152.239 239.386Z" fill="#BE7346"/>
<path d="M152.251 243.306H151.6V244.16H151.264V243.306H149.43V243.068L151.152 240.919H151.523L149.864 243.012H151.271V242.263H151.593V243.012H152.244V243.306H152.251Z" fill="#09101D"/>
<path d="M152.555 242.536C152.555 241.5 153.094 240.884 153.85 240.884C154.606 240.884 155.145 241.5 155.145 242.536C155.145 243.572 154.599 244.188 153.85 244.188C153.101 244.188 152.555 243.572 152.555 242.536ZM154.802 242.536C154.802 241.668 154.41 241.192 153.85 241.192C153.29 241.192 152.898 241.668 152.898 242.536C152.898 243.404 153.29 243.88 153.85 243.88C154.41 243.88 154.802 243.404 154.802 242.536Z" fill="#09101D"/>
<path d="M160.024 239.218C158.953 239.218 158.078 238.35 158.078 237.272V200.767C158.078 199.689 158.946 198.821 160.024 198.821C161.102 198.821 161.97 199.689 161.97 200.767V237.272C161.97 238.35 161.102 239.218 160.024 239.218Z" fill="#E3E7EB"/>
<path d="M160.024 239.386C158.953 239.386 158.078 238.518 158.078 237.44V212.422C158.078 211.351 158.946 210.476 160.024 210.476C161.102 210.476 161.97 211.344 161.97 212.422V237.44C161.97 238.518 161.102 239.386 160.024 239.386Z" fill="#BE7346"/>
<path d="M159.854 243.201C159.854 243.754 159.469 244.181 158.678 244.181C158.209 244.181 157.768 244.02 157.516 243.761L157.677 243.495C157.887 243.712 158.258 243.873 158.671 243.873C159.224 243.873 159.511 243.607 159.511 243.208C159.511 242.788 159.252 242.529 158.426 242.529H157.733L157.901 240.905H159.679V241.199H158.195L158.083 242.235H158.503C159.483 242.235 159.854 242.62 159.854 243.194V243.201Z" fill="#09101D"/>
<path d="M160.277 242.536C160.277 241.5 160.816 240.884 161.572 240.884C162.328 240.884 162.867 241.5 162.867 242.536C162.867 243.572 162.321 244.188 161.572 244.188C160.823 244.188 160.277 243.572 160.277 242.536ZM162.524 242.536C162.524 241.668 162.132 241.192 161.572 241.192C161.012 241.192 160.62 241.668 160.62 242.536C160.62 243.404 161.012 243.88 161.572 243.88C162.132 243.88 162.524 243.404 162.524 242.536Z" fill="#09101D"/>
<path d="M167.801 239.218C166.723 239.218 165.855 238.35 165.855 237.272V200.767C165.855 199.689 166.723 198.821 167.801 198.821C168.879 198.821 169.747 199.689 169.747 200.767V237.272C169.747 238.35 168.879 239.218 167.801 239.218Z" fill="#E3E7EB"/>
<path d="M167.801 239.218C166.723 239.218 165.855 238.35 165.855 237.447V219.471C165.855 218.225 166.723 217.357 167.801 217.357C168.879 217.357 169.747 218.225 169.747 219.303V237.279C169.747 238.357 168.879 239.225 167.801 239.225V239.218Z" fill="#BE7346"/>
<path d="M167.553 243.187C167.553 243.796 167.077 244.181 166.447 244.181C165.586 244.181 165.117 243.586 165.117 242.557C165.117 241.451 165.719 240.877 166.601 240.877C166.895 240.877 167.168 240.926 167.371 241.052L167.238 241.318C167.07 241.206 166.846 241.164 166.608 241.164C165.908 241.164 165.46 241.612 165.46 242.494C165.46 242.571 165.46 242.662 165.474 242.76C165.635 242.403 166.013 242.207 166.468 242.207C167.112 242.207 167.56 242.585 167.56 243.18L167.553 243.187ZM167.224 243.194C167.224 242.767 166.909 242.494 166.405 242.494C165.901 242.494 165.572 242.802 165.572 243.201C165.572 243.558 165.866 243.894 166.433 243.894C166.902 243.894 167.224 243.621 167.224 243.187V243.194Z" fill="#09101D"/>
<path d="M167.938 242.535C167.938 241.499 168.477 240.883 169.233 240.883C169.989 240.883 170.527 241.499 170.527 242.535C170.527 243.571 169.982 244.187 169.233 244.187C168.484 244.187 167.938 243.571 167.938 242.535ZM170.184 242.535C170.184 241.667 169.793 241.191 169.233 241.191C168.673 241.191 168.281 241.667 168.281 242.535C168.281 243.403 168.673 243.879 169.233 243.879C169.793 243.879 170.184 243.403 170.184 242.535Z" fill="#09101D"/>
<path d="M175.579 239.218C174.501 239.218 173.633 238.35 173.633 237.272V200.767C173.633 199.689 174.501 198.821 175.579 198.821C176.65 198.821 177.525 199.689 177.525 200.767V237.272C177.525 238.35 176.657 239.218 175.579 239.218Z" fill="#E3E7EB"/>
<path d="M175.579 239.386C174.501 239.386 173.633 238.518 173.633 237.44V204.645C173.633 203.567 174.501 202.699 175.579 202.699C176.65 202.699 177.525 203.567 177.525 204.645V237.44C177.525 238.518 176.657 239.386 175.579 239.386Z" fill="#BE7346"/>
<path d="M175.161 240.912V241.15L173.803 244.16H173.439L174.776 241.213H173.11V241.822H172.781V240.919H175.161V240.912Z" fill="#09101D"/>
<path d="M175.512 242.536C175.512 241.5 176.051 240.884 176.807 240.884C177.563 240.884 178.102 241.5 178.102 242.536C178.102 243.572 177.556 244.188 176.807 244.188C176.058 244.188 175.512 243.572 175.512 242.536ZM177.759 242.536C177.759 241.668 177.367 241.192 176.807 241.192C176.247 241.192 175.855 241.668 175.855 242.536C175.855 243.404 176.247 243.88 176.807 243.88C177.367 243.88 177.759 243.404 177.759 242.536Z" fill="#09101D"/>
<path d="M183.36 239.218C182.282 239.218 181.414 238.35 181.414 237.272V200.767C181.414 199.689 182.282 198.821 183.36 198.821C184.431 198.821 185.306 199.689 185.306 200.767V237.272C185.306 238.35 184.438 239.218 183.36 239.218Z" fill="#E3E7EB"/>
<path d="M183.36 239.386C182.282 239.386 181.414 238.518 181.414 237.44V223.174C181.414 222.103 182.282 221.228 183.36 221.228C184.431 221.228 185.306 222.096 185.306 223.174V237.44C185.306 238.518 184.438 239.386 183.36 239.386Z" fill="#BE7346"/>
<path d="M182.97 243.257C182.97 243.831 182.48 244.188 181.71 244.188C180.94 244.188 180.457 243.831 180.457 243.257C180.457 242.865 180.681 242.592 181.08 242.459C180.751 242.326 180.569 242.081 180.569 241.745C180.569 241.22 181.017 240.884 181.703 240.884C182.389 240.884 182.851 241.213 182.851 241.745C182.851 242.081 182.662 242.326 182.333 242.459C182.739 242.592 182.97 242.872 182.97 243.257ZM182.627 243.257C182.627 242.858 182.284 242.606 181.71 242.606C181.136 242.606 180.8 242.858 180.8 243.257C180.8 243.656 181.136 243.908 181.71 243.908C182.284 243.908 182.627 243.656 182.627 243.257ZM181.71 242.347C182.214 242.347 182.515 242.123 182.515 241.766C182.515 241.409 182.193 241.178 181.71 241.178C181.227 241.178 180.905 241.402 180.905 241.759C180.905 242.116 181.199 242.34 181.71 242.34V242.347Z" fill="#09101D"/>
<path d="M183.43 242.536C183.43 241.5 183.969 240.884 184.725 240.884C185.481 240.884 186.02 241.5 186.02 242.536C186.02 243.572 185.474 244.188 184.725 244.188C183.976 244.188 183.43 243.572 183.43 242.536ZM185.677 242.536C185.677 241.668 185.285 241.192 184.725 241.192C184.165 241.192 183.773 241.668 183.773 242.536C183.773 243.404 184.165 243.88 184.725 243.88C185.285 243.88 185.677 243.404 185.677 242.536Z" fill="#09101D"/>
<path d="M191.133 239.218C190.055 239.218 189.188 238.35 189.188 237.272V200.767C189.188 199.689 190.055 198.821 191.133 198.821C192.211 198.821 193.079 199.689 193.079 200.767V237.272C193.079 238.35 192.211 239.218 191.133 239.218Z" fill="#E3E7EB"/>
<path d="M191.133 239.218C190.055 239.218 189.188 238.35 189.188 237.447V232.442C189.188 231.196 190.055 230.328 191.133 230.328C192.211 230.328 193.079 231.196 193.079 232.274V237.279C193.079 238.357 192.211 239.225 191.133 239.225V239.218Z" fill="#BE7346"/>
<path d="M190.545 242.508C190.545 243.614 189.943 244.188 189.061 244.188C188.767 244.188 188.494 244.139 188.291 244.013L188.424 243.747C188.592 243.859 188.816 243.901 189.054 243.901C189.754 243.901 190.202 243.453 190.202 242.571C190.202 242.494 190.202 242.403 190.188 242.305C190.027 242.662 189.649 242.858 189.194 242.858C188.55 242.858 188.102 242.48 188.102 241.885C188.102 241.29 188.578 240.891 189.208 240.891C190.069 240.891 190.538 241.486 190.538 242.515L190.545 242.508ZM190.083 241.864C190.083 241.507 189.789 241.171 189.222 241.171C188.753 241.171 188.431 241.444 188.431 241.878C188.431 242.312 188.746 242.578 189.25 242.578C189.754 242.578 190.083 242.27 190.083 241.871V241.864Z" fill="#09101D"/>
<path d="M191.027 242.536C191.027 241.5 191.566 240.884 192.322 240.884C193.078 240.884 193.617 241.5 193.617 242.536C193.617 243.572 193.071 244.188 192.322 244.188C191.573 244.188 191.027 243.572 191.027 242.536ZM193.274 242.536C193.274 241.668 192.882 241.192 192.322 241.192C191.762 241.192 191.37 241.668 191.37 242.536C191.37 243.404 191.762 243.88 192.322 243.88C192.882 243.88 193.274 243.404 193.274 242.536Z" fill="#09101D"/>
<path d="M198.911 239.218C197.84 239.218 196.965 238.35 196.965 237.272V200.767C196.965 199.689 197.833 198.821 198.911 198.821C199.989 198.821 200.857 199.689 200.857 200.767V237.272C200.857 238.35 199.989 239.218 198.911 239.218Z" fill="#E3E7EB"/>
<path d="M198.911 239.218C197.84 239.218 196.965 238.35 196.965 237.447V219.471C196.965 218.225 197.833 217.357 198.911 217.357C199.989 217.357 200.857 218.225 200.857 219.303V237.279C200.857 238.357 199.989 239.225 198.911 239.225V239.218Z" fill="#BE7346"/>
<path d="M196.122 240.912V244.16H195.786V241.213H195.023V240.919H196.122V240.912Z" fill="#09101D"/>
<path d="M196.895 242.535C196.895 241.499 197.434 240.883 198.19 240.883C198.946 240.883 199.485 241.499 199.485 242.535C199.485 243.571 198.939 244.187 198.19 244.187C197.441 244.187 196.895 243.571 196.895 242.535ZM199.142 242.535C199.142 241.667 198.75 241.191 198.19 241.191C197.63 241.191 197.238 241.667 197.238 242.535C197.238 243.403 197.63 243.879 198.19 243.879C198.75 243.879 199.142 243.403 199.142 242.535Z" fill="#09101D"/>
<path d="M199.961 242.535C199.961 241.499 200.5 240.883 201.256 240.883C202.012 240.883 202.551 241.499 202.551 242.535C202.551 243.571 202.005 244.187 201.256 244.187C200.507 244.187 199.961 243.571 199.961 242.535ZM202.208 242.535C202.208 241.667 201.816 241.191 201.256 241.191C200.696 241.191 200.304 241.667 200.304 242.535C200.304 243.403 200.696 243.879 201.256 243.879C201.816 243.879 202.208 243.403 202.208 242.535Z" fill="#09101D"/>
<path d="M215.03 246.848C214.932 246.848 214.848 234.836 214.848 220.017C214.848 205.198 214.932 193.186 215.03 193.186C215.128 193.186 215.212 205.198 215.212 220.017C215.212 234.836 215.128 246.848 215.03 246.848Z" fill="#E3E7EB"/>
<g opacity="0.5">
<path d="M224.487 243.411L231.886 232.862C232.747 231.637 234.455 231.364 235.652 232.267L239.544 235.207C240.818 236.166 242.638 235.795 243.436 234.416L254.664 214.97C255.602 213.346 257.884 213.185 259.039 214.655L266.046 223.545C267.18 224.98 269.385 224.868 270.365 223.328L275.489 215.278C276.56 213.598 279.024 213.654 280.018 215.376L284.246 222.705C285.24 224.427 287.704 224.483 288.775 222.803L303.237 200.137C304.266 198.527 306.611 198.499 307.675 200.088L331.566 235.83C332.525 237.265 334.576 237.412 335.731 236.138L350.249 220.157C351.271 219.037 353.021 218.995 354.092 220.066L365.635 231.651C366.867 232.89 368.939 232.617 369.807 231.105L390.464 195.328C391.822 192.976 395.413 193.942 395.413 196.651V243.411H224.473H224.487Z" fill="white"/>
</g>
</g>
<path d="M140.965 101.577H157.8" stroke="#E3E7EB" stroke-width="0.7" stroke-miterlimit="10"/>
<path d="M175.578 101.577H192.413" stroke="#E3E7EB" stroke-width="0.7" stroke-miterlimit="10"/>
<path d="M210.195 101.577H227.03" stroke="#E3E7EB" stroke-width="0.7" stroke-miterlimit="10"/>
<path d="M92.0148 247.926C75.5158 247.926 61.2918 235.445 59.4998 218.68C57.5818 200.739 70.6158 184.583 88.5638 182.665C97.2578 181.741 105.791 184.247 112.588 189.735C119.392 195.223 123.648 203.035 124.579 211.722C126.497 229.663 113.463 245.819 95.5148 247.737C94.3388 247.863 93.1698 247.926 92.0148 247.926ZM92.0918 187.376C91.0908 187.376 90.0898 187.432 89.0818 187.537C73.8288 189.168 62.7408 202.902 64.3718 218.162C66.0028 233.415 79.7438 244.51 94.9968 242.872C110.25 241.241 121.338 227.5 119.707 212.247C118.916 204.855 115.297 198.219 109.515 193.55C104.517 189.518 98.4268 187.376 92.0988 187.376H92.0918Z" fill="#09101D"/>
<path d="M141.225 278.873C140.532 278.873 139.846 278.579 139.356 278.012L108.409 241.696C107.534 240.667 107.653 239.12 108.682 238.245C109.711 237.37 111.258 237.489 112.133 238.518L143.08 274.834C143.955 275.863 143.836 277.41 142.807 278.285C142.345 278.677 141.778 278.873 141.218 278.873H141.225Z" fill="#09101D"/>
<path d="M436.98 276.128C442.02 277.885 448.586 276.317 452.898 273.167C457.21 270.017 460.311 265.509 463.055 260.938C464.231 258.985 465.372 256.955 465.743 254.708C466.114 252.461 465.568 249.934 463.825 248.471C461.116 246.189 456.972 247.351 453.892 249.101C444.267 254.582 437.701 265.082 436.98 276.135" fill="#BE7346"/>
<path d="M442.391 288.189C445.415 292.179 450.616 293.957 455.614 294.188C460.619 294.419 465.561 293.04 470.237 291.241C471.931 290.59 473.793 289.701 474.374 287.979C474.815 286.677 474.36 285.193 473.485 284.129C472.61 283.065 471.371 282.365 470.111 281.826C465.505 279.866 460.234 279.775 455.397 281.028C450.553 282.281 446.325 285.088 442.398 288.189" fill="#BE7346"/>
<path d="M436.912 254.547C441.084 254.631 444.241 250.977 446.124 247.26C448.735 242.108 449.624 236.102 448.609 230.418C448.231 228.29 447.419 225.987 445.515 224.965C443.576 223.922 441.056 224.608 439.432 226.092C437.808 227.576 436.919 229.69 436.268 231.797C434.028 239.042 434.511 247.365 436.912 254.554" fill="#BE7346"/>
<path d="M423.21 277.612C430.322 265.509 431.505 250.704 427.305 237.313C426.626 235.143 425.338 232.658 423.063 232.511C420.55 232.35 418.968 235.157 418.275 237.579C415.839 246.084 416.357 255.114 416.896 263.941C417.225 269.38 419.094 274.028 423.21 277.605" fill="#BE7346"/>
<path d="M415.82 282.589C413.244 274.301 406.692 267.35 398.565 264.291C396.675 263.577 394.274 263.178 392.867 264.62C391.488 266.034 391.908 268.407 392.797 270.171C394.225 273.027 396.549 275.323 398.866 277.528C400.973 279.53 403.157 281.546 405.824 282.708C408.484 283.87 413.377 284.171 415.813 282.582" fill="#BE7346"/>
<path d="M459.899 251.502C459.899 251.502 459.857 251.544 459.773 251.614C459.668 251.691 459.542 251.789 459.388 251.908C459.024 252.181 458.527 252.552 457.897 253.021C457.568 253.259 457.211 253.532 456.819 253.819C456.434 254.12 456.028 254.47 455.58 254.827C454.698 255.562 453.662 256.353 452.612 257.347C452.08 257.83 451.52 258.341 450.939 258.873C450.358 259.405 449.798 260.007 449.196 260.602C447.971 261.778 446.788 263.15 445.514 264.571C443.05 267.476 440.516 270.829 438.185 274.567C435.889 278.326 434.02 282.092 432.522 285.599C431.822 287.377 431.122 289.05 430.618 290.667C430.352 291.472 430.065 292.242 429.848 292.998C429.638 293.754 429.428 294.482 429.232 295.175C428.812 296.554 428.567 297.842 428.301 298.955C428.175 299.515 428.049 300.033 427.951 300.516C427.867 300.999 427.79 301.44 427.72 301.839C427.58 302.616 427.468 303.225 427.391 303.673C427.356 303.869 427.321 304.023 427.3 304.149C427.279 304.254 427.265 304.31 427.258 304.31C427.258 304.31 427.258 304.254 427.265 304.142C427.279 304.016 427.3 303.855 427.328 303.659C427.391 303.211 427.482 302.595 427.594 301.818C427.657 301.412 427.72 300.971 427.797 300.488C427.881 300.005 428.007 299.48 428.119 298.92C428.364 297.8 428.595 296.505 429.001 295.119C429.19 294.419 429.386 293.691 429.596 292.928C429.806 292.165 430.093 291.395 430.352 290.583C430.849 288.952 431.542 287.265 432.235 285.48C433.726 281.952 435.588 278.165 437.898 274.392C440.243 270.64 442.791 267.28 445.283 264.375C446.571 262.954 447.768 261.589 449 260.413C449.609 259.818 450.176 259.223 450.764 258.691C451.352 258.166 451.919 257.662 452.458 257.179C453.515 256.192 454.572 255.408 455.468 254.687C455.923 254.33 456.329 253.994 456.728 253.7C457.127 253.42 457.498 253.161 457.827 252.923C458.471 252.475 458.982 252.118 459.353 251.859C459.514 251.747 459.647 251.663 459.752 251.586C459.843 251.53 459.892 251.502 459.892 251.502H459.899Z" fill="#09101D"/>
<path d="M469.313 285.046C469.313 285.046 469.145 285.032 468.823 284.962C468.508 284.906 468.046 284.78 467.437 284.682C466.233 284.444 464.476 284.178 462.292 284.052C457.945 283.772 451.764 284.29 445.576 286.866C439.388 289.442 434.663 293.46 431.793 296.743C430.344 298.381 429.294 299.816 428.615 300.838C428.258 301.335 428.02 301.755 427.838 302.021C427.663 302.294 427.565 302.427 427.551 302.427C427.544 302.427 427.621 302.273 427.782 301.986C427.95 301.706 428.167 301.286 428.51 300.768C429.161 299.725 430.183 298.262 431.625 296.589C434.467 293.25 439.206 289.155 445.457 286.558C451.701 283.961 457.945 283.478 462.32 283.821C464.518 283.982 466.282 284.283 467.479 284.556C468.081 284.675 468.543 284.822 468.851 284.899C469.166 284.983 469.327 285.032 469.32 285.046H469.313Z" fill="#09101D"/>
<path d="M443.056 229.795C443.056 229.795 443.056 229.858 443.028 229.984C443 230.124 442.958 230.306 442.916 230.53C442.804 231.027 442.65 231.727 442.447 232.616C442.041 234.422 441.411 237.033 440.627 240.253C439.059 246.693 436.784 255.562 434.411 265.39C433.235 270.311 432.164 275.008 431.247 279.292C430.344 283.576 429.574 287.447 429 290.709C428.692 292.34 428.461 293.817 428.244 295.112C428.02 296.407 427.845 297.527 427.712 298.444C427.572 299.34 427.46 300.047 427.383 300.551C427.348 300.775 427.313 300.957 427.292 301.097C427.271 301.223 427.257 301.286 427.25 301.279C427.25 301.279 427.25 301.216 427.257 301.09C427.271 300.95 427.292 300.768 427.32 300.537C427.383 300.026 427.474 299.319 427.586 298.416C427.698 297.499 427.852 296.372 428.062 295.07C428.265 293.768 428.475 292.284 428.769 290.653C429.315 287.384 430.057 283.506 430.946 279.208C431.849 274.917 432.906 270.213 434.089 265.292C436.462 255.457 438.772 246.602 440.396 240.176C441.201 236.984 441.859 234.387 442.321 232.567C442.545 231.685 442.72 230.992 442.853 230.502C442.916 230.278 442.958 230.103 443 229.963C443.035 229.844 443.056 229.781 443.063 229.781L443.056 229.795Z" fill="#09101D"/>
<path d="M426.726 300.313C426.726 300.313 426.705 300.264 426.684 300.166C426.656 300.047 426.629 299.907 426.587 299.732C426.503 299.319 426.384 298.759 426.237 298.045C425.936 296.582 425.537 294.454 425.082 291.822C424.172 286.558 423.087 279.25 422.422 271.116C422.1 267.049 421.918 263.164 421.841 259.629C421.785 256.094 421.812 252.909 421.924 250.242C421.959 248.905 422.044 247.701 422.107 246.637C422.163 245.58 422.233 244.663 422.303 243.921C422.373 243.2 422.422 242.626 422.464 242.206C422.485 242.024 422.499 241.884 422.513 241.758C422.527 241.66 422.534 241.604 422.541 241.604C422.541 241.604 422.548 241.66 422.541 241.758C422.541 241.877 422.533 242.024 422.526 242.206C422.505 242.626 422.471 243.2 422.429 243.921C422.38 244.663 422.324 245.58 422.289 246.637C422.247 247.694 422.177 248.905 422.163 250.235C422.086 252.902 422.079 256.08 422.149 259.608C422.247 263.136 422.435 267.014 422.75 271.074C423.415 279.194 424.459 286.495 425.306 291.766C425.733 294.398 426.097 296.533 426.356 298.003C426.475 298.717 426.572 299.284 426.642 299.697C426.67 299.872 426.692 300.019 426.713 300.138C426.727 300.236 426.726 300.292 426.726 300.292V300.313Z" fill="#09101D"/>
<path d="M427.249 301.846C427.249 301.846 427.172 301.706 427.067 301.426C426.948 301.118 426.794 300.712 426.598 300.208C426.493 299.942 426.388 299.648 426.262 299.326C426.122 299.011 425.968 298.668 425.807 298.304C425.646 297.933 425.471 297.541 425.282 297.128C425.1 296.715 424.862 296.295 424.638 295.84C424.407 295.392 424.162 294.916 423.91 294.433C423.63 293.957 423.343 293.46 423.042 292.949C422.468 291.906 421.733 290.87 421.019 289.736C419.493 287.538 417.701 285.207 415.664 282.89C413.606 280.594 411.499 278.536 409.518 276.737C408.496 275.876 407.558 275.015 406.613 274.294C406.151 273.923 405.703 273.566 405.269 273.223C404.828 272.894 404.401 272.579 403.988 272.278C403.183 271.669 402.42 271.158 401.755 270.71C401.097 270.255 400.516 269.87 400.033 269.576C399.578 269.289 399.214 269.058 398.934 268.876C398.682 268.715 398.556 268.624 398.563 268.61C398.563 268.603 398.71 268.673 398.969 268.813C399.256 268.974 399.634 269.191 400.103 269.457C400.6 269.73 401.188 270.101 401.86 270.542C402.539 270.976 403.309 271.473 404.128 272.075C404.541 272.369 404.975 272.684 405.423 273.006C405.864 273.349 406.312 273.699 406.788 274.07C407.747 274.784 408.692 275.645 409.721 276.499C411.723 278.291 413.844 280.349 415.909 282.659C417.96 284.983 419.752 287.335 421.271 289.554C421.978 290.695 422.713 291.745 423.28 292.795C423.574 293.313 423.861 293.817 424.134 294.3C424.379 294.797 424.617 295.273 424.841 295.728C425.058 296.183 425.289 296.61 425.471 297.03C425.646 297.45 425.814 297.849 425.968 298.22C426.122 298.591 426.269 298.934 426.402 299.256C426.514 299.578 426.619 299.879 426.71 300.152C426.878 300.663 427.018 301.076 427.123 301.391C427.214 301.678 427.256 301.825 427.242 301.832L427.249 301.846Z" fill="#09101D"/>
<path d="M457.261 265.537C457.261 265.593 456.4 265.593 455.014 265.67C453.628 265.747 451.724 265.929 449.645 266.321C447.566 266.72 445.725 267.245 444.416 267.686C443.1 268.12 442.302 268.435 442.281 268.386C442.274 268.365 442.463 268.26 442.813 268.099C443.163 267.931 443.688 267.714 444.339 267.462C445.641 266.965 447.489 266.391 449.589 265.992C451.682 265.593 453.614 265.453 455.007 265.432C455.707 265.425 456.267 265.432 456.659 265.467C457.051 265.495 457.261 265.516 457.261 265.544V265.537Z" fill="#09101D"/>
<path d="M462.621 291.73C462.523 291.779 461.718 289.462 459.695 287.313C457.7 285.136 455.446 284.163 455.509 284.065C455.523 284.03 456.097 284.226 456.951 284.702C457.805 285.178 458.918 285.983 459.94 287.082C460.962 288.181 461.676 289.35 462.089 290.239C462.509 291.128 462.656 291.716 462.621 291.73Z" fill="#09101D"/>
<path d="M444.335 239.616C444.405 239.686 443.096 240.988 441.668 242.745C440.233 244.495 439.225 246.042 439.141 245.986C439.064 245.944 439.953 244.306 441.409 242.528C442.858 240.75 444.279 239.546 444.342 239.609L444.335 239.616Z" fill="#09101D"/>
<path d="M440.039 232.196C440.13 232.182 440.417 233.435 440.69 235.003C440.956 236.571 441.096 237.852 441.005 237.866C440.914 237.88 440.627 236.627 440.354 235.059C440.088 233.491 439.948 232.21 440.039 232.196Z" fill="#09101D"/>
<path d="M426.742 255.478C426.826 255.52 425.895 257.48 424.663 259.86C423.431 262.24 422.367 264.13 422.283 264.088C422.199 264.046 423.13 262.086 424.362 259.706C425.594 257.333 426.658 255.436 426.742 255.478Z" fill="#09101D"/>
<path d="M418.82 247.575C418.904 247.533 419.695 248.954 420.584 250.746C421.473 252.538 422.131 254.022 422.047 254.064C421.963 254.106 421.172 252.685 420.283 250.893C419.394 249.101 418.736 247.617 418.82 247.575Z" fill="#09101D"/>
<path d="M407.191 274.602C407.17 274.7 405.756 274.427 403.999 274.301C402.242 274.175 400.8 274.245 400.793 274.147C400.779 274.063 402.228 273.839 404.02 273.965C405.812 274.091 407.212 274.518 407.191 274.595V274.602Z" fill="#09101D"/>
<path d="M415.132 298.5L419.087 319.319C419.346 320.698 420.55 321.691 421.95 321.691H433.64C435.068 321.691 436.286 320.662 436.517 319.248L439.961 298.5H415.125H415.132Z" fill="#09101D"/>
<path d="M416.414 305.262H438.779L439.969 298.5H415.133L416.414 305.262Z" fill="#798087"/>
<path d="M416.41 305.263L416.879 307.734H438.432L438.775 305.263H416.41Z" fill="white"/>
<path d="M342.876 301.832L343.233 314.558C343.233 314.558 356.288 318.471 356.582 320.816L331.935 322.391L330.57 302.588L342.883 301.832H342.876Z" fill="#BE7346"/>
<path d="M335.541 313.97C335.072 314.131 334.778 314.691 334.918 315.16C335.058 315.636 335.625 315.937 336.094 315.79C336.563 315.636 336.941 314.978 336.745 314.523C336.549 314.068 335.87 313.746 335.45 314.005" fill="#E3E7EB"/>
<g opacity="0.6">
<path d="M331.926 322.384L331.863 320.382L355.516 319.619C355.516 319.619 356.643 320.025 356.566 320.809L331.919 322.384H331.926Z" fill="white"/>
</g>
<path d="M343.624 314.404C343.624 314.523 343.029 314.621 342.462 315.041C341.881 315.454 341.608 315.993 341.496 315.951C341.384 315.937 341.517 315.202 342.21 314.698C342.903 314.187 343.638 314.285 343.617 314.397L343.624 314.404Z" fill="#FF8F43"/>
<path d="M346.282 315.307C346.317 315.419 345.806 315.657 345.435 316.196C345.043 316.721 344.973 317.274 344.854 317.281C344.742 317.309 344.616 316.609 345.092 315.951C345.568 315.293 346.268 315.195 346.282 315.307Z" fill="#FF8F43"/>
<path d="M347.948 318.31C347.843 318.345 347.633 317.75 347.899 317.071C348.158 316.392 348.711 316.091 348.767 316.189C348.844 316.287 348.501 316.658 348.291 317.218C348.067 317.771 348.067 318.282 347.948 318.303V318.31Z" fill="#FF8F43"/>
<path d="M343.221 311.513C343.179 311.625 342.612 311.492 341.94 311.583C341.261 311.66 340.743 311.919 340.68 311.821C340.603 311.737 341.093 311.261 341.891 311.163C342.689 311.065 343.277 311.408 343.228 311.506L343.221 311.513Z" fill="#FF8F43"/>
<path d="M343.099 308.944C343.099 308.993 342.63 309.098 341.867 309.014C341.482 308.972 341.034 308.874 340.551 308.699C340.313 308.608 340.061 308.503 339.816 308.37C339.697 308.307 339.557 308.237 339.424 308.104C339.284 307.985 339.186 307.67 339.326 307.467C339.438 307.271 339.655 307.173 339.837 307.159C340.019 307.145 340.166 307.166 340.306 307.194C340.586 307.243 340.845 307.32 341.09 307.411C341.573 307.593 341.972 307.845 342.273 308.083C342.882 308.573 343.099 309.014 343.064 309.042C343.015 309.084 342.707 308.727 342.098 308.328C341.797 308.132 341.412 307.929 340.957 307.775C340.733 307.698 340.488 307.642 340.236 307.6C339.97 307.551 339.746 307.558 339.69 307.684C339.669 307.733 339.669 307.747 339.725 307.817C339.788 307.887 339.893 307.943 340.012 308.013C340.236 308.139 340.467 308.251 340.691 308.342C341.132 308.531 341.552 308.65 341.916 308.72C342.637 308.874 343.099 308.874 343.106 308.937L343.099 308.944Z" fill="#FF8F43"/>
<path d="M342.95 309.126C342.908 309.147 342.642 308.734 342.551 307.957C342.509 307.572 342.516 307.103 342.635 306.592C342.698 306.34 342.782 306.081 342.901 305.822C343.027 305.57 343.188 305.234 343.65 305.15C343.895 305.122 344.105 305.304 344.189 305.458C344.28 305.619 344.308 305.759 344.343 305.899C344.406 306.186 344.42 306.466 344.399 306.732C344.357 307.264 344.168 307.712 343.951 308.041C343.51 308.713 343.02 308.888 343.006 308.846C342.964 308.79 343.37 308.531 343.699 307.894C343.86 307.579 344 307.173 344.014 306.711C344.021 306.48 344.007 306.242 343.944 305.997C343.888 305.738 343.776 305.535 343.678 305.563C343.552 305.563 343.363 305.78 343.272 305.997C343.16 306.228 343.076 306.459 343.006 306.683C342.88 307.138 342.838 307.572 342.845 307.929C342.859 308.657 343.013 309.098 342.95 309.119V309.126Z" fill="#FF8F43"/>
<path d="M290.709 301.272L289.225 317.617L284.325 330.21C283.975 331.12 284.458 332.135 285.389 332.422C285.907 332.583 286.474 332.492 286.908 332.156C289.666 330.056 299.788 322.265 299.83 321.061C299.879 319.668 302.539 303.918 302.539 303.918L290.716 301.258L290.709 301.272Z" fill="#BE7346"/>
<g opacity="0.6">
<path d="M285.386 332.429L299.946 319.969L299.869 320.662C299.799 321.257 299.526 321.817 299.085 322.223C297.909 323.322 294.605 326.283 286.947 332.17C286.499 332.513 285.911 332.611 285.379 332.429H285.386Z" fill="white"/>
</g>
<g opacity="0.6">
<path d="M297.206 314.327C296.765 314.565 296.562 315.167 296.779 315.615C296.996 316.063 297.605 316.28 298.053 316.049C298.501 315.818 298.767 315.104 298.501 314.684C298.235 314.264 297.5 314.054 297.129 314.376" fill="white"/>
</g>
<path d="M289.931 325.73C289.833 325.765 289.56 324.87 288.643 324.296C287.74 323.701 286.816 323.827 286.809 323.722C286.802 323.68 287.019 323.575 287.411 323.568C287.796 323.554 288.342 323.673 288.846 323.995C289.35 324.317 289.679 324.765 289.826 325.122C289.98 325.479 289.973 325.723 289.931 325.73Z" fill="#FF8F43"/>
<path d="M288.52 327.781C288.436 327.844 287.974 327.256 287.155 326.913C286.343 326.556 285.601 326.633 285.587 326.528C285.552 326.437 286.371 326.185 287.295 326.584C288.226 326.976 288.611 327.746 288.52 327.781Z" fill="#FF8F43"/>
<path d="M292.407 323.175C292.323 323.245 291.616 322.335 290.391 321.698C289.18 321.04 288.025 320.97 288.039 320.858C288.025 320.767 289.257 320.676 290.566 321.376C291.875 322.062 292.498 323.133 292.414 323.175H292.407Z" fill="#FF8F43"/>
<path d="M293.279 318.241C293.223 318.332 292.369 317.856 291.2 317.681C290.038 317.492 289.072 317.681 289.044 317.576C289.009 317.492 290.003 317.121 291.256 317.324C292.509 317.513 293.342 318.171 293.279 318.241Z" fill="#FF8F43"/>
<path d="M293.834 313.452C293.771 313.543 292.931 312.892 291.685 312.808C290.439 312.696 289.508 313.2 289.459 313.102C289.438 313.067 289.641 312.878 290.04 312.703C290.439 312.528 291.041 312.388 291.713 312.444C292.385 312.5 292.959 312.731 293.323 312.962C293.694 313.2 293.862 313.41 293.834 313.445V313.452Z" fill="#FF8F43"/>
<path d="M291.816 311.905C291.816 311.905 291.781 311.681 291.865 311.289C291.949 310.897 292.124 310.33 292.537 309.728C292.747 309.448 292.978 309.077 293.454 308.916C293.692 308.832 294.028 308.916 294.196 309.154C294.364 309.385 294.392 309.658 294.371 309.917C294.238 310.953 293.23 311.849 292.054 311.87C290.871 311.87 289.884 311.079 289.527 310.127C289.45 309.882 289.415 309.595 289.569 309.329C289.723 309.063 290.066 308.993 290.297 309.056C290.773 309.182 291.046 309.497 291.305 309.735C291.816 310.253 292.11 310.764 292.271 311.128C292.439 311.492 292.474 311.716 292.46 311.723C292.397 311.758 292.138 310.876 291.13 309.917C290.871 309.693 290.577 309.42 290.234 309.343C290.066 309.308 289.912 309.357 289.835 309.49C289.758 309.616 289.772 309.826 289.835 310.015C290.143 310.792 291.046 311.513 292.047 311.499C293.041 311.499 293.923 310.701 294.042 309.875C294.07 309.672 294.042 309.469 293.944 309.336C293.853 309.21 293.692 309.154 293.538 309.203C293.209 309.294 292.957 309.616 292.747 309.875C291.921 310.995 291.886 311.933 291.816 311.905Z" fill="#FF8F43"/>
<path d="M286.993 184.463L286.02 311.954L303.947 313.102L307.72 206.604L329.21 312.5L345.506 310.785L328.174 184.442L286.993 184.463Z" fill="#09101D"/>
<path d="M308.786 80.9408C302.731 80.4718 297.46 85.0498 297.096 91.1118C296.795 96.1588 296.515 101.619 296.55 104.37C296.62 110.271 302.528 111.188 302.528 111.188C302.528 111.188 302.381 112.938 302.22 115.108C301.891 119.476 305.237 123.256 309.612 123.459C313.903 123.655 317.543 120.337 317.732 116.046L318.803 92.2668C319.069 86.4078 314.638 81.3958 308.786 80.9408Z" fill="#FFA485"/>
<path d="M302.514 111.104C302.514 111.104 306.245 111.405 310.207 108.92C310.207 108.92 308.387 113.169 302.5 112.637L302.514 111.111V111.104Z" fill="#E06A4B"/>
<path d="M318.258 94.2896C318.356 94.2476 322.311 93.0926 322.185 97.1246C322.059 101.157 318.034 100.198 318.027 100.079C318.027 99.9596 318.258 94.2826 318.258 94.2826V94.2896Z" fill="#FFA485"/>
<path d="M319.305 98.5946C319.305 98.5946 319.375 98.6436 319.494 98.7066C319.606 98.7626 319.809 98.8046 320.019 98.7346C320.453 98.5946 320.831 97.9296 320.873 97.2016C320.894 96.8376 320.831 96.4806 320.705 96.1866C320.593 95.8856 320.404 95.6756 320.194 95.6336C319.984 95.5776 319.823 95.7036 319.774 95.8156C319.718 95.9276 319.739 96.0116 319.718 96.0116C319.704 96.0186 319.634 95.9416 319.669 95.7736C319.69 95.6966 319.739 95.5986 319.837 95.5286C319.935 95.4516 320.082 95.4166 320.229 95.4376C320.537 95.4726 320.81 95.7666 320.943 96.0886C321.09 96.4106 321.174 96.8096 321.153 97.2226C321.104 98.0346 320.663 98.7836 320.075 98.9306C319.788 98.9936 319.557 98.9026 319.438 98.8046C319.319 98.6996 319.298 98.6086 319.312 98.6016L319.305 98.5946Z" fill="#E06A4B"/>
<path d="M298.586 94.8697C298.572 95.3177 298.936 95.6957 299.398 95.7167C299.86 95.7447 300.252 95.4017 300.266 94.9537C300.28 94.5057 299.916 94.1277 299.454 94.0997C298.992 94.0717 298.6 94.4147 298.586 94.8627V94.8697Z" fill="#09101D"/>
<path d="M298.606 93.2176C298.711 93.3296 299.348 92.8536 300.258 92.8606C301.161 92.8466 301.826 93.3156 301.931 93.2036C301.98 93.1546 301.875 92.9586 301.581 92.7416C301.294 92.5316 300.811 92.3286 300.244 92.3286C299.677 92.3286 299.201 92.5386 298.928 92.7556C298.648 92.9726 298.557 93.1686 298.606 93.2176Z" fill="#09101D"/>
<path d="M307.5 94.8702C307.486 95.3182 307.85 95.6962 308.312 95.7172C308.774 95.7452 309.166 95.4022 309.18 94.9542C309.194 94.5062 308.83 94.1282 308.368 94.1002C307.906 94.0722 307.514 94.4152 307.5 94.8632V94.8702Z" fill="#09101D"/>
<path d="M307.52 93.3859C307.625 93.4979 308.262 93.0219 309.172 93.0289C310.075 93.0149 310.747 93.4839 310.845 93.3719C310.894 93.3229 310.789 93.1269 310.495 92.9169C310.208 92.7069 309.725 92.5039 309.158 92.5039C308.591 92.5039 308.115 92.7139 307.842 92.9309C307.562 93.1479 307.471 93.3439 307.52 93.3929V93.3859Z" fill="#09101D"/>
<path d="M304.231 100.113C304.231 100.064 303.671 99.9662 302.761 99.8472C302.53 99.8262 302.313 99.7772 302.271 99.6162C302.215 99.4482 302.313 99.1962 302.425 98.9302C302.642 98.3702 302.873 97.7822 303.111 97.1662C304.063 94.6532 304.749 92.5882 304.651 92.5532C304.546 92.5182 303.699 94.5202 302.747 97.0332C302.516 97.6492 302.299 98.2442 302.089 98.8042C301.998 99.0702 301.851 99.3642 301.97 99.7142C302.033 99.8892 302.201 100.015 302.348 100.05C302.495 100.092 302.628 100.099 302.74 100.106C303.657 100.155 304.231 100.162 304.231 100.106V100.113Z" fill="#09101D"/>
<path d="M306.903 100.742C306.756 100.735 306.756 101.715 305.909 102.415C305.069 103.115 304.019 103.003 304.012 103.143C303.998 103.206 304.243 103.332 304.691 103.346C305.125 103.36 305.762 103.22 306.273 102.793C306.784 102.366 307.008 101.792 307.043 101.386C307.078 100.973 306.973 100.728 306.903 100.735V100.742Z" fill="#09101D"/>
<path d="M307.295 89.8305C307.386 90.0755 308.289 89.9635 309.353 90.0895C310.417 90.1945 311.278 90.5095 311.418 90.2855C311.481 90.1805 311.334 89.9495 310.984 89.7115C310.641 89.4735 310.088 89.2495 309.451 89.1725C308.814 89.1025 308.226 89.2075 307.841 89.3615C307.449 89.5155 307.253 89.7115 307.295 89.8305Z" fill="#09101D"/>
<path d="M298.945 90.5932C299.106 90.7962 299.729 90.5862 300.478 90.5722C301.227 90.5372 301.864 90.7122 302.011 90.4952C302.074 90.3902 301.976 90.1872 301.696 89.9912C301.423 89.7952 300.961 89.6412 300.45 89.6552C299.932 89.6692 299.484 89.8582 299.225 90.0682C298.959 90.2782 298.875 90.4952 298.945 90.5932Z" fill="#09101D"/>
<path d="M318.723 94.1071C318.772 94.7231 318.751 95.4371 318.625 96.0461C318.492 96.6551 318.149 97.2431 317.596 97.5161C316.581 98.0201 315.307 97.2431 314.859 96.2071C314.404 95.1711 314.53 93.9811 314.635 92.8541C314.775 91.3141 314.859 89.7531 314.565 88.2341C314.271 86.7151 313.557 85.2381 312.346 84.2721C311.135 83.3131 309.385 82.9631 307.999 83.6421C307.145 84.0621 306.501 84.8181 305.703 85.3361C304.982 85.8051 304.114 86.0851 303.267 85.9521C302.42 85.8191 301.622 85.2241 301.398 84.3981C301.153 83.4951 301.622 82.5151 302.35 81.9201C303.078 81.3321 304.009 81.0661 304.926 80.8911C307.474 80.4081 310.169 80.5271 312.584 81.4861C314.992 82.4451 317.127 84.2651 318.142 86.6591C319.318 89.4241 319.164 91.1041 318.821 94.1071" fill="#09101D"/>
<path d="M236.515 125.013L245.125 126.749L256.962 134.288L252.923 141.974C252.923 141.974 248.758 140.812 247.547 139.741C246.336 138.67 244.985 138.544 244.985 138.544C244.985 138.544 245.069 140.448 243.627 140.119C242.185 139.79 239.784 139.384 240.19 137.354C240.19 137.354 239.119 137.06 239.175 135.646C239.175 135.646 237.985 135.555 238.307 133.588C238.629 131.621 240.05 129.073 243.977 129.794C244.18 129.836 244.453 129.444 244.096 129.311L238.027 127.883C238.027 127.883 234.226 126.378 236.515 125.027V125.013Z" fill="#FFA485"/>
<path d="M240.766 133.49C240.78 133.441 241.333 133.581 242.208 133.84C242.649 133.987 243.16 134.092 243.755 134.365C244.042 134.512 244.343 134.771 244.455 135.163C244.567 135.569 244.35 136.003 244.042 136.241C243.377 136.745 242.579 136.591 242.012 136.507C241.41 136.416 240.871 136.304 240.423 136.178C239.534 135.926 239.023 135.66 239.044 135.618C239.065 135.562 239.597 135.744 240.486 135.926C240.927 136.017 241.459 136.101 242.054 136.171C242.355 136.199 242.67 136.255 242.964 136.234C243.265 136.213 243.58 136.136 243.811 135.954C244.042 135.772 244.168 135.485 244.105 135.247C244.042 134.995 243.832 134.785 243.594 134.659C243.097 134.407 242.544 134.253 242.124 134.085C241.27 133.763 240.752 133.539 240.766 133.49Z" fill="#E06A4B"/>
<path d="M242.863 132.377C242.849 132.482 242.338 132.496 241.834 132.818C241.323 133.133 241.085 133.588 240.987 133.553C240.889 133.539 241.008 132.902 241.638 132.51C242.261 132.111 242.891 132.279 242.863 132.377Z" fill="#E06A4B"/>
<path d="M243.776 136.15C243.776 136.15 243.867 136.157 243.972 136.269C244.105 136.381 244.126 136.64 244.161 136.857C244.203 137.123 244.161 137.48 243.916 137.774C243.664 138.096 243.167 138.166 242.796 138.103C242.054 137.991 241.389 137.879 240.913 137.725C240.437 137.571 240.178 137.403 240.192 137.361C240.213 137.312 240.5 137.396 240.976 137.48C241.445 137.571 242.117 137.634 242.845 137.746C243.195 137.795 243.489 137.753 243.664 137.557C243.846 137.368 243.909 137.102 243.902 136.885C243.902 136.619 243.923 136.465 243.86 136.36C243.804 136.248 243.755 136.178 243.776 136.164V136.15Z" fill="#E06A4B"/>
<path d="M243.711 137.732C243.704 137.69 243.865 137.613 244.131 137.69C244.39 137.76 244.684 137.991 244.901 138.306C245.16 138.691 245.069 139.097 244.992 139.321C244.908 139.559 244.803 139.671 244.761 139.657C244.712 139.636 244.726 139.489 244.74 139.265C244.754 139.048 244.761 138.74 244.6 138.516C244.404 138.243 244.201 138.033 244.026 137.928C243.851 137.816 243.711 137.788 243.711 137.739V137.732Z" fill="#E06A4B"/>
<path d="M250.325 133.28L246.167 133.105L241.806 133.959C241.806 133.959 241.449 134.75 243.465 135.289C245.488 135.828 247.35 135.471 247.35 135.471C247.35 135.471 249.149 138.096 251.487 138.698" fill="#FFA485"/>
<path d="M251.493 138.705C251.493 138.705 251.353 138.698 251.108 138.635C250.863 138.565 250.513 138.432 250.093 138.201C249.26 137.746 248.196 136.871 247.223 135.562L247.384 135.632C245.977 135.849 244.276 135.849 242.603 135.184C242.358 135.072 242.12 134.946 241.917 134.75C241.721 134.554 241.518 134.267 241.644 133.882L241.672 133.798L241.777 133.777C243.38 133.476 244.864 133.196 246.145 132.958H246.166H246.18C247.44 133.028 248.483 133.091 249.204 133.147C249.925 133.203 250.331 133.245 250.331 133.28C250.331 133.308 249.918 133.322 249.197 133.315C248.476 133.315 247.433 133.287 246.166 133.252H246.201C244.927 133.511 243.443 133.805 241.847 134.134L241.98 134.029C241.945 134.134 242.022 134.344 242.176 134.484C242.33 134.631 242.54 134.75 242.764 134.848C244.318 135.471 246.005 135.499 247.335 135.317L247.44 135.303L247.496 135.387C248.406 136.661 249.421 137.557 250.198 138.04C250.975 138.544 251.514 138.656 251.5 138.705H251.493Z" fill="#E06A4B"/>
<path d="M245.259 130.851C245.203 130.935 244.804 130.753 244.503 130.326C244.202 129.899 244.16 129.465 244.258 129.437C244.356 129.409 244.538 129.745 244.804 130.116C245.063 130.487 245.322 130.767 245.259 130.851Z" fill="#E06A4B"/>
<path d="M290.855 185.444C298.002 188.531 306.36 189.448 315.796 188.447L322.705 118.055L317.805 114.289L306.514 122.682L302.643 114.597L293.578 127.624L290.848 185.444H290.855Z" fill="white"/>
<path d="M302.722 188.838C302.722 188.838 302.701 188.782 302.68 188.67C302.659 188.537 302.631 188.376 302.603 188.173C302.54 187.704 302.449 187.067 302.337 186.255C302.267 185.415 302.211 184.393 302.141 183.196C302.078 182.006 302.085 180.641 302.05 179.143C302.008 173.13 302.407 164.835 303.079 155.7C303.751 146.558 304.577 138.298 305.242 132.327C305.571 129.345 305.879 126.93 306.103 125.264C306.215 124.431 306.32 123.787 306.39 123.353C306.425 123.15 306.453 122.989 306.474 122.856C306.495 122.744 306.509 122.688 306.516 122.688C306.516 122.688 306.516 122.744 306.516 122.863C306.502 122.996 306.488 123.164 306.467 123.367C306.411 123.836 306.341 124.48 306.25 125.285C306.068 126.986 305.816 129.394 305.501 132.355C304.899 138.326 304.115 146.586 303.443 155.728C302.771 164.863 302.33 173.144 302.309 179.15C302.323 180.648 302.309 182.006 302.344 183.196C302.4 184.379 302.442 185.401 302.484 186.248C302.568 187.06 302.631 187.697 302.68 188.166C302.694 188.369 302.708 188.53 302.722 188.67C302.729 188.782 302.729 188.845 302.722 188.845V188.838Z" fill="#09101D"/>
<path d="M312.225 199.206C312.225 199.206 306.961 144.179 310.23 138.033C312.757 133.273 316.67 123.333 318.301 119.091C318.791 117.824 318.756 116.41 318.203 115.171L317.811 114.303L322.711 118.069L332.77 123.473L326.701 170.093L333.575 193.746L312.225 199.22V199.206Z" fill="#BE7346"/>
<g opacity="0.3">
<path d="M310.87 183.274C315.147 182.378 313.299 184.863 317.625 184.233C319.963 183.89 320.082 182.525 322.007 181.16C323.932 179.788 326.844 178.647 329.21 178.696L328.251 175.399L310.359 176.064L310.877 183.274H310.87Z" fill="#09101D"/>
</g>
<path d="M286.219 126.126L287.962 170.086L284.434 194.691L293.247 197.946L297.104 129.962C297.146 127.435 297.713 124.943 298.77 122.647L302.221 115.115L290.531 119.098L286.226 126.133L286.219 126.126Z" fill="#BE7346"/>
<path d="M332.772 123.466C332.772 123.466 338.295 128.24 339.534 134.659C340.437 139.342 343.104 155.764 343.846 164.199C344.308 169.442 340.626 174.174 335.425 174.937C335.348 174.951 335.264 174.958 335.187 174.972C327.186 176.064 313.746 174.552 313.746 174.552L316.091 164.332C316.091 164.332 327.977 162.617 330.112 161.182L327.277 142.219C327.277 142.219 329.601 124.012 332.779 123.466H332.772Z" fill="#BE7346"/>
<path d="M257.732 132.818L277.192 145.145C277.192 145.145 284.199 124.551 288.707 119.714L294.125 117.866L289.183 157.374C288.812 159.607 287.51 161.581 285.613 162.806C282.694 164.682 278.9 164.479 276.205 162.295L252.398 142.989L257.739 132.818H257.732Z" fill="#BE7346"/>
<path d="M333.664 167.594C333.601 167.594 333.636 167.146 333.545 166.446C333.461 165.753 333.209 164.801 332.684 163.877C332.152 162.953 331.466 162.253 330.906 161.826C330.353 161.392 329.954 161.196 329.982 161.14C329.996 161.105 330.437 161.217 331.06 161.616C331.676 162.008 332.439 162.715 333.006 163.695C333.566 164.675 333.79 165.697 333.811 166.425C333.839 167.16 333.713 167.601 333.671 167.594H333.664Z" fill="#09101D"/>
<path d="M331.578 168.945C331.459 168.924 331.991 167.069 331.529 164.815C331.095 162.554 329.898 161.035 330.003 160.979C330.038 160.951 330.381 161.287 330.794 161.945C331.207 162.596 331.655 163.583 331.893 164.752C332.124 165.914 332.082 167.006 331.949 167.762C331.816 168.525 331.627 168.966 331.585 168.952L331.578 168.945Z" fill="#09101D"/>
<path d="M331.42 125.391C331.469 125.454 330.44 126.042 329.299 127.505C328.151 128.947 327.038 131.334 326.702 134.141C326.373 136.955 326.702 139.531 326.961 141.372C327.094 142.233 327.199 142.968 327.29 143.556C327.367 144.074 327.402 144.361 327.374 144.368C327.353 144.368 327.269 144.095 327.15 143.584C327.031 143.073 326.87 142.331 326.702 141.414C326.38 139.58 326.002 136.969 326.338 134.099C326.681 131.222 327.864 128.779 329.096 127.344C329.705 126.616 330.286 126.112 330.72 125.811C331.147 125.51 331.413 125.377 331.42 125.391Z" fill="#09101D"/>
<g opacity="0.3">
<path d="M330.258 161.021C331.175 162.099 331.623 163.527 331.679 164.948C331.735 166.362 331.434 167.776 331 169.12C330.923 169.372 330.839 169.659 330.979 169.883C331.161 170.163 331.616 170.135 331.861 169.911C332.113 169.687 332.211 169.344 332.302 169.022C332.134 169.211 332.379 169.533 332.631 169.519C332.883 169.505 333.072 169.288 333.212 169.078C333.996 167.86 333.926 166.25 333.38 164.913C332.834 163.576 331.854 162.47 330.86 161.42" fill="#09101D"/>
</g>
<path d="M281.163 152.845C281.086 152.901 279.882 151.333 278.783 149.17C277.677 147.007 277.11 145.117 277.201 145.089C277.299 145.054 278.013 146.874 279.105 149.009C280.19 151.151 281.254 152.789 281.163 152.852V152.845Z" fill="#09101D"/>
<path d="M278.44 154.329C278.391 154.343 278.202 153.846 277.95 153.013C277.705 152.187 277.411 151.025 277.173 149.723C276.935 148.421 276.795 147.238 276.725 146.37C276.662 145.509 276.662 144.97 276.711 144.97C276.816 144.963 277.047 147.077 277.53 149.66C277.999 152.243 278.538 154.301 278.433 154.329H278.44Z" fill="#09101D"/>
<path d="M287.967 131.656C288.065 131.656 288.149 140.259 288.149 150.871C288.149 161.483 288.065 170.086 287.967 170.086C287.869 170.086 287.785 161.483 287.785 150.871C287.785 140.259 287.869 131.656 287.967 131.656Z" fill="#09101D"/>
<path d="M299.816 115.927C299.816 115.927 299.746 116.053 299.585 116.27C299.403 116.515 299.172 116.83 298.885 117.222C298.29 118.055 297.443 119.28 296.533 120.876C295.637 122.472 294.587 124.439 294.041 126.812C293.824 127.988 293.684 129.297 293.488 130.62C292.907 132.02 294.286 132.93 295.406 133.693L295.686 133.882L295.371 134.015C295 134.176 294.608 134.456 294.23 134.743C293.726 135.135 293.243 135.548 292.809 135.947L292.865 135.8C293.082 138.579 293.565 141.211 293.88 143.591C294.216 145.957 294.51 148.085 294.769 149.884C295 151.634 295.196 153.062 295.336 154.098C295.392 154.567 295.434 154.945 295.469 155.239C295.497 155.498 295.504 155.638 295.49 155.638C295.476 155.638 295.448 155.505 295.399 155.246C295.35 154.952 295.28 154.574 295.196 154.112C295.028 153.083 294.804 151.662 294.524 149.919C294.251 148.127 293.922 145.999 293.558 143.633C293.222 141.253 292.732 138.649 292.508 135.821V135.73L292.564 135.674C293.012 135.268 293.495 134.848 294.013 134.449C294.405 134.155 294.79 133.861 295.245 133.672L295.21 133.994C294.601 133.602 294.013 133.175 293.53 132.629C293.299 132.349 293.075 132.034 293.026 131.628C293.005 131.537 293.026 131.418 293.026 131.327L293.061 131.075L293.131 130.578C293.334 129.248 293.474 127.981 293.712 126.742C293.992 125.524 294.426 124.425 294.888 123.431C295.35 122.437 295.84 121.541 296.316 120.75C297.261 119.154 298.143 117.95 298.773 117.138C299.088 116.732 299.347 116.424 299.522 116.221C299.704 116.018 299.802 115.92 299.809 115.927H299.816Z" fill="#09101D"/>
<path d="M321.381 117.215C321.381 117.215 321.423 117.313 321.479 117.509C321.535 117.705 321.591 117.999 321.654 118.377C321.766 119.14 321.808 120.26 321.647 121.625C321.479 122.99 321.101 124.586 320.597 126.322C320.121 128.065 319.456 129.962 318.602 131.866C317.839 133.588 317.027 135.191 316.278 136.661L316.243 136.738L316.166 136.752C315.585 136.871 315.018 136.983 314.479 137.095L314.57 136.829C314.948 137.277 315.312 137.711 315.662 138.124L315.732 138.208L315.676 138.299C314.682 139.895 313.849 141.232 313.233 142.226C312.953 142.653 312.722 143.01 312.533 143.304C312.372 143.549 312.274 143.675 312.26 143.668C312.246 143.661 312.316 143.521 312.456 143.262C312.624 142.961 312.834 142.59 313.086 142.142C313.674 141.134 314.472 139.776 315.424 138.152L315.438 138.327C315.088 137.921 314.717 137.494 314.332 137.053L314.15 136.85L314.416 136.794C314.955 136.682 315.522 136.556 316.103 136.437L315.984 136.528C316.712 135.051 317.517 133.448 318.28 131.74C319.134 129.843 319.792 127.988 320.289 126.252C320.814 124.53 321.213 122.955 321.409 121.618C321.605 120.274 321.605 119.175 321.535 118.419C321.472 117.663 321.374 117.25 321.409 117.243L321.381 117.215Z" fill="#09101D"/>
<g opacity="0.3">
<path d="M280.323 152.529C279.455 150.051 278.258 147.545 277.194 145.144L276.312 144.584C275.591 146.789 275.871 149.204 276.641 151.388C276.711 151.584 276.809 151.801 277.005 151.871C277.264 151.962 277.544 151.717 277.593 151.451C277.649 151.185 277.544 150.905 277.446 150.653C278.02 151.675 278.678 152.648 279.406 153.558C279.518 153.698 279.651 153.845 279.826 153.887C280.113 153.95 280.393 153.684 280.449 153.397C280.505 153.11 280.407 152.809 280.309 152.536L280.323 152.529Z" fill="#09101D"/>
</g>
<g opacity="0.3">
<path d="M295.027 154.623C293.347 149.87 291.66 145.082 290.995 140.084C290.848 138.985 290.757 137.844 291.037 136.773C291.324 135.695 292.052 134.687 293.109 134.337C292.514 133.693 292.5 132.594 293.081 131.936C293.767 132.664 294.446 133.385 295.132 134.113C294.068 134.099 293.179 135.016 292.871 136.031C292.563 137.046 292.703 138.138 292.843 139.188C293.543 144.389 294.236 149.59 294.936 154.791" fill="#09101D"/>
</g>
<g opacity="0.3">
<path d="M317.375 137.956C318.39 134.4 319.412 130.837 320.427 127.281C319.573 129.325 318.719 131.362 317.865 133.406C317.508 134.26 317.137 135.135 316.521 135.828C315.905 136.521 314.988 137.018 314.071 136.878C314.603 137.242 315.135 137.599 315.667 137.963C314.526 139.804 313.406 141.82 312.258 143.661L314.715 143.871C315.646 142.387 316.479 141.071 317.41 139.594C317.137 139.104 316.864 138.614 316.591 138.117C316.857 138.068 317.123 138.012 317.389 137.963L317.375 137.956Z" fill="#09101D"/>
</g>
<path d="M302.216 115.108L302.349 113.4L305.513 117.866L306.521 122.689L309.104 117.866L318.029 112.679V117.215L316.321 121.625L312.996 124.194L309.188 125.86L304.666 125.013L301.929 123.466L301.32 120.267L302.216 115.108Z" fill="white"/>
<path d="M305.292 117.803C305.341 117.824 305.103 118.426 304.83 119.427C304.564 120.428 304.228 121.863 304.305 123.459L304.34 124.152L303.976 123.571C303.906 123.459 303.829 123.34 303.752 123.221C302.856 121.695 302.443 120.176 301.988 119.154C301.561 118.118 301.19 117.523 301.239 117.495C301.274 117.467 301.729 118.02 302.226 119.049C302.744 120.064 303.206 121.576 304.067 123.032C304.137 123.151 304.214 123.263 304.277 123.368L303.941 123.48C303.871 121.807 304.256 120.358 304.592 119.357C304.935 118.356 305.257 117.789 305.292 117.803Z" fill="#09101D"/>
<path d="M318.031 115.633C318.031 115.633 318.052 115.696 318.052 115.815C318.066 115.934 318.038 116.116 317.996 116.34C317.898 116.788 317.59 117.411 317.051 118.027C316.512 118.65 315.756 119.273 314.867 119.875C313.957 120.442 313.047 121.142 312.088 121.919C311.227 122.598 310.401 123.263 309.568 123.774L309.239 123.977L309.309 123.599C309.456 122.801 309.414 122.003 309.386 121.31C309.351 120.61 309.288 120.001 309.239 119.49C309.134 118.475 309.064 117.873 309.106 117.866C309.141 117.866 309.288 118.447 309.449 119.462C309.526 119.973 309.617 120.589 309.673 121.289C309.722 121.996 309.785 122.787 309.645 123.662L309.386 123.487C310.184 122.983 310.996 122.318 311.857 121.639C312.809 120.869 313.768 120.148 314.678 119.602C315.56 119.028 316.316 118.44 316.855 117.859C317.401 117.285 317.716 116.718 317.856 116.305C317.989 115.885 317.989 115.633 318.024 115.633H318.031Z" fill="#09101D"/>
<path d="M328.815 175.37C328.815 175.37 328.717 175.391 328.528 175.405C328.311 175.419 328.038 175.433 327.702 175.454C326.974 175.489 325.917 175.531 324.58 175.552C323.243 175.573 321.626 175.587 319.785 175.566C318.868 175.559 317.895 175.538 316.866 175.503C316.355 175.482 315.83 175.461 315.298 175.433C315.032 175.412 314.759 175.398 314.486 175.377L314.073 175.335C314.003 175.321 313.933 175.321 313.856 175.3C313.814 175.293 313.786 175.293 313.737 175.272L313.667 175.251C313.667 175.251 313.534 175.16 313.527 175.097V175.055V175.027C314.136 172.262 314.808 169.231 315.515 166.06C315.648 165.465 315.781 164.87 315.907 164.289L315.935 164.17L316.061 164.149C321.535 163.344 326.519 162.525 330.054 161.055L329.977 161.202C329.634 158.752 329.361 156.75 329.158 155.322C329.074 154.657 329.004 154.125 328.955 153.719C328.913 153.348 328.899 153.159 328.913 153.152C328.927 153.152 328.969 153.341 329.032 153.705C329.102 154.104 329.193 154.636 329.305 155.301C329.536 156.729 329.851 158.724 330.243 161.167L330.257 161.272L330.159 161.314C326.596 162.854 321.591 163.708 316.117 164.52L316.271 164.38C316.145 164.961 316.012 165.556 315.879 166.151C315.165 169.322 314.486 172.353 313.87 175.111L313.723 175.069C318.098 175.265 321.927 175.349 324.587 175.349C325.896 175.349 326.946 175.349 327.709 175.349C328.045 175.349 328.318 175.349 328.542 175.349C328.731 175.349 328.829 175.356 328.829 175.37H328.815Z" fill="#09101D"/>
<path d="M331.07 148.064L325.008 162.75L316.097 164.332L313.703 175.07L319.59 175.413L319.548 175.805L296.441 176.463L306.22 148.064H331.07Z" fill="#798087"/>
<path d="M302.96 143.192L306.222 148.064L296.443 176.463L293.258 171.017L302.96 143.192Z" fill="#798087"/>
<path d="M331.069 148.064L327.499 144.592L302.957 143.192L306.219 148.064H331.069Z" fill="#E3E7EB"/>
<path d="M306.223 148.065C306.321 148.1 304.207 154.484 301.505 162.324C298.803 170.171 296.535 176.499 296.444 176.464C296.353 176.429 298.46 170.045 301.162 162.205C303.864 154.365 306.125 148.03 306.223 148.065Z" fill="#09101D"/>
<path d="M315.759 165.144L311.524 164.78C311.524 164.78 309.886 162.057 308.808 161.112C307.73 160.16 302.165 157.5 302.165 157.5C302.165 157.5 301.353 158.473 302.165 159.453C302.529 159.894 305.161 161.371 305.161 161.371C305.476 162.456 304.538 163.492 303.432 163.282C301.801 162.981 299.904 162.645 299.652 162.645C299.372 162.645 297.748 161.105 296.551 159.936C295.837 159.236 294.556 159.908 294.843 160.867C294.871 160.965 294.92 161.049 294.983 161.105C294.983 161.105 293.268 161.042 294.801 163.352C294.801 163.352 294.444 165.487 295.704 166.46C295.704 166.46 296.25 169.036 297.055 169.925C297.86 170.814 305.756 172.501 305.756 172.501L313.981 173.299L315.759 165.137V165.144Z" fill="#FFA485"/>
<path d="M302.727 165.732C302.727 165.781 302.188 165.809 301.313 165.767C300.452 165.711 299.192 165.592 297.995 164.892C296.798 164.171 296.119 163.093 295.685 162.351C295.251 161.588 295.041 161.098 295.083 161.07C295.132 161.042 295.419 161.497 295.902 162.211C296.385 162.911 297.078 163.912 298.184 164.57C299.29 165.214 300.494 165.382 301.341 165.501C302.195 165.606 302.734 165.669 302.727 165.725V165.732Z" fill="#E06A4B"/>
<path d="M301.911 167.559C301.918 167.608 301.421 167.72 300.623 167.657C300.224 167.629 299.748 167.573 299.23 167.454C298.719 167.328 298.131 167.181 297.606 166.789C297.102 166.404 296.731 165.949 296.395 165.543C296.094 165.172 295.807 164.808 295.527 164.458C295.037 163.835 294.757 163.436 294.792 163.401C294.827 163.366 295.184 163.709 295.723 164.29C295.989 164.577 296.311 164.927 296.654 165.319C296.997 165.704 297.375 166.138 297.823 166.488C298.264 166.824 298.824 166.978 299.314 167.118C299.811 167.244 300.266 167.335 300.651 167.391C301.421 167.51 301.904 167.496 301.911 167.545V167.559Z" fill="#E06A4B"/>
<path d="M300.801 169.596C300.78 169.743 299.366 169.442 297.7 168.98C297.42 168.917 297.252 168.742 297.091 168.609C296.93 168.469 296.79 168.315 296.664 168.175C296.405 167.881 296.202 167.601 296.055 167.349C295.747 166.845 295.663 166.488 295.705 166.467C295.754 166.446 295.915 166.754 296.265 167.202C296.44 167.426 296.65 167.678 296.909 167.944C297.035 168.077 297.175 168.21 297.329 168.336C297.483 168.455 297.637 168.595 297.791 168.623C298.645 168.854 299.387 169.092 299.933 169.267C300.479 169.449 300.801 169.554 300.801 169.596Z" fill="#E06A4B"/>
</g>
</g>
<defs>
<filter id="filter0_dd_198_3011" x="81.9258" y="33.1455" width="364.027" height="264.614" filterUnits="userSpaceOnUse" color-interpolation-filters="sRGB">
<feFlood flood-opacity="0" result="BackgroundImageFix"/>
<feColorMatrix in="SourceAlpha" type="matrix" values="0 0 0 0 0 0 0 0 0 0 0 0 0 0 0 0 0 0 127 0" result="hardAlpha"/>
<feOffset dx="3.5" dy="3.5"/>
<feGaussianBlur stdDeviation="3.5"/>
<feComposite in2="hardAlpha" operator="out"/>
<feColorMatrix type="matrix" values="0 0 0 0 0.545098 0 0 0 0 0.54902 0 0 0 0 0.627451 0 0 0 0.25 0"/>
<feBlend mode="multiply" in2="BackgroundImageFix" result="effect1_dropShadow_198_3011"/>
<feColorMatrix in="SourceAlpha" type="matrix" values="0 0 0 0 0 0 0 0 0 0 0 0 0 0 0 0 0 0 127 0" result="hardAlpha"/>
<feOffset dx="7" dy="7"/>
<feGaussianBlur stdDeviation="10.5"/>
<feComposite in2="hardAlpha" operator="out"/>
<feColorMatrix type="matrix" values="0 0 0 0 0.545098 0 0 0 0 0.54902 0 0 0 0 0.627451 0 0 0 0.25 0"/>
<feBlend mode="multiply" in2="effect1_dropShadow_198_3011" result="effect2_dropShadow_198_3011"/>
<feBlend mode="normal" in="SourceGraphic" in2="effect2_dropShadow_198_3011" result="shape"/>
</filter>
<clipPath id="clip0_198_3011">
<rect width="511" height="350" fill="white" transform="translate(0.664062)"/>
</clipPath>
<clipPath id="clip1_198_3011">
<rect width="443.779" height="315.721" fill="white" transform="translate(30.7578 16.8003)"/>
</clipPath>
</defs>
</svg>
