<svg width="430" height="400" viewBox="0 0 430 400" fill="none" xmlns="http://www.w3.org/2000/svg">
<ellipse cx="217.957" cy="394" rx="148.5" ry="6" fill="#EBD5C7"/>
<path d="M366.721 82.8538C369.425 86.9861 371.234 91.5214 372.2 96.2012L379.621 96.9037V111.346L372.2 112.049C371.234 116.729 369.414 121.264 366.721 125.396L371.46 131.15L361.304 141.357L355.579 136.595C351.467 139.312 346.955 141.13 342.299 142.101L341.6 149.56H327.23L326.531 142.101C321.875 141.13 317.362 139.302 313.251 136.595L307.526 141.357L297.37 131.15L302.109 125.396C299.405 121.264 297.596 116.729 296.63 112.049L289.209 111.346V96.9037L296.63 96.2012C297.596 91.5214 299.416 86.9861 302.109 82.8538L297.37 77.0995L307.526 66.8926L313.251 71.6552C317.362 68.9381 321.875 67.1199 326.531 66.1488L327.23 58.6899H341.6L342.299 66.1488C346.955 67.1199 351.467 68.9485 355.579 71.6552L361.304 66.8926L371.46 77.0995L366.721 82.8538ZM320.662 90.3023C313.066 97.9368 313.066 110.313 320.662 117.948C328.258 125.582 340.572 125.582 348.168 117.948C355.764 110.313 355.764 97.9368 348.168 90.3023C340.572 82.6678 328.258 82.6678 320.662 90.3023Z" fill="#EBD5C7"/>
<path d="M277.944 13.1619C279.414 15.414 280.401 17.8831 280.925 20.4348L284.965 20.8171V28.6788L280.925 29.0611C280.401 31.6128 279.414 34.0819 277.944 36.334L280.524 39.4642L274.994 45.0222L271.88 42.4292C269.639 43.9065 267.183 44.8983 264.644 45.4251L264.263 49.4852H256.441L256.061 45.4251C253.522 44.8983 251.065 43.9065 248.825 42.4292L245.71 45.0222L240.18 39.4642L242.76 36.334C241.29 34.0819 240.304 31.6128 239.779 29.0611L235.74 28.6788V20.8171L239.779 20.4348C240.304 17.8831 241.29 15.414 242.76 13.1619L240.18 10.0317L245.71 4.47367L248.825 7.06671C251.065 5.5894 253.522 4.59764 256.061 4.07076L256.441 0.0107422H264.263L264.644 4.07076C267.183 4.59764 269.639 5.5894 271.88 7.06671L274.994 4.47367L280.524 10.0317L277.944 13.1619ZM252.864 17.2219C248.732 21.3749 248.732 28.121 252.864 32.274C256.996 36.427 263.708 36.427 267.84 32.274C271.972 28.121 271.972 21.3749 267.84 17.2219C263.708 13.0689 256.996 13.0689 252.864 17.2219Z" fill="#EBD5C7"/>
<path d="M134.433 162.225C135.472 163.806 136.16 165.541 136.53 167.339L139.367 167.607V173.134L136.53 173.403C136.16 175.19 135.461 176.936 134.433 178.517L136.242 180.717L132.357 184.622L130.168 182.804C128.595 183.848 126.868 184.54 125.08 184.912L124.812 187.763H119.313L119.046 184.912C117.268 184.54 115.531 183.837 113.958 182.804L111.769 184.622L107.883 180.717L109.692 178.517C108.664 176.936 107.965 175.201 107.595 173.403L104.758 173.134V167.607L107.595 167.339C107.965 165.552 108.664 163.806 109.692 162.225L107.883 160.025L111.769 156.12L113.958 157.938C115.531 156.894 117.257 156.202 119.046 155.83L119.313 152.979H124.812L125.08 155.83C126.858 156.202 128.595 156.905 130.168 157.938L132.357 156.12L136.242 160.025L134.433 162.225ZM116.805 165.076C113.896 168 113.896 172.732 116.805 175.655C119.714 178.579 124.422 178.579 127.331 175.655C130.24 172.732 130.24 168 127.331 165.076C124.422 162.153 119.714 162.153 116.805 165.076Z" fill="#EBD5C7"/>
<path d="M149.558 208.24C151.028 210.492 152.014 212.961 152.539 215.512L156.578 215.895V223.756L152.539 224.139C152.014 226.69 151.028 229.16 149.558 231.412L152.138 234.542L146.608 240.1L143.493 237.507C141.252 238.984 138.796 239.976 136.257 240.503L135.877 244.563H128.055L127.674 240.503C125.135 239.976 122.679 238.984 120.438 237.507L117.323 240.1L111.793 234.542L114.373 231.412C112.904 229.16 111.917 226.69 111.393 224.139L107.353 223.756V215.895L111.393 215.512C111.917 212.961 112.904 210.492 114.373 208.24L111.793 205.109L117.323 199.551L120.438 202.144C122.679 200.667 125.135 199.675 127.674 199.148L128.055 195.088H135.877L136.257 199.148C138.796 199.675 141.252 200.667 143.493 202.144L146.608 199.551L152.138 205.109L149.558 208.24ZM124.477 212.3C120.345 216.453 120.345 223.199 124.477 227.352C128.61 231.505 135.322 231.505 139.454 227.352C143.586 223.199 143.586 216.453 139.454 212.3C135.322 208.147 128.61 208.147 124.477 212.3Z" fill="#EBD5C7"/>
<path d="M183.201 174.416C183.201 177.04 186.829 179.148 191.239 179.075C195.649 179.003 199.195 176.865 199.164 174.241C199.133 171.617 195.535 169.509 191.126 169.592C186.716 169.674 183.16 171.803 183.191 174.416H183.201Z" fill="#09101D"/>
<path d="M179.759 165.759C179.327 165.346 179.07 164.777 179.029 164.178C179.029 161.606 184.415 159.447 191.127 159.385C197.839 159.323 203.297 161.327 203.328 163.899C203.297 164.498 203.051 165.056 202.629 165.48C202.753 165.728 202.824 165.996 202.845 166.265C202.824 166.864 202.568 167.432 202.136 167.846C202.28 168.104 202.352 168.383 202.362 168.682C202.341 169.292 202.074 169.86 201.622 170.263C201.776 170.521 201.869 170.811 201.869 171.11C201.827 171.709 201.55 172.257 201.087 172.639C201.252 172.897 201.344 173.197 201.355 173.497C201.355 175.635 196.883 177.433 191.302 177.484C185.721 177.536 181.188 175.904 181.157 173.724C181.157 173.414 181.249 173.114 181.403 172.856C180.941 172.484 180.663 171.937 180.622 171.348C180.622 171.048 180.705 170.759 180.848 170.501C180.396 170.118 180.108 169.571 180.067 168.972C180.067 168.682 180.139 168.393 180.283 168.125C179.831 167.742 179.543 167.184 179.502 166.585C179.522 166.296 179.615 166.007 179.769 165.759H179.759Z" fill="#09101D"/>
<path opacity="0.3" d="M179.759 165.759C179.327 165.346 179.07 164.777 179.029 164.178C179.029 161.606 184.415 159.447 191.127 159.385C197.839 159.323 203.297 161.327 203.328 163.899C203.297 164.498 203.051 165.056 202.629 165.48C202.753 165.728 202.824 165.996 202.845 166.265C202.824 166.864 202.568 167.432 202.136 167.846C202.28 168.104 202.352 168.383 202.362 168.682C202.341 169.292 202.074 169.86 201.622 170.263C201.776 170.521 201.869 170.811 201.869 171.11C201.827 171.709 201.55 172.257 201.087 172.639C201.252 172.897 201.344 173.197 201.355 173.497C201.355 175.635 196.883 177.433 191.302 177.484C185.721 177.536 181.188 175.904 181.157 173.724C181.157 173.414 181.249 173.114 181.403 172.856C180.941 172.484 180.663 171.937 180.622 171.348C180.622 171.048 180.705 170.759 180.848 170.501C180.396 170.118 180.108 169.571 180.067 168.972C180.067 168.682 180.139 168.393 180.283 168.125C179.831 167.742 179.543 167.184 179.502 166.585C179.522 166.296 179.615 166.007 179.769 165.759H179.759Z" fill="white"/>
<path d="M169.698 143.072C169.554 131.14 179.072 121.347 190.944 121.212C202.816 121.078 212.56 130.634 212.694 142.566C212.766 149.044 209.95 155.211 205.016 159.374C204.111 160.129 203.628 161.286 203.741 162.463C203.741 162.525 203.741 162.577 203.741 162.639C203.741 165.242 198.252 167.433 191.448 167.505C184.643 167.587 179.082 165.532 179.051 162.908V162.742C179.154 161.544 178.651 160.366 177.715 159.612C172.709 155.583 169.77 149.509 169.688 143.072H169.698Z" fill="#D29D7E"/>
<path d="M180.255 130.521C180.255 134.725 185.158 138.145 191.233 138.145C197.308 138.145 202.211 134.725 202.211 130.521C202.211 126.316 197.308 122.886 191.233 122.886C185.158 122.886 180.255 126.306 180.255 130.521Z" fill="#D29D7E"/>
<path d="M207.575 151.037C209.445 147.814 210.185 143.94 209.651 140.252C209.106 136.564 207.287 133.072 204.563 130.531" stroke="#F8F1EC" stroke-width="1.5748" stroke-linecap="round" stroke-linejoin="round"/>
<path d="M201.117 172.691C194.888 175.263 187.765 175.356 181.474 172.929C187.631 175.666 195.032 175.573 201.117 172.691Z" fill="#09101D"/>
<path d="M201.273 170.367C195.044 172.939 187.921 173.032 181.631 170.604C187.788 173.342 195.188 173.249 201.273 170.367Z" fill="#09101D"/>
<path d="M201.414 168.052C195.185 170.625 188.062 170.718 181.771 168.29C187.928 171.028 195.329 170.935 201.414 168.052Z" fill="#09101D"/>
<path d="M195.847 162.928C194.203 157.287 193.904 151.13 195.015 145.314C195.189 144.374 195.621 143.248 196.454 143.217C197.204 143.196 197.697 144.126 197.862 144.963C198.437 147.928 196.906 150.944 194.943 153C193.884 154.106 192.599 155.077 191.16 155.149C189.721 155.221 188.344 154.364 187.305 153.217C185.311 151.037 184.314 147.607 185.034 144.56C185.342 143.268 186.247 141.884 187.398 142.132C188.087 142.277 188.59 143.01 188.775 143.795C188.96 144.58 188.868 145.397 188.765 146.192C188.035 151.936 186.637 157.566 184.623 162.897" stroke="white" stroke-width="1.04987" stroke-linecap="round" stroke-linejoin="round"/>
<path d="M108.523 331.557V283.488C108.523 281.298 106.015 280.079 104.299 281.432L73.9045 305.462C72.5785 306.515 72.5785 308.53 73.9045 309.584L104.299 333.613C106.005 334.967 108.523 333.737 108.523 331.557Z" fill="#D29D7E"/>
<path d="M103.597 293.23H246.996V321.805H103.597V293.23Z" fill="#D29D7E"/>
<path d="M221.852 321.857H356.34L340.983 307.301L356.34 292.559H221.852C164.116 292.559 117.142 245.347 117.142 187.318C117.142 129.29 164.116 82.078 221.852 82.078V52.79C148.051 52.79 88.0018 113.143 88.0018 187.318C88.0018 261.494 148.051 321.847 221.852 321.847V321.857Z" fill="white"/>
<path d="M321.63 281.329C344.223 256.143 356.66 223.59 356.66 189.653C356.66 127.482 314.928 73.0284 255.178 57.2119L265.22 69.8775L247.623 86.0453C294.35 98.4113 326.985 141.005 326.985 189.643C326.985 216.183 317.251 241.648 299.582 261.349L321.609 281.319L321.63 281.329Z" fill="#D29D7E"/>
<path d="M318.699 283.034C317.6 282.755 281.285 283.034 281.285 283.034L299.601 261.36L321.629 281.329L318.699 283.034Z" fill="#D29D7E"/>
<path d="M221.292 42.1287L218.599 90.1258C218.476 92.316 220.912 93.6797 222.7 92.4193L254.4 70.146C255.788 69.1749 255.901 67.15 254.626 66.0343L225.62 40.3208C223.985 38.8745 221.416 39.9593 221.292 42.1391V42.1287Z" fill="white"/>
<path d="M236.263 144.581C230.661 148.341 229.067 153.734 229.139 157.649C229.838 162.928 231.658 166.668 233.076 171.802L247.004 140.903C243.746 141.554 242.286 140.882 236.263 144.591V144.581Z" fill="#09101D"/>
<path d="M243.239 141.853C248.697 139.301 254.052 142.307 257.177 144.404C260.59 147.318 262.604 151.564 262.707 156.058C262.707 160.262 262.707 165.366 260.168 167.566C258.75 168.837 256.858 169.446 254.967 169.25L234.255 150.045C236.506 146.595 239.6 143.774 243.239 141.853Z" fill="#09101D"/>
<path d="M242.892 198.755C244.485 200.408 245.934 199.85 248.062 198.982C260.705 194.416 256.963 188.269 256.963 188.269C254.568 185.438 254.455 182.06 255.329 176.895C255.349 176.74 255.349 176.595 255.349 176.44C255.349 175.748 255.123 175.087 254.722 174.529C253.664 172.979 251.557 172.576 250.015 173.641L244.351 175.262C244.341 175.345 244.32 175.417 244.3 175.51C244.279 178.331 244.361 180.521 244.341 182.246C244.3 182.453 244.341 182.67 244.331 182.876C244.289 183.083 244.31 183.31 244.31 183.507C244.176 185.862 240.199 189.333 238.585 190.16C237.598 190.728 237.495 193.187 242.902 198.755H242.892Z" fill="#FFA485"/>
<path opacity="0.2" d="M244.348 175.253C244.348 175.336 244.328 175.428 244.297 175.511C244.286 178.331 244.358 180.522 244.338 182.247C244.348 182.453 244.338 182.67 244.328 182.877C244.317 183.094 244.286 183.311 244.245 183.528C248.552 182.35 252.386 179.881 255.254 176.441C255.254 175.759 255.048 175.098 254.668 174.54C253.63 172.98 251.523 172.557 249.96 173.59L244.338 175.253H244.348Z" fill="#09101D"/>
<path d="M259.614 157.298C259.398 167.029 259.521 171.141 254.916 176.42C247.989 184.354 236.394 182.236 233.722 172.691C231.388 164.095 232.087 149.653 241.215 145.19C250.342 140.727 259.819 147.556 259.614 157.298Z" fill="#FFA485"/>
<path d="M263.899 165.624C262.922 167.721 261.165 169.137 259.489 169.715C256.971 170.583 255.295 166.533 255.953 163.878C256.549 161.482 258.944 159.725 261.494 160.015C264.002 160.304 265.019 163.227 263.899 165.624Z" fill="#FFA485"/>
<path opacity="0.2" d="M258.419 165.573C258.398 164.644 258.768 163.714 259.406 163.042C260.043 162.371 260.958 161.968 261.883 161.947" stroke="#09101D" stroke-width="0.524934" stroke-linecap="round" stroke-linejoin="round"/>
<path d="M246.982 161.481C247.023 162.514 246.54 163.413 245.903 163.485C245.265 163.558 244.721 162.762 244.679 161.729C244.638 160.696 245.121 159.797 245.759 159.725C246.396 159.652 246.941 160.448 246.982 161.481Z" fill="#09101D"/>
<path d="M237.405 162.266C237.436 163.268 236.953 164.146 236.315 164.208C235.678 164.28 235.133 163.516 235.102 162.514C235.072 161.512 235.555 160.634 236.192 160.572C236.829 160.499 237.374 161.264 237.405 162.266Z" fill="#09101D"/>
<path d="M248.709 157.711C248.586 157.731 248.462 157.711 248.349 157.628C246.735 156.357 245.091 156.998 245.07 156.998C244.824 157.091 244.567 156.967 244.484 156.719C244.402 156.471 244.546 156.182 244.793 156.089C244.875 156.058 246.941 155.262 248.945 156.832C249.141 156.987 249.171 157.297 249.007 157.514C248.925 157.618 248.822 157.69 248.709 157.711Z" fill="#09101D"/>
<path d="M233.764 157.638C233.661 157.617 233.579 157.545 233.528 157.441C233.425 157.224 233.507 156.935 233.713 156.79C235.83 155.344 237.557 156.16 237.629 156.202C237.835 156.305 237.907 156.574 237.783 156.811C237.67 157.049 237.403 157.162 237.197 157.059C237.125 157.028 235.779 156.419 234.103 157.565C233.99 157.638 233.877 157.658 233.764 157.638Z" fill="#09101D"/>
<path d="M239.96 161.574C239.96 161.574 238.747 165.355 237.226 167.783C236.959 168.207 237.195 168.775 237.678 168.909C238.912 169.25 240.289 168.734 240.289 168.734L239.97 161.585L239.96 161.574Z" fill="#A24E3F"/>
<path d="M246.133 159.735L243.861 159.395C243.861 159.395 245.218 160.965 246.133 159.735Z" fill="#09101D"/>
<path d="M236.422 160.572L234.15 160.231C234.15 160.231 235.507 161.802 236.422 160.572Z" fill="#09101D"/>
<path d="M240.924 171.399C241.726 172.309 242.805 174.137 242.805 174.137C242.99 174.065 243.165 174.003 243.35 173.92C245.797 172.928 246.609 171.658 246.763 170.552C246.845 169.943 246.722 169.385 246.567 168.941C246.393 168.435 246.156 168.114 246.156 168.114C245.17 169.416 242.96 170.521 241.747 171.059C241.243 171.286 240.914 171.41 240.914 171.41L240.924 171.399Z" fill="#09101D"/>
<path d="M241.757 171.048L242.333 171.844C244.635 170.904 246.136 169.932 246.578 168.941C246.403 168.435 246.167 168.114 246.167 168.114C245.18 169.416 242.97 170.521 241.757 171.059V171.048Z" fill="white"/>
<path d="M243.353 173.91C245.799 172.918 246.611 171.647 246.766 170.542C245.943 170.914 244.998 171.451 244.258 172.185C243.692 172.742 243.446 173.352 243.343 173.92L243.353 173.91Z" fill="#DE5753"/>
<path d="M256.254 159.663C256.254 159.663 250.724 153.309 250.55 147.875C250.55 147.875 230.763 143.464 232.582 160.634C232.582 160.634 228.306 145.788 244.475 143.361C260.643 140.933 263.984 162.163 256.655 169.56C256.624 169.487 259.677 163.64 256.254 159.663Z" fill="#09101D"/>
<path d="M273.512 146.739C273.131 151.171 269.256 154.446 264.847 154.074C260.437 153.692 257.179 149.797 257.549 145.365C257.909 141.202 261.372 138.01 265.525 138.01C270.12 138.227 273.676 142.121 273.501 146.739H273.512Z" fill="#09101D"/>
<path d="M237.122 145.489C234.994 147.545 233.575 150.221 233.061 153.145C233.061 155.262 235.929 156.791 235.929 156.791L239.434 152.174V156.234C245.17 155.603 248.49 152.535 250.453 148.124L247.256 142.38C247.256 142.38 239.033 143.837 237.132 145.489H237.122Z" fill="#09101D"/>
<path d="M264.468 151.378C264.961 153.672 266.318 155.769 268.199 157.164C267.182 157.246 266.143 156.998 265.29 156.461C265.331 157.288 265.516 158.114 265.835 158.879C263.512 156.936 262.145 153.899 262.217 150.862L264.478 151.378H264.468Z" fill="#09101D"/>
<path d="M151.179 360.825L160.779 361.104C160.779 361.104 177.904 327.963 186.137 309.368C195.861 287.404 193.712 280.328 196.632 280.204C202.018 279.966 256.937 305.349 270.69 291.268C284.454 277.187 264.544 243.271 264.544 243.271C264.544 243.271 233.892 238.508 231.384 246.029C230.767 248.25 229.431 250.544 229.113 252.827C228.743 255.079 227.992 258.416 227.992 258.416C227.262 258.23 206.253 256.184 193.219 256.494C185.366 256.68 178.366 261.474 175.241 268.716C163.452 296.041 151.179 360.836 151.179 360.836V360.825Z" fill="#09101D"/>
<path d="M247.849 294.656C247.849 294.656 245.608 294.656 210.845 293.075C210.845 293.075 215.615 304.398 216.951 327.735C217.496 337.333 215.975 368.418 217.167 382.179C216.56 383.036 210.177 385.877 206.282 383.005C206.282 383.005 183.73 301.206 183.956 290.11C184.182 279.005 196.99 275.74 196.99 275.74C196.99 275.74 221.659 290.11 247.859 294.666L247.849 294.656Z" fill="#09101D"/>
<path opacity="0.2" d="M215.527 285.514C210.768 283.582 206.091 281.454 201.517 279.139C193.571 275.11 183.807 280.297 183.056 289.202C183.036 289.501 183.015 289.801 183.005 290.111C182.892 294.615 186.9 311.527 192.626 329.905C192.482 328.82 192.276 327.736 192.009 326.672C186.325 303.717 183.478 291.795 186.325 286.237C188.237 282.786 191.279 280.1 194.938 278.644L226.001 293.861C243.115 294.615 245.664 294.646 245.973 294.646C235.54 292.673 225.333 289.615 215.527 285.514Z" fill="#09101D"/>
<path d="M204.647 378.367C204.606 377.871 205.037 377.458 205.531 377.458H208.45C209.19 377.437 209.992 378.759 210.444 379.348C212.387 381.879 213.774 380.877 215.768 378.398C217.064 378.212 217.454 379.71 217.567 380.102L220.219 388.956C220.445 389.7 220.034 390.485 219.304 390.712C219.171 390.754 219.037 390.774 218.903 390.774C214.946 390.867 213.065 390.919 208.142 391.033L193.063 391.394C188.951 391.497 188.005 387.355 189.681 386.931C197.256 385.051 202.591 382.675 204.883 380.392C205.202 380.092 204.719 379.266 204.647 378.357V378.367Z" fill="#855131"/>
<path d="M203.352 381.342C204.482 381.466 205.541 382.117 206.168 383.068" stroke="white" stroke-width="0.524934" stroke-linecap="round" stroke-linejoin="round"/>
<path d="M201.234 382.665C202.365 382.789 203.424 383.439 204.051 384.39" stroke="white" stroke-width="0.524934" stroke-linecap="round" stroke-linejoin="round"/>
<path d="M198.621 384.018C199.752 384.142 200.81 384.792 201.438 385.743" stroke="white" stroke-width="0.524934" stroke-linecap="round" stroke-linejoin="round"/>
<path d="M151.642 354.369L154.715 355.484C155.414 355.732 155.928 356.321 156.133 357.034C157.028 360.102 158.693 359.668 161.437 358.077C162.712 358.377 162.537 359.906 162.496 360.319L161.787 369.534C161.735 370.309 161.067 370.888 160.296 370.836C160.163 370.836 160.029 370.795 159.895 370.753C156.164 369.4 154.407 368.77 149.771 367.086L135.586 361.951C131.721 360.546 132.317 356.342 134.044 356.559C141.774 357.561 147.612 357.282 150.573 355.991C151.117 355.774 150.788 355.35 151.642 354.369Z" fill="#855131"/>
<path d="M148.664 356.383C149.671 356.91 150.421 357.902 150.668 359.018" stroke="white" stroke-width="0.524934" stroke-linecap="round" stroke-linejoin="round"/>
<path d="M146.238 356.724C147.245 357.251 147.995 358.243 148.242 359.359" stroke="white" stroke-width="0.524934" stroke-linecap="round" stroke-linejoin="round"/>
<path d="M143.433 357.076C144.44 357.603 145.191 358.594 145.438 359.71" stroke="white" stroke-width="0.524934" stroke-linecap="round" stroke-linejoin="round"/>
<path d="M222.499 257.848L226.909 258.271C226.909 258.271 227.269 255.224 227.639 252.972C227.957 250.688 230.455 243.013 231.072 240.792C243.694 242.052 265.105 241.287 265.105 241.287C265.105 241.287 284.429 277.208 270.697 291.258C262.443 299.677 238.133 294.75 220.135 287.353L222.499 257.848Z" fill="#09101D"/>
<path opacity="0.3" d="M226.911 257.052L246.266 261.112C246.266 261.112 235.678 255.337 227.64 252.992C227.27 255.296 226.911 257.052 226.911 257.052Z" fill="#09101D"/>
<path d="M198.514 211.327C198.411 209.612 203.448 219.416 203.448 219.416L211.969 213.373L205.185 206.513C205.185 206.513 198.298 211.028 198.411 211.172" fill="#FFA485"/>
<path d="M232.703 189.148C228.14 191.39 224.686 195.398 223.072 200.233C220.184 208.921 218.93 219.355 218.93 219.355L208.168 209.727L200.15 215.708C200.15 215.708 210.676 231.742 217.758 237.992C223.637 243.188 230.308 233.116 230.308 233.116L233.207 188.9L232.693 189.148H232.703Z" fill="#09101D"/>
<path opacity="0.2" d="M253.499 246.556L255.812 283.014L276.555 280.524V276.774L253.499 246.556Z" fill="#09101D"/>
<path d="M263.528 247.465C264.34 238.219 267.609 221.266 273.232 203.466C275.061 197.681 268.524 191.276 268.524 191.276C268.524 191.276 264.299 190.945 263.528 190.852C262.686 190.749 261.812 190.666 260.938 190.594C254.37 190.047 248.984 189.644 243.125 189.985C241.655 190.067 240.144 190.191 238.654 190.325C238.171 190.377 235.066 190.418 234.594 190.47C234.594 190.47 226.165 200.377 225.713 207.371C225.466 211.276 223.585 212.96 223.801 222.31C223.842 228.653 228.426 237.909 228.837 246.835L263.528 247.465Z" fill="white"/>
<path d="M252.045 216.39C252.487 201.875 254.193 192.66 254.964 189.137C255.17 188.208 256.033 187.598 256.969 187.712L262.55 188.89C268.018 190.357 270.948 189.561 273.99 193.642C274.576 194.427 275.07 200.512 275.029 201.349C274.957 202.847 273.918 207.423 272.551 212.95C271.606 216.783 270.485 221.091 269.416 225.151C268.049 230.327 266.898 231.67 266.456 233.333L280.61 275.286C281.011 276.412 280.26 277.611 279.078 277.735L258.767 279.863C257.77 279.966 256.876 279.253 256.763 278.262C255.746 269.739 251.542 233.075 252.045 216.39Z" fill="#09101D"/>
<path d="M225.362 244.82C225.362 244.82 221.096 218.28 222.237 211.638C223.378 204.995 233.215 188.889 233.215 188.889L237.707 188.579L243.031 186.41C243.031 186.41 230.748 201.307 227.736 212.051C225.753 219.117 229.71 241.452 229.247 246.845L226.966 258.002L221.312 257.754L225.362 244.831V244.82Z" fill="#09101D"/>
<path d="M255.727 185.429C255.727 185.429 250.207 196.39 252.294 223.963L261.473 204.138L258.153 198.725L262.562 189.871C262.562 189.871 257.845 186.824 255.861 185.212L255.727 185.429Z" fill="#09101D"/>
<g opacity="0.2">
<path d="M255.735 185.429C255.735 185.429 250.215 196.39 252.302 223.963L261.481 204.138L258.161 198.725L262.57 189.871C262.57 189.871 257.852 186.824 255.869 185.212L255.735 185.429Z" fill="#D29D7E"/>
</g>
<path d="M227.448 224.118C227.448 224.118 225.392 218.033 225.773 212.423C226.153 206.813 226.235 202.629 226.235 202.629L232.567 197.919L231.734 192.185C231.734 192.185 234.787 190.305 237.624 188.373C239.567 187.051 243.37 185.057 243.863 185.212C243.863 185.212 227.684 205.791 227.602 214.21C227.52 222.33 227.438 224.128 227.438 224.128L227.448 224.118Z" fill="#09101D"/>
<path opacity="0.3" d="M227.448 224.118C227.448 224.118 225.392 218.033 225.773 212.423C226.153 206.813 226.235 202.629 226.235 202.629L232.567 197.919L231.734 192.185C231.734 192.185 234.787 190.305 237.624 188.373C239.567 187.051 243.37 185.057 243.863 185.212C243.863 185.212 227.684 205.791 227.602 214.21C227.52 222.33 227.438 224.128 227.438 224.128L227.448 224.118Z" fill="#D29D7E"/>
<path opacity="0.3" d="M224.332 238.229L222.122 217.763L221.31 238.9C221.31 238.9 223.427 238.797 224.332 238.239V238.229Z" fill="#09101D"/>
<path d="M239.789 190.697L244.137 184.695L246.213 188.27L254.806 183.073L255.875 185.222L252.822 194.22C252.822 194.22 245.195 197.361 244.794 197.361C244.394 197.361 239.799 190.718 239.799 190.718L239.789 190.697Z" fill="white"/>
<path opacity="0.3" d="M239.575 190.976L241.363 195.398L245.783 190.976L248.795 196.172L253.297 193.951L248.497 197.774L245.721 192.081L240.654 196.885L239.575 190.976Z" fill="#09101D"/>
<path opacity="0.3" d="M263.29 232.764L265.027 213.218L266.363 234.51L246.258 242.723L263.29 232.764Z" fill="#09101D"/>
<path d="M271.249 190.976C271.249 190.976 277.632 192.546 278.855 199.561C280.078 206.565 281.712 241.597 280.325 243.818C278.937 246.039 240.094 258.591 240.094 258.591L235.931 247.754L265.277 233.487C265.277 233.487 265.04 223.476 264.794 215.677C264.67 211.555 264.537 208.042 264.454 206.968C264.187 203.837 271.249 190.986 271.249 190.986V190.976Z" fill="#09101D"/>
<path d="M236.075 248.416C236.075 248.416 223.863 251.36 221.037 253.808C219.783 254.893 219.813 256.68 219.813 256.68L239.59 257.569L236.085 248.416H236.075Z" fill="#FFA485"/>
<path opacity="0.3" d="M271.363 247.858C270.973 248.003 254.177 254.015 254.177 254.015V256.133L272.227 250.399L271.373 247.858H271.363Z" fill="#09101D"/>
<path opacity="0.2" d="M245.723 192.081C236.575 208.115 237.078 228.973 236.575 246.68" stroke="#09101D" stroke-width="0.524934" stroke-linecap="round" stroke-linejoin="round"/>
<path d="M204.741 207.526C204.741 207.526 206.396 204.871 205.8 202.351C205.194 199.83 205.379 197.66 204.803 195.822C204.227 193.983 203.2 196.369 202.912 197.753C202.624 199.138 202.275 200.698 201.277 200.315C200.28 199.933 194.473 192.743 193.024 192.371C191.574 191.989 192.16 193.445 192.16 193.445C192.16 193.445 190.701 191.741 189.878 192.133C189.662 192.237 189.323 192.826 189.878 193.704C191.101 195.687 193.877 199.716 193.877 199.716C193.723 199.479 189.94 194.747 189.282 194.117C188.419 193.29 187.596 193.342 187.134 193.859C186.476 194.592 190.958 200.625 190.978 201.008C190.978 201.008 188.511 197.454 187.247 197.588C185.983 197.722 187.422 200.047 189.066 201.855C190.577 203.508 193.116 207.165 194.812 208.694C196.909 210.584 198.739 211.38 201.154 210.316C203.57 209.252 204.752 207.506 204.752 207.506L204.741 207.526Z" fill="#FFA485"/>
<path opacity="0.3" d="M192.395 193.631C193.525 195.026 194.594 196.472 195.602 197.97" stroke="#09101D" stroke-width="0.524934" stroke-linecap="round" stroke-linejoin="round"/>
<path opacity="0.3" d="M191.874 202.434C193.22 200.543 195.132 199.055 197.301 198.229" stroke="#09101D" stroke-width="0.524934" stroke-linecap="round" stroke-linejoin="round"/>
<path opacity="0.3" d="M200.977 201.442C200.339 202.144 199.959 203.074 199.918 204.025C199.877 204.975 200.175 205.936 200.74 206.69" stroke="#09101D" stroke-width="0.524934" stroke-linecap="round" stroke-linejoin="round"/>
<path d="M186.653 257.021H218.332C218.877 257.021 219.319 256.66 219.308 256.215C219.308 256.133 219.288 256.05 219.257 255.967L205.165 223.498C204.805 222.568 203.746 221.938 202.544 221.927H170.844C170.309 221.927 169.878 222.278 169.878 222.712C169.878 222.805 169.898 222.888 169.939 222.981L184.032 255.451C184.391 256.37 185.45 257.011 186.653 257.021Z" fill="#09101D"/>
<path opacity="0.7" d="M170.848 221.938H202.548C203.75 221.938 204.809 222.579 205.169 223.508L219.261 255.978C219.292 256.061 219.312 256.143 219.312 256.226C219.312 256.67 218.881 257.032 218.336 257.032H186.657C185.454 257.032 184.395 256.391 184.036 255.462L169.943 222.992C169.902 222.909 169.882 222.816 169.882 222.723C169.882 222.289 170.314 221.938 170.848 221.938Z" fill="white"/>
<path d="M190.48 240.203C191.169 241.763 192.556 242.827 193.584 242.61C194.622 242.393 194.89 240.967 194.232 239.407C193.564 237.847 192.166 236.804 191.128 237.021C190.089 237.238 189.781 238.601 190.48 240.203Z" fill="white"/>
<path opacity="0.3" d="M202.351 221.937H202.536C203.739 221.937 204.797 222.578 205.157 223.507L219.249 255.977C219.28 256.06 219.301 256.142 219.301 256.225C219.301 256.669 218.869 257.031 218.324 257.031H217.307L202.351 221.947V221.937Z" fill="#09101D"/>
<path d="M244.012 257.3V259.934L218.777 257.341L218.407 254.004L244.012 257.3Z" fill="#09101D"/>
<path opacity="0.7" d="M244.012 257.3V259.934L218.777 257.341L218.407 254.004L244.012 257.3Z" fill="white"/>
<path opacity="0.3" d="M312.77 88.9585H294.227C291.914 88.9585 290.043 87.0783 290.043 84.7538V71.9126C290.043 71.9126 305.872 82.0988 312.759 88.9585H312.77Z" fill="#09101D"/>
<path opacity="0.2" d="M120.551 98.5513H146.048C149.228 98.5513 151.801 95.9936 151.801 92.8315V72.4644C151.801 72.4644 130.389 88.1165 121.129 98.5513H120.551Z" fill="#09101D"/>
<path d="M52.434 36.4365H144.265C146.587 36.4365 148.469 38.3283 148.469 40.6618V92.0061C148.469 94.3397 146.587 96.2315 144.265 96.2315H52.434C50.1122 96.2315 48.23 94.3397 48.23 92.0061V40.6618C48.23 38.3283 50.1122 36.4365 52.434 36.4365Z" fill="white"/>
<path d="M133.402 69.6501C132.971 69.2575 121.232 57.6146 121.232 57.6146L109.658 63.3379L98.3517 49.9595L86.7778 66.7161L75.4917 59.3192" stroke="#09101D" stroke-width="0.524934" stroke-miterlimit="10"/>
<path d="M129.768 74.8882H135.195V86.9649H129.768V74.8882Z" fill="#D29D7E"/>
<path d="M118.608 66.9023H124.035V86.9648H118.608V66.9023Z" fill="#D29D7E"/>
<path d="M107.221 68.9272H112.648V86.9752H107.221V68.9272Z" fill="#D29D7E"/>
<path d="M95.6392 57.6147H101.066V86.975H95.6392V57.6147Z" fill="#D29D7E"/>
<path d="M83.9283 73.1836H89.3555V86.9753H83.9283V73.1836Z" fill="#D29D7E"/>
<path d="M129.576 68.2762C129.576 69.8982 130.881 71.2102 132.495 71.2102C134.109 71.2102 135.414 69.8982 135.414 68.2762C135.414 66.6543 134.109 65.3423 132.495 65.3423C130.881 65.3423 129.576 66.6543 129.576 68.2762Z" fill="#D29D7E"/>
<path d="M118.4 57.6146C118.4 59.2366 119.705 60.5486 121.319 60.5486C122.933 60.5486 124.238 59.2366 124.238 57.6146C124.238 55.9927 122.933 54.6807 121.319 54.6807C119.705 54.6807 118.4 55.9927 118.4 57.6146Z" fill="#D29D7E"/>
<path d="M106.748 62.4183C106.748 64.0403 108.053 65.3523 109.667 65.3523C111.281 65.3523 112.586 64.0403 112.586 62.4183C112.586 60.7964 111.281 59.4844 109.667 59.4844C108.053 59.4844 106.748 60.7964 106.748 62.4183Z" fill="#D29D7E"/>
<path d="M95.439 49.9594C95.439 51.5813 96.7444 52.8933 98.3582 52.8933C99.9719 52.8933 101.277 51.5813 101.277 49.9594C101.277 48.3374 99.9719 47.0254 98.3582 47.0254C96.7444 47.0254 95.439 48.3374 95.439 49.9594Z" fill="#D29D7E"/>
<path d="M83.8687 66.7167C83.8687 68.3386 85.1741 69.6506 86.7879 69.6506C88.4016 69.6506 89.707 68.3386 89.707 66.7167C89.707 65.0947 88.4016 63.7827 86.7879 63.7827C85.1741 63.7827 83.8687 65.0947 83.8687 66.7167Z" fill="#D29D7E"/>
<path d="M72.3345 66.2622H77.7617V86.9652H72.3345V66.2622Z" fill="#D29D7E"/>
<path opacity="0.3" d="M118.608 66.9023H124.035V86.9648H118.608V66.9023Z" fill="#09101D"/>
<path opacity="0.3" d="M95.6392 57.6147H101.066V86.975H95.6392V57.6147Z" fill="#09101D"/>
<path opacity="0.3" d="M72.3345 66.2622H77.7617V86.9652H72.3345V66.2622Z" fill="#09101D"/>
<path d="M60.3267 73.1836H65.7539V86.9753H60.3267V73.1836Z" fill="#D29D7E"/>
<path d="M75.5 59.3198L63.0421 66.2622" stroke="#09101D" stroke-width="0.524934" stroke-miterlimit="10"/>
<path d="M71.9312 59.3197C71.9312 60.9416 73.2366 62.2537 74.8504 62.2537C76.4641 62.2537 77.7695 60.9416 77.7695 59.3197C77.7695 57.6978 76.4641 56.3857 74.8504 56.3857C73.2366 56.3857 71.9312 57.6978 71.9312 59.3197Z" fill="#D29D7E"/>
<path d="M60.1343 66.2616C60.1343 67.8835 61.4397 69.1956 63.0535 69.1956C64.6673 69.1956 65.9727 67.8835 65.9727 66.2616C65.9727 64.6397 64.6673 63.3276 63.0535 63.3276C61.4397 63.3276 60.1343 64.6397 60.1343 66.2616Z" fill="#D29D7E"/>
<path d="M299.261 16.4585H369.579C372.383 16.4585 374.656 18.7434 374.656 21.5619V79.363C374.656 82.1816 372.383 84.4664 369.579 84.4664H299.261C296.457 84.4664 294.184 82.1816 294.184 79.363V21.5619C294.184 18.7434 296.457 16.4585 299.261 16.4585Z" fill="white"/>
<path d="M369.897 16.4585H298.85C296.27 16.4585 294.173 18.566 294.173 21.159V28.3183H374.656V21.2417C374.656 18.6073 372.529 16.4585 369.897 16.4585Z" fill="#D29D7E"/>
<path opacity="0.5" d="M298.727 23.2449C298.727 24.6706 299.878 25.8379 301.307 25.8379C302.735 25.8379 303.887 24.6809 303.887 23.2449C303.887 21.8089 302.735 20.6519 301.307 20.6519C299.878 20.6519 298.727 21.8089 298.727 23.2449Z" fill="white"/>
<path opacity="0.5" d="M306.039 23.2449C306.039 24.6706 307.19 25.8379 308.619 25.8379C310.048 25.8379 311.199 24.6809 311.199 23.2449C311.199 21.8089 310.048 20.6519 308.619 20.6519C307.19 20.6519 306.039 21.8089 306.039 23.2449Z" fill="white"/>
<path opacity="0.5" d="M313.363 23.2449C313.363 24.6706 314.515 25.8379 315.943 25.8379C317.372 25.8379 318.523 24.6809 318.523 23.2449C318.523 21.8089 317.372 20.6519 315.943 20.6519C314.515 20.6519 313.363 21.8089 313.363 23.2449Z" fill="white"/>
<path d="M335.691 56.2006L328.712 36.9336C326.112 37.884 323.727 39.3613 321.712 41.2622C319.698 43.1631 318.084 45.4669 316.984 48.0083L335.691 56.2006Z" fill="#EBD5C7"/>
<path d="M335.69 56.2006L329.739 75.8189C331.671 76.4077 333.676 76.7073 335.69 76.7073C346.884 76.7073 356.094 67.4509 356.094 56.2006C356.094 44.9503 346.884 35.6938 335.69 35.6938C333.347 35.6938 331.014 36.0968 328.804 36.9026L335.69 56.2109V56.2006Z" fill="#D29D7E"/>
<path d="M335.691 56.2005L316.943 48.1011C315.843 50.6631 315.288 53.4215 315.288 56.2005C315.288 65.1676 321.147 73.143 329.668 75.7981L335.691 56.2005Z" fill="#D29D7E"/>
<path opacity="0.3" d="M335.691 56.2005L316.943 48.1011C315.843 50.6631 315.288 53.4215 315.288 56.2005C315.288 65.1676 321.147 73.143 329.668 75.7981L335.691 56.2005Z" fill="black"/>
</svg>
