<svg width="305" height="300" viewBox="0 0 305 300" fill="none" xmlns="http://www.w3.org/2000/svg">
<g clip-path="url(#clip0_191_8376)">
<path d="M128.937 103.194C128.625 91.2638 126.914 35.3403 126.889 35.3403C60.3284 37.8052 9.80859 49.817 9.80859 64.2687C9.80859 75.5797 41.3023 116.119 86.1379 107.586V106.147C99.3238 104.721 113.728 103.707 128.944 103.194H128.937Z" fill="#EBD5C7"/>
<path opacity="0.15" d="M86.1391 107.586V106.147C99.0813 104.745 113.204 103.751 128.101 103.225C127.533 84.4317 126.902 64.0117 126.89 64.0117C77.6754 65.8323 37.2371 72.8766 19.5039 82.2671C32.1214 97.0441 56.1445 113.297 86.1391 107.592V107.586Z" fill="#D29D7E"/>
<path d="M109.345 18.8804H70.9428C70.0769 18.8804 69.375 19.5834 69.375 20.4507V68.5352C69.375 69.4025 70.0769 70.1055 70.9428 70.1055H109.345C110.211 70.1055 110.913 69.4025 110.913 68.5352V20.4507C110.913 19.5834 110.211 18.8804 109.345 18.8804Z" fill="#09101D"/>
<path d="M99.1039 32.7374V24.8359C94.744 24.8359 91.2148 28.3706 91.2148 32.7374C91.2148 37.1042 94.744 40.6389 99.1039 40.6389C103.464 40.6389 106.993 37.1042 106.993 32.7374H99.1039Z" fill="white"/>
<path d="M107.333 30.6171C107.333 26.8884 104.317 23.8667 100.594 23.8667V30.6171H107.333Z" fill="#D29D7E"/>
<path d="M87.2469 26.9508H74.5858C74.4109 26.9508 74.2734 26.8132 74.2734 26.638C74.2734 26.4628 74.4109 26.3252 74.5858 26.3252H87.2469C87.4218 26.3252 87.5592 26.4628 87.5592 26.638C87.5592 26.8132 87.4218 26.9508 87.2469 26.9508Z" fill="white"/>
<path d="M101.002 62.5734H90.4334C90.2585 62.5734 90.1211 62.4357 90.1211 62.2606C90.1211 62.0854 90.2585 61.9478 90.4334 61.9478H101.002C101.177 61.9478 101.314 62.0854 101.314 62.2606C101.314 62.4357 101.177 62.5734 101.002 62.5734Z" fill="white"/>
<path d="M85.9415 34.7081H74.5858C74.4109 34.7081 74.2734 34.5705 74.2734 34.3953C74.2734 34.2202 74.4109 34.0825 74.5858 34.0825H85.9415C86.1164 34.0825 86.2538 34.2202 86.2538 34.3953C86.2538 34.5705 86.1164 34.7081 85.9415 34.7081Z" fill="white"/>
<path d="M89.1021 40.9523H74.5858C74.4109 40.9523 74.2734 40.8146 74.2734 40.6395C74.2734 40.4643 74.4109 40.3267 74.5858 40.3267H89.1021C89.277 40.3267 89.4144 40.4643 89.4144 40.6395C89.4144 40.8146 89.277 40.9523 89.1021 40.9523Z" fill="white"/>
<path d="M101.001 47.2521H74.5858C74.4109 47.2521 74.2734 47.1144 74.2734 46.9393C74.2734 46.7641 74.4109 46.6265 74.5858 46.6265H101.001C101.176 46.6265 101.314 46.7641 101.314 46.9393C101.314 47.1144 101.176 47.2521 101.001 47.2521Z" fill="white"/>
<path d="M101.001 54.0646H74.5858C74.4109 54.0646 74.2734 53.9269 74.2734 53.7518C74.2734 53.5766 74.4109 53.439 74.5858 53.439H101.001C101.176 53.439 101.314 53.5766 101.314 53.7518C101.314 53.9269 101.176 54.0646 101.001 54.0646Z" fill="white"/>
<path d="M47.6918 98.3582C47.4482 98.3582 47.1984 98.2644 47.0172 98.0704C46.6612 97.695 46.6737 97.1007 47.0422 96.7441L76.7245 68.2537C76.9805 68.0097 77.3178 67.8909 77.6739 67.9284C78.0237 67.9659 78.336 68.1474 78.5359 68.4351L84.7571 77.4565L107.85 47.7586C108.118 47.4146 108.543 47.2457 108.974 47.3082C109.399 47.3708 109.761 47.6648 109.911 48.0715L113.815 58.4879L135.77 31.4677C136.095 31.0673 136.689 31.0047 137.088 31.3301C137.488 31.6554 137.551 32.2497 137.226 32.6501L114.527 60.59C114.258 60.9215 113.827 61.0842 113.403 61.0154C112.978 60.9466 112.628 60.6525 112.478 60.2521L108.587 49.8607L85.6691 79.3333C85.438 79.6336 85.0632 79.8025 84.6884 79.7963C84.3074 79.7838 83.9514 79.5898 83.739 79.277L77.4428 70.1493L48.3352 98.0892C48.154 98.2644 47.9229 98.3519 47.6856 98.3519L47.6918 98.3582Z" fill="#B1B7BD"/>
<path d="M136.99 39.3819C136.953 39.3819 136.915 39.3819 136.878 39.3756C136.366 39.313 135.997 38.8501 136.06 38.3308L136.878 31.4991L130.263 33.67C129.77 33.8327 129.245 33.5637 129.083 33.0694C128.92 32.5752 129.189 32.0497 129.682 31.887L137.303 29.3846C137.69 29.2532 138.115 29.3345 138.433 29.5973C138.752 29.86 138.914 30.2604 138.864 30.6671L137.921 38.556C137.865 39.0315 137.459 39.3819 136.99 39.3819Z" fill="#B1B7BD"/>
<path d="M80.9362 53.2446H55.6263C54.6742 53.2446 53.9023 54.0177 53.9023 54.9713V77.0992C53.9023 78.0529 54.6742 78.8259 55.6263 78.8259H80.9362C81.8883 78.8259 82.6601 78.0529 82.6601 77.0992V54.9713C82.6601 54.0177 81.8883 53.2446 80.9362 53.2446Z" fill="#B1B7BD"/>
<path d="M80.9337 79.139H55.63C54.5057 79.139 53.5938 78.2256 53.5938 77.0995V54.9716C53.5938 53.8455 54.5057 52.9321 55.63 52.9321H80.9337C82.058 52.9321 82.9699 53.8455 82.9699 54.9716V77.0995C82.9699 78.2256 82.058 79.139 80.9337 79.139ZM55.63 53.5577C54.8492 53.5577 54.2184 54.1896 54.2184 54.9716V77.0995C54.2184 77.8816 54.8492 78.5134 55.63 78.5134H80.9337C81.7144 78.5134 82.3453 77.8816 82.3453 77.0995V54.9716C82.3453 54.1896 81.7144 53.5577 80.9337 53.5577H55.63Z" fill="#B1B7BD"/>
<path d="M60.1697 58.8564H76.6162C77.1409 58.8564 77.5594 59.2819 77.5594 59.8011V70.912C77.5594 71.4375 77.1346 71.8567 76.6162 71.8567H60.1697C59.6451 71.8567 59.2266 71.4313 59.2266 70.912V59.8011C59.2266 59.2756 59.6513 58.8564 60.1697 58.8564Z" fill="white"/>
<path d="M59.2252 72.6324C59.1378 72.6324 59.0441 72.5948 58.9879 72.5198C58.8755 72.3884 58.8942 72.1882 59.0254 72.0818L67.9575 64.5933C68.07 64.4994 68.2386 64.4932 68.351 64.5933L77.5206 71.9943C77.6517 72.1006 77.6767 72.3008 77.5705 72.4322C77.4643 72.5636 77.2645 72.5886 77.1333 72.4822L68.1636 65.2439L59.4251 72.5698C59.3689 72.6199 59.294 72.6449 59.2252 72.6449V72.6324Z" fill="#B1B7BD"/>
<path d="M59.2266 59.1439L66.1162 64.6368C67.3779 65.644 69.1706 65.6378 70.4261 64.6243L77.3282 59.0688" fill="white"/>
<path d="M68.2642 65.7132C67.4397 65.7132 66.6089 65.4379 65.9218 64.8874L59.0322 59.3945C58.8948 59.2882 58.8761 59.088 58.9822 58.9566C59.0884 58.819 59.2883 58.8002 59.4195 58.9065L66.3091 64.3994C67.4647 65.3191 69.0762 65.3191 70.2318 64.3869L77.1339 58.8315C77.2651 58.7251 77.4649 58.7439 77.5711 58.8815C77.6773 59.0192 77.6586 59.2131 77.5212 59.3194L70.619 64.8749C69.9257 65.4317 69.0949 65.7132 68.2579 65.7132H68.2642Z" fill="#B1B7BD"/>
<path d="M294.38 64.2681C294.38 51.8559 257.127 41.2455 204.452 36.9351C204.24 36.9163 204.121 86.5461 204.134 101.511C219.612 102.762 233.766 104.564 246.046 106.791C275.447 99.3774 294.38 73.0392 294.38 64.2681Z" fill="#EBD5C7"/>
<path opacity="0.15" d="M282.995 84.1687C268.116 76.9742 239.746 71.2561 204.448 68.3657C204.323 68.3532 204.236 84.7318 204.18 101.511C219.639 102.762 233.774 104.564 246.042 106.785C261.808 102.806 274.556 93.3965 282.995 84.1624V84.1687Z" fill="#D29D7E"/>
<path d="M246.015 56.8228H223.634C222.768 56.8228 222.066 57.5258 222.066 58.393V80.8087C222.066 81.676 222.768 82.379 223.634 82.379H246.015C246.88 82.379 247.582 81.676 247.582 80.8087V58.393C247.582 57.5258 246.88 56.8228 246.015 56.8228Z" fill="#09101D"/>
<path d="M235.839 76.961C235.683 76.961 235.539 76.8984 235.426 76.792C235.308 76.6794 235.239 76.5168 235.239 76.3541V69.0908H227.975C227.812 69.0908 227.656 69.0219 227.544 68.9093C227.431 68.7905 227.375 68.6403 227.375 68.4777C227.456 66.2129 228.487 64.0608 230.205 62.5781C231.941 61.0767 234.171 60.3885 236.476 60.6387C240.23 61.0516 243.259 64.0859 243.672 67.8458C243.928 70.1543 243.241 72.3815 241.741 74.1207C240.261 75.8411 238.119 76.8734 235.857 76.961C235.851 76.961 235.839 76.961 235.832 76.961H235.839ZM235.551 68.4651H235.864V76.3541C237.925 76.2603 239.905 75.3031 241.273 73.714C242.66 72.1062 243.29 70.0479 243.053 67.9146C242.672 64.4425 239.88 61.646 236.413 61.2581C234.283 61.0204 232.222 61.6585 230.617 63.0473C229.03 64.4174 228.081 66.4069 228.006 68.4964L235.551 68.4589V68.4651Z" fill="white"/>
<path d="M233.724 79.0568C233.724 79.0568 233.706 79.0568 233.699 79.0568C229.171 78.8691 225.473 75.1717 225.286 70.636C225.279 70.4609 225.342 70.2919 225.467 70.1606C225.592 70.0292 225.767 69.9541 225.941 69.9541H233.718C234.08 69.9541 234.368 70.2481 234.368 70.6047V78.3999C234.368 78.575 234.293 78.7502 234.168 78.8753C234.043 78.9942 233.887 79.0568 233.718 79.0568H233.724ZM225.941 70.5797L225.91 70.6047C226.079 74.8214 229.514 78.256 233.724 78.4312L233.749 70.6047L225.941 70.5797Z" fill="#D29D7E"/>
<path d="M245.763 26.0488H281.623C282.572 26.0488 283.347 26.8246 283.347 27.7755V60.395C283.347 61.3459 282.572 62.1217 281.623 62.1217H245.763C244.814 62.1217 244.039 61.3459 244.039 60.395V27.7755C244.039 26.8246 244.814 26.0488 245.763 26.0488Z" fill="#B1B7BD"/>
<path d="M281.623 62.4348H245.763C244.639 62.4348 243.727 61.5214 243.727 60.3953V27.7758C243.727 26.6497 244.639 25.7363 245.763 25.7363H281.623C282.747 25.7363 283.659 26.6497 283.659 27.7758V60.3953C283.659 61.5214 282.747 62.4348 281.623 62.4348ZM245.763 26.3619C244.982 26.3619 244.351 26.9938 244.351 27.7758V60.3953C244.351 61.1773 244.982 61.8092 245.763 61.8092H281.623C282.403 61.8092 283.034 61.1773 283.034 60.3953V27.7758C283.034 26.9938 282.403 26.3619 281.623 26.3619H245.763Z" fill="#B1B7BD"/>
<path d="M263.699 55.6034C270.05 55.6034 275.198 50.4468 275.198 44.0859C275.198 37.7249 270.05 32.5684 263.699 32.5684C257.348 32.5684 252.199 37.7249 252.199 44.0859C252.199 50.4468 257.348 55.6034 263.699 55.6034Z" fill="white"/>
<path d="M267.649 44.3989H263.383V37.6673C263.383 37.4921 263.52 37.3545 263.695 37.3545C263.87 37.3545 264.007 37.4921 264.007 37.6673V43.7733H267.649C267.824 43.7733 267.961 43.9109 267.961 44.0861C267.961 44.2613 267.824 44.3989 267.649 44.3989Z" fill="#B1B7BD"/>
<path d="M208.773 75.7356C213.213 75.7356 216.812 72.1308 216.812 67.684C216.812 63.2372 213.213 59.6323 208.773 59.6323C204.334 59.6323 200.734 63.2372 200.734 67.684C200.734 72.1308 204.334 75.7356 208.773 75.7356Z" fill="#D29D7E"/>
<path d="M208.607 69.9612C208.414 69.9612 208.22 69.8862 208.07 69.736L205.203 66.8645C205.078 66.7393 205.078 66.5454 205.203 66.4203C205.328 66.2951 205.522 66.2951 205.647 66.4203L208.514 69.2918C208.57 69.3481 208.651 69.3481 208.707 69.2918L216.221 61.7657C216.346 61.6406 216.54 61.6406 216.665 61.7657C216.79 61.8908 216.79 62.0848 216.665 62.2099L209.151 69.736C209.001 69.8862 208.807 69.9612 208.614 69.9612H208.607Z" fill="#09101D"/>
<path d="M210.984 24.0034C209.772 24.0034 208.785 24.9919 208.785 26.2056V41.3016C208.785 42.5153 209.772 43.5038 210.984 43.5038H215.006C216.743 43.5038 218.148 44.9176 218.148 46.6506V50.2354C218.148 50.8985 218.654 51.1613 218.81 51.2238C218.967 51.2864 219.51 51.4616 219.978 50.9923L226.537 44.4234C227.124 43.8353 227.93 43.5038 228.761 43.5038H236.831C238.043 43.5038 239.036 42.5153 239.036 41.3016V26.2056C239.036 24.9919 238.049 24.0034 236.831 24.0034H210.984Z" fill="#D29D7E"/>
<path d="M217.16 36.4965C215.992 36.4965 215.043 35.5456 215.043 34.3757C215.043 33.2058 215.992 32.2549 217.16 32.2549C218.328 32.2549 219.278 33.2058 219.278 34.3757C219.278 35.5456 218.328 36.4965 217.16 36.4965ZM217.16 32.8805C216.336 32.8805 215.668 33.5499 215.668 34.3757C215.668 35.2015 216.336 35.8709 217.16 35.8709C217.985 35.8709 218.653 35.2015 218.653 34.3757C218.653 33.5499 217.985 32.8805 217.16 32.8805Z" fill="#09101D"/>
<path d="M223.875 36.4965C222.707 36.4965 221.758 35.5456 221.758 34.3757C221.758 33.2058 222.707 32.2549 223.875 32.2549C225.043 32.2549 225.993 33.2058 225.993 34.3757C225.993 35.5456 225.043 36.4965 223.875 36.4965ZM223.875 32.8805C223.051 32.8805 222.382 33.5499 222.382 34.3757C222.382 35.2015 223.051 35.8709 223.875 35.8709C224.7 35.8709 225.368 35.2015 225.368 34.3757C225.368 33.5499 224.7 32.8805 223.875 32.8805Z" fill="#09101D"/>
<path d="M230.508 36.4965C229.34 36.4965 228.391 35.5456 228.391 34.3757C228.391 33.2058 229.34 32.2549 230.508 32.2549C231.676 32.2549 232.626 33.2058 232.626 34.3757C232.626 35.5456 231.676 36.4965 230.508 36.4965ZM230.508 32.8805C229.684 32.8805 229.015 33.5499 229.015 34.3757C229.015 35.2015 229.684 35.8709 230.508 35.8709C231.333 35.8709 232.001 35.2015 232.001 34.3757C232.001 33.5499 231.333 32.8805 230.508 32.8805Z" fill="#09101D"/>
<path d="M37.5203 38.3989C36.8145 38.3989 36.2461 38.9745 36.2461 39.6752V48.4275C36.2461 49.1344 36.8208 49.7037 37.5203 49.7037H42.1988C42.6797 49.7037 43.1482 49.8977 43.4855 50.2418L47.2895 54.0518C47.5643 54.327 47.8766 54.2207 47.9641 54.1894C48.0515 54.1519 48.3451 54.0017 48.3451 53.6138V51.5368C48.3451 50.5296 49.1634 49.71 50.169 49.71H52.5051C53.211 49.71 53.7794 49.1344 53.7794 48.4337V39.6814C53.7794 38.9745 53.2047 38.4052 52.5051 38.4052H37.5141L37.5203 38.3989Z" fill="#D29D7E"/>
<path d="M48.9179 45.7752C48.1684 45.7752 47.5625 45.1621 47.5625 44.4176C47.5625 43.6732 48.1746 43.0601 48.9179 43.0601C49.6612 43.0601 50.2734 43.6732 50.2734 44.4176C50.2734 45.1621 49.6612 45.7752 48.9179 45.7752ZM48.9179 43.6794C48.5119 43.6794 48.1871 44.011 48.1871 44.4114C48.1871 44.8118 48.5182 45.1433 48.9179 45.1433C49.3177 45.1433 49.6488 44.8118 49.6488 44.4114C49.6488 44.011 49.3177 43.6794 48.9179 43.6794Z" fill="#09101D"/>
<path d="M45.0273 45.7752C44.2778 45.7752 43.6719 45.1621 43.6719 44.4176C43.6719 43.6732 44.284 43.0601 45.0273 43.0601C45.7706 43.0601 46.3828 43.6732 46.3828 44.4176C46.3828 45.1621 45.7706 45.7752 45.0273 45.7752ZM45.0273 43.6794C44.6213 43.6794 44.2965 44.011 44.2965 44.4114C44.2965 44.8118 44.6276 45.1433 45.0273 45.1433C45.4271 45.1433 45.7581 44.8118 45.7581 44.4114C45.7581 44.011 45.4271 43.6794 45.0273 43.6794Z" fill="#09101D"/>
<path d="M41.1758 45.7752C40.4262 45.7752 39.8203 45.1621 39.8203 44.4176C39.8203 43.6732 40.4324 43.0601 41.1758 43.0601C41.9191 43.0601 42.5312 43.6732 42.5312 44.4176C42.5312 45.1621 41.9191 45.7752 41.1758 45.7752ZM41.1758 43.6794C40.7697 43.6794 40.4449 44.011 40.4449 44.4114C40.4449 44.8118 40.776 45.1433 41.1758 45.1433C41.5755 45.1433 41.9066 44.8118 41.9066 44.4114C41.9066 44.011 41.5755 43.6794 41.1758 43.6794Z" fill="#09101D"/>
<path d="M131.596 6.01148C131.596 6.97492 130.815 7.7632 129.847 7.7632C128.878 7.7632 128.098 6.98118 128.098 6.01148C128.098 5.04178 128.878 4.25977 129.847 4.25977C130.815 4.25977 131.596 5.04178 131.596 6.01148Z" fill="#D29D7E"/>
<path d="M9.45989 175.453C10.4258 175.453 11.2088 174.668 11.2088 173.701C11.2088 172.733 10.4258 171.949 9.45989 171.949C8.49397 171.949 7.71094 172.733 7.71094 173.701C7.71094 174.668 8.49397 175.453 9.45989 175.453Z" fill="#D29D7E"/>
<path d="M255.267 179.369C255.267 180.332 254.487 181.121 253.518 181.121C252.55 181.121 251.77 180.339 251.77 179.369C251.77 178.399 252.55 177.617 253.518 177.617C254.487 177.617 255.267 178.399 255.267 179.369Z" fill="#D29D7E"/>
<path d="M296.123 9.50806C296.123 10.4715 295.342 11.2598 294.374 11.2598C293.406 11.2598 292.625 10.4778 292.625 9.50806C292.625 8.53836 293.406 7.75635 294.374 7.75635C295.342 7.75635 296.123 8.53836 296.123 9.50806Z" fill="#D29D7E"/>
<path d="M304.038 52.1996C304.038 52.6813 303.644 53.0754 303.164 53.0754C302.683 53.0754 302.289 52.6813 302.289 52.1996C302.289 51.7179 302.683 51.3237 303.164 51.3237C303.644 51.3237 304.038 51.7179 304.038 52.1996Z" fill="#B1B7BD"/>
<path d="M303.163 53.3827C302.507 53.3827 301.977 52.8509 301.977 52.194C301.977 51.5371 302.507 51.0054 303.163 51.0054C303.819 51.0054 304.35 51.5371 304.35 52.194C304.35 52.8509 303.819 53.3827 303.163 53.3827ZM303.163 51.631C302.851 51.631 302.601 51.8812 302.601 52.194C302.601 52.5068 302.851 52.7571 303.163 52.7571C303.476 52.7571 303.726 52.5068 303.726 52.194C303.726 51.8812 303.476 51.631 303.163 51.631Z" fill="#B1B7BD"/>
<path d="M61.3075 180.244C61.3075 180.726 60.914 181.12 60.4331 181.12C59.9521 181.12 59.5586 180.726 59.5586 180.244C59.5586 179.762 59.9521 179.368 60.4331 179.368C60.914 179.368 61.3075 179.762 61.3075 180.244Z" fill="#B1B7BD"/>
<path d="M60.4368 181.433C59.7809 181.433 59.25 180.901 59.25 180.244C59.25 179.587 59.7809 179.056 60.4368 179.056C61.0926 179.056 61.6236 179.587 61.6236 180.244C61.6236 180.901 61.0926 181.433 60.4368 181.433ZM60.4368 179.681C60.1245 179.681 59.8746 179.932 59.8746 180.244C59.8746 180.557 60.1245 180.807 60.4368 180.807C60.7491 180.807 60.999 180.557 60.999 180.244C60.999 179.932 60.7491 179.681 60.4368 179.681Z" fill="#B1B7BD"/>
<path d="M3.36314 29.1647C4.21522 29.1647 4.90597 28.4729 4.90597 27.6195C4.90597 26.7661 4.21522 26.0742 3.36314 26.0742C2.51106 26.0742 1.82031 26.7661 1.82031 27.6195C1.82031 28.4729 2.51106 29.1647 3.36314 29.1647Z" fill="#B1B7BD"/>
<path d="M3.36295 29.4779C2.33857 29.4779 1.50781 28.6458 1.50781 27.6198C1.50781 26.5938 2.33857 25.7617 3.36295 25.7617C4.38734 25.7617 5.21809 26.5938 5.21809 27.6198C5.21809 28.6458 4.38734 29.4779 3.36295 29.4779ZM3.36295 26.3873C2.68211 26.3873 2.13244 26.9379 2.13244 27.6198C2.13244 28.3017 2.68211 28.8522 3.36295 28.8522C4.0438 28.8522 4.59347 28.3017 4.59347 27.6198C4.59347 26.9379 4.0438 26.3873 3.36295 26.3873Z" fill="#B1B7BD"/>
<path d="M78.4903 0.311523C78.8213 0.311523 79.0899 0.580537 79.0899 0.912112C79.0899 1.24369 78.8213 1.5127 78.4903 1.5127C78.1592 1.5127 77.8906 1.24369 77.8906 0.912112C77.8906 0.580537 78.1592 0.311523 78.4903 0.311523Z" fill="#B1B7BD"/>
<path d="M78.4901 1.82581C77.9904 1.82581 77.5781 1.41916 77.5781 0.912418C77.5781 0.405672 77.9841 -0.000976562 78.4901 -0.000976562C78.996 -0.000976562 79.402 0.405672 79.402 0.912418C79.402 1.41916 78.996 1.82581 78.4901 1.82581ZM78.4901 0.624636C78.3339 0.624636 78.2028 0.756015 78.2028 0.912418C78.2028 1.06882 78.3339 1.2002 78.4901 1.2002C78.6462 1.2002 78.7774 1.06882 78.7774 0.912418C78.7774 0.756015 78.6462 0.624636 78.4901 0.624636Z" fill="#B1B7BD"/>
<path d="M54.6552 23.1342C54.6552 23.6159 54.2617 24.01 53.7807 24.01C53.2998 24.01 52.9062 23.6159 52.9062 23.1342C52.9062 22.6524 53.2998 22.2583 53.7807 22.2583C54.2617 22.2583 54.6552 22.6524 54.6552 23.1342Z" fill="#09101D"/>
<path d="M2.69427 102.049C2.69427 102.531 2.30075 102.925 1.81979 102.925C1.33883 102.925 0.945312 102.531 0.945312 102.049C0.945312 101.567 1.33883 101.173 1.81979 101.173C2.30075 101.173 2.69427 101.567 2.69427 102.049Z" fill="#09101D"/>
<path d="M229.577 1.8573C229.577 2.33902 229.184 2.73316 228.703 2.73316C228.222 2.73316 227.828 2.33902 227.828 1.8573C227.828 1.37558 228.222 0.981445 228.703 0.981445C229.184 0.981445 229.577 1.37558 229.577 1.8573Z" fill="#09101D"/>
<path d="M304.913 159.368C304.913 159.849 304.519 160.243 304.039 160.243C303.558 160.243 303.164 159.849 303.164 159.368C303.164 158.886 303.558 158.492 304.039 158.492C304.519 158.492 304.913 158.886 304.913 159.368Z" fill="#09101D"/>
<path d="M223.502 290.854C224.439 276.708 219.823 262.701 210.354 250.933L205.251 244.589L200.379 238.534L196.881 234.186L162.239 236.256L127.597 234.186L124.099 238.534L119.227 244.589L114.124 250.933C107.216 259.517 102.893 269.295 101.419 279.449C101.35 279.912 100.563 288.676 99.4766 299.387H223.265L223.509 290.86L223.502 290.854Z" fill="#09101D"/>
<path d="M116.353 300C116.353 300 116.309 300 116.29 300C115.947 299.963 115.697 299.656 115.734 299.312C116.44 292.393 117.015 286.33 117.352 282.702C117.564 280.443 117.652 279.517 117.677 279.349C119.163 269.082 123.604 259.116 130.513 250.533C130.731 250.264 131.125 250.22 131.394 250.439C131.662 250.658 131.706 251.052 131.487 251.321C124.716 259.729 120.369 269.489 118.914 279.53C118.895 279.68 118.77 280.994 118.595 282.821C118.251 286.449 117.677 292.518 116.971 299.437C116.94 299.756 116.665 300 116.353 300Z" fill="white"/>
<path d="M206.528 105.284C205.648 99.1596 202.537 93.8294 197.996 89.7379C196.947 88.6431 195.953 87.6546 195.042 86.785C191.862 83.7571 187.515 80.7228 187.29 76.575C186.528 62.2798 164.266 51.3628 157.083 57.5939C156.889 57.7629 150.768 54.566 142.267 56.3677C140.599 50.5683 135.271 46.3267 128.944 46.3267C121.286 46.3267 115.077 52.5452 115.077 60.2153C115.077 65.5267 118.056 70.1437 122.435 72.4773C122.235 73.0841 122.029 73.7035 121.804 74.3228C119.081 81.7926 114.608 87.1979 108.012 92.916L107.119 93.6918C94.9514 104.246 95.932 121.938 105.258 129.658L107.95 131.904C108.368 132.255 108.793 132.586 109.23 132.899C110.829 134.05 111.66 135.764 111.435 137.591C111.017 140.976 111.279 144.473 112.397 147.982C116.57 161.02 131.411 169.547 147.451 168.015C158.576 166.951 167.97 161.546 173.623 154.101C180.375 145.205 188.595 137.159 197.097 129.395C204.042 123.046 207.821 114.306 206.522 105.291L206.528 105.284Z" fill="#09101D"/>
<path d="M187.824 111.059L185.575 86.2164L174.569 86.0162L174.126 77.877L170.784 85.6033L161.09 84.4834L158.86 80.6359C158.316 79.6975 157.361 79.2971 156.449 79.3722C155.687 88.2997 151.464 96.1136 147.16 96.808L141.351 95.5443V95.4316L139.528 95.4754C134.724 95.5818 130.876 99.6107 130.983 104.422V104.622C131.095 109.433 135.118 113.287 139.921 113.18L143.488 113.099L142.207 145.193C142.157 153.851 149.903 158.825 157.941 158.869H158.273C166.305 158.913 172.92 151.868 172.964 143.21L173.026 131.917C182.277 129.621 188.723 120.85 187.83 111.053L187.824 111.059Z" fill="#FFA485"/>
<path d="M138.773 107.35C138.567 107.35 138.36 107.25 138.242 107.062C138.054 106.768 138.142 106.386 138.435 106.199L140.697 104.76L138.173 101.876C137.948 101.613 137.973 101.219 138.229 100.994C138.485 100.768 138.885 100.793 139.11 101.05L142.114 104.485C142.233 104.622 142.289 104.804 142.264 104.985C142.239 105.166 142.133 105.329 141.983 105.423L139.11 107.25C139.004 107.319 138.891 107.35 138.773 107.35Z" fill="#E06A4B"/>
<path d="M173.008 132.155C173.008 132.155 155.862 132.862 153.026 126.737C153.026 126.737 152.195 136.059 172.833 141.039L173.008 132.161V132.155Z" fill="#E06A4B"/>
<path d="M138.382 117.466C138.27 117.466 138.157 117.466 138.045 117.453C136.839 117.366 135.74 116.809 134.947 115.895C134.154 114.976 133.772 113.806 133.86 112.598C134.041 110.102 136.215 108.232 138.713 108.407C141.206 108.588 143.079 110.772 142.898 113.262C142.723 115.645 140.731 117.466 138.382 117.466ZM138.382 110.897C137.327 110.897 136.433 111.71 136.358 112.78C136.321 113.324 136.49 113.843 136.846 114.256C137.202 114.669 137.695 114.913 138.232 114.957C139.35 115.038 140.325 114.2 140.406 113.08C140.487 111.96 139.644 110.984 138.526 110.903C138.476 110.903 138.426 110.903 138.376 110.903L138.382 110.897Z" fill="white"/>
<path d="M184.792 98.2843C184.767 99.2227 183.993 99.9609 183.056 99.9359C182.119 99.9108 181.382 99.1351 181.407 98.1967C181.432 97.2582 182.206 96.52 183.143 96.5451C184.08 96.5701 184.817 97.3458 184.792 98.2843Z" fill="#09101D"/>
<path d="M166.886 98.2843C166.861 99.2227 166.087 99.9609 165.15 99.9359C164.213 99.9108 163.476 99.1351 163.501 98.1967C163.526 97.2582 164.3 96.52 165.237 96.5451C166.174 96.5701 166.911 97.3458 166.886 98.2843Z" fill="#09101D"/>
<path d="M163.315 107.25C158.874 107.25 155.238 103.071 155.207 97.9031C155.188 94.8376 159.242 93.4362 163.271 93.4112C167.3 93.3799 171.372 94.7312 171.397 97.803C171.429 102.983 167.825 107.225 163.358 107.25H163.315ZM163.383 95.288C163.346 95.288 163.315 95.288 163.284 95.288C159.798 95.313 157.068 96.4517 157.081 97.8906C157.106 102.026 159.904 105.373 163.315 105.373H163.346C166.775 105.354 169.549 101.957 169.517 97.8155C169.511 96.3891 166.819 95.288 163.383 95.288Z" fill="white"/>
<path d="M183.022 106.868C180.848 106.868 178.806 105.886 177.275 104.097C175.77 102.339 174.933 100.005 174.914 97.5215C174.895 94.456 178.949 93.0547 182.984 93.0296C184.977 93.0171 186.869 93.3425 188.287 93.9493C190.099 94.7251 191.098 95.9575 191.111 97.4214C191.123 99.9051 190.317 102.245 188.831 104.022C187.307 105.842 185.264 106.856 183.072 106.868H183.028H183.022ZM183.097 94.9065C183.066 94.9065 183.028 94.9065 182.997 94.9065C179.511 94.9315 176.782 96.0701 176.794 97.509C176.807 99.5485 177.488 101.45 178.699 102.871C179.88 104.247 181.429 104.998 183.059 104.991C184.69 104.979 186.232 104.209 187.394 102.82C188.593 101.388 189.249 99.4735 189.237 97.434C189.231 96.0076 186.538 94.9065 183.103 94.9065H183.097Z" fill="white"/>
<path d="M172.821 95.3008L172.933 100.925C172.946 101.619 173.52 102.17 174.214 102.157L175.463 102.132C176.406 102.114 177.187 102.864 177.206 103.809C177.249 106.149 175.394 108.082 173.058 108.132L171.109 108.17" fill="#FFA485"/>
<path d="M171.093 108.795C170.756 108.795 170.475 108.526 170.469 108.182C170.463 107.838 170.737 107.55 171.081 107.544L173.03 107.506C173.992 107.487 174.891 107.093 175.56 106.399C176.228 105.704 176.584 104.791 176.565 103.821C176.565 103.534 176.44 103.258 176.234 103.058C176.028 102.858 175.753 102.752 175.46 102.758L174.21 102.783C173.692 102.783 173.236 102.608 172.874 102.257C172.511 101.907 172.305 101.438 172.299 100.937L172.187 95.3193C172.18 94.9752 172.455 94.6874 172.799 94.6812H172.811C173.149 94.6812 173.43 94.9502 173.436 95.2943L173.548 100.919C173.548 101.087 173.617 101.244 173.742 101.363C173.861 101.482 174.017 101.544 174.192 101.538L175.441 101.513C176.059 101.5 176.653 101.732 177.102 102.163C177.552 102.595 177.808 103.177 177.821 103.803C177.846 105.104 177.365 106.33 176.465 107.268C175.566 108.207 174.36 108.732 173.061 108.764L171.112 108.801H171.1L171.093 108.795Z" fill="#E06A4B"/>
<path d="M156.062 99.561C155.974 99.561 155.88 99.5485 155.787 99.5172L142.657 95.5195C142.164 95.3694 141.883 94.8438 142.033 94.3496C142.182 93.8554 142.707 93.5739 143.201 93.724L156.33 97.7217C156.824 97.8718 157.105 98.3973 156.955 98.8916C156.83 99.2982 156.461 99.5547 156.062 99.5547V99.561Z" fill="white"/>
<path d="M170.363 100.13C170.07 100.13 169.782 99.9924 169.595 99.7359C169.295 99.3168 169.395 98.7287 169.814 98.4347C171.038 97.5588 174.011 96.4327 176.503 98.4347C176.909 98.76 176.972 99.3481 176.653 99.7547C176.329 100.161 175.741 100.224 175.335 99.9049C173.33 98.3033 171 99.9049 170.901 99.9737C170.738 100.086 170.551 100.143 170.363 100.143V100.13Z" fill="white"/>
<path d="M174.318 123.403C174.243 123.422 174.162 123.422 174.081 123.391C174 123.359 172.12 122.571 170.764 124.066C170.633 124.21 170.408 124.223 170.264 124.091C170.121 123.96 170.108 123.735 170.239 123.591C171.945 121.72 174.331 122.734 174.356 122.746C174.531 122.821 174.612 123.034 174.537 123.209C174.493 123.309 174.406 123.378 174.312 123.409L174.318 123.403Z" fill="#E06A4B"/>
<path d="M159.119 91.6844C159.788 91.8221 160.568 91.5781 161.337 91.3841C162.105 91.1714 162.886 90.9837 163.567 90.8398C164.247 90.696 165.041 90.5583 165.828 90.4395C166.609 90.3081 167.427 90.2142 167.976 89.8201C168.507 89.451 168.601 88.6877 167.72 87.962C166.89 87.2488 164.991 86.6795 162.736 87.1487C160.481 87.6305 159.001 88.9067 158.551 89.8889C158.07 90.9024 158.476 91.5593 159.119 91.6844Z" fill="#09101D"/>
<path d="M187.15 91.3961C186.626 91.5212 186.007 91.3586 185.395 91.2272C184.783 91.0833 184.165 90.9582 183.628 90.8706C183.084 90.7767 182.46 90.6954 181.835 90.6266C181.217 90.5453 180.573 90.5015 180.13 90.2074C179.699 89.9322 179.605 89.3378 180.273 88.7372C180.904 88.1492 182.378 87.6487 184.171 87.9427C185.957 88.2493 187.163 89.2064 187.544 89.9697C187.956 90.7517 187.656 91.2835 187.15 91.3961Z" fill="#09101D"/>
<path d="M170.922 115.245C170.922 115.245 170.897 115.245 170.884 115.245L166.012 114.944C164.144 114.832 162.689 113.268 162.695 111.391V110.728C162.695 110.384 162.976 110.102 163.32 110.102C163.664 110.102 163.945 110.384 163.945 110.728V111.397C163.932 112.611 164.875 113.618 166.087 113.693L170.959 113.993C171.303 114.012 171.565 114.312 171.546 114.657C171.528 114.988 171.253 115.245 170.922 115.245Z" fill="#E06A4B"/>
<path d="M142.725 172.275L177.848 172.075L178.067 171.531L188.767 144.598C188.817 144.479 188.935 144.404 189.06 144.398L131.645 144.385L142.426 171.531L142.725 172.281V172.275Z" fill="#FFA485"/>
<path opacity="0.46" d="M186.665 147.601L174.897 153.363C171.268 155.14 168.213 157.918 166.083 161.359L161.867 168.196L163.26 169.498L167.439 162.716C169.563 159.269 172.617 156.498 176.252 154.721L186.777 149.566L187.733 147.151C187.371 147.276 187.008 147.42 186.659 147.595L186.665 147.601Z" fill="#E06A4B"/>
<path d="M158.323 211.538C158.673 212.42 159.448 212.871 160.247 212.921C161.041 212.871 161.815 212.42 162.171 211.538L177.849 172.068L142.727 172.269L158.323 211.532V211.538Z" fill="#D29D7E"/>
<path d="M242.165 192.026L213.663 158.706C205.449 149.34 201.527 144.68 189.284 144.392C189.272 144.392 189.265 144.392 189.253 144.392C189.19 144.392 189.134 144.392 189.072 144.392C189.065 144.392 189.059 144.392 189.053 144.392C188.922 144.392 188.803 144.473 188.759 144.592L178.059 171.525L177.841 172.069L162.163 211.539C161.813 212.421 161.038 212.871 160.239 212.922C159.446 212.871 158.671 212.421 158.315 211.539L142.718 172.275L142.418 171.525L131.637 144.379C131.537 144.379 131.437 144.379 131.331 144.379C131.306 144.379 131.281 144.379 131.256 144.379C120.157 144.573 107.383 149.159 97.6513 156.566C88.0133 163.905 83.3037 175.86 84.7715 187.672C85.0714 190.105 85.7022 192.483 86.5142 194.798L87.1389 196.574C89.2314 202.53 91.5862 208.398 94.1847 214.154C95.1278 216.243 95.8774 217.883 95.8899 217.895L102.817 219.159C102.948 219.303 103.179 219.296 103.304 219.146L121.668 242.438C121.668 242.576 121.756 242.694 121.881 242.744L136.259 248.05C144.017 250.734 152.125 252.041 160.239 251.972C168.347 252.041 176.46 250.734 184.218 248.05L202.07 241.08C202.22 241.018 202.307 240.855 202.27 240.699C202.27 240.699 217.53 219.303 217.667 219.159L242.152 192.464C242.265 192.339 242.265 192.157 242.159 192.026H242.165Z" fill="#B1B7BD"/>
<path d="M159.635 252.291C151.615 252.291 143.726 250.965 136.168 248.35L121.783 243.045C121.57 242.97 121.42 242.782 121.377 242.569L103.237 219.559C103.187 219.572 103.137 219.578 103.081 219.584C102.944 219.584 102.8 219.54 102.688 219.459L95.848 218.214C95.7856 218.202 95.7231 218.17 95.6794 218.12C95.6461 218.083 95.0589 216.807 93.918 214.292C91.3195 208.548 88.9459 202.63 86.8597 196.687L86.235 194.91C85.3356 192.345 84.7609 189.993 84.4798 187.722C82.9745 175.61 87.959 163.579 97.4846 156.329C107.154 148.965 120.102 144.273 131.271 144.079L131.346 144.392V144.079H131.645C131.802 144.092 131.895 144.154 131.945 144.279L158.623 211.439C158.898 212.133 159.516 212.577 160.272 212.627C160.99 212.577 161.609 212.133 161.884 211.439L188.48 144.492C188.568 144.273 188.774 144.117 189.017 144.098C189.049 144.092 189.086 144.085 189.117 144.092H189.28C201.529 144.386 205.564 148.984 213.596 158.155L213.915 158.518L242.417 191.845C242.629 192.089 242.623 192.458 242.404 192.695L217.919 219.39C217.688 219.684 207.85 233.473 202.615 240.811C202.615 241.068 202.453 241.306 202.209 241.399L184.358 248.369C176.6 251.059 168.486 252.391 160.26 252.316C160.053 252.316 159.854 252.316 159.654 252.316L159.635 252.291ZM160.241 251.666C168.405 251.741 176.437 250.421 184.12 247.756L201.96 240.793C201.941 240.705 201.96 240.592 202.016 240.517C205.601 235.494 217.3 219.09 217.432 218.946L241.923 192.251L242.161 192.026L241.923 192.232L213.109 158.55C205.195 149.522 201.223 144.986 189.28 144.705H189.105C189.105 144.705 189.086 144.705 189.08 144.705L178.13 172.188L162.452 211.658C162.083 212.584 161.265 213.172 160.26 213.234C159.216 213.172 158.398 212.577 158.03 211.658L131.427 144.698H131.339H131.264C120.221 144.892 107.416 149.534 97.8406 156.823C88.4899 163.936 83.6054 175.748 85.0795 187.64C85.3543 189.868 85.9227 192.176 86.8035 194.704L87.4281 196.48C89.5081 202.399 91.8754 208.304 94.4676 214.035C95.567 216.462 95.9667 217.332 96.0979 217.626L102.863 218.859C102.931 218.871 102.988 218.902 103.037 218.952C103.1 218.884 103.206 218.84 103.294 218.84C103.387 218.84 103.487 218.884 103.543 218.959L121.907 242.25C121.951 242.307 121.976 242.375 121.976 242.444L136.368 247.762C144.044 250.421 152.052 251.741 160.235 251.666H160.241Z" fill="#B1B7BD"/>
<path d="M196.347 185.201H157.589C155.177 185.201 153.223 187.159 153.223 189.574V241.638C153.223 244.053 155.177 246.011 157.589 246.011H196.347C198.758 246.011 200.713 244.053 200.713 241.638V189.574C200.713 187.159 198.758 185.201 196.347 185.201Z" fill="#09101D"/>
<path d="M184.128 180.478H169.824C168.782 180.478 167.938 181.324 167.938 182.367V183.956C167.938 185 168.782 185.846 169.824 185.846H184.128C185.17 185.846 186.014 185 186.014 183.956V182.367C186.014 181.324 185.17 180.478 184.128 180.478Z" fill="white"/>
<path d="M184.125 186.159H169.828C168.616 186.159 167.629 185.17 167.629 183.956V182.374C167.629 181.16 168.616 180.171 169.828 180.171H184.125C185.337 180.171 186.324 181.16 186.324 182.374V183.956C186.324 185.17 185.337 186.159 184.125 186.159ZM169.828 180.791C168.959 180.791 168.254 181.498 168.254 182.367V183.95C168.254 184.82 168.959 185.527 169.828 185.527H184.125C184.994 185.527 185.699 184.82 185.699 183.95V182.367C185.699 181.498 184.994 180.791 184.125 180.791H169.828Z" fill="#09101D"/>
<path d="M188.567 185.283H165.381C165.05 185.283 164.781 185.552 164.781 185.883V187.197C164.781 187.529 165.05 187.798 165.381 187.798H188.567C188.898 187.798 189.167 187.529 189.167 187.197V185.883C189.167 185.552 188.898 185.283 188.567 185.283Z" fill="white"/>
<path d="M188.567 188.117H165.381C164.875 188.117 164.469 187.704 164.469 187.203V185.889C164.469 185.383 164.881 184.976 165.381 184.976H188.567C189.073 184.976 189.479 185.389 189.479 185.889V187.203C189.479 187.71 189.067 188.117 188.567 188.117ZM165.381 185.602C165.225 185.602 165.093 185.733 165.093 185.889V187.203C165.093 187.36 165.225 187.491 165.381 187.491H188.567C188.723 187.491 188.854 187.36 188.854 187.203V185.889C188.854 185.733 188.723 185.602 188.567 185.602H165.381Z" fill="#09101D"/>
<path d="M163.851 222.763C164.451 225.153 166.637 225.04 168.773 224.496C167.499 225.034 166.556 225.885 167.018 227.467C167.518 230.389 170.291 230.508 172.615 229.857C170.616 231.127 173.158 234.199 176.262 234.155C180.616 234.312 184.926 234.455 189.28 234.699C192.353 234.875 195.257 234.724 197.974 233.229L201.285 233.367L200.585 210.413L195.145 211.42C194.508 210.982 193.852 210.563 193.19 210.188C193.19 210.188 181.684 205.02 177.493 204.026C177.043 203.919 176.581 203.819 176.125 203.869C175.663 203.919 175.201 204.145 174.976 204.545C174.676 205.07 174.845 205.727 175.082 206.284C175.819 207.998 176.475 209.487 177.137 210.795C175.513 210.876 175.063 210.895 173.164 210.957C169.16 211.377 162.477 211.258 163.333 216.469C163.782 218.252 165.238 218.534 166.743 218.333C164.688 219.028 162.839 220.26 163.864 222.763H163.851ZM167.08 225.153C167.424 225.052 167.742 224.965 168.024 224.909C167.749 224.99 167.424 225.071 167.08 225.153Z" fill="#FFA485"/>
<path opacity="0.36" d="M177.13 210.801L187.567 211.045C187.567 211.045 177.573 208.129 175.918 208.23L177.13 210.807V210.801Z" fill="#E06A4B"/>
<path d="M200.836 237.478L206.133 237.489C206.985 237.491 207.677 236.801 207.679 235.947L207.736 208.464C207.738 207.611 207.049 206.918 206.197 206.916L200.9 206.905C200.048 206.903 199.356 207.593 199.354 208.447L199.297 235.93C199.295 236.783 199.984 237.477 200.836 237.478Z" fill="#F4F6F9"/>
<path d="M204.26 206.928V237.865C204.26 239.447 205.684 240.642 207.24 240.367L231.95 235.994C250.951 232.234 258.297 208.93 244.898 194.923L242.512 192.433L206.865 203.393C205.316 203.869 204.254 205.301 204.254 206.928H204.26Z" fill="#B1B7BD"/>
<path d="M210.736 233.266C211.148 234.098 210.805 235.105 209.974 235.518C209.143 235.931 208.138 235.587 207.725 234.755C207.313 233.923 207.657 232.916 208.487 232.503C209.318 232.09 210.324 232.434 210.736 233.266Z" fill="#F4F6F9"/>
<path d="M206.805 240.717C206.143 240.717 205.494 240.486 204.975 240.048C204.326 239.504 203.957 238.709 203.957 237.858V206.922C203.957 205.151 205.094 203.606 206.787 203.087L242.434 192.126C242.546 192.088 242.671 192.126 242.753 192.207L245.139 194.697C251.51 201.36 253.659 210.588 250.885 219.384C248.112 228.18 241.06 234.499 232.022 236.288L207.305 240.661C207.136 240.692 206.974 240.705 206.805 240.705V240.717ZM242.428 192.789L206.968 203.694C205.537 204.131 204.582 205.433 204.582 206.928V237.864C204.582 238.528 204.869 239.147 205.375 239.572C205.881 239.998 206.543 240.179 207.193 240.06L231.903 235.687C240.704 233.948 247.581 227.786 250.286 219.209C252.99 210.632 250.891 201.635 244.683 195.141L242.434 192.789H242.428Z" fill="#B1B7BD"/>
<path d="M166.341 218.683C166.191 218.683 166.053 218.571 166.035 218.414C166.01 218.245 166.128 218.083 166.297 218.058L172.693 217.119C172.862 217.1 173.024 217.213 173.049 217.382C173.074 217.551 172.955 217.714 172.787 217.739L166.391 218.677C166.391 218.677 166.359 218.677 166.347 218.677L166.341 218.683Z" fill="#F16F5F"/>
<path d="M168.775 224.808C168.631 224.808 168.506 224.708 168.469 224.564C168.431 224.395 168.531 224.226 168.7 224.189L173.947 222.962C174.115 222.925 174.284 223.025 174.322 223.194C174.359 223.363 174.259 223.532 174.09 223.569L168.844 224.795C168.844 224.795 168.794 224.802 168.775 224.802V224.808Z" fill="#F16F5F"/>
<path d="M172.334 230.395C172.197 230.395 172.072 230.301 172.034 230.164C171.99 229.995 172.084 229.826 172.253 229.782L177.287 228.406C177.456 228.362 177.625 228.456 177.668 228.625C177.712 228.794 177.618 228.963 177.45 229.006L172.415 230.383C172.415 230.383 172.359 230.395 172.334 230.395Z" fill="#F16F5F"/>
<path d="M204.262 212.233C204.087 212.233 203.949 212.096 203.949 211.921V207.241C203.949 205.114 205.38 203.237 207.435 202.687L227.916 197.15C228.079 197.106 228.253 197.206 228.297 197.369C228.341 197.538 228.241 197.707 228.079 197.751L207.597 203.287C205.817 203.769 204.574 205.396 204.574 207.241V211.921C204.574 212.096 204.436 212.233 204.262 212.233Z" fill="#09101D"/>
<path d="M210.907 202.38C210.801 202.38 210.695 202.323 210.638 202.223L202.949 189.192C202.862 189.042 202.912 188.854 203.062 188.766C203.205 188.679 203.399 188.729 203.486 188.879L211.176 201.91C211.263 202.06 211.213 202.248 211.063 202.336C211.013 202.367 210.957 202.38 210.907 202.38Z" fill="#09101D"/>
<path d="M160.782 173.532L167.447 162.722C169.571 159.275 172.625 156.503 176.26 154.726L188.028 148.965C189.715 148.139 191.607 147.82 193.475 148.051L216.155 146.756C216.705 146.725 217.098 147.288 216.873 147.795C216.873 147.807 216.861 147.82 216.855 147.832C216.274 149.171 215.018 150.091 213.569 150.266L202.913 151.573L203.438 151.623C204.874 151.755 206.105 152.706 206.598 154.063L207.473 156.472L208.216 157.266C209.241 158.355 209.54 159.932 208.997 161.32L203.706 174.771C203.382 175.591 202.432 175.966 201.633 175.578C199.671 174.627 198.728 172.362 199.421 170.298L200.933 165.806L193.631 174.784C192.432 176.26 190.895 177.43 189.153 178.199L183.525 180.677L179.558 191.806L160.77 173.539L160.782 173.532Z" fill="#FFA485"/>
<path d="M203.01 152.186C202.966 152.211 202.91 152.224 202.86 152.224L195.109 152.568C194.896 152.574 194.721 152.412 194.715 152.205C194.709 151.999 194.871 151.817 195.077 151.811L202.829 151.467C203.041 151.461 203.216 151.623 203.222 151.83C203.222 151.986 203.141 152.124 203.01 152.186Z" fill="#E06A4B"/>
<path d="M207.342 156.847C207.305 156.866 207.261 156.878 207.211 156.885L197.779 157.867C197.573 157.892 197.386 157.735 197.361 157.529C197.342 157.316 197.492 157.135 197.698 157.11L207.13 156.128C207.336 156.103 207.524 156.259 207.549 156.465C207.567 156.628 207.48 156.778 207.342 156.847Z" fill="#E06A4B"/>
<path d="M201.111 166.143C201.017 166.187 200.905 166.2 200.805 166.156C200.611 166.081 200.517 165.856 200.592 165.662L201.617 163.078C201.692 162.884 201.916 162.79 202.11 162.865C202.304 162.94 202.397 163.165 202.322 163.359L201.298 165.943C201.261 166.037 201.198 166.106 201.111 166.143Z" fill="#E06A4B"/>
<path d="M156.478 173.201L160.388 169C160.967 168.378 161.947 168.343 162.568 168.924L183.8 188.747C184.422 189.327 184.456 190.309 183.877 190.931L179.967 195.132C179.388 195.754 178.408 195.789 177.786 195.209L156.554 175.385C155.933 174.805 155.899 173.824 156.478 173.201Z" fill="#F4F6F9"/>
<path d="M98.2525 223.032C99.3581 225.121 100.945 227.887 102.756 230.914C108.371 240.342 119.203 244.421 129.078 242.107C132.669 241.268 136.142 239.579 139.184 236.989C144.356 232.591 149.909 227.711 155.325 222.875C166.587 212.809 177.268 202.931 182.765 197.97C183.958 196.894 183.97 195.023 182.796 193.928L158.623 171.469C157.861 170.762 156.686 170.743 155.899 171.425L126.542 197.069L90.7383 204.076C90.7383 204.076 95.1357 217.107 98.2525 223.019V223.032Z" fill="#B1B7BD"/>
<path d="M123.507 243.07C115.006 243.07 106.992 238.647 102.482 231.077C100.508 227.768 98.9904 225.109 97.9722 223.176C94.8741 217.307 90.4829 204.313 90.4392 204.182C90.408 204.094 90.4205 204.001 90.4642 203.926C90.5079 203.85 90.5891 203.794 90.6766 203.775L126.399 196.787L155.688 171.2C156.593 170.405 157.943 170.43 158.83 171.25L183.003 193.709C183.627 194.291 183.983 195.111 183.977 195.968C183.971 196.825 183.602 197.638 182.971 198.214C181.085 199.915 178.587 202.205 175.657 204.876C169.985 210.063 162.921 216.513 155.532 223.119C149.354 228.637 144.076 233.254 139.385 237.239C136.38 239.792 132.939 241.531 129.147 242.419C127.267 242.857 125.375 243.07 123.513 243.07H123.507ZM91.1451 204.326C91.8571 206.415 95.7298 217.595 98.5281 222.888C99.54 224.808 101.052 227.455 103.019 230.758C108.378 239.754 118.822 244.196 129.004 241.806C132.695 240.943 136.049 239.241 138.979 236.758C143.664 232.779 148.942 228.162 155.113 222.644C162.502 216.037 169.567 209.587 175.239 204.407C178.162 201.736 180.667 199.446 182.553 197.744C183.059 197.288 183.352 196.637 183.352 195.961C183.352 195.273 183.084 194.635 182.578 194.166L158.405 171.706C157.755 171.106 156.768 171.087 156.1 171.669L126.749 197.313C126.705 197.35 126.655 197.375 126.605 197.382L91.1513 204.32L91.1451 204.326Z" fill="#B1B7BD"/>
<path d="M122.318 242.9C121.75 242.9 121.175 242.888 120.607 242.857C120.432 242.85 120.301 242.7 120.313 242.525C120.32 242.35 120.476 242.206 120.644 242.231C129.121 242.694 137.559 239.629 143.774 233.829L153.019 225.202C153.144 225.083 153.344 225.089 153.462 225.221C153.581 225.346 153.575 225.546 153.444 225.665L144.199 234.292C138.278 239.816 130.389 242.907 122.325 242.907L122.318 242.9Z" fill="#09101D"/>
<path d="M114.534 206.509C114.446 206.509 114.359 206.471 114.296 206.396C114.184 206.265 114.203 206.065 114.334 205.952L145.809 179.126C145.94 179.013 146.14 179.032 146.246 179.163C146.359 179.295 146.34 179.495 146.209 179.601L114.734 206.427C114.678 206.477 114.603 206.502 114.534 206.502V206.509Z" fill="#09101D"/>
<path d="M122.902 199.383C122.796 199.383 122.689 199.327 122.633 199.226L110.234 177.774C110.147 177.624 110.197 177.436 110.347 177.349C110.497 177.261 110.684 177.311 110.772 177.461L123.17 198.914C123.258 199.064 123.208 199.251 123.058 199.339C123.008 199.37 122.958 199.383 122.902 199.383Z" fill="#09101D"/>
<path d="M175.994 195.023C176.406 195.855 176.063 196.862 175.232 197.275C174.401 197.688 173.395 197.344 172.983 196.511C172.571 195.679 172.914 194.672 173.745 194.259C174.576 193.846 175.582 194.19 175.994 195.023Z" fill="#F4F6F9"/>
<path d="M9.80469 64.269V138.035C9.80469 149.346 40.7612 159.168 86.134 164.079V90.3133C40.7612 85.4022 9.80469 75.5801 9.80469 64.269Z" fill="#D29D7E"/>
<path d="M78.1707 106.016C78.1707 106.016 78.1457 106.016 78.1395 106.016C40.7119 101.963 17.457 93.9484 17.457 85.096C17.457 84.9208 17.5944 84.7832 17.7693 84.7832C17.9442 84.7832 18.0817 84.9208 18.0817 85.096C18.0817 93.473 41.68 101.437 78.2082 105.397C78.3768 105.416 78.5018 105.572 78.483 105.741C78.4643 105.904 78.3331 106.023 78.1707 106.023V106.016Z" fill="white"/>
<path d="M46.0541 112.985C46.0541 112.985 46.0041 112.985 45.9854 112.979C40.1514 111.621 35.0919 110.12 30.9444 108.518C30.782 108.456 30.7008 108.274 30.7632 108.112C30.8257 107.949 31.0069 107.874 31.1693 107.93C35.2918 109.519 40.3263 111.008 46.1291 112.366C46.2977 112.403 46.4039 112.572 46.3602 112.741C46.3289 112.885 46.1978 112.985 46.0541 112.985Z" fill="white"/>
<path d="M78.173 118.184C78.173 118.184 78.148 118.184 78.1417 118.184C70.1528 117.321 62.6635 116.251 55.8801 115.019C55.7114 114.987 55.599 114.825 55.6302 114.656C55.6614 114.487 55.8238 114.374 55.9925 114.406C62.7634 115.638 70.2402 116.702 78.2105 117.565C78.3791 117.584 78.504 117.74 78.4853 117.909C78.4666 118.072 78.3354 118.191 78.173 118.191V118.184Z" fill="#09101D"/>
<path d="M19.5 137.497L28.1198 140.262V127.95L19.5 124.634V137.497Z" fill="#09101D"/>
<path d="M28.432 140.687L19.1875 137.722V116.639L28.432 120.198V140.687ZM19.8121 137.265L27.8073 139.83V120.63L19.8121 117.552V137.265Z" fill="white"/>
<path d="M40.8538 144.534L31.6094 141.569V129.87L40.8538 133.43V144.534ZM32.234 141.112L40.2292 143.677V133.862L32.234 130.784V141.112Z" fill="white"/>
<path d="M294.373 64.269V138.035C294.373 147.382 273.242 155.709 240.311 161.089C239.381 161.239 239.2 87.5043 239.993 87.3729C273.104 81.9926 294.373 73.6407 294.373 64.269Z" fill="#D29D7E"/>
<path d="M271.439 95.0557C271.295 95.0557 271.17 94.9619 271.133 94.818C271.095 94.6491 271.195 94.4801 271.364 94.4426C279.191 92.5783 285.05 90.4637 288.791 88.1427C288.935 88.0551 289.128 88.0989 289.222 88.2428C289.316 88.3867 289.266 88.5806 289.122 88.6745C285.324 91.0268 279.397 93.1726 271.508 95.0494C271.483 95.0494 271.458 95.0557 271.433 95.0557H271.439Z" fill="#09101D"/>
<path d="M271.888 105.135C271.744 105.135 271.62 105.041 271.582 104.897C271.545 104.728 271.645 104.559 271.813 104.521C279.434 102.707 285.149 100.643 288.797 98.3842C288.94 98.2904 289.134 98.3404 289.228 98.4843C289.321 98.6282 289.272 98.8222 289.128 98.916C285.424 101.212 279.652 103.302 271.963 105.128C271.938 105.128 271.913 105.135 271.888 105.135Z" fill="white"/>
<path opacity="0.69" d="M68.4904 145.773L56.3664 133.248C56.0041 132.879 56.0166 132.285 56.3851 131.922C56.7536 131.559 57.347 131.572 57.7093 131.941L68.5466 143.139L81.0828 131.359L96.5174 143.346C96.9234 143.665 96.9983 144.253 96.686 144.659C96.3675 145.072 95.7803 145.141 95.3743 144.828L81.2015 133.818L68.4904 145.76V145.773Z" fill="#798087"/>
<path d="M60.19 132.592C60.19 134.331 58.7846 135.738 57.0481 135.738C55.3117 135.738 53.9062 134.331 53.9062 132.592C53.9062 130.852 55.3117 129.445 57.0481 129.445C58.7846 129.445 60.19 130.852 60.19 132.592Z" fill="#FFE8CE"/>
<path d="M84.2955 132.592C84.2955 134.331 82.8901 135.738 81.1536 135.738C79.4171 135.738 78.0117 134.331 78.0117 132.592C78.0117 130.852 79.4171 129.445 81.1536 129.445C82.8901 129.445 84.2955 130.852 84.2955 132.592Z" fill="#FFE8CE"/>
<path d="M71.6705 144.09C71.6705 145.829 70.2651 147.237 68.5286 147.237C66.7921 147.237 65.3867 145.829 65.3867 144.09C65.3867 142.351 66.7921 140.943 68.5286 140.943C70.2651 140.943 71.6705 142.351 71.6705 144.09Z" fill="#BE7346"/>
<path d="M99.0962 144.09C99.0962 145.829 97.6908 147.237 95.9544 147.237C94.2179 147.237 92.8125 145.829 92.8125 144.09C92.8125 142.351 94.2179 140.943 95.9544 140.943C97.6908 140.943 99.0962 142.351 99.0962 144.09Z" fill="#BE7346"/>
<path d="M223.769 107.368H218.703V143.466H223.769V107.368Z" fill="#B1B7BD"/>
<path d="M224.081 143.779H218.391V107.055H224.081V143.779ZM219.015 143.153H223.456V107.681H219.015V143.153Z" fill="#B1B7BD"/>
<path d="M233.749 143.779H228.059V97.2769H233.749V143.779ZM228.683 143.153H233.124V97.9025H228.683V143.153Z" fill="#09101D"/>
<path d="M253.831 143.779H248.141V97.2769H253.831V143.779ZM248.765 143.153H253.206V97.9025H248.765V143.153Z" fill="#09101D"/>
<path opacity="0.46" d="M262.906 90.6328H257.84V143.466H262.906V90.6328Z" fill="white"/>
<path d="M262.909 108.963H257.844V143.466H262.909V108.963Z" fill="#B1B7BD"/>
<path d="M263.222 143.779H257.531V108.651H263.222V143.779ZM258.156 143.153H262.597V109.276H258.156V143.153Z" fill="#B1B7BD"/>
<path d="M243.757 111.127H238.691V143.465H243.757V111.127Z" fill="#B1B7BD"/>
<path d="M244.069 143.778H238.379V110.815H244.069V143.778ZM239.004 143.153H243.445V111.441H239.004V143.153Z" fill="#B1B7BD"/>
</g>
<defs>
<clipPath id="clip0_191_8376">
<rect width="303.968" height="300" fill="white" transform="translate(0.9375)"/>
</clipPath>
</defs>
</svg>
