<svg width="246" height="248" viewBox="0 0 246 248" fill="none" xmlns="http://www.w3.org/2000/svg">
<g clip-path="url(#clip0_495_9127)">
<path d="M245.02 84.3775C245.352 88.5406 244.787 92.2377 244.225 96.0333C244.046 97.2438 243.819 98.4408 243.543 99.6221C243.419 100.154 243.295 100.676 243.17 101.199C241.572 107.951 238.464 114.098 233.967 119.078C233.824 119.238 233.679 119.396 233.532 119.553C229.217 124.126 224.512 128.226 218.832 131.294C213.218 134.667 207.174 137.47 200.892 140.246C200.088 140.602 199.297 140.985 198.521 141.39C196.035 142.689 193.713 143.924 191.591 145.475C182.861 151.231 178.017 159.821 174.973 169.468C173.451 174.291 172.368 179.371 171.449 184.476C171.364 224.614 133.889 253.974 92.9802 245.85C91.3658 245.468 90.0386 244.812 88.4777 244.256C83.4874 242.261 78.9448 239.473 74.9059 235.716C68.0774 229.267 64.1431 221.529 61.2599 213.272C60.2988 210.52 59.4545 207.711 58.6589 204.873C56.3414 196.405 54.4411 187.358 47.9314 180.699C38.1673 170.711 25.5529 166.009 13.8923 157.878C-4.5688 145.027 -3.29629 120.715 9.88137 108.368C11.9483 106.289 14.0249 104.508 16.1539 102.55C27.1795 93.2328 42.2209 92.3715 56.5348 89.2425C65.0105 87.1999 72.5786 82.8118 75.9254 74.5916C83.1419 57.7801 87.9145 40.6317 99.4571 27.1267C101.054 25.0878 102.73 23.1182 104.486 21.2387C109.756 15.6024 115.75 10.7873 122.506 7.37486C125.208 6.00989 128.033 4.86999 130.98 3.99164C162.76 -6.83808 204.13 4.42473 225.443 37.1304C229.318 43.0769 232.959 49.1219 235.898 55.4614C238.265 60.6779 240.453 65.8179 242.181 71.4529C242.656 73.223 243.183 74.8191 243.627 76.5843C244.363 79.4554 244.836 82.0746 245.02 84.3763V84.3775Z" fill="#FFE8CE"/>
<path d="M74.6338 53.1415C71.4769 57.7255 67.371 60.88 63.2542 62.29C59.1374 63.6987 54.9756 63.3739 51.6934 61.0053C48.4111 58.6367 46.6264 54.6719 46.4282 50.161C46.2311 45.65 47.6508 40.5819 50.7883 36.0016C53.927 31.4213 58.2043 28.1913 62.5438 26.6889C66.8832 25.1877 71.2372 25.431 74.5219 27.802C77.8066 30.1731 79.4197 34.2132 79.4088 38.8118C79.3978 43.4103 77.7896 48.5563 74.6326 53.1415H74.6338Z" fill="#FFE8CE"/>
<path d="M217.149 164.596C221.003 172.226 215.848 181.714 207.726 185.724C203.423 187.876 198.842 188.366 194.853 187.496C190.863 186.625 187.441 184.41 185.517 181.047C183.592 177.683 183.524 173.806 184.969 170.26C188.259 162.334 198.157 157.812 207.181 158.715C211.53 159.195 215.244 161.147 217.151 164.596H217.149Z" fill="#FFE8CE"/>
<mask id="mask0_495_9127" style="mask-type:luminance" maskUnits="userSpaceOnUse" x="0" y="0" width="246" height="248">
<path d="M245.02 84.378C245.352 88.5411 244.787 92.2381 244.225 96.0338C244.046 97.2442 243.819 98.4413 243.543 99.6226C243.419 100.154 243.295 100.676 243.17 101.199C241.572 107.951 238.464 114.098 233.967 119.079C233.824 119.238 233.679 119.396 233.532 119.553C229.217 124.126 224.512 128.226 218.832 131.294C213.218 134.668 207.174 137.471 200.892 140.247C200.088 140.602 199.297 140.985 198.521 141.39C196.035 142.69 193.713 143.924 191.591 145.476C182.861 151.231 178.017 159.821 174.973 169.468C173.451 174.292 172.368 179.371 171.449 184.477C171.364 224.614 133.889 253.975 92.9802 245.851C91.3658 245.469 90.0386 244.813 88.4777 244.257C83.4874 242.262 78.9448 239.473 74.9059 235.717C68.0774 229.268 64.1431 221.529 61.2599 213.273C60.2988 210.521 59.4545 207.712 58.6589 204.874C56.3414 196.405 54.4411 187.359 47.9314 180.699C38.1673 170.712 25.5529 166.01 13.8923 157.878C-4.5688 145.028 -3.29629 120.715 9.88137 108.368C11.9483 106.289 14.0249 104.508 16.1539 102.551C27.1795 93.2333 42.2209 92.372 56.5348 89.243C65.0105 87.2004 72.5786 82.8123 75.9254 74.5921C83.1419 57.7806 87.9145 40.6321 99.4571 27.1272C101.054 25.0883 102.73 23.1187 104.486 21.2391C109.756 15.6029 115.75 10.7878 122.506 7.37535C125.208 6.01038 128.033 4.87047 130.98 3.99213C162.76 -6.83759 204.13 4.42522 225.443 37.1309C229.318 43.0774 232.959 49.1224 235.898 55.4619C238.265 60.6784 240.453 65.8184 242.181 71.4534C242.656 73.2235 243.183 74.8196 243.627 76.5848C244.363 79.4559 244.836 82.0751 245.02 84.3768V84.378ZM79.4083 38.8122C79.4193 34.2136 77.8049 30.1735 74.5215 27.8024C71.2368 25.4314 66.8828 25.1868 62.5433 26.6893C58.2039 28.1905 53.9265 31.4217 50.7878 36.002C47.6491 40.5823 46.2306 45.6504 46.4277 50.1614C46.6248 54.6723 48.4095 58.6371 51.6929 61.0057C54.9764 63.3743 59.137 63.6991 63.2538 62.2904C67.3706 60.8816 71.4765 57.7271 74.6334 53.1419C77.7903 48.558 79.3986 43.4107 79.4096 38.8122H79.4083ZM207.178 158.716C198.154 157.813 188.257 162.334 184.966 170.262C183.522 173.807 183.59 177.685 185.513 181.049C187.438 184.412 190.859 186.627 194.849 187.498C198.838 188.369 203.42 187.878 207.723 185.725C215.846 181.714 221 172.227 217.146 164.597C215.24 161.15 211.526 159.197 207.176 158.716H207.178Z" fill="white"/>
</mask>
<g mask="url(#mask0_495_9127)">
<g style="mix-blend-mode:multiply" opacity="0.3">
<path d="M187.403 44.3486H84.2874C75.8767 44.3486 69.0586 51.1668 69.0586 59.5774V185.639C69.0586 194.049 75.8767 200.867 84.2874 200.867H187.403C195.814 200.867 202.632 194.049 202.632 185.639V59.5774C202.632 51.1668 195.814 44.3486 187.403 44.3486Z" fill="#FF8F43"/>
</g>
</g>
<path d="M177.052 34.2002H73.9358C65.5252 34.2002 58.707 41.0183 58.707 49.429V175.49C58.707 183.901 65.5252 190.719 73.9358 190.719H177.052C185.462 190.719 192.28 183.901 192.28 175.49V49.429C192.28 41.0183 185.462 34.2002 177.052 34.2002Z" fill="#F4F6F9"/>
<path d="M92.6328 148.667H162.002" stroke="#E3E7EB" stroke-width="5.34187" stroke-miterlimit="10" stroke-linecap="square"/>
<path d="M103.738 160.148H150.895" stroke="#E3E7EB" stroke-width="5.34187" stroke-miterlimit="10" stroke-linecap="square"/>
<path d="M127.145 122.132C143.09 122.132 156.016 109.206 156.016 93.2608C156.016 77.3157 143.09 64.3896 127.145 64.3896C111.199 64.3896 98.2734 77.3157 98.2734 93.2608C98.2734 109.206 111.199 122.132 127.145 122.132Z" stroke="#E3E7EB" stroke-width="7.19589" stroke-miterlimit="10" stroke-linecap="round"/>
<path d="M114.473 93.261L124.248 103.035L160.955 64.3887" stroke="#FF8F43" stroke-width="7.19589" stroke-miterlimit="10" stroke-linecap="square"/>
</g>
<defs>
<clipPath id="clip0_495_9127">
<rect width="245.12" height="247.205" fill="white"/>
</clipPath>
</defs>
</svg>
