<svg width="335" height="241" viewBox="0 0 335 241" fill="none" xmlns="http://www.w3.org/2000/svg">
<g clip-path="url(#clip0_570_13900)">
<path d="M300.948 88.7561H254.84V120.243H300.948V88.7561Z" fill="#FFB25C"/>
<path d="M295.896 127.139L292.771 124.959L289.641 127.139V115.798H295.896V127.139Z" fill="#7A3B16"/>
<path d="M292.764 119.887C295.292 119.887 297.341 117.833 297.341 115.3C297.341 112.767 295.292 110.714 292.764 110.714C290.237 110.714 288.188 112.767 288.188 115.3C288.188 117.833 290.237 119.887 292.764 119.887Z" fill="#7A3B16"/>
<path d="M297.292 115.355C297.697 112.854 296.003 110.499 293.508 110.093C291.013 109.687 288.662 111.385 288.257 113.885C287.852 116.385 289.546 118.741 292.041 119.147C294.536 119.553 296.887 117.855 297.292 115.355Z" fill="white"/>
<path d="M296 114.619C296 116.409 294.548 117.864 292.762 117.864C290.975 117.864 289.523 116.409 289.523 114.619C289.523 112.829 290.975 111.374 292.762 111.374C294.548 111.374 296 112.829 296 114.619Z" stroke="#FFB25C" stroke-width="0.578999" stroke-miterlimit="10"/>
<path d="M258.547 99.6107H295.998" stroke="#BE7346" stroke-width="0.761841" stroke-miterlimit="10"/>
<path d="M268.68 96.6956H285.87" stroke="#BE7346" stroke-width="0.761841" stroke-miterlimit="10"/>
<path d="M258.547 102.526H295.998" stroke="#BE7346" stroke-width="0.761841" stroke-miterlimit="10"/>
<path d="M258.547 105.441H295.998" stroke="#BE7346" stroke-width="0.761841" stroke-miterlimit="10"/>
<path d="M258.547 108.356H295.998" stroke="#BE7346" stroke-width="0.761841" stroke-miterlimit="10"/>
<path d="M269.234 111.271H285.313" stroke="#BE7346" stroke-width="0.761841" stroke-miterlimit="10"/>
<path d="M280.882 139.21H273.434V175.224H280.882V139.21Z" fill="#BE7346"/>
<path d="M271.808 145.857H264.359V175.224H271.808V145.857Z" fill="#FFB25C"/>
<path d="M262.733 141.904H255.285V175.224H262.733V141.904Z" fill="#BE7346"/>
<path d="M253.659 156.852H246.211V175.224H253.659V156.852Z" fill="#7A3B16"/>
<path d="M244.581 165.446H237.133V175.224H244.581V165.446Z" fill="white"/>
<path d="M284.951 177.133H235.48V138.015" stroke="white" stroke-width="0.876117" stroke-miterlimit="10"/>
<path d="M276.859 32.5417C262.999 32.5417 251.762 43.8018 251.762 57.6904C251.762 71.579 262.999 82.8391 276.859 82.8391C290.719 82.8391 301.956 71.579 301.956 57.6904C301.956 43.8018 290.719 32.5417 276.859 32.5417ZM276.859 78.6585C265.303 78.6585 255.934 69.2696 255.934 57.6904C255.934 46.1112 265.303 36.7223 276.859 36.7223C288.414 36.7223 297.784 46.1112 297.784 57.6904C297.784 69.2696 288.414 78.6585 276.859 78.6585Z" fill="#FFB25C"/>
<path d="M277.728 39.3454C277.728 39.9132 277.269 40.3675 276.708 40.3675C276.146 40.3675 275.688 39.9078 275.688 39.3454C275.688 38.7829 276.146 38.3232 276.708 38.3232C277.269 38.3232 277.728 38.7829 277.728 39.3454Z" fill="#FFB25C"/>
<path d="M277.728 76.0355C277.728 76.6034 277.269 77.0577 276.708 77.0577C276.146 77.0577 275.688 76.598 275.688 76.0355C275.688 75.4731 276.146 75.0134 276.708 75.0134C277.269 75.0134 277.728 75.4731 277.728 76.0355Z" fill="#FFB25C"/>
<path d="M268.469 41.3464C268.75 41.8386 268.582 42.4605 268.097 42.7472C267.605 43.0284 266.985 42.8607 266.699 42.374C266.418 41.8818 266.585 41.2599 267.071 40.9732C267.562 40.692 268.183 40.8597 268.469 41.3464Z" fill="#FFB25C"/>
<path d="M286.774 73.1201C287.054 73.6123 286.887 74.2342 286.401 74.5209C285.91 74.8021 285.289 74.6345 285.003 74.1477C284.723 73.6556 284.89 73.0336 285.376 72.747C285.867 72.4657 286.488 72.6334 286.774 73.1201Z" fill="#FFB25C"/>
<path d="M261.456 47.7122C261.947 47.9935 262.114 48.6208 261.828 49.113C261.542 49.6052 260.921 49.7728 260.43 49.4862C259.939 49.2049 259.772 48.5776 260.058 48.0854C260.338 47.5933 260.964 47.4256 261.456 47.7122Z" fill="#FFB25C"/>
<path d="M293.163 66.0571C293.654 66.3384 293.821 66.9657 293.535 67.4579C293.254 67.95 292.628 68.1177 292.137 67.8311C291.646 67.5498 291.479 66.9225 291.765 66.4303C292.045 65.9381 292.671 65.7705 293.163 66.0571Z" fill="#FFB25C"/>
<path d="M258.555 56.7439C259.122 56.7439 259.575 57.2036 259.575 57.766C259.575 58.3285 259.117 58.7882 258.555 58.7882C257.994 58.7882 257.535 58.3285 257.535 57.766C257.535 57.2036 257.994 56.7439 258.555 56.7439Z" fill="#FFB25C"/>
<path d="M295.165 56.744C295.731 56.744 296.185 57.2038 296.185 57.7662C296.185 58.3287 295.726 58.7884 295.165 58.7884C294.603 58.7884 294.145 58.3287 294.145 57.7662C294.145 57.2038 294.603 56.744 295.165 56.744Z" fill="#FFB25C"/>
<path d="M260.548 66.0194C261.039 65.7381 261.659 65.9058 261.946 66.3925C262.226 66.8847 262.059 67.5066 261.573 67.7933C261.082 68.0745 260.461 67.9069 260.175 67.4201C259.895 66.928 260.062 66.306 260.548 66.0194Z" fill="#FFB25C"/>
<path d="M292.255 47.6745C292.746 47.3932 293.366 47.5609 293.653 48.0476C293.933 48.5398 293.766 49.1618 293.28 49.4484C292.789 49.7296 292.168 49.562 291.882 49.0752C291.602 48.5831 291.769 47.9611 292.255 47.6745Z" fill="#FFB25C"/>
<path d="M266.898 73.0501C267.178 72.558 267.804 72.3903 268.295 72.677C268.787 72.9636 268.954 73.5856 268.668 74.0777C268.387 74.5699 267.761 74.7375 267.27 74.4509C266.779 74.1697 266.611 73.5423 266.898 73.0501Z" fill="#FFB25C"/>
<path d="M285.206 41.2762C285.487 40.784 286.113 40.6164 286.604 40.903C287.095 41.1843 287.262 41.8116 286.976 42.3038C286.696 42.7959 286.07 42.9636 285.579 42.677C285.087 42.3957 284.92 41.7684 285.206 41.2762Z" fill="#FFB25C"/>
<path d="M276.862 41.79V57.6905L267.59 63.6613" stroke="white" stroke-width="0.761841" stroke-miterlimit="10"/>
<path d="M276.855 59.4157C277.805 59.4157 278.576 58.6433 278.576 57.6905C278.576 56.7377 277.805 55.9652 276.855 55.9652C275.904 55.9652 275.133 56.7377 275.133 57.6905C275.133 58.6433 275.904 59.4157 276.855 59.4157Z" fill="#FFB25C"/>
<path d="M261.388 54.9153H219.656V105.499H261.388V54.9153Z" fill="white"/>
<path d="M225.5 61.4162H238.097" stroke="#FFB25C" stroke-width="0.761841" stroke-miterlimit="10"/>
<path d="M225.5 65.0181H255.552" stroke="#FFB25C" stroke-width="0.761841" stroke-miterlimit="10"/>
<path d="M225.5 68.6146H255.552" stroke="#FFB25C" stroke-width="0.761841" stroke-miterlimit="10"/>
<path d="M225.5 72.2166H255.552" stroke="#FFB25C" stroke-width="0.761841" stroke-miterlimit="10"/>
<path d="M225.5 75.8185H255.552" stroke="#FFB25C" stroke-width="0.761841" stroke-miterlimit="10"/>
<path d="M225.5 79.415H255.552" stroke="#FFB25C" stroke-width="0.761841" stroke-miterlimit="10"/>
<path d="M225.5 83.0169H255.552" stroke="#FFB25C" stroke-width="0.761841" stroke-miterlimit="10"/>
<path d="M225.5 86.6189H255.552" stroke="#FFB25C" stroke-width="0.761841" stroke-miterlimit="10"/>
<path d="M225.5 90.2156H255.552" stroke="#FFB25C" stroke-width="0.761841" stroke-miterlimit="10"/>
<path d="M225.5 93.8176H255.552" stroke="#FFB25C" stroke-width="0.761841" stroke-miterlimit="10"/>
<path d="M225.5 97.414H238.097" stroke="#FFB25C" stroke-width="0.761841" stroke-miterlimit="10"/>
<path d="M251.879 52.4816V64.9154C251.879 66.4676 250.621 67.7277 249.072 67.7277C247.523 67.7277 246.266 66.4676 246.266 64.9154V51.9462C246.266 49.5719 248.187 47.6466 250.556 47.6466C252.926 47.6466 254.847 49.5719 254.847 51.9462V54.9154" stroke="#BE7346" stroke-width="1.52368" stroke-miterlimit="10"/>
<path d="M111.673 40.3133L123.8 41.5248C124.583 33.6232 120.978 25.581 113.81 21.0651L107.328 31.395C110.453 33.3636 112.013 36.8682 111.673 40.3133Z" fill="#FFB25C"/>
<path d="M110.284 44.3911C107.52 48.7989 101.713 50.1239 97.3141 47.3548C96.2724 46.695 95.4035 45.8621 94.7234 44.9211L84.8789 52.1088C86.4495 54.2667 88.4411 56.1758 90.8374 57.6847C100.93 64.0395 114.256 60.9946 120.598 50.8811C122.438 47.9497 123.485 44.7426 123.804 41.5138L111.676 40.3024C111.536 41.7085 111.088 43.1093 110.289 44.3857L110.284 44.3911Z" fill="#BE7346"/>
<path d="M84.8679 52.1142L94.7124 44.9265C93.8759 43.7746 93.3253 42.4603 93.0717 41.0812L81.0898 43.2878C81.6727 46.4463 82.9519 49.4695 84.8733 52.1142H84.8679Z" fill="#7A3B16"/>
<path d="M94.3514 34.3588C96.4131 31.0705 100.164 29.5021 103.764 30.0592L105.642 17.9986C97.3846 16.7114 88.7706 20.3188 84.0373 27.8634C81.0418 32.6389 80.1405 38.1392 81.085 43.2825L93.0668 41.0759C92.6566 38.8315 93.0398 36.441 94.346 34.3534L94.3514 34.3588Z" fill="#BE7346"/>
<path d="M103.766 30.0644C104.991 30.2537 106.205 30.6918 107.322 31.3949L113.804 21.065C111.235 19.4479 108.461 18.4419 105.644 18.0038L103.766 30.0644Z" fill="white"/>
<path d="M96.7289 120.919H50.1562V182.596H96.7289V120.919Z" fill="white"/>
<path d="M54.0859 155.917H92.7948" stroke="#FFB25C" stroke-width="0.761841" stroke-miterlimit="10"/>
<path d="M54.0859 159.259H92.7948" stroke="#FFB25C" stroke-width="0.761841" stroke-miterlimit="10"/>
<path d="M54.0859 162.607H92.7948" stroke="#FFB25C" stroke-width="0.761841" stroke-miterlimit="10"/>
<path d="M54.0859 165.954H92.7948" stroke="#FFB25C" stroke-width="0.761841" stroke-miterlimit="10"/>
<path d="M54.0859 169.302H92.7948" stroke="#FFB25C" stroke-width="0.761841" stroke-miterlimit="10"/>
<path d="M54.0859 172.645H92.7948" stroke="#FFB25C" stroke-width="0.761841" stroke-miterlimit="10"/>
<path d="M62.2843 127.918H54.0859V132.569H62.2843V127.918Z" fill="#FFB25C"/>
<path d="M72.4601 127.918H64.2617V132.569H72.4601V127.918Z" fill="#FFB25C"/>
<path d="M82.6242 127.918H74.4258V132.569H82.6242V127.918Z" fill="#FFB25C"/>
<path d="M92.7999 127.918H84.6016V132.569H92.7999V127.918Z" fill="#FFB25C"/>
<path d="M62.2843 134.364H54.0859V139.016H62.2843V134.364Z" fill="#FFB25C"/>
<path d="M72.4601 134.364H64.2617V139.016H72.4601V134.364Z" fill="#FFB25C"/>
<path d="M82.6242 134.364H74.4258V139.016H82.6242V134.364Z" fill="#FFB25C"/>
<path d="M92.7999 134.364H84.6016V139.016H92.7999V134.364Z" fill="#FFB25C"/>
<path d="M62.2843 140.811H54.0859V145.462H62.2843V140.811Z" fill="#FFB25C"/>
<path d="M72.4601 140.811H64.2617V145.462H72.4601V140.811Z" fill="#FFB25C"/>
<path d="M82.6242 140.811H74.4258V145.462H82.6242V140.811Z" fill="#FFB25C"/>
<path d="M92.7999 140.811H84.6016V145.462H92.7999V140.811Z" fill="#FFB25C"/>
<path d="M62.2843 147.263H54.0859V151.914H62.2843V147.263Z" fill="#FFB25C"/>
<path d="M72.4601 147.263H64.2617V151.914H72.4601V147.263Z" fill="#FFB25C"/>
<path d="M82.6242 147.263H74.4258V151.914H82.6242V147.263Z" fill="#FFB25C"/>
<path d="M92.7999 147.263H84.6016V151.914H92.7999V147.263Z" fill="#FFB25C"/>
<path d="M128.525 97.2577H61.918V99.7888H128.525V97.2577Z" fill="#BE7346"/>
<path d="M103.782 99.7891H55.698L48.8867 67.7068H96.976L103.782 99.7891Z" fill="white"/>
<path d="M95.3945 68.437L102.049 99.7891" stroke="#BE7346" stroke-width="0.67042" stroke-miterlimit="10"/>
<path d="M80.5459 83.3749C81.0802 85.906 79.1858 87.9558 76.3091 87.9558C73.4324 87.9558 70.6636 85.906 70.1293 83.3749C69.5949 80.8438 71.4894 78.7941 74.3661 78.7941C77.2428 78.7941 80.0116 80.8438 80.5459 83.3749Z" stroke="#BE7346" stroke-width="0.578999" stroke-miterlimit="10"/>
<path d="M68.2435 42.4769H39.9351C36.8694 42.4769 34.3867 44.9648 34.3867 48.0367V60.6922C34.3867 63.7641 36.8694 66.2519 39.9351 66.2519H47.5398C49.0942 66.2519 50.4543 67.3012 50.8536 68.8047L54.092 81.0383L57.3303 68.8047C57.7297 67.3012 59.0898 66.2519 60.6442 66.2519H68.2489C71.3145 66.2519 73.7972 63.7641 73.7972 60.6922V48.0367C73.7972 44.9648 71.3145 42.4769 68.2489 42.4769H68.2435Z" fill="#FFB25C"/>
<path d="M64.8424 48.4151H44.7539V61.7628H64.8424V48.4151Z" stroke="white" stroke-width="0.67042" stroke-miterlimit="10"/>
<path d="M46.1836 49.8217L54.7976 56.3387L63.4115 49.8217" stroke="white" stroke-width="0.67042" stroke-miterlimit="10"/>
<path d="M56.4961 55.0517L63.4099 60.3573" stroke="white" stroke-width="0.67042" stroke-miterlimit="10"/>
<path d="M46.1836 60.3571L53.146 55.0894" stroke="white" stroke-width="0.67042" stroke-miterlimit="10"/>
<path d="M49.1192 48.4151C49.1192 50.5405 47.3975 52.2658 45.2764 52.2658C43.1553 52.2658 41.4336 50.5405 41.4336 48.4151C41.4336 46.2896 43.1553 44.5643 45.2764 44.5643C47.3975 44.5643 49.1192 46.2896 49.1192 48.4151Z" fill="#BE7346"/>
<path d="M42.9492 48.0367L44.7897 49.616L47.5908 47.2201" stroke="white" stroke-width="0.571381" stroke-linecap="round" stroke-linejoin="round"/>
<path d="M212.809 28.1608L215.723 44.2885H242.418L239.503 28.1608H212.809Z" fill="#7A3B16"/>
<path d="M242.102 23.0446H215.812V44.2885H242.102V23.0446Z" fill="white"/>
<path d="M232.285 25.8567L229.414 29.4695H218.328L215.812 44.2883H242.507L245.632 25.8567H232.285Z" fill="#FFB25C"/>
<path d="M45.0976 105.484C41.0659 106.598 40.1645 107.501 39.0527 111.541C37.9409 107.501 37.0395 106.598 33.0078 105.484C37.0395 104.37 37.9409 103.466 39.0527 99.4264C40.1645 103.466 41.0659 104.37 45.0976 105.484Z" fill="#BE7346"/>
<path d="M261.988 23.5963C257.957 24.7104 257.055 25.6136 255.943 29.6536C254.832 25.6136 253.93 24.7104 249.898 23.5963C253.93 22.4822 254.832 21.579 255.943 17.539C257.055 21.579 257.957 22.4822 261.988 23.5963Z" fill="#BE7346"/>
<path d="M301.219 143.137C297.187 144.251 296.286 145.154 295.174 149.194C294.062 145.154 293.161 144.251 289.129 143.137C293.161 142.022 294.062 141.119 295.174 137.079C296.286 141.119 297.187 142.022 301.219 143.137Z" fill="#BE7346"/>
<path d="M120.262 72.9958C116.23 74.1099 115.329 75.0131 114.217 79.0531C113.105 75.0131 112.204 74.1099 108.172 72.9958C112.204 71.8817 113.105 70.9785 114.217 66.9385C115.329 70.9785 116.23 71.8817 120.262 72.9958Z" fill="#BE7346"/>
<path d="M174.59 223.937C170.558 225.051 169.657 225.954 168.545 229.994C167.433 225.954 166.532 225.051 162.5 223.937C166.532 222.823 167.433 221.92 168.545 217.88C169.657 221.92 170.558 222.823 174.59 223.937Z" fill="#BE7346"/>
<path d="M167.76 84.2235C188.14 84.2235 204.661 67.6684 204.661 47.2467C204.661 26.825 188.14 10.27 167.76 10.27C147.38 10.27 130.859 26.825 130.859 47.2467C130.859 67.6684 147.38 84.2235 167.76 84.2235Z" stroke="white" stroke-width="0.761841" stroke-miterlimit="10"/>
<path d="M190.613 70.1438C203.234 57.4967 203.234 36.9916 190.613 24.3444C177.992 11.6973 157.529 11.6973 144.907 24.3444C132.286 36.9916 132.286 57.4967 144.907 70.1438C157.529 82.791 177.992 82.791 190.613 70.1438Z" stroke="white" stroke-width="0.761841" stroke-miterlimit="10"/>
<path d="M167.743 129.627L105.707 142.114L167.743 181.2L229.778 142.114L167.743 129.627Z" fill="#09101D"/>
<path d="M198.254 130.941L196.03 126.366L207.969 73.3423L177.005 64.0129H158.487L127.523 73.3423L139.462 126.366L137.238 130.941L124.895 137.723L153.64 158.302C157.909 160.86 163.436 158.626 164.737 153.813L167.754 142.682L170.771 153.813C172.072 158.621 177.598 160.854 181.868 158.302L210.613 137.723L198.27 130.941H198.254Z" fill="#798087"/>
<path d="M158.504 65.2461H176.984L167.744 110.054L158.504 65.2461Z" fill="#E3E7EB"/>
<path d="M158.715 66.2847L171.026 109.14L165.461 112.904L158.715 66.2847Z" fill="#B1B7BD"/>
<path d="M191.192 80.238C191.192 80.238 185.401 69.8756 176.986 65.2461L167.746 110.054L158.506 65.2461C150.092 69.8756 144.301 80.238 144.301 80.238L152.65 85.1055L144.301 84.954C144.301 84.954 151.744 101.823 169.727 117.75C174.288 112.58 185.579 98.9562 191.192 84.954L182.842 85.1055L191.192 80.238Z" fill="#09101D"/>
<path d="M159.215 61.7633H176.232L167.726 69.8704L159.215 61.7633Z" fill="white"/>
<path d="M176.983 47.0308C176.983 47.0308 178.046 43.0774 178.802 39.6268C179.563 36.1817 177.89 34.5592 176.578 33.9481C175.439 27.788 171.229 25.2245 167.079 25.2191C166.712 25.2191 166.561 25.7004 166.868 25.9059C168.439 26.9389 169.087 28.4208 169.087 28.4208C169.087 28.4208 163.722 27.1552 158.46 30.2488C153.197 33.3424 154.158 35.6247 156.641 37.0417C156.641 37.0417 156.84 41.9578 158.211 46.8794L176.983 47.0308Z" fill="#09101D"/>
<path d="M167.742 110.054C169.189 117.355 172.303 125.262 172.303 125.262L168.131 141.336" stroke="#09101D" stroke-width="0.578999" stroke-miterlimit="10"/>
<path d="M167.804 126.836C168.74 126.836 169.499 126.076 169.499 125.138C169.499 124.2 168.74 123.44 167.804 123.44C166.868 123.44 166.109 124.2 166.109 125.138C166.109 126.076 166.868 126.836 167.804 126.836Z" fill="#E3E7EB"/>
<path d="M166.026 140.416C166.026 141.352 165.265 142.115 164.331 142.115C163.398 142.115 162.637 141.352 162.637 140.416C162.637 139.481 163.398 138.718 164.331 138.718C165.265 138.718 166.026 139.481 166.026 140.416Z" fill="#E3E7EB"/>
<path d="M160.535 115.43L168.685 122.629" stroke="#09101D" stroke-width="0.578999" stroke-miterlimit="10"/>
<path d="M166.914 127.75L161.145 131.504" stroke="#09101D" stroke-width="0.578999" stroke-miterlimit="10"/>
<path d="M157.477 135.696L141.824 131.543L141.255 133.697L156.907 137.85L157.477 135.696Z" fill="#B1B7BD"/>
<path d="M178.57 137.854L194.223 133.701L193.654 131.547L178.001 135.7L178.57 137.854Z" fill="#B1B7BD"/>
<path d="M190.942 186.122L202.66 192.813L200.431 206.923L185.594 198.08L190.942 186.122Z" fill="white"/>
<path d="M199.044 190.054L199.816 201.195L197.107 199.075L191.715 203.759L197.484 207.577L201.975 219.438L203.95 226.777C204.215 227.75 205.424 228.075 206.142 227.366C207.793 225.744 210.098 222.602 210.281 217.626C210.573 209.535 208.91 202.975 208.91 202.975L211.021 203.326L211.803 193.802L209.563 193.645C209.563 193.645 205.467 189.324 199.05 190.054H199.044Z" fill="#09101D"/>
<path d="M92.0814 153.764C94.3051 142.228 110.092 137.518 125.069 145.571C140.047 153.624 194.488 183.959 194.488 183.959L185.281 208.091C179.338 206.09 178.728 203.348 173.973 201.601C170.05 200.157 168.889 201.985 162.666 199.854C156.443 197.723 154.414 195.398 150.825 194.148C145.131 192.169 139.836 192.737 134.563 190.941C125.674 187.923 118.026 185.311 114.14 183.954C98.3638 178.443 89.8524 165.295 92.0814 153.759V153.764Z" fill="#798087"/>
<path d="M180.832 202.775L186.31 179.411C188.07 180.389 189.608 181.244 190.855 181.942L180.832 202.78V202.775Z" fill="#09101D"/>
<path d="M190.854 186.804L133.93 150.4" stroke="#09101D" stroke-width="0.578999" stroke-miterlimit="10"/>
<path d="M209.225 194.651L208.566 201.709" stroke="#B1B7BD" stroke-width="0.52567" stroke-miterlimit="10"/>
<path d="M185.287 208.097C182.74 207.237 181.169 206.242 179.836 205.246L189.54 181.201C192.649 182.932 194.5 183.959 194.5 183.959L185.293 208.091L185.287 208.097Z" fill="#B1B7BD"/>
<path d="M211.125 202.001L211.799 193.802L209.559 193.645C209.559 193.645 205.463 189.324 199.046 190.054L199.094 190.774L193.184 187.399L194.496 183.959C194.496 183.959 177.133 174.284 159.322 164.413L123.555 187.199C126.825 188.313 130.566 189.589 134.57 190.947C139.844 192.737 145.138 192.174 150.832 194.154C154.416 195.398 156.451 197.729 162.674 199.86C168.897 201.99 170.063 200.162 173.981 201.606C178.736 203.359 179.351 206.095 185.288 208.096L188.462 199.784L193.103 202.553L191.711 203.759L197.48 207.577L197.637 207.988L208.906 202.986V202.98H208.917L211.125 202.001Z" fill="#09101D"/>
<path d="M243.395 153.764C241.172 142.228 225.385 137.518 210.407 145.571C195.43 153.624 140.988 183.959 140.988 183.959L150.196 208.091C156.138 206.09 156.748 203.348 161.503 201.601C165.427 200.157 166.587 201.985 172.81 199.854C179.033 197.723 181.063 195.398 184.652 194.148C190.346 192.169 195.641 192.737 200.914 190.941C209.803 187.923 217.451 185.311 221.337 183.954C237.113 178.443 245.624 165.295 243.395 153.759V153.764Z" fill="#798087"/>
<path d="M154.648 202.775L149.169 179.411C147.41 180.389 145.872 181.244 144.625 181.942L154.648 202.78V202.775Z" fill="#09101D"/>
<path d="M144.625 186.804L201.55 150.401" stroke="#09101D" stroke-width="0.578999" stroke-miterlimit="10"/>
<path d="M144.543 186.122L132.82 192.813L135.049 206.923L149.892 198.08L144.543 186.122Z" fill="white"/>
<path d="M136.443 190.054L135.671 201.195L138.38 199.075L143.772 203.759L138.002 207.577L133.512 219.438L131.537 226.777C131.272 227.75 130.063 228.075 129.345 227.366C127.694 225.744 125.389 222.602 125.206 217.626C124.914 209.535 126.577 202.975 126.577 202.975L124.466 203.326L123.684 193.802L125.923 193.645C125.923 193.645 130.02 189.324 136.437 190.054H136.443Z" fill="#09101D"/>
<path d="M126.262 194.651L126.915 201.709" stroke="#B1B7BD" stroke-width="0.52567" stroke-miterlimit="10"/>
<path d="M150.194 208.097C152.741 207.237 154.312 206.242 155.645 205.246L145.941 181.201C142.832 182.932 140.98 183.959 140.98 183.959L150.188 208.091L150.194 208.097Z" fill="#B1B7BD"/>
<path d="M73.8657 126.025C70.7731 124.326 77.1526 109.394 77.1526 109.394L82.5229 111.714C82.5229 111.714 76.9745 127.734 73.8657 126.025Z" fill="#B1B7BD"/>
<path d="M84.2703 112.883L80.1566 122.881L69.8155 114.117L69.6683 113.992L69.4807 114.037C66.2631 114.806 63.2245 114.629 60.9852 114.258C59.8667 114.072 58.9509 113.838 58.3163 113.651C57.9991 113.558 57.7524 113.476 57.5862 113.419C57.503 113.39 57.44 113.367 57.3984 113.351C57.3841 113.346 57.3723 113.342 57.363 113.338L55.0783 112.026L55.2452 111.522L56.8866 112.526L56.98 112.583L57.0894 112.582L60.6948 112.544L60.771 111.791L57.6598 111.121L55.0808 109.248L55.6267 107.851L55.7443 107.55L55.4668 107.385L54.3283 106.707L54.9131 105.085L55.2912 105.273L55.6929 105.473L55.8249 105.044L56.2038 103.814L62.4779 105.756L62.5335 105.773L62.5917 105.773L68.3019 105.757L68.674 105.756L68.6817 105.384L68.7465 102.236L68.7494 102.093L68.6574 101.983L66.8014 99.7726L67.5121 99.1112C67.536 99.1293 67.5613 99.1485 67.588 99.1689C67.7956 99.327 68.0889 99.5534 68.4303 99.8258C69.1145 100.372 69.9872 101.098 70.7528 101.828L70.7529 101.828C72.0397 103.054 72.5053 104.476 72.6497 105.599C72.7219 106.162 72.7132 106.647 72.6867 106.99C72.6734 107.162 72.6557 107.297 72.6417 107.387C72.6347 107.433 72.6286 107.467 72.6245 107.489L72.6199 107.512L72.619 107.517L72.6189 107.517L72.6189 107.517L72.6189 107.517L72.6188 107.518L72.5517 107.824L72.8401 107.948L84.2703 112.883Z" fill="#FFA485" stroke="#FFA485" stroke-width="0.761841"/>
<path d="M80.3158 123.51L84.7685 112.688L75.6094 108.734C76.4028 111.909 76.392 115.5 75.8361 119.719L80.3158 123.515V123.51Z" fill="#E06A4B"/>
<path d="M74.9292 134.694C72.2359 133.223 76.381 125.154 76.381 125.154L85.1245 128.897C85.1245 128.897 77.8922 136.317 74.9238 134.7L74.9292 134.694Z" fill="#09101D"/>
<path d="M86.7705 113.25L80.2452 110.687C80.2452 110.687 78.3724 124.353 73.8711 126.025L86.7759 134.164V113.25H86.7705Z" fill="white"/>
<path d="M118.923 144.126C119.236 143.791 119.42 143.472 119.501 143.158C107.762 139.248 96.6219 142.747 93.0273 150.784C100.028 156.122 113.326 150.135 118.923 144.126Z" fill="#09101D"/>
<path d="M127.519 73.3422L135.415 108.399L125.624 135.127C121.636 146.009 109.174 151.092 98.7353 146.095L74.9336 134.694C74.9336 134.694 80.7032 136.214 86.7751 113.245L103.015 120.243L120.621 86.9333C120.621 86.9333 120.61 81.0491 127.524 73.3476L127.519 73.3422Z" fill="#798087"/>
<path d="M81.3086 128.437L98.6607 136.977" stroke="#09101D" stroke-width="0.578999" stroke-miterlimit="10"/>
<path d="M86.9969 128.307C87.6467 128.307 88.1735 127.779 88.1735 127.128C88.1735 126.477 87.6467 125.949 86.9969 125.949C86.3471 125.949 85.8203 126.477 85.8203 127.128C85.8203 127.779 86.3471 128.307 86.9969 128.307Z" fill="#E3E7EB"/>
<path d="M94.9704 130.806C94.9704 131.455 94.4414 131.985 93.7938 131.985C93.1461 131.985 92.6172 131.455 92.6172 130.806C92.6172 130.157 93.1461 129.627 93.7938 129.627C94.4414 129.627 94.9704 130.157 94.9704 130.806Z" fill="#E3E7EB"/>
<path d="M103.012 120.243L113.434 124.911" stroke="#09101D" stroke-width="0.578999" stroke-miterlimit="10"/>
<path d="M105.711 119.789L116.446 120.244" stroke="#09101D" stroke-width="0.578999" stroke-miterlimit="10"/>
<path d="M129.973 84.2237C129.276 86.5168 127.673 93.3421 129.104 104.007C129.282 105.327 129.185 106.679 128.758 107.939C126.265 115.397 128.078 122.412 129.158 125.489L135.418 108.399L129.973 84.2237Z" fill="#09101D"/>
<path d="M55.4609 104.938L62.0995 107.317L64.4311 107.517" stroke="#E06A4B" stroke-width="0.761841" stroke-miterlimit="10"/>
<path d="M55.2773 107.718L59.7247 109.675L63.643 110.027" stroke="#E06A4B" stroke-width="0.761841" stroke-miterlimit="10"/>
<path d="M64.7578 106.582L63.3438 111.552" stroke="#E06A4B" stroke-width="0.761841" stroke-miterlimit="10"/>
<path d="M64.4297 111.065C65.8977 109.929 68.6017 108.664 71.0845 110.308" stroke="#E06A4B" stroke-width="0.761841" stroke-miterlimit="10"/>
<path d="M261.63 126.025C264.722 124.327 258.343 109.394 258.343 109.394L252.973 111.714C252.973 111.714 258.521 127.734 261.63 126.025Z" fill="#B1B7BD"/>
<path d="M255.334 122.881L251.22 112.883L262.65 107.948L262.939 107.824L262.872 107.518L262.872 107.518L262.872 107.517L262.872 107.517L262.871 107.517L262.871 107.512L262.866 107.489C262.862 107.467 262.856 107.433 262.849 107.387C262.835 107.297 262.817 107.162 262.804 106.99C262.777 106.647 262.768 106.162 262.841 105.599C262.985 104.476 263.451 103.054 264.738 101.828L264.738 101.828C265.503 101.098 266.376 100.372 267.06 99.8258C267.402 99.5534 267.695 99.327 267.902 99.1689C267.929 99.1485 267.954 99.1293 267.978 99.1113L268.689 99.7726L266.833 101.983L266.741 102.093L266.744 102.236L266.809 105.384L266.816 105.756L267.188 105.757L272.899 105.773L272.957 105.773L273.012 105.756L279.287 103.814L279.666 105.044L279.798 105.473L280.199 105.273L280.577 105.085L281.162 106.707L280.024 107.385L279.746 107.55L279.864 107.851L280.41 109.248L277.831 111.121L274.719 111.791L274.796 112.544L278.401 112.582L278.51 112.583L278.604 112.526L280.245 111.522L280.412 112.026L278.127 113.338C278.118 113.342 278.106 113.346 278.092 113.351C278.05 113.367 277.987 113.39 277.904 113.419C277.738 113.476 277.491 113.558 277.174 113.651C276.54 113.838 275.624 114.072 274.505 114.258C272.266 114.629 269.227 114.806 266.01 114.037L265.822 113.992L265.675 114.117L255.334 122.881Z" fill="#FFA485" stroke="#FFA485" stroke-width="0.761841"/>
<path d="M255.175 123.51L250.723 112.688L259.882 108.735C259.088 111.909 259.099 115.5 259.655 119.719L255.175 123.515V123.51Z" fill="#E06A4B"/>
<path d="M260.566 134.695C263.26 133.223 259.115 125.154 259.115 125.154L250.371 128.897C250.371 128.897 257.603 136.317 260.572 134.7L260.566 134.695Z" fill="#09101D"/>
<path d="M248.72 113.25L255.245 110.687C255.245 110.687 257.118 124.354 261.62 126.025L248.715 134.164V113.25H248.72Z" fill="white"/>
<path d="M216.57 144.127C216.257 143.791 216.073 143.472 215.992 143.158C227.731 139.248 238.871 142.747 242.466 150.784C235.465 156.122 222.167 150.135 216.57 144.127Z" fill="#09101D"/>
<path d="M207.974 73.3423L200.078 108.399L209.869 135.127C213.857 146.009 226.319 151.092 236.758 146.095L260.559 134.694C260.559 134.694 254.79 136.214 248.718 113.245L232.478 120.243L214.872 86.9334C214.872 86.9334 214.883 81.0491 207.969 73.3477L207.974 73.3423Z" fill="#798087"/>
<path d="M254.179 128.437L236.832 136.977" stroke="#09101D" stroke-width="0.578999" stroke-miterlimit="10"/>
<path d="M248.493 128.307C249.143 128.307 249.67 127.779 249.67 127.128C249.67 126.477 249.143 125.949 248.493 125.949C247.843 125.949 247.316 126.477 247.316 127.128C247.316 127.779 247.843 128.307 248.493 128.307Z" fill="#E3E7EB"/>
<path d="M240.523 130.806C240.523 131.455 241.052 131.985 241.7 131.985C242.348 131.985 242.877 131.455 242.877 130.806C242.877 130.157 242.348 129.627 241.7 129.627C241.052 129.627 240.523 130.157 240.523 130.806Z" fill="#E3E7EB"/>
<path d="M232.485 120.243L222.062 124.911" stroke="#09101D" stroke-width="0.578999" stroke-miterlimit="10"/>
<path d="M229.786 119.789L219.051 120.244" stroke="#09101D" stroke-width="0.578999" stroke-miterlimit="10"/>
<path d="M205.524 84.2238C206.22 86.517 207.823 93.3423 206.393 104.008C206.215 105.327 206.312 106.679 206.738 107.939C209.232 115.397 207.418 122.412 206.339 125.489L200.078 108.399L205.524 84.2238Z" fill="#09101D"/>
<path d="M280.033 104.938L273.394 107.318L271.062 107.518" stroke="#E06A4B" stroke-width="0.761841" stroke-miterlimit="10"/>
<path d="M280.213 107.718L275.766 109.675L271.848 110.027" stroke="#E06A4B" stroke-width="0.761841" stroke-miterlimit="10"/>
<path d="M270.734 106.582L272.154 111.552" stroke="#E06A4B" stroke-width="0.761841" stroke-miterlimit="10"/>
<path d="M271.061 111.065C269.593 109.93 266.889 108.664 264.406 110.308" stroke="#E06A4B" stroke-width="0.761841" stroke-miterlimit="10"/>
<path d="M167.73 52.4308H173.69L174.316 63.7051L167.73 67.5787L161.139 63.705L161.765 52.4308H167.73Z" fill="#FFA485" stroke="#FFA485" stroke-width="0.761841"/>
<path d="M169.42 71.3683H166.025L164.422 65.9167H171.023L169.42 71.3683Z" fill="#BE7346"/>
<path d="M170.132 60.3082C171.216 60.3082 172.798 60.0486 174.455 59.313L174.05 52.0551H161.399L161.199 55.6624C163.936 59.313 168 60.3136 170.126 60.3136L170.132 60.3082Z" fill="#E06A4B"/>
<path d="M160.551 46.3977C161.349 47.9445 160.912 49.7617 159.574 50.4594C158.235 51.157 156.503 50.4594 155.704 48.9126C154.905 47.3658 155.342 45.5486 156.681 44.8509C158.019 44.1587 159.752 44.8509 160.551 46.3977Z" fill="#E06A4B"/>
<path d="M156.57 47.1981C156.954 45.5107 158.783 45.3431 160.305 47.2847" stroke="#FFA485" stroke-width="0.540907" stroke-miterlimit="10"/>
<path d="M174.903 46.3977C174.104 47.9445 174.542 49.7617 175.88 50.4594C177.219 51.1571 178.951 50.4594 179.75 48.9126C180.549 47.3658 180.112 45.5486 178.773 44.851C177.435 44.1587 175.702 44.851 174.903 46.3977Z" fill="#E06A4B"/>
<path d="M178.879 47.1981C178.496 45.5107 176.667 45.343 175.145 47.2846" stroke="#FFA485" stroke-width="0.540907" stroke-miterlimit="10"/>
<path d="M174.511 38.3199C174.281 39.8263 174.626 41.3498 175.46 42.599H175.385L175.94 43.2312L176.588 43.9695C176.313 49.0752 174.687 52.1535 172.857 53.9566C171.002 55.7853 168.91 56.3307 167.715 56.3307C166.519 56.3307 164.428 55.7853 162.572 53.9566C160.743 52.1535 159.116 49.0752 158.841 43.9695L159.49 43.2312C159.49 43.2312 159.49 43.2312 159.49 43.2312C160.67 41.8863 161.194 40.0858 160.924 38.3197L160.924 38.3196C160.851 37.8464 161.219 37.4171 161.697 37.4171H173.738C174.216 37.4171 174.584 37.8464 174.511 38.3196L174.511 38.3199Z" fill="#FFA485" stroke="#FFA485" stroke-width="0.761841"/>
<path d="M162.082 44.2399C162.892 45.3053 164.635 45.2783 165.774 44.1371" stroke="#09101D" stroke-width="0.571381" stroke-miterlimit="10"/>
<path d="M161.473 41.7577C162.914 40.9735 164.533 40.8437 165.974 41.7577" stroke="#09101D" stroke-width="0.761841" stroke-miterlimit="10"/>
<path d="M173.356 44.2399C172.546 45.3053 170.803 45.2783 169.664 44.1371" stroke="#09101D" stroke-width="0.571381" stroke-miterlimit="10"/>
<path d="M173.966 41.7577C172.525 40.9735 170.906 40.8437 169.465 41.7577" stroke="#09101D" stroke-width="0.761841" stroke-miterlimit="10"/>
<path d="M167.293 43.0501V46.9495L169.058 46.5872" stroke="#E06A4B" stroke-width="0.761841" stroke-miterlimit="10"/>
<path d="M164.699 48.2043C164.699 48.2043 167.079 49.8539 170.744 48.2043" stroke="#09101D" stroke-width="0.761841" stroke-miterlimit="10"/>
<path d="M166.676 50.5786H168.77" stroke="#E06A4B" stroke-width="0.761841" stroke-miterlimit="10"/>
<path d="M166.906 65.9167L164.644 70.7517L157.32 65.2298L159.215 61.7631L166.906 65.9167Z" fill="white"/>
<path d="M168.539 65.9167L170.801 70.7517L178.125 65.2298L176.23 61.7631L168.539 65.9167Z" fill="white"/>
<path d="M169.417 71.3682H166.027C166.027 71.3682 166.308 80.5948 168.985 85.4623C173.772 94.1481 184.319 92.358 186.996 96.3655C189.678 100.373 192.56 106.506 205.314 104.629L213.107 96.9713L205.012 93.2179C205.012 93.2179 199.496 95.5489 195.852 91.3899C192.209 87.2309 189.073 85.9166 183.962 86.0681C178.851 86.2195 170.453 83.3801 169.417 71.3628V71.3682Z" fill="#BE7346"/>
<path d="M169.919 74.6186C169.687 73.6181 169.514 72.5364 169.417 71.3628H166.027C166.027 71.3628 166.027 71.471 166.038 71.6603C167.182 72.3417 168.802 73.418 169.924 74.6132L169.919 74.6186Z" fill="#B1B7BD"/>
</g>
<defs>
<clipPath id="clip0_570_13900">
<rect width="268.954" height="220" fill="white" transform="translate(33 9.99997)"/>
</clipPath>
</defs>
</svg>
