<svg width="408" height="380" viewBox="0 0 408 380" fill="none" xmlns="http://www.w3.org/2000/svg">
<g clip-path="url(#clip0_304_45980)">
<ellipse cx="207.134" cy="374.3" rx="141.075" ry="5.7" fill="#EBD5C7"/>
<path d="M348.46 78.7125C351.028 82.6382 352.747 86.9467 353.665 91.3926L360.715 92.0599V105.78L353.665 106.448C352.747 110.894 351.018 115.202 348.46 119.128L352.962 124.594L343.314 134.291L337.875 129.766C333.969 132.348 329.682 134.075 325.259 134.998L324.595 142.083H310.943L310.279 134.998C305.856 134.075 301.569 132.338 297.663 129.766L292.224 134.291L282.577 124.594L287.078 119.128C284.51 115.202 282.791 110.894 281.873 106.448L274.823 105.78V92.0599L281.873 91.3926C282.791 86.9467 284.52 82.6382 287.078 78.7125L282.577 73.2459L292.224 63.5494L297.663 68.0738C301.569 65.4926 305.856 63.7653 310.279 62.8428L310.943 55.7568H324.595L325.259 62.8428C329.682 63.7653 333.969 65.5024 337.875 68.0738L343.314 63.5494L352.962 73.2459L348.46 78.7125ZM304.704 85.7886C297.487 93.0414 297.487 104.799 304.704 112.052C311.92 119.304 323.618 119.304 330.834 112.052C338.051 104.799 338.051 93.0414 330.834 85.7886C323.618 78.5358 311.92 78.5358 304.704 85.7886Z" fill="#EBD5C7"/>
<path d="M264.124 12.5043C265.52 14.6439 266.457 16.9895 266.955 19.4136L270.793 19.7767V27.2454L266.955 27.6086C266.457 30.0327 265.52 32.3783 264.124 34.5178L266.575 37.4916L261.321 42.7717L258.362 40.3083C256.234 41.7117 253.9 42.6539 251.488 43.1544L251.127 47.0114H243.696L243.334 43.1544C240.922 42.6539 238.589 41.7117 236.46 40.3083L233.501 42.7717L228.248 37.4916L230.698 34.5178C229.302 32.3783 228.365 30.0327 227.867 27.6086L224.029 27.2454V19.7767L227.867 19.4136C228.365 16.9895 229.302 14.6439 230.698 12.5043L228.248 9.53062L233.501 4.25052L236.46 6.71391C238.589 5.31047 240.922 4.36829 243.334 3.86776L243.696 0.0107422H251.127L251.488 3.86776C253.9 4.36829 256.234 5.31047 258.362 6.71391L261.321 4.25052L266.575 9.53062L264.124 12.5043ZM240.297 16.3614C236.372 20.3067 236.372 26.7155 240.297 30.6608C244.223 34.6062 250.599 34.6062 254.525 30.6608C258.45 26.7155 258.45 20.3067 254.525 16.3614C250.599 12.416 244.223 12.416 240.297 16.3614Z" fill="#EBD5C7"/>
<path d="M127.786 154.115C128.772 155.616 129.426 157.265 129.778 158.973L132.473 159.228V164.479L129.778 164.734C129.426 166.432 128.762 168.09 127.786 169.592L129.504 171.682L125.813 175.392L123.733 173.665C122.239 174.656 120.599 175.314 118.899 175.667L118.646 178.376H113.421L113.168 175.667C111.478 175.314 109.828 174.646 108.334 173.665L106.254 175.392L102.563 171.682L104.282 169.592C103.305 168.09 102.641 166.442 102.29 164.734L99.5944 164.479V159.228L102.29 158.973C102.641 157.275 103.305 155.616 104.282 154.115L102.563 152.024L106.254 148.315L108.334 150.042C109.828 149.051 111.468 148.393 113.168 148.04L113.421 145.331H118.646L118.899 148.04C120.589 148.393 122.239 149.06 123.733 150.042L125.813 148.315L129.504 152.024L127.786 154.115ZM111.039 156.824C108.275 159.601 108.275 164.096 111.039 166.873C113.802 169.651 118.275 169.651 121.038 166.873C123.801 164.096 123.801 159.601 121.038 156.824C118.275 154.046 113.802 154.046 111.039 156.824Z" fill="#EBD5C7"/>
<path d="M142.155 197.828C143.551 199.967 144.489 202.313 144.987 204.737L148.824 205.1V212.569L144.987 212.932C144.489 215.356 143.551 217.702 142.155 219.841L144.606 222.815L139.352 228.095L136.394 225.632C134.265 227.035 131.931 227.977 129.519 228.478L129.158 232.335H121.727L121.365 228.478C118.954 227.977 116.62 227.035 114.491 225.632L111.532 228.095L106.279 222.815L108.73 219.841C107.333 217.702 106.396 215.356 105.898 212.932L102.06 212.569V205.1L105.898 204.737C106.396 202.313 107.333 199.967 108.73 197.828L106.279 194.854L111.532 189.574L114.491 192.037C116.62 190.634 118.954 189.692 121.365 189.191L121.727 185.334H129.158L129.519 189.191C131.931 189.692 134.265 190.634 136.394 192.037L139.352 189.574L144.606 194.854L142.155 197.828ZM118.329 201.685C114.403 205.63 114.403 212.039 118.329 215.984C122.254 219.929 128.631 219.929 132.556 215.984C136.481 212.039 136.481 205.63 132.556 201.685C128.631 197.739 122.254 197.739 118.329 201.685Z" fill="#EBD5C7"/>
<path d="M174.112 165.696C174.112 168.189 177.559 170.191 181.748 170.122C185.938 170.053 189.306 168.022 189.277 165.529C189.248 163.036 185.83 161.034 181.641 161.113C177.452 161.191 174.073 163.213 174.103 165.696H174.112Z" fill="#09101D"/>
<path d="M170.844 157.472C170.433 157.079 170.189 156.539 170.15 155.97C170.15 153.526 175.267 151.475 181.644 151.416C188.02 151.357 193.205 153.261 193.234 155.705C193.205 156.274 192.971 156.804 192.57 157.207C192.688 157.442 192.756 157.698 192.775 157.953C192.756 158.522 192.512 159.062 192.102 159.454C192.238 159.7 192.307 159.965 192.316 160.249C192.297 160.828 192.043 161.368 191.613 161.751C191.76 161.996 191.848 162.271 191.848 162.556C191.809 163.125 191.545 163.645 191.106 164.008C191.262 164.253 191.35 164.538 191.36 164.823C191.36 166.854 187.112 168.562 181.81 168.611C176.507 168.66 172.201 167.109 172.172 165.039C172.172 164.744 172.259 164.46 172.406 164.214C171.967 163.861 171.703 163.341 171.664 162.781C171.664 162.497 171.742 162.222 171.879 161.977C171.449 161.613 171.176 161.093 171.137 160.524C171.137 160.249 171.205 159.974 171.342 159.719C170.912 159.356 170.639 158.826 170.599 158.257C170.619 157.982 170.707 157.707 170.853 157.472H170.844Z" fill="#09101D"/>
<path opacity="0.3" d="M170.844 157.472C170.433 157.079 170.189 156.539 170.15 155.97C170.15 153.526 175.267 151.475 181.644 151.416C188.02 151.357 193.205 153.261 193.234 155.705C193.205 156.274 192.971 156.804 192.57 157.207C192.688 157.442 192.756 157.698 192.775 157.953C192.756 158.522 192.512 159.062 192.102 159.454C192.238 159.7 192.307 159.965 192.316 160.249C192.297 160.828 192.043 161.368 191.613 161.751C191.76 161.996 191.848 162.271 191.848 162.556C191.809 163.125 191.545 163.645 191.106 164.008C191.262 164.253 191.35 164.538 191.36 164.823C191.36 166.854 187.112 168.562 181.81 168.611C176.507 168.66 172.201 167.109 172.172 165.039C172.172 164.744 172.259 164.46 172.406 164.214C171.967 163.861 171.703 163.341 171.664 162.781C171.664 162.497 171.742 162.222 171.879 161.977C171.449 161.613 171.176 161.093 171.137 160.524C171.137 160.249 171.205 159.974 171.342 159.719C170.912 159.356 170.639 158.826 170.599 158.257C170.619 157.982 170.707 157.707 170.853 157.472H170.844Z" fill="white"/>
<path d="M161.285 135.919C161.148 124.583 170.191 115.279 181.469 115.152C192.748 115.024 202.005 124.102 202.132 135.438C202.2 141.591 199.524 147.451 194.837 151.406C193.978 152.122 193.519 153.221 193.626 154.34C193.626 154.399 193.626 154.448 193.626 154.507C193.626 156.98 188.412 159.061 181.948 159.13C175.483 159.208 170.2 157.255 170.171 154.762V154.605C170.269 153.467 169.79 152.348 168.902 151.631C164.146 147.804 161.354 142.033 161.275 135.919H161.285Z" fill="#D29D7E"/>
<path d="M171.314 123.995C171.314 127.989 175.972 131.238 181.743 131.238C187.514 131.238 192.172 127.989 192.172 123.995C192.172 120.001 187.514 116.742 181.743 116.742C175.972 116.742 171.314 119.991 171.314 123.995Z" fill="#D29D7E"/>
<path d="M197.269 143.486C199.046 140.424 199.749 136.744 199.241 133.24C198.724 129.736 196.995 126.419 194.408 124.005" stroke="#F8F1EC" stroke-width="1.49606" stroke-linecap="round" stroke-linejoin="round"/>
<path d="M191.133 164.056C185.215 166.499 178.448 166.588 172.472 164.281C178.321 166.882 185.352 166.794 191.133 164.056Z" fill="#09101D"/>
<path d="M191.281 161.849C185.364 164.292 178.597 164.381 172.621 162.074C178.47 164.675 185.5 164.587 191.281 161.849Z" fill="#09101D"/>
<path d="M191.418 159.65C185.5 162.094 178.733 162.182 172.757 159.876C178.606 162.477 185.637 162.389 191.418 159.65Z" fill="#09101D"/>
<path d="M186.13 154.782C184.567 149.423 184.284 143.574 185.339 138.048C185.505 137.155 185.915 136.086 186.706 136.056C187.419 136.037 187.887 136.92 188.044 137.715C188.591 140.531 187.136 143.397 185.27 145.35C184.265 146.4 183.044 147.323 181.677 147.392C180.31 147.46 179.001 146.646 178.015 145.556C176.121 143.486 175.174 140.227 175.857 137.332C176.15 136.105 177.009 134.79 178.103 135.026C178.757 135.163 179.236 135.86 179.412 136.606C179.587 137.352 179.499 138.127 179.402 138.883C178.708 144.339 177.38 149.688 175.467 154.752" stroke="white" stroke-width="0.997375" stroke-linecap="round" stroke-linejoin="round"/>
<path d="M103.168 314.98V269.314C103.168 267.234 100.785 266.076 99.1546 267.361L70.2799 290.189C69.0203 291.19 69.0203 293.104 70.2799 294.105L99.1546 316.933C100.776 318.219 103.168 317.051 103.168 314.98Z" fill="#D29D7E"/>
<path d="M98.4893 278.569H234.719V305.716H98.4893V278.569Z" fill="#D29D7E"/>
<path d="M210.834 305.766H338.598L324.009 291.938L338.598 277.933H210.834C155.985 277.933 111.36 233.081 111.36 177.954C111.36 122.827 155.985 77.9759 210.834 77.9759V50.1523C140.723 50.1523 83.6766 107.487 83.6766 177.954C83.6766 248.421 140.723 305.756 210.834 305.756V305.766Z" fill="white"/>
<path d="M305.624 267.264C327.087 243.337 338.902 212.412 338.902 180.172C338.902 121.109 299.257 69.3782 242.494 54.3525L252.034 66.3849L235.317 81.7443C279.708 93.492 310.711 133.956 310.711 180.162C310.711 205.375 301.464 229.567 284.678 248.283L305.604 267.254L305.624 267.264Z" fill="#D29D7E"/>
<path d="M302.838 268.884C301.793 268.619 267.294 268.884 267.294 268.884L284.695 248.294L305.621 267.265L302.838 268.884Z" fill="#D29D7E"/>
<path d="M210.3 40.0235L207.742 85.6207C207.625 87.7014 209.939 88.9969 211.638 87.7995L241.753 66.6399C243.071 65.7173 243.178 63.7937 241.968 62.7338L214.411 38.306C212.859 36.932 210.417 37.9625 210.3 40.0333V40.0235Z" fill="white"/>
<path d="M224.53 137.352C219.208 140.925 217.695 146.048 217.763 149.767C218.427 154.782 220.155 158.335 221.503 163.213L234.734 133.858C231.639 134.477 230.252 133.839 224.53 137.362V137.352Z" fill="#09101D"/>
<path d="M231.158 134.761C236.343 132.337 241.43 135.193 244.399 137.185C247.641 139.953 249.555 143.986 249.652 148.256C249.652 152.25 249.652 157.098 247.24 159.189C245.893 160.396 244.096 160.975 242.299 160.788L222.623 142.544C224.762 139.266 227.701 136.586 231.158 134.761Z" fill="#09101D"/>
<path d="M230.828 188.818C232.342 190.389 233.718 189.859 235.74 189.034C247.751 184.696 244.196 178.857 244.196 178.857C241.921 176.168 241.814 172.959 242.644 168.051C242.663 167.904 242.663 167.767 242.663 167.62C242.663 166.962 242.448 166.334 242.067 165.804C241.062 164.332 239.06 163.949 237.595 164.96L232.215 166.501C232.205 166.579 232.185 166.648 232.166 166.736C232.146 169.416 232.224 171.496 232.205 173.135C232.166 173.332 232.205 173.538 232.195 173.734C232.156 173.93 232.176 174.146 232.176 174.333C232.049 176.57 228.27 179.868 226.737 180.653C225.799 181.193 225.702 183.529 230.838 188.818H230.828Z" fill="#FFA485"/>
<path opacity="0.2" d="M232.21 166.491C232.21 166.569 232.19 166.657 232.161 166.736C232.151 169.415 232.22 171.496 232.2 173.135C232.21 173.331 232.2 173.537 232.19 173.734C232.181 173.94 232.151 174.146 232.112 174.352C236.204 173.233 239.846 170.887 242.57 167.619C242.57 166.971 242.375 166.343 242.014 165.813C241.027 164.331 239.026 163.929 237.541 164.91L232.2 166.491H232.21Z" fill="#09101D"/>
<path d="M246.716 149.434C246.511 158.679 246.628 162.585 242.253 167.6C235.672 175.138 224.657 173.126 222.118 164.057C219.901 155.892 220.565 142.171 229.237 137.932C237.908 133.692 246.911 140.179 246.716 149.434Z" fill="#FFA485"/>
<path d="M250.785 157.344C249.857 159.336 248.187 160.681 246.596 161.231C244.203 162.055 242.612 158.208 243.237 155.686C243.803 153.409 246.078 151.74 248.5 152.015C250.882 152.29 251.849 155.067 250.785 157.344Z" fill="#FFA485"/>
<path opacity="0.2" d="M245.58 157.296C245.561 156.413 245.912 155.53 246.518 154.892C247.123 154.254 247.992 153.871 248.871 153.852" stroke="#09101D" stroke-width="0.498688" stroke-linecap="round" stroke-linejoin="round"/>
<path d="M234.709 153.408C234.748 154.39 234.289 155.243 233.683 155.312C233.078 155.381 232.56 154.625 232.521 153.644C232.482 152.662 232.941 151.808 233.547 151.74C234.152 151.671 234.67 152.427 234.709 153.408Z" fill="#09101D"/>
<path d="M225.612 154.154C225.641 155.106 225.182 155.94 224.577 155.999C223.971 156.068 223.454 155.342 223.425 154.39C223.395 153.438 223.854 152.603 224.46 152.545C225.065 152.476 225.583 153.202 225.612 154.154Z" fill="#09101D"/>
<path d="M236.35 149.826C236.233 149.846 236.116 149.826 236.008 149.748C234.475 148.541 232.913 149.149 232.893 149.149C232.659 149.238 232.415 149.12 232.337 148.884C232.259 148.649 232.395 148.374 232.63 148.286C232.708 148.256 234.671 147.501 236.575 148.992C236.76 149.139 236.79 149.434 236.633 149.64C236.555 149.738 236.458 149.807 236.35 149.826Z" fill="#09101D"/>
<path d="M222.152 149.757C222.054 149.737 221.976 149.669 221.927 149.571C221.83 149.364 221.908 149.09 222.103 148.952C224.115 147.578 225.755 148.354 225.823 148.393C226.019 148.491 226.087 148.746 225.97 148.972C225.862 149.198 225.609 149.306 225.413 149.207C225.345 149.178 224.066 148.599 222.474 149.688C222.367 149.757 222.259 149.777 222.152 149.757Z" fill="#09101D"/>
<path d="M228.039 153.496C228.039 153.496 226.887 157.088 225.442 159.394C225.188 159.797 225.412 160.337 225.871 160.464C227.043 160.788 228.352 160.297 228.352 160.297L228.049 153.506L228.039 153.496Z" fill="#A24E3F"/>
<path d="M233.906 151.751L231.748 151.427C231.748 151.427 233.037 152.919 233.906 151.751Z" fill="#09101D"/>
<path d="M224.68 152.545L222.522 152.221C222.522 152.221 223.811 153.712 224.68 152.545Z" fill="#09101D"/>
<path d="M228.96 162.831C229.721 163.695 230.747 165.432 230.747 165.432C230.923 165.363 231.089 165.304 231.264 165.226C233.588 164.283 234.36 163.076 234.506 162.026C234.584 161.447 234.467 160.917 234.321 160.495C234.155 160.014 233.93 159.71 233.93 159.71C232.993 160.947 230.893 161.997 229.741 162.507C229.263 162.723 228.95 162.841 228.95 162.841L228.96 162.831Z" fill="#09101D"/>
<path d="M229.752 162.497L230.299 163.253C232.486 162.36 233.912 161.437 234.332 160.495C234.166 160.014 233.941 159.71 233.941 159.71C233.004 160.947 230.905 161.997 229.752 162.507V162.497Z" fill="white"/>
<path d="M231.266 165.216C233.59 164.274 234.361 163.067 234.508 162.017C233.727 162.37 232.828 162.88 232.125 163.577C231.588 164.107 231.354 164.686 231.256 165.226L231.266 165.216Z" fill="#DE5753"/>
<path d="M243.525 151.681C243.525 151.681 238.272 145.646 238.106 140.483C238.106 140.483 219.309 136.293 221.037 152.604C221.037 152.604 216.975 138.501 232.335 136.194C247.695 133.888 250.869 154.056 243.906 161.083C243.877 161.015 246.777 155.46 243.525 151.681Z" fill="#09101D"/>
<path d="M259.918 139.403C259.557 143.614 255.875 146.725 251.686 146.372C247.497 146.008 244.402 142.308 244.753 138.098C245.095 134.143 248.386 131.11 252.331 131.11C256.696 131.316 260.074 135.016 259.908 139.403H259.918Z" fill="#09101D"/>
<path d="M225.347 138.216C223.325 140.169 221.978 142.711 221.49 145.488C221.49 147.5 224.214 148.953 224.214 148.953L227.544 144.566V148.423C232.993 147.824 236.147 144.909 238.012 140.718L234.975 135.262C234.975 135.262 227.163 136.646 225.356 138.216H225.347Z" fill="#09101D"/>
<path d="M251.326 143.81C251.795 145.989 253.084 147.981 254.871 149.306C253.904 149.385 252.918 149.149 252.108 148.639C252.147 149.424 252.322 150.209 252.625 150.935C250.418 149.09 249.12 146.205 249.188 143.319L251.336 143.81H251.326Z" fill="#09101D"/>
<path d="M143.702 342.785L152.822 343.05C152.822 343.05 169.09 311.566 176.912 293.9C186.149 273.035 184.108 266.312 186.882 266.194C191.998 265.968 244.172 290.082 257.237 276.705C270.313 263.328 251.398 231.108 251.398 231.108C251.398 231.108 222.279 226.584 219.897 233.728C219.311 235.839 218.041 238.017 217.739 240.186C217.387 242.326 216.674 245.496 216.674 245.496C215.981 245.319 196.022 243.376 183.64 243.67C176.179 243.847 169.53 248.401 166.561 255.281C155.361 281.239 143.702 342.795 143.702 342.795V342.785Z" fill="#09101D"/>
<path d="M235.537 279.924C235.537 279.924 233.408 279.924 200.384 278.423C200.384 278.423 204.915 289.179 206.184 311.349C206.702 320.467 205.256 349.998 206.389 363.071C205.813 363.885 199.749 366.584 196.048 363.856C196.048 363.856 174.624 286.146 174.839 275.606C175.054 265.055 187.221 261.954 187.221 261.954C187.221 261.954 210.656 275.606 235.547 279.934L235.537 279.924Z" fill="#09101D"/>
<path opacity="0.2" d="M204.83 271.238C200.309 269.403 195.866 267.381 191.521 265.183C183.973 261.355 174.696 266.282 173.983 274.742C173.964 275.027 173.944 275.311 173.934 275.606C173.827 279.885 177.635 295.951 183.074 313.41C182.938 312.38 182.742 311.349 182.488 310.339C177.088 288.531 174.384 277.206 177.089 271.925C178.905 268.647 181.795 266.096 185.271 264.712L214.781 279.168C231.039 279.885 233.461 279.914 233.754 279.914C223.843 278.04 214.146 275.135 204.83 271.238Z" fill="#09101D"/>
<path d="M194.495 359.45C194.456 358.979 194.866 358.586 195.335 358.586H198.108C198.811 358.567 199.573 359.823 200.002 360.382C201.848 362.787 203.166 361.835 205.06 359.479C206.291 359.303 206.662 360.726 206.769 361.099L209.289 369.509C209.503 370.216 209.113 370.962 208.42 371.178C208.293 371.217 208.166 371.237 208.039 371.237C204.279 371.325 202.492 371.374 197.815 371.482L183.49 371.826C179.584 371.924 178.686 367.988 180.277 367.586C187.474 365.8 192.542 363.542 194.72 361.373C195.022 361.089 194.563 360.304 194.495 359.44V359.45Z" fill="#855131"/>
<path d="M193.266 362.276C194.34 362.394 195.346 363.012 195.941 363.915" stroke="white" stroke-width="0.498688" stroke-linecap="round" stroke-linejoin="round"/>
<path d="M191.254 363.532C192.328 363.65 193.334 364.268 193.93 365.171" stroke="white" stroke-width="0.498688" stroke-linecap="round" stroke-linejoin="round"/>
<path d="M188.77 364.818C189.844 364.936 190.85 365.554 191.445 366.457" stroke="white" stroke-width="0.498688" stroke-linecap="round" stroke-linejoin="round"/>
<path d="M144.139 336.651L147.059 337.711C147.723 337.947 148.211 338.506 148.406 339.183C149.256 342.098 150.838 341.686 153.445 340.175C154.656 340.459 154.49 341.912 154.451 342.304L153.777 351.059C153.728 351.795 153.093 352.344 152.361 352.295C152.234 352.295 152.107 352.256 151.98 352.217C148.436 350.931 146.766 350.333 142.362 348.733L128.886 343.855C125.215 342.52 125.781 338.526 127.422 338.732C134.765 339.684 140.311 339.419 143.123 338.192C143.641 337.986 143.328 337.584 144.139 336.651Z" fill="#855131"/>
<path d="M141.311 338.565C142.268 339.066 142.98 340.008 143.215 341.068" stroke="white" stroke-width="0.498688" stroke-linecap="round" stroke-linejoin="round"/>
<path d="M139.006 338.889C139.963 339.389 140.676 340.331 140.91 341.391" stroke="white" stroke-width="0.498688" stroke-linecap="round" stroke-linejoin="round"/>
<path d="M136.342 339.223C137.299 339.723 138.012 340.665 138.246 341.725" stroke="white" stroke-width="0.498688" stroke-linecap="round" stroke-linejoin="round"/>
<path d="M211.456 244.956L215.646 245.359C215.646 245.359 215.987 242.464 216.339 240.324C216.642 238.155 219.014 230.863 219.6 228.753C231.592 229.95 251.932 229.224 251.932 229.224C251.932 229.224 270.29 263.348 257.244 276.696C249.403 284.694 226.309 280.013 209.211 272.986L211.456 244.956Z" fill="#09101D"/>
<path opacity="0.3" d="M215.648 244.201L234.035 248.058C234.035 248.058 223.977 242.572 216.341 240.344C215.99 242.532 215.648 244.201 215.648 244.201Z" fill="#09101D"/>
<path d="M188.671 200.762C188.573 199.133 193.358 208.447 193.358 208.447L201.453 202.705L195.008 196.188C195.008 196.188 188.466 200.477 188.573 200.615" fill="#FFA485"/>
<path d="M221.15 179.691C216.815 181.82 213.534 185.628 212.001 190.221C209.257 198.475 208.066 208.388 208.066 208.388L197.842 199.241L190.225 204.923C190.225 204.923 200.224 220.155 206.952 226.093C212.538 231.029 218.875 221.46 218.875 221.46L221.629 179.455L221.141 179.691H221.15Z" fill="#09101D"/>
<path opacity="0.2" d="M240.906 234.229L243.103 268.863L262.809 266.498V262.935L240.906 234.229Z" fill="#09101D"/>
<path d="M250.432 235.092C251.203 226.309 254.309 210.203 259.65 193.293C261.388 187.797 255.178 181.712 255.178 181.712C255.178 181.712 251.164 181.398 250.432 181.31C249.631 181.212 248.801 181.133 247.971 181.065C241.732 180.544 236.615 180.162 231.049 180.486C229.652 180.564 228.217 180.682 226.801 180.809C226.342 180.859 223.393 180.898 222.944 180.947C222.944 180.947 214.937 190.359 214.507 197.003C214.273 200.713 212.486 202.313 212.691 211.195C212.73 217.221 217.085 226.014 217.476 234.494L250.432 235.092Z" fill="white"/>
<path d="M239.526 205.571C239.946 191.782 241.567 183.027 242.299 179.681C242.494 178.797 243.314 178.218 244.203 178.326L249.505 179.445C254.7 180.839 257.483 180.083 260.374 183.96C260.93 184.706 261.399 190.486 261.36 191.281C261.292 192.704 260.305 197.052 259.007 202.303C258.108 205.944 257.044 210.036 256.028 213.893C254.73 218.81 253.636 220.086 253.216 221.666L266.662 261.522C267.043 262.592 266.33 263.73 265.207 263.848L245.912 265.87C244.965 265.968 244.115 265.291 244.008 264.349C243.041 256.252 239.047 221.421 239.526 205.571Z" fill="#09101D"/>
<path d="M214.175 232.58C214.175 232.58 210.123 207.367 211.207 201.056C212.291 194.746 221.636 179.445 221.636 179.445L225.903 179.151L230.961 177.09C230.961 177.09 219.292 191.242 216.431 201.449C214.546 208.162 218.306 229.38 217.866 234.504L215.698 245.103L210.328 244.867L214.175 232.59V232.58Z" fill="#09101D"/>
<path d="M243.022 176.157C243.022 176.157 237.778 186.57 239.761 212.765L248.481 193.931L245.327 188.788L249.516 180.377C249.516 180.377 245.034 177.482 243.149 175.951L243.022 176.157Z" fill="#09101D"/>
<g opacity="0.2">
<path d="M243.03 176.158C243.03 176.158 237.786 186.571 239.768 212.766L248.488 193.932L245.334 188.789L249.523 180.378C249.523 180.378 245.041 177.483 243.157 175.952L243.03 176.158Z" fill="#D29D7E"/>
</g>
<path d="M216.156 212.912C216.156 212.912 214.203 207.131 214.564 201.802C214.925 196.473 215.003 192.498 215.003 192.498L221.018 188.023L220.227 182.576C220.227 182.576 223.128 180.79 225.823 178.955C227.668 177.698 231.281 175.804 231.75 175.951C231.75 175.951 216.38 195.502 216.302 203.5C216.224 211.214 216.146 212.922 216.146 212.922L216.156 212.912Z" fill="#09101D"/>
<path opacity="0.3" d="M216.156 212.912C216.156 212.912 214.203 207.131 214.564 201.802C214.925 196.473 215.003 192.498 215.003 192.498L221.018 188.023L220.227 182.576C220.227 182.576 223.128 180.79 225.823 178.955C227.668 177.698 231.281 175.804 231.75 175.951C231.75 175.951 216.38 195.502 216.302 203.5C216.224 211.214 216.146 212.922 216.146 212.922L216.156 212.912Z" fill="#D29D7E"/>
<path opacity="0.3" d="M213.195 226.318L211.096 206.876L210.324 226.956C210.324 226.956 212.336 226.858 213.195 226.328V226.318Z" fill="#09101D"/>
<path d="M227.882 181.163L232.013 175.461L233.985 178.857L242.149 173.92L243.164 175.961L240.264 184.51C240.264 184.51 233.018 187.493 232.638 187.493C232.257 187.493 227.892 181.182 227.892 181.182L227.882 181.163Z" fill="white"/>
<path opacity="0.3" d="M227.679 181.427L229.378 185.627L233.577 181.427L236.438 186.363L240.715 184.253L236.155 187.885L233.518 182.477L228.704 187.041L227.679 181.427Z" fill="#09101D"/>
<path opacity="0.3" d="M250.205 221.126L251.856 202.558L253.125 222.785L234.025 230.587L250.205 221.126Z" fill="#09101D"/>
<path d="M257.768 181.427C257.768 181.427 263.832 182.919 264.994 189.582C266.156 196.237 267.709 229.517 266.39 231.627C265.072 233.737 228.171 245.661 228.171 245.661L224.216 235.366L252.095 221.813C252.095 221.813 251.87 212.303 251.636 204.893C251.519 200.977 251.392 197.64 251.313 196.619C251.06 193.646 257.768 181.437 257.768 181.437V181.427Z" fill="#09101D"/>
<path d="M224.352 235.995C224.352 235.995 212.751 238.792 210.066 241.118C208.875 242.149 208.904 243.847 208.904 243.847L227.691 244.691L224.362 235.995H224.352Z" fill="#FFA485"/>
<path opacity="0.3" d="M257.875 235.466C257.504 235.603 241.548 241.315 241.548 241.315V243.327L258.695 237.88L257.885 235.466H257.875Z" fill="#09101D"/>
<path opacity="0.2" d="M233.52 182.478C224.829 197.709 225.307 217.524 224.829 234.346" stroke="#09101D" stroke-width="0.498688" stroke-linecap="round" stroke-linejoin="round"/>
<path d="M194.586 197.152C194.586 197.152 196.158 194.629 195.592 192.235C195.016 189.84 195.191 187.779 194.645 186.032C194.098 184.285 193.121 186.552 192.848 187.867C192.574 189.183 192.242 190.664 191.295 190.301C190.348 189.938 184.831 183.107 183.454 182.754C182.077 182.391 182.634 183.775 182.634 183.775C182.634 183.775 181.247 182.155 180.466 182.528C180.261 182.627 179.939 183.186 180.466 184.02C181.628 185.905 184.265 189.732 184.265 189.732C184.118 189.506 180.525 185.011 179.9 184.413C179.079 183.628 178.298 183.677 177.859 184.167C177.234 184.864 181.491 190.596 181.511 190.959C181.511 190.959 179.167 187.583 177.966 187.71C176.765 187.838 178.132 190.046 179.695 191.764C181.13 193.334 183.542 196.808 185.153 198.261C187.145 200.057 188.883 200.812 191.178 199.802C193.473 198.791 194.596 197.132 194.596 197.132L194.586 197.152Z" fill="#FFA485"/>
<path opacity="0.3" d="M182.856 183.951C183.93 185.276 184.945 186.65 185.902 188.073" stroke="#09101D" stroke-width="0.498688" stroke-linecap="round" stroke-linejoin="round"/>
<path opacity="0.3" d="M182.36 192.314C183.639 190.518 185.455 189.104 187.516 188.319" stroke="#09101D" stroke-width="0.498688" stroke-linecap="round" stroke-linejoin="round"/>
<path opacity="0.3" d="M191.008 191.371C190.402 192.038 190.041 192.922 190.002 193.825C189.963 194.728 190.246 195.64 190.783 196.357" stroke="#09101D" stroke-width="0.498688" stroke-linecap="round" stroke-linejoin="round"/>
<path d="M177.399 244.172H207.494C208.012 244.172 208.431 243.829 208.422 243.407C208.422 243.328 208.402 243.25 208.373 243.171L194.985 212.325C194.643 211.441 193.638 210.843 192.495 210.833H162.38C161.873 210.833 161.463 211.167 161.463 211.579C161.463 211.667 161.482 211.746 161.521 211.834L174.909 242.68C175.251 243.554 176.256 244.162 177.399 244.172Z" fill="#09101D"/>
<path opacity="0.7" d="M162.385 210.843H192.499C193.642 210.843 194.648 211.451 194.989 212.335L208.377 243.181C208.406 243.259 208.426 243.338 208.426 243.416C208.426 243.838 208.016 244.182 207.498 244.182H177.403C176.26 244.182 175.255 243.573 174.913 242.69L161.525 211.844C161.486 211.765 161.467 211.677 161.467 211.589C161.467 211.176 161.877 210.843 162.385 210.843Z" fill="white"/>
<path d="M181.037 228.194C181.691 229.676 183.01 230.687 183.986 230.481C184.972 230.275 185.226 228.921 184.601 227.439C183.966 225.957 182.638 224.966 181.652 225.172C180.666 225.378 180.373 226.673 181.037 228.194Z" fill="white"/>
<path opacity="0.3" d="M192.312 210.842H192.488C193.63 210.842 194.636 211.45 194.978 212.334L208.365 243.18C208.395 243.258 208.414 243.337 208.414 243.415C208.414 243.837 208.004 244.181 207.486 244.181H206.52L192.312 210.852V210.842Z" fill="#09101D"/>
<path d="M231.891 244.436V246.939L207.918 244.476L207.566 241.306L231.891 244.436Z" fill="#09101D"/>
<path opacity="0.7" d="M231.891 244.436V246.939L207.918 244.476L207.566 241.306L231.891 244.436Z" fill="white"/>
<path opacity="0.3" d="M297.207 84.512H279.591C277.394 84.512 275.617 82.7258 275.617 80.5175V68.3184C275.617 68.3184 290.655 77.9953 297.197 84.512H297.207Z" fill="#09101D"/>
<path opacity="0.2" d="M114.598 93.6244H138.82C141.841 93.6244 144.285 91.1945 144.285 88.1906V68.8418C144.285 68.8418 123.944 83.7114 115.147 93.6244H114.598Z" fill="#09101D"/>
<path d="M49.8842 34.6162H137.123C139.329 34.6162 141.117 36.4134 141.117 38.6303V87.4073C141.117 89.6242 139.329 91.4214 137.123 91.4214H49.8842C47.6785 91.4214 45.8904 89.6242 45.8904 87.4073V38.6303C45.8904 36.4134 47.6785 34.6162 49.8842 34.6162Z" fill="white"/>
<path d="M126.805 66.169C126.395 65.796 115.243 54.7353 115.243 54.7353L104.248 60.1724L93.5066 47.4629L82.5114 63.3817L71.7895 56.3546" stroke="#09101D" stroke-width="0.498688" stroke-miterlimit="10"/>
<path d="M123.352 71.1455H128.508V82.6184H123.352V71.1455Z" fill="#D29D7E"/>
<path d="M112.75 63.5586H117.906V82.618H112.75V63.5586Z" fill="#D29D7E"/>
<path d="M101.934 65.4824H107.09V82.628H101.934V65.4824Z" fill="#D29D7E"/>
<path d="M90.9301 54.7354H96.0859V82.6276H90.9301V54.7354Z" fill="#D29D7E"/>
<path d="M79.8051 69.5254H84.9609V82.6275H79.8051V69.5254Z" fill="#D29D7E"/>
<path d="M123.168 64.8644C123.168 66.4053 124.409 67.6517 125.942 67.6517C127.475 67.6517 128.715 66.4053 128.715 64.8644C128.715 63.3236 127.475 62.0771 125.942 62.0771C124.409 62.0771 123.168 63.3236 123.168 64.8644Z" fill="#D29D7E"/>
<path d="M112.551 54.7345C112.551 56.2754 113.791 57.5218 115.324 57.5218C116.857 57.5218 118.098 56.2754 118.098 54.7345C118.098 53.1937 116.857 51.9473 115.324 51.9473C113.791 51.9473 112.551 53.1937 112.551 54.7345Z" fill="#D29D7E"/>
<path d="M101.481 59.299C101.481 60.8398 102.721 62.0862 104.254 62.0862C105.787 62.0862 107.027 60.8398 107.027 59.299C107.027 57.7581 105.787 56.5117 104.254 56.5117C102.721 56.5117 101.481 57.7581 101.481 59.299Z" fill="#D29D7E"/>
<path d="M90.7387 47.4621C90.7387 49.0029 91.9789 50.2493 93.5119 50.2493C95.045 50.2493 96.2852 49.0029 96.2852 47.4621C96.2852 45.9212 95.045 44.6748 93.5119 44.6748C91.9789 44.6748 90.7387 45.9212 90.7387 47.4621Z" fill="#D29D7E"/>
<path d="M79.7465 63.382C79.7465 64.9228 80.9867 66.1692 82.5198 66.1692C84.0528 66.1692 85.293 64.9228 85.293 63.382C85.293 61.8411 84.0528 60.5947 82.5198 60.5947C80.9867 60.5947 79.7465 61.8411 79.7465 63.382Z" fill="#D29D7E"/>
<path d="M68.7895 62.9492H73.9453V82.6171H68.7895V62.9492Z" fill="#D29D7E"/>
<path opacity="0.3" d="M112.75 63.5586H117.906V82.618H112.75V63.5586Z" fill="#09101D"/>
<path opacity="0.3" d="M90.9301 54.7354H96.0859V82.6276H90.9301V54.7354Z" fill="#09101D"/>
<path opacity="0.3" d="M68.7895 62.9492H73.9453V82.6171H68.7895V62.9492Z" fill="#09101D"/>
<path d="M57.3832 69.5254H62.5391V82.6275H57.3832V69.5254Z" fill="#D29D7E"/>
<path d="M71.7969 56.3545L59.9619 62.9497" stroke="#09101D" stroke-width="0.498688" stroke-miterlimit="10"/>
<path d="M68.4067 56.3546C68.4067 57.8955 69.6468 59.1419 71.1799 59.1419C72.713 59.1419 73.9531 57.8955 73.9531 56.3546C73.9531 54.8138 72.713 53.5674 71.1799 53.5674C69.6468 53.5674 68.4067 54.8138 68.4067 56.3546Z" fill="#D29D7E"/>
<path d="M57.1996 62.9494C57.1996 64.4902 58.4398 65.7366 59.9729 65.7366C61.506 65.7366 62.7461 64.4902 62.7461 62.9494C62.7461 61.4085 61.506 60.1621 59.9729 60.1621C58.4398 60.1621 57.1996 61.4085 57.1996 62.9494Z" fill="#D29D7E"/>
<path d="M284.371 15.6357H351.172C353.836 15.6357 355.996 17.8064 355.996 20.484V75.395C355.996 78.0726 353.836 80.2433 351.172 80.2433H284.371C281.707 80.2433 279.547 78.0726 279.547 75.395V20.484C279.547 17.8064 281.707 15.6357 284.371 15.6357Z" fill="white"/>
<path d="M351.475 15.6357H283.98C281.529 15.6357 279.537 17.6379 279.537 20.1012V26.9026H355.996V20.1798C355.996 17.6771 353.975 15.6357 351.475 15.6357Z" fill="#D29D7E"/>
<path opacity="0.5" d="M283.864 22.0825C283.864 23.4369 284.957 24.5459 286.315 24.5459C287.672 24.5459 288.766 23.4467 288.766 22.0825C288.766 20.7183 287.672 19.6191 286.315 19.6191C284.957 19.6191 283.864 20.7183 283.864 22.0825Z" fill="white"/>
<path opacity="0.5" d="M290.813 22.0825C290.813 23.4369 291.907 24.5459 293.264 24.5459C294.621 24.5459 295.715 23.4467 295.715 22.0825C295.715 20.7183 294.621 19.6191 293.264 19.6191C291.907 19.6191 290.813 20.7183 290.813 22.0825Z" fill="white"/>
<path opacity="0.5" d="M297.77 22.0825C297.77 23.4369 298.864 24.5459 300.221 24.5459C301.578 24.5459 302.672 23.4467 302.672 22.0825C302.672 20.7183 301.578 19.6191 300.221 19.6191C298.864 19.6191 297.77 20.7183 297.77 22.0825Z" fill="white"/>
<path d="M318.984 53.3906L312.354 35.0869C309.884 35.9898 307.618 37.3933 305.704 39.1991C303.79 41.0049 302.257 43.1935 301.212 45.6078L318.984 53.3906Z" fill="#EBD5C7"/>
<path d="M318.984 53.3906L313.33 72.0279C315.166 72.5874 317.07 72.872 318.984 72.872C329.618 72.872 338.367 64.0784 338.367 53.3906C338.367 42.7028 329.618 33.9092 318.984 33.9092C316.758 33.9092 314.541 34.2919 312.442 35.0575L318.984 53.4004V53.3906Z" fill="#D29D7E"/>
<path d="M318.984 53.3907L301.173 45.6963C300.128 48.1302 299.601 50.7507 299.601 53.3907C299.601 61.9095 305.167 69.4862 313.262 72.0084L318.984 53.3907Z" fill="#D29D7E"/>
<path opacity="0.3" d="M318.984 53.3907L301.173 45.6963C300.128 48.1302 299.601 50.7507 299.601 53.3907C299.601 61.9095 305.167 69.4862 313.262 72.0084L318.984 53.3907Z" fill="black"/>
</g>
<defs>
<clipPath id="clip0_304_45980">
<rect width="407.927" height="380" fill="white" transform="matrix(-1 0 0 1 408 0)"/>
</clipPath>
</defs>
</svg>
