<svg width="318" height="201" viewBox="0 0 318 201" fill="none" xmlns="http://www.w3.org/2000/svg">
<g clip-path="url(#clip0_570_26625)">
<path d="M-0.0234375 191.48H315.192" stroke="#09101D" stroke-width="0.434181" stroke-linecap="round"/>
<g clip-path="url(#clip1_570_26625)">
<path opacity="0.5" fill-rule="evenodd" clip-rule="evenodd" d="M116.147 148.649C117.615 148.832 119.034 149.214 120.367 149.765L123.472 147.164L128.804 151.22L127.123 154.902C128.009 156.043 128.756 157.307 129.325 158.675L133.358 159.031L134.257 165.669L130.466 167.085C130.284 168.552 129.902 169.972 129.351 171.305L131.951 174.409L127.896 179.737L124.214 178.056C123.072 178.942 121.809 179.689 120.441 180.258L120.085 184.287L113.447 185.19L112.031 181.4C110.564 181.217 109.144 180.835 107.811 180.284L104.706 182.885L99.3747 178.829L101.055 175.147C100.169 174.006 99.4225 172.742 98.8537 171.374L94.8245 171.018L93.9258 164.38L97.7162 162.964C97.8985 161.497 98.2806 160.077 98.832 158.744L96.2313 155.64L100.287 150.312L103.973 151.993C105.115 151.107 106.378 150.36 107.746 149.791L108.102 145.762L114.74 144.863L116.156 148.654L116.147 148.649ZM114.159 157.802C109.595 157.967 106.348 162.231 107.407 166.672C108.189 169.959 111.25 172.29 114.628 172.165C119.191 172 122.434 167.736 121.375 163.294C120.593 160.008 117.532 157.676 114.159 157.798V157.802Z" fill="#BE7346"/>
<g opacity="0.5">
<path d="M45.6023 51.4055V32.1191C56.1833 32.1191 64.8886 40.8245 64.8886 51.4055C64.8886 61.9864 56.1833 70.6918 45.6023 70.6918C35.0213 70.6918 26.5591 62.26 26.3203 51.8483L45.6023 51.4011V51.4055Z" fill="#BE7346"/>
<path d="M40.8996 46.2087L21.6133 46.6429C21.6133 41.6194 23.5758 36.3572 27.0796 32.7578C30.5835 29.1584 35.5809 27.0657 40.6044 26.9268L40.9039 46.2087H40.8996Z" fill="#EBD5C7"/>
</g>
<path opacity="0.5" fill-rule="evenodd" clip-rule="evenodd" d="M257.874 5.75231C259.341 5.93467 260.761 6.31675 262.094 6.86816L265.198 4.26741L270.53 8.32266L268.85 12.0045C269.736 13.1464 270.482 14.4099 271.051 15.7775L275.085 16.1336L275.983 22.7722L272.193 24.1876C272.011 25.6552 271.629 27.0749 271.077 28.4079L273.678 31.5123L269.623 36.8397L265.941 35.1594C264.799 36.0451 263.535 36.7919 262.168 37.3563L261.812 41.3855L255.173 42.2886L253.758 38.4982C252.29 38.3159 250.87 37.9338 249.537 37.3824L246.433 39.9831L241.101 35.9279L242.782 32.246C241.896 31.1041 241.149 29.8407 240.58 28.473L236.551 28.117L235.652 21.4783L239.443 20.0629C239.625 18.5954 240.007 17.1756 240.559 15.8427L237.958 12.7383L242.013 7.41088L245.699 9.09116C246.841 8.20543 248.105 7.45864 249.472 6.88987L249.828 2.86067L256.467 1.96191L257.882 5.75231H257.874ZM255.885 14.9048C251.322 15.0698 248.074 19.3335 249.134 23.7752C249.915 27.0619 252.976 29.3935 256.354 29.2675C260.917 29.1026 264.161 24.8389 263.101 20.3972C262.32 17.1105 259.259 14.7789 255.885 14.9005V14.9048Z" fill="#BE7346"/>
<path opacity="0.5" fill-rule="evenodd" clip-rule="evenodd" d="M279.646 43.0661C280.666 43.1964 281.656 43.4569 282.585 43.8433L284.748 42.0328L288.46 44.8593L287.292 47.4253C287.909 48.2199 288.43 49.1013 288.825 50.0521L291.629 50.2996L292.255 54.9193L289.615 55.9049C289.489 56.9252 289.224 57.9151 288.838 58.8443L290.648 61.0065L287.826 64.7187L285.26 63.5508C284.465 64.1673 283.584 64.684 282.633 65.0835L282.386 67.8883L277.766 68.5135L276.78 65.8737C275.76 65.7477 274.77 65.4829 273.841 65.0965L271.679 66.907L267.967 64.0848L269.135 61.5188C268.518 60.7243 268.001 59.8429 267.602 58.892L264.797 58.6446L264.172 54.0249L266.812 53.0393C266.938 52.019 267.202 51.029 267.589 50.0999L265.778 47.9377L268.601 44.2254L271.167 45.3934C271.961 44.7768 272.842 44.2558 273.793 43.8607L274.041 41.0559L278.66 40.4307L279.646 43.0705V43.0661ZM278.261 49.4399C275.083 49.5528 272.821 52.5226 273.559 55.6183C274.106 57.9064 276.233 59.5303 278.587 59.4434C281.765 59.3262 284.023 56.3608 283.285 53.2694C282.742 50.9813 280.61 49.3574 278.261 49.4443V49.4399Z" fill="#BE7346"/>
<g opacity="0.5">
<path fill-rule="evenodd" clip-rule="evenodd" d="M56.6151 97.9786C57.8394 98.6168 58.9596 99.4114 59.9496 100.328L63.5098 99.0597L66.8574 104.344L64.1915 107.023C64.5996 108.312 64.8384 109.658 64.8905 111.043L68.3032 112.663L66.9312 118.767L63.1495 118.776C62.5112 120 61.7167 121.12 60.8006 122.11L62.0684 125.675L56.7844 129.023L54.1055 126.357C52.816 126.765 51.47 127.004 50.085 127.056L48.4655 130.473L42.3609 129.105L42.3522 125.323C41.1278 124.685 40.0076 123.891 39.0177 122.974L35.4531 124.242L32.1055 118.958L34.7758 116.279C34.3676 114.99 34.1288 113.644 34.0767 112.263L30.6641 110.639L32.0317 104.535L35.8134 104.526C36.4517 103.302 37.2462 102.181 38.1624 101.192L36.8946 97.6269L42.1785 94.2794L44.8574 96.9496C46.147 96.5415 47.4929 96.3027 48.8779 96.2506L50.4974 92.8379L56.602 94.2056L56.6107 97.9873L56.6151 97.9786ZM51.2312 105.164C47.6145 104.352 44.0238 106.627 43.2119 110.244C42.4 113.861 44.6751 117.452 48.2918 118.264C51.9085 119.075 55.4992 116.8 56.3111 113.184C57.123 109.567 54.8479 105.976 51.2312 105.164Z" fill="#BE7346"/>
<g opacity="0.8">
<path fill-rule="evenodd" clip-rule="evenodd" d="M56.6151 97.9786C57.8394 98.6168 58.9596 99.4114 59.9496 100.328L63.5098 99.0597L66.8574 104.344L64.1915 107.023C64.5996 108.312 64.8384 109.658 64.8905 111.043L68.3032 112.663L66.9312 118.767L63.1495 118.776C62.5112 120 61.7167 121.12 60.8006 122.11L62.0684 125.675L56.7844 129.023L54.1055 126.357C52.816 126.765 51.47 127.004 50.085 127.056L48.4655 130.473L42.3609 129.105L42.3522 125.323C41.1278 124.685 40.0076 123.891 39.0177 122.974L35.4531 124.242L32.1055 118.958L34.7758 116.279C34.3676 114.99 34.1288 113.644 34.0767 112.263L30.6641 110.639L32.0317 104.535L35.8134 104.526C36.4517 103.302 37.2462 102.181 38.1624 101.192L36.8946 97.6269L42.1785 94.2794L44.8574 96.9496C46.147 96.5415 47.4929 96.3027 48.8779 96.2506L50.4974 92.8379L56.602 94.2056L56.6107 97.9873L56.6151 97.9786ZM51.2312 105.164C47.6145 104.352 44.0238 106.627 43.2119 110.244C42.4 113.861 44.6751 117.452 48.2918 118.264C51.9085 119.075 55.4992 116.8 56.3111 113.184C57.123 109.567 54.8479 105.976 51.2312 105.164Z" fill="#EBD5C7"/>
</g>
<path fill-rule="evenodd" clip-rule="evenodd" d="M34.5314 133.943C35.2434 134.316 35.8947 134.777 36.4722 135.311L38.5475 134.573L40.497 137.651L38.9426 139.21C39.1771 139.961 39.3204 140.747 39.3508 141.55L41.3393 142.492L40.5404 146.044H38.3391C37.9657 146.76 37.5055 147.411 36.9715 147.989L37.7096 150.064L34.6312 152.014L33.0725 150.459C32.3214 150.694 31.5355 150.837 30.7323 150.867L29.7901 152.856L26.2342 152.057V149.856C25.5178 149.482 24.8665 149.022 24.289 148.488L22.2137 149.226L20.2642 146.148L21.8186 144.589C21.5841 143.838 21.4408 143.052 21.4104 142.249L19.4219 141.307L20.2208 137.751H22.4221C22.7955 137.034 23.2557 136.383 23.7897 135.806L23.0516 133.73L26.13 131.781L27.6887 133.335C28.4398 133.101 29.2257 132.957 30.0289 132.927L30.9711 130.938L34.5227 131.737V133.939H34.527L34.5314 133.943ZM31.3966 138.124C29.2908 137.651 27.2024 138.975 26.7291 141.081C26.2559 143.187 27.5801 145.275 29.6859 145.748C31.7917 146.222 33.8801 144.897 34.3534 142.792C34.8266 140.686 33.5024 138.597 31.3966 138.124Z" fill="#BE7346"/>
<g opacity="0.4">
<path fill-rule="evenodd" clip-rule="evenodd" d="M34.5314 133.943C35.2434 134.316 35.8947 134.777 36.4722 135.311L38.5475 134.573L40.497 137.651L38.9426 139.21C39.1771 139.961 39.3204 140.747 39.3508 141.55L41.3393 142.492L40.5404 146.044H38.3391C37.9657 146.76 37.5055 147.411 36.9715 147.989L37.7096 150.064L34.6312 152.014L33.0725 150.459C32.3214 150.694 31.5355 150.837 30.7323 150.867L29.7901 152.856L26.2342 152.057V149.856C25.5178 149.482 24.8665 149.022 24.289 148.488L22.2137 149.226L20.2642 146.148L21.8186 144.589C21.5841 143.838 21.4408 143.052 21.4104 142.249L19.4219 141.307L20.2208 137.751H22.4221C22.7955 137.034 23.2557 136.383 23.7897 135.806L23.0516 133.73L26.13 131.781L27.6887 133.335C28.4398 133.101 29.2257 132.957 30.0289 132.927L30.9711 130.938L34.5227 131.737V133.939H34.527L34.5314 133.943ZM31.3966 138.124C29.2908 137.651 27.2024 138.975 26.7291 141.081C26.2559 143.187 27.5801 145.275 29.6859 145.748C31.7917 146.222 33.8801 144.897 34.3534 142.792C34.8266 140.686 33.5024 138.597 31.3966 138.124Z" fill="#EBD5C7"/>
</g>
</g>
<path opacity="0.5" fill-rule="evenodd" clip-rule="evenodd" d="M262.963 72.4328C263.971 72.5587 264.943 72.8192 265.859 73.1969L267.987 71.4124L271.643 74.1955L270.492 76.7225C271.1 77.504 271.612 78.3724 272.003 79.3102L274.769 79.5533L275.385 84.1079L272.784 85.0805C272.659 86.0878 272.398 87.0603 272.02 87.9764L273.805 90.1083L271.022 93.7641L268.495 92.6135C267.713 93.2213 266.845 93.7337 265.907 94.1244L265.664 96.8902L261.109 97.5067L260.137 94.906C259.129 94.7801 258.157 94.5195 257.241 94.1418L255.109 95.9263L251.453 93.1432L252.608 90.6163C252 89.8347 251.488 88.9664 251.097 88.0285L248.331 87.7854L247.715 83.2308L250.316 82.2583C250.441 81.251 250.702 80.2784 251.08 79.3623L249.295 77.2305L252.078 73.5747L254.605 74.7252C255.387 74.1174 256.255 73.6051 257.193 73.2143L257.436 70.4486L261.991 69.832L262.963 72.4328ZM261.596 78.7154C258.461 78.8283 256.233 81.7546 256.963 84.8026C257.501 87.0603 259.603 88.6581 261.917 88.5713C265.047 88.4584 267.275 85.532 266.55 82.4841C266.016 80.2263 263.914 78.6285 261.596 78.711V78.7154Z" fill="#09101D"/>
<g filter="url(#filter0_dd_570_26625)">
<path d="M259.6 20.7842H59.8594V158.862H259.6V20.7842Z" fill="white"/>
<path d="M259.6 20.7842H59.8594V28.7948H259.6V20.7842Z" fill="#09101D"/>
<path d="M65.559 24.6389C65.559 25.3162 65.0076 25.8676 64.3303 25.8676C63.653 25.8676 63.1016 25.3162 63.1016 24.6389C63.1016 23.9616 63.653 23.4102 64.3303 23.4102C65.0076 23.4102 65.559 23.9616 65.559 24.6389Z" fill="white"/>
<path d="M69.9965 24.6389C69.9965 25.3162 69.4451 25.8676 68.7678 25.8676C68.0905 25.8676 67.5391 25.3162 67.5391 24.6389C67.5391 23.9616 68.0905 23.4102 68.7678 23.4102C69.4451 23.4102 69.9965 23.9616 69.9965 24.6389Z" fill="white"/>
<path d="M74.4379 24.6389C74.4379 25.3162 73.8865 25.8676 73.2092 25.8676C72.5319 25.8676 71.9805 25.3162 71.9805 24.6389C71.9805 23.9616 72.5319 23.4102 73.2092 23.4102C73.8865 23.4102 74.4379 23.9616 74.4379 24.6389Z" fill="white"/>
<path d="M252.452 150.187C252.452 149.688 252.426 133.702 252.387 105.337L252.452 105.402C211.253 105.41 143.959 105.428 68.0556 105.449H68.0426L68.1555 105.337C68.1555 120.702 68.1555 135.712 68.1555 150.187L68.0426 150.075C173.197 150.14 251.349 150.183 252.448 150.187C251.349 150.187 173.197 150.235 68.0426 150.3H67.9297V150.187C67.9297 135.712 67.9297 120.702 67.9297 105.337V105.224H68.0556C143.959 105.241 211.248 105.258 252.452 105.271H252.517V105.337C252.474 133.702 252.452 149.688 252.452 150.187Z" fill="#E3E7EB"/>
<path d="M157.615 101.573C157.615 101.573 157.607 101.182 157.607 100.431C157.607 99.6795 157.602 98.5636 157.598 97.1091C157.594 94.2001 157.585 89.9278 157.576 84.4615C157.563 73.5375 157.55 57.8549 157.528 38.7856L157.62 38.8768C132.797 38.8812 101.892 38.8898 68.4692 38.8985H68.4605L68.5734 38.7856C68.5734 61.2458 68.5647 82.5641 68.5647 101.568L68.4605 101.464C94.7849 101.486 117.058 101.503 132.758 101.516C140.613 101.529 146.822 101.538 151.072 101.542C153.195 101.546 154.828 101.551 155.935 101.555C156.486 101.555 156.903 101.559 157.19 101.559C157.472 101.559 157.62 101.564 157.62 101.564C157.62 101.564 157.481 101.564 157.203 101.568C156.921 101.568 156.508 101.568 155.961 101.573C154.858 101.573 153.234 101.581 151.12 101.586C146.878 101.59 140.674 101.603 132.828 101.612C117.111 101.625 94.811 101.642 68.4605 101.664H68.3563V101.559C68.3563 82.5554 68.3477 61.2371 68.3477 38.777V38.6641H68.4692C101.892 38.6727 132.802 38.6814 157.62 38.6858H157.711V38.777C157.689 57.8679 157.676 73.5722 157.663 84.5092C157.654 89.9669 157.646 94.2305 157.641 97.1352C157.637 98.581 157.633 99.6882 157.633 100.439C157.633 101.186 157.624 101.564 157.624 101.564L157.615 101.573Z" fill="#E3E7EB"/>
<path d="M78.0981 89.698L84.5196 80.4109C85.8265 78.5222 88.4273 78.0663 90.2942 79.4036L91.1973 80.0505C93.4377 81.6526 96.5899 80.641 97.4799 78.0359L100.597 68.9137C101.865 65.2058 107.114 65.2058 108.382 68.9137L109.889 73.3294C111.1 76.8679 116.024 77.085 117.539 73.6637L118.846 70.7113C120.153 67.7675 124.182 67.3985 126.001 70.0556C127.912 72.8518 132.193 72.27 133.287 69.0657L134.746 64.7977C136.087 60.8771 141.727 61.1766 142.648 65.2145L148.227 89.7023C148.227 89.7023 78.2891 89.5069 78.0938 89.7023L78.0981 89.698Z" fill="#BE7346"/>
<g opacity="0.3">
<path d="M78.102 89.698L84.5235 80.4109C85.8304 78.5222 88.4312 78.0663 90.2981 79.4036L91.2012 80.0505C93.4416 81.6526 96.5938 80.641 97.4838 78.0359L100.601 68.9137C101.869 65.2058 107.118 65.2058 108.386 68.9137L109.893 73.3294C111.104 76.8679 116.028 77.085 117.543 73.6637L118.85 70.7113C120.157 67.7675 124.186 67.3985 126.005 70.0556C127.916 72.8518 132.197 72.27 133.291 69.0657L134.75 64.7977C136.091 60.8771 141.731 61.1766 142.652 65.2145L148.231 89.7023C148.231 89.7023 78.293 89.5069 78.0977 89.7023L78.102 89.698Z" fill="#09101D"/>
</g>
<path d="M77.9141 89.9367L83.1329 74.6709C84.3573 71.0932 89.3938 71.0324 90.7007 74.5797L93.2016 81.3442C94.2827 84.2706 98.1425 84.9002 100.101 82.4687L102.124 79.9505C103.47 78.2789 105.893 77.9576 107.625 79.2254L112.34 82.6728C113.031 83.1765 113.86 83.4457 114.711 83.4457H120.711C121.562 83.4457 122.396 83.7148 123.082 84.2185L127.545 87.4835C129.378 88.8208 131.952 88.3823 133.233 86.5066L137.423 80.376C137.475 80.2978 137.531 80.224 137.588 80.1502C139.268 78.0227 142.642 78.4699 143.862 80.8927L148.347 89.7847C148.347 89.7847 77.9141 89.6414 77.9141 89.928V89.9367Z" fill="#BE7346"/>
<path d="M148.329 89.7936L142.875 85.3563C135.399 79.8552 131.852 90.3233 125.973 82.469L123.949 79.9507C122.603 78.2791 120.181 77.9579 118.448 79.2257L116.104 80.9407C113.876 82.5732 111.185 83.4502 108.423 83.4502H105.362C104.511 83.4502 103.678 83.7194 102.992 84.2231L98.5282 87.4881C96.6959 88.8254 95.4194 89.0078 92.4887 86.546C92.4887 86.546 89.3062 83.9582 89.2324 83.8671C87.6736 81.9697 84.4129 81.9697 83.0105 83.8671C82.6719 84.3229 82.3202 84.7267 81.9381 85.1479L77.7266 89.7893C77.7266 89.7893 148.329 89.4984 148.329 89.7893V89.7936Z" fill="#BE7346"/>
<g opacity="0.3">
<path d="M148.329 89.7936L142.875 85.3563C135.399 79.8552 131.852 90.3233 125.973 82.469L123.949 79.9507C122.603 78.2791 120.181 77.9579 118.448 79.2257L116.104 80.9407C113.876 82.5732 111.185 83.4502 108.423 83.4502H105.362C104.511 83.4502 103.678 83.7194 102.992 84.2231L98.5282 87.4881C96.6959 88.8254 95.4194 89.0078 92.4887 86.546C92.4887 86.546 89.3062 83.9582 89.2324 83.8671C87.6736 81.9697 84.4129 81.9697 83.0105 83.8671C82.6719 84.3229 82.3202 84.7267 81.9381 85.1479L77.7266 89.7893C77.7266 89.7893 148.329 89.4984 148.329 89.7893V89.7936Z" fill="white"/>
</g>
<path d="M84.9178 53.5957H83.0117V55.5018H84.9178V53.5957Z" fill="#BE7346"/>
<path d="M105.941 53.5957H104.035V55.5018H105.941V53.5957Z" fill="#BE7346"/>
<path d="M126.961 53.5957H125.055V55.5018H126.961V53.5957Z" fill="#BE7346"/>
<path d="M139.599 142.521L144.188 135.978C144.722 135.218 145.781 135.048 146.524 135.609L148.938 137.432C149.728 138.027 150.857 137.797 151.352 136.941L158.316 124.88C158.898 123.873 160.313 123.773 161.03 124.685L165.376 130.199C166.079 131.089 167.447 131.019 168.055 130.064L171.233 125.071C171.897 124.029 173.426 124.064 174.042 125.132L176.665 129.678C177.281 130.746 178.809 130.78 179.474 129.738L188.444 115.68C189.082 114.681 190.537 114.664 191.197 115.649L206.015 137.819C206.61 138.709 207.882 138.8 208.599 138.01L217.603 128.097C218.237 127.403 219.323 127.376 219.987 128.041L227.147 135.226C227.911 135.995 229.196 135.826 229.734 134.888L242.547 112.697C243.389 111.238 245.617 111.837 245.617 113.517V142.521H139.59H139.599Z" fill="#BE7346"/>
<path d="M253.034 87.1881C253.034 87.1881 253.029 86.9276 253.025 86.4283C253.025 85.9247 253.021 85.1822 253.016 84.214C253.012 82.2689 253.003 79.4033 252.995 75.7214C252.986 68.3577 252.969 57.7116 252.951 44.5689L253.034 44.6514C229.801 44.6601 198.388 44.6688 163.879 44.6818H163.875L163.987 44.5689C163.987 59.5742 163.987 73.9934 163.983 87.1925L163.875 87.0839C189.852 87.1056 212.125 87.123 227.912 87.136C235.81 87.1491 242.084 87.1577 246.391 87.1664C248.54 87.1708 250.198 87.1751 251.323 87.1795C251.883 87.1795 252.309 87.1838 252.599 87.1838C252.886 87.1838 253.038 87.1925 253.038 87.1925C253.038 87.1925 252.899 87.1968 252.612 87.2012C252.326 87.2012 251.905 87.2012 251.349 87.2055C250.229 87.2055 248.579 87.2142 246.438 87.2185C242.14 87.2272 235.875 87.2359 227.986 87.2489C212.182 87.2619 189.882 87.2793 163.875 87.301H163.766V87.1925C163.766 73.9977 163.766 59.5742 163.762 44.5689V44.4561H163.879C198.388 44.4691 229.796 44.4778 253.034 44.4864H253.116V44.5689C253.099 57.7333 253.081 68.3968 253.073 75.7735C253.064 79.451 253.055 82.3079 253.051 84.2487C253.051 85.2126 253.042 85.9507 253.042 86.45C253.042 86.945 253.034 87.1925 253.034 87.1925V87.1881Z" fill="#E3E7EB"/>
<path d="M232.85 63.1519H171.431C170.866 63.1519 170.406 62.6916 170.406 62.1272C170.406 61.5628 170.866 61.1025 171.431 61.1025H232.85C233.415 61.1025 233.875 61.5628 233.875 62.1272C233.875 62.6916 233.415 63.1519 232.85 63.1519Z" fill="#E3E7EB"/>
<path d="M232.85 55.0454H171.431C170.866 55.0454 170.406 54.5852 170.406 54.0208C170.406 53.4563 170.866 52.9961 171.431 52.9961H232.85C233.415 52.9961 233.875 53.4563 233.875 54.0208C233.875 54.5852 233.415 55.0454 232.85 55.0454Z" fill="#E3E7EB"/>
<path d="M199.184 63.1519H171.431C170.866 63.1519 170.406 62.6916 170.406 62.1272C170.406 61.5628 170.866 61.1025 171.431 61.1025H199.184C199.748 61.1025 200.208 61.5628 200.208 62.1272C200.208 62.6916 199.748 63.1519 199.184 63.1519Z" fill="#798087"/>
<path d="M240.641 62.5665H240.19V63.1526H239.86V62.5665H238.531V62.3277L239.751 60.7646H240.12L238.948 62.2713H239.864V61.7546H240.185V62.2713H240.637V62.5665H240.641Z" fill="#09101D"/>
<path d="M242.511 62.4367C242.511 62.8492 242.215 63.1791 241.608 63.1791C241.269 63.1791 240.935 63.0706 240.73 62.8882L240.887 62.619C241.047 62.771 241.312 62.8752 241.603 62.8752C241.964 62.8752 242.168 62.7102 242.168 62.4497C242.168 62.1892 241.998 62.0112 241.443 62.0112H240.9L241.026 60.7607H242.372V61.056H241.312L241.247 61.7116H241.512C242.224 61.7116 242.506 62.0068 242.506 62.4323L242.511 62.4367Z" fill="#09101D"/>
<path d="M242.719 61.3944C242.719 61.0037 242.945 60.7432 243.274 60.7432C243.604 60.7432 243.826 61.0037 243.826 61.3944C243.826 61.7852 243.604 62.0457 243.274 62.0457C242.945 62.0457 242.719 61.7809 242.719 61.3944ZM243.609 61.3944C243.609 61.1079 243.483 60.9385 243.274 60.9385C243.066 60.9385 242.94 61.1122 242.94 61.3944C242.94 61.6767 243.07 61.8503 243.274 61.8503C243.479 61.8503 243.609 61.681 243.609 61.3944ZM244.716 60.7649H244.981L243.348 63.1529H243.088L244.72 60.7649H244.716ZM244.234 62.5233C244.234 62.1325 244.455 61.872 244.785 61.872C245.115 61.872 245.341 62.1325 245.341 62.5233C245.341 62.9141 245.115 63.1746 244.785 63.1746C244.455 63.1746 244.234 62.9097 244.234 62.5233ZM245.12 62.5233C245.12 62.2411 244.99 62.0674 244.785 62.0674C244.581 62.0674 244.451 62.2367 244.451 62.5233C244.451 62.8099 244.577 62.9792 244.785 62.9792C244.994 62.9792 245.12 62.8055 245.12 62.5233Z" fill="#09101D"/>
<path d="M232.85 70.6587H171.431C170.866 70.6587 170.406 70.1985 170.406 69.634C170.406 69.0696 170.866 68.6094 171.431 68.6094H232.85C233.415 68.6094 233.875 69.0696 233.875 69.634C233.875 70.1985 233.415 70.6587 232.85 70.6587Z" fill="#E3E7EB"/>
<path d="M208.227 70.6587H171.496C170.731 70.6587 170.41 70.1985 170.41 69.634C170.41 69.0696 170.736 68.6094 171.131 68.6094H207.863C208.583 68.6094 209.039 69.0696 209.039 69.634C209.039 70.472 208.262 70.6587 208.227 70.6587Z" fill="#798087"/>
<path d="M240.301 68.2709V68.5011L239.337 70.6589H238.977L239.923 68.5662H238.833V68.9917H238.508V68.2666H240.31L240.301 68.2709Z" fill="#09101D"/>
<path d="M240.535 69.4652C240.535 68.688 240.952 68.2451 241.512 68.2451C242.072 68.2451 242.485 68.688 242.485 69.4652C242.485 70.2423 242.068 70.6852 241.512 70.6852C240.956 70.6852 240.535 70.2423 240.535 69.4652ZM242.142 69.4652C242.142 68.853 241.881 68.549 241.512 68.549C241.143 68.549 240.878 68.8573 240.878 69.4652C240.878 70.073 241.139 70.3813 241.512 70.3813C241.885 70.3813 242.142 70.073 242.142 69.4652Z" fill="#09101D"/>
<path d="M242.773 68.9003C242.773 68.5095 242.999 68.249 243.329 68.249C243.659 68.249 243.881 68.5095 243.881 68.9003C243.881 69.2911 243.659 69.5516 243.329 69.5516C242.999 69.5516 242.773 69.2867 242.773 68.9003ZM243.664 68.9003C243.664 68.6137 243.538 68.4444 243.329 68.4444C243.121 68.4444 242.995 68.6181 242.995 68.9003C242.995 69.1825 243.125 69.3562 243.329 69.3562C243.533 69.3562 243.664 69.1869 243.664 68.9003ZM244.771 68.2707H245.036L243.403 70.6587H243.142L244.775 68.2707H244.771ZM244.289 70.0292C244.289 69.6384 244.51 69.3779 244.84 69.3779C245.17 69.3779 245.396 69.6384 245.396 70.0292C245.396 70.4199 245.17 70.6804 244.84 70.6804C244.51 70.6804 244.289 70.4156 244.289 70.0292ZM245.174 70.0292C245.174 69.7469 245.044 69.5733 244.84 69.5733C244.636 69.5733 244.506 69.7426 244.506 70.0292C244.506 70.3157 244.632 70.4851 244.84 70.4851C245.049 70.4851 245.174 70.3114 245.174 70.0292Z" fill="#09101D"/>
<path d="M232.85 77.9888H171.431C170.866 77.9888 170.406 77.5286 170.406 76.9641C170.406 76.3997 170.866 75.9395 171.431 75.9395H232.85C233.415 75.9395 233.875 76.3997 233.875 76.9641C233.875 77.5286 233.415 77.9888 232.85 77.9888Z" fill="#E3E7EB"/>
<path d="M194.247 77.9888H171.435C170.87 77.9888 170.41 77.5286 170.41 76.9641C170.41 76.3997 170.87 75.9395 171.435 75.9395H194.247C194.811 75.9395 195.271 76.3997 195.271 76.9641C195.271 77.5286 194.811 77.9888 194.247 77.9888Z" fill="#798087"/>
<path d="M240.237 77.2726C240.237 77.6851 239.942 78.0151 239.334 78.0151C238.995 78.0151 238.661 77.9065 238.457 77.7242L238.613 77.455C238.774 77.6069 239.039 77.7111 239.33 77.7111C239.69 77.7111 239.894 77.5462 239.894 77.2856C239.894 77.0251 239.725 76.8471 239.169 76.8471H238.626L238.752 75.5967H240.098V75.8919H239.039L238.974 76.5475H239.239C239.951 76.5475 240.233 76.8428 240.233 77.2683L240.237 77.2726Z" fill="#09101D"/>
<path d="M240.52 76.7904C240.52 76.0132 240.936 75.5703 241.496 75.5703C242.057 75.5703 242.469 76.0132 242.469 76.7904C242.469 77.5675 242.052 78.0104 241.496 78.0104C240.941 78.0104 240.52 77.5675 240.52 76.7904ZM242.126 76.7904C242.126 76.1782 241.865 75.8742 241.496 75.8742C241.127 75.8742 240.863 76.1825 240.863 76.7904C240.863 77.3982 241.123 77.7065 241.496 77.7065C241.87 77.7065 242.126 77.3982 242.126 76.7904Z" fill="#09101D"/>
<path d="M242.762 76.2304C242.762 75.8396 242.988 75.5791 243.317 75.5791C243.647 75.5791 243.869 75.8396 243.869 76.2304C243.869 76.6211 243.647 76.8816 243.317 76.8816C242.988 76.8816 242.762 76.6168 242.762 76.2304ZM243.652 76.2304C243.652 75.9438 243.526 75.7745 243.317 75.7745C243.109 75.7745 242.983 75.9482 242.983 76.2304C242.983 76.5126 243.113 76.6863 243.317 76.6863C243.522 76.6863 243.652 76.5169 243.652 76.2304ZM244.759 75.6008H245.024L243.391 77.9888H243.131L244.763 75.6008H244.759ZM244.277 77.3592C244.277 76.9685 244.498 76.708 244.828 76.708C245.158 76.708 245.384 76.9728 245.384 77.3592C245.384 77.7457 245.158 78.0105 244.828 78.0105C244.498 78.0105 244.277 77.7457 244.277 77.3592ZM245.163 77.3592C245.163 77.077 245.032 76.9034 244.828 76.9034C244.624 76.9034 244.494 77.0727 244.494 77.3592C244.494 77.6458 244.62 77.8151 244.828 77.8151C245.037 77.8151 245.163 77.6415 245.163 77.3592Z" fill="#09101D"/>
<path d="M212.092 55.0464H171.431C170.866 55.0464 170.406 54.5862 170.406 54.0217C170.406 53.4573 170.866 52.9971 171.431 52.9971H212.092C212.656 52.9971 213.117 53.4573 213.117 54.0217C213.117 54.5862 212.656 55.0464 212.092 55.0464Z" fill="#BE7346"/>
<path d="M240.408 54.3174C240.408 54.7777 240.035 55.0729 239.562 55.0729C238.919 55.0729 238.559 54.6431 238.559 53.8833C238.559 53.067 239.019 52.6328 239.687 52.6328C239.913 52.6328 240.126 52.6762 240.282 52.7718L240.152 53.0366C240.03 52.9541 239.865 52.9237 239.696 52.9237C239.21 52.9237 238.902 53.2276 238.902 53.8225C238.902 53.8485 238.902 53.8789 238.902 53.9093C239.036 53.7052 239.292 53.5967 239.588 53.5967C240.061 53.5967 240.408 53.8789 240.408 54.3218V54.3174ZM240.078 54.3305C240.078 54.0526 239.865 53.8702 239.531 53.8702C239.197 53.8702 238.98 54.07 238.98 54.3348C238.98 54.5823 239.179 54.795 239.544 54.795C239.852 54.795 240.074 54.6127 240.074 54.3305H240.078Z" fill="#09101D"/>
<path d="M240.668 53.8529C240.668 53.0757 241.085 52.6328 241.645 52.6328C242.205 52.6328 242.617 53.0757 242.617 53.8529C242.617 54.63 242.201 55.0729 241.645 55.0729C241.089 55.0729 240.668 54.63 240.668 53.8529ZM242.274 53.8529C242.274 53.2407 242.014 52.9367 241.645 52.9367C241.276 52.9367 241.011 53.245 241.011 53.8529C241.011 54.4607 241.271 54.769 241.645 54.769C242.018 54.769 242.274 54.4607 242.274 53.8529Z" fill="#09101D"/>
<path d="M242.902 53.288C242.902 52.8972 243.128 52.6367 243.458 52.6367C243.788 52.6367 244.009 52.8972 244.009 53.288C244.009 53.6788 243.788 53.9393 243.458 53.9393C243.128 53.9393 242.902 53.6744 242.902 53.288ZM243.792 53.288C243.792 53.0014 243.666 52.8321 243.458 52.8321C243.25 52.8321 243.124 53.0058 243.124 53.288C243.124 53.5702 243.254 53.7439 243.458 53.7439C243.662 53.7439 243.792 53.5745 243.792 53.288ZM244.9 52.6584H245.164L243.532 55.0464H243.271L244.904 52.6584H244.9ZM244.418 54.4169C244.418 54.0261 244.639 53.7656 244.969 53.7656C245.299 53.7656 245.525 54.0261 245.525 54.4169C245.525 54.8076 245.299 55.0681 244.969 55.0681C244.639 55.0681 244.418 54.8033 244.418 54.4169ZM245.303 54.4169C245.303 54.1346 245.173 53.961 244.969 53.961C244.765 53.961 244.635 54.1303 244.635 54.4169C244.635 54.7034 244.761 54.8728 244.969 54.8728C245.177 54.8728 245.303 54.6991 245.303 54.4169Z" fill="#09101D"/>
<path d="M80.3203 139.92C79.6517 139.92 79.1133 139.381 79.1133 138.713V116.07C79.1133 115.402 79.6517 114.863 80.3203 114.863C80.9889 114.863 81.5273 115.402 81.5273 116.07V138.713C81.5273 139.381 80.9889 139.92 80.3203 139.92Z" fill="#E3E7EB"/>
<path d="M80.3203 140.024C79.6517 140.024 79.1133 139.486 79.1133 138.817V124.22C79.1133 123.555 79.6517 123.013 80.3203 123.013C80.9889 123.013 81.5273 123.551 81.5273 124.22V138.817C81.5273 139.486 80.9889 140.024 80.3203 140.024Z" fill="#BE7346"/>
<path d="M79.5567 140.971V142.985H79.3483V141.157H78.875V140.975H79.5567V140.971Z" fill="#09101D"/>
<path d="M80.0352 141.978C80.0352 141.335 80.3695 140.953 80.8384 140.953C81.3073 140.953 81.6416 141.335 81.6416 141.978C81.6416 142.62 81.303 143.002 80.8384 143.002C80.3738 143.002 80.0352 142.62 80.0352 141.978ZM81.4289 141.978C81.4289 141.439 81.1857 141.144 80.8384 141.144C80.491 141.144 80.2479 141.439 80.2479 141.978C80.2479 142.516 80.491 142.811 80.8384 142.811C81.1857 142.811 81.4289 142.516 81.4289 141.978Z" fill="#09101D"/>
<path d="M85.1445 139.92C84.4759 139.92 83.9375 139.381 83.9375 138.713V116.07C83.9375 115.402 84.4759 114.863 85.1445 114.863C85.8088 114.863 86.3515 115.402 86.3515 116.07V138.713C86.3515 139.381 85.8132 139.92 85.1445 139.92Z" fill="#E3E7EB"/>
<path d="M85.1445 140.024C84.4759 140.024 83.9375 139.486 83.9375 138.817V119.622C83.9375 118.953 84.4759 118.415 85.1445 118.415C85.8088 118.415 86.3515 118.953 86.3515 119.622V138.817C86.3515 139.486 85.8132 140.024 85.1445 140.024Z" fill="#BE7346"/>
<path d="M84.8586 142.798V142.98H83.4475V142.833L84.2855 142.012C84.5113 141.786 84.5547 141.652 84.5547 141.513C84.5547 141.278 84.3897 141.135 84.0814 141.135C83.847 141.135 83.6646 141.209 83.5343 141.361L83.3867 141.235C83.543 141.052 83.7905 140.948 84.0988 140.948C84.5069 140.948 84.7674 141.157 84.7674 141.491C84.7674 141.682 84.7066 141.856 84.4374 142.121L83.7514 142.794H84.8586V142.798Z" fill="#09101D"/>
<path d="M85.1016 141.977C85.1016 141.334 85.4359 140.952 85.9048 140.952C86.3737 140.952 86.708 141.334 86.708 141.977C86.708 142.619 86.3694 143.001 85.9048 143.001C85.4402 143.001 85.1016 142.619 85.1016 141.977ZM86.4953 141.977C86.4953 141.438 86.2521 141.143 85.9048 141.143C85.5574 141.143 85.3143 141.438 85.3143 141.977C85.3143 142.515 85.5574 142.81 85.9048 142.81C86.2521 142.81 86.4953 142.515 86.4953 141.977Z" fill="#09101D"/>
<path d="M89.9648 139.92C89.3005 139.92 88.7578 139.381 88.7578 138.713V116.07C88.7578 115.402 89.2962 114.863 89.9648 114.863C90.6335 114.863 91.1719 115.402 91.1719 116.07V138.713C91.1719 139.381 90.6335 139.92 89.9648 139.92Z" fill="#E3E7EB"/>
<path d="M89.9648 140.024C89.3005 140.024 88.7578 139.485 88.7578 138.817V127.667C88.7578 126.998 89.2962 126.46 89.9648 126.46C90.6335 126.46 91.1719 126.998 91.1719 127.667V138.817C91.1719 139.485 90.6335 140.024 89.9648 140.024Z" fill="#BE7346"/>
<path d="M89.6576 142.407C89.6576 142.742 89.4145 143.002 88.9282 143.002C88.6373 143.002 88.3594 142.902 88.2031 142.742L88.303 142.577C88.4332 142.711 88.6634 142.811 88.9282 142.811C89.2625 142.811 89.4449 142.655 89.4449 142.407C89.4449 142.16 89.2756 142.008 88.9022 142.008H88.7589V141.856L89.3146 141.157H88.2856V140.975H89.5795V141.122L89.0107 141.839C89.4405 141.86 89.6576 142.09 89.6576 142.412V142.407Z" fill="#09101D"/>
<path d="M89.9453 141.978C89.9453 141.335 90.2796 140.953 90.7485 140.953C91.2175 140.953 91.5518 141.335 91.5518 141.978C91.5518 142.62 91.2131 143.002 90.7485 143.002C90.284 143.002 89.9453 142.62 89.9453 141.978ZM91.339 141.978C91.339 141.439 91.0959 141.144 90.7485 141.144C90.4012 141.144 90.1581 141.439 90.1581 141.978C90.1581 142.516 90.4012 142.811 90.7485 142.811C91.0959 142.811 91.339 142.516 91.339 141.978Z" fill="#09101D"/>
<path d="M94.7891 139.92C94.1204 139.92 93.582 139.381 93.582 138.713V116.07C93.582 115.402 94.1204 114.863 94.7891 114.863C95.4534 114.863 95.9961 115.402 95.9961 116.07V138.713C95.9961 139.381 95.4577 139.92 94.7891 139.92Z" fill="#E3E7EB"/>
<path d="M94.7891 140.024C94.1204 140.024 93.582 139.486 93.582 138.817V119.622C93.582 118.953 94.1204 118.415 94.7891 118.415C95.4534 118.415 95.9961 118.953 95.9961 119.622V138.817C95.9961 139.486 95.4577 140.024 94.7891 140.024Z" fill="#BE7346"/>
<path d="M94.7966 142.455H94.3928V142.985H94.1844V142.455H93.0469V142.308L94.115 140.975H94.3451L93.3161 142.273H94.1888V141.808H94.3885V142.273H94.7923V142.455H94.7966Z" fill="#09101D"/>
<path d="M94.9844 141.978C94.9844 141.335 95.3187 140.953 95.7876 140.953C96.2565 140.953 96.5908 141.335 96.5908 141.978C96.5908 142.62 96.2522 143.002 95.7876 143.002C95.323 143.002 94.9844 142.62 94.9844 141.978ZM96.3781 141.978C96.3781 141.439 96.135 141.144 95.7876 141.144C95.4403 141.144 95.1971 141.439 95.1971 141.978C95.1971 142.516 95.4403 142.811 95.7876 142.811C96.135 142.811 96.3781 142.516 96.3781 141.978Z" fill="#09101D"/>
<path d="M99.6211 139.92C98.9568 139.92 98.4141 139.381 98.4141 138.713V116.07C98.4141 115.402 98.9524 114.863 99.6211 114.863C100.29 114.863 100.828 115.402 100.828 116.07V138.713C100.828 139.381 100.29 139.92 99.6211 139.92Z" fill="#E3E7EB"/>
<path d="M99.6211 140.024C98.9568 140.024 98.4141 139.486 98.4141 138.817V123.3C98.4141 122.635 98.9524 122.093 99.6211 122.093C100.29 122.093 100.828 122.631 100.828 123.3V138.817C100.828 139.486 100.29 140.024 99.6211 140.024Z" fill="#BE7346"/>
<path d="M99.5127 142.39C99.5127 142.733 99.2739 142.998 98.7832 142.998C98.4923 142.998 98.2188 142.898 98.0625 142.737L98.1624 142.572C98.2926 142.707 98.5227 142.807 98.7789 142.807C99.1219 142.807 99.2999 142.642 99.2999 142.394C99.2999 142.134 99.1393 141.973 98.6269 141.973H98.1971L98.3013 140.966H99.4041V141.148H98.4837L98.4142 141.791H98.6747C99.2825 141.791 99.5127 142.03 99.5127 142.386V142.39Z" fill="#09101D"/>
<path d="M99.7773 141.978C99.7773 141.335 100.112 140.953 100.581 140.953C101.049 140.953 101.384 141.335 101.384 141.978C101.384 142.62 101.045 143.002 100.581 143.002C100.116 143.002 99.7773 142.62 99.7773 141.978ZM101.171 141.978C101.171 141.439 100.928 141.144 100.581 141.144C100.233 141.144 99.9901 141.439 99.9901 141.978C99.9901 142.516 100.233 142.811 100.581 142.811C100.928 142.811 101.171 142.516 101.171 141.978Z" fill="#09101D"/>
<path d="M104.441 139.92C103.773 139.92 103.234 139.381 103.234 138.713V116.07C103.234 115.402 103.773 114.863 104.441 114.863C105.11 114.863 105.648 115.402 105.648 116.07V138.713C105.648 139.381 105.11 139.92 104.441 139.92Z" fill="#E3E7EB"/>
<path d="M104.441 139.92C103.773 139.92 103.234 139.381 103.234 138.821V127.672C103.234 126.899 103.773 126.36 104.441 126.36C105.11 126.36 105.648 126.899 105.648 127.567V138.717C105.648 139.386 105.11 139.924 104.441 139.924V139.92Z" fill="#BE7346"/>
<path d="M104.288 142.381C104.288 142.759 103.993 142.998 103.602 142.998C103.068 142.998 102.777 142.629 102.777 141.99C102.777 141.304 103.151 140.948 103.698 140.948C103.88 140.948 104.049 140.979 104.175 141.057L104.093 141.222C103.989 141.152 103.85 141.126 103.702 141.126C103.268 141.126 102.99 141.404 102.99 141.951C102.99 141.999 102.99 142.055 102.999 142.116C103.099 141.895 103.333 141.773 103.615 141.773C104.015 141.773 104.293 142.008 104.293 142.377L104.288 142.381ZM104.084 142.385C104.084 142.121 103.889 141.951 103.576 141.951C103.264 141.951 103.06 142.142 103.06 142.39C103.06 142.611 103.242 142.82 103.594 142.82C103.885 142.82 104.084 142.65 104.084 142.381V142.385Z" fill="#09101D"/>
<path d="M104.527 141.977C104.527 141.334 104.862 140.952 105.331 140.952C105.799 140.952 106.134 141.334 106.134 141.977C106.134 142.619 105.795 143.001 105.331 143.001C104.866 143.001 104.527 142.619 104.527 141.977ZM105.921 141.977C105.921 141.438 105.678 141.143 105.331 141.143C104.983 141.143 104.74 141.438 104.74 141.977C104.74 142.515 104.983 142.81 105.331 142.81C105.678 142.81 105.921 142.515 105.921 141.977Z" fill="#09101D"/>
<path d="M109.262 139.92C108.593 139.92 108.055 139.381 108.055 138.713V116.07C108.055 115.402 108.593 114.863 109.262 114.863C109.926 114.863 110.469 115.402 110.469 116.07V138.713C110.469 139.381 109.93 139.92 109.262 139.92Z" fill="#E3E7EB"/>
<path d="M109.262 140.024C108.593 140.024 108.055 139.486 108.055 138.817V118.476C108.055 117.807 108.593 117.269 109.262 117.269C109.926 117.269 110.469 117.807 110.469 118.476V138.817C110.469 139.486 109.93 140.024 109.262 140.024Z" fill="#BE7346"/>
<path d="M109.004 140.971V141.118L108.161 142.985H107.935L108.765 141.157H107.731V141.535H107.527V140.975H109.004V140.971Z" fill="#09101D"/>
<path d="M109.223 141.978C109.223 141.335 109.557 140.953 110.026 140.953C110.495 140.953 110.829 141.335 110.829 141.978C110.829 142.62 110.49 143.002 110.026 143.002C109.561 143.002 109.223 142.62 109.223 141.978ZM110.616 141.978C110.616 141.439 110.373 141.144 110.026 141.144C109.679 141.144 109.435 141.439 109.435 141.978C109.435 142.516 109.679 142.811 110.026 142.811C110.373 142.811 110.616 142.516 110.616 141.978Z" fill="#09101D"/>
<path d="M114.09 139.92C113.421 139.92 112.883 139.381 112.883 138.713V116.07C112.883 115.402 113.421 114.863 114.09 114.863C114.754 114.863 115.297 115.402 115.297 116.07V138.713C115.297 139.381 114.758 139.92 114.09 139.92Z" fill="#E3E7EB"/>
<path d="M114.09 140.024C113.421 140.024 112.883 139.486 112.883 138.817V129.969C112.883 129.304 113.421 128.762 114.09 128.762C114.754 128.762 115.297 129.3 115.297 129.969V138.817C115.297 139.486 114.758 140.024 114.09 140.024Z" fill="#BE7346"/>
<path d="M113.848 142.425C113.848 142.781 113.544 143.002 113.066 143.002C112.589 143.002 112.289 142.781 112.289 142.425C112.289 142.182 112.428 142.013 112.675 141.93C112.471 141.848 112.359 141.696 112.359 141.487C112.359 141.162 112.636 140.953 113.062 140.953C113.487 140.953 113.774 141.157 113.774 141.487C113.774 141.696 113.657 141.848 113.453 141.93C113.704 142.013 113.848 142.186 113.848 142.425ZM113.635 142.425C113.635 142.178 113.422 142.021 113.066 142.021C112.71 142.021 112.502 142.178 112.502 142.425C112.502 142.672 112.71 142.829 113.066 142.829C113.422 142.829 113.635 142.672 113.635 142.425ZM113.066 141.861C113.379 141.861 113.566 141.722 113.566 141.5C113.566 141.279 113.366 141.135 113.066 141.135C112.767 141.135 112.567 141.274 112.567 141.496C112.567 141.717 112.749 141.856 113.066 141.856V141.861Z" fill="#09101D"/>
<path d="M114.133 141.978C114.133 141.335 114.467 140.953 114.936 140.953C115.405 140.953 115.739 141.335 115.739 141.978C115.739 142.62 115.401 143.002 114.936 143.002C114.471 143.002 114.133 142.62 114.133 141.978ZM115.527 141.978C115.527 141.439 115.283 141.144 114.936 141.144C114.589 141.144 114.346 141.439 114.346 141.978C114.346 142.516 114.589 142.811 114.936 142.811C115.283 142.811 115.527 142.516 115.527 141.978Z" fill="#09101D"/>
<path d="M118.914 139.92C118.245 139.92 117.707 139.381 117.707 138.713V116.07C117.707 115.402 118.245 114.863 118.914 114.863C119.583 114.863 120.121 115.402 120.121 116.07V138.713C120.121 139.381 119.583 139.92 118.914 139.92Z" fill="#E3E7EB"/>
<path d="M118.914 139.919C118.245 139.919 117.707 139.381 117.707 138.821V135.716C117.707 134.944 118.245 134.405 118.914 134.405C119.583 134.405 120.121 134.944 120.121 135.612V138.717C120.121 139.385 119.583 139.924 118.914 139.924V139.919Z" fill="#BE7346"/>
<path d="M118.55 141.96C118.55 142.646 118.177 143.002 117.63 143.002C117.448 143.002 117.278 142.972 117.152 142.893L117.235 142.728C117.339 142.798 117.478 142.824 117.626 142.824C118.06 142.824 118.338 142.546 118.338 141.999C118.338 141.951 118.338 141.895 118.329 141.834C118.229 142.056 117.995 142.177 117.712 142.177C117.313 142.177 117.035 141.943 117.035 141.574C117.035 141.205 117.33 140.957 117.721 140.957C118.255 140.957 118.546 141.326 118.546 141.964L118.55 141.96ZM118.264 141.561C118.264 141.339 118.082 141.131 117.73 141.131C117.439 141.131 117.239 141.3 117.239 141.569C117.239 141.838 117.435 142.003 117.747 142.003C118.06 142.003 118.264 141.812 118.264 141.565V141.561Z" fill="#09101D"/>
<path d="M118.852 141.978C118.852 141.335 119.186 140.953 119.655 140.953C120.124 140.953 120.458 141.335 120.458 141.978C120.458 142.62 120.119 143.002 119.655 143.002C119.19 143.002 118.852 142.62 118.852 141.978ZM120.245 141.978C120.245 141.439 120.002 141.144 119.655 141.144C119.307 141.144 119.064 141.439 119.064 141.978C119.064 142.516 119.307 142.811 119.655 142.811C120.002 142.811 120.245 142.516 120.245 141.978Z" fill="#09101D"/>
<path d="M123.738 139.92C123.074 139.92 122.531 139.381 122.531 138.713V116.07C122.531 115.402 123.07 114.863 123.738 114.863C124.407 114.863 124.945 115.402 124.945 116.07V138.713C124.945 139.381 124.407 139.92 123.738 139.92Z" fill="#E3E7EB"/>
<path d="M123.738 139.92C123.074 139.92 122.531 139.381 122.531 138.821V127.672C122.531 126.899 123.07 126.36 123.738 126.36C124.407 126.36 124.945 126.899 124.945 127.567V138.717C124.945 139.386 124.407 139.924 123.738 139.924V139.92Z" fill="#BE7346"/>
<path d="M122.006 140.971V142.985H121.797V141.157H121.324V140.975H122.006V140.971Z" fill="#09101D"/>
<path d="M122.484 141.978C122.484 141.335 122.819 140.953 123.288 140.953C123.757 140.953 124.091 141.335 124.091 141.978C124.091 142.62 123.752 143.002 123.288 143.002C122.823 143.002 122.484 142.62 122.484 141.978ZM123.878 141.978C123.878 141.439 123.635 141.144 123.288 141.144C122.94 141.144 122.697 141.439 122.697 141.978C122.697 142.516 122.94 142.811 123.288 142.811C123.635 142.811 123.878 142.516 123.878 141.978Z" fill="#09101D"/>
<path d="M124.387 141.978C124.387 141.335 124.721 140.953 125.19 140.953C125.659 140.953 125.993 141.335 125.993 141.978C125.993 142.62 125.655 143.002 125.19 143.002C124.725 143.002 124.387 142.62 124.387 141.978ZM125.78 141.978C125.78 141.439 125.537 141.144 125.19 141.144C124.843 141.144 124.599 141.439 124.599 141.978C124.599 142.516 124.843 142.811 125.19 142.811C125.537 142.811 125.78 142.516 125.78 141.978Z" fill="#09101D"/>
<path d="M133.734 144.652C133.673 144.652 133.621 137.202 133.621 128.01C133.621 118.819 133.673 111.368 133.734 111.368C133.795 111.368 133.847 118.819 133.847 128.01C133.847 137.202 133.795 144.652 133.734 144.652Z" fill="#E3E7EB"/>
<g opacity="0.5">
<path d="M139.599 142.521L144.188 135.978C144.722 135.218 145.781 135.048 146.524 135.609L148.938 137.432C149.728 138.027 150.857 137.797 151.352 136.941L158.316 124.88C158.898 123.873 160.313 123.773 161.03 124.685L165.376 130.199C166.079 131.089 167.447 131.019 168.055 130.064L171.233 125.071C171.897 124.029 173.426 124.064 174.042 125.132L176.665 129.678C177.281 130.746 178.809 130.78 179.474 129.738L188.444 115.68C189.082 114.681 190.537 114.664 191.197 115.649L206.015 137.819C206.61 138.709 207.882 138.8 208.599 138.01L217.603 128.097C218.237 127.403 219.323 127.376 219.987 128.041L227.147 135.226C227.911 135.995 229.196 135.826 229.734 134.888L242.547 112.697C243.389 111.238 245.617 111.837 245.617 113.517V142.521H139.59H139.599Z" fill="white"/>
</g>
</g>
<path d="M87.793 54.5459H98.235" stroke="#E3E7EB" stroke-width="0.434181" stroke-miterlimit="10"/>
<path d="M109.262 54.5459H119.704" stroke="#E3E7EB" stroke-width="0.434181" stroke-miterlimit="10"/>
<path d="M130.734 54.5459H141.176" stroke="#E3E7EB" stroke-width="0.434181" stroke-miterlimit="10"/>
<path d="M57.4284 145.319C47.1947 145.319 38.3722 137.577 37.2607 127.179C36.071 116.051 44.1555 106.03 55.2879 104.84C60.6804 104.267 65.9731 105.821 70.189 109.225C74.4092 112.629 77.049 117.475 77.6265 122.863C78.8161 133.991 70.7317 144.012 59.5993 145.202C58.8699 145.28 58.1448 145.319 57.4284 145.319ZM57.4761 107.762C56.8553 107.762 56.2344 107.797 55.6092 107.862C46.1484 108.874 39.2709 117.392 40.2826 126.857C41.2942 136.318 49.8172 143.2 59.278 142.184C68.7388 141.172 75.6162 132.649 74.6046 123.189C74.114 118.604 71.8692 114.488 68.2829 111.592C65.1829 109.091 61.4055 107.762 57.4805 107.762H57.4761Z" fill="#09101D"/>
<path d="M87.9517 164.514C87.5218 164.514 87.0963 164.332 86.7924 163.98L67.5973 141.455C67.0545 140.816 67.1283 139.857 67.7666 139.314C68.4048 138.771 69.3644 138.845 69.9071 139.483L89.1022 162.009C89.645 162.647 89.5712 163.606 88.9329 164.149C88.6463 164.392 88.2947 164.514 87.9473 164.514H87.9517Z" fill="#09101D"/>
<path d="M271.398 162.812C274.525 163.902 278.597 162.929 281.272 160.976C283.946 159.022 285.87 156.226 287.572 153.39C288.301 152.179 289.009 150.92 289.239 149.526C289.469 148.133 289.13 146.565 288.049 145.658C286.369 144.242 283.799 144.963 281.888 146.048C275.918 149.448 271.846 155.961 271.398 162.817" fill="#BE7346"/>
<path d="M274.754 170.293C276.63 172.768 279.856 173.87 282.956 174.014C286.06 174.157 289.125 173.302 292.026 172.186C293.076 171.782 294.231 171.231 294.592 170.163C294.865 169.355 294.583 168.435 294.04 167.775C293.498 167.115 292.729 166.68 291.947 166.346C289.091 165.13 285.821 165.074 282.821 165.851C279.816 166.628 277.194 168.369 274.758 170.293" fill="#BE7346"/>
<path d="M271.358 149.426C273.945 149.478 275.903 147.212 277.071 144.906C278.691 141.711 279.242 137.985 278.613 134.46C278.378 133.14 277.875 131.711 276.694 131.077C275.491 130.431 273.928 130.856 272.921 131.776C271.913 132.697 271.362 134.008 270.958 135.315C269.569 139.809 269.868 144.971 271.358 149.43" fill="#BE7346"/>
<path d="M262.856 163.732C267.267 156.225 268.001 147.042 265.396 138.736C264.975 137.391 264.176 135.849 262.765 135.758C261.206 135.658 260.225 137.399 259.795 138.901C258.284 144.177 258.605 149.778 258.94 155.253C259.144 158.626 260.303 161.509 262.856 163.728" fill="#BE7346"/>
<path d="M258.274 166.819C256.676 161.679 252.612 157.367 247.571 155.47C246.399 155.027 244.909 154.78 244.037 155.674C243.181 156.551 243.442 158.023 243.993 159.117C244.879 160.888 246.32 162.313 247.758 163.68C249.065 164.922 250.419 166.172 252.073 166.893C253.723 167.614 256.758 167.801 258.269 166.815" fill="#BE7346"/>
<path d="M285.613 147.537C285.613 147.537 285.587 147.563 285.535 147.607C285.47 147.654 285.392 147.715 285.296 147.789C285.07 147.958 284.762 148.188 284.371 148.479C284.167 148.627 283.946 148.796 283.703 148.974C283.464 149.161 283.212 149.378 282.934 149.599C282.387 150.055 281.745 150.546 281.093 151.163C280.763 151.462 280.416 151.779 280.056 152.109C279.695 152.439 279.348 152.812 278.974 153.181C278.215 153.911 277.481 154.762 276.691 155.643C275.162 157.445 273.591 159.525 272.145 161.843C270.721 164.175 269.561 166.511 268.632 168.686C268.198 169.789 267.764 170.827 267.451 171.83C267.286 172.329 267.108 172.806 266.974 173.275C266.843 173.744 266.713 174.196 266.592 174.626C266.331 175.481 266.179 176.28 266.014 176.97C265.936 177.318 265.858 177.639 265.797 177.938C265.745 178.238 265.697 178.512 265.654 178.759C265.567 179.241 265.497 179.619 265.45 179.897C265.428 180.018 265.406 180.114 265.393 180.192C265.38 180.257 265.372 180.292 265.367 180.292C265.367 180.292 265.367 180.257 265.372 180.188C265.38 180.109 265.393 180.009 265.411 179.888C265.45 179.61 265.506 179.228 265.576 178.746C265.615 178.494 265.654 178.221 265.702 177.921C265.754 177.621 265.832 177.296 265.901 176.949C266.053 176.254 266.196 175.451 266.448 174.591C266.566 174.157 266.687 173.705 266.817 173.232C266.948 172.759 267.126 172.281 267.286 171.777C267.595 170.766 268.024 169.719 268.454 168.612C269.379 166.424 270.534 164.075 271.967 161.735C273.421 159.408 275.002 157.324 276.547 155.522C277.346 154.64 278.089 153.794 278.853 153.064C279.231 152.695 279.582 152.326 279.947 151.996C280.312 151.671 280.663 151.358 280.998 151.058C281.653 150.446 282.309 149.96 282.865 149.513C283.147 149.291 283.399 149.083 283.646 148.9C283.894 148.727 284.124 148.566 284.328 148.418C284.727 148.141 285.044 147.919 285.274 147.759C285.374 147.689 285.457 147.637 285.522 147.589C285.578 147.554 285.609 147.537 285.609 147.537H285.613Z" fill="#09101D"/>
<path d="M291.454 168.344C291.454 168.344 291.35 168.335 291.15 168.292C290.955 168.257 290.668 168.179 290.291 168.118C289.544 167.97 288.454 167.805 287.099 167.727C284.403 167.553 280.569 167.875 276.731 169.473C272.893 171.07 269.962 173.563 268.182 175.599C267.283 176.615 266.632 177.505 266.211 178.139C265.99 178.447 265.842 178.708 265.729 178.873C265.621 179.042 265.56 179.124 265.551 179.124C265.547 179.124 265.594 179.029 265.694 178.851C265.799 178.677 265.933 178.417 266.146 178.095C266.55 177.448 267.184 176.541 268.078 175.503C269.841 173.432 272.78 170.892 276.657 169.282C280.53 167.671 284.403 167.371 287.117 167.584C288.48 167.684 289.574 167.87 290.317 168.04C290.69 168.114 290.977 168.205 291.168 168.253C291.363 168.305 291.463 168.335 291.459 168.344H291.454Z" fill="#09101D"/>
<path d="M275.167 134.073C275.167 134.073 275.167 134.112 275.15 134.19C275.132 134.277 275.106 134.39 275.08 134.529C275.011 134.837 274.915 135.271 274.789 135.823C274.538 136.943 274.147 138.563 273.66 140.56C272.688 144.554 271.277 150.055 269.805 156.151C269.076 159.204 268.411 162.117 267.842 164.774C267.282 167.431 266.805 169.832 266.449 171.856C266.258 172.867 266.114 173.783 265.98 174.587C265.841 175.39 265.732 176.084 265.65 176.653C265.563 177.209 265.494 177.648 265.446 177.96C265.424 178.099 265.402 178.212 265.389 178.299C265.376 178.377 265.368 178.416 265.363 178.412C265.363 178.412 265.363 178.373 265.368 178.294C265.376 178.208 265.389 178.095 265.407 177.951C265.446 177.634 265.502 177.196 265.572 176.636C265.641 176.067 265.737 175.368 265.867 174.56C265.993 173.753 266.123 172.832 266.305 171.821C266.644 169.793 267.104 167.388 267.656 164.722C268.216 162.06 268.871 159.143 269.605 156.09C271.077 149.99 272.51 144.498 273.517 140.512C274.017 138.532 274.425 136.921 274.711 135.792C274.85 135.245 274.959 134.816 275.041 134.512C275.08 134.373 275.106 134.264 275.132 134.177C275.154 134.104 275.167 134.064 275.171 134.064L275.167 134.073Z" fill="#09101D"/>
<path d="M265.04 177.812C265.04 177.812 265.027 177.782 265.014 177.721C264.997 177.647 264.979 177.56 264.953 177.452C264.901 177.196 264.827 176.848 264.736 176.405C264.55 175.498 264.302 174.178 264.02 172.546C263.455 169.281 262.782 164.748 262.37 159.703C262.17 157.18 262.057 154.77 262.01 152.578C261.975 150.385 261.992 148.409 262.062 146.755C262.083 145.926 262.135 145.179 262.175 144.519C262.209 143.864 262.253 143.295 262.296 142.835C262.34 142.387 262.37 142.031 262.396 141.771C262.409 141.658 262.418 141.571 262.426 141.493C262.435 141.432 262.439 141.397 262.444 141.397C262.444 141.397 262.448 141.432 262.444 141.493C262.444 141.567 262.439 141.658 262.435 141.771C262.422 142.031 262.4 142.387 262.374 142.835C262.344 143.295 262.309 143.864 262.287 144.519C262.261 145.175 262.218 145.926 262.209 146.751C262.162 148.405 262.157 150.376 262.201 152.565C262.261 154.753 262.379 157.158 262.574 159.676C262.986 164.713 263.633 169.241 264.159 172.511C264.424 174.143 264.649 175.468 264.81 176.379C264.884 176.822 264.945 177.174 264.988 177.43C265.005 177.539 265.018 177.63 265.031 177.704C265.04 177.764 265.04 177.799 265.04 177.799V177.812Z" fill="#09101D"/>
<path d="M265.363 178.764C265.363 178.764 265.315 178.677 265.25 178.503C265.177 178.312 265.081 178.06 264.959 177.748C264.894 177.583 264.829 177.4 264.751 177.201C264.664 177.005 264.569 176.792 264.469 176.567C264.369 176.337 264.26 176.093 264.143 175.837C264.03 175.581 263.883 175.321 263.744 175.038C263.6 174.76 263.448 174.465 263.292 174.166C263.119 173.87 262.941 173.562 262.754 173.245C262.398 172.598 261.942 171.956 261.499 171.252C260.553 169.889 259.441 168.443 258.178 167.006C256.901 165.582 255.594 164.305 254.365 163.19C253.732 162.656 253.15 162.121 252.564 161.674C252.277 161.444 251.999 161.223 251.73 161.01C251.456 160.806 251.192 160.611 250.935 160.424C250.436 160.046 249.963 159.729 249.55 159.451C249.142 159.169 248.782 158.93 248.482 158.748C248.2 158.57 247.974 158.427 247.801 158.314C247.644 158.214 247.566 158.157 247.57 158.149C247.57 158.144 247.662 158.188 247.822 158.275C248 158.374 248.235 158.509 248.526 158.674C248.834 158.843 249.199 159.074 249.615 159.347C250.037 159.616 250.514 159.925 251.022 160.298C251.278 160.48 251.548 160.676 251.825 160.875C252.099 161.088 252.377 161.305 252.672 161.535C253.267 161.978 253.853 162.512 254.491 163.042C255.733 164.153 257.049 165.43 258.329 166.863C259.602 168.304 260.713 169.763 261.655 171.139C262.094 171.847 262.55 172.498 262.901 173.15C263.084 173.471 263.262 173.784 263.431 174.083C263.583 174.391 263.731 174.687 263.87 174.969C264.004 175.251 264.148 175.516 264.26 175.776C264.369 176.037 264.473 176.284 264.569 176.515C264.664 176.745 264.755 176.957 264.838 177.157C264.907 177.357 264.972 177.544 265.029 177.713C265.133 178.03 265.22 178.286 265.285 178.481C265.342 178.659 265.368 178.751 265.359 178.755L265.363 178.764Z" fill="#09101D"/>
<path d="M283.979 156.242C283.979 156.277 283.445 156.277 282.585 156.325C281.726 156.373 280.545 156.486 279.255 156.729C277.966 156.976 276.824 157.302 276.012 157.575C275.196 157.845 274.701 158.04 274.688 158.01C274.683 157.997 274.801 157.931 275.018 157.832C275.235 157.727 275.56 157.593 275.964 157.436C276.772 157.128 277.918 156.772 279.22 156.525C280.519 156.277 281.717 156.19 282.581 156.177C283.015 156.173 283.363 156.177 283.606 156.199C283.849 156.216 283.979 156.229 283.979 156.247V156.242Z" fill="#09101D"/>
<path d="M287.303 172.489C287.242 172.52 286.743 171.082 285.488 169.749C284.25 168.399 282.852 167.796 282.891 167.735C282.9 167.713 283.256 167.835 283.786 168.13C284.316 168.425 285.006 168.925 285.64 169.606C286.274 170.288 286.717 171.013 286.973 171.564C287.233 172.116 287.324 172.48 287.303 172.489Z" fill="#09101D"/>
<path d="M275.959 140.165C276.002 140.208 275.19 141.016 274.305 142.106C273.415 143.191 272.789 144.151 272.737 144.116C272.689 144.09 273.241 143.074 274.144 141.971C275.043 140.868 275.924 140.122 275.963 140.161L275.959 140.165Z" fill="#09101D"/>
<path d="M273.295 135.563C273.351 135.554 273.529 136.331 273.698 137.304C273.863 138.276 273.95 139.071 273.894 139.079C273.837 139.088 273.659 138.311 273.49 137.338C273.325 136.366 273.238 135.571 273.295 135.563Z" fill="#09101D"/>
<path d="M265.046 150.003C265.098 150.029 264.521 151.245 263.757 152.721C262.993 154.198 262.333 155.37 262.281 155.344C262.229 155.318 262.806 154.102 263.57 152.626C264.334 151.154 264.994 149.977 265.046 150.003Z" fill="#09101D"/>
<path d="M260.133 145.101C260.185 145.075 260.676 145.956 261.228 147.068C261.779 148.179 262.187 149.1 262.135 149.126C262.083 149.152 261.592 148.271 261.041 147.159C260.489 146.048 260.081 145.127 260.133 145.101Z" fill="#09101D"/>
<path d="M252.922 161.866C252.909 161.926 252.032 161.757 250.942 161.679C249.852 161.601 248.958 161.644 248.953 161.583C248.945 161.531 249.843 161.392 250.955 161.471C252.066 161.549 252.935 161.814 252.922 161.861V161.866Z" fill="#09101D"/>
<path d="M257.844 176.689L260.297 189.602C260.458 190.457 261.205 191.074 262.073 191.074H269.324C270.21 191.074 270.965 190.436 271.108 189.559L273.245 176.689H257.84H257.844Z" fill="#09101D"/>
<path d="M258.638 180.884H272.51L273.249 176.689H257.844L258.638 180.884Z" fill="#798087"/>
<path d="M258.637 180.884L258.928 182.416H272.296L272.509 180.884H258.637Z" fill="white"/>
<path d="M213.027 178.755L213.249 186.648C213.249 186.648 221.346 189.075 221.529 190.53L206.241 191.507L205.395 179.224L213.032 178.755H213.027Z" fill="#BE7346"/>
<path d="M208.478 186.284C208.188 186.383 208.005 186.731 208.092 187.022C208.179 187.317 208.531 187.504 208.821 187.412C209.112 187.317 209.347 186.909 209.225 186.627C209.104 186.344 208.683 186.145 208.422 186.305" fill="#E3E7EB"/>
<g opacity="0.6">
<path d="M206.234 191.502L206.195 190.26L220.866 189.787C220.866 189.787 221.565 190.039 221.518 190.525L206.23 191.502H206.234Z" fill="white"/>
</g>
<path d="M213.49 186.553C213.49 186.627 213.121 186.688 212.769 186.948C212.409 187.204 212.24 187.539 212.17 187.513C212.101 187.504 212.183 187.048 212.613 186.735C213.043 186.419 213.499 186.479 213.486 186.549L213.49 186.553Z" fill="#FF8F43"/>
<path d="M215.141 187.114C215.163 187.183 214.846 187.331 214.616 187.665C214.373 187.991 214.329 188.334 214.256 188.338C214.186 188.355 214.108 187.921 214.403 187.513C214.699 187.105 215.133 187.044 215.141 187.114Z" fill="#FF8F43"/>
<path d="M216.173 188.975C216.108 188.997 215.978 188.628 216.143 188.207C216.303 187.786 216.646 187.599 216.681 187.66C216.729 187.72 216.516 187.951 216.386 188.298C216.247 188.641 216.247 188.958 216.173 188.971V188.975Z" fill="#FF8F43"/>
<path d="M213.241 184.759C213.215 184.829 212.863 184.746 212.447 184.803C212.025 184.85 211.704 185.011 211.665 184.95C211.617 184.898 211.921 184.603 212.416 184.542C212.911 184.481 213.276 184.694 213.245 184.755L213.241 184.759Z" fill="#FF8F43"/>
<path d="M213.168 183.167C213.168 183.197 212.877 183.262 212.403 183.21C212.165 183.184 211.887 183.123 211.587 183.015C211.44 182.958 211.283 182.893 211.131 182.811C211.057 182.771 210.971 182.728 210.888 182.646C210.801 182.572 210.74 182.376 210.827 182.25C210.897 182.129 211.031 182.068 211.144 182.059C211.257 182.051 211.348 182.064 211.435 182.081C211.609 182.112 211.769 182.159 211.921 182.216C212.221 182.329 212.469 182.485 212.655 182.633C213.033 182.936 213.168 183.21 213.146 183.227C213.115 183.253 212.924 183.032 212.547 182.784C212.36 182.663 212.121 182.537 211.839 182.441C211.7 182.394 211.548 182.359 211.392 182.333C211.227 182.303 211.088 182.307 211.053 182.385C211.04 182.415 211.04 182.424 211.075 182.468C211.114 182.511 211.179 182.546 211.253 182.589C211.392 182.667 211.535 182.737 211.674 182.793C211.948 182.91 212.208 182.984 212.434 183.028C212.881 183.123 213.168 183.123 213.172 183.162L213.168 183.167Z" fill="#FF8F43"/>
<path d="M213.074 183.278C213.048 183.291 212.883 183.035 212.827 182.553C212.801 182.315 212.805 182.024 212.879 181.707C212.918 181.55 212.97 181.39 213.044 181.229C213.122 181.073 213.222 180.864 213.509 180.812C213.661 180.795 213.791 180.908 213.843 181.003C213.899 181.103 213.917 181.19 213.939 181.277C213.978 181.455 213.986 181.629 213.973 181.794C213.947 182.124 213.83 182.401 213.695 182.605C213.422 183.022 213.118 183.131 213.109 183.105C213.083 183.07 213.335 182.909 213.539 182.514C213.639 182.319 213.726 182.067 213.734 181.781C213.739 181.637 213.73 181.49 213.691 181.338C213.656 181.177 213.587 181.051 213.526 181.068C213.448 181.068 213.331 181.203 213.274 181.338C213.205 181.481 213.153 181.624 213.109 181.763C213.031 182.045 213.005 182.315 213.009 182.536C213.018 182.988 213.114 183.261 213.074 183.274V183.278Z" fill="#FF8F43"/>
<path d="M180.675 178.407L179.755 188.545L176.715 196.356C176.498 196.921 176.798 197.55 177.375 197.728C177.697 197.828 178.048 197.772 178.317 197.563C180.028 196.261 186.306 191.428 186.332 190.681C186.363 189.817 188.013 180.048 188.013 180.048L180.679 178.398L180.675 178.407Z" fill="#BE7346"/>
<g opacity="0.6">
<path d="M177.372 197.733L186.402 190.005L186.355 190.435C186.311 190.804 186.142 191.151 185.868 191.403C185.139 192.085 183.09 193.921 178.34 197.573C178.062 197.785 177.697 197.846 177.367 197.733H177.372Z" fill="white"/>
</g>
<g opacity="0.6">
<path d="M184.706 186.505C184.432 186.653 184.306 187.026 184.441 187.304C184.576 187.582 184.953 187.717 185.231 187.573C185.509 187.43 185.674 186.987 185.509 186.727C185.344 186.466 184.888 186.336 184.658 186.536" fill="white"/>
</g>
<path d="M180.19 193.578C180.13 193.599 179.96 193.044 179.392 192.688C178.831 192.319 178.258 192.397 178.254 192.332C178.25 192.306 178.384 192.24 178.627 192.236C178.866 192.227 179.205 192.301 179.517 192.501C179.83 192.701 180.034 192.978 180.125 193.2C180.221 193.421 180.217 193.573 180.19 193.578Z" fill="#FF8F43"/>
<path d="M179.316 194.85C179.264 194.889 178.977 194.524 178.469 194.311C177.966 194.09 177.505 194.138 177.497 194.072C177.475 194.016 177.983 193.86 178.556 194.107C179.134 194.35 179.372 194.828 179.316 194.85Z" fill="#FF8F43"/>
<path d="M181.729 191.993C181.677 192.036 181.238 191.472 180.478 191.077C179.727 190.669 179.011 190.625 179.02 190.556C179.011 190.499 179.775 190.443 180.587 190.877C181.399 191.303 181.785 191.967 181.733 191.993H181.729Z" fill="#FF8F43"/>
<path d="M182.268 188.931C182.233 188.988 181.704 188.692 180.978 188.584C180.258 188.467 179.659 188.584 179.641 188.519C179.619 188.467 180.236 188.236 181.013 188.362C181.79 188.48 182.307 188.888 182.268 188.931Z" fill="#FF8F43"/>
<path d="M182.613 185.962C182.574 186.019 182.053 185.615 181.28 185.563C180.507 185.493 179.93 185.806 179.899 185.745C179.886 185.723 180.012 185.606 180.26 185.498C180.507 185.389 180.881 185.302 181.297 185.337C181.714 185.372 182.07 185.515 182.296 185.658C182.526 185.806 182.63 185.936 182.613 185.958V185.962Z" fill="#FF8F43"/>
<path d="M181.363 185.003C181.363 185.003 181.341 184.864 181.393 184.62C181.445 184.377 181.554 184.026 181.81 183.652C181.94 183.479 182.084 183.248 182.379 183.149C182.526 183.096 182.735 183.149 182.839 183.296C182.943 183.439 182.961 183.609 182.948 183.769C182.865 184.412 182.24 184.968 181.51 184.981C180.777 184.981 180.164 184.49 179.943 183.9C179.895 183.748 179.874 183.57 179.969 183.405C180.065 183.24 180.277 183.196 180.421 183.235C180.716 183.314 180.885 183.509 181.046 183.657C181.363 183.978 181.545 184.295 181.645 184.521C181.749 184.746 181.771 184.885 181.762 184.89C181.723 184.911 181.563 184.364 180.937 183.769C180.777 183.631 180.594 183.461 180.382 183.413C180.277 183.392 180.182 183.422 180.134 183.505C180.086 183.583 180.095 183.713 180.134 183.83C180.325 184.312 180.885 184.759 181.506 184.751C182.123 184.751 182.67 184.256 182.744 183.743C182.761 183.617 182.744 183.492 182.683 183.409C182.626 183.331 182.526 183.296 182.431 183.327C182.227 183.383 182.071 183.583 181.94 183.743C181.428 184.438 181.406 185.02 181.363 185.003Z" fill="#FF8F43"/>
<path d="M178.369 105.955L177.766 185.033L188.885 185.745L191.225 119.689L204.555 185.371L214.662 184.308L203.912 105.942L178.369 105.955Z" fill="#09101D"/>
<path d="M191.888 41.7441C188.133 41.4532 184.863 44.2928 184.637 48.0528C184.451 51.1832 184.277 54.5698 184.299 56.2762C184.342 59.9363 188.007 60.5051 188.007 60.5051C188.007 60.5051 187.915 61.5905 187.816 62.9365C187.612 65.6458 189.687 67.9904 192.401 68.1163C195.062 68.2378 197.32 66.1798 197.437 63.5183L198.101 48.7692C198.266 45.1351 195.518 42.0264 191.888 41.7441Z" fill="#FFA485"/>
<path d="M187.997 60.4523C187.997 60.4523 190.311 60.639 192.769 59.0977C192.769 59.0977 191.64 61.7331 187.988 61.4032L187.997 60.4566V60.4523Z" fill="#E06A4B"/>
<path d="M197.764 50.0237C197.825 49.9976 200.278 49.2812 200.2 51.7821C200.122 54.283 197.625 53.6882 197.621 53.6144C197.621 53.5406 197.764 50.0194 197.764 50.0194V50.0237Z" fill="#FFA485"/>
<path d="M198.414 52.6933C198.414 52.6933 198.457 52.7237 198.531 52.7628C198.601 52.7975 198.727 52.8236 198.857 52.7802C199.126 52.6933 199.361 52.2809 199.387 51.8293C199.4 51.6035 199.361 51.3821 199.282 51.1997C199.213 51.013 199.096 50.8828 198.965 50.8567C198.835 50.822 198.735 50.9002 198.705 50.9696C198.67 51.0391 198.683 51.0912 198.67 51.0912C198.662 51.0955 198.618 51.0478 198.64 50.9436C198.653 50.8958 198.683 50.835 198.744 50.7916C198.805 50.7439 198.896 50.7221 198.987 50.7352C199.178 50.7569 199.348 50.9392 199.43 51.139C199.521 51.3387 199.573 51.5862 199.56 51.8423C199.53 52.346 199.256 52.8106 198.892 52.9017C198.714 52.9408 198.57 52.8844 198.497 52.8236C198.423 52.7585 198.41 52.702 198.418 52.6977L198.414 52.6933Z" fill="#E06A4B"/>
<path d="M185.559 50.3829C185.55 50.6608 185.776 50.8952 186.062 50.9082C186.349 50.9256 186.592 50.7129 186.601 50.435C186.61 50.1571 186.384 49.9227 186.097 49.9053C185.811 49.8879 185.568 50.1007 185.559 50.3785V50.3829Z" fill="#09101D"/>
<path d="M185.57 49.358C185.635 49.4275 186.031 49.1323 186.595 49.1366C187.155 49.1279 187.568 49.4188 187.633 49.3494C187.663 49.319 187.598 49.1974 187.416 49.0628C187.238 48.9326 186.938 48.8066 186.586 48.8066C186.235 48.8066 185.939 48.9369 185.77 49.0715C185.596 49.2061 185.54 49.3277 185.57 49.358Z" fill="#09101D"/>
<path d="M191.09 50.3829C191.081 50.6608 191.307 50.8952 191.594 50.9082C191.88 50.9256 192.123 50.7129 192.132 50.435C192.141 50.1571 191.915 49.9227 191.628 49.9053C191.342 49.8879 191.099 50.1007 191.09 50.3785V50.3829Z" fill="#09101D"/>
<path d="M191.102 49.4621C191.167 49.5316 191.562 49.2363 192.126 49.2407C192.686 49.232 193.103 49.5229 193.164 49.4534C193.194 49.423 193.129 49.3015 192.947 49.1712C192.769 49.0409 192.469 48.915 192.118 48.915C191.766 48.915 191.471 49.0453 191.301 49.1799C191.128 49.3145 191.071 49.4361 191.102 49.4664V49.4621Z" fill="#09101D"/>
<path d="M189.059 53.6347C189.059 53.6044 188.712 53.5436 188.147 53.4698C188.004 53.4567 187.869 53.4263 187.843 53.3265C187.809 53.2223 187.869 53.066 187.939 52.901C188.073 52.5536 188.217 52.1889 188.364 51.8068C188.955 50.2481 189.38 48.9673 189.319 48.9456C189.254 48.9239 188.729 50.1656 188.138 51.7244C187.995 52.1064 187.861 52.4755 187.73 52.8228C187.674 52.9878 187.583 53.1702 187.657 53.3873C187.696 53.4958 187.8 53.574 187.891 53.5957C187.982 53.6217 188.065 53.6261 188.134 53.6304C188.703 53.6608 189.059 53.6651 189.059 53.6304V53.6347Z" fill="#09101D"/>
<path d="M190.719 54.0259C190.628 54.0216 190.628 54.6294 190.103 55.0636C189.582 55.4978 188.93 55.4283 188.926 55.5152C188.917 55.5542 189.069 55.6324 189.347 55.6411C189.616 55.6498 190.012 55.5629 190.329 55.2981C190.645 55.0332 190.784 54.6772 190.806 54.4254C190.828 54.1692 190.763 54.0172 190.719 54.0216V54.0259Z" fill="#09101D"/>
<path d="M190.96 47.2578C191.017 47.4098 191.577 47.3403 192.237 47.4184C192.897 47.4836 193.431 47.679 193.518 47.54C193.557 47.4749 193.466 47.3316 193.249 47.184C193.036 47.0364 192.693 46.8974 192.298 46.8497C191.903 46.8062 191.538 46.8714 191.299 46.9669C191.056 47.0624 190.934 47.184 190.96 47.2578Z" fill="#09101D"/>
<path d="M185.784 47.7308C185.884 47.8567 186.27 47.7264 186.735 47.7178C187.2 47.6961 187.595 47.8046 187.686 47.67C187.725 47.6049 187.664 47.479 187.49 47.3574C187.321 47.2358 187.035 47.1403 186.718 47.149C186.396 47.1577 186.118 47.2749 185.958 47.4052C185.793 47.5354 185.741 47.67 185.784 47.7308Z" fill="#09101D"/>
<path d="M198.052 49.9111C198.083 50.2931 198.07 50.736 197.991 51.1137C197.909 51.4915 197.696 51.8562 197.353 52.0255C196.724 52.3381 195.933 51.8562 195.656 51.2136C195.373 50.571 195.452 49.8329 195.517 49.1339C195.603 48.1787 195.656 47.2104 195.473 46.2683C195.291 45.3261 194.848 44.41 194.097 43.8108C193.346 43.216 192.26 42.9989 191.401 43.42C190.871 43.6806 190.471 44.1495 189.976 44.4708C189.529 44.7617 188.991 44.9353 188.466 44.8528C187.94 44.7704 187.445 44.4013 187.306 43.889C187.154 43.3289 187.445 42.721 187.897 42.352C188.348 41.9873 188.926 41.8223 189.495 41.7137C191.075 41.4141 192.747 41.4879 194.244 42.0828C195.738 42.6776 197.062 43.8065 197.692 45.2914C198.421 47.0064 198.326 48.0484 198.113 49.9111" fill="#09101D"/>
<path d="M147.06 69.0801L152.401 70.1569L159.743 74.833L157.238 79.6003C157.238 79.6003 154.654 78.8795 153.903 78.2152C153.152 77.5509 152.314 77.4728 152.314 77.4728C152.314 77.4728 152.366 78.6538 151.472 78.4497C150.577 78.2456 149.088 77.9938 149.34 76.7347C149.34 76.7347 148.675 76.5523 148.71 75.6753C148.71 75.6753 147.972 75.6188 148.172 74.3988C148.372 73.1787 149.253 71.5983 151.689 72.0455C151.815 72.0716 151.984 71.8284 151.762 71.7459L147.998 70.8602C147.998 70.8602 145.641 69.9267 147.06 69.0888V69.0801Z" fill="#FFA485"/>
<path d="M149.697 74.338C149.706 74.3076 150.049 74.3945 150.592 74.5551C150.865 74.6463 151.182 74.7114 151.551 74.8808C151.729 74.9719 151.916 75.1326 151.986 75.3757C152.055 75.6276 151.92 75.8968 151.729 76.0444C151.317 76.357 150.822 76.2615 150.47 76.2094C150.097 76.1529 149.763 76.0834 149.485 76.0053C148.933 75.849 148.616 75.684 148.629 75.658C148.642 75.6232 148.972 75.7361 149.524 75.849C149.797 75.9054 150.127 75.9575 150.496 76.001C150.683 76.0183 150.878 76.0531 151.061 76.04C151.247 76.027 151.443 75.9792 151.586 75.8664C151.729 75.7535 151.808 75.5755 151.768 75.4278C151.729 75.2715 151.599 75.1413 151.451 75.0631C151.143 74.9068 150.8 74.8113 150.54 74.7071C150.01 74.5074 149.689 74.3684 149.697 74.338Z" fill="#E06A4B"/>
<path d="M150.999 73.6477C150.99 73.7129 150.673 73.7215 150.361 73.9213C150.044 74.1167 149.896 74.3989 149.835 74.3772C149.774 74.3685 149.848 73.9734 150.239 73.7302C150.625 73.4827 151.016 73.587 150.999 73.6477Z" fill="#E06A4B"/>
<path d="M151.563 75.9883C151.563 75.9883 151.62 75.9926 151.685 76.0621C151.767 76.1316 151.78 76.2922 151.802 76.4268C151.828 76.5918 151.802 76.8132 151.65 76.9956C151.494 77.1953 151.185 77.2387 150.955 77.1996C150.495 77.1302 150.083 77.0607 149.787 76.9652C149.492 76.8697 149.331 76.7655 149.34 76.7394C149.353 76.709 149.531 76.7611 149.826 76.8132C150.117 76.8697 150.534 76.9087 150.986 76.9782C151.203 77.0086 151.385 76.9826 151.494 76.861C151.607 76.7438 151.646 76.5788 151.641 76.4442C151.641 76.2792 151.654 76.1837 151.615 76.1185C151.581 76.0491 151.55 76.0057 151.563 75.997V75.9883Z" fill="#E06A4B"/>
<path d="M151.524 76.9693C151.519 76.9432 151.619 76.8955 151.784 76.9432C151.945 76.9866 152.127 77.1299 152.262 77.3253C152.422 77.5641 152.366 77.8159 152.318 77.9549C152.266 78.1025 152.201 78.172 152.175 78.1633C152.144 78.1502 152.153 78.0591 152.162 77.9201C152.171 77.7855 152.175 77.5945 152.075 77.4556C151.953 77.2862 151.828 77.156 151.719 77.0908C151.61 77.0214 151.524 77.004 151.524 76.9736V76.9693Z" fill="#E06A4B"/>
<path d="M155.627 74.2082L153.048 74.0996L150.343 74.6293C150.343 74.6293 150.122 75.1199 151.372 75.4543C152.627 75.7886 153.782 75.5671 153.782 75.5671C153.782 75.5671 154.898 77.1953 156.348 77.5687" fill="#FFA485"/>
<path d="M156.352 77.5724C156.352 77.5724 156.265 77.5681 156.113 77.529C155.961 77.4856 155.744 77.4031 155.483 77.2598C154.967 76.9776 154.307 76.4349 153.703 75.623L153.803 75.6664C152.931 75.801 151.875 75.801 150.838 75.3885C150.686 75.319 150.538 75.2409 150.412 75.1193C150.291 74.9977 150.165 74.8197 150.243 74.5809L150.26 74.5288L150.325 74.5158C151.32 74.3291 152.24 74.1554 153.035 74.0078H153.048H153.056C153.838 74.0512 154.485 74.0903 154.932 74.125C155.379 74.1598 155.631 74.1858 155.631 74.2075C155.631 74.2249 155.375 74.2336 154.928 74.2292C154.481 74.2292 153.834 74.2119 153.048 74.1902H153.069C152.279 74.3508 151.359 74.5332 150.369 74.7372L150.451 74.6721C150.43 74.7372 150.477 74.8675 150.573 74.9543C150.668 75.0455 150.799 75.1193 150.938 75.1801C151.902 75.5665 152.948 75.5839 153.773 75.471L153.838 75.4623L153.873 75.5144C154.437 76.3046 155.067 76.8604 155.549 77.16C156.031 77.4726 156.365 77.542 156.356 77.5724H156.352Z" fill="#E06A4B"/>
<path d="M152.486 72.7013C152.451 72.7534 152.204 72.6405 152.017 72.3757C151.831 72.1108 151.804 71.8416 151.865 71.8243C151.926 71.8069 152.039 72.0153 152.204 72.2454C152.365 72.4755 152.525 72.6492 152.486 72.7013Z" fill="#E06A4B"/>
<path d="M180.762 106.563C185.195 108.478 190.379 109.047 196.232 108.426L200.517 64.7646L197.478 62.4287L190.475 67.6345L188.074 62.6198L182.451 70.6999L180.758 106.563H180.762Z" fill="white"/>
<path d="M188.122 108.669C188.122 108.669 188.109 108.634 188.096 108.565C188.083 108.482 188.065 108.382 188.048 108.256C188.009 107.965 187.952 107.57 187.883 107.067C187.84 106.546 187.805 105.912 187.761 105.169C187.722 104.431 187.727 103.584 187.705 102.655C187.679 98.9257 187.926 93.7807 188.343 88.1146C188.76 82.4442 189.272 77.3209 189.685 73.6173C189.889 71.7677 190.08 70.2698 190.219 69.2365C190.288 68.7198 190.354 68.3203 190.397 68.0511C190.419 67.9252 190.436 67.8254 190.449 67.7429C190.462 67.6734 190.471 67.6387 190.475 67.6387C190.475 67.6387 190.475 67.6734 190.475 67.7472C190.466 67.8297 190.458 67.9339 190.445 68.0598C190.41 68.3507 190.367 68.7502 190.31 69.2495C190.197 70.3045 190.041 71.7981 189.846 73.6347C189.472 77.3383 188.986 82.4616 188.569 88.132C188.152 93.7981 187.879 98.9344 187.866 102.66C187.874 103.589 187.866 104.431 187.887 105.169C187.922 105.903 187.948 106.537 187.974 107.062C188.026 107.566 188.065 107.961 188.096 108.252C188.104 108.378 188.113 108.478 188.122 108.565C188.126 108.634 188.126 108.673 188.122 108.673V108.669Z" fill="#09101D"/>
<path d="M194.018 115.098C194.018 115.098 190.753 80.9674 192.781 77.1553C194.348 74.2028 196.775 68.0375 197.787 65.4063C198.091 64.6205 198.069 63.7434 197.726 62.9749L197.483 62.4365L200.522 64.7724L206.762 68.1243L202.997 97.0407L207.261 111.712L194.018 115.107V115.098Z" fill="#BE7346"/>
<g opacity="0.3">
<path d="M193.18 105.217C195.833 104.661 194.687 106.202 197.37 105.811C198.82 105.599 198.894 104.752 200.088 103.905C201.282 103.054 203.088 102.347 204.556 102.377L203.961 100.332L192.863 100.745L193.185 105.217H193.18Z" fill="#09101D"/>
</g>
<path d="M177.888 69.7711L178.97 97.0376L176.781 112.299L182.248 114.318L184.64 72.1504C184.666 70.583 185.018 69.0373 185.673 67.6132L187.814 62.9414L180.563 65.4119L177.893 69.7754L177.888 69.7711Z" fill="#BE7346"/>
<path d="M206.762 68.1201C206.762 68.1201 210.188 71.0812 210.956 75.0627C211.516 77.9673 213.17 88.1532 213.631 93.3851C213.917 96.6371 211.633 99.5722 208.408 100.045C208.36 100.054 208.308 100.058 208.26 100.067C203.297 100.744 194.961 99.8066 194.961 99.8066L196.415 93.4676C196.415 93.4676 203.788 92.4038 205.112 91.5138L203.354 79.7518C203.354 79.7518 204.795 68.4588 206.766 68.1201H206.762Z" fill="#BE7346"/>
<path d="M160.219 73.9216L172.289 81.5675C172.289 81.5675 176.635 68.7939 179.431 65.7937L182.792 64.6475L179.726 89.1526C179.496 90.5377 178.689 91.7621 177.512 92.5219C175.701 93.6855 173.348 93.5596 171.677 92.2049L156.91 80.2302L160.223 73.9216H160.219Z" fill="#BE7346"/>
<path d="M207.316 95.4913C207.277 95.4913 207.299 95.2134 207.242 94.7792C207.19 94.3494 207.034 93.7589 206.708 93.1858C206.378 92.6126 205.953 92.1785 205.605 91.9136C205.262 91.6444 205.015 91.5229 205.032 91.4881C205.041 91.4664 205.314 91.5359 205.701 91.7834C206.083 92.0265 206.556 92.465 206.908 93.0729C207.255 93.6807 207.394 94.3146 207.407 94.7662C207.424 95.2221 207.346 95.4956 207.32 95.4913H207.316Z" fill="#09101D"/>
<path d="M206.02 96.3297C205.946 96.3167 206.276 95.1661 205.99 93.768C205.72 92.3656 204.978 91.4234 205.043 91.3887C205.065 91.3713 205.278 91.5797 205.534 91.9879C205.79 92.3917 206.068 93.0039 206.215 93.7289C206.359 94.4497 206.333 95.127 206.25 95.5959C206.168 96.0692 206.05 96.3427 206.024 96.334L206.02 96.3297Z" fill="#09101D"/>
<path d="M205.925 69.3141C205.955 69.3532 205.317 69.7179 204.609 70.6253C203.897 71.5197 203.207 73.0003 202.999 74.7414C202.795 76.4868 202.999 78.0845 203.159 79.2264C203.242 79.7605 203.307 80.2164 203.363 80.5811C203.411 80.9024 203.433 81.0804 203.415 81.0847C203.402 81.0847 203.35 80.9154 203.276 80.5984C203.203 80.2815 203.103 79.8213 202.999 79.2525C202.799 78.1149 202.564 76.4954 202.773 74.7153C202.986 72.9308 203.719 71.4155 204.483 70.5255C204.861 70.0739 205.222 69.7613 205.491 69.5746C205.756 69.3879 205.921 69.3054 205.925 69.3141Z" fill="#09101D"/>
<g opacity="0.3">
<path d="M205.203 91.4141C205.772 92.0827 206.05 92.9684 206.085 93.8498C206.119 94.7269 205.933 95.6039 205.663 96.4375C205.616 96.5938 205.564 96.7719 205.65 96.9108C205.763 97.0845 206.045 97.0671 206.197 96.9282C206.354 96.7892 206.414 96.5765 206.471 96.3768C206.367 96.494 206.519 96.6937 206.675 96.685C206.831 96.6763 206.949 96.5417 207.035 96.4115C207.522 95.656 207.478 94.6574 207.14 93.8281C206.801 92.9988 206.193 92.3128 205.577 91.6615" fill="#09101D"/>
</g>
<path d="M174.752 86.3433C174.705 86.378 173.958 85.4054 173.276 84.0638C172.59 82.7222 172.238 81.5499 172.295 81.5325C172.356 81.5108 172.799 82.6397 173.476 83.9639C174.149 85.2925 174.809 86.3085 174.752 86.3476V86.3433Z" fill="#09101D"/>
<path d="M173.063 87.263C173.033 87.2717 172.915 86.9634 172.759 86.4468C172.607 85.9344 172.425 85.2137 172.277 84.4061C172.129 83.5985 172.043 82.8648 171.999 82.3264C171.96 81.7923 171.96 81.458 171.991 81.458C172.056 81.4537 172.199 82.7649 172.499 84.367C172.789 85.9692 173.124 87.2456 173.059 87.263H173.063Z" fill="#09101D"/>
<path d="M178.972 73.2002C179.033 73.2002 179.085 78.5363 179.085 85.1185C179.085 91.7006 179.033 97.0367 178.972 97.0367C178.911 97.0367 178.859 91.7006 178.859 85.1185C178.859 78.5363 178.911 73.2002 178.972 73.2002Z" fill="#09101D"/>
<path d="M186.322 63.4446C186.322 63.4446 186.278 63.5227 186.179 63.6573C186.066 63.8093 185.922 64.0046 185.744 64.2478C185.375 64.7645 184.85 65.5243 184.286 66.5142C183.73 67.5041 183.079 68.7242 182.74 70.1961C182.605 70.9255 182.518 71.7374 182.397 72.558C182.037 73.4264 182.892 73.9908 183.587 74.4641L183.76 74.5813L183.565 74.6638C183.335 74.7636 183.092 74.9373 182.857 75.1153C182.545 75.3585 182.245 75.6146 181.976 75.8621L182.01 75.7709C182.145 77.4946 182.445 79.1272 182.64 80.6034C182.848 82.0709 183.031 83.3908 183.191 84.5067C183.335 85.5921 183.456 86.4778 183.543 87.1204C183.578 87.4113 183.604 87.6458 183.626 87.8281C183.643 87.9888 183.647 88.0756 183.639 88.0756C183.63 88.0756 183.613 87.9931 183.582 87.8325C183.552 87.6501 183.508 87.4157 183.456 87.1291C183.352 86.4909 183.213 85.6095 183.04 84.5284C182.87 83.4169 182.666 82.097 182.44 80.6294C182.232 79.1532 181.928 77.5381 181.789 75.784V75.7275L181.824 75.6928C182.102 75.441 182.401 75.1805 182.723 74.933C182.966 74.7506 183.204 74.5683 183.487 74.451L183.465 74.6508C183.087 74.4076 182.723 74.1428 182.423 73.8041C182.28 73.6304 182.141 73.435 182.11 73.1832C182.097 73.1268 182.11 73.053 182.11 72.9965L182.132 72.8402L182.175 72.532C182.301 71.707 182.388 70.9211 182.536 70.1526C182.71 69.3972 182.979 68.7155 183.265 68.099C183.552 67.4824 183.856 66.9267 184.151 66.4361C184.737 65.4461 185.284 64.6993 185.675 64.1957C185.87 63.9439 186.031 63.7528 186.14 63.6269C186.252 63.501 186.313 63.4402 186.318 63.4446H186.322Z" fill="#09101D"/>
<path d="M199.698 64.2432C199.698 64.2432 199.724 64.3039 199.758 64.4255C199.793 64.5471 199.828 64.7294 199.867 64.9639C199.936 65.4372 199.962 66.1319 199.863 66.9785C199.758 67.8252 199.524 68.8151 199.211 69.8919C198.916 70.973 198.504 72.1496 197.974 73.3306C197.501 74.3987 196.997 75.3929 196.532 76.3047L196.511 76.3525L196.463 76.3612C196.103 76.435 195.751 76.5044 195.417 76.5739L195.473 76.4089C195.707 76.6868 195.933 76.956 196.15 77.2121L196.194 77.2642L196.159 77.3207C195.542 78.3106 195.026 79.1399 194.644 79.7564C194.47 80.0213 194.327 80.2427 194.209 80.4251C194.11 80.577 194.049 80.6552 194.04 80.6509C194.031 80.6465 194.075 80.5597 194.162 80.399C194.266 80.2123 194.396 79.9822 194.552 79.7043C194.917 79.0791 195.412 78.2368 196.003 77.2295L196.011 77.3381C195.794 77.0862 195.564 76.8214 195.325 76.5478L195.212 76.4219L195.377 76.3872C195.712 76.3177 196.063 76.2396 196.424 76.1658L196.35 76.2222C196.802 75.3061 197.301 74.3118 197.774 73.2524C198.304 72.0758 198.712 70.9252 199.02 69.8484C199.346 68.7804 199.593 67.8035 199.715 66.9742C199.836 66.1405 199.836 65.4589 199.793 64.99C199.754 64.521 199.693 64.2649 199.715 64.2605L199.698 64.2432Z" fill="#09101D"/>
<g opacity="0.3">
<path d="M174.231 86.1477C173.693 84.6107 172.95 83.0563 172.29 81.5671L171.743 81.2197C171.296 82.5874 171.47 84.0853 171.947 85.44C171.991 85.5615 172.052 85.6961 172.173 85.7396C172.334 85.796 172.507 85.644 172.538 85.479C172.573 85.3141 172.507 85.1404 172.447 84.9841C172.803 85.618 173.211 86.2215 173.662 86.7859C173.732 86.8728 173.814 86.9639 173.923 86.99C174.101 87.0291 174.275 86.8641 174.309 86.6861C174.344 86.508 174.283 86.3214 174.222 86.152L174.231 86.1477Z" fill="#09101D"/>
</g>
<g opacity="0.3">
<path d="M183.353 87.4448C182.311 84.4968 181.265 81.527 180.852 78.4269C180.761 77.7452 180.705 77.0375 180.878 76.3732C181.056 75.7046 181.508 75.0794 182.163 74.8623C181.794 74.4628 181.786 73.7812 182.146 73.373C182.572 73.8246 182.993 74.2718 183.418 74.7233C182.758 74.7147 182.207 75.2834 182.016 75.913C181.825 76.5426 181.912 77.2199 181.998 77.8712C182.433 81.0971 182.863 84.3231 183.297 87.5491" fill="#09101D"/>
</g>
<g opacity="0.3">
<path d="M197.213 77.1076C197.842 74.9019 198.476 72.692 199.106 70.4863C198.576 71.7541 198.047 73.0176 197.517 74.2854C197.295 74.8151 197.065 75.3578 196.683 75.7877C196.301 76.2175 195.732 76.5258 195.164 76.4389C195.494 76.6647 195.824 76.8862 196.154 77.1119C195.446 78.2538 194.751 79.5043 194.039 80.6462L195.563 80.7764C196.14 79.8559 196.657 79.0397 197.235 78.1236C197.065 77.8196 196.896 77.5157 196.727 77.2074C196.892 77.1771 197.057 77.1423 197.222 77.1119L197.213 77.1076Z" fill="#09101D"/>
</g>
<path d="M187.81 62.9363L187.892 61.8769L189.855 64.647L190.48 67.6385L192.082 64.647L197.618 61.4297V64.2432L196.558 66.9785L194.496 68.572L192.134 69.6053L189.329 69.08L187.632 68.1204L187.254 66.1362L187.81 62.9363Z" fill="white"/>
<path d="M189.716 64.6077C189.746 64.6207 189.599 64.9941 189.429 65.615C189.264 66.2359 189.056 67.1259 189.104 68.1159L189.125 68.5457L188.9 68.1853C188.856 68.1159 188.808 68.0421 188.761 67.9682C188.205 67.0217 187.949 66.0796 187.667 65.4457C187.402 64.8031 187.172 64.434 187.202 64.4166C187.224 64.3993 187.506 64.7423 187.814 65.3805C188.135 66.0101 188.422 66.9479 188.956 67.851C188.999 67.9248 189.047 67.9943 189.086 68.0594L188.878 68.1289C188.834 67.0912 189.073 66.1924 189.282 65.5716C189.494 64.9507 189.694 64.599 189.716 64.6077Z" fill="#09101D"/>
<path d="M197.618 63.2617C197.618 63.2617 197.631 63.3008 197.631 63.3746C197.639 63.4484 197.622 63.5613 197.596 63.7002C197.535 63.9781 197.344 64.3645 197.01 64.7466C196.676 65.133 196.207 65.5195 195.655 65.8929C195.091 66.2445 194.526 66.6787 193.931 67.1607C193.397 67.5818 192.885 67.9943 192.368 68.3112L192.164 68.4372L192.208 68.2027C192.299 67.7077 192.273 67.2128 192.256 66.7829C192.234 66.3487 192.195 65.971 192.164 65.6541C192.099 65.0245 192.056 64.6511 192.082 64.6468C192.104 64.6468 192.195 65.0071 192.295 65.6367C192.342 65.9536 192.399 66.3357 192.434 66.7699C192.464 67.2084 192.503 67.699 192.416 68.2418L192.256 68.1332C192.751 67.8206 193.254 67.4081 193.788 66.987C194.379 66.5094 194.974 66.0622 195.538 65.7235C196.085 65.3675 196.554 65.0028 196.888 64.6424C197.227 64.2864 197.422 63.9347 197.509 63.6785C197.592 63.418 197.592 63.2617 197.613 63.2617H197.618Z" fill="#09101D"/>
<path d="M204.307 100.315C204.307 100.315 204.246 100.328 204.129 100.337C203.994 100.345 203.825 100.354 203.616 100.367C203.165 100.389 202.509 100.415 201.68 100.428C200.851 100.441 199.848 100.45 198.706 100.437C198.137 100.432 197.534 100.419 196.895 100.398C196.578 100.385 196.253 100.372 195.923 100.354C195.758 100.341 195.588 100.332 195.419 100.319L195.163 100.293C195.119 100.285 195.076 100.285 195.028 100.272C195.002 100.267 194.985 100.267 194.954 100.254L194.911 100.241C194.911 100.241 194.829 100.185 194.824 100.146V100.12V100.102C195.202 98.3873 195.619 96.5073 196.057 94.5405C196.14 94.1714 196.222 93.8024 196.3 93.442L196.318 93.3682L196.396 93.3552C199.791 92.8559 202.883 92.3479 205.075 91.4361L205.027 91.5273C204.815 90.0076 204.645 88.7659 204.519 87.8801C204.467 87.4677 204.424 87.1377 204.394 86.8859C204.368 86.6558 204.359 86.5385 204.368 86.5342C204.376 86.5342 204.402 86.6514 204.441 86.8772C204.485 87.1247 204.541 87.4546 204.611 87.8671C204.754 88.7528 204.949 89.9903 205.192 91.5056L205.201 91.5707L205.14 91.5967C202.93 92.5519 199.826 93.0816 196.431 93.5853L196.526 93.4984C196.448 93.8588 196.366 94.2279 196.283 94.5969C195.84 96.5638 195.419 98.4438 195.037 100.154L194.946 100.128C197.659 100.25 200.034 100.302 201.684 100.302C202.496 100.302 203.147 100.302 203.621 100.302C203.829 100.302 203.998 100.302 204.137 100.302C204.255 100.302 204.315 100.306 204.315 100.315H204.307Z" fill="#09101D"/>
<path d="M205.709 83.3789L201.949 92.488L196.422 93.4693L194.937 100.13L198.589 100.342L198.563 100.585L184.23 100.994L190.296 83.3789H205.709Z" fill="#798087"/>
<path d="M188.272 80.3574L190.295 83.3793L184.229 100.994L182.254 97.6161L188.272 80.3574Z" fill="#798087"/>
<path d="M205.706 83.3793L203.492 81.2258L188.27 80.3574L190.293 83.3793H205.706Z" fill="#E3E7EB"/>
<path d="M190.298 83.379C190.359 83.4007 189.047 87.3604 187.371 92.2233C185.695 97.0904 184.289 101.015 184.232 100.994C184.176 100.972 185.483 97.0123 187.159 92.1494C188.835 87.2866 190.237 83.3573 190.298 83.379Z" fill="#09101D"/>
<path d="M196.211 93.9727L193.584 93.7469C193.584 93.7469 192.568 92.058 191.9 91.4718C191.231 90.8813 187.779 89.2314 187.779 89.2314C187.779 89.2314 187.276 89.835 187.779 90.4428C188.005 90.7163 189.637 91.6325 189.637 91.6325C189.833 92.3054 189.251 92.948 188.565 92.8178C187.553 92.6311 186.377 92.4227 186.22 92.4227C186.047 92.4227 185.04 91.4675 184.297 90.7424C183.854 90.3082 183.06 90.725 183.238 91.3199C183.255 91.3806 183.285 91.4327 183.324 91.4675C183.324 91.4675 182.261 91.4284 183.212 92.8612C183.212 92.8612 182.99 94.1855 183.772 94.789C183.772 94.789 184.11 96.3867 184.61 96.9382C185.109 97.4896 190.007 98.5359 190.007 98.5359L195.108 99.0309L196.211 93.9684V93.9727Z" fill="#FFA485"/>
<path d="M188.127 94.3367C188.127 94.3671 187.793 94.3845 187.25 94.3584C186.716 94.3237 185.935 94.2499 185.192 93.8157C184.45 93.3685 184.029 92.6999 183.759 92.2396C183.49 91.7664 183.36 91.4625 183.386 91.4451C183.416 91.4277 183.594 91.7099 183.894 92.1528C184.194 92.587 184.623 93.2079 185.309 93.616C185.996 94.0154 186.742 94.1196 187.268 94.1935C187.797 94.2586 188.132 94.2977 188.127 94.3324V94.3367Z" fill="#E06A4B"/>
<path d="M187.621 95.4702C187.625 95.5006 187.317 95.5701 186.822 95.531C186.574 95.5136 186.279 95.4789 185.958 95.4051C185.641 95.3269 185.276 95.2357 184.95 94.9926C184.638 94.7538 184.408 94.4716 184.199 94.2198C184.013 93.9896 183.835 93.7639 183.661 93.5468C183.357 93.1604 183.183 92.9129 183.205 92.8912C183.227 92.8695 183.448 93.0822 183.782 93.4426C183.947 93.6206 184.147 93.8377 184.36 94.0808C184.573 94.3196 184.807 94.5888 185.085 94.8059C185.358 95.0143 185.706 95.1098 186.01 95.1967C186.318 95.2748 186.6 95.3313 186.839 95.366C187.317 95.4398 187.616 95.4311 187.621 95.4615V95.4702Z" fill="#E06A4B"/>
<path d="M186.933 96.7344C186.92 96.8256 186.043 96.6389 185.009 96.3523C184.836 96.3132 184.731 96.2047 184.632 96.1222C184.532 96.0354 184.445 95.9398 184.367 95.853C184.206 95.6706 184.08 95.497 183.989 95.3407C183.798 95.0281 183.746 94.8066 183.772 94.7936C183.802 94.7806 183.902 94.9716 184.119 95.2495C184.228 95.3884 184.358 95.5447 184.519 95.7097C184.597 95.7922 184.684 95.8747 184.779 95.9529C184.875 96.0267 184.97 96.1135 185.066 96.1309C185.595 96.2742 186.056 96.4218 186.394 96.5303C186.733 96.6432 186.933 96.7083 186.933 96.7344Z" fill="#E06A4B"/>
</g>
</g>
<defs>
<filter id="filter0_dd_570_26625" x="51.1758" y="12.1006" width="225.793" height="164.129" filterUnits="userSpaceOnUse" color-interpolation-filters="sRGB">
<feFlood flood-opacity="0" result="BackgroundImageFix"/>
<feColorMatrix in="SourceAlpha" type="matrix" values="0 0 0 0 0 0 0 0 0 0 0 0 0 0 0 0 0 0 127 0" result="hardAlpha"/>
<feOffset dx="2.1709" dy="2.1709"/>
<feGaussianBlur stdDeviation="2.1709"/>
<feComposite in2="hardAlpha" operator="out"/>
<feColorMatrix type="matrix" values="0 0 0 0 0.545098 0 0 0 0 0.54902 0 0 0 0 0.627451 0 0 0 0.25 0"/>
<feBlend mode="multiply" in2="BackgroundImageFix" result="effect1_dropShadow_570_26625"/>
<feColorMatrix in="SourceAlpha" type="matrix" values="0 0 0 0 0 0 0 0 0 0 0 0 0 0 0 0 0 0 127 0" result="hardAlpha"/>
<feOffset dx="4.34181" dy="4.34181"/>
<feGaussianBlur stdDeviation="6.51271"/>
<feComposite in2="hardAlpha" operator="out"/>
<feColorMatrix type="matrix" values="0 0 0 0 0.545098 0 0 0 0 0.54902 0 0 0 0 0.627451 0 0 0 0.25 0"/>
<feBlend mode="multiply" in2="effect1_dropShadow_570_26625" result="effect2_dropShadow_570_26625"/>
<feBlend mode="normal" in="SourceGraphic" in2="effect2_dropShadow_570_26625" result="shape"/>
</filter>
<clipPath id="clip0_570_26625">
<rect width="316.952" height="217.09" fill="white" transform="translate(0.765625 -8.45898)"/>
</clipPath>
<clipPath id="clip1_570_26625">
<rect width="275.258" height="195.829" fill="white" transform="translate(19.4336 1.96094)"/>
</clipPath>
</defs>
</svg>
