<svg width="220" height="276" viewBox="0 0 220 276" fill="none" xmlns="http://www.w3.org/2000/svg">
<g filter="url(#filter0_dd_189_13336)">
<rect x="20" y="20" width="160" height="215.172" rx="20" fill="white"/>
<path d="M51.6746 47.2905V51.0931H53.1187V52.0876H51.6746V57.0067H50.4744V47.2905H51.6746ZM43.997 54.3471C46.367 53.1583 47.6472 51.5047 47.8834 49.2871H44.5152V48.3002H49.1027C49.0951 51.1617 47.9101 53.6765 44.6714 55.2692L43.997 54.3471ZM57.0772 49.047C57.0772 50.2358 57.8468 51.3561 59.3671 51.8209L58.7994 52.762C57.7059 52.4191 56.9324 51.7257 56.5018 50.8493C56.0713 51.8704 55.2521 52.6782 54.0823 53.0707L53.4727 52.1219C55.0425 51.6152 55.8655 50.3502 55.8731 49.0547V48.9327H53.808V47.9649H59.0966V48.9327H57.0772V49.047ZM54.8024 55.1549C54.7986 53.9889 56.0598 53.3107 58.0983 53.3107C60.1177 53.3107 61.3561 53.9889 61.3561 55.1549C61.3561 56.3284 60.1177 57.0181 58.0983 57.0143C56.0598 57.0181 54.7986 56.3284 54.8024 55.1549ZM55.9989 55.1549C55.9951 55.7569 56.7609 56.077 58.0983 56.0731C59.4319 56.077 60.1787 55.7569 60.1787 55.1549C60.1787 54.5643 59.4319 54.2518 58.0983 54.2518C56.7609 54.2518 55.9951 54.5643 55.9989 55.1549ZM60.0644 53.0973V47.2905H61.2684V49.6262H62.6287V50.6092H61.2684V53.0973H60.0644ZM73.4236 47.2905V49.3862H74.7839V50.373H73.4236V52.1905H72.2196V47.2905H73.4236ZM66.0698 51.9352V47.9116H70.684V51.9352H66.0698ZM66.6642 56.7628V53.0211H67.834V55.7836C68.3941 55.7493 68.9732 55.6693 69.5295 55.4864L69.7086 56.4237C68.8437 56.7247 68.0131 56.7628 67.1824 56.7628H66.6642ZM67.251 50.9903H69.5067V48.8565H67.251V50.9903ZM69.3657 53.9927V53.124H71.248V52.3658H72.4177V53.124H74.2733V53.9927H69.3657ZM69.9601 55.6464C69.9525 54.7967 70.7069 54.2785 71.8157 54.2785C72.9092 54.2785 73.6751 54.7967 73.6827 55.6464C73.6751 56.4808 72.9092 57.0105 71.8157 57.0067C70.7069 57.0105 69.9525 56.4808 69.9601 55.6464ZM71.0232 55.6464C71.0193 56.0008 71.3546 56.1989 71.8157 56.1989C72.2729 56.1989 72.6044 56.0008 72.6044 55.6464C72.6044 55.2959 72.2729 55.1015 71.8157 55.0939C71.3546 55.1015 71.0193 55.2959 71.0232 55.6464ZM83.3794 47.2905V57.0448H82.1715V47.2905H83.3794ZM75.5874 51.4361C75.5836 49.3328 76.6543 47.9992 78.1327 47.9954C79.592 47.9992 80.6665 49.3328 80.6665 51.4361C80.6665 53.5546 79.592 54.8882 78.1327 54.8843C76.6543 54.8882 75.5836 53.5546 75.5874 51.4361ZM76.7419 51.4361C76.7419 52.9335 77.302 53.8022 78.1327 53.8022C78.9481 53.8022 79.5082 52.9335 79.5082 51.4361C79.5082 49.9501 78.9481 49.0775 78.1327 49.0775C77.302 49.0775 76.7419 49.9501 76.7419 51.4361ZM95.2183 47.8811V48.7498C95.2183 49.6605 95.2183 50.6588 94.9592 52.0343H96.3042V53.0097H92.4368V57.0371H91.229V53.0097H87.4301V52.0343H93.7475C94.0143 50.7083 94.0257 49.7176 94.0257 48.8451H88.4818V47.8811H95.2183ZM105.368 47.2905V57.0219H104.218V52.0343H103.181V56.557H102.046V47.4582H103.181V51.0512H104.218V47.2905H105.368ZM97.2678 54.5186V48.3421H101.093V54.5186H97.2678ZM98.3918 53.5736H99.9693V49.2871H98.3918V53.5736ZM114.189 47.2981V50.3578H115.549V51.3446H114.189V54.5757H112.985V47.2981H114.189ZM106.511 49.329V48.3764H108.809V47.2905H110.001V48.3764H112.291V49.329H106.511ZM107.014 51.5999C107.01 50.4797 107.986 49.7367 109.407 49.7367C110.805 49.7367 111.777 50.4797 111.781 51.5999C111.777 52.7087 110.805 53.4403 109.407 53.4365C107.986 53.4403 107.01 52.7087 107.014 51.5999ZM107.948 56.839V54.0042H109.14V55.8674H114.57V56.839H107.948ZM108.176 51.5999C108.169 52.1829 108.664 52.522 109.407 52.5182C110.142 52.522 110.638 52.1829 110.645 51.5999C110.638 51.0055 110.142 50.6588 109.407 50.6588C108.664 50.6588 108.169 51.0055 108.176 51.5999ZM123.722 48.2507C123.719 51.1884 122.915 53.7146 119.322 55.4978L118.662 54.5986C120.354 53.7641 121.36 52.7887 121.928 51.6342L118.899 51.9162L118.742 50.8874L122.29 50.6626C122.416 50.2054 122.492 49.7253 122.526 49.2185H119.249V48.2507H123.722ZM125.086 57.0067V47.2905H126.287V51.097H127.731V52.0838H126.287V57.0067H125.086ZM132.154 48.4031V49.3557H129.658V51.0246H131.75V51.9466H129.658V53.8403C130.813 53.8289 131.613 53.7756 132.566 53.6079L132.672 54.5757C131.556 54.7891 130.626 54.8081 129.159 54.812H128.519V48.4031H132.154ZM132.23 51.859V50.8912H133.434V47.481H134.555V56.557H133.434V51.859H132.23ZM135.439 57.0219V47.2905H136.593V57.0219H135.439ZM145.68 48.1783V49.1156C145.676 50.3273 145.676 51.6837 145.299 53.7184L144.087 53.5889C144.468 51.699 144.472 50.3159 144.476 49.1423H138.658V48.1783H145.68ZM137.732 55.7721V54.7891H141.009V51.4018H142.197V54.7891H146.606V55.7721H137.732ZM155.384 47.2905V57.0448H154.192V47.2905H155.384ZM147.798 49.108V48.1364H152.386V51.7904H149.04V53.7489C150.572 53.7413 151.894 53.6651 153.414 53.4098L153.521 54.389C151.864 54.6748 150.408 54.7357 148.659 54.7357H147.806V50.8379H151.166V49.108H147.798Z" fill="#09101D"/>
<circle cx="55.0341" cy="192.5" r="1.65517" fill="#BE7346"/>
<path d="M59.8711 195L59.8657 194.504L61.7274 192.541C62.3729 191.853 62.6823 191.485 62.6876 190.984C62.6823 190.418 62.2128 190.056 61.5994 190.056C60.9486 190.056 60.5379 190.466 60.5379 191.08H59.8924C59.8871 190.114 60.6339 189.463 61.6207 189.463C62.6129 189.463 63.3171 190.13 63.3224 190.984C63.3171 191.592 63.0343 192.067 62.0635 193.064L60.8152 194.355V194.398H63.4184V195H59.8711ZM64.4045 195L64.3991 194.504L66.2608 192.541C66.9063 191.853 67.2157 191.485 67.221 190.984C67.2157 190.418 66.7463 190.056 66.1328 190.056C65.482 190.056 65.0713 190.466 65.0713 191.08H64.4258C64.4205 190.114 65.1673 189.463 66.1541 189.463C67.1463 189.463 67.8505 190.13 67.8558 190.984C67.8505 191.592 67.5677 192.067 66.5969 193.064L65.3487 194.355V194.398H67.9518V195H64.4045ZM71.7224 193.688C71.7224 193.091 72.1065 192.584 72.7946 192.584C73.4881 192.584 73.8561 193.091 73.8561 193.688V193.976C73.8561 194.574 73.4774 195.081 72.7946 195.081C72.0958 195.081 71.7224 194.574 71.7224 193.976V193.688ZM68.9966 190.85V190.562C68.9966 189.965 69.386 189.458 70.0688 189.458C70.7676 189.458 71.1303 189.965 71.1303 190.562V190.85C71.1303 191.448 70.7569 191.955 70.0688 191.955C69.37 191.955 68.9966 191.448 68.9966 190.85ZM69.2099 195L72.9653 189.538H73.5734L69.818 195H69.2099ZM69.5513 190.85C69.5513 191.176 69.69 191.485 70.0688 191.485C70.4422 191.485 70.5755 191.176 70.5755 190.85V190.562C70.5755 190.237 70.4528 189.928 70.0688 189.928C69.7007 189.928 69.5513 190.237 69.5513 190.562V190.85ZM72.2772 193.976C72.2772 194.302 72.4105 194.611 72.7946 194.611C73.1627 194.611 73.3014 194.302 73.3014 193.976V193.688C73.3014 193.363 73.1734 193.053 72.7946 193.053C72.4212 193.053 72.2772 193.363 72.2772 193.688V193.976Z" fill="#09101D"/>
<circle cx="55.0341" cy="206.604" r="1.65517" fill="#FFF4EC"/>
<path d="M61.7585 209.104H61.0757V204.351H61.0437L59.7154 205.231V204.548L61.0757 203.642H61.7585V209.104ZM65.1026 209.179C64.7435 209.179 64.4216 209.118 64.1371 208.997C63.8526 208.876 63.6277 208.707 63.4623 208.488C63.2987 208.269 63.2107 208.018 63.1983 207.733H63.8864C63.8989 207.902 63.9593 208.05 64.0678 208.178C64.1762 208.305 64.3194 208.403 64.4972 208.472C64.6768 208.541 64.875 208.576 65.092 208.576C65.3302 208.576 65.5436 208.536 65.7321 208.456C65.9206 208.374 66.0682 208.26 66.1748 208.114C66.2815 207.969 66.3349 207.802 66.3349 207.616C66.3349 207.417 66.2824 207.241 66.1775 207.088C66.0744 206.935 65.9232 206.816 65.7241 206.73C65.5249 206.645 65.2858 206.602 65.0066 206.602H64.5639V206.005H65.0066C65.2271 206.005 65.4227 205.966 65.5934 205.887C65.7659 205.809 65.8992 205.7 65.9935 205.559C66.0895 205.417 66.1375 205.253 66.1375 205.066C66.1375 204.886 66.0957 204.728 66.0121 204.591C65.9286 204.454 65.8094 204.348 65.6547 204.274C65.5 204.197 65.3196 204.159 65.1133 204.159C64.9177 204.159 64.7337 204.194 64.5612 204.263C64.3905 204.332 64.2518 204.432 64.1451 204.562C64.0384 204.69 63.9806 204.84 63.9718 205.013H63.3156C63.3263 204.732 63.4134 204.482 63.577 204.263C63.7406 204.043 63.9584 203.872 64.2305 203.751C64.5025 203.628 64.8004 203.567 65.124 203.567C65.46 203.567 65.7543 203.634 66.0068 203.767C66.2611 203.9 66.4558 204.079 66.5909 204.303C66.7278 204.527 66.7954 204.771 66.7936 205.034C66.7954 205.237 66.759 205.422 66.6843 205.589C66.6096 205.756 66.502 205.897 66.3615 206.013C66.2211 206.128 66.0557 206.213 65.8655 206.266V206.309C66.1002 206.344 66.3029 206.422 66.4736 206.541C66.646 206.658 66.7776 206.81 66.8683 206.997C66.959 207.182 67.0034 207.39 67.0017 207.621C67.0034 207.914 66.9217 208.18 66.7563 208.419C66.5927 208.655 66.3651 208.841 66.0735 208.976C65.7837 209.111 65.46 209.179 65.1026 209.179ZM70.7661 207.792C70.7661 207.589 70.8078 207.404 70.8914 207.237C70.9768 207.068 71.1003 206.935 71.2621 206.837C71.424 206.737 71.616 206.688 71.8383 206.688C72.0623 206.688 72.2543 206.737 72.4144 206.837C72.5744 206.935 72.6953 207.068 72.7771 207.237C72.8589 207.404 72.8998 207.589 72.8998 207.792V208.08C72.8998 208.283 72.858 208.468 72.7744 208.637C72.6909 208.804 72.5691 208.938 72.409 209.037C72.249 209.135 72.0587 209.184 71.8383 209.184C71.6124 209.184 71.4186 209.135 71.2568 209.037C71.0968 208.938 70.975 208.804 70.8914 208.637C70.8078 208.468 70.7661 208.283 70.7661 208.08V207.792ZM68.0402 204.666C68.0402 204.463 68.0829 204.278 68.1682 204.111C68.2536 203.944 68.3772 203.811 68.539 203.711C68.7008 203.611 68.8919 203.562 69.1124 203.562C69.3382 203.562 69.5303 203.611 69.6885 203.711C69.8485 203.809 69.9695 203.941 70.0512 204.108C70.133 204.276 70.1739 204.461 70.1739 204.666V204.954C70.1739 205.157 70.1322 205.342 70.0486 205.511C69.9668 205.678 69.8459 205.812 69.6858 205.911C69.5258 206.009 69.3347 206.058 69.1124 206.058C68.8866 206.058 68.6928 206.009 68.531 205.911C68.3709 205.812 68.2491 205.678 68.1656 205.511C68.082 205.342 68.0402 205.157 68.0402 204.954V204.666ZM72.009 203.642H72.6171L68.8617 209.104H68.2536L72.009 203.642ZM68.595 204.954C68.595 205.135 68.6368 205.286 68.7203 205.407C68.8057 205.528 68.9364 205.589 69.1124 205.589C69.2867 205.589 69.4147 205.528 69.4965 205.407C69.5783 205.286 69.6192 205.135 69.6192 204.954V204.666C69.6192 204.483 69.5792 204.332 69.4991 204.212C69.4191 204.091 69.2902 204.031 69.1124 204.031C68.9399 204.031 68.8101 204.092 68.723 204.215C68.6376 204.336 68.595 204.486 68.595 204.666V204.954ZM71.3208 208.08C71.3208 208.261 71.3617 208.412 71.4435 208.533C71.5271 208.654 71.6587 208.715 71.8383 208.715C72.0107 208.715 72.1379 208.654 72.2197 208.533C72.3032 208.411 72.345 208.259 72.345 208.08V207.792C72.345 207.609 72.3041 207.457 72.2223 207.338C72.1423 207.217 72.0143 207.157 71.8383 207.157C71.664 207.157 71.5342 207.218 71.4488 207.341C71.3635 207.462 71.3208 207.612 71.3208 207.792V208.08Z" fill="#09101D"/>
<circle cx="90.8974" cy="192.5" r="1.65517" fill="#FF8F43"/>
<path d="M95.6951 194.504L97.5568 192.541C97.8021 192.28 97.9888 192.07 98.1169 191.912C98.2467 191.752 98.3454 191.598 98.4129 191.45C98.4805 191.301 98.5152 191.146 98.5169 190.984C98.5152 190.799 98.4663 190.636 98.3702 190.496C98.276 190.355 98.1462 190.247 97.9808 190.17C97.8173 190.094 97.6332 190.056 97.4287 190.056C97.2154 190.056 97.0278 190.098 96.866 190.184C96.7059 190.269 96.5824 190.389 96.4952 190.544C96.4099 190.698 96.3672 190.877 96.3672 191.08H95.7217C95.72 190.763 95.7938 190.483 95.9431 190.24C96.0943 189.994 96.3014 189.804 96.5646 189.669C96.8277 189.532 97.1229 189.463 97.4501 189.463C97.7737 189.463 98.0644 189.531 98.3222 189.666C98.5818 189.799 98.7845 189.982 98.9304 190.213C99.0762 190.444 99.15 190.701 99.1517 190.984C99.15 191.192 99.1108 191.391 99.0344 191.581C98.9597 191.77 98.8326 191.979 98.653 192.211C98.4752 192.442 98.2218 192.726 97.8928 193.064L96.6446 194.355V194.398H99.2477V195H95.7004L95.6951 194.504ZM102.021 195.075C101.619 195.075 101.275 194.966 100.989 194.747C100.704 194.527 100.486 194.207 100.335 193.787C100.186 193.367 100.111 192.861 100.111 192.269C100.111 191.683 100.187 191.179 100.338 190.76C100.489 190.338 100.708 190.017 100.994 189.797C101.28 189.575 101.623 189.463 102.021 189.463C102.419 189.463 102.761 189.575 103.048 189.797C103.334 190.017 103.553 190.338 103.704 190.76C103.855 191.179 103.931 191.683 103.931 192.269C103.931 192.861 103.855 193.367 103.704 193.787C103.554 194.207 103.337 194.527 103.05 194.747C102.766 194.966 102.423 195.075 102.021 195.075ZM100.773 192.269C100.773 192.737 100.821 193.136 100.919 193.467C101.017 193.796 101.159 194.046 101.346 194.216C101.533 194.387 101.758 194.472 102.021 194.472C102.284 194.472 102.509 194.387 102.696 194.216C102.882 194.046 103.025 193.796 103.122 193.467C103.22 193.136 103.269 192.737 103.269 192.269C103.269 191.802 103.219 191.402 103.12 191.072C103.022 190.739 102.88 190.487 102.693 190.314C102.506 190.142 102.282 190.056 102.021 190.056C101.759 190.056 101.535 190.142 101.349 190.314C101.162 190.487 101.019 190.739 100.919 191.072C100.821 191.402 100.773 191.802 100.773 192.269ZM107.62 193.688C107.62 193.486 107.661 193.301 107.745 193.133C107.83 192.965 107.954 192.831 108.116 192.733C108.278 192.634 108.47 192.584 108.692 192.584C108.916 192.584 109.108 192.634 109.268 192.733C109.428 192.831 109.549 192.965 109.631 193.133C109.712 193.301 109.753 193.486 109.753 193.688V193.976C109.753 194.179 109.712 194.365 109.628 194.534C109.544 194.701 109.423 194.834 109.263 194.934C109.103 195.032 108.912 195.081 108.692 195.081C108.466 195.081 108.272 195.032 108.11 194.934C107.95 194.834 107.829 194.701 107.745 194.534C107.661 194.365 107.62 194.179 107.62 193.976V193.688ZM104.894 190.562C104.894 190.36 104.936 190.175 105.022 190.008C105.107 189.84 105.231 189.707 105.393 189.607C105.554 189.508 105.745 189.458 105.966 189.458C106.192 189.458 106.384 189.508 106.542 189.607C106.702 189.705 106.823 189.838 106.905 190.005C106.987 190.172 107.028 190.358 107.028 190.562V190.85C107.028 191.053 106.986 191.239 106.902 191.408C106.82 191.575 106.699 191.708 106.539 191.808C106.379 191.906 106.188 191.955 105.966 191.955C105.74 191.955 105.546 191.906 105.385 191.808C105.225 191.708 105.103 191.575 105.019 191.408C104.936 191.239 104.894 191.053 104.894 190.85V190.562ZM108.863 189.538H109.471L105.715 195H105.107L108.863 189.538ZM105.449 190.85C105.449 191.032 105.49 191.183 105.574 191.304C105.659 191.425 105.79 191.485 105.966 191.485C106.14 191.485 106.268 191.425 106.35 191.304C106.432 191.183 106.473 191.032 106.473 190.85V190.562C106.473 190.379 106.433 190.228 106.353 190.109C106.273 189.988 106.144 189.928 105.966 189.928C105.794 189.928 105.664 189.989 105.577 190.112C105.491 190.232 105.449 190.383 105.449 190.562V190.85ZM108.174 193.976C108.174 194.158 108.215 194.309 108.297 194.43C108.381 194.551 108.512 194.611 108.692 194.611C108.864 194.611 108.991 194.551 109.073 194.43C109.157 194.307 109.199 194.156 109.199 193.976V193.688C109.199 193.505 109.158 193.354 109.076 193.235C108.996 193.114 108.868 193.053 108.692 193.053C108.518 193.053 108.388 193.115 108.302 193.237C108.217 193.358 108.174 193.509 108.174 193.688V193.976Z" fill="#09101D"/>
<circle cx="90.8974" cy="206.604" r="1.65517" fill="white"/>
<path d="M97.6217 209.104H96.9389V204.351H96.9069L95.5787 205.231V204.548L96.9389 203.642H97.6217V209.104ZM100.966 209.179C100.607 209.179 100.285 209.118 100 208.997C99.7159 208.876 99.491 208.707 99.3256 208.488C99.162 208.269 99.074 208.018 99.0616 207.733H99.7497C99.7621 207.902 99.8226 208.05 99.9311 208.178C100.04 208.305 100.183 208.403 100.36 208.472C100.54 208.541 100.738 208.576 100.955 208.576C101.194 208.576 101.407 208.536 101.595 208.456C101.784 208.374 101.931 208.26 102.038 208.114C102.145 207.969 102.198 207.802 102.198 207.616C102.198 207.417 102.146 207.241 102.041 207.088C101.938 206.935 101.787 206.816 101.587 206.73C101.388 206.645 101.149 206.602 100.87 206.602H100.427V206.005H100.87C101.09 206.005 101.286 205.966 101.457 205.887C101.629 205.809 101.763 205.7 101.857 205.559C101.953 205.417 102.001 205.253 102.001 205.066C102.001 204.886 101.959 204.728 101.875 204.591C101.792 204.454 101.673 204.348 101.518 204.274C101.363 204.197 101.183 204.159 100.977 204.159C100.781 204.159 100.597 204.194 100.424 204.263C100.254 204.332 100.115 204.432 100.008 204.562C99.9017 204.69 99.8439 204.84 99.835 205.013H99.1789C99.1896 204.732 99.2767 204.482 99.4403 204.263C99.6039 204.043 99.8217 203.872 100.094 203.751C100.366 203.628 100.664 203.567 100.987 203.567C101.323 203.567 101.618 203.634 101.87 203.767C102.124 203.9 102.319 204.079 102.454 204.303C102.591 204.527 102.659 204.771 102.657 205.034C102.659 205.237 102.622 205.422 102.548 205.589C102.473 205.756 102.365 205.897 102.225 206.013C102.084 206.128 101.919 206.213 101.729 206.266V206.309C101.963 206.344 102.166 206.422 102.337 206.541C102.509 206.658 102.641 206.81 102.732 206.997C102.822 207.182 102.867 207.39 102.865 207.621C102.867 207.914 102.785 208.18 102.62 208.419C102.456 208.655 102.228 208.841 101.937 208.976C101.647 209.111 101.323 209.179 100.966 209.179ZM106.629 207.792C106.629 207.589 106.671 207.404 106.755 207.237C106.84 207.068 106.964 206.935 107.125 206.837C107.287 206.737 107.479 206.688 107.702 206.688C107.926 206.688 108.118 206.737 108.278 206.837C108.438 206.935 108.559 207.068 108.64 207.237C108.722 207.404 108.763 207.589 108.763 207.792V208.08C108.763 208.283 108.721 208.468 108.638 208.637C108.554 208.804 108.432 208.938 108.272 209.037C108.112 209.135 107.922 209.184 107.702 209.184C107.476 209.184 107.282 209.135 107.12 209.037C106.96 208.938 106.838 208.804 106.755 208.637C106.671 208.468 106.629 208.283 106.629 208.08V207.792ZM103.903 204.666C103.903 204.463 103.946 204.278 104.032 204.111C104.117 203.944 104.24 203.811 104.402 203.711C104.564 203.611 104.755 203.562 104.976 203.562C105.202 203.562 105.394 203.611 105.552 203.711C105.712 203.809 105.833 203.941 105.915 204.108C105.996 204.276 106.037 204.461 106.037 204.666V204.954C106.037 205.157 105.995 205.342 105.912 205.511C105.83 205.678 105.709 205.812 105.549 205.911C105.389 206.009 105.198 206.058 104.976 206.058C104.75 206.058 104.556 206.009 104.394 205.911C104.234 205.812 104.112 205.678 104.029 205.511C103.945 205.342 103.903 205.157 103.903 204.954V204.666ZM107.872 203.642H108.48L104.725 209.104H104.117L107.872 203.642ZM104.458 204.954C104.458 205.135 104.5 205.286 104.584 205.407C104.669 205.528 104.8 205.589 104.976 205.589C105.15 205.589 105.278 205.528 105.36 205.407C105.442 205.286 105.482 205.135 105.482 204.954V204.666C105.482 204.483 105.442 204.332 105.362 204.212C105.282 204.091 105.153 204.031 104.976 204.031C104.803 204.031 104.673 204.092 104.586 204.215C104.501 204.336 104.458 204.486 104.458 204.666V204.954ZM107.184 208.08C107.184 208.261 107.225 208.412 107.307 208.533C107.39 208.654 107.522 208.715 107.702 208.715C107.874 208.715 108.001 208.654 108.083 208.533C108.167 208.411 108.208 208.259 108.208 208.08V207.792C108.208 207.609 108.167 207.457 108.086 207.338C108.006 207.217 107.878 207.157 107.702 207.157C107.527 207.157 107.397 207.218 107.312 207.341C107.227 207.462 107.184 207.612 107.184 207.792V208.08Z" fill="#09101D"/>
<circle cx="126.757" cy="192.5" r="1.65517" fill="white"/>
<path d="M131.554 194.504L133.416 192.541C133.662 192.28 133.848 192.07 133.976 191.912C134.106 191.752 134.205 191.598 134.272 191.45C134.34 191.301 134.375 191.146 134.376 190.984C134.375 190.799 134.326 190.636 134.23 190.496C134.135 190.355 134.006 190.247 133.84 190.17C133.677 190.094 133.493 190.056 133.288 190.056C133.075 190.056 132.887 190.098 132.725 190.184C132.565 190.269 132.442 190.389 132.355 190.544C132.269 190.698 132.227 190.877 132.227 191.08H131.581C131.579 190.763 131.653 190.483 131.802 190.24C131.954 189.994 132.161 189.804 132.424 189.669C132.687 189.532 132.982 189.463 133.309 189.463C133.633 189.463 133.924 189.531 134.182 189.666C134.441 189.799 134.644 189.982 134.79 190.213C134.936 190.444 135.009 190.701 135.011 190.984C135.009 191.192 134.97 191.391 134.894 191.581C134.819 191.77 134.692 191.979 134.512 192.211C134.335 192.442 134.081 192.726 133.752 193.064L132.504 194.355V194.398H135.107V195H131.56L131.554 194.504ZM137.88 195.075C137.478 195.075 137.134 194.966 136.848 194.747C136.563 194.527 136.346 194.207 136.195 193.787C136.045 193.367 135.97 192.861 135.97 192.269C135.97 191.683 136.046 191.179 136.197 190.76C136.348 190.338 136.567 190.017 136.853 189.797C137.14 189.575 137.482 189.463 137.88 189.463C138.278 189.463 138.621 189.575 138.907 189.797C139.193 190.017 139.412 190.338 139.563 190.76C139.714 191.179 139.79 191.683 139.79 192.269C139.79 192.861 139.714 193.367 139.563 193.787C139.414 194.207 139.196 194.527 138.91 194.747C138.625 194.966 138.282 195.075 137.88 195.075ZM136.632 192.269C136.632 192.737 136.681 193.136 136.779 193.467C136.876 193.796 137.019 194.046 137.205 194.216C137.392 194.387 137.617 194.472 137.88 194.472C138.143 194.472 138.368 194.387 138.555 194.216C138.742 194.046 138.884 193.796 138.982 193.467C139.08 193.136 139.128 192.737 139.128 192.269C139.128 191.802 139.079 191.402 138.979 191.072C138.881 190.739 138.739 190.487 138.552 190.314C138.366 190.142 138.142 190.056 137.88 190.056C137.619 190.056 137.395 190.142 137.208 190.314C137.021 190.487 136.878 190.739 136.779 191.072C136.681 191.402 136.632 191.802 136.632 192.269ZM143.479 193.688C143.479 193.486 143.521 193.301 143.604 193.133C143.69 192.965 143.813 192.831 143.975 192.733C144.137 192.634 144.329 192.584 144.551 192.584C144.775 192.584 144.967 192.634 145.127 192.733C145.287 192.831 145.408 192.965 145.49 193.133C145.572 193.301 145.613 193.486 145.613 193.688V193.976C145.613 194.179 145.571 194.365 145.487 194.534C145.404 194.701 145.282 194.834 145.122 194.934C144.962 195.032 144.772 195.081 144.551 195.081C144.325 195.081 144.132 195.032 143.97 194.934C143.81 194.834 143.688 194.701 143.604 194.534C143.521 194.365 143.479 194.179 143.479 193.976V193.688ZM140.753 190.562C140.753 190.36 140.796 190.175 140.881 190.008C140.967 189.84 141.09 189.707 141.252 189.607C141.414 189.508 141.605 189.458 141.825 189.458C142.051 189.458 142.243 189.508 142.401 189.607C142.562 189.705 142.682 189.838 142.764 190.005C142.846 190.172 142.887 190.358 142.887 190.562V190.85C142.887 191.053 142.845 191.239 142.762 191.408C142.68 191.575 142.559 191.708 142.399 191.808C142.239 191.906 142.048 191.955 141.825 191.955C141.6 191.955 141.406 191.906 141.244 191.808C141.084 191.708 140.962 191.575 140.879 191.408C140.795 191.239 140.753 191.053 140.753 190.85V190.562ZM144.722 189.538H145.33L141.575 195H140.967L144.722 189.538ZM141.308 190.85C141.308 191.032 141.35 191.183 141.433 191.304C141.519 191.425 141.649 191.485 141.825 191.485C142 191.485 142.128 191.425 142.209 191.304C142.291 191.183 142.332 191.032 142.332 190.85V190.562C142.332 190.379 142.292 190.228 142.212 190.109C142.132 189.988 142.003 189.928 141.825 189.928C141.653 189.928 141.523 189.989 141.436 190.112C141.351 190.232 141.308 190.383 141.308 190.562V190.85ZM144.034 193.976C144.034 194.158 144.075 194.309 144.156 194.43C144.24 194.551 144.372 194.611 144.551 194.611C144.724 194.611 144.851 194.551 144.933 194.43C145.016 194.307 145.058 194.156 145.058 193.976V193.688C145.058 193.505 145.017 193.354 144.935 193.235C144.855 193.114 144.727 193.053 144.551 193.053C144.377 193.053 144.247 193.115 144.162 193.237C144.076 193.358 144.034 193.509 144.034 193.688V193.976Z" fill="#09101D"/>
<circle cx="126.757" cy="206.604" r="1.65517" fill="#DAB49D"/>
<path d="M133.098 203.642V209.104H132.415V204.351H132.383L131.055 205.231V204.548L132.415 203.642H133.098ZM134.554 209.104L134.549 208.608L136.41 206.645C137.056 205.957 137.365 205.589 137.37 205.087C137.365 204.522 136.896 204.159 136.282 204.159C135.631 204.159 135.221 204.57 135.221 205.183H134.575C134.57 204.218 135.317 203.567 136.304 203.567C137.296 203.567 138 204.234 138.005 205.087C138 205.695 137.717 206.17 136.746 207.168L135.498 208.459V208.501H138.101V209.104H134.554ZM141.872 207.792C141.872 207.194 142.256 206.688 142.944 206.688C143.637 206.688 144.006 207.194 144.006 207.792V208.08C144.006 208.677 143.627 209.184 142.944 209.184C142.245 209.184 141.872 208.677 141.872 208.08V207.792ZM139.146 204.954V204.666C139.146 204.068 139.535 203.562 140.218 203.562C140.917 203.562 141.28 204.068 141.28 204.666V204.954C141.28 205.551 140.906 206.058 140.218 206.058C139.519 206.058 139.146 205.551 139.146 204.954ZM139.359 209.104L143.115 203.642H143.723L139.967 209.104H139.359ZM139.701 204.954C139.701 205.279 139.839 205.589 140.218 205.589C140.592 205.589 140.725 205.279 140.725 204.954V204.666C140.725 204.34 140.602 204.031 140.218 204.031C139.85 204.031 139.701 204.34 139.701 204.666V204.954ZM142.427 208.08C142.427 208.405 142.56 208.715 142.944 208.715C143.312 208.715 143.451 208.405 143.451 208.08V207.792C143.451 207.466 143.323 207.157 142.944 207.157C142.571 207.157 142.427 207.466 142.427 207.792V208.08Z" fill="#09101D"/>
<g filter="url(#filter1_ddd_189_13336)">
<circle cx="99.9981" cy="120.414" r="46.8966" fill="#DAB49D"/>
<path d="M99.9981 73.5176C110.984 73.5176 121.622 77.3746 130.055 84.4159C138.488 91.4571 144.181 101.236 146.142 112.045C148.102 122.855 146.206 134.01 140.782 143.565C135.359 153.119 126.753 160.466 116.467 164.324C106.18 168.182 94.866 168.306 84.4973 164.675C74.1286 161.044 65.3638 153.887 59.7321 144.454C54.1003 135.021 51.959 123.911 53.6817 113.06C55.4044 102.21 60.8817 92.3091 69.1582 85.0844L99.9981 120.414V73.5176Z" fill="white"/>
<path d="M99.9981 73.5176C109.388 73.5176 118.561 76.3361 126.331 81.6084C134.1 86.8806 140.108 94.3638 143.577 103.089C147.046 111.814 147.816 121.38 145.787 130.548C143.758 139.715 139.024 148.063 132.197 154.51C125.37 160.957 116.766 165.206 107.497 166.707C98.2284 168.209 88.7224 166.893 80.2097 162.931C71.697 158.969 64.5696 152.543 59.7502 144.485C54.9309 136.426 52.6414 127.107 53.1783 117.733L99.9981 120.414V73.5176Z" fill="#FFF4EC"/>
<path d="M99.9981 73.5176C107.71 73.5176 115.303 75.4196 122.105 79.0551C128.907 82.6906 134.707 87.9474 138.991 94.3598C143.276 100.772 145.913 108.142 146.669 115.817C147.425 123.493 146.276 131.236 143.325 138.361C140.374 145.486 135.711 151.773 129.749 156.666C123.787 161.558 116.711 164.905 109.147 166.41C101.583 167.914 93.7649 167.53 86.3848 165.291C79.0047 163.053 72.2906 159.028 66.8373 153.575L99.9981 120.414V73.5176Z" fill="#FFDDC7"/>
<path d="M99.9981 73.5176C111.399 73.5176 122.41 77.671 130.971 85.201C139.532 92.731 145.056 103.122 146.511 114.43C147.966 125.738 145.252 137.189 138.876 146.64C132.5 156.092 122.899 162.897 111.869 165.783L99.9981 120.414V73.5176Z" fill="#FF8F43"/>
<path d="M99.9981 73.5176C106.756 73.5176 113.433 74.978 119.574 77.7988C125.715 80.6196 131.173 84.7343 135.576 89.8609C139.979 94.9875 143.221 101.005 145.082 107.501C146.943 113.998 147.377 120.82 146.356 127.5L99.9981 120.414V73.5176Z" fill="#BE7346"/>
<g filter="url(#filter2_i_189_13336)">
<circle cx="99.9964" cy="120.414" r="27.5862" fill="white"/>
</g>
</g>
</g>
<defs>
<filter id="filter0_dd_189_13336" x="0" y="0" width="220" height="275.172" filterUnits="userSpaceOnUse" color-interpolation-filters="sRGB">
<feFlood flood-opacity="0" result="BackgroundImageFix"/>
<feColorMatrix in="SourceAlpha" type="matrix" values="0 0 0 0 0 0 0 0 0 0 0 0 0 0 0 0 0 0 127 0" result="hardAlpha"/>
<feOffset dx="5" dy="5"/>
<feGaussianBlur stdDeviation="5"/>
<feComposite in2="hardAlpha" operator="out"/>
<feColorMatrix type="matrix" values="0 0 0 0 0.545098 0 0 0 0 0.54902 0 0 0 0 0.627451 0 0 0 0.25 0"/>
<feBlend mode="multiply" in2="BackgroundImageFix" result="effect1_dropShadow_189_13336"/>
<feColorMatrix in="SourceAlpha" type="matrix" values="0 0 0 0 0 0 0 0 0 0 0 0 0 0 0 0 0 0 127 0" result="hardAlpha"/>
<feOffset dx="10" dy="10"/>
<feGaussianBlur stdDeviation="15"/>
<feComposite in2="hardAlpha" operator="out"/>
<feColorMatrix type="matrix" values="0 0 0 0 0.545098 0 0 0 0 0.54902 0 0 0 0 0.627451 0 0 0 0.15 0"/>
<feBlend mode="multiply" in2="effect1_dropShadow_189_13336" result="effect2_dropShadow_189_13336"/>
<feBlend mode="normal" in="SourceGraphic" in2="effect2_dropShadow_189_13336" result="shape"/>
</filter>
<filter id="filter1_ddd_189_13336" x="50.3429" y="70.759" width="104.827" height="104.827" filterUnits="userSpaceOnUse" color-interpolation-filters="sRGB">
<feFlood flood-opacity="0" result="BackgroundImageFix"/>
<feColorMatrix in="SourceAlpha" type="matrix" values="0 0 0 0 0 0 0 0 0 0 0 0 0 0 0 0 0 0 127 0" result="hardAlpha"/>
<feOffset dx="2.75862" dy="2.75862"/>
<feGaussianBlur stdDeviation="2.75862"/>
<feComposite in2="hardAlpha" operator="out"/>
<feColorMatrix type="matrix" values="0 0 0 0 0.545098 0 0 0 0 0.54902 0 0 0 0 0.627451 0 0 0 0.25 0"/>
<feBlend mode="multiply" in2="BackgroundImageFix" result="effect1_dropShadow_189_13336"/>
<feColorMatrix in="SourceAlpha" type="matrix" values="0 0 0 0 0 0 0 0 0 0 0 0 0 0 0 0 0 0 127 0" result="hardAlpha"/>
<feOffset dx="1.10345" dy="1.10345"/>
<feGaussianBlur stdDeviation="1.37931"/>
<feComposite in2="hardAlpha" operator="out"/>
<feColorMatrix type="matrix" values="0 0 0 0 0.545098 0 0 0 0 0.54902 0 0 0 0 0.627451 0 0 0 0.1 0"/>
<feBlend mode="multiply" in2="effect1_dropShadow_189_13336" result="effect2_dropShadow_189_13336"/>
<feColorMatrix in="SourceAlpha" type="matrix" values="0 0 0 0 0 0 0 0 0 0 0 0 0 0 0 0 0 0 127 0" result="hardAlpha"/>
<feOffset dx="-0.551724" dy="-0.551724"/>
<feGaussianBlur stdDeviation="0.551724"/>
<feComposite in2="hardAlpha" operator="out"/>
<feColorMatrix type="matrix" values="0 0 0 0 1 0 0 0 0 1 0 0 0 0 1 0 0 0 0.25 0"/>
<feBlend mode="soft-light" in2="effect2_dropShadow_189_13336" result="effect3_dropShadow_189_13336"/>
<feBlend mode="normal" in="SourceGraphic" in2="effect3_dropShadow_189_13336" result="shape"/>
</filter>
<filter id="filter2_i_189_13336" x="72.4102" y="92.8281" width="55.1719" height="57.3793" filterUnits="userSpaceOnUse" color-interpolation-filters="sRGB">
<feFlood flood-opacity="0" result="BackgroundImageFix"/>
<feBlend mode="normal" in="SourceGraphic" in2="BackgroundImageFix" result="shape"/>
<feColorMatrix in="SourceAlpha" type="matrix" values="0 0 0 0 0 0 0 0 0 0 0 0 0 0 0 0 0 0 127 0" result="hardAlpha"/>
<feOffset dy="2.2069"/>
<feGaussianBlur stdDeviation="1.10345"/>
<feComposite in2="hardAlpha" operator="arithmetic" k2="-1" k3="1"/>
<feColorMatrix type="matrix" values="0 0 0 0 0.545098 0 0 0 0 0.54902 0 0 0 0 0.627451 0 0 0 0.15 0"/>
<feBlend mode="multiply" in2="shape" result="effect1_innerShadow_189_13336"/>
</filter>
</defs>
</svg>
