<svg width="88" height="89" viewBox="0 0 88 89" fill="none" xmlns="http://www.w3.org/2000/svg">
<path d="M87.712 44.3773C87.712 68.5875 68.0858 88.2137 43.8755 88.2137C19.6653 88.2137 0.0390625 68.5875 0.0390625 44.3773C0.0390625 20.167 19.6653 0.540771 43.8755 0.540771C68.0858 0.540771 87.712 20.167 87.712 44.3773ZM17.5737 44.3773C17.5737 58.9034 29.3494 70.6791 43.8755 70.6791C58.4017 70.6791 70.1774 58.9034 70.1774 44.3773C70.1774 29.8511 58.4017 18.0754 43.8755 18.0754C29.3494 18.0754 17.5737 29.8511 17.5737 44.3773Z" fill="#FFF7EF"/>
<path d="M43.8755 0.540771C55.0973 0.540772 65.8917 4.8443 74.0353 12.5649C82.179 20.2855 87.0517 30.8352 87.6497 42.041C88.2478 53.2467 84.5257 64.2551 77.2501 72.7987C69.9744 81.3422 59.6994 86.7703 48.5415 87.9647C37.3835 89.1591 26.1924 86.029 17.2732 79.2191C8.35404 72.4091 2.38611 62.438 0.598709 51.3596C-1.18869 40.2811 1.34055 28.9391 7.66546 19.6696C13.9904 10.4002 23.6293 3.90934 34.5967 1.53405L38.3082 18.6713C31.7278 20.0965 25.9444 23.991 22.1495 29.5527C18.3545 35.1143 16.837 41.9196 17.9094 48.5666C18.9819 55.2137 22.5626 61.1964 27.9141 65.2823C33.2656 69.3683 39.9803 71.2464 46.6751 70.5297C53.3699 69.8131 59.5349 66.5563 63.9003 61.4301C68.2656 56.304 70.4989 49.6989 70.1401 42.9755C69.7812 36.252 66.8576 29.9222 61.9714 25.2898C57.0852 20.6575 50.6086 18.0754 43.8755 18.0754V0.540771Z" fill="#FFE8CE"/>
<path d="M43.8755 0.540771C54.5616 0.540772 64.8796 4.4441 72.89 11.517C80.9004 18.5899 86.0514 28.3451 87.3746 38.9489C88.6979 49.5527 86.1023 60.2747 80.0758 69.0993C74.0493 77.9238 65.0069 84.2432 54.6486 86.8693C44.2903 89.4955 33.3294 88.2476 23.8265 83.3602C14.3236 78.4729 6.93316 70.2826 3.04454 60.3292C-0.844091 50.3758 -0.96309 39.3448 2.70991 29.3098C6.38291 19.2748 13.5949 10.9271 22.9902 5.83586L31.3443 21.2524C25.7072 24.3072 21.38 29.3158 19.1762 35.3368C16.9724 41.3578 17.0438 47.9764 19.3769 53.9484C21.7101 59.9205 26.1444 64.8346 31.8461 67.767C37.5479 70.6995 44.1244 71.4482 50.3394 69.8725C56.5544 68.2968 61.9798 64.5052 65.5957 59.2105C69.2116 53.9157 70.769 47.4825 69.975 41.1203C69.181 34.758 66.0904 28.9048 61.2842 24.6611C56.478 20.4174 50.2872 18.0754 43.8755 18.0754V0.540771Z" fill="#F8F1EC"/>
<path d="M43.8755 0.540771C54.0173 0.540772 63.8454 4.0573 71.6851 10.4912C79.5248 16.9251 84.8912 25.8783 86.8697 35.8252C88.8483 45.7721 87.3167 56.0974 82.5359 65.0416C77.7551 73.9859 70.0208 80.9958 60.651 84.8769C51.2812 88.758 40.8556 89.2702 31.1505 86.3261C21.4454 83.3821 13.0613 77.1641 7.42684 68.7315C1.79235 60.2989 -0.743925 50.1735 0.250148 40.0805C1.24422 29.9875 5.70714 20.5515 12.8785 13.3802L25.2773 25.779C20.9745 30.0818 18.2967 35.7434 17.7003 41.7992C17.1039 47.855 18.6256 53.9302 22.0063 58.9898C25.387 64.0494 30.4174 67.7802 36.2405 69.5466C42.0636 71.313 48.319 71.0057 53.9408 68.677C59.5627 66.3484 64.2032 62.1424 67.0717 56.7759C69.9402 51.4093 70.8592 45.2142 69.6721 39.246C68.4849 33.2779 65.2651 27.906 60.5613 24.0456C55.8575 20.1853 49.9606 18.0754 43.8755 18.0754V0.540771Z" fill="#EBD5C7"/>
<path d="M43.8755 0.540771C53.0377 0.540772 61.9696 3.41157 69.4161 8.74975C76.8625 14.0879 82.4492 21.6251 85.391 30.3022C88.3328 38.9792 88.4818 48.36 85.8172 57.1261C83.1526 65.8923 77.8082 73.6032 70.5352 79.1753C63.2621 84.7473 54.4259 87.9005 45.2684 88.1916C36.1108 88.4827 27.0922 85.8972 19.4799 80.7983C11.8676 75.6994 6.04432 68.3435 2.8283 59.7643C-0.387714 51.1851 -0.834762 41.8138 1.54998 32.9674L18.4802 37.5314C17.0494 42.8392 17.3176 48.462 19.2472 53.6095C21.1768 58.757 24.6708 63.1705 29.2382 66.2299C33.8055 69.2892 39.2167 70.8405 44.7112 70.6659C50.2058 70.4912 55.5075 68.5993 59.8713 65.2561C64.2352 61.9128 67.4418 57.2863 69.0405 52.0266C70.6393 46.7669 70.5499 41.1384 68.7848 35.9322C67.0197 30.726 63.6677 26.2037 59.1999 23.0007C54.732 19.7978 49.3728 18.0754 43.8755 18.0754V0.540771Z" fill="#FFE8CE"/>
<path d="M43.8755 0.540771C51.7056 0.540772 59.3927 2.638 66.1378 6.61445C72.8829 10.5909 78.4399 16.3014 82.231 23.1524C86.0222 30.0034 87.9091 37.7448 87.6957 45.5719C87.4823 53.399 85.1764 61.0261 81.0176 67.6604C76.8588 74.2947 70.9989 79.6939 64.0472 83.2969C57.0954 86.9 49.3054 88.5752 41.4871 88.1486C33.6687 87.722 26.1073 85.209 19.5888 80.871C13.0703 76.5329 7.83279 70.5281 4.42056 63.4807L20.2026 55.8393C22.2499 60.0678 25.3924 63.6706 29.3035 66.2735C33.2146 68.8763 37.7514 70.3841 42.4424 70.6401C47.1335 70.896 51.8074 69.8909 55.9785 67.7291C60.1496 65.5673 63.6655 62.3277 66.1608 58.3471C68.6561 54.3666 70.0396 49.7903 70.1677 45.0941C70.2957 40.3978 69.1635 35.753 66.8888 31.6424C64.6142 27.5318 61.28 24.1054 57.2329 21.7196C53.1858 19.3337 48.5735 18.0754 43.8755 18.0754V0.540771Z" fill="#FFF7EF"/>
<path d="M43.8755 0.540771C50.5427 0.540772 57.1221 2.06156 63.1129 4.98741C69.1038 7.91326 74.3484 12.1671 78.4476 17.4252C82.5467 22.6833 85.3925 28.8072 86.7684 35.3309C88.1443 41.8545 88.014 48.6061 86.3875 55.0718C84.7609 61.5375 81.6809 67.547 77.3819 72.6431C73.0829 77.7392 67.6782 81.7875 61.5789 84.48C55.4795 87.1725 48.8464 88.4383 42.1842 88.1811C35.522 87.9239 29.0063 86.1504 23.1327 82.9955L31.4298 67.5482C34.954 69.4411 38.8634 70.5052 42.8608 70.6596C46.8581 70.8139 50.8379 70.0544 54.4975 68.4389C58.1571 66.8234 61.4 64.3944 63.9794 61.3368C66.5588 58.2791 68.4068 54.6734 69.3827 50.794C70.3586 46.9146 70.4368 42.8636 69.6113 38.9494C68.7858 35.0352 67.0783 31.3609 64.6188 28.206C62.1592 25.0511 59.0125 22.4989 55.418 20.7433C51.8234 18.9878 47.8758 18.0754 43.8755 18.0754V0.540771Z" fill="#FFC98D"/>
<path d="M43.8755 0.540771C54.3104 0.540772 64.403 4.26309 72.339 11.0385C80.2749 17.814 85.5337 27.1981 87.1698 37.5039C88.8059 47.8097 86.7122 58.3611 81.2648 67.2613C75.8175 76.1614 67.374 82.8265 57.4522 86.0583L52.0215 69.3859C57.9746 67.4468 63.0407 63.4478 66.3091 58.1077C69.5775 52.7676 70.8338 46.4367 69.8521 40.2532C68.8704 34.0698 65.7152 28.4393 60.9536 24.374C56.192 20.3088 50.1365 18.0754 43.8755 18.0754V0.540771Z" fill="#FFB25C"/>
<path d="M43.8755 0.540771C51.2503 0.540772 58.5058 2.40131 64.9705 5.95016C71.4351 9.49901 76.9 14.6215 80.8592 20.8433C84.8184 27.0651 87.1439 34.1853 87.6204 41.5446C88.0969 48.9039 86.7091 56.2645 83.5854 62.945L67.7015 55.5179C69.5757 51.5096 70.4084 47.0932 70.1225 42.6776C69.8365 38.2621 68.4412 33.99 66.0657 30.2569C63.6902 26.5238 60.4113 23.4503 56.5325 21.321C52.6537 19.1917 48.3004 18.0754 43.8755 18.0754V0.540771Z" fill="#BE7346"/>
</svg>
