<svg width="295" height="173" viewBox="0 0 295 173" fill="none" xmlns="http://www.w3.org/2000/svg">
<g filter="url(#filter0_dd_570_25971)">
<g clip-path="url(#clip0_570_25971)">
<rect x="5" y="5.19238" width="275" height="152" rx="12" fill="white"/>
<g filter="url(#filter1_ddd_570_25971)">
<rect x="17.2227" y="73.9424" width="78.4259" height="105.055" rx="5.09259" fill="white"/>
<path d="M26.8327 86.4007C26.8327 87.5471 27.6407 88.6141 28.946 89.0423L28.4522 89.7709C27.4922 89.4325 26.774 88.7522 26.3907 87.889C26.0143 88.8696 25.2719 89.6397 24.2533 90.016L23.7526 89.2805C25.1165 88.7937 25.9073 87.6231 25.9142 86.3213V85.4546H26.8327V86.4007ZM24.9335 92.1051C24.9335 91.0865 26.0523 90.4857 27.8686 90.4857C29.6711 90.4857 30.7761 91.0865 30.7761 92.1051C30.7761 93.1445 29.6711 93.735 27.8686 93.735C26.0523 93.735 24.9335 93.1445 24.9335 92.1051ZM25.8624 92.1051C25.8555 92.6852 26.6048 92.9995 27.8686 93.0064C29.129 92.9995 29.8679 92.6852 29.8679 92.1051C29.8679 91.5492 29.129 91.2211 27.8686 91.2211C26.6048 91.2211 25.8555 91.5492 25.8624 92.1051ZM29.7678 90.2785V84.9988H30.6967V87.2018H31.9639V87.9753H30.6967V90.2785H29.7678ZM40.4408 89.1873V89.9332H36.9048V90.8724H39.467V93.6383H33.4207V90.8724H35.9898V89.9332H32.4642V89.1873H40.4408ZM33.1928 86.0209V85.2681H39.6914V86.0209H38.4173V87.6921H39.6535V88.4484H33.2308V87.6921H34.4704V86.0209H33.1928ZM34.3358 92.8855H38.5658V91.601H34.3358V92.8855ZM35.3924 87.6921H37.4884V86.0209H35.3924V87.6921ZM48.3927 84.9988V89.5499H47.4742V88.5105H45.5612V89.2287H41.5212V85.3959H42.45V86.5768H44.6427V85.3959H45.5612V86.2039H47.4742V84.9988H48.3927ZM42.45 88.4898H44.6427V87.295H42.45V88.4898ZM42.671 90.6687V89.9401H48.3927V92.0948H43.6103V92.8959H48.7035V93.6383H42.6883V91.3973H47.4742V90.6687H42.671ZM45.5612 87.7923H47.4742V86.9152H45.5612V87.7923ZM59.1521 85.5513V86.3213C59.1487 87.1466 59.1487 88.0478 58.9104 89.2978H60.1673V90.054H56.6176V93.7626H55.6887V90.054H52.1908V89.2978H57.9677C58.2302 88.0513 58.2302 87.1362 58.2302 86.3213V86.304H53.1611V85.5513H59.1521ZM68.3575 84.9988V93.7488H67.4667V89.1908H66.3893V93.3171H65.5088V85.168H66.3893V88.4242H67.4667V84.9988H68.3575ZM61.1269 91.4421V85.9829H64.5247V91.4421H61.1269ZM62.0005 90.7066H63.6545V86.7184H62.0005V90.7066ZM79.1653 84.9988V93.766H78.233V84.9988H79.1653ZM72.4008 91.6735V85.7274H73.3262V87.9753H75.6881V85.7274H76.6031V91.6735H72.4008ZM73.3262 90.9069H75.6881V88.7108H73.3262V90.9069ZM84.5413 85.0955C86.513 85.0955 87.6628 85.6341 87.6628 86.6044C87.6628 87.5816 86.513 88.1134 84.5413 88.1203C82.5696 88.1134 81.4128 87.5816 81.4128 86.6044C81.4128 85.6341 82.5696 85.0955 84.5413 85.0955ZM80.5599 89.3358V88.5934H88.5365V89.3358H86.3887V90.1162H87.5247V92.1638H82.4349V92.9477H87.7768V93.6659H81.5268V91.4974H86.6131V90.8102H81.5095V90.1162H82.6732V89.3358H80.5599ZM82.3831 86.6044C82.3762 87.1431 83.1497 87.4194 84.5413 87.4228C85.9432 87.4194 86.7133 87.1431 86.7133 86.6044C86.7133 86.0899 85.9432 85.7964 84.5413 85.793C83.1497 85.7964 82.3762 86.0899 82.3831 86.6044ZM83.5917 90.1162H85.4633V89.3358H83.5917V90.1162Z" fill="#09101D"/>
<circle cx="28.2606" cy="155.067" r="0.735383" fill="#BE7346" stroke="#798087" stroke-width="0.105055"/>
<path d="M33.0409 153.17V155.595H32.7565V155.263H32.0988V155.057H32.7565V153.17H33.0409ZM30.3924 154.648C30.9866 154.645 31.7864 154.64 32.4695 154.554L32.4898 154.76C32.2042 154.805 31.9058 154.835 31.6112 154.852V155.483H31.3294V154.866C31.0069 154.879 30.6984 154.88 30.4305 154.879L30.3924 154.648ZM30.6488 153.856C30.6488 153.521 30.9688 153.3 31.4411 153.3C31.9083 153.3 32.2283 153.521 32.2308 153.856C32.2283 154.196 31.9083 154.409 31.4411 154.409C30.9688 154.409 30.6488 154.196 30.6488 153.856ZM30.852 156.288V155.356H31.1338V156.055H33.1196V156.288H30.852ZM30.918 153.856C30.9155 154.064 31.1288 154.199 31.4411 154.199C31.7433 154.199 31.9591 154.064 31.9617 153.856C31.9591 153.65 31.7433 153.51 31.4411 153.513C31.1288 153.51 30.9155 153.65 30.918 153.856ZM36.1349 154.361V154.59H33.9892V153.356H36.0917V153.589H34.2761V154.361H36.1349ZM33.5829 155.242V155.011H36.5056V155.242H35.175V156.349H34.8982V155.242H33.5829ZM39.3112 153.5C39.3086 154.422 38.9811 155.265 37.8536 155.831L37.6936 155.616C38.279 155.321 38.6421 154.953 38.8401 154.522L37.7546 154.625L37.7013 154.379L38.9278 154.299C38.9862 154.12 39.0192 153.931 39.0331 153.734H37.8638V153.5H39.3112ZM39.301 154.686V154.45H40.0527V153.168H40.332V156.36H40.0527V154.686H39.301ZM43.5047 153.168V156.36H43.2229V153.168H43.5047ZM40.8613 155.326C40.9997 155.326 41.1495 155.326 41.3057 155.323V153.747H40.9451V153.513H42.7683V153.747H42.4077V155.283C42.588 155.27 42.7658 155.255 42.9359 155.235L42.9511 155.445C42.2554 155.555 41.486 155.565 40.8943 155.567L40.8613 155.326ZM41.5799 155.318C41.7602 155.315 41.9456 155.308 42.1309 155.299V153.747H41.5799V155.318Z" fill="#09101D"/>
<circle cx="51.7137" cy="155.067" r="0.735383" fill="#FFB25C" stroke="#798087" stroke-width="0.105055"/>
<path d="M56.8236 154.516V154.745H55.5057V155.062H56.4478V155.775H54.5509V156.101H56.5443V156.324H54.2742V155.565H56.171V155.28H54.2665V155.062H55.2239V154.745H53.9136V154.516H56.8236ZM54.2919 154.247V153.274H56.4453V154.247H54.2919ZM54.5687 154.021H56.1634V153.5H54.5687V154.021ZM58.8511 153.457V153.693H57.5764V154.356H58.7369V154.585H57.5764V155.356C58.1719 155.356 58.5807 155.335 59.0695 155.252L59.1 155.486C58.5947 155.57 58.1655 155.588 57.551 155.59H57.2971V153.457H58.8511ZM59.4479 156.36V153.168H59.7297V156.36H59.4479ZM63.1869 154.993V155.227H62.4428V156.382H62.161V155.227H61.2976V156.382H61.0157V155.227H60.2641V154.993H63.1869ZM60.419 154.394C60.9929 154.31 61.5795 153.924 61.5795 153.465V153.282H61.8715V153.465C61.8715 153.917 62.4631 154.313 63.032 154.394L62.9177 154.628C62.4225 154.54 61.9324 154.262 61.7268 153.867C61.5236 154.265 61.0348 154.54 60.5358 154.628L60.419 154.394Z" fill="#09101D"/>
<circle cx="73.1707" cy="155.067" r="0.735383" fill="#FFC98D" stroke="#798087" stroke-width="0.105055"/>
<path d="M76.5057 154.026C76.5031 154.607 76.8993 155.194 77.369 155.407L77.1964 155.631C76.8333 155.453 76.5196 155.075 76.3673 154.62C76.22 155.101 75.9051 155.506 75.5306 155.694L75.3528 155.458C75.8277 155.24 76.2213 154.63 76.2238 154.026V153.444H76.5057V154.026ZM77.7195 156.365V153.168H78.0013V156.365H77.7195ZM81.1842 153.168V156.365H80.9049V153.168H81.1842ZM78.7287 153.698V153.465H80.2142V154.6H79.0233V155.354C79.5527 155.353 80.0238 155.33 80.5951 155.237L80.623 155.473C80.0364 155.567 79.5514 155.59 79.0004 155.59H78.7338V154.369H79.9298V153.698H78.7287ZM84.3696 153.168V154.793H84.0903V154.115H83.4212C83.3628 154.482 83.0365 154.729 82.6048 154.729C82.1249 154.729 81.7745 154.43 81.777 154.001C81.7745 153.574 82.1249 153.279 82.6048 153.279C83.0327 153.279 83.3577 153.519 83.4199 153.879H84.0903V153.168H84.3696ZM82.0462 154.001C82.0462 154.29 82.2798 154.496 82.6048 154.496C82.9222 154.496 83.1584 154.29 83.1584 154.001C83.1584 153.716 82.9222 153.51 82.6048 153.513C82.2798 153.51 82.0462 153.716 82.0462 154.001ZM82.3001 155.194V154.971H84.3696V155.732H82.587V156.088H84.4915V156.316H82.3077V155.519H84.0903V155.194H82.3001Z" fill="#09101D"/>
<g filter="url(#filter2_ddd_570_25971)">
<circle cx="56.371" cy="122.005" r="22.3241" fill="#FFF7EF"/>
<path d="M56.371 99.6808C62.0858 99.6808 67.5829 101.872 71.7301 105.804C75.8774 109.736 78.3588 115.109 78.6634 120.815C78.968 126.522 77.0725 132.128 73.3673 136.479C69.6621 140.83 64.4295 143.594 58.7472 144.202C53.0649 144.811 47.3657 143.216 42.8235 139.748C38.2814 136.28 35.2421 131.203 34.3319 125.561C33.4216 119.919 34.7097 114.143 37.9307 109.422C41.1517 104.702 46.0604 101.396 51.6457 100.187L56.371 122.005V99.6808Z" fill="#FFE8CE"/>
<path d="M56.371 99.6808C61.813 99.6808 67.0675 101.669 71.1469 105.271C75.2262 108.872 77.8494 113.84 78.5233 119.241C79.1972 124.641 77.8754 130.101 74.8063 134.595C71.7373 139.089 67.1324 142.307 61.8573 143.644C56.5822 144.982 51.0003 144.346 46.1608 141.857C41.3214 139.368 37.5578 135.197 35.5774 130.129C33.5971 125.06 33.5365 119.442 35.407 114.332C37.2775 109.221 40.9503 104.97 45.7349 102.377L56.371 122.005V99.6808Z" fill="#F8F1EC"/>
<path d="M56.371 99.6808C61.5358 99.6808 66.5408 101.472 70.5333 104.748C74.5257 108.025 77.2586 112.584 78.2662 117.65C79.2738 122.715 78.4938 127.973 76.0591 132.528C73.6245 137.083 69.6857 140.653 64.9141 142.63C60.1424 144.606 54.8331 144.867 49.8906 143.368C44.9482 141.869 40.6786 138.702 37.8092 134.408C34.9398 130.113 33.6481 124.957 34.1544 119.817C34.6606 114.677 36.9334 109.871 40.5855 106.219L56.371 122.005V99.6808Z" fill="#EBD5C7"/>
<path d="M56.371 99.6808C61.0369 99.6808 65.5856 101.143 69.3778 103.861C73.1699 106.58 76.015 110.418 77.5131 114.837C79.0113 119.256 79.0872 124.033 77.7302 128.497C76.3732 132.962 73.6515 136.888 69.9477 139.726C66.2438 142.564 61.7439 144.17 57.0803 144.318C52.4168 144.466 47.8239 143.149 43.9473 140.553C40.0707 137.956 37.1051 134.21 35.4673 129.841C33.8295 125.472 33.6019 120.699 34.8163 116.194L56.371 122.005V99.6808Z" fill="#FFE8CE"/>
<path d="M56.371 99.6808C60.3585 99.6808 64.2732 100.749 67.7083 102.774C71.1433 104.799 73.9732 107.707 75.9039 111.196C77.8346 114.685 78.7955 118.627 78.6868 122.613C78.5782 126.599 77.4039 130.484 75.2859 133.862C73.168 137.241 70.1839 139.99 66.6436 141.825C63.1033 143.66 59.1362 144.513 55.1546 144.296C51.1731 144.079 47.3223 142.799 44.0028 140.59C40.6832 138.38 38.0159 135.322 36.2782 131.734L56.371 122.005V99.6808Z" fill="#FFF7EF"/>
<path d="M56.371 99.6808C59.7663 99.6808 63.1169 100.455 66.1678 101.945C69.2187 103.435 71.8896 105.602 73.9771 108.279C76.0647 110.957 77.5139 114.076 78.2146 117.398C78.9153 120.72 78.8489 124.158 78.0206 127.451C77.1923 130.744 75.6238 133.804 73.4345 136.4C71.2451 138.995 68.4927 141.056 65.3866 142.428C62.2805 143.799 58.9025 144.443 55.5097 144.312C52.1169 144.181 48.7987 143.278 45.8075 141.672L56.371 122.005V99.6808Z" fill="#FFC98D"/>
<path d="M56.371 99.6808C61.6851 99.6808 66.8248 101.576 70.8663 105.027C74.9077 108.477 77.5858 113.256 78.419 118.505C79.2522 123.753 78.1859 129.126 75.4118 133.659C72.6378 138.191 68.3378 141.586 63.2851 143.231L56.371 122.005V99.6808Z" fill="#FFB25C"/>
<path d="M56.371 99.6808C60.1266 99.6808 63.8216 100.628 67.1138 102.436C70.406 104.243 73.189 106.852 75.2053 110.02C77.2215 113.189 78.4058 116.815 78.6485 120.562C78.8912 124.31 78.1844 128.059 76.5936 131.461L56.371 122.005V99.6808Z" fill="#BE7346"/>
<g filter="url(#filter3_i_570_25971)">
<circle cx="56.3701" cy="122.005" r="13.1318" fill="white"/>
</g>
</g>
</g>
<g filter="url(#filter4_ddd_570_25971)">
<rect x="103.289" y="73.9424" width="78.4259" height="105.055" rx="5.09259" fill="white"/>
<path d="M117.657 91.8945V92.6576H109.65V91.8945H113.182V89.8227H114.111V91.8945H117.657ZM110.019 89.4256C111.646 89.1493 113.155 87.9339 113.155 86.5975V86.5181H110.313V85.7481H116.963V86.5181H114.121V86.5975C114.121 87.9339 115.637 89.1252 117.305 89.3841L116.929 90.1162C115.516 89.8503 114.215 89.0319 113.645 87.8821C113.079 89.0457 111.787 89.8848 110.396 90.1576L110.019 89.4256ZM121.531 86.5699C121.531 87.699 122.367 88.7729 123.721 89.2011L123.247 89.9194C122.239 89.5879 121.476 88.8973 121.079 88.0202C120.685 88.9698 119.908 89.726 118.866 90.0886L118.386 89.3703C119.75 88.9042 120.589 87.7612 120.596 86.5699V86.3282H118.627V85.5789H123.458V86.3282H121.531V86.5699ZM119.618 91.4732V90.7205H125.551V93.7488H124.622V91.4732H119.618ZM124.622 90.2819V84.9988H125.551V90.2819H124.622ZM134.221 84.9988V89.5499H133.302V88.5105H131.389V89.2287H127.349V85.3959H128.278V86.5768H130.471V85.3959H131.389V86.2039H133.302V84.9988H134.221ZM128.278 88.4898H130.471V87.295H128.278V88.4898ZM128.499 90.6687V89.9401H134.221V92.0948H129.438V92.8959H134.532V93.6383H128.516V91.3973H133.302V90.6687H128.499ZM131.389 87.7923H133.302V86.9152H131.389V87.7923ZM144.98 85.5513V86.3213C144.977 87.1466 144.977 88.0478 144.739 89.2978H145.995V90.054H142.446V93.7626H141.517V90.054H138.019V89.2978H143.796C144.058 88.0513 144.058 87.1362 144.058 86.3213V86.304H138.989V85.5513H144.98ZM154.186 84.9988V93.7488H153.295V89.1908H152.217V93.3171H151.337V85.168H152.217V88.4242H153.295V84.9988H154.186ZM146.955 91.4421V85.9829H150.353V91.4421H146.955ZM147.829 90.7066H149.483V86.7184H147.829V90.7066ZM164.993 84.9988V93.766H164.061V84.9988H164.993ZM158.229 91.6735V85.7274H159.154V87.9753H161.516V85.7274H162.431V91.6735H158.229ZM159.154 90.9069H161.516V88.7108H159.154V90.9069ZM170.369 85.0955C172.341 85.0955 173.491 85.6341 173.491 86.6044C173.491 87.5816 172.341 88.1134 170.369 88.1203C168.398 88.1134 167.241 87.5816 167.241 86.6044C167.241 85.6341 168.398 85.0955 170.369 85.0955ZM166.388 89.3358V88.5934H174.365V89.3358H172.217V90.1162H173.353V92.1638H168.263V92.9477H173.605V93.6659H167.355V91.4974H172.441V90.8102H167.338V90.1162H168.501V89.3358H166.388ZM168.211 86.6044C168.204 87.1431 168.978 87.4194 170.369 87.4228C171.771 87.4194 172.541 87.1431 172.541 86.6044C172.541 86.0899 171.771 85.7964 170.369 85.793C168.978 85.7964 168.204 86.0899 168.211 86.6044ZM169.42 90.1162H171.291V89.3358H169.42V90.1162Z" fill="#09101D"/>
<circle cx="111.534" cy="154.764" r="0.735383" fill="#BE7346" stroke="#798087" stroke-width="0.105055"/>
<path d="M113.947 153.451V153.164H115.904V153.451H115.089V155.764H114.764V153.451H113.947ZM116.337 155.764V153.164H117.913V153.451H116.659V154.319H117.83V154.604H116.659V155.477H117.931V155.764H116.337ZM118.54 155.764H118.199L119.152 153.164H119.492L120.444 155.764H120.104L119.845 155.033H118.799L118.54 155.764ZM118.899 154.748H119.745L119.332 153.583H119.312L118.899 154.748ZM120.796 153.164H121.185L122.061 155.305H122.091L122.967 153.164H123.356V155.764H123.051V153.801H123.026L122.218 155.764H121.931L121.124 153.799H121.101V155.764H120.796V153.164ZM124.971 155.764H124.63L125.583 153.164H125.923L126.875 155.764H126.535L126.276 155.033H125.23L124.971 155.764ZM125.33 154.748H126.176L125.763 153.583H125.743L125.33 154.748Z" fill="#09101D"/>
<circle cx="134.987" cy="154.764" r="0.735383" fill="#FFB25C" stroke="#798087" stroke-width="0.105055"/>
<path d="M137.448 153.451V153.164H139.406V153.451H138.591V155.764H138.266V153.451H137.448ZM139.838 155.764V153.164H141.415V153.451H140.161V154.319H141.331V154.604H140.161V155.477H141.433V155.764H139.838ZM142.041 155.764H141.701L142.653 153.164H142.993L143.946 155.764H143.605L143.346 155.033H142.3L142.041 155.764ZM142.401 154.748H143.246L142.833 153.583H142.813L142.401 154.748ZM144.298 153.164H144.686L145.562 155.305H145.593L146.469 153.164H146.857V155.764H146.553V153.801H146.527L145.72 155.764H145.433L144.625 153.799H144.603V155.764H144.298V153.164ZM148.355 155.764V153.164H149.27C149.813 153.164 150.069 153.471 150.069 153.855C150.069 154.187 149.871 154.337 149.645 154.398V154.423C149.887 154.439 150.171 154.662 150.171 155.073C150.171 155.465 149.915 155.764 149.3 155.764H148.355ZM148.678 155.477H149.297C149.704 155.477 149.861 155.297 149.861 155.071C149.861 154.807 149.648 154.583 149.313 154.583H148.678V155.477ZM148.678 154.304H149.257C149.539 154.304 149.76 154.129 149.76 153.857C149.76 153.631 149.607 153.451 149.267 153.451H148.678V154.304Z" fill="#09101D"/>
<circle cx="158.444" cy="154.764" r="0.735383" fill="#FFB25C" stroke="#798087" stroke-width="0.105055"/>
<path d="M160.769 153.451V153.164H162.727V153.451H161.911V155.764H161.586V153.451H160.769ZM163.159 155.764V153.164H164.736V153.451H163.481V154.319H164.652V154.604H163.481V155.477H164.753V155.764H163.159ZM165.362 155.764H165.022L165.974 153.164H166.314L167.266 155.764H166.926L166.667 155.033H165.621L165.362 155.764ZM165.721 154.748H166.567L166.154 153.583H166.134L165.721 154.748ZM167.618 153.164H168.007L168.883 155.305H168.914L169.79 153.164H170.178V155.764H169.873V153.801H169.848L169.04 155.764H168.754L167.946 153.799H167.923V155.764H167.618V153.164ZM173.448 153.982C173.375 153.624 173.068 153.431 172.725 153.431C172.255 153.431 171.889 153.794 171.889 154.464C171.889 155.134 172.255 155.498 172.725 155.498C173.068 155.498 173.372 155.305 173.448 154.949H173.773C173.68 155.48 173.253 155.8 172.725 155.8C172.057 155.8 171.574 155.287 171.574 154.464C171.574 153.641 172.057 153.128 172.725 153.128C173.25 153.128 173.677 153.443 173.773 153.982H173.448Z" fill="#09101D"/>
<g filter="url(#filter5_ddd_570_25971)">
<circle cx="142.359" cy="122.005" r="22.3241" fill="#FFE8CE"/>
<path d="M142.359 99.6808C147.937 99.6808 153.312 101.768 157.427 105.533C161.542 109.297 164.099 114.466 164.595 120.021C165.091 125.576 163.489 131.115 160.106 135.549C156.722 139.982 151.801 142.989 146.312 143.976C140.823 144.964 135.163 143.861 130.446 140.885C125.73 137.909 122.298 133.275 120.826 127.895C119.355 122.515 119.95 116.78 122.495 111.817C125.041 106.855 129.351 103.024 134.579 101.081L142.359 122.005V99.6808Z" fill="#FFF7EF"/>
<path d="M142.359 99.6808C147.403 99.6808 152.297 101.389 156.246 104.526C160.195 107.663 162.965 112.045 164.105 116.958C165.246 121.871 164.689 127.025 162.525 131.581C160.362 136.137 156.72 139.826 152.192 142.047C147.664 144.268 142.517 144.891 137.59 143.814C132.663 142.736 128.246 140.022 125.059 136.114C121.871 132.206 120.101 127.333 120.037 122.29C119.973 117.247 121.618 112.331 124.704 108.342L142.359 122.005V99.6808Z" fill="#FFC98D"/>
<path d="M142.359 99.6808C146.451 99.6808 150.465 100.805 153.961 102.932C157.457 105.058 160.301 108.105 162.183 111.739C164.065 115.372 164.911 119.453 164.631 123.535C164.35 127.618 162.953 131.544 160.592 134.886C158.231 138.228 154.997 140.857 151.243 142.486C147.488 144.114 143.359 144.679 139.306 144.119C135.252 143.559 131.43 141.896 128.258 139.312C125.086 136.727 122.685 133.32 121.318 129.463L142.359 122.005V99.6808Z" fill="#FFB25C"/>
<path d="M142.359 99.6808C147.337 99.6808 152.172 101.345 156.096 104.408C160.02 107.471 162.808 111.757 164.016 116.586C165.224 121.415 164.784 126.51 162.765 131.06C160.745 135.61 157.264 139.355 152.872 141.699L142.359 122.005V99.6808Z" fill="#BE7346"/>
<g filter="url(#filter6_i_570_25971)">
<circle cx="142.358" cy="122.005" r="13.1318" fill="white"/>
</g>
</g>
</g>
<g filter="url(#filter7_ddd_570_25971)">
<rect x="189.352" y="73.9424" width="78.4259" height="105.055" rx="5.09259" fill="white"/>
<path d="M203.201 84.9988V93.7488H202.314V89.2564H201.267V93.3171H200.39V85.168H201.267V88.4794H202.314V84.9988H203.201ZM195.525 91.2764C196.806 90.5616 197.403 89.0526 197.403 87.3123V86.7529H195.763V85.9967H199.828V86.7529H198.301V87.3123C198.301 88.8869 198.892 90.313 200.166 90.9691L199.62 91.6804C198.757 91.2142 198.184 90.3993 197.873 89.3876C197.573 90.5374 196.993 91.456 196.102 91.9843L195.525 91.2764ZM211.25 85.5513V86.3213C211.246 87.1466 211.246 88.0478 211.008 89.2978H212.265V90.054H208.715V93.7626H207.786V90.054H204.288V89.2978H210.065C210.328 88.0513 210.328 87.1362 210.328 86.3213V86.304H205.259V85.5513H211.25ZM220.455 84.9988V93.7488H219.564V89.1908H218.487V93.3171H217.606V85.168H218.487V88.4242H219.564V84.9988H220.455ZM213.225 91.4421V85.9829H216.622V91.4421H213.225ZM214.098 90.7066H215.752V86.7184H214.098V90.7066ZM227.026 86.4007C227.026 87.5471 227.834 88.6141 229.139 89.0423L228.646 89.7709C227.686 89.4325 226.967 88.7522 226.584 87.889C226.208 88.8696 225.465 89.6397 224.447 90.016L223.946 89.2805C225.31 88.7937 226.101 87.6231 226.108 86.3213V85.4546H227.026V86.4007ZM225.127 92.1051C225.127 91.0865 226.246 90.4857 228.062 90.4857C229.864 90.4857 230.969 91.0865 230.969 92.1051C230.969 93.1445 229.864 93.735 228.062 93.735C226.246 93.735 225.127 93.1445 225.127 92.1051ZM226.056 92.1051C226.049 92.6852 226.798 92.9995 228.062 93.0064C229.322 92.9995 230.061 92.6852 230.061 92.1051C230.061 91.5492 229.322 91.2211 228.062 91.2211C226.798 91.2211 226.049 91.5492 226.056 92.1051ZM229.961 90.2785V84.9988H230.89V87.2018H232.157V87.9753H230.89V90.2785H229.961ZM240.634 89.1873V89.9332H237.098V90.8724H239.66V93.6383H233.614V90.8724H236.183V89.9332H232.658V89.1873H240.634ZM233.386 86.0209V85.2681H239.885V86.0209H238.611V87.6921H239.847V88.4484H233.424V87.6921H234.664V86.0209H233.386ZM234.529 92.8855H238.759V91.601H234.529V92.8855ZM235.586 87.6921H237.682V86.0209H235.586V87.6921ZM250.99 84.9988V93.766H250.057V84.9988H250.99ZM244.225 91.6735V85.7274H245.15V87.9753H247.512V85.7274H248.427V91.6735H244.225ZM245.15 90.9069H247.512V88.7108H245.15V90.9069ZM256.366 85.0955C258.337 85.0955 259.487 85.6341 259.487 86.6044C259.487 87.5816 258.337 88.1134 256.366 88.1203C254.394 88.1134 253.237 87.5816 253.237 86.6044C253.237 85.6341 254.394 85.0955 256.366 85.0955ZM252.384 89.3358V88.5934H260.361V89.3358H258.213V90.1162H259.349V92.1638H254.259V92.9477H259.601V93.6659H253.351V91.4974H258.437V90.8102H253.334V90.1162H254.497V89.3358H252.384ZM254.207 86.6044C254.2 87.1431 254.974 87.4194 256.366 87.4228C257.767 87.4194 258.537 87.1431 258.537 86.6044C258.537 86.0899 257.767 85.7964 256.366 85.793C254.974 85.7964 254.2 86.0899 254.207 86.6044ZM255.416 90.1162H257.287V89.3358H255.416V90.1162Z" fill="#09101D"/>
<circle cx="200.284" cy="154.764" r="0.735383" fill="#BE7346" stroke="#798087" stroke-width="0.105055"/>
<path d="M205.064 152.867V155.292H204.78V154.959H204.122V154.754H204.78V152.867H205.064ZM202.416 154.345C203.01 154.342 203.81 154.337 204.493 154.251L204.513 154.456C204.228 154.502 203.929 154.531 203.635 154.549V155.18H203.353V154.563C203.03 154.576 202.722 154.577 202.454 154.576L202.416 154.345ZM202.672 153.552C202.672 153.217 202.992 152.996 203.465 152.996C203.932 152.996 204.252 153.217 204.254 153.552C204.252 153.893 203.932 154.106 203.465 154.106C202.992 154.106 202.672 153.893 202.672 153.552ZM202.875 155.985V155.053H203.157V155.751H205.143V155.985H202.875ZM202.941 153.552C202.939 153.761 203.152 153.895 203.465 153.895C203.767 153.895 203.983 153.761 203.985 153.552C203.983 153.347 203.767 153.207 203.465 153.21C203.152 153.207 202.939 153.347 202.941 153.552ZM208.158 154.058V154.286H206.013V153.052H208.115V153.286H206.3V154.058H208.158ZM205.606 154.939V154.708H208.529V154.939H207.198V156.046H206.922V154.939H205.606ZM211.335 153.197C211.332 154.119 211.005 154.962 209.877 155.528L209.717 155.312C210.302 155.018 210.666 154.649 210.864 154.219L209.778 154.322L209.725 154.076L210.951 153.996C211.01 153.817 211.043 153.627 211.057 153.431H209.887V153.197H211.335ZM211.324 154.383V154.147H212.076V152.864H212.355V156.056H212.076V154.383H211.324ZM215.528 152.864V156.056H215.246V152.864H215.528ZM212.885 155.023C213.023 155.023 213.173 155.023 213.329 155.02V153.443H212.969V153.21H214.792V153.443H214.431V154.98C214.611 154.967 214.789 154.952 214.959 154.931L214.975 155.142C214.279 155.251 213.509 155.261 212.918 155.264L212.885 155.023ZM213.603 155.015C213.784 155.011 213.969 155.005 214.154 154.996V153.443H213.603V155.015Z" fill="#09101D"/>
<circle cx="223.737" cy="154.764" r="0.735383" fill="#FFB25C" stroke="#798087" stroke-width="0.105055"/>
<path d="M228.558 152.867V155.261H228.291V154.139H227.872V155.195H227.605V152.928H227.872V153.903H228.291V152.867H228.558ZM225.83 153.491V153.263H226.513V152.892H226.793V153.263H227.468V153.491H225.83ZM225.97 154.238C225.967 153.888 226.249 153.657 226.651 153.659C227.054 153.657 227.336 153.888 227.339 154.238C227.336 154.588 227.054 154.82 226.651 154.82C226.249 154.82 225.967 154.588 225.97 154.238ZM226.221 154.238C226.221 154.451 226.397 154.601 226.651 154.599C226.907 154.601 227.082 154.451 227.082 154.238C227.082 154.02 226.907 153.875 226.651 153.875C226.397 153.875 226.221 154.02 226.221 154.238ZM226.465 155.985V155.051H226.747V155.751H228.657V155.985H226.465ZM231.603 154.398V154.632H229.399V153.161H231.573V153.395H229.679V154.398H231.603ZM229.026 155.619V155.383H231.949V155.619H229.026ZM233.842 153.154V153.39H232.628V154.053H233.77V154.281H232.628V155.053C233.204 155.052 233.607 155.032 234.085 154.949L234.116 155.183C233.618 155.266 233.199 155.284 232.595 155.287H232.343V153.154H233.842ZM234.393 156.056V152.864H234.674V154.147H235.208V154.388H234.674V156.056H234.393ZM238.012 152.867V154.748H237.728V154.571H237.083V154.385H237.728V152.867H238.012ZM235.369 154.07C235.988 154.073 236.778 154.065 237.469 153.989L237.487 154.175C237.174 154.218 236.849 154.244 236.532 154.261V154.759H236.255V154.271C235.953 154.281 235.663 154.282 235.404 154.281L235.369 154.07ZM235.618 153.408C235.618 153.113 235.93 152.928 236.412 152.928C236.887 152.928 237.202 153.113 237.205 153.408C237.202 153.707 236.887 153.885 236.412 153.885C235.93 153.885 235.618 153.707 235.618 153.408ZM235.859 155.066V154.863H238.012V155.523H236.148V155.81H238.119V156.021H235.872V155.327H237.733V155.066H235.859ZM235.884 153.408C235.882 153.578 236.09 153.692 236.412 153.692C236.73 153.692 236.938 153.578 236.938 153.408C236.938 153.238 236.73 153.123 236.412 153.123C236.09 153.123 235.882 153.238 235.884 153.408Z" fill="#09101D"/>
<circle cx="246.194" cy="154.764" r="0.735383" fill="#FFC98D" stroke="#798087" stroke-width="0.105055"/>
<path d="M249.529 153.723C249.527 154.304 249.923 154.891 250.392 155.104L250.22 155.327C249.857 155.15 249.543 154.771 249.391 154.317C249.243 154.798 248.929 155.203 248.554 155.391L248.376 155.155C248.851 154.936 249.245 154.327 249.247 153.723V153.141H249.529V153.723ZM250.743 156.061V152.864H251.025V156.061H250.743ZM254.208 152.864V156.061H253.928V152.864H254.208ZM251.752 153.395V153.161H253.238V154.296H252.047V155.051C252.576 155.049 253.047 155.026 253.619 154.934L253.646 155.17C253.06 155.264 252.575 155.287 252.024 155.287H251.757V154.065H252.953V153.395H251.752ZM257.393 152.864V154.489H257.114V153.811H256.445C256.386 154.178 256.06 154.426 255.628 154.426C255.148 154.426 254.798 154.126 254.8 153.697C254.798 153.271 255.148 152.976 255.628 152.976C256.056 152.976 256.381 153.216 256.443 153.575H257.114V152.864H257.393ZM255.07 153.697C255.07 153.987 255.303 154.192 255.628 154.192C255.946 154.192 256.182 153.987 256.182 153.697C256.182 153.413 255.946 153.207 255.628 153.21C255.303 153.207 255.07 153.413 255.07 153.697ZM255.324 154.891V154.667H257.393V155.429H255.61V155.784H257.515V156.013H255.331V155.216H257.114V154.891H255.324Z" fill="#09101D"/>
<g filter="url(#filter8_ddd_570_25971)">
<circle cx="228.351" cy="122.005" r="22.3241" fill="#EBD5C7"/>
<path d="M228.351 99.6808C233.826 99.6808 239.109 101.692 243.197 105.333C247.286 108.973 249.894 113.988 250.526 119.426C251.159 124.864 249.771 130.344 246.627 134.825C243.484 139.307 238.803 142.477 233.475 143.733C228.147 144.99 222.543 144.244 217.728 141.639C212.914 139.034 209.224 134.751 207.361 129.604C205.497 124.457 205.59 118.804 207.621 113.721C209.653 108.638 213.481 104.478 218.378 102.032L228.351 122.005V99.6808Z" fill="#FFE8CE"/>
<path d="M228.351 99.6808C233.23 99.6808 237.975 101.279 241.859 104.231C245.743 107.183 248.554 111.326 249.86 116.027C251.167 120.727 250.897 125.726 249.094 130.259C247.29 134.792 244.05 138.609 239.871 141.127C235.692 143.645 230.804 144.724 225.953 144.2C221.103 143.676 216.558 141.577 213.013 138.225C209.468 134.873 207.119 130.452 206.325 125.638C205.531 120.824 206.336 115.883 208.616 111.57L228.351 122.005V99.6808Z" fill="#FFF7EF"/>
<path d="M228.351 99.6808C232.254 99.6808 236.089 100.704 239.473 102.648C242.857 104.593 245.672 107.39 247.638 110.762C249.603 114.134 250.651 117.962 250.675 121.864C250.7 125.767 249.701 129.608 247.778 133.004C245.855 136.4 243.075 139.233 239.716 141.22C236.357 143.207 232.535 144.278 228.633 144.327C224.73 144.376 220.883 143.402 217.475 141.5C214.066 139.599 211.216 136.837 209.208 133.49L228.351 122.005V99.6808Z" fill="#FFC98D"/>
<path d="M228.351 99.6808C233.991 99.6808 239.421 101.815 243.551 105.655C247.682 109.494 250.206 114.755 250.616 120.379C251.027 126.004 249.294 131.575 245.765 135.974C242.236 140.373 237.174 143.273 231.594 144.092L228.351 122.005V99.6808Z" fill="#FFB25C"/>
<path d="M228.351 99.6808C231.703 99.6808 235.011 100.435 238.031 101.888C241.05 103.341 243.704 105.455 245.795 108.074C247.887 110.692 249.362 113.748 250.111 117.014C250.86 120.281 250.864 123.674 250.123 126.942L228.351 122.005V99.6808Z" fill="#BE7346"/>
<g filter="url(#filter9_i_570_25971)">
<circle cx="228.351" cy="122.005" r="13.1318" fill="white"/>
</g>
</g>
</g>
<path d="M26.457 19.8755V26.0513H25.1445V25.6177H23.1641V24.8208H25.1445V19.8755H26.457ZM17.5625 23.6958C19.6074 23.6958 22.168 23.6782 24.4414 23.4497L24.5117 24.27C23.5449 24.3989 22.5488 24.4868 21.5703 24.5337V26.063H20.2812V24.5864C19.373 24.6099 18.5 24.6157 17.7031 24.6099L17.5625 23.6958ZM18.3125 21.6333C18.3125 20.6724 19.373 20.0454 20.9844 20.0396C22.5605 20.0454 23.627 20.6724 23.6328 21.6333C23.627 22.6177 22.5605 23.2153 20.9844 23.2153C19.373 23.2153 18.3125 22.6177 18.3125 21.6333ZM19.1094 27.27V26.3794H26.457V28.7583H20.4336V29.438H26.7383V30.3638H19.1562V27.9028H25.168V27.27H19.1094ZM19.5547 21.6333C19.543 22.0786 20.0938 22.354 20.9844 22.3481C21.8574 22.354 22.4141 22.0786 22.4141 21.6333C22.4141 21.188 21.8574 20.9009 20.9844 20.9067C20.0938 20.9009 19.543 21.188 19.5547 21.6333ZM34.5898 20.9302V29.4146H33.0547V22.4185H33.0078L31.0273 23.6841V22.2896L33.125 20.9302H34.5898ZM45.125 19.8638V30.4575H43.8242V19.8638H45.125ZM36.3477 27.5161C37.1914 27.5103 38.1465 27.5103 39.1484 27.481V26.5083C37.959 26.3208 37.1797 25.5942 37.1797 24.5864C37.1797 23.3911 38.2402 22.6001 39.7812 22.5942C41.3398 22.6001 42.418 23.3911 42.418 24.5864C42.418 25.5884 41.6387 26.3091 40.4492 26.5024V27.4341C41.3809 27.3931 42.3184 27.3169 43.2031 27.1997L43.2969 28.1724C40.9707 28.5649 38.4395 28.5942 36.5352 28.5942L36.3477 27.5161ZM36.5703 22.1138V21.0825H39.1484V19.8989H40.4492V21.0825H43.0156V22.1138H36.5703ZM38.4219 24.5864C38.4102 25.1958 38.9785 25.5532 39.7812 25.5474C40.6074 25.5532 41.1699 25.1958 41.1641 24.5864C41.1699 23.9712 40.6074 23.5962 39.7812 23.5903C38.9785 23.5962 38.4102 23.9712 38.4219 24.5864ZM59.1758 25.3716V26.4028H49.4961V25.3716H53.6797V24.5864H50.7383V20.145H58.0156V21.1528H52.0391V21.8794H57.7578V22.8403H52.0391V23.5903H58.0977V24.5864H54.9805V25.3716H59.1758ZM50.6445 28.7114C50.6445 27.604 51.9746 26.9829 54.3359 26.9888C56.6621 26.9829 57.998 27.604 58.0039 28.7114C57.998 29.8481 56.6621 30.4458 54.3359 30.4458C51.9746 30.4458 50.6445 29.8481 50.6445 28.7114ZM51.9453 28.7114C51.9453 29.2271 52.7422 29.4731 54.3359 29.4731C55.9004 29.4731 56.6914 29.2271 56.7031 28.7114C56.6914 28.2075 55.9004 27.9614 54.3359 27.9614C52.7422 27.9614 51.9453 28.2075 51.9453 28.7114ZM68.2461 19.8638V22.4771H69.7227V23.5552H68.2461V26.0513H66.9453V19.8638H68.2461ZM59.9023 21.8911V20.8481H62.3984V19.7817H63.6992V20.8481H66.1836V21.8911H59.9023ZM60.4414 24.1177C60.4414 22.9927 61.4961 22.2544 63.043 22.2544C64.5723 22.2544 65.627 22.9927 65.6328 24.1177C65.627 25.2427 64.5723 25.9868 63.043 25.981C61.4961 25.9868 60.4414 25.2427 60.4414 24.1177ZM61.4023 30.3286V26.4731H62.6914V27.3872H66.9453V26.4731H68.2461V30.3286H61.4023ZM61.707 24.1177C61.7012 24.6919 62.2402 25.02 63.043 25.02C63.8457 25.02 64.3906 24.6919 64.3906 24.1177C64.3906 23.561 63.8457 23.2153 63.043 23.2153C62.2402 23.2153 61.7012 23.561 61.707 24.1177ZM62.6914 29.2974H66.9453V28.395H62.6914V29.2974ZM81.9805 19.8638V26.1567H80.6797V23.5669H78.875V22.5005H80.6797V19.8638H81.9805ZM73.0742 25.1021C74.7793 24.5161 75.6758 23.0923 75.6758 21.6919V21.6099H73.4727V20.5552H79.1914V21.6099H77V21.6802C77 22.9692 77.8555 24.27 79.4961 24.8208L78.8398 25.8521C77.6621 25.4536 76.8301 24.645 76.3613 23.6489C75.8984 24.7739 75.0137 25.688 73.7539 26.1333L73.0742 25.1021ZM74.7969 28.4419C74.7852 27.1704 76.1621 26.4263 78.3945 26.4263C80.6387 26.4263 82.0098 27.1704 82.0156 28.4419C82.0098 29.7134 80.6387 30.4517 78.3945 30.4575C76.1621 30.4517 74.7852 29.7134 74.7969 28.4419ZM76.0859 28.4419C76.0801 29.0981 76.9238 29.4556 78.3945 29.4497C79.877 29.4556 80.7148 29.0981 80.7148 28.4419C80.7148 27.7798 79.877 27.4224 78.3945 27.4224C76.9238 27.4224 76.0801 27.7798 76.0859 28.4419ZM87.2773 21.7388C87.2656 23.1274 88.1445 24.4575 89.8086 24.9966L89.1289 26.0278C87.957 25.6294 87.1191 24.8325 86.6562 23.813C86.1875 24.938 85.3145 25.8169 84.0781 26.2505L83.3516 25.2192C85.0918 24.6509 85.9648 23.2329 85.9648 21.7271V20.52H87.2773V21.7388ZM85.0508 30.2466V26.8833H86.3867V29.1919H92.2578V30.2466H85.0508ZM90.5352 27.645V19.8638H91.8359V22.9927H93.3125V24.0942H91.8359V27.645H90.5352Z" fill="#09101D"/>
<g filter="url(#filter10_d_570_25971)">
<rect x="16.7148" y="43.3868" width="51.9444" height="20.3704" rx="4" fill="#BE7346" shape-rendering="crispEdges"/>
<path d="M39.433 50.0002V57.072H38.3557V51.0775H38.3142L36.6257 52.1791V51.1535L38.3833 50.0002H39.433ZM48.211 49.1577V54.2889H47.2787V53.8676H45.5729V53.284H47.2787V49.1577H48.211ZM40.9078 52.3862C42.6033 52.3897 44.7442 52.3724 46.6295 52.1756L46.6848 52.7695C45.856 52.8835 44.9997 52.9525 44.1606 52.9974V54.3096H43.2455V53.032C42.4583 53.0561 41.6986 53.0561 41.0149 53.0527L40.9078 52.3862ZM41.5605 50.6252C41.5605 49.8241 42.4272 49.3096 43.7531 49.3096C45.0549 49.3096 45.9286 49.8241 45.9355 50.6252C45.9286 51.4436 45.0549 51.9339 43.7531 51.9339C42.4272 51.9339 41.5605 51.4436 41.5605 50.6252ZM42.22 55.2316V54.5824H48.211V56.4712H43.1661V57.1445H48.4734V57.8179H42.2545V55.8496H47.2891V55.2316H42.22ZM42.4375 50.6252C42.4306 51.043 42.9451 51.3124 43.7531 51.3124C44.5473 51.3124 45.0618 51.043 45.0618 50.6252C45.0618 50.2074 44.5473 49.9346 43.7531 49.9346C42.9451 49.9346 42.4306 50.2074 42.4375 50.6252Z" fill="white"/>
</g>
<g opacity="0.6">
<rect x="72.7344" y="43.3868" width="51.9444" height="20.3704" rx="4" fill="#E3E7EB"/>
<path d="M92.0371 57.072L92.0337 56.2916L94.4853 53.8158C95.2622 53.0112 95.649 52.5658 95.6524 51.9443C95.649 51.2467 95.0827 50.8048 94.3403 50.8048C93.5564 50.8048 93.0558 51.2985 93.0558 52.0548H92.0337C92.0302 50.7599 93.0143 49.9035 94.361 49.9035C95.725 49.9035 96.6676 50.7668 96.6745 51.9132C96.6676 52.7039 96.2947 53.3358 94.9687 54.6376L93.5323 56.0983V56.1501H96.7885V57.072H92.0371ZM104.963 49.1577V54.2889H104.031V53.8676H102.325V53.284H104.031V49.1577H104.963ZM97.6598 52.3862C99.3552 52.3897 101.496 52.3724 103.381 52.1756L103.437 52.7695C102.608 52.8835 101.752 52.9525 100.913 52.9974V54.3096H99.9975V53.032C99.2102 53.0561 98.4505 53.0561 97.7668 53.0527L97.6598 52.3862ZM98.3124 50.6252C98.3124 49.8241 99.1791 49.3096 100.505 49.3096C101.807 49.3096 102.681 49.8241 102.687 50.6252C102.681 51.4436 101.807 51.9339 100.505 51.9339C99.1791 51.9339 98.3124 51.4436 98.3124 50.6252ZM98.9719 55.2316V54.5824H104.963V56.4712H99.9181V57.1445H105.225V57.8179H99.0065V55.8496H104.041V55.2316H98.9719ZM99.1895 50.6252C99.1826 51.043 99.6971 51.3124 100.505 51.3124C101.299 51.3124 101.814 51.043 101.814 50.6252C101.814 50.2074 101.299 49.9346 100.505 49.9346C99.6971 49.9346 99.1826 50.2074 99.1895 50.6252Z" fill="#09101D"/>
</g>
<g opacity="0.6">
<rect x="128.75" y="43.3868" width="51.9444" height="20.3704" rx="4" fill="#E3E7EB"/>
<path d="M150.413 57.1687C148.953 57.1687 147.91 56.3814 147.872 55.2246H148.959C148.997 55.8462 149.616 56.2433 150.403 56.2433C151.259 56.2433 151.881 55.7771 151.877 55.0934C151.881 54.3925 151.301 53.8918 150.285 53.8918H149.685V53.0147H150.285C151.093 53.0147 151.656 52.5658 151.656 51.889C151.656 51.2398 151.173 50.8048 150.427 50.8048C149.716 50.8048 149.084 51.1984 149.056 51.8372H148.02C148.055 50.6874 149.115 49.9035 150.437 49.9035C151.825 49.9035 152.703 50.784 152.696 51.8338C152.703 52.6314 152.205 53.2115 151.446 53.3945V53.4498C152.406 53.5845 152.968 54.2336 152.961 55.1314C152.968 56.3089 151.881 57.1687 150.413 57.1687ZM161.125 49.1577V54.2889H160.193V53.8676H158.487V53.284H160.193V49.1577H161.125ZM153.822 52.3862C155.517 52.3897 157.658 52.3724 159.544 52.1756L159.599 52.7695C158.77 52.8835 157.914 52.9525 157.075 52.9974V54.3096H156.16V53.032C155.372 53.0561 154.613 53.0561 153.929 53.0527L153.822 52.3862ZM154.475 50.6252C154.475 49.8241 155.341 49.3096 156.667 49.3096C157.969 49.3096 158.843 49.8241 158.85 50.6252C158.843 51.4436 157.969 51.9339 156.667 51.9339C155.341 51.9339 154.475 51.4436 154.475 50.6252ZM155.134 55.2316V54.5824H161.125V56.4712H156.08V57.1445H161.388V57.8179H155.169V55.8496H160.203V55.2316H155.134ZM155.352 50.6252C155.345 51.043 155.859 51.3124 156.667 51.3124C157.461 51.3124 157.976 51.043 157.976 50.6252C157.976 50.2074 157.461 49.9346 156.667 49.9346C155.859 49.9346 155.345 50.2074 155.352 50.6252Z" fill="#09101D"/>
</g>
<g filter="url(#filter11_dd_570_25971)">
<rect x="11.6211" y="128.452" width="260" height="20" rx="10" fill="#BE7346" shape-rendering="crispEdges"/>
<path d="M132.021 133.993V138.465H130.938V137.694H128.809V136.864H130.938V135.995H128.921C128.374 137.342 127.08 138.221 125.127 138.661L124.746 137.772C126.821 137.337 127.856 136.424 128.008 135.252H125.234V134.374H129.219C129.219 134.652 129.194 134.916 129.155 135.165H130.938V133.993H132.021ZM126.211 139.667V138.807H132.021V141.131H127.305V141.864H132.256V142.733H126.221V140.321H130.938V139.667H126.211ZM140.869 133.993V142.821H139.834V133.993H140.869ZM133.115 140.311C134.39 139.535 134.951 137.943 134.951 136.405V135.819H133.418V134.94H137.422V135.819H135.996V136.405C135.996 137.894 136.528 139.388 137.793 140.116L137.148 140.917C136.333 140.433 135.791 139.593 135.483 138.587C135.171 139.676 134.609 140.604 133.779 141.122L133.115 140.311ZM136.777 137.948V137.069H138.047V134.159H139.072V142.391H138.047V137.948H136.777ZM148.828 133.993V137.508H150.186V138.407H148.828V142.821H147.754V133.993H148.828ZM141.865 136.219V135.35H143.955V134.12H145.039V135.35H147.07V136.219H141.865ZM142.275 138.875C142.266 137.655 143.213 136.791 144.502 136.795C145.771 136.791 146.714 137.655 146.719 138.875C146.714 140.091 145.771 140.946 144.502 140.946C143.213 140.946 142.266 140.091 142.275 138.875ZM143.311 138.875C143.306 139.593 143.809 140.052 144.502 140.047C145.181 140.052 145.674 139.593 145.684 138.875C145.674 138.158 145.181 137.684 144.502 137.684C143.809 137.684 143.306 138.158 143.311 138.875ZM157.93 133.993V142.821H156.836V133.993H157.93ZM150.615 140.389C152.93 139.291 153.994 137.796 154.189 135.79H151.064V134.93H155.293C155.293 137.557 154.272 139.789 151.182 141.258L150.615 140.389Z" fill="white"/>
</g>
</g>
</g>
<defs>
<filter id="filter0_dd_570_25971" x="0" y="0.192383" width="295" height="172" filterUnits="userSpaceOnUse" color-interpolation-filters="sRGB">
<feFlood flood-opacity="0" result="BackgroundImageFix"/>
<feColorMatrix in="SourceAlpha" type="matrix" values="0 0 0 0 0 0 0 0 0 0 0 0 0 0 0 0 0 0 127 0" result="hardAlpha"/>
<feOffset dx="5" dy="5"/>
<feGaussianBlur stdDeviation="5"/>
<feComposite in2="hardAlpha" operator="out"/>
<feColorMatrix type="matrix" values="0 0 0 0 0.545098 0 0 0 0 0.54902 0 0 0 0 0.627451 0 0 0 0.25 0"/>
<feBlend mode="multiply" in2="BackgroundImageFix" result="effect1_dropShadow_570_25971"/>
<feColorMatrix in="SourceAlpha" type="matrix" values="0 0 0 0 0 0 0 0 0 0 0 0 0 0 0 0 0 0 127 0" result="hardAlpha"/>
<feOffset dx="2" dy="2"/>
<feGaussianBlur stdDeviation="2.5"/>
<feComposite in2="hardAlpha" operator="out"/>
<feColorMatrix type="matrix" values="0 0 0 0 0.545098 0 0 0 0 0.54902 0 0 0 0 0.627451 0 0 0 0.1 0"/>
<feBlend mode="multiply" in2="effect1_dropShadow_570_25971" result="effect2_dropShadow_570_25971"/>
<feBlend mode="normal" in="SourceGraphic" in2="effect2_dropShadow_570_25971" result="shape"/>
</filter>
<filter id="filter1_ddd_570_25971" x="14.6764" y="71.3961" width="88.611" height="115.24" filterUnits="userSpaceOnUse" color-interpolation-filters="sRGB">
<feFlood flood-opacity="0" result="BackgroundImageFix"/>
<feColorMatrix in="SourceAlpha" type="matrix" values="0 0 0 0 0 0 0 0 0 0 0 0 0 0 0 0 0 0 127 0" result="hardAlpha"/>
<feOffset dx="2.5463" dy="2.5463"/>
<feGaussianBlur stdDeviation="2.5463"/>
<feComposite in2="hardAlpha" operator="out"/>
<feColorMatrix type="matrix" values="0 0 0 0 0.545098 0 0 0 0 0.54902 0 0 0 0 0.627451 0 0 0 0.25 0"/>
<feBlend mode="multiply" in2="BackgroundImageFix" result="effect1_dropShadow_570_25971"/>
<feColorMatrix in="SourceAlpha" type="matrix" values="0 0 0 0 0 0 0 0 0 0 0 0 0 0 0 0 0 0 127 0" result="hardAlpha"/>
<feOffset dx="1.01852" dy="1.01852"/>
<feGaussianBlur stdDeviation="1.27315"/>
<feComposite in2="hardAlpha" operator="out"/>
<feColorMatrix type="matrix" values="0 0 0 0 0.545098 0 0 0 0 0.54902 0 0 0 0 0.627451 0 0 0 0.1 0"/>
<feBlend mode="multiply" in2="effect1_dropShadow_570_25971" result="effect2_dropShadow_570_25971"/>
<feColorMatrix in="SourceAlpha" type="matrix" values="0 0 0 0 0 0 0 0 0 0 0 0 0 0 0 0 0 0 127 0" result="hardAlpha"/>
<feOffset dx="-0.509259" dy="-0.509259"/>
<feGaussianBlur stdDeviation="0.509259"/>
<feComposite in2="hardAlpha" operator="out"/>
<feColorMatrix type="matrix" values="0 0 0 0 1 0 0 0 0 1 0 0 0 0 1 0 0 0 0.25 0"/>
<feBlend mode="soft-light" in2="effect2_dropShadow_570_25971" result="effect3_dropShadow_570_25971"/>
<feBlend mode="normal" in="SourceGraphic" in2="effect3_dropShadow_570_25971" result="shape"/>
</filter>
<filter id="filter2_ddd_570_25971" x="32.7337" y="98.3676" width="49.9012" height="49.9011" filterUnits="userSpaceOnUse" color-interpolation-filters="sRGB">
<feFlood flood-opacity="0" result="BackgroundImageFix"/>
<feColorMatrix in="SourceAlpha" type="matrix" values="0 0 0 0 0 0 0 0 0 0 0 0 0 0 0 0 0 0 127 0" result="hardAlpha"/>
<feOffset dx="1.31318" dy="1.31318"/>
<feGaussianBlur stdDeviation="1.31318"/>
<feComposite in2="hardAlpha" operator="out"/>
<feColorMatrix type="matrix" values="0 0 0 0 0.545098 0 0 0 0 0.54902 0 0 0 0 0.627451 0 0 0 0.25 0"/>
<feBlend mode="multiply" in2="BackgroundImageFix" result="effect1_dropShadow_570_25971"/>
<feColorMatrix in="SourceAlpha" type="matrix" values="0 0 0 0 0 0 0 0 0 0 0 0 0 0 0 0 0 0 127 0" result="hardAlpha"/>
<feOffset dx="0.525274" dy="0.525274"/>
<feGaussianBlur stdDeviation="0.656592"/>
<feComposite in2="hardAlpha" operator="out"/>
<feColorMatrix type="matrix" values="0 0 0 0 0.545098 0 0 0 0 0.54902 0 0 0 0 0.627451 0 0 0 0.1 0"/>
<feBlend mode="multiply" in2="effect1_dropShadow_570_25971" result="effect2_dropShadow_570_25971"/>
<feColorMatrix in="SourceAlpha" type="matrix" values="0 0 0 0 0 0 0 0 0 0 0 0 0 0 0 0 0 0 127 0" result="hardAlpha"/>
<feOffset dx="-0.262637" dy="-0.262637"/>
<feGaussianBlur stdDeviation="0.262637"/>
<feComposite in2="hardAlpha" operator="out"/>
<feColorMatrix type="matrix" values="0 0 0 0 1 0 0 0 0 1 0 0 0 0 1 0 0 0 0.25 0"/>
<feBlend mode="soft-light" in2="effect2_dropShadow_570_25971" result="effect3_dropShadow_570_25971"/>
<feBlend mode="normal" in="SourceGraphic" in2="effect3_dropShadow_570_25971" result="shape"/>
</filter>
<filter id="filter3_i_570_25971" x="43.2383" y="108.873" width="26.2656" height="27.3142" filterUnits="userSpaceOnUse" color-interpolation-filters="sRGB">
<feFlood flood-opacity="0" result="BackgroundImageFix"/>
<feBlend mode="normal" in="SourceGraphic" in2="BackgroundImageFix" result="shape"/>
<feColorMatrix in="SourceAlpha" type="matrix" values="0 0 0 0 0 0 0 0 0 0 0 0 0 0 0 0 0 0 127 0" result="hardAlpha"/>
<feOffset dy="1.05055"/>
<feGaussianBlur stdDeviation="0.525274"/>
<feComposite in2="hardAlpha" operator="arithmetic" k2="-1" k3="1"/>
<feColorMatrix type="matrix" values="0 0 0 0 0.545098 0 0 0 0 0.54902 0 0 0 0 0.627451 0 0 0 0.15 0"/>
<feBlend mode="normal" in2="shape" result="effect1_innerShadow_570_25971"/>
</filter>
<filter id="filter4_ddd_570_25971" x="100.743" y="71.3961" width="88.611" height="115.24" filterUnits="userSpaceOnUse" color-interpolation-filters="sRGB">
<feFlood flood-opacity="0" result="BackgroundImageFix"/>
<feColorMatrix in="SourceAlpha" type="matrix" values="0 0 0 0 0 0 0 0 0 0 0 0 0 0 0 0 0 0 127 0" result="hardAlpha"/>
<feOffset dx="2.5463" dy="2.5463"/>
<feGaussianBlur stdDeviation="2.5463"/>
<feComposite in2="hardAlpha" operator="out"/>
<feColorMatrix type="matrix" values="0 0 0 0 0.545098 0 0 0 0 0.54902 0 0 0 0 0.627451 0 0 0 0.25 0"/>
<feBlend mode="multiply" in2="BackgroundImageFix" result="effect1_dropShadow_570_25971"/>
<feColorMatrix in="SourceAlpha" type="matrix" values="0 0 0 0 0 0 0 0 0 0 0 0 0 0 0 0 0 0 127 0" result="hardAlpha"/>
<feOffset dx="1.01852" dy="1.01852"/>
<feGaussianBlur stdDeviation="1.27315"/>
<feComposite in2="hardAlpha" operator="out"/>
<feColorMatrix type="matrix" values="0 0 0 0 0.545098 0 0 0 0 0.54902 0 0 0 0 0.627451 0 0 0 0.1 0"/>
<feBlend mode="multiply" in2="effect1_dropShadow_570_25971" result="effect2_dropShadow_570_25971"/>
<feColorMatrix in="SourceAlpha" type="matrix" values="0 0 0 0 0 0 0 0 0 0 0 0 0 0 0 0 0 0 127 0" result="hardAlpha"/>
<feOffset dx="-0.509259" dy="-0.509259"/>
<feGaussianBlur stdDeviation="0.509259"/>
<feComposite in2="hardAlpha" operator="out"/>
<feColorMatrix type="matrix" values="0 0 0 0 1 0 0 0 0 1 0 0 0 0 1 0 0 0 0.25 0"/>
<feBlend mode="soft-light" in2="effect2_dropShadow_570_25971" result="effect3_dropShadow_570_25971"/>
<feBlend mode="normal" in="SourceGraphic" in2="effect3_dropShadow_570_25971" result="shape"/>
</filter>
<filter id="filter5_ddd_570_25971" x="118.722" y="98.3676" width="49.9012" height="49.9011" filterUnits="userSpaceOnUse" color-interpolation-filters="sRGB">
<feFlood flood-opacity="0" result="BackgroundImageFix"/>
<feColorMatrix in="SourceAlpha" type="matrix" values="0 0 0 0 0 0 0 0 0 0 0 0 0 0 0 0 0 0 127 0" result="hardAlpha"/>
<feOffset dx="1.31318" dy="1.31318"/>
<feGaussianBlur stdDeviation="1.31318"/>
<feComposite in2="hardAlpha" operator="out"/>
<feColorMatrix type="matrix" values="0 0 0 0 0.545098 0 0 0 0 0.54902 0 0 0 0 0.627451 0 0 0 0.25 0"/>
<feBlend mode="multiply" in2="BackgroundImageFix" result="effect1_dropShadow_570_25971"/>
<feColorMatrix in="SourceAlpha" type="matrix" values="0 0 0 0 0 0 0 0 0 0 0 0 0 0 0 0 0 0 127 0" result="hardAlpha"/>
<feOffset dx="0.525274" dy="0.525274"/>
<feGaussianBlur stdDeviation="0.656592"/>
<feComposite in2="hardAlpha" operator="out"/>
<feColorMatrix type="matrix" values="0 0 0 0 0.545098 0 0 0 0 0.54902 0 0 0 0 0.627451 0 0 0 0.1 0"/>
<feBlend mode="multiply" in2="effect1_dropShadow_570_25971" result="effect2_dropShadow_570_25971"/>
<feColorMatrix in="SourceAlpha" type="matrix" values="0 0 0 0 0 0 0 0 0 0 0 0 0 0 0 0 0 0 127 0" result="hardAlpha"/>
<feOffset dx="-0.262637" dy="-0.262637"/>
<feGaussianBlur stdDeviation="0.262637"/>
<feComposite in2="hardAlpha" operator="out"/>
<feColorMatrix type="matrix" values="0 0 0 0 1 0 0 0 0 1 0 0 0 0 1 0 0 0 0.25 0"/>
<feBlend mode="soft-light" in2="effect2_dropShadow_570_25971" result="effect3_dropShadow_570_25971"/>
<feBlend mode="normal" in="SourceGraphic" in2="effect3_dropShadow_570_25971" result="shape"/>
</filter>
<filter id="filter6_i_570_25971" x="129.227" y="108.873" width="26.2656" height="27.3142" filterUnits="userSpaceOnUse" color-interpolation-filters="sRGB">
<feFlood flood-opacity="0" result="BackgroundImageFix"/>
<feBlend mode="normal" in="SourceGraphic" in2="BackgroundImageFix" result="shape"/>
<feColorMatrix in="SourceAlpha" type="matrix" values="0 0 0 0 0 0 0 0 0 0 0 0 0 0 0 0 0 0 127 0" result="hardAlpha"/>
<feOffset dy="1.05055"/>
<feGaussianBlur stdDeviation="0.525274"/>
<feComposite in2="hardAlpha" operator="arithmetic" k2="-1" k3="1"/>
<feColorMatrix type="matrix" values="0 0 0 0 0.545098 0 0 0 0 0.54902 0 0 0 0 0.627451 0 0 0 0.15 0"/>
<feBlend mode="normal" in2="shape" result="effect1_innerShadow_570_25971"/>
</filter>
<filter id="filter7_ddd_570_25971" x="186.805" y="71.3961" width="88.611" height="115.24" filterUnits="userSpaceOnUse" color-interpolation-filters="sRGB">
<feFlood flood-opacity="0" result="BackgroundImageFix"/>
<feColorMatrix in="SourceAlpha" type="matrix" values="0 0 0 0 0 0 0 0 0 0 0 0 0 0 0 0 0 0 127 0" result="hardAlpha"/>
<feOffset dx="2.5463" dy="2.5463"/>
<feGaussianBlur stdDeviation="2.5463"/>
<feComposite in2="hardAlpha" operator="out"/>
<feColorMatrix type="matrix" values="0 0 0 0 0.545098 0 0 0 0 0.54902 0 0 0 0 0.627451 0 0 0 0.25 0"/>
<feBlend mode="multiply" in2="BackgroundImageFix" result="effect1_dropShadow_570_25971"/>
<feColorMatrix in="SourceAlpha" type="matrix" values="0 0 0 0 0 0 0 0 0 0 0 0 0 0 0 0 0 0 127 0" result="hardAlpha"/>
<feOffset dx="1.01852" dy="1.01852"/>
<feGaussianBlur stdDeviation="1.27315"/>
<feComposite in2="hardAlpha" operator="out"/>
<feColorMatrix type="matrix" values="0 0 0 0 0.545098 0 0 0 0 0.54902 0 0 0 0 0.627451 0 0 0 0.1 0"/>
<feBlend mode="multiply" in2="effect1_dropShadow_570_25971" result="effect2_dropShadow_570_25971"/>
<feColorMatrix in="SourceAlpha" type="matrix" values="0 0 0 0 0 0 0 0 0 0 0 0 0 0 0 0 0 0 127 0" result="hardAlpha"/>
<feOffset dx="-0.509259" dy="-0.509259"/>
<feGaussianBlur stdDeviation="0.509259"/>
<feComposite in2="hardAlpha" operator="out"/>
<feColorMatrix type="matrix" values="0 0 0 0 1 0 0 0 0 1 0 0 0 0 1 0 0 0 0.25 0"/>
<feBlend mode="soft-light" in2="effect2_dropShadow_570_25971" result="effect3_dropShadow_570_25971"/>
<feBlend mode="normal" in="SourceGraphic" in2="effect3_dropShadow_570_25971" result="shape"/>
</filter>
<filter id="filter8_ddd_570_25971" x="204.714" y="98.3676" width="49.9012" height="49.9011" filterUnits="userSpaceOnUse" color-interpolation-filters="sRGB">
<feFlood flood-opacity="0" result="BackgroundImageFix"/>
<feColorMatrix in="SourceAlpha" type="matrix" values="0 0 0 0 0 0 0 0 0 0 0 0 0 0 0 0 0 0 127 0" result="hardAlpha"/>
<feOffset dx="1.31318" dy="1.31318"/>
<feGaussianBlur stdDeviation="1.31318"/>
<feComposite in2="hardAlpha" operator="out"/>
<feColorMatrix type="matrix" values="0 0 0 0 0.545098 0 0 0 0 0.54902 0 0 0 0 0.627451 0 0 0 0.25 0"/>
<feBlend mode="multiply" in2="BackgroundImageFix" result="effect1_dropShadow_570_25971"/>
<feColorMatrix in="SourceAlpha" type="matrix" values="0 0 0 0 0 0 0 0 0 0 0 0 0 0 0 0 0 0 127 0" result="hardAlpha"/>
<feOffset dx="0.525274" dy="0.525274"/>
<feGaussianBlur stdDeviation="0.656592"/>
<feComposite in2="hardAlpha" operator="out"/>
<feColorMatrix type="matrix" values="0 0 0 0 0.545098 0 0 0 0 0.54902 0 0 0 0 0.627451 0 0 0 0.1 0"/>
<feBlend mode="multiply" in2="effect1_dropShadow_570_25971" result="effect2_dropShadow_570_25971"/>
<feColorMatrix in="SourceAlpha" type="matrix" values="0 0 0 0 0 0 0 0 0 0 0 0 0 0 0 0 0 0 127 0" result="hardAlpha"/>
<feOffset dx="-0.262637" dy="-0.262637"/>
<feGaussianBlur stdDeviation="0.262637"/>
<feComposite in2="hardAlpha" operator="out"/>
<feColorMatrix type="matrix" values="0 0 0 0 1 0 0 0 0 1 0 0 0 0 1 0 0 0 0.25 0"/>
<feBlend mode="soft-light" in2="effect2_dropShadow_570_25971" result="effect3_dropShadow_570_25971"/>
<feBlend mode="normal" in="SourceGraphic" in2="effect3_dropShadow_570_25971" result="shape"/>
</filter>
<filter id="filter9_i_570_25971" x="215.219" y="108.873" width="26.2656" height="27.3142" filterUnits="userSpaceOnUse" color-interpolation-filters="sRGB">
<feFlood flood-opacity="0" result="BackgroundImageFix"/>
<feBlend mode="normal" in="SourceGraphic" in2="BackgroundImageFix" result="shape"/>
<feColorMatrix in="SourceAlpha" type="matrix" values="0 0 0 0 0 0 0 0 0 0 0 0 0 0 0 0 0 0 127 0" result="hardAlpha"/>
<feOffset dy="1.05055"/>
<feGaussianBlur stdDeviation="0.525274"/>
<feComposite in2="hardAlpha" operator="arithmetic" k2="-1" k3="1"/>
<feColorMatrix type="matrix" values="0 0 0 0 0.545098 0 0 0 0 0.54902 0 0 0 0 0.627451 0 0 0 0.15 0"/>
<feBlend mode="normal" in2="shape" result="effect1_innerShadow_570_25971"/>
</filter>
<filter id="filter10_d_570_25971" x="13.7148" y="40.3868" width="61.9453" height="30.3704" filterUnits="userSpaceOnUse" color-interpolation-filters="sRGB">
<feFlood flood-opacity="0" result="BackgroundImageFix"/>
<feColorMatrix in="SourceAlpha" type="matrix" values="0 0 0 0 0 0 0 0 0 0 0 0 0 0 0 0 0 0 127 0" result="hardAlpha"/>
<feOffset dx="2" dy="2"/>
<feGaussianBlur stdDeviation="2.5"/>
<feComposite in2="hardAlpha" operator="out"/>
<feColorMatrix type="matrix" values="0 0 0 0 0.545098 0 0 0 0 0.54902 0 0 0 0 0.627451 0 0 0 0.25 0"/>
<feBlend mode="multiply" in2="BackgroundImageFix" result="effect1_dropShadow_570_25971"/>
<feBlend mode="normal" in="SourceGraphic" in2="effect1_dropShadow_570_25971" result="shape"/>
</filter>
<filter id="filter11_dd_570_25971" x="6.62109" y="123.452" width="280" height="40" filterUnits="userSpaceOnUse" color-interpolation-filters="sRGB">
<feFlood flood-opacity="0" result="BackgroundImageFix"/>
<feColorMatrix in="SourceAlpha" type="matrix" values="0 0 0 0 0 0 0 0 0 0 0 0 0 0 0 0 0 0 127 0" result="hardAlpha"/>
<feOffset dx="5" dy="5"/>
<feGaussianBlur stdDeviation="5"/>
<feComposite in2="hardAlpha" operator="out"/>
<feColorMatrix type="matrix" values="0 0 0 0 0.545098 0 0 0 0 0.54902 0 0 0 0 0.627451 0 0 0 0.25 0"/>
<feBlend mode="multiply" in2="BackgroundImageFix" result="effect1_dropShadow_570_25971"/>
<feColorMatrix in="SourceAlpha" type="matrix" values="0 0 0 0 0 0 0 0 0 0 0 0 0 0 0 0 0 0 127 0" result="hardAlpha"/>
<feOffset dx="2" dy="2"/>
<feGaussianBlur stdDeviation="2.5"/>
<feComposite in2="hardAlpha" operator="out"/>
<feColorMatrix type="matrix" values="0 0 0 0 0.545098 0 0 0 0 0.54902 0 0 0 0 0.627451 0 0 0 0.1 0"/>
<feBlend mode="multiply" in2="effect1_dropShadow_570_25971" result="effect2_dropShadow_570_25971"/>
<feBlend mode="normal" in="SourceGraphic" in2="effect2_dropShadow_570_25971" result="shape"/>
</filter>
<clipPath id="clip0_570_25971">
<rect x="5" y="5.19238" width="275" height="152" rx="12" fill="white"/>
</clipPath>
</defs>
</svg>
