<svg width="246" height="248" viewBox="0 0 246 248" fill="none" xmlns="http://www.w3.org/2000/svg">
<path d="M245.02 84.377C245.352 88.5401 244.787 92.2372 244.225 96.0328C244.046 97.2433 243.819 98.4404 243.543 99.6216C243.419 100.153 243.295 100.675 243.17 101.198C241.572 107.95 238.464 114.097 233.967 119.078C233.824 119.237 233.679 119.395 233.532 119.552C229.217 124.125 224.512 128.225 218.832 131.293C213.218 134.667 207.174 137.47 200.892 140.246C200.088 140.601 199.297 140.984 198.521 141.389C196.035 142.689 193.713 143.923 191.591 145.475C182.861 151.23 178.017 159.82 174.973 169.467C173.451 174.291 172.368 179.37 171.449 184.476C171.364 224.613 133.889 253.974 92.9802 245.85C91.3658 245.468 90.0386 244.812 88.4777 244.256C83.4874 242.261 78.9448 239.472 74.9059 235.716C68.0774 229.267 64.1431 221.528 61.2599 213.272C60.2988 210.52 59.4545 207.711 58.6589 204.873C56.3414 196.404 54.4411 187.358 47.9314 180.699C38.1673 170.711 25.5529 166.009 13.8923 157.877C-4.5688 145.027 -3.29629 120.714 9.88137 108.367C11.9483 106.288 14.0249 104.507 16.1539 102.55C27.1795 93.2323 42.2209 92.371 56.5348 89.242C65.0105 87.1994 72.5786 82.8113 75.9254 74.5911C83.1419 57.7796 87.9145 40.6312 99.4571 27.1263C101.054 25.0873 102.73 23.1177 104.486 21.2382C109.756 15.6019 115.75 10.7868 122.506 7.37437C125.208 6.0094 128.033 4.8695 130.98 3.99115C162.76 -6.83857 204.13 4.42424 225.443 37.1299C229.318 43.0764 232.959 49.1215 235.898 55.4609C238.265 60.6775 240.453 65.8174 242.181 71.4524C242.656 73.2225 243.183 74.8186 243.627 76.5838C244.363 79.4549 244.836 82.0741 245.02 84.3758V84.377Z" fill="#FFE8CE"/>
<path d="M74.6338 53.141C71.4769 57.725 67.371 60.8795 63.2542 62.2895C59.1374 63.6982 54.9756 63.3734 51.6934 61.0048C48.4111 58.6362 46.6264 54.6714 46.4282 50.1605C46.2311 45.6495 47.6508 40.5814 50.7883 36.0011C53.927 31.4208 58.2043 28.1908 62.5438 26.6884C66.8832 25.1872 71.2372 25.4305 74.5219 27.8015C77.8066 30.1726 79.4197 34.2127 79.4088 38.8113C79.3978 43.4098 77.7896 48.5559 74.6326 53.141H74.6338Z" fill="#FFE8CE"/>
<path d="M217.149 164.595C221.003 172.225 215.848 181.713 207.726 185.723C203.423 187.875 198.842 188.365 194.853 187.496C190.863 186.624 187.441 184.409 185.517 181.047C183.592 177.683 183.524 173.806 184.969 170.259C188.259 162.334 198.157 157.812 207.181 158.714C211.53 159.195 215.244 161.146 217.151 164.595H217.149Z" fill="#FFE8CE"/>
<mask id="mask0_914_985" style="mask-type:luminance" maskUnits="userSpaceOnUse" x="0" y="0" width="246" height="248">
<path d="M245.02 84.377C245.352 88.5401 244.787 92.2372 244.225 96.0328C244.046 97.2433 243.819 98.4404 243.543 99.6216C243.419 100.153 243.295 100.675 243.17 101.198C241.572 107.95 238.464 114.097 233.967 119.078C233.824 119.237 233.679 119.395 233.532 119.552C229.217 124.125 224.512 128.225 218.832 131.293C213.218 134.667 207.174 137.47 200.892 140.246C200.088 140.601 199.297 140.984 198.521 141.389C196.035 142.689 193.713 143.923 191.591 145.475C182.861 151.23 178.017 159.82 174.973 169.467C173.451 174.291 172.368 179.37 171.449 184.476C171.364 224.613 133.889 253.974 92.9802 245.85C91.3658 245.468 90.0386 244.812 88.4777 244.256C83.4874 242.261 78.9448 239.472 74.9059 235.716C68.0774 229.267 64.1431 221.528 61.2599 213.272C60.2988 210.52 59.4545 207.711 58.6589 204.873C56.3414 196.404 54.4411 187.358 47.9314 180.699C38.1673 170.711 25.5529 166.009 13.8923 157.877C-4.5688 145.027 -3.29629 120.714 9.88137 108.367C11.9483 106.288 14.0249 104.507 16.1539 102.55C27.1795 93.2323 42.2209 92.371 56.5348 89.242C65.0105 87.1994 72.5786 82.8113 75.9254 74.5911C83.1419 57.7796 87.9145 40.6312 99.4571 27.1263C101.054 25.0873 102.73 23.1177 104.486 21.2382C109.756 15.6019 115.75 10.7868 122.506 7.37437C125.208 6.0094 128.033 4.8695 130.98 3.99115C162.76 -6.83857 204.13 4.42424 225.443 37.1299C229.318 43.0764 232.959 49.1215 235.898 55.4609C238.265 60.6775 240.453 65.8174 242.181 71.4524C242.656 73.2225 243.183 74.8186 243.627 76.5838C244.363 79.4549 244.836 82.0741 245.02 84.3758V84.377ZM79.4083 38.8112C79.4193 34.2127 77.8049 30.1725 74.5215 27.8014C71.2368 25.4304 66.8828 25.1859 62.5433 26.6883C58.2039 28.1895 53.9265 31.4207 50.7878 36.001C47.6491 40.5813 46.2306 45.6494 46.4277 50.1604C46.6248 54.6714 48.4095 58.6361 51.6929 61.0047C54.9764 63.3733 59.137 63.6982 63.2538 62.2894C67.3706 60.8806 71.4765 57.7261 74.6334 53.1409C77.7903 48.557 79.3986 43.4098 79.4096 38.8112H79.4083ZM207.178 158.715C198.154 157.812 188.257 162.333 184.966 170.261C183.522 173.806 183.59 177.684 185.513 181.048C187.438 184.411 190.859 186.626 194.849 187.497C198.838 188.368 203.42 187.877 207.723 185.724C215.846 181.713 221 172.226 217.146 164.596C215.24 161.149 211.526 159.196 207.176 158.715H207.178Z" fill="white"/>
</mask>
<g mask="url(#mask0_914_985)">
<g style="mix-blend-mode:multiply" opacity="0.3">
<path d="M187.403 44.3477H84.2874C75.8767 44.3477 69.0586 51.1658 69.0586 59.5764V185.638C69.0586 194.048 75.8767 200.866 84.2874 200.866H187.403C195.814 200.866 202.632 194.048 202.632 185.638V59.5764C202.632 51.1658 195.814 44.3477 187.403 44.3477Z" fill="#FF8F43"/>
</g>
</g>
<path d="M177.052 34.1992H73.9358C65.5252 34.1992 58.707 41.0174 58.707 49.428V175.489C58.707 183.9 65.5252 190.718 73.9358 190.718H177.052C185.462 190.718 192.28 183.9 192.28 175.489V49.428C192.28 41.0174 185.462 34.1992 177.052 34.1992Z" fill="#F4F6F9"/>
<path d="M92.6328 148.666H162.002" stroke="#E3E7EB" stroke-width="5.34187" stroke-miterlimit="10" stroke-linecap="square"/>
<path d="M103.738 160.147H150.895" stroke="#E3E7EB" stroke-width="5.34187" stroke-miterlimit="10" stroke-linecap="square"/>
<path d="M127.145 122.131C143.09 122.131 156.016 109.205 156.016 93.2598C156.016 77.3147 143.09 64.3887 127.145 64.3887C111.199 64.3887 98.2734 77.3147 98.2734 93.2598C98.2734 109.205 111.199 122.131 127.145 122.131Z" stroke="#E3E7EB" stroke-width="7.19589" stroke-miterlimit="10" stroke-linecap="round"/>
<path d="M114.473 93.26L124.248 103.034L160.955 64.3877" stroke="#FF8F43" stroke-width="7.19589" stroke-miterlimit="10" stroke-linecap="square"/>
</svg>
