<svg width="255" height="247" viewBox="0 0 255 247" fill="none" xmlns="http://www.w3.org/2000/svg">
<path d="M221.181 223.943C215.356 228.242 209.415 232.309 203.132 235.679C197.96 238.399 192.854 240.933 187.217 243.028C185.442 243.616 183.847 244.248 182.075 244.805C179.194 245.727 176.555 246.363 174.22 246.687C169.998 247.273 166.2 246.918 162.299 246.573C161.056 246.462 159.822 246.301 158.603 246.091C158.054 245.996 157.515 245.902 156.974 245.806C150.002 244.58 143.555 241.783 138.214 237.501C138.044 237.363 137.874 237.226 137.705 237.086C132.789 232.965 128.333 228.421 124.869 222.819C121.099 217.303 117.884 211.318 114.682 205.088C114.272 204.29 113.835 203.507 113.376 202.742C111.905 200.289 110.508 197.999 108.801 195.929C102.42 187.385 93.3802 182.965 83.3725 180.439C78.3687 179.177 73.1302 178.377 67.8744 177.745C26.9834 180.048 -5.15493 143.643 0.683092 101.511C0.97729 99.8435 1.56444 98.4539 2.03864 96.8324C3.77403 91.6328 6.34361 86.8427 9.92984 82.5054C16.0931 75.1706 23.7422 70.7043 31.9798 67.2764C34.7256 66.135 37.5373 65.1077 40.3812 64.1289C48.8695 61.2654 57.971 58.7916 64.3664 51.7682C73.9582 41.2339 77.9963 28.1103 85.5846 15.7559C97.5747 -3.80425 122.418 -3.95561 135.778 8.72509C138.02 10.7064 139.957 12.715 142.079 14.7658C151.698 24.8796 153.791 39.1186 157.423 52.8265C157.623 53.5808 157.828 54.3327 158.039 55.0833C160.625 63.5916 165.546 71.0343 174.118 73.9536C190.344 79.8194 206.738 83.5413 220.533 92.7159C221.664 93.4678 222.776 94.2556 223.87 95.0843C226.042 96.5892 228.148 98.1785 230.166 99.8546C236.221 104.884 241.483 110.699 245.361 117.375C246.913 120.045 248.242 122.851 249.313 125.802C262.236 157.511 253.228 200.299 221.181 223.943Z" fill="#FFE8CE"/>
<path d="M221.7 69.7387C221.124 70.6432 220.426 71.4397 219.627 72.1282C217.349 74.0922 214.244 75.1753 210.776 75.37C206.091 75.6331 200.753 74.3018 195.895 71.3615C191.037 68.4199 187.579 64.4275 185.898 60.3197C184.217 56.2119 184.301 51.9565 186.519 48.474C186.531 48.4554 186.544 48.4355 186.556 48.4169C188.779 44.9679 192.693 42.9345 197.251 42.468C201.836 41.999 207.083 43.1429 211.935 46.0646C216.788 48.9864 220.333 53.15 222.12 57.4774C223.909 61.806 223.92 66.2537 221.7 69.7387Z" fill="#FFE8CE"/>
<path d="M90.8496 223.085C83.3072 227.462 73.3355 222.78 68.7661 214.749C66.317 210.497 65.5448 205.861 66.1941 201.749C66.8433 197.636 68.8965 194.019 72.2071 191.861C75.519 189.702 79.4652 189.402 83.162 190.661C91.4318 193.538 96.628 203.347 96.2444 212.587C96.0136 217.043 94.2471 220.94 90.8483 223.087L90.8496 223.085Z" fill="#FFE8CE"/>
<g style="mix-blend-mode:multiply" opacity="0.5">
<path d="M185.898 60.3198C184.217 56.212 184.301 51.9566 186.519 48.4741C186.531 48.4555 186.544 48.4356 186.556 48.417L187.913 48.211C191.453 47.6751 195.099 50.4368 196.057 54.3796L197.369 59.7801L212.525 57.4849C216.066 56.949 219.064 59.429 219.224 63.0244L219.627 72.1283C217.349 74.0923 214.244 75.1754 210.776 75.3701C206.091 75.6332 200.753 74.3019 195.895 71.3616C191.037 68.42 187.579 64.4276 185.898 60.3198Z" fill="#FFC98D"/>
</g>
<g style="mix-blend-mode:multiply" opacity="0.5">
<path d="M216.94 157.4L214.526 157.766L83.9146 177.54C80.3743 178.076 76.7272 175.314 75.7702 171.373L56.5604 92.2997C55.6021 88.3569 57.6962 84.7255 61.2365 84.1896L116.101 75.8834C118.166 75.5708 119.834 74.1726 120.585 72.1242L124.717 60.8604C125.468 58.812 127.137 57.4126 129.2 57.1L157.426 52.8271C157.625 53.5815 157.83 54.3333 158.041 55.0839C160.627 63.5923 165.548 71.0349 174.12 73.9542C190.346 79.82 206.74 83.542 220.535 92.7166L223.064 149.919C223.223 153.515 220.481 156.864 216.94 157.4Z" fill="#FFC98D"/>
</g>
<path d="M114.159 50.3097L110.026 61.5735C109.275 63.6219 107.607 65.0201 105.544 65.3327L50.6779 73.6389C47.1376 74.1748 45.0435 77.805 46.0018 81.7478L65.2116 160.821C66.1699 164.763 69.8157 167.525 73.3572 166.989L203.969 147.216C207.509 146.68 209.603 143.05 208.645 139.107L185.499 43.8298C184.54 39.887 180.895 37.1253 177.354 37.6612L118.644 46.5493C116.581 46.8619 114.912 48.2614 114.161 50.3084L114.159 50.3097Z" fill="#F69931"/>
<path d="M138.173 59.3215L131.962 69.6834C130.832 71.5668 128.94 72.8694 126.876 73.1808L72.011 81.487C68.4707 82.023 65.7285 85.3727 65.8874 88.9681L69.0752 161.083C69.2341 164.679 72.2332 167.16 75.7735 166.624L206.385 146.851C209.925 146.315 212.667 142.965 212.508 139.37L208.668 52.4756C208.509 48.8802 205.51 46.4001 201.969 46.9361L143.259 55.8241C141.196 56.1368 139.303 57.4382 138.173 59.3215Z" fill="#FFB25C"/>
<path d="M140.619 179.211V189.082H195.643V179.211" stroke="#FFB25C" stroke-width="8.01142" stroke-miterlimit="10" stroke-linecap="square"/>
<path d="M191.079 151.236L168.134 174.17L145.188 151.236" stroke="white" stroke-width="8.01142" stroke-miterlimit="10" stroke-linecap="square"/>
<path d="M168.131 171.349V121.39" stroke="white" stroke-width="8.01142" stroke-miterlimit="10" stroke-linecap="square"/>
</svg>
