<svg width="382" height="178" viewBox="0 0 382 178" fill="none" xmlns="http://www.w3.org/2000/svg">
<path d="M1 142H381" stroke="#B1B7BD" stroke-linecap="round"/>
<path d="M74 38C74 33.5817 77.5817 30 82 30H84C88.4183 30 92 33.5817 92 38V142H74V38Z" fill="#B1B7BD"/>
<path d="M42.6033 166.48V168.477C43.6765 168.414 44.7594 168.317 45.7794 168.162L45.8954 169.289C43.1302 169.801 40.1668 169.83 37.9817 169.83L37.798 168.588C38.76 168.588 39.8961 168.583 41.0902 168.544V166.48H42.6033ZM38.0881 165.721C39.9444 165.213 40.9693 163.99 41.0563 162.603H38.4506V161.375H41.0902V159.963H42.6033V161.375H45.2718V162.603H42.6226C42.7145 163.927 43.7587 165.112 45.615 165.586L44.9189 166.77C43.4589 166.374 42.4099 165.523 41.8491 164.425C41.3077 165.581 40.278 166.475 38.8035 166.876L38.0881 165.721ZM46.5142 172.238V159.862H48.0321V172.238H46.5142ZM60.2091 159.862V172.238H58.6815V165.474H56.3079V164.232H58.6815V159.862H60.2091ZM49.6753 168.67C51.6525 167.742 52.8224 165.402 52.8272 163.144V162.313H50.1829V161.08H57.033V162.313H54.379V163.144C54.3742 165.276 55.5344 167.534 57.5213 168.409L56.6221 169.613C55.1863 168.931 54.1614 167.563 53.62 165.929C53.0786 167.674 52.0247 169.144 50.5841 169.869L49.6753 168.67ZM71.6174 159.862V164.686H73.4496V165.948H71.6174V172.189H70.0946V159.862H71.6174ZM61.8764 168.815C64.8833 167.307 66.5076 165.209 66.8073 162.395H62.5338V161.143H68.3543C68.3446 164.773 66.8412 167.964 62.732 169.985L61.8764 168.815ZM87.1553 159.872V163.473H88.8231V164.725H87.1553V168.225H85.6325V159.872H87.1553ZM77.2499 166.746C78.1781 166.746 79.2465 166.741 80.3632 166.712V165.948C78.9903 165.779 78.1201 165.122 78.1298 164.145C78.1201 163.014 79.3141 162.308 81.1077 162.313C82.906 162.308 84.0856 163.014 84.0952 164.145C84.0856 165.112 83.2347 165.769 81.8811 165.943V166.659C82.9398 166.606 84.0034 166.519 84.9944 166.388L85.1056 167.452C82.4806 167.911 79.5897 167.935 77.4143 167.94L77.2499 166.746ZM77.569 161.965V160.848H80.3632V159.765H81.8811V160.848H84.6657V161.965H77.569ZM78.8017 169.941V168.757H87.1553V172.209H85.6325V169.941H78.8017ZM79.5849 164.145C79.5752 164.662 80.1456 164.981 81.1077 164.977C82.0648 164.981 82.6353 164.662 82.6353 164.145C82.6353 163.613 82.0648 163.338 81.1077 163.338C80.1456 163.338 79.5752 163.613 79.5849 164.145ZM99.748 159.872V168.8H98.2252V159.872H99.748ZM89.6831 163.768C89.6783 161.97 91.1334 160.684 93.0139 160.684C94.8944 160.684 96.3399 161.97 96.3399 163.768C96.3399 165.595 94.8944 166.872 93.0139 166.867C91.1334 166.872 89.6783 165.595 89.6831 163.768ZM91.1672 163.768C91.1624 164.865 91.9552 165.542 93.0139 165.542C94.0436 165.542 94.8461 164.865 94.8461 163.768C94.8461 162.7 94.0436 162.008 93.0139 162.008C91.9552 162.008 91.1624 162.7 91.1672 163.768ZM91.5733 171.977V167.892H93.1057V170.744H100.096V171.977H91.5733ZM109.552 162.83C109.543 165.093 110.737 167.365 112.743 168.225L111.839 169.443C110.423 168.786 109.378 167.476 108.803 165.861C108.242 167.602 107.179 169.028 105.68 169.729L104.752 168.462C106.802 167.573 108.006 165.209 108.015 162.83V160.853H109.552V162.83ZM113.633 172.238V159.862H115.165V172.238H113.633ZM126.733 159.862V163.415H128.459V164.677H126.733V168.771H125.191V159.862H126.733ZM116.934 166.287C119.767 165.465 121.444 163.927 121.705 162.042H117.461V160.795H123.373C123.368 164.082 121.227 166.422 117.572 167.495L116.934 166.287ZM118.795 171.977V167.863H120.328V170.744H127.197V171.977H118.795Z" fill="#09101D"/>
<path d="M70.896 17.1354C68.7835 17.1354 67.2752 15.9848 67.2268 14.3122H69.0252C69.0687 15.1146 69.8615 15.6367 70.8912 15.6367C71.9838 15.6367 72.7717 15.0373 72.7669 14.1623C72.7717 13.268 72.0031 12.6298 70.7123 12.6298H69.8325V11.2569H70.7123C71.7662 11.2569 72.501 10.672 72.501 9.80663C72.501 8.97514 71.8726 8.41436 70.9154 8.41436C69.9775 8.41436 69.1751 8.93646 69.1412 9.76312H67.4347C67.4734 8.10497 68.9817 6.96409 70.9251 6.96409C72.9264 6.96409 74.2268 8.19199 74.2172 9.70511C74.2268 10.8218 73.492 11.6195 72.4043 11.8467V11.924C73.8063 12.1126 74.5991 13.0069 74.5894 14.2541C74.5991 15.922 73.0376 17.1354 70.896 17.1354ZM80.404 8.83011C80.3944 11.0925 81.5884 13.3646 83.5947 14.2251L82.6906 15.4434C81.2742 14.7859 80.23 13.4758 79.6547 11.8612C79.094 13.6015 78.0304 15.0276 76.5318 15.7286L75.6036 14.462C77.6534 13.5725 78.8571 11.2086 78.8668 8.83011V6.8529H80.404V8.83011ZM84.4842 18.2376V5.86188H86.0166V18.2376H84.4842ZM97.5845 5.86188V9.41506H99.3103V10.6768H97.5845V14.7714H96.0423V5.86188H97.5845ZM87.7854 12.2866C90.6183 11.4648 92.2958 9.92749 92.5568 8.04213H88.3124V6.79489H94.2246C94.2198 10.0822 92.0782 12.422 88.4235 13.4952L87.7854 12.2866ZM89.6466 17.9765V13.8626H91.1791V16.7438H98.0485V17.9765H89.6466Z" fill="#798087"/>
<path d="M202 75C202 70.5817 205.582 67 210 67H212C216.418 67 220 70.5817 220 75V142H202V75Z" fill="#798087"/>
<path d="M195.009 57L195.004 55.7093L198.5 52.3398C199.5 51.3391 200.022 50.7493 200.027 49.9227C200.022 48.9945 199.292 48.4144 198.321 48.4144C197.306 48.4144 196.648 49.0525 196.653 50.058H194.961C194.951 48.1823 196.358 46.9641 198.345 46.9641C200.361 46.9641 201.724 48.1727 201.729 49.8308C201.724 50.9523 201.187 51.8564 199.239 53.6934L197.484 55.4385V55.511H201.879V57H195.009ZM207.699 48.8301C207.689 51.0925 208.883 53.3646 210.89 54.2251L209.986 55.4434C208.569 54.7859 207.525 53.4758 206.95 51.8612C206.389 53.6015 205.325 55.0276 203.827 55.7286L202.899 54.462C204.948 53.5725 206.152 51.2086 206.162 48.8301V46.8529H207.699V48.8301ZM211.779 58.2376V45.8619H213.312V58.2376H211.779ZM224.879 45.8619V49.4151H226.605V50.6768H224.879V54.7714H223.337V45.8619H224.879ZM215.08 52.2866C217.913 51.4648 219.591 49.9275 219.852 48.0421H215.607V46.7949H221.52C221.515 50.0822 219.373 52.422 215.718 53.4952L215.08 52.2866ZM216.942 57.9765V53.8626H218.474V56.7438H225.343V57.9765H216.942Z" fill="#798087"/>
<path d="M182.512 159.862V172.209H181.052V165.948H179.791V171.619H178.355V160.075H179.791V164.696H181.052V159.862H182.512ZM171.577 168.622C173.419 167.587 174.154 165.426 174.154 163.019V162.429H171.954V161.206H177.654V162.429H175.628V163.019C175.628 165.213 176.368 167.239 178.2 168.186L177.32 169.347C176.136 168.713 175.362 167.626 174.922 166.282C174.507 167.819 173.738 169.057 172.52 169.782L171.577 168.622ZM193.974 160.988V162.177C193.969 163.715 193.969 165.436 193.49 168.017L191.953 167.853C192.436 165.455 192.441 163.7 192.446 162.211H185.064V160.988H193.974ZM183.889 170.623V169.376H188.047V165.078H189.555V169.376H195.148V170.623H183.889ZM206.21 160.776V161.51C206.2 162.352 206.2 163.584 205.91 165.146L204.411 165.01C204.658 163.734 204.706 162.787 204.721 162.028H199.916V160.776H206.21ZM199.181 166.127C199.906 166.127 200.723 166.122 201.588 166.103V163.594H203.097V166.055C204.378 166.001 205.688 165.905 206.891 165.731L206.974 166.833C204.402 167.292 201.477 167.34 199.316 167.345L199.181 166.127ZM201.023 171.977V168.288H202.55V170.744H209.56V171.977H201.023ZM207.617 169.119V159.862H209.164V163.71H210.764V164.986H209.164V169.119H207.617ZM221.708 159.862V172.238H220.195V159.862H221.708ZM212.083 162.168V160.935H217.903V165.571H213.659V168.056C215.602 168.046 217.28 167.95 219.209 167.626L219.344 168.868C217.241 169.231 215.394 169.308 213.175 169.308H212.093V164.363H216.356V162.168H212.083ZM231.503 162.83C231.493 165.093 232.687 167.365 234.693 168.225L233.789 169.443C232.373 168.786 231.329 167.476 230.753 165.861C230.193 167.602 229.129 169.028 227.63 169.729L226.702 168.462C228.752 167.573 229.956 165.209 229.965 162.83V160.853H231.503V162.83ZM235.583 172.238V159.862H237.115V172.238H235.583ZM248.683 159.862V163.415H250.409V164.677H248.683V168.771H247.141V159.862H248.683ZM238.884 166.287C241.717 165.465 243.394 163.927 243.655 162.042H239.411V160.795H245.323C245.318 164.082 243.177 166.422 239.522 167.495L238.884 166.287ZM240.745 171.977V167.863H242.278V170.744H249.147V171.977H240.745Z" fill="#09101D"/>
<path d="M310 75C310 70.5817 313.582 67 318 67H320C324.418 67 328 70.5817 328 75V142H310V75Z" fill="#E3E7EB"/>
<path d="M304.009 57L304.004 55.7093L307.5 52.3398C308.5 51.3391 309.022 50.7493 309.027 49.9227C309.022 48.9945 308.292 48.4144 307.321 48.4144C306.306 48.4144 305.648 49.0525 305.653 50.058H303.961C303.951 48.1823 305.358 46.9641 307.345 46.9641C309.361 46.9641 310.724 48.1727 310.729 49.8308C310.724 50.9523 310.187 51.8564 308.239 53.6934L306.484 55.4385V55.511H310.879V57H304.009ZM316.699 48.8301C316.689 51.0925 317.883 53.3646 319.89 54.2251L318.986 55.4434C317.569 54.7859 316.525 53.4758 315.95 51.8612C315.389 53.6015 314.325 55.0276 312.827 55.7286L311.899 54.462C313.948 53.5725 315.152 51.2086 315.162 48.8301V46.8529H316.699V48.8301ZM320.779 58.2376V45.8619H322.312V58.2376H320.779ZM333.879 45.8619V49.4151H335.605V50.6768H333.879V54.7714H332.337V45.8619H333.879ZM324.08 52.2866C326.913 51.4648 328.591 49.9275 328.852 48.0421H324.607V46.7949H330.52C330.515 50.0822 328.373 52.422 324.718 53.4952L324.08 52.2866ZM325.942 57.9765V53.8626H327.474V56.7438H334.343V57.9765H325.942Z" fill="#798087"/>
<path d="M303.292 160.611V161.713C303.292 162.869 303.292 164.135 302.963 165.881H304.67V167.118H299.763V172.228H298.231V167.118H293.411V165.881H301.426C301.765 164.198 301.779 162.941 301.779 161.834H294.745V160.611H303.292ZM316.17 159.862V172.209H314.71V165.881H313.395V171.619H311.955V160.075H313.395V164.633H314.71V159.862H316.17ZM305.892 169.032V161.196H310.746V169.032H305.892ZM307.319 167.834H309.32V162.395H307.319V167.834ZM325.602 162.83C325.593 165.093 326.787 167.365 328.793 168.225L327.889 169.443C326.472 168.786 325.428 167.476 324.853 165.861C324.292 167.602 323.229 169.028 321.73 169.729L320.802 168.462C322.852 167.573 324.055 165.209 324.065 162.83V160.853H325.602V162.83ZM329.682 172.238V159.862H331.215V172.238H329.682ZM342.783 159.862V163.415H344.509V164.677H342.783V168.771H341.241V159.862H342.783ZM332.984 166.287C335.817 165.465 337.494 163.927 337.755 162.042H333.511V160.795H339.423C339.418 164.082 337.276 166.422 333.622 167.495L332.984 166.287ZM334.845 171.977V167.863H336.377V170.744H343.247V171.977H334.845Z" fill="#09101D"/>
</svg>
