<svg width="315" height="181" viewBox="0 0 315 181" fill="none" xmlns="http://www.w3.org/2000/svg">
<g filter="url(#filter0_dd_189_8717)">
<rect x="5" y="5.35693" width="295" height="160" rx="12" fill="white"/>
<path d="M68.8692 35.4536C68.3881 35.4536 67.9565 35.3719 67.5743 35.2085C67.1945 35.045 66.8941 34.816 66.6731 34.5213C66.4544 34.2266 66.3393 33.8894 66.3278 33.5096H67.4155C67.427 33.7121 67.4972 33.8905 67.6261 34.0448C67.7573 34.199 67.93 34.3187 68.1441 34.4039C68.3582 34.4868 68.5964 34.5282 68.8589 34.5282C69.142 34.5282 69.3952 34.4799 69.6185 34.3832C69.8441 34.2865 70.0191 34.1507 70.1434 33.9757C70.27 33.8008 70.3333 33.6016 70.3333 33.3783C70.3356 33.1435 70.2734 32.9352 70.1468 32.7533C70.0225 32.5715 69.8395 32.4299 69.5978 32.3286C69.3584 32.2273 69.0729 32.1767 68.7414 32.1767H68.1406V31.2996H68.7414C69.0085 31.2996 69.2456 31.2536 69.4528 31.1615C69.66 31.0671 69.8211 30.9347 69.9362 30.7644C70.0536 30.594 70.1123 30.3972 70.1123 30.1739C70.1123 29.9598 70.0617 29.7711 69.9604 29.6076C69.8591 29.4419 69.7152 29.3141 69.5287 29.2243C69.3446 29.1346 69.1293 29.0897 68.883 29.0897C68.6436 29.0897 68.4203 29.1323 68.2131 29.2174C68.0083 29.3003 67.8425 29.42 67.7159 29.5765C67.5893 29.7331 67.5214 29.9149 67.5122 30.1221H66.4763C66.4878 29.7469 66.6017 29.4131 66.8181 29.1207C67.0345 28.8261 67.3246 28.597 67.6883 28.4336C68.052 28.2701 68.4537 28.1884 68.8934 28.1884C69.3423 28.1884 69.7382 28.2759 70.0812 28.4509C70.4265 28.6235 70.6913 28.8572 70.8754 29.1518C71.0619 29.4442 71.154 29.7665 71.1517 30.1187C71.154 30.3811 71.1033 30.6194 70.9997 30.8335C70.8984 31.0475 70.7534 31.2271 70.5647 31.3721C70.3759 31.5149 70.1549 31.6173 69.9017 31.6794V31.7347C70.217 31.7784 70.4887 31.8763 70.7166 32.0282C70.9468 32.1801 71.1217 32.3747 71.2414 32.6118C71.3612 32.8489 71.4199 33.1171 71.4176 33.4163C71.4199 33.8031 71.3105 34.1518 71.0895 34.4626C70.8708 34.7711 70.567 35.0139 70.1779 35.1912C69.7889 35.3661 69.3526 35.4536 68.8692 35.4536ZM75.5135 29.6629C75.5111 30.19 75.6078 30.7091 75.8035 31.2202C76.0015 31.7312 76.2766 32.1847 76.6288 32.5807C76.981 32.9766 77.3804 33.2724 77.827 33.4681L77.2676 34.2071C76.7704 33.97 76.3295 33.6189 75.9451 33.1539C75.5606 32.6866 75.2648 32.1502 75.0576 31.5448C74.8528 32.194 74.5547 32.7683 74.1633 33.2678C73.772 33.7674 73.3185 34.1426 72.8028 34.3935L72.2296 33.6201C72.6808 33.4175 73.0848 33.1113 73.4416 32.7015C73.7984 32.2918 74.077 31.821 74.2773 31.2893C74.4775 30.7575 74.5788 30.2154 74.5811 29.6629V28.1643H75.5135V29.6629ZM78.6177 27.4357H79.5501V36.2029H78.6177V27.4357ZM87.8197 30.022H89.087V30.7989H87.8197V33.7962H86.8805V27.4357H87.8197V30.022ZM80.9343 32.0938C81.6157 31.8889 82.2074 31.6265 82.7092 31.3065C83.2133 30.9865 83.6116 30.6205 83.904 30.2085C84.1986 29.7941 84.3759 29.3486 84.4357 28.8721H81.3004V28.1021H85.444C85.444 28.8572 85.2794 29.5455 84.9502 30.167C84.6233 30.7863 84.1514 31.3215 83.5345 31.7727C82.9198 32.2216 82.1843 32.5749 81.328 32.8328L80.9343 32.0938ZM82.2638 33.1435H83.1961V35.2464H88.1823V36.0061H82.2638V33.1435Z" fill="#798087"/>
<path d="M72.5 49.0479C72.5 46.4572 74.6002 44.3569 77.191 44.3569H77.809C80.3998 44.3569 82.5 46.4572 82.5 49.0479V101.357H72.5V49.0479Z" fill="#B1B7BD"/>
<path d="M66.4641 117.483V119.194C67.384 119.14 68.3121 119.057 69.1865 118.925L69.2859 119.89C66.9157 120.329 64.3757 120.354 62.5028 120.354L62.3453 119.289C63.1699 119.289 64.1436 119.285 65.1671 119.252V117.483H66.4641ZM62.5939 116.832C64.1851 116.397 65.0635 115.349 65.1381 114.159H62.9047V113.107H65.1671V111.897H66.4641V113.107H68.7514V114.159H66.4807C66.5594 115.295 67.4544 116.31 69.0456 116.716L68.4489 117.731C67.1975 117.391 66.2983 116.662 65.8177 115.722C65.3536 116.712 64.471 117.478 63.2072 117.822L62.5939 116.832ZM69.8163 122.418V111.81H71.1174V122.418H69.8163ZM81.5548 111.81V122.418H80.2454V116.621H78.2109V115.556H80.2454V111.81H81.5548ZM72.5258 119.36C74.2205 118.564 75.2233 116.559 75.2274 114.624V113.911H72.9609V112.854H78.8324V113.911H76.5575V114.624C76.5534 116.451 77.5479 118.386 79.2509 119.136L78.4802 120.168C77.2495 119.583 76.3711 118.411 75.907 117.01C75.4429 118.506 74.5396 119.766 73.3048 120.387L72.5258 119.36ZM91.3333 111.81V115.945H92.9038V117.027H91.3333V122.376H90.0281V111.81H91.3333ZM82.9839 119.484C85.5612 118.191 86.9535 116.393 87.2104 113.981H83.5474V112.908H88.5364C88.5281 116.02 87.2394 118.755 83.7173 120.487L82.9839 119.484ZM64.0812 131.818V134.905H65.5108V135.978H64.0812V138.978H62.776V131.818H64.0812ZM55.5909 137.711C56.3865 137.711 57.3022 137.706 58.2594 137.682V137.027C57.0826 136.882 56.3367 136.318 56.345 135.481C56.3367 134.512 57.3602 133.907 58.8975 133.911C60.439 133.907 61.45 134.512 61.4583 135.481C61.45 136.31 60.7207 136.874 59.5605 137.023V137.636C60.468 137.59 61.3796 137.516 62.229 137.404L62.3243 138.315C60.0743 138.709 57.5964 138.73 55.7318 138.734L55.5909 137.711ZM55.8644 133.612V132.655H58.2594V131.727H59.5605V132.655H61.9472V133.612H55.8644ZM56.921 140.449V139.434H64.0812V142.393H62.776V140.449H56.921ZM57.5923 135.481C57.584 135.925 58.0729 136.198 58.8975 136.194C59.718 136.198 60.2069 135.925 60.2069 135.481C60.2069 135.025 59.718 134.789 58.8975 134.789C58.0729 134.789 57.584 135.025 57.5923 135.481ZM74.875 131.818V139.472H73.5697V131.818H74.875ZM66.2479 135.158C66.2438 133.617 67.491 132.514 69.1029 132.514C70.7147 132.514 71.9537 133.617 71.9537 135.158C71.9537 136.724 70.7147 137.818 69.1029 137.814C67.491 137.818 66.2438 136.724 66.2479 135.158ZM67.52 135.158C67.5159 136.099 68.1954 136.679 69.1029 136.679C69.9855 136.679 70.6733 136.099 70.6733 135.158C70.6733 134.242 69.9855 133.65 69.1029 133.65C68.1954 133.65 67.5159 134.242 67.52 135.158ZM67.8681 142.194V138.693H69.1816V141.137H75.1733V142.194H67.8681ZM83.2788 134.354C83.2705 136.293 84.294 138.241 86.0136 138.978L85.2387 140.023C84.0247 139.459 83.1296 138.336 82.6365 136.952C82.1559 138.444 81.2443 139.666 79.9597 140.267L79.1642 139.182C80.9211 138.419 81.9528 136.393 81.9611 134.354V132.659H83.2788V134.354ZM86.776 142.418V131.81H88.0896V142.418H86.776ZM98.0049 131.81V134.856H99.4841V135.937H98.0049V139.447H96.683V131.81H98.0049ZM89.6057 137.317C92.0339 136.612 93.4717 135.295 93.6955 133.679H90.0574V132.61H95.125C95.1209 135.427 93.2853 137.433 90.1527 138.353L89.6057 137.317ZM91.201 142.194V138.668H92.5145V141.137H98.4027V142.194H91.201Z" fill="#09101D"/>
<path d="M141.505 54.5765L143.957 52.1007C144.254 51.7922 144.481 51.5436 144.637 51.3549C144.794 51.1661 144.913 50.9819 144.996 50.8024C145.082 50.6205 145.124 50.4294 145.124 50.2292C145.124 50.0013 145.067 49.801 144.951 49.6283C144.836 49.4557 144.679 49.3233 144.478 49.2312C144.28 49.1369 144.058 49.0897 143.812 49.0897C143.554 49.0897 143.327 49.1415 143.132 49.2451C142.938 49.3463 142.789 49.4914 142.683 49.6801C142.579 49.8689 142.527 50.0887 142.527 50.3397H141.505C141.505 49.9161 141.604 49.542 141.802 49.2174C142.003 48.8905 142.279 48.6373 142.631 48.4578C142.986 48.2782 143.386 48.1884 143.833 48.1884C144.279 48.1884 144.678 48.2759 145.027 48.4509C145.377 48.6258 145.65 48.8664 145.846 49.1725C146.044 49.4764 146.144 49.8183 146.146 50.1981C146.144 50.4697 146.092 50.7299 145.991 50.9785C145.89 51.2271 145.717 51.5045 145.473 51.8107C145.231 52.1145 144.887 52.4852 144.44 52.9225L143.004 54.3832V54.435H146.26V55.3569H141.509L141.505 54.5765ZM150.367 49.6629C150.365 50.19 150.461 50.7091 150.657 51.2202C150.855 51.7312 151.13 52.1847 151.482 52.5807C151.835 52.9766 152.234 53.2724 152.681 53.4681L152.121 54.2071C151.624 53.97 151.183 53.6189 150.799 53.1539C150.414 52.6866 150.118 52.1502 149.911 51.5448C149.706 52.194 149.408 52.7683 149.017 53.2678C148.625 53.7674 148.172 54.1426 147.656 54.3935L147.083 53.6201C147.534 53.4175 147.938 53.1113 148.295 52.7015C148.652 52.2918 148.931 51.821 149.131 51.2893C149.331 50.7575 149.432 50.2154 149.435 49.6629V48.1643H150.367V49.6629ZM153.471 47.4357H154.404V56.2029H153.471V47.4357ZM162.673 50.022H163.94V50.7989H162.673V53.7962H161.734V47.4357H162.673V50.022ZM155.788 52.0938C156.469 51.8889 157.061 51.6265 157.563 51.3065C158.067 50.9865 158.465 50.6205 158.757 50.2085C159.052 49.7941 159.229 49.3486 159.289 48.8721H156.154V48.1021H160.298C160.298 48.8572 160.133 49.5455 159.804 50.167C159.477 50.7863 159.005 51.3215 158.388 51.7727C157.773 52.2216 157.038 52.5749 156.182 52.8328L155.788 52.0938ZM157.117 53.1435H158.05V55.2464H163.036V56.0061H157.117V53.1435Z" fill="#798087"/>
<path d="M147.5 69.0479C147.5 66.4572 149.6 64.3569 152.191 64.3569H152.809C155.4 64.3569 157.5 66.4572 157.5 69.0479V101.357H147.5V69.0479Z" fill="#798087"/>
<path d="M151.672 111.81V122.393H150.42V117.027H149.339V121.887H148.108V111.992H149.339V115.954H150.42V111.81H151.672ZM142.299 119.318C143.878 118.432 144.507 116.579 144.507 114.516V114.01H142.622V112.962H147.507V114.01H145.771V114.516C145.771 116.397 146.405 118.133 147.976 118.945L147.221 119.94C146.206 119.397 145.543 118.465 145.166 117.313C144.81 118.63 144.151 119.691 143.107 120.313L142.299 119.318ZM161.496 112.775V113.795C161.492 115.112 161.492 116.588 161.081 118.8L159.764 118.659C160.178 116.604 160.182 115.1 160.186 113.824H153.859V112.775H161.496ZM152.852 121.034V119.965H156.416V116.281H157.709V119.965H162.503V121.034H152.852ZM136.599 132.593V133.223C136.591 133.944 136.591 135.001 136.342 136.339L135.058 136.223C135.269 135.129 135.311 134.317 135.323 133.666H131.204V132.593H136.599ZM130.574 137.18C131.196 137.18 131.896 137.176 132.638 137.159V135.009H133.931V137.118C135.029 137.072 136.152 136.99 137.183 136.84L137.254 137.785C135.049 138.179 132.543 138.22 130.69 138.224L130.574 137.18ZM132.153 142.194V139.032H133.462V141.137H139.471V142.194H132.153ZM137.805 139.745V131.81H139.131V135.108H140.502V136.202H139.131V139.745H137.805ZM149.883 131.81V142.418H148.586V131.81H149.883ZM141.633 133.786V132.73H146.622V136.704H142.984V138.833C144.65 138.825 146.088 138.742 147.741 138.465L147.857 139.53C146.055 139.84 144.472 139.907 142.57 139.907H141.642V135.668H145.296V133.786H141.633ZM158.279 134.354C158.271 136.293 159.294 138.241 161.014 138.978L160.239 140.023C159.025 139.459 158.13 138.336 157.637 136.952C157.156 138.444 156.244 139.666 154.96 140.267L154.164 139.182C155.921 138.419 156.953 136.393 156.961 134.354V132.659H158.279V134.354ZM161.776 142.418V131.81H163.09V142.418H161.776ZM173.005 131.81V134.856H174.484V135.937H173.005V139.447H171.683V131.81H173.005ZM164.606 137.317C167.034 136.612 168.472 135.295 168.695 133.679H165.057V132.61H170.125C170.121 135.427 168.285 137.433 165.153 138.353L164.606 137.317ZM166.201 142.194V138.668H167.515V141.137H173.403V142.194H166.201Z" fill="#09101D"/>
<path d="M216.505 54.5765L218.957 52.1007C219.254 51.7922 219.481 51.5436 219.637 51.3549C219.794 51.1661 219.913 50.9819 219.996 50.8024C220.082 50.6205 220.124 50.4294 220.124 50.2292C220.124 50.0013 220.067 49.801 219.951 49.6283C219.836 49.4557 219.679 49.3233 219.478 49.2312C219.28 49.1369 219.058 49.0897 218.812 49.0897C218.554 49.0897 218.327 49.1415 218.132 49.2451C217.938 49.3463 217.789 49.4914 217.683 49.6801C217.579 49.8689 217.527 50.0887 217.527 50.3397H216.505C216.505 49.9161 216.604 49.542 216.802 49.2174C217.003 48.8905 217.279 48.6373 217.631 48.4578C217.986 48.2782 218.386 48.1884 218.833 48.1884C219.279 48.1884 219.678 48.2759 220.027 48.4509C220.377 48.6258 220.65 48.8664 220.846 49.1725C221.044 49.4764 221.144 49.8183 221.146 50.1981C221.144 50.4697 221.092 50.7299 220.991 50.9785C220.89 51.2271 220.717 51.5045 220.473 51.8107C220.231 52.1145 219.887 52.4852 219.44 52.9225L218.004 54.3832V54.435H221.26V55.3569H216.509L216.505 54.5765ZM225.367 49.6629C225.365 50.19 225.461 50.7091 225.657 51.2202C225.855 51.7312 226.13 52.1847 226.482 52.5807C226.835 52.9766 227.234 53.2724 227.681 53.4681L227.121 54.2071C226.624 53.97 226.183 53.6189 225.799 53.1539C225.414 52.6866 225.118 52.1502 224.911 51.5448C224.706 52.194 224.408 52.7683 224.017 53.2678C223.625 53.7674 223.172 54.1426 222.656 54.3935L222.083 53.6201C222.534 53.4175 222.938 53.1113 223.295 52.7015C223.652 52.2918 223.931 51.821 224.131 51.2893C224.331 50.7575 224.432 50.2154 224.435 49.6629V48.1643H225.367V49.6629ZM228.471 47.4357H229.404V56.2029H228.471V47.4357ZM237.673 50.022H238.94V50.7989H237.673V53.7962H236.734V47.4357H237.673V50.022ZM230.788 52.0938C231.469 51.8889 232.061 51.6265 232.563 51.3065C233.067 50.9865 233.465 50.6205 233.757 50.2085C234.052 49.7941 234.229 49.3486 234.289 48.8721H231.154V48.1021H235.298C235.298 48.8572 235.133 49.5455 234.804 50.167C234.477 50.7863 234.005 51.3215 233.388 51.7727C232.773 52.2216 232.038 52.5749 231.182 52.8328L230.788 52.0938ZM232.117 53.1435H233.05V55.2464H238.036V56.0061H232.117V53.1435Z" fill="#798087"/>
<path d="M222.5 69.0479C222.5 66.4572 224.6 64.3569 227.191 64.3569H227.809C230.4 64.3569 232.5 66.4572 232.5 69.0479V101.357H222.5V69.0479Z" fill="#E3E7EB"/>
<path d="M213.822 122.452V123.397C213.822 124.387 213.822 125.473 213.54 126.969H215.003V128.03H210.797V132.409H209.483V128.03H205.352V126.969H212.222C212.512 125.527 212.525 124.449 212.525 123.501H206.496V122.452H213.822ZM224.86 121.81V132.393H223.609V126.969H222.482V131.887H221.247V121.992H222.482V125.9H223.609V121.81H224.86ZM216.051 129.67V122.954H220.211V129.67H216.051ZM217.273 128.643H218.988V123.981H217.273V128.643ZM232.945 124.354C232.937 126.293 233.96 128.241 235.68 128.978L234.905 130.023C233.691 129.459 232.796 128.336 232.303 126.952C231.822 128.444 230.91 129.666 229.626 130.267L228.83 129.182C230.587 128.419 231.619 126.393 231.627 124.354V122.659H232.945V124.354ZM236.442 132.418V121.81H237.756V132.418H236.442ZM247.671 121.81V124.856H249.15V125.937H247.671V129.447H246.349V121.81H247.671ZM239.272 127.317C241.7 126.612 243.138 125.295 243.361 123.679H239.723V122.61H244.791C244.787 125.427 242.951 127.433 239.819 128.353L239.272 127.317ZM240.867 132.194V128.668H242.181V131.137H248.069V132.194H240.867Z" fill="#09101D"/>
<path d="M33 101.357H273" stroke="#B1B7BD" stroke-width="0.586372" stroke-linecap="round"/>
</g>
<defs>
<filter id="filter0_dd_189_8717" x="0" y="0.356934" width="315" height="180" filterUnits="userSpaceOnUse" color-interpolation-filters="sRGB">
<feFlood flood-opacity="0" result="BackgroundImageFix"/>
<feColorMatrix in="SourceAlpha" type="matrix" values="0 0 0 0 0 0 0 0 0 0 0 0 0 0 0 0 0 0 127 0" result="hardAlpha"/>
<feOffset dx="5" dy="5"/>
<feGaussianBlur stdDeviation="5"/>
<feComposite in2="hardAlpha" operator="out"/>
<feColorMatrix type="matrix" values="0 0 0 0 0.545098 0 0 0 0 0.54902 0 0 0 0 0.627451 0 0 0 0.25 0"/>
<feBlend mode="multiply" in2="BackgroundImageFix" result="effect1_dropShadow_189_8717"/>
<feColorMatrix in="SourceAlpha" type="matrix" values="0 0 0 0 0 0 0 0 0 0 0 0 0 0 0 0 0 0 127 0" result="hardAlpha"/>
<feOffset dx="2" dy="2"/>
<feGaussianBlur stdDeviation="2.5"/>
<feComposite in2="hardAlpha" operator="out"/>
<feColorMatrix type="matrix" values="0 0 0 0 0.545098 0 0 0 0 0.54902 0 0 0 0 0.627451 0 0 0 0.1 0"/>
<feBlend mode="multiply" in2="effect1_dropShadow_189_8717" result="effect2_dropShadow_189_8717"/>
<feBlend mode="normal" in="SourceGraphic" in2="effect2_dropShadow_189_8717" result="shape"/>
</filter>
</defs>
</svg>
